  0
SECTION
  2
HEADER
  9
$ACADVER
  1
AC1009
  9
$INSBASE
 10
0.0
 20
0.0
 30
0.0
  9
$EXTMIN
 10
-0.0000000000000548
 20
-298.4499999999999886
 30
0.0
  9
$EXTMAX
 10
761.7329969598331445
 20
0.0
 30
0.0
  9
$LIMMIN
 10
0.0
 20
0.0
  9
$LIMMAX
 10
12.0
 20
9.0
  9
$ORTHOMODE
 70
     0
  9
$REGENMODE
 70
     1
  9
$FILLMODE
 70
     1
  9
$QTEXTMODE
 70
     0
  9
$MIRRTEXT
 70
     0
  9
$DRAGMODE
 70
     2
  9
$LTSCALE
 40
1.0
  9
$OSMODE
 70
    39
  9
$ATTMODE
 70
     1
  9
$TEXTSIZE
 40
15.0
  9
$TRACEWID
 40
0.05
  9
$TEXTSTYLE
  7
STANDARD
  9
$CLAYER
  8
CONSTRUCTION_LINES
  9
$CELTYPE
  6
BYLAYER
  9
$CECOLOR
 62
   256
  9
$DIMSCALE
 40
1.0
  9
$DIMASZ
 40
0.18
  9
$DIMEXO
 40
0.0625
  9
$DIMDLI
 40
0.38
  9
$DIMRND
 40
0.0
  9
$DIMDLE
 40
0.0
  9
$DIMEXE
 40
0.18
  9
$DIMTP
 40
0.0
  9
$DIMTM
 40
0.0
  9
$DIMTXT
 40
0.18
  9
$DIMCEN
 40
0.09
  9
$DIMTSZ
 40
0.0
  9
$DIMTOL
 70
     0
  9
$DIMLIM
 70
     0
  9
$DIMTIH
 70
     1
  9
$DIMTOH
 70
     1
  9
$DIMSE1
 70
     0
  9
$DIMSE2
 70
     0
  9
$DIMTAD
 70
     0
  9
$DIMZIN
 70
     0
  9
$DIMBLK
  1

  9
$DIMASO
 70
     1
  9
$DIMSHO
 70
     1
  9
$DIMPOST
  1

  9
$DIMAPOST
  1

  9
$DIMALT
 70
     0
  9
$DIMALTD
 70
     2
  9
$DIMALTF
 40
25.3999999999999986
  9
$DIMLFAC
 40
1.0
  9
$DIMTOFL
 70
     0
  9
$DIMTVP
 40
0.0
  9
$DIMTIX
 70
     0
  9
$DIMSOXD
 70
     0
  9
$DIMSAH
 70
     0
  9
$DIMBLK1
  1

  9
$DIMBLK2
  1

  9
$DIMSTYLE
  2
STANDARD
  9
$DIMCLRD
 70
     0
  9
$DIMCLRE
 70
     0
  9
$DIMCLRT
 70
     0
  9
$DIMTFAC
 40
1.0
  9
$DIMGAP
 40
0.09
  9
$LUNITS
 70
     2
  9
$LUPREC
 70
     4
  9
$SKETCHINC
 40
0.1
  9
$FILLETRAD
 40
0.0
  9
$AUNITS
 70
     0
  9
$AUPREC
 70
     0
  9
$MENU
  1
.
  9
$ELEVATION
 40
0.0
  9
$PELEVATION
 40
0.0
  9
$THICKNESS
 40
0.0
  9
$LIMCHECK
 70
     0
  9
$BLIPMODE
 70
     0
  9
$CHAMFERA
 40
0.0
  9
$CHAMFERB
 40
0.0
  9
$SKPOLY
 70
     0
  9
$TDCREATE
 40
2461237.4615624998696148
  9
$TDUPDATE
 40
2461245.4868055558763444
  9
$TDINDWG
 40
1.0265162037
  9
$TDUSRTIMER
 40
1.0265162037
  9
$USRTIMER
 70
     1
  9
$ANGBASE
 50
0.0
  9
$ANGDIR
 70
     0
  9
$PDMODE
 70
     0
  9
$PDSIZE
 40
0.0
  9
$PLINEWID
 40
0.0
  9
$COORDS
 70
     1
  9
$SPLFRAME
 70
     0
  9
$SPLINETYPE
 70
     6
  9
$SPLINESEGS
 70
     8
  9
$ATTDIA
 70
     1
  9
$ATTREQ
 70
     1
  9
$HANDLING
 70
     1
  9
$HANDSEED
  5
54A8
  9
$SURFTAB1
 70
     6
  9
$SURFTAB2
 70
     6
  9
$SURFTYPE
 70
     6
  9
$SURFU
 70
     6
  9
$SURFV
 70
     6
  9
$UCSNAME
  2

  9
$UCSORG
 10
0.0
 20
0.0
 30
0.0
  9
$UCSXDIR
 10
1.0
 20
0.0
 30
0.0
  9
$UCSYDIR
 10
0.0
 20
1.0
 30
0.0
  9
$PUCSNAME
  2

  9
$PUCSORG
 10
0.0
 20
0.0
 30
0.0
  9
$PUCSXDIR
 10
1.0
 20
0.0
 30
0.0
  9
$PUCSYDIR
 10
0.0
 20
1.0
 30
0.0
  9
$USERI1
 70
     0
  9
$USERI2
 70
     0
  9
$USERI3
 70
     0
  9
$USERI4
 70
     0
  9
$USERI5
 70
     0
  9
$USERR1
 40
0.0
  9
$USERR2
 40
0.0
  9
$USERR3
 40
0.0
  9
$USERR4
 40
0.0
  9
$USERR5
 40
0.0
  9
$WORLDVIEW
 70
     1
  9
$SHADEDGE
 70
     3
  9
$SHADEDIF
 70
    70
  9
$TILEMODE
 70
     1
  9
$MAXACTVP
 70
    64
  9
$PLIMCHECK
 70
     0
  9
$PEXTMIN
 10
0.0
 20
0.0
 30
0.0
  9
$PEXTMAX
 10
0.0
 20
0.0
 30
0.0
  9
$PLIMMIN
 10
0.0
 20
0.0
  9
$PLIMMAX
 10
12.0
 20
9.0
  9
$UNITMODE
 70
     0
  9
$VISRETAIN
 70
     1
  9
$PLINEGEN
 70
     0
  9
$PSLTSCALE
 70
     1
  0
ENDSEC
  0
SECTION
  2
TABLES
  0
TABLE
  2
VPORT
 70
     1
  0
VPORT
  2
*ACTIVE
 70
     0
 10
0.0
 20
0.0
 11
1.0
 21
1.0
 12
350.2443413346248917
 22
-267.4455980594138964
 13
0.0
 23
0.0
 14
0.5
 24
0.5
 15
0.5
 25
0.5
 16
0.0
 26
0.0
 36
262.5390601339537966
 17
38.1801867188817212
 27
47.8722388328310302
 37
0.0
 40
634.6973133555875393
 41
2.2032146957520089
 42
50.0
 43
0.0
 44
0.0
 50
0.0
 51
0.0
 71
     0
 72
  1000
 73
     1
 74
     3
 75
     0
 76
     1
 77
     0
 78
     0
  0
ENDTAB
  0
TABLE
  2
LTYPE
 70
     1
  0
LTYPE
  2
CONTINUOUS
 70
     0
  3
Solid line
 72
    65
 73
     0
 40
0.0
  0
ENDTAB
  0
TABLE
  2
LAYER
 70
     6
  0
LAYER
  2
0
 70
     0
 62
     7
  6
CONTINUOUS
  0
LAYER
  2
CONSTRUCTION_LINES
 70
     0
 62
    30
  6
CONTINUOUS
  0
LAYER
  2
CUT_1
 70
     0
 62
    50
  6
CONTINUOUS
  0
LAYER
  2
BOUNDS
 70
     0
 62
   220
  6
CONTINUOUS
  0
LAYER
  2
CUT_2
 70
     0
 62
    10
  6
CONTINUOUS
  0
LAYER
  2
SCAN
 70
     0
 62
    90
  6
CONTINUOUS
  0
ENDTAB
  0
TABLE
  2
STYLE
 70
     2
  0
STYLE
  2
STANDARD
 70
     0
 40
0.0
 41
1.0
 50
0.0
 71
     0
 42
15.0
  3
txt
  4

  0
STYLE
  2
ANNOTATIVE
 70
     0
 40
0.0
 41
1.0
 50
0.0
 71
     0
 42
0.2
  3
txt
  4

  0
ENDTAB
  0
TABLE
  2
VIEW
 70
     0
  0
ENDTAB
  0
TABLE
  2
UCS
 70
     0
  0
ENDTAB
  0
TABLE
  2
APPID
 70
    10
  0
APPID
  2
ACAD
 70
     0
  0
APPID
  2
ACADANNOTATIVE
 70
     0
  0
APPID
  2
ACADANNOPO
 70
     0
  0
APPID
  2
ACAD_DSTYLE_DIMJAG
 70
     0
  0
APPID
  2
ACAD_DSTYLE_DIMTALN
 70
     0
  0
APPID
  2
ACAD_MLEADERVER
 70
     0
  0
APPID
  2
ACAD_NAV_VCDISPLAY
 70
     0
  0
APPID
  2
ACAD_EXEMPT_FROM_CAD_STANDARDS
 70
     0
  0
APPID
  2
ACAECLAYERSTANDARD
 70
     0
  0
APPID
  2
ACCMTRANSPARENCY
 70
     0
  0
ENDTAB
  0
TABLE
  2
DIMSTYLE
 70
     2
  0
DIMSTYLE
  2
STANDARD
 70
     0
  3

  4

  5

  6

  7

 40
1.0
 41
0.18
 42
0.0625
 43
0.38
 44
0.18
 45
0.0
 46
0.0
 47
0.0
 48
0.0
140
0.18
141
0.09
142
0.0
143
25.3999999999999986
144
1.0
145
0.0
146
1.0
147
0.09
 71
     0
 72
     0
 73
     1
 74
     1
 75
     0
 76
     0
 77
     0
 78
     0
170
     0
171
     2
172
     0
173
     0
174
     0
175
     0
176
     0
177
     0
178
     0
  0
DIMSTYLE
  2
ANNOTATIVE
 70
     0
  3

  4

  5

  6

  7

 40
0.0
 41
0.18
 42
0.0625
 43
0.38
 44
0.18
 45
0.0
 46
0.0
 47
0.0
 48
0.0
140
0.18
141
0.09
142
0.0
143
25.3999999999999986
144
1.0
145
0.0
146
1.0
147
0.09
 71
     0
 72
     0
 73
     1
 74
     1
 75
     0
 76
     0
 77
     0
 78
     0
170
     0
171
     2
172
     0
173
     0
174
     0
175
     0
176
     0
177
     0
178
     0
  0
ENDTAB
  0
ENDSEC
  0
SECTION
  2
BLOCKS
  0
BLOCK
  8
0
  2
$MODEL_SPACE
 70
     0
 10
0.0
 20
0.0
 30
0.0
  3
$MODEL_SPACE
  1

  0
ENDBLK
  5
4C06
  8
0
  0
BLOCK
 67
     1
  8
0
  2
$PAPER_SPACE
 70
     0
 10
0.0
 20
0.0
 30
0.0
  3
$PAPER_SPACE
  1

  0
ENDBLK
  5
4C02
 67
     1
  8
0
  0
ENDSEC
  0
SECTION
  2
ENTITIES
  0
LINE
  5
263
  8
BOUNDS
 10
0.0
 20
0.0
 30
0.0
 11
-0.0000000000000548
 21
-298.4499999999999886
 31
0.0
  0
LINE
  5
264
  8
BOUNDS
 10
-0.0000000000000548
 20
-298.4499999999999886
 30
0.0
 11
501.6499999999998067
 21
-298.4499999999999886
 31
0.0
  0
LINE
  5
265
  8
BOUNDS
 10
501.6499999999998067
 20
-298.4499999999999886
 30
0.0
 11
501.6499999999998067
 21
-0.000000000000149
 31
0.0
  0
LINE
  5
266
  8
BOUNDS
 10
0.0
 20
0.0
 30
0.0
 11
501.6499999999998067
 21
-0.000000000000149
 31
0.0
  0
LINE
  5
26C
  8
CONSTRUCTION_LINES
 10
0.0000000000000365
 20
0.0
 30
0.0
 11
0.0
 21
0.0
 31
0.0
  0
LINE
  5
288
  8
CONSTRUCTION_LINES
 10
159.999999999999801
 20
-149.2249999999999943
 30
0.0
 11
159.999999999999801
 21
-298.4499999999999886
 31
0.0
  0
LINE
  5
289
  8
CUT_2
 10
159.999999999999801
 20
-298.4499999999999886
 30
0.0
 11
160.0
 21
-0.0000000000000578
 31
0.0
  0
LINE
  5
294
  8
CUT_2
 10
319.9999999999998863
 20
-298.4499999999998749
 30
0.0
 11
320.0
 21
-0.0000000000000588
 31
0.0
  0
LINE
  5
29F
  8
CUT_2
 10
479.9999999999997726
 20
-298.4499999999999886
 30
0.0
 11
480.0
 21
-0.0000000000000882
 31
0.0
  0
LINE
  5
2A5
  8
CONSTRUCTION_LINES
 10
320.0
 20
-0.0000000000000588
 30
0.0
 11
335.0
 21
-0.0000000000000624
 31
0.0
  0
LINE
  5
2A6
  8
CONSTRUCTION_LINES
 10
335.0
 20
-0.0000000000000624
 30
0.0
 11
335.0
 21
-15.0000000000000604
 31
0.0
  0
LINE
  5
2A7
  8
CONSTRUCTION_LINES
 10
160.0
 20
-0.0000000000000578
 30
0.0
 11
175.0
 21
-0.0000000000000673
 31
0.0
  0
LINE
  5
2A8
  8
CONSTRUCTION_LINES
 10
175.0
 20
-0.0000000000000673
 30
0.0
 11
175.0
 21
-15.0000000000000604
 31
0.0
  0
LINE
  5
2A9
  8
CONSTRUCTION_LINES
 10
0.0
 20
0.0
 30
0.0
 11
15.0
 21
-0.0000000000000037
 31
0.0
  0
LINE
  5
2AA
  8
CONSTRUCTION_LINES
 10
15.0
 20
-0.0000000000000037
 30
0.0
 11
15.0
 21
-15.0
 31
0.0
  0
POLYLINE
  5
2DC
  8
SCAN
 66
     1
 10
0.0
 20
0.0
 30
0.0
 70
     1
  0
VERTEX
  5
4DE5
  8
SCAN
 10
296.7013499999998771
 20
-287.6940499999998906
 30
0.0
  0
VERTEX
  5
4DE6
  8
SCAN
 10
296.979699999999923
 20
-287.5548999999999751
 30
0.0
  0
VERTEX
  5
4DE7
  8
SCAN
 10
299.0674000000000206
 20
-281.5702499999999873
 30
0.0
  0
VERTEX
  5
4DE8
  8
SCAN
 10
300.3199999999999932
 20
-275.8639499999998748
 30
0.0
  0
VERTEX
  5
4DE9
  8
SCAN
 10
300.876700000000028
 20
-271.2710500000000025
 30
0.0
  0
VERTEX
  5
4DEA
  8
SCAN
 10
301.155050000000017
 20
-270.9927000000001271
 30
0.0
  0
VERTEX
  5
4DEB
  8
SCAN
 10
304.4953499999999735
 20
-271.4102500000000759
 30
0.0
  0
VERTEX
  5
4DEC
  8
SCAN
 10
305.8870999999999754
 20
-271.9669500000001108
 30
0.0
  0
VERTEX
  5
4DED
  8
SCAN
 10
306.1654499999999075
 20
-271.8277499999999804
 30
0.0
  0
VERTEX
  5
4DEE
  8
SCAN
 10
305.6087499999998727
 20
-268.9049999999999727
 30
0.0
  0
VERTEX
  5
4DEF
  8
SCAN
 10
303.7994499999999221
 20
-266.2606499999998846
 30
0.0
  0
VERTEX
  5
4DF0
  8
SCAN
 10
302.4076499999999896
 20
-265.147199999999998
 30
0.0
  0
VERTEX
  5
4DF1
  8
SCAN
 10
301.7117499999998813
 20
-266.8173499999999763
 30
0.0
  0
VERTEX
  5
4DF2
  8
SCAN
 10
301.2942499999998063
 20
-267.2348999999999819
 30
0.0
  0
VERTEX
  5
4DF3
  8
SCAN
 10
301.155050000000017
 20
-267.0957000000000789
 30
0.0
  0
VERTEX
  5
4DF4
  8
SCAN
 10
301.4333999999998923
 20
-265.0080500000000256
 30
0.0
  0
VERTEX
  5
4DF5
  8
SCAN
 10
301.2942499999998063
 20
-261.3894000000000233
 30
0.0
  0
VERTEX
  5
4DF6
  8
SCAN
 10
304.2169499999998834
 20
-261.2502499999998804
 30
0.0
  0
VERTEX
  5
4DF7
  8
SCAN
 10
307.0005499999999756
 20
-261.667750000000126
 30
0.0
  0
VERTEX
  5
4DF8
  8
SCAN
 10
306.8613500000000158
 20
-259.8584499999998911
 30
0.0
  0
VERTEX
  5
4DF9
  8
SCAN
 10
305.8870999999999754
 20
-257.0749000000001274
 30
0.0
  0
VERTEX
  5
4DFA
  8
SCAN
 10
304.3561500000000137
 20
-254.5697000000000116
 30
0.0
  0
VERTEX
  5
4DFB
  8
SCAN
 10
301.155050000000017
 20
-250.8118500000001063
 30
0.0
  0
VERTEX
  5
4DFC
  8
SCAN
 10
302.5468500000000063
 20
-248.5850000000000932
 30
0.0
  0
VERTEX
  5
4DFD
  8
SCAN
 10
303.3818999999999733
 20
-245.5231000000001131
 30
0.0
  0
VERTEX
  5
4DFE
  8
SCAN
 10
303.3818999999999733
 20
-240.9302500000000862
 30
0.0
  0
VERTEX
  5
4DFF
  8
SCAN
 10
302.9643500000000245
 20
-238.8425499999999886
 30
0.0
  0
VERTEX
  5
4E00
  8
SCAN
 10
301.9900999999999271
 20
-236.4765500000000884
 30
0.0
  0
VERTEX
  5
4E01
  8
SCAN
 10
300.3199999999999932
 20
-234.3888500000001045
 30
0.0
  0
VERTEX
  5
4E02
  8
SCAN
 10
300.876700000000028
 20
-234.2497000000001037
 30
0.0
  0
VERTEX
  5
4E03
  8
SCAN
 10
302.8251999999998816
 20
-234.6672000000000935
 30
0.0
  0
VERTEX
  5
4E04
  8
SCAN
 10
302.8251999999998816
 20
-205.7181499999998948
 30
0.0
  0
VERTEX
  5
4E05
  8
SCAN
 10
291.4125999999998839
 20
-203.7697000000000003
 30
0.0
  0
VERTEX
  5
4E06
  8
SCAN
 10
291.4125999999998839
 20
-207.249149999999986
 30
0.0
  0
VERTEX
  5
4E07
  8
SCAN
 10
291.134249999999895
 20
-207.3882999999999868
 30
0.0
  0
VERTEX
  5
4E08
  8
SCAN
 10
272.2059999999999036
 20
-204.048050000000103
 30
0.0
  0
VERTEX
  5
4E09
  8
SCAN
 10
269.4224500000000262
 20
-203.2129500000000917
 30
0.0
  0
VERTEX
  5
4E0A
  8
SCAN
 10
269.2832500000000095
 20
-199.0376500000000135
 30
0.0
  0
VERTEX
  5
4E0B
  8
SCAN
 10
259.8191499999999223
 20
-197.3675000000000068
 30
0.0
  0
VERTEX
  5
4E0C
  8
SCAN
 10
258.8448999999998819
 20
-200.1510500000001116
 30
0.0
  0
VERTEX
  5
4E0D
  8
SCAN
 10
258.2882000000000176
 20
-203.3521499999999946
 30
0.0
  0
VERTEX
  5
4E0E
  8
SCAN
 10
258.5665500000000065
 20
-207.3882999999999868
 30
0.0
  0
VERTEX
  5
4E0F
  8
SCAN
 10
259.1232499999999277
 20
-209.1976500000000101
 30
0.0
  0
VERTEX
  5
4E10
  8
SCAN
 10
259.8191499999999223
 20
-210.3110499999999945
 30
0.0
  0
VERTEX
  5
4E11
  8
SCAN
 10
258.4273999999999205
 20
-215.3214499999999987
 30
0.0
  0
VERTEX
  5
4E12
  8
SCAN
 10
258.4273999999999205
 20
-219.7751500000001101
 30
0.0
  0
VERTEX
  5
4E13
  8
SCAN
 10
258.8448999999998819
 20
-221.584500000000105
 30
0.0
  0
VERTEX
  5
4E14
  8
SCAN
 10
260.097500000000025
 20
-224.0896999999999935
 30
0.0
  0
VERTEX
  5
4E15
  8
SCAN
 10
261.9068500000000199
 20
-225.8990000000000862
 30
0.0
  0
VERTEX
  5
4E16
  8
SCAN
 10
264.5511999999999944
 20
-227.4299500000001046
 30
0.0
  0
VERTEX
  5
4E17
  8
SCAN
 10
262.8810999999998899
 20
-228.125850000000014
 30
0.0
  0
VERTEX
  5
4E18
  8
SCAN
 10
261.4892999999999006
 20
-229.1000999999999976
 30
0.0
  0
VERTEX
  5
4E19
  8
SCAN
 10
259.8191499999999223
 20
-231.1877499999999941
 30
0.0
  0
VERTEX
  5
4E1A
  8
SCAN
 10
259.1232499999999277
 20
-232.7187000000000126
 30
0.0
  0
VERTEX
  5
4E1B
  8
SCAN
 10
258.2882000000000176
 20
-237.3115999999999985
 30
0.0
  0
VERTEX
  5
4E1C
  8
SCAN
 10
258.2882000000000176
 20
-241.6261000000000934
 30
0.0
  0
VERTEX
  5
4E1D
  8
SCAN
 10
258.7057500000000232
 20
-246.3581499999999949
 30
0.0
  0
VERTEX
  5
4E1E
  8
SCAN
 10
258.9840999999998985
 20
-247.3324000000000922
 30
0.0
  0
VERTEX
  5
4E1F
  8
SCAN
 10
266.7780500000000075
 20
-248.5850000000000932
 30
0.0
  0
VERTEX
  5
4E20
  8
SCAN
 10
266.9172500000000241
 20
-248.8634000000000981
 30
0.0
  0
VERTEX
  5
4E21
  8
SCAN
 10
264.1336999999999762
 20
-251.5077499999999873
 30
0.0
  0
VERTEX
  5
4E22
  8
SCAN
 10
261.3500999999998839
 20
-254.9872000000000867
 30
0.0
  0
VERTEX
  5
4E23
  8
SCAN
 10
258.8448999999998819
 20
-259.023399999999981
 30
0.0
  0
VERTEX
  5
4E24
  8
SCAN
 10
256.2005500000000211
 20
-264.8688500000001227
 30
0.0
  0
VERTEX
  5
4E25
  8
SCAN
 10
258.0098499999999717
 20
-268.7658500000001141
 30
0.0
  0
VERTEX
  5
4E26
  8
SCAN
 10
260.3759000000000015
 20
-272.9411999999999807
 30
0.0
  0
VERTEX
  5
4E27
  8
SCAN
 10
264.690400000000011
 20
-278.6474999999999795
 30
0.0
  0
VERTEX
  5
4E28
  8
SCAN
 10
267.4739499999998884
 20
-281.2918499999998971
 30
0.0
  0
VERTEX
  5
4E29
  8
SCAN
 10
270.2574999999998795
 20
-283.2403499999999781
 30
0.0
  0
VERTEX
  5
4E2A
  8
SCAN
 10
272.9019000000000119
 20
-284.3537999999999784
 30
0.0
  0
VERTEX
  5
4E2B
  8
SCAN
 10
275.128750000000025
 20
-284.632150000000081
 30
0.0
  0
VERTEX
  5
4E2C
  8
SCAN
 10
273.7369499999999221
 20
-284.2146000000000754
 30
0.0
  0
VERTEX
  5
4E2D
  8
SCAN
 10
270.5359000000000265
 20
-282.4053000000001248
 30
0.0
  0
VERTEX
  5
4E2E
  8
SCAN
 10
268.448199999999872
 20
-280.735149999999976
 30
0.0
  0
VERTEX
  5
4E2F
  8
SCAN
 10
265.9429999999999268
 20
-278.2299499999999739
 30
0.0
  0
VERTEX
  5
4E30
  8
SCAN
 10
262.1852000000000089
 20
-273.2195500000000266
 30
0.0
  0
VERTEX
  5
4E31
  8
SCAN
 10
260.236699999999928
 20
-269.8792500000001269
 30
0.0
  0
VERTEX
  5
4E32
  8
SCAN
 10
257.8706500000000119
 20
-264.8688500000001227
 30
0.0
  0
VERTEX
  5
4E33
  8
SCAN
 10
260.6542499999998768
 20
-262.9203499999999849
 30
0.0
  0
VERTEX
  5
4E34
  8
SCAN
 10
263.1594499999998789
 20
-261.667750000000126
 30
0.0
  0
VERTEX
  5
4E35
  8
SCAN
 10
266.7780500000000075
 20
-260.4151499999999828
 30
0.0
  0
VERTEX
  5
4E36
  8
SCAN
 10
270.9533999999998741
 20
-259.7192500000001019
 30
0.0
  0
VERTEX
  5
4E37
  8
SCAN
 10
275.6854499999998893
 20
-259.8584499999998911
 30
0.0
  0
VERTEX
  5
4E38
  8
SCAN
 10
279.721650000000011
 20
-260.9718500000000745
 30
0.0
  0
VERTEX
  5
4E39
  8
SCAN
 10
282.5051999999998884
 20
-262.6419999999998822
 30
0.0
  0
VERTEX
  5
4E3A
  8
SCAN
 10
284.7320500000000152
 20
-265.0080500000000256
 30
0.0
  0
VERTEX
  5
4E3B
  8
SCAN
 10
286.5413500000000226
 20
-268.6266499999999837
 30
0.0
  0
VERTEX
  5
4E3C
  8
SCAN
 10
286.6805499999999256
 20
-266.1214499999999816
 30
0.0
  0
VERTEX
  5
4E3D
  8
SCAN
 10
286.123800000000017
 20
-263.7554500000001099
 30
0.0
  0
VERTEX
  5
4E3E
  8
SCAN
 10
284.8711999999998739
 20
-261.5286000000000968
 30
0.0
  0
VERTEX
  5
4E3F
  8
SCAN
 10
282.3659999999998718
 20
-259.1625500000001239
 30
0.0
  0
VERTEX
  5
4E40
  8
SCAN
 10
279.721650000000011
 20
-257.7708000000001221
 30
0.0
  0
VERTEX
  5
4E41
  8
SCAN
 10
276.6596999999998729
 20
-256.9357000000001108
 30
0.0
  0
VERTEX
  5
4E42
  8
SCAN
 10
272.7627499999999259
 20
-256.7965500000000247
 30
0.0
  0
VERTEX
  5
4E43
  8
SCAN
 10
269.839999999999975
 20
-257.3532500000001164
 30
0.0
  0
VERTEX
  5
4E44
  8
SCAN
 10
269.1440999999999235
 20
-257.2140499999998724
 30
0.0
  0
VERTEX
  5
4E45
  8
SCAN
 10
271.6492999999999256
 20
-255.4047499999998934
 30
0.0
  0
VERTEX
  5
4E46
  8
SCAN
 10
274.0153499999998985
 20
-254.1521500000000913
 30
0.0
  0
VERTEX
  5
4E47
  8
SCAN
 10
278.0514999999999759
 20
-252.8995500000000902
 30
0.0
  0
VERTEX
  5
4E48
  8
SCAN
 10
282.6443499999999744
 20
-252.8995500000000902
 30
0.0
  0
VERTEX
  5
4E49
  8
SCAN
 10
284.7320500000000152
 20
-253.4562500000000114
 30
0.0
  0
VERTEX
  5
4E4A
  8
SCAN
 10
286.5413500000000226
 20
-254.291300000000092
 30
0.0
  0
VERTEX
  5
4E4B
  8
SCAN
 10
288.2114999999998872
 20
-255.4047499999998934
 30
0.0
  0
VERTEX
  5
4E4C
  8
SCAN
 10
290.2991499999998837
 20
-257.4923999999999751
 30
0.0
  0
VERTEX
  5
4E4D
  8
SCAN
 10
291.6909499999998729
 20
-259.8584499999998911
 30
0.0
  0
VERTEX
  5
4E4E
  8
SCAN
 10
291.9692999999999756
 20
-260.6934999999999718
 30
0.0
  0
VERTEX
  5
4E4F
  8
SCAN
 10
291.8300999999999021
 20
-260.9718500000000745
 30
0.0
  0
VERTEX
  5
4E50
  8
SCAN
 10
289.1857499999999845
 20
-258.0491499999998837
 30
0.0
  0
VERTEX
  5
4E51
  8
SCAN
 10
286.5413500000000226
 20
-256.3790000000000759
 30
0.0
  0
VERTEX
  5
4E52
  8
SCAN
 10
282.5051999999998884
 20
-255.1264000000001033
 30
0.0
  0
VERTEX
  5
4E53
  8
SCAN
 10
278.886549999999886
 20
-254.9872000000000867
 30
0.0
  0
VERTEX
  5
4E54
  8
SCAN
 10
281.9485000000000241
 20
-255.9614500000000135
 30
0.0
  0
VERTEX
  5
4E55
  8
SCAN
 10
284.5928499999998849
 20
-257.631599999999878
 30
0.0
  0
VERTEX
  5
4E56
  8
SCAN
 10
286.4021999999998798
 20
-259.4408999999998855
 30
0.0
  0
VERTEX
  5
4E57
  8
SCAN
 10
287.3763999999998759
 20
-260.8326999999998748
 30
0.0
  0
VERTEX
  5
4E58
  8
SCAN
 10
288.7681999999998084
 20
-264.1729500000001281
 30
0.0
  0
VERTEX
  5
4E59
  8
SCAN
 10
289.3248999999999
 20
-267.6524000000001138
 30
0.0
  0
VERTEX
  5
4E5A
  8
SCAN
 10
289.0465500000000247
 20
-272.5236499999999751
 30
0.0
  0
VERTEX
  5
4E5B
  8
SCAN
 10
287.6548000000000229
 20
-277.5340499999999793
 30
0.0
  0
VERTEX
  5
4E5C
  8
SCAN
 10
286.5413500000000226
 20
-279.7608999999999924
 30
0.0
  0
VERTEX
  5
4E5D
  8
SCAN
 10
285.845450000000028
 20
-280.5960000000001173
 30
0.0
  0
VERTEX
  5
4E5E
  8
SCAN
 10
284.1753499999999235
 20
-280.735149999999976
 30
0.0
  0
VERTEX
  5
4E5F
  8
SCAN
 10
282.5051999999998884
 20
-281.7094000000000165
 30
0.0
  0
VERTEX
  5
4E60
  8
SCAN
 10
281.1134000000000128
 20
-280.4567999999998733
 30
0.0
  0
VERTEX
  5
4E61
  8
SCAN
 10
280.8350499999999101
 20
-279.900100000000009
 30
0.0
  0
VERTEX
  5
4E62
  8
SCAN
 10
280.5566999999999211
 20
-277.5340499999999793
 30
0.0
  0
VERTEX
  5
4E63
  8
SCAN
 10
281.5309500000000185
 20
-272.5236499999999751
 30
0.0
  0
VERTEX
  5
4E64
  8
SCAN
 10
281.5309500000000185
 20
-269.600900000000081
 30
0.0
  0
VERTEX
  5
4E65
  8
SCAN
 10
281.1134000000000128
 20
-268.069949999999892
 30
0.0
  0
VERTEX
  5
4E66
  8
SCAN
 10
279.9999999999998863
 20
-266.1214499999999816
 30
0.0
  0
VERTEX
  5
4E67
  8
SCAN
 10
277.9123000000000161
 20
-264.3121499999999742
 30
0.0
  0
VERTEX
  5
4E68
  8
SCAN
 10
276.102999999999895
 20
-263.6162499999999795
 30
0.0
  0
VERTEX
  5
4E69
  8
SCAN
 10
274.4328499999999735
 20
-263.3379000000001042
 30
0.0
  0
VERTEX
  5
4E6A
  8
SCAN
 10
271.2317499999999768
 20
-263.3379000000001042
 30
0.0
  0
VERTEX
  5
4E6B
  8
SCAN
 10
269.5616499999998723
 20
-263.6162499999999795
 30
0.0
  0
VERTEX
  5
4E6C
  8
SCAN
 10
267.0563999999998828
 20
-264.4512999999998897
 30
0.0
  0
VERTEX
  5
4E6D
  8
SCAN
 10
265.2470999999998753
 20
-265.4255499999998733
 30
0.0
  0
VERTEX
  5
4E6E
  8
SCAN
 10
263.4377999999999247
 20
-266.8173499999999763
 30
0.0
  0
VERTEX
  5
4E6F
  8
SCAN
 10
262.4635499999999979
 20
-268.069949999999892
 30
0.0
  0
VERTEX
  5
4E70
  8
SCAN
 10
266.6388999999999783
 20
-267.2348999999999819
 30
0.0
  0
VERTEX
  5
4E71
  8
SCAN
 10
269.839999999999975
 20
-267.0957000000000789
 30
0.0
  0
VERTEX
  5
4E72
  8
SCAN
 10
269.9791499999998905
 20
-267.2348999999999819
 30
0.0
  0
VERTEX
  5
4E73
  8
SCAN
 10
268.3090500000000134
 20
-269.0441999999999894
 30
0.0
  0
VERTEX
  5
4E74
  8
SCAN
 10
266.9172500000000241
 20
-271.1318499999999858
 30
0.0
  0
VERTEX
  5
4E75
  8
SCAN
 10
265.9429999999999268
 20
-273.6370999999999754
 30
0.0
  0
VERTEX
  5
4E76
  8
SCAN
 10
269.0049000000000206
 20
-271.5493999999999915
 30
0.0
  0
VERTEX
  5
4E77
  8
SCAN
 10
272.2059999999999036
 20
-269.8792500000001269
 30
0.0
  0
VERTEX
  5
4E78
  8
SCAN
 10
272.3451999999999771
 20
-270.018449999999973
 30
0.0
  0
VERTEX
  5
4E79
  8
SCAN
 10
271.2317499999999768
 20
-271.9669500000001108
 30
0.0
  0
VERTEX
  5
4E7A
  8
SCAN
 10
270.1183499999999071
 20
-275.7247499999999718
 30
0.0
  0
VERTEX
  5
4E7B
  8
SCAN
 10
270.1183499999999071
 20
-278.2299499999999739
 30
0.0
  0
VERTEX
  5
4E7C
  8
SCAN
 10
271.6492999999999256
 20
-275.8639499999998748
 30
0.0
  0
VERTEX
  5
4E7D
  8
SCAN
 10
273.3194500000000176
 20
-274.1938000000001239
 30
0.0
  0
VERTEX
  5
4E7E
  8
SCAN
 10
275.128750000000025
 20
-273.2195500000000266
 30
0.0
  0
VERTEX
  5
4E7F
  8
SCAN
 10
277.0772499999998786
 20
-273.0803499999998962
 30
0.0
  0
VERTEX
  5
4E80
  8
SCAN
 10
277.3555999999999244
 20
-273.4979000000000724
 30
0.0
  0
VERTEX
  5
4E81
  8
SCAN
 10
277.3555999999999244
 20
-278.5083000000000766
 30
0.0
  0
VERTEX
  5
4E82
  8
SCAN
 10
278.1906499999998914
 20
-280.735149999999976
 30
0.0
  0
VERTEX
  5
4E83
  8
SCAN
 10
280.4175000000000182
 20
-283.101199999999892
 30
0.0
  0
VERTEX
  5
4E84
  8
SCAN
 10
283.201099999999883
 20
-284.9105000000001269
 30
0.0
  0
VERTEX
  5
4E85
  8
SCAN
 10
284.8711999999998739
 20
-285.4671999999998775
 30
0.0
  0
VERTEX
  5
4E86
  8
SCAN
 10
285.7062999999999988
 20
-285.4671999999998775
 30
0.0
  0
VERTEX
  5
4E87
  8
SCAN
 10
286.9589000000000283
 20
-284.0754499999998757
 30
0.0
  0
VERTEX
  5
4E88
  8
SCAN
 10
288.7681999999998084
 20
-281.1526999999999816
 30
0.0
  0
VERTEX
  5
4E89
  8
SCAN
 10
290.2991499999998837
 20
-277.9515999999999849
 30
0.0
  0
VERTEX
  5
4E8A
  8
SCAN
 10
291.4125999999998839
 20
-276.6989999999998986
 30
0.0
  0
VERTEX
  5
4E8B
  8
SCAN
 10
292.6652000000000271
 20
-276.1422999999999774
 30
0.0
  0
VERTEX
  5
4E8C
  8
SCAN
 10
294.0569499999999721
 20
-276.1422999999999774
 30
0.0
  0
VERTEX
  5
4E8D
  8
SCAN
 10
295.5879499999999211
 20
-276.977350000000115
 30
0.0
  0
VERTEX
  5
4E8E
  8
SCAN
 10
295.4487499999999045
 20
-276.2814500000001203
 30
0.0
  0
VERTEX
  5
4E8F
  8
SCAN
 10
294.4744999999999777
 20
-275.1680499999999938
 30
0.0
  0
VERTEX
  5
4E90
  8
SCAN
 10
296.4230000000000018
 20
-274.3329500000000962
 30
0.0
  0
VERTEX
  5
4E91
  8
SCAN
 10
299.2065499999998792
 20
-271.5493999999999915
 30
0.0
  0
VERTEX
  5
4E92
  8
SCAN
 10
299.3457499999998959
 20
-271.9669500000001108
 30
0.0
  0
VERTEX
  5
4E93
  8
SCAN
 10
297.9539499999999066
 20
-279.6217500000000769
 30
0.0
  0
VERTEX
  5
4E94
  8
SCAN
 10
296.7013499999998771
 20
-283.7971000000000004
 30
0.0
  0
VERTEX
  5
4E95
  8
SCAN
 10
295.8662999999999101
 20
-285.6064000000001215
 30
0.0
  0
VERTEX
  5
4E96
  8
SCAN
 10
295.3095499999998879
 20
-286.0239500000001271
 30
0.0
  0
VERTEX
  5
4E97
  8
SCAN
 10
293.3610999999999081
 20
-286.5806500000001051
 30
0.0
  0
VERTEX
  5
4E98
  8
SCAN
 10
289.1857499999999845
 20
-286.9981500000001233
 30
0.0
  0
VERTEX
  5
4E99
  8
SCAN
 10
291.9692999999999756
 20
-287.5548999999999751
 30
0.0
  0
SEQEND
  5
4E9A
  8
SCAN
  0
POLYLINE
  5
2DD
  8
SCAN
 66
     1
 10
0.0
 20
0.0
 30
0.0
 70
     1
  0
VERTEX
  5
4E9B
  8
SCAN
 10
296.7013499999998771
 20
-287.6940499999998906
 30
0.0
  0
VERTEX
  5
4E9C
  8
SCAN
 10
296.979699999999923
 20
-287.5548999999999751
 30
0.0
  0
VERTEX
  5
4E9D
  8
SCAN
 10
297.536399999999901
 20
-286.3023000000000025
 30
0.0
  0
VERTEX
  5
4E9E
  8
SCAN
 10
299.0674000000000206
 20
-281.5702499999999873
 30
0.0
  0
VERTEX
  5
4E9F
  8
SCAN
 10
300.3199999999999932
 20
-275.8639499999998748
 30
0.0
  0
VERTEX
  5
4EA0
  8
SCAN
 10
300.876700000000028
 20
-271.2710500000000025
 30
0.0
  0
VERTEX
  5
4EA1
  8
SCAN
 10
301.155050000000017
 20
-270.9927000000001271
 30
0.0
  0
VERTEX
  5
4EA2
  8
SCAN
 10
301.9900999999999271
 20
-270.9927000000001271
 30
0.0
  0
VERTEX
  5
4EA3
  8
SCAN
 10
304.4953499999999735
 20
-271.4102500000000759
 30
0.0
  0
VERTEX
  5
4EA4
  8
SCAN
 10
305.8870999999999754
 20
-271.9669500000001108
 30
0.0
  0
VERTEX
  5
4EA5
  8
SCAN
 10
306.1654499999999075
 20
-271.8277499999999804
 30
0.0
  0
VERTEX
  5
4EA6
  8
SCAN
 10
306.0262999999998783
 20
-270.2968000000000757
 30
0.0
  0
VERTEX
  5
4EA7
  8
SCAN
 10
305.6087499999998727
 20
-268.9049999999999727
 30
0.0
  0
VERTEX
  5
4EA8
  8
SCAN
 10
303.7994499999999221
 20
-266.2606499999998846
 30
0.0
  0
VERTEX
  5
4EA9
  8
SCAN
 10
302.4076499999999896
 20
-265.147199999999998
 30
0.0
  0
VERTEX
  5
4EAA
  8
SCAN
 10
301.7117499999998813
 20
-266.8173499999999763
 30
0.0
  0
VERTEX
  5
4EAB
  8
SCAN
 10
301.2942499999998063
 20
-267.2348999999999819
 30
0.0
  0
VERTEX
  5
4EAC
  8
SCAN
 10
301.155050000000017
 20
-267.0957000000000789
 30
0.0
  0
VERTEX
  5
4EAD
  8
SCAN
 10
301.4333999999998923
 20
-265.0080500000000256
 30
0.0
  0
VERTEX
  5
4EAE
  8
SCAN
 10
301.2942499999998063
 20
-261.3894000000000233
 30
0.0
  0
VERTEX
  5
4EAF
  8
SCAN
 10
304.2169499999998834
 20
-261.2502499999998804
 30
0.0
  0
VERTEX
  5
4EB0
  8
SCAN
 10
307.0005499999999756
 20
-261.667750000000126
 30
0.0
  0
VERTEX
  5
4EB1
  8
SCAN
 10
306.8613500000000158
 20
-259.8584499999998911
 30
0.0
  0
VERTEX
  5
4EB2
  8
SCAN
 10
305.8870999999999754
 20
-257.0749000000001274
 30
0.0
  0
VERTEX
  5
4EB3
  8
SCAN
 10
304.3561500000000137
 20
-254.5697000000000116
 30
0.0
  0
VERTEX
  5
4EB4
  8
SCAN
 10
301.155050000000017
 20
-250.8118500000001063
 30
0.0
  0
VERTEX
  5
4EB5
  8
SCAN
 10
302.5468500000000063
 20
-248.5850000000000932
 30
0.0
  0
VERTEX
  5
4EB6
  8
SCAN
 10
303.3818999999999733
 20
-245.5231000000001131
 30
0.0
  0
VERTEX
  5
4EB7
  8
SCAN
 10
303.3818999999999733
 20
-240.9302500000000862
 30
0.0
  0
VERTEX
  5
4EB8
  8
SCAN
 10
302.9643500000000245
 20
-238.8425499999999886
 30
0.0
  0
VERTEX
  5
4EB9
  8
SCAN
 10
301.9900999999999271
 20
-236.4765500000000884
 30
0.0
  0
VERTEX
  5
4EBA
  8
SCAN
 10
300.3199999999999932
 20
-234.3888500000001045
 30
0.0
  0
VERTEX
  5
4EBB
  8
SCAN
 10
300.876700000000028
 20
-234.2497000000001037
 30
0.0
  0
VERTEX
  5
4EBC
  8
SCAN
 10
302.8251999999998816
 20
-234.6672000000000935
 30
0.0
  0
VERTEX
  5
4EBD
  8
SCAN
 10
302.8251999999998816
 20
-205.7181499999998948
 30
0.0
  0
VERTEX
  5
4EBE
  8
SCAN
 10
291.4125999999998839
 20
-203.7697000000000003
 30
0.0
  0
VERTEX
  5
4EBF
  8
SCAN
 10
291.4125999999998839
 20
-207.249149999999986
 30
0.0
  0
VERTEX
  5
4EC0
  8
SCAN
 10
291.134249999999895
 20
-207.3882999999999868
 30
0.0
  0
VERTEX
  5
4EC1
  8
SCAN
 10
270.2574999999998795
 20
-203.6305000000000121
 30
0.0
  0
VERTEX
  5
4EC2
  8
SCAN
 10
269.4224500000000262
 20
-203.2129500000000917
 30
0.0
  0
VERTEX
  5
4EC3
  8
SCAN
 10
269.2832500000000095
 20
-199.0376500000000135
 30
0.0
  0
VERTEX
  5
4EC4
  8
SCAN
 10
259.8191499999999223
 20
-197.3675000000000068
 30
0.0
  0
VERTEX
  5
4EC5
  8
SCAN
 10
258.8448999999998819
 20
-200.1510500000001116
 30
0.0
  0
VERTEX
  5
4EC6
  8
SCAN
 10
258.2882000000000176
 20
-203.3521499999999946
 30
0.0
  0
VERTEX
  5
4EC7
  8
SCAN
 10
258.5665500000000065
 20
-207.3882999999999868
 30
0.0
  0
VERTEX
  5
4EC8
  8
SCAN
 10
259.1232499999999277
 20
-209.1976500000000101
 30
0.0
  0
VERTEX
  5
4EC9
  8
SCAN
 10
259.8191499999999223
 20
-210.3110499999999945
 30
0.0
  0
VERTEX
  5
4ECA
  8
SCAN
 10
258.4273999999999205
 20
-215.3214499999999987
 30
0.0
  0
VERTEX
  5
4ECB
  8
SCAN
 10
258.4273999999999205
 20
-219.7751500000001101
 30
0.0
  0
VERTEX
  5
4ECC
  8
SCAN
 10
258.8448999999998819
 20
-221.584500000000105
 30
0.0
  0
VERTEX
  5
4ECD
  8
SCAN
 10
260.097500000000025
 20
-224.0896999999999935
 30
0.0
  0
VERTEX
  5
4ECE
  8
SCAN
 10
261.9068500000000199
 20
-225.8990000000000862
 30
0.0
  0
VERTEX
  5
4ECF
  8
SCAN
 10
264.5511999999999944
 20
-227.4299500000001046
 30
0.0
  0
VERTEX
  5
4ED0
  8
SCAN
 10
262.8810999999998899
 20
-228.125850000000014
 30
0.0
  0
VERTEX
  5
4ED1
  8
SCAN
 10
261.4892999999999006
 20
-229.1000999999999976
 30
0.0
  0
VERTEX
  5
4ED2
  8
SCAN
 10
259.8191499999999223
 20
-231.1877499999999941
 30
0.0
  0
VERTEX
  5
4ED3
  8
SCAN
 10
259.1232499999999277
 20
-232.7187000000000126
 30
0.0
  0
VERTEX
  5
4ED4
  8
SCAN
 10
258.5665500000000065
 20
-234.9455499999999972
 30
0.0
  0
VERTEX
  5
4ED5
  8
SCAN
 10
258.2882000000000176
 20
-237.3115999999999985
 30
0.0
  0
VERTEX
  5
4ED6
  8
SCAN
 10
258.2882000000000176
 20
-241.6261000000000934
 30
0.0
  0
VERTEX
  5
4ED7
  8
SCAN
 10
258.7057500000000232
 20
-246.3581499999999949
 30
0.0
  0
VERTEX
  5
4ED8
  8
SCAN
 10
258.9840999999998985
 20
-247.3324000000000922
 30
0.0
  0
VERTEX
  5
4ED9
  8
SCAN
 10
266.7780500000000075
 20
-248.5850000000000932
 30
0.0
  0
VERTEX
  5
4EDA
  8
SCAN
 10
266.9172500000000241
 20
-248.8634000000000981
 30
0.0
  0
VERTEX
  5
4EDB
  8
SCAN
 10
264.1336999999999762
 20
-251.5077499999999873
 30
0.0
  0
VERTEX
  5
4EDC
  8
SCAN
 10
261.3500999999998839
 20
-254.9872000000000867
 30
0.0
  0
VERTEX
  5
4EDD
  8
SCAN
 10
258.8448999999998819
 20
-259.023399999999981
 30
0.0
  0
VERTEX
  5
4EDE
  8
SCAN
 10
256.2005500000000211
 20
-264.8688500000001227
 30
0.0
  0
VERTEX
  5
4EDF
  8
SCAN
 10
258.0098499999999717
 20
-268.7658500000001141
 30
0.0
  0
VERTEX
  5
4EE0
  8
SCAN
 10
260.3759000000000015
 20
-272.9411999999999807
 30
0.0
  0
VERTEX
  5
4EE1
  8
SCAN
 10
263.0202499999999759
 20
-276.6989999999998986
 30
0.0
  0
VERTEX
  5
4EE2
  8
SCAN
 10
264.690400000000011
 20
-278.6474999999999795
 30
0.0
  0
VERTEX
  5
4EE3
  8
SCAN
 10
267.4739499999998884
 20
-281.2918499999998971
 30
0.0
  0
VERTEX
  5
4EE4
  8
SCAN
 10
270.2574999999998795
 20
-283.2403499999999781
 30
0.0
  0
VERTEX
  5
4EE5
  8
SCAN
 10
272.9019000000000119
 20
-284.3537999999999784
 30
0.0
  0
VERTEX
  5
4EE6
  8
SCAN
 10
275.128750000000025
 20
-284.632150000000081
 30
0.0
  0
VERTEX
  5
4EE7
  8
SCAN
 10
273.7369499999999221
 20
-284.2146000000000754
 30
0.0
  0
VERTEX
  5
4EE8
  8
SCAN
 10
270.5359000000000265
 20
-282.4053000000001248
 30
0.0
  0
VERTEX
  5
4EE9
  8
SCAN
 10
268.448199999999872
 20
-280.735149999999976
 30
0.0
  0
VERTEX
  5
4EEA
  8
SCAN
 10
265.9429999999999268
 20
-278.2299499999999739
 30
0.0
  0
VERTEX
  5
4EEB
  8
SCAN
 10
262.1852000000000089
 20
-273.2195500000000266
 30
0.0
  0
VERTEX
  5
4EEC
  8
SCAN
 10
260.236699999999928
 20
-269.8792500000001269
 30
0.0
  0
VERTEX
  5
4EED
  8
SCAN
 10
257.8706500000000119
 20
-264.8688500000001227
 30
0.0
  0
VERTEX
  5
4EEE
  8
SCAN
 10
260.6542499999998768
 20
-262.9203499999999849
 30
0.0
  0
VERTEX
  5
4EEF
  8
SCAN
 10
263.1594499999998789
 20
-261.667750000000126
 30
0.0
  0
VERTEX
  5
4EF0
  8
SCAN
 10
266.7780500000000075
 20
-260.4151499999999828
 30
0.0
  0
VERTEX
  5
4EF1
  8
SCAN
 10
270.9533999999998741
 20
-259.7192500000001019
 30
0.0
  0
VERTEX
  5
4EF2
  8
SCAN
 10
275.6854499999998893
 20
-259.8584499999998911
 30
0.0
  0
VERTEX
  5
4EF3
  8
SCAN
 10
279.721650000000011
 20
-260.9718500000000745
 30
0.0
  0
VERTEX
  5
4EF4
  8
SCAN
 10
282.5051999999998884
 20
-262.6419999999998822
 30
0.0
  0
VERTEX
  5
4EF5
  8
SCAN
 10
284.7320500000000152
 20
-265.0080500000000256
 30
0.0
  0
VERTEX
  5
4EF6
  8
SCAN
 10
286.5413500000000226
 20
-268.6266499999999837
 30
0.0
  0
VERTEX
  5
4EF7
  8
SCAN
 10
286.6805499999999256
 20
-266.1214499999999816
 30
0.0
  0
VERTEX
  5
4EF8
  8
SCAN
 10
286.123800000000017
 20
-263.7554500000001099
 30
0.0
  0
VERTEX
  5
4EF9
  8
SCAN
 10
284.8711999999998739
 20
-261.5286000000000968
 30
0.0
  0
VERTEX
  5
4EFA
  8
SCAN
 10
283.7577999999999747
 20
-260.2759999999998968
 30
0.0
  0
VERTEX
  5
4EFB
  8
SCAN
 10
282.3659999999998718
 20
-259.1625500000001239
 30
0.0
  0
VERTEX
  5
4EFC
  8
SCAN
 10
279.721650000000011
 20
-257.7708000000001221
 30
0.0
  0
VERTEX
  5
4EFD
  8
SCAN
 10
276.6596999999998729
 20
-256.9357000000001108
 30
0.0
  0
VERTEX
  5
4EFE
  8
SCAN
 10
272.7627499999999259
 20
-256.7965500000000247
 30
0.0
  0
VERTEX
  5
4EFF
  8
SCAN
 10
270.5359000000000265
 20
-257.0749000000001274
 30
0.0
  0
VERTEX
  5
4F00
  8
SCAN
 10
269.839999999999975
 20
-257.3532500000001164
 30
0.0
  0
VERTEX
  5
4F01
  8
SCAN
 10
269.1440999999999235
 20
-257.2140499999998724
 30
0.0
  0
VERTEX
  5
4F02
  8
SCAN
 10
271.6492999999999256
 20
-255.4047499999998934
 30
0.0
  0
VERTEX
  5
4F03
  8
SCAN
 10
274.0153499999998985
 20
-254.1521500000000913
 30
0.0
  0
VERTEX
  5
4F04
  8
SCAN
 10
278.0514999999999759
 20
-252.8995500000000902
 30
0.0
  0
VERTEX
  5
4F05
  8
SCAN
 10
282.6443499999999744
 20
-252.8995500000000902
 30
0.0
  0
VERTEX
  5
4F06
  8
SCAN
 10
284.7320500000000152
 20
-253.4562500000000114
 30
0.0
  0
VERTEX
  5
4F07
  8
SCAN
 10
286.5413500000000226
 20
-254.291300000000092
 30
0.0
  0
VERTEX
  5
4F08
  8
SCAN
 10
288.2114999999998872
 20
-255.4047499999998934
 30
0.0
  0
VERTEX
  5
4F09
  8
SCAN
 10
290.2991499999998837
 20
-257.4923999999999751
 30
0.0
  0
VERTEX
  5
4F0A
  8
SCAN
 10
291.6909499999998729
 20
-259.8584499999998911
 30
0.0
  0
VERTEX
  5
4F0B
  8
SCAN
 10
291.9692999999999756
 20
-260.6934999999999718
 30
0.0
  0
VERTEX
  5
4F0C
  8
SCAN
 10
291.8300999999999021
 20
-260.9718500000000745
 30
0.0
  0
VERTEX
  5
4F0D
  8
SCAN
 10
289.1857499999999845
 20
-258.0491499999998837
 30
0.0
  0
VERTEX
  5
4F0E
  8
SCAN
 10
286.5413500000000226
 20
-256.3790000000000759
 30
0.0
  0
VERTEX
  5
4F0F
  8
SCAN
 10
282.5051999999998884
 20
-255.1264000000001033
 30
0.0
  0
VERTEX
  5
4F10
  8
SCAN
 10
278.886549999999886
 20
-254.9872000000000867
 30
0.0
  0
VERTEX
  5
4F11
  8
SCAN
 10
281.9485000000000241
 20
-255.9614500000000135
 30
0.0
  0
VERTEX
  5
4F12
  8
SCAN
 10
284.5928499999998849
 20
-257.631599999999878
 30
0.0
  0
VERTEX
  5
4F13
  8
SCAN
 10
286.4021999999998798
 20
-259.4408999999998855
 30
0.0
  0
VERTEX
  5
4F14
  8
SCAN
 10
287.3763999999998759
 20
-260.8326999999998748
 30
0.0
  0
VERTEX
  5
4F15
  8
SCAN
 10
288.7681999999998084
 20
-264.1729500000001281
 30
0.0
  0
VERTEX
  5
4F16
  8
SCAN
 10
289.3248999999999
 20
-267.6524000000001138
 30
0.0
  0
VERTEX
  5
4F17
  8
SCAN
 10
289.0465500000000247
 20
-272.5236499999999751
 30
0.0
  0
VERTEX
  5
4F18
  8
SCAN
 10
287.6548000000000229
 20
-277.5340499999999793
 30
0.0
  0
VERTEX
  5
4F19
  8
SCAN
 10
286.5413500000000226
 20
-279.7608999999999924
 30
0.0
  0
VERTEX
  5
4F1A
  8
SCAN
 10
285.845450000000028
 20
-280.5960000000001173
 30
0.0
  0
VERTEX
  5
4F1B
  8
SCAN
 10
284.1753499999999235
 20
-280.735149999999976
 30
0.0
  0
VERTEX
  5
4F1C
  8
SCAN
 10
282.5051999999998884
 20
-281.7094000000000165
 30
0.0
  0
VERTEX
  5
4F1D
  8
SCAN
 10
281.1134000000000128
 20
-280.4567999999998733
 30
0.0
  0
VERTEX
  5
4F1E
  8
SCAN
 10
280.5566999999999211
 20
-278.7866500000001224
 30
0.0
  0
VERTEX
  5
4F1F
  8
SCAN
 10
280.5566999999999211
 20
-277.5340499999999793
 30
0.0
  0
VERTEX
  5
4F20
  8
SCAN
 10
281.5309500000000185
 20
-272.5236499999999751
 30
0.0
  0
VERTEX
  5
4F21
  8
SCAN
 10
281.5309500000000185
 20
-269.600900000000081
 30
0.0
  0
VERTEX
  5
4F22
  8
SCAN
 10
281.1134000000000128
 20
-268.069949999999892
 30
0.0
  0
VERTEX
  5
4F23
  8
SCAN
 10
279.9999999999998863
 20
-266.1214499999999816
 30
0.0
  0
VERTEX
  5
4F24
  8
SCAN
 10
277.9123000000000161
 20
-264.3121499999999742
 30
0.0
  0
VERTEX
  5
4F25
  8
SCAN
 10
276.102999999999895
 20
-263.6162499999999795
 30
0.0
  0
VERTEX
  5
4F26
  8
SCAN
 10
274.4328499999999735
 20
-263.3379000000001042
 30
0.0
  0
VERTEX
  5
4F27
  8
SCAN
 10
271.2317499999999768
 20
-263.3379000000001042
 30
0.0
  0
VERTEX
  5
4F28
  8
SCAN
 10
269.5616499999998723
 20
-263.6162499999999795
 30
0.0
  0
VERTEX
  5
4F29
  8
SCAN
 10
267.0563999999998828
 20
-264.4512999999998897
 30
0.0
  0
VERTEX
  5
4F2A
  8
SCAN
 10
265.2470999999998753
 20
-265.4255499999998733
 30
0.0
  0
VERTEX
  5
4F2B
  8
SCAN
 10
263.4377999999999247
 20
-266.8173499999999763
 30
0.0
  0
VERTEX
  5
4F2C
  8
SCAN
 10
262.4635499999999979
 20
-268.069949999999892
 30
0.0
  0
VERTEX
  5
4F2D
  8
SCAN
 10
266.6388999999999783
 20
-267.2348999999999819
 30
0.0
  0
VERTEX
  5
4F2E
  8
SCAN
 10
269.839999999999975
 20
-267.0957000000000789
 30
0.0
  0
VERTEX
  5
4F2F
  8
SCAN
 10
269.9791499999998905
 20
-267.2348999999999819
 30
0.0
  0
VERTEX
  5
4F30
  8
SCAN
 10
268.3090500000000134
 20
-269.0441999999999894
 30
0.0
  0
VERTEX
  5
4F31
  8
SCAN
 10
266.9172500000000241
 20
-271.1318499999999858
 30
0.0
  0
VERTEX
  5
4F32
  8
SCAN
 10
265.9429999999999268
 20
-273.6370999999999754
 30
0.0
  0
VERTEX
  5
4F33
  8
SCAN
 10
266.2213499999999726
 20
-273.6370999999999754
 30
0.0
  0
VERTEX
  5
4F34
  8
SCAN
 10
269.0049000000000206
 20
-271.5493999999999915
 30
0.0
  0
VERTEX
  5
4F35
  8
SCAN
 10
272.2059999999999036
 20
-269.8792500000001269
 30
0.0
  0
VERTEX
  5
4F36
  8
SCAN
 10
272.3451999999999771
 20
-270.018449999999973
 30
0.0
  0
VERTEX
  5
4F37
  8
SCAN
 10
271.2317499999999768
 20
-271.9669500000001108
 30
0.0
  0
VERTEX
  5
4F38
  8
SCAN
 10
270.5359000000000265
 20
-273.915450000000078
 30
0.0
  0
VERTEX
  5
4F39
  8
SCAN
 10
270.1183499999999071
 20
-275.7247499999999718
 30
0.0
  0
VERTEX
  5
4F3A
  8
SCAN
 10
270.1183499999999071
 20
-278.2299499999999739
 30
0.0
  0
VERTEX
  5
4F3B
  8
SCAN
 10
271.6492999999999256
 20
-275.8639499999998748
 30
0.0
  0
VERTEX
  5
4F3C
  8
SCAN
 10
273.3194500000000176
 20
-274.1938000000001239
 30
0.0
  0
VERTEX
  5
4F3D
  8
SCAN
 10
275.128750000000025
 20
-273.2195500000000266
 30
0.0
  0
VERTEX
  5
4F3E
  8
SCAN
 10
277.0772499999998786
 20
-273.0803499999998962
 30
0.0
  0
VERTEX
  5
4F3F
  8
SCAN
 10
277.3555999999999244
 20
-273.4979000000000724
 30
0.0
  0
VERTEX
  5
4F40
  8
SCAN
 10
277.3555999999999244
 20
-278.5083000000000766
 30
0.0
  0
VERTEX
  5
4F41
  8
SCAN
 10
278.1906499999998914
 20
-280.735149999999976
 30
0.0
  0
VERTEX
  5
4F42
  8
SCAN
 10
280.4175000000000182
 20
-283.101199999999892
 30
0.0
  0
VERTEX
  5
4F43
  8
SCAN
 10
283.201099999999883
 20
-284.9105000000001269
 30
0.0
  0
VERTEX
  5
4F44
  8
SCAN
 10
284.8711999999998739
 20
-285.4671999999998775
 30
0.0
  0
VERTEX
  5
4F45
  8
SCAN
 10
285.7062999999999988
 20
-285.4671999999998775
 30
0.0
  0
VERTEX
  5
4F46
  8
SCAN
 10
286.9589000000000283
 20
-284.0754499999998757
 30
0.0
  0
VERTEX
  5
4F47
  8
SCAN
 10
288.7681999999998084
 20
-281.1526999999999816
 30
0.0
  0
VERTEX
  5
4F48
  8
SCAN
 10
290.2991499999998837
 20
-277.9515999999999849
 30
0.0
  0
VERTEX
  5
4F49
  8
SCAN
 10
291.4125999999998839
 20
-276.6989999999998986
 30
0.0
  0
VERTEX
  5
4F4A
  8
SCAN
 10
292.6652000000000271
 20
-276.1422999999999774
 30
0.0
  0
VERTEX
  5
4F4B
  8
SCAN
 10
294.0569499999999721
 20
-276.1422999999999774
 30
0.0
  0
VERTEX
  5
4F4C
  8
SCAN
 10
295.5879499999999211
 20
-276.977350000000115
 30
0.0
  0
VERTEX
  5
4F4D
  8
SCAN
 10
295.4487499999999045
 20
-276.2814500000001203
 30
0.0
  0
VERTEX
  5
4F4E
  8
SCAN
 10
294.4744999999999777
 20
-275.1680499999999938
 30
0.0
  0
VERTEX
  5
4F4F
  8
SCAN
 10
296.4230000000000018
 20
-274.3329500000000962
 30
0.0
  0
VERTEX
  5
4F50
  8
SCAN
 10
299.2065499999998792
 20
-271.5493999999999915
 30
0.0
  0
VERTEX
  5
4F51
  8
SCAN
 10
299.3457499999998959
 20
-271.9669500000001108
 30
0.0
  0
VERTEX
  5
4F52
  8
SCAN
 10
298.9281999999998902
 20
-274.8896999999998911
 30
0.0
  0
VERTEX
  5
4F53
  8
SCAN
 10
297.9539499999999066
 20
-279.6217500000000769
 30
0.0
  0
VERTEX
  5
4F54
  8
SCAN
 10
296.7013499999998771
 20
-283.7971000000000004
 30
0.0
  0
VERTEX
  5
4F55
  8
SCAN
 10
295.8662999999999101
 20
-285.6064000000001215
 30
0.0
  0
VERTEX
  5
4F56
  8
SCAN
 10
295.3095499999998879
 20
-286.0239500000001271
 30
0.0
  0
VERTEX
  5
4F57
  8
SCAN
 10
293.3610999999999081
 20
-286.5806500000001051
 30
0.0
  0
VERTEX
  5
4F58
  8
SCAN
 10
290.8559000000000196
 20
-286.9981500000001233
 30
0.0
  0
VERTEX
  5
4F59
  8
SCAN
 10
289.1857499999999845
 20
-286.9981500000001233
 30
0.0
  0
VERTEX
  5
4F5A
  8
SCAN
 10
291.9692999999999756
 20
-287.5548999999999751
 30
0.0
  0
SEQEND
  5
4F5B
  8
SCAN
  0
POLYLINE
  5
2DE
  8
SCAN
 66
     1
 10
0.0
 20
0.0
 30
0.0
 70
     1
  0
VERTEX
  5
4F5C
  8
SCAN
 10
293.0827499999999759
 20
-269.183400000000006
 30
0.0
  0
VERTEX
  5
4F5D
  8
SCAN
 10
293.3610999999999081
 20
-270.018449999999973
 30
0.0
  0
VERTEX
  5
4F5E
  8
SCAN
 10
292.8043499999998858
 20
-270.2968000000000757
 30
0.0
  0
VERTEX
  5
4F5F
  8
SCAN
 10
292.5260000000000105
 20
-270.018449999999973
 30
0.0
  0
VERTEX
  5
4F60
  8
SCAN
 10
292.5260000000000105
 20
-269.4617499999998813
 30
0.0
  0
SEQEND
  5
4F61
  8
SCAN
  0
POLYLINE
  5
2DF
  8
SCAN
 66
     1
 10
0.0
 20
0.0
 30
0.0
 70
     1
  0
VERTEX
  5
4F62
  8
SCAN
 10
293.2218999999998914
 20
-266.6781500000000165
 30
0.0
  0
VERTEX
  5
4F63
  8
SCAN
 10
293.3610999999999081
 20
-267.7916000000000736
 30
0.0
  0
VERTEX
  5
4F64
  8
SCAN
 10
292.1084999999998786
 20
-268.6266499999999837
 30
0.0
  0
VERTEX
  5
4F65
  8
SCAN
 10
291.6909499999998729
 20
-270.018449999999973
 30
0.0
  0
VERTEX
  5
4F66
  8
SCAN
 10
291.273399999999981
 20
-269.3225499999999784
 30
0.0
  0
VERTEX
  5
4F67
  8
SCAN
 10
291.4125999999998839
 20
-267.9307999999999765
 30
0.0
  0
VERTEX
  5
4F68
  8
SCAN
 10
292.6652000000000271
 20
-266.6781500000000165
 30
0.0
  0
SEQEND
  5
4F69
  8
SCAN
  0
POLYLINE
  5
2E0
  8
SCAN
 66
     1
 10
0.0
 20
0.0
 30
0.0
 70
     1
  0
VERTEX
  5
4F6A
  8
SCAN
 10
296.1446500000000128
 20
-263.1986999999999739
 30
0.0
  0
VERTEX
  5
4F6B
  8
SCAN
 10
296.2837999999999283
 20
-269.4617499999998813
 30
0.0
  0
VERTEX
  5
4F6C
  8
SCAN
 10
296.0054499999999962
 20
-270.8534999999998831
 30
0.0
  0
VERTEX
  5
4F6D
  8
SCAN
 10
295.4487499999999045
 20
-271.9669500000001108
 30
0.0
  0
VERTEX
  5
4F6E
  8
SCAN
 10
294.7528500000000236
 20
-272.662849999999878
 30
0.0
  0
VERTEX
  5
4F6F
  8
SCAN
 10
294.0569499999999721
 20
-273.0803499999998962
 30
0.0
  0
VERTEX
  5
4F70
  8
SCAN
 10
293.2218999999998914
 20
-273.2195500000000266
 30
0.0
  0
VERTEX
  5
4F71
  8
SCAN
 10
293.0827499999999759
 20
-273.0803499999998962
 30
0.0
  0
VERTEX
  5
4F72
  8
SCAN
 10
293.7785999999999262
 20
-272.5236499999999751
 30
0.0
  0
VERTEX
  5
4F73
  8
SCAN
 10
294.6136999999998807
 20
-270.8534999999998831
 30
0.0
  0
VERTEX
  5
4F74
  8
SCAN
 10
294.7528500000000236
 20
-266.1214499999999816
 30
0.0
  0
VERTEX
  5
4F75
  8
SCAN
 10
295.3095499999998879
 20
-264.0337999999999852
 30
0.0
  0
SEQEND
  5
4F76
  8
SCAN
  0
POLYLINE
  5
2E1
  8
SCAN
 66
     1
 10
0.0
 20
0.0
 30
0.0
 70
     1
  0
VERTEX
  5
4F77
  8
SCAN
 10
300.1807999999999765
 20
-231.3269500000000107
 30
0.0
  0
VERTEX
  5
4F78
  8
SCAN
 10
298.7890499999999747
 20
-231.3269500000000107
 30
0.0
  0
VERTEX
  5
4F79
  8
SCAN
 10
268.5874000000000024
 20
-225.8990000000000862
 30
0.0
  0
VERTEX
  5
4F7A
  8
SCAN
 10
265.5254499999999211
 20
-224.9247499999999889
 30
0.0
  0
VERTEX
  5
4F7B
  8
SCAN
 10
263.576949999999897
 20
-223.8113000000001023
 30
0.0
  0
VERTEX
  5
4F7C
  8
SCAN
 10
262.1852000000000089
 20
-222.4195499999999868
 30
0.0
  0
VERTEX
  5
4F7D
  8
SCAN
 10
261.4892999999999006
 20
-221.1669500000000994
 30
0.0
  0
VERTEX
  5
4F7E
  8
SCAN
 10
260.9325999999999226
 20
-218.8009000000000128
 30
0.0
  0
VERTEX
  5
4F7F
  8
SCAN
 10
260.9325999999999226
 20
-216.295700000000096
 30
0.0
  0
VERTEX
  5
4F80
  8
SCAN
 10
261.4892999999999006
 20
-213.651299999999992
 30
0.0
  0
VERTEX
  5
4F81
  8
SCAN
 10
261.9068500000000199
 20
-213.5121499999999912
 30
0.0
  0
VERTEX
  5
4F82
  8
SCAN
 10
266.4997000000000185
 20
-214.3471999999999866
 30
0.0
  0
VERTEX
  5
4F83
  8
SCAN
 10
266.7780500000000075
 20
-216.8524000000001024
 30
0.0
  0
VERTEX
  5
4F84
  8
SCAN
 10
267.1956000000000131
 20
-217.826650000000086
 30
0.0
  0
VERTEX
  5
4F85
  8
SCAN
 10
268.5874000000000024
 20
-218.9401000000000863
 30
0.0
  0
VERTEX
  5
4F86
  8
SCAN
 10
271.6492999999999256
 20
-219.7751500000001101
 30
0.0
  0
VERTEX
  5
4F87
  8
SCAN
 10
294.0569499999999721
 20
-223.6721500000001015
 30
0.0
  0
VERTEX
  5
4F88
  8
SCAN
 10
294.196149999999875
 20
-220.0535000000000139
 30
0.0
  0
VERTEX
  5
4F89
  8
SCAN
 10
300.0416500000000042
 20
-221.0277500000001112
 30
0.0
  0
SEQEND
  5
4F8A
  8
SCAN
  0
POLYLINE
  5
2E2
  8
SCAN
 66
     1
 10
0.0
 20
0.0
 30
0.0
 70
     1
  0
VERTEX
  5
4F8B
  8
SCAN
 10
300.1807999999999765
 20
-218.2442000000000917
 30
0.0
  0
VERTEX
  5
4F8C
  8
SCAN
 10
300.0416500000000042
 20
-218.3833999999999946
 30
0.0
  0
VERTEX
  5
4F8D
  8
SCAN
 10
271.6492999999999256
 20
-213.3729500000000883
 30
0.0
  0
VERTEX
  5
4F8E
  8
SCAN
 10
267.3347999999999729
 20
-212.398699999999991
 30
0.0
  0
VERTEX
  5
4F8F
  8
SCAN
 10
265.1079500000000166
 20
-211.5636499999999955
 30
0.0
  0
VERTEX
  5
4F90
  8
SCAN
 10
263.8553499999998735
 20
-210.8677500000000862
 30
0.0
  0
VERTEX
  5
4F91
  8
SCAN
 10
262.3243499999999244
 20
-209.4759999999999991
 30
0.0
  0
VERTEX
  5
4F92
  8
SCAN
 10
261.7676499999998896
 20
-208.6409000000001015
 30
0.0
  0
VERTEX
  5
4F93
  8
SCAN
 10
261.2109500000000253
 20
-207.1099499999999978
 30
0.0
  0
VERTEX
  5
4F94
  8
SCAN
 10
260.9325999999999226
 20
-205.579000000000093
 30
0.0
  0
VERTEX
  5
4F95
  8
SCAN
 10
260.9325999999999226
 20
-203.0738000000000909
 30
0.0
  0
VERTEX
  5
4F96
  8
SCAN
 10
261.4892999999999006
 20
-200.5686000000000888
 30
0.0
  0
VERTEX
  5
4F97
  8
SCAN
 10
262.4635499999999979
 20
-200.4294000000001006
 30
0.0
  0
VERTEX
  5
4F98
  8
SCAN
 10
266.3605499999998756
 20
-201.1252999999998963
 30
0.0
  0
VERTEX
  5
4F99
  8
SCAN
 10
266.6388999999999783
 20
-201.403649999999999
 30
0.0
  0
VERTEX
  5
4F9A
  8
SCAN
 10
266.7780500000000075
 20
-203.6305000000000121
 30
0.0
  0
VERTEX
  5
4F9B
  8
SCAN
 10
267.0563999999998828
 20
-204.4655500000000927
 30
0.0
  0
VERTEX
  5
4F9C
  8
SCAN
 10
267.6131500000000187
 20
-205.1614500000000874
 30
0.0
  0
VERTEX
  5
4F9D
  8
SCAN
 10
268.7265499999999747
 20
-205.8573499999999967
 30
0.0
  0
VERTEX
  5
4F9E
  8
SCAN
 10
272.0668499999998744
 20
-206.6924000000001058
 30
0.0
  0
VERTEX
  5
4F9F
  8
SCAN
 10
279.9999999999998863
 20
-207.9449999999999932
 30
0.0
  0
VERTEX
  5
4FA0
  8
SCAN
 10
293.3610999999999081
 20
-210.4502500000000964
 30
0.0
  0
VERTEX
  5
4FA1
  8
SCAN
 10
294.0569499999999721
 20
-210.4502500000000964
 30
0.0
  0
VERTEX
  5
4FA2
  8
SCAN
 10
294.196149999999875
 20
-206.831600000000094
 30
0.0
  0
VERTEX
  5
4FA3
  8
SCAN
 10
300.0416500000000042
 20
-207.9449999999999932
 30
0.0
  0
SEQEND
  5
4FA4
  8
SCAN
  0
POLYLINE
  5
2E3
  8
SCAN
 66
     1
 10
0.0
 20
0.0
 30
0.0
 70
     1
  0
VERTEX
  5
4FA5
  8
SCAN
 10
300.4591500000000224
 20
-246.6365500000001134
 30
0.0
  0
VERTEX
  5
4FA6
  8
SCAN
 10
299.7632500000000277
 20
-248.1674999999999898
 30
0.0
  0
VERTEX
  5
4FA7
  8
SCAN
 10
298.9281999999998902
 20
-249.1417500000000871
 30
0.0
  0
VERTEX
  5
4FA8
  8
SCAN
 10
297.2580500000000256
 20
-250.1160000000000139
 30
0.0
  0
VERTEX
  5
4FA9
  8
SCAN
 10
296.1446500000000128
 20
-250.3943500000000029
 30
0.0
  0
VERTEX
  5
4FAA
  8
SCAN
 10
293.5002499999998804
 20
-250.5335000000000036
 30
0.0
  0
VERTEX
  5
4FAB
  8
SCAN
 10
287.6548000000000229
 20
-249.5592499999999916
 30
0.0
  0
VERTEX
  5
4FAC
  8
SCAN
 10
287.5156000000000063
 20
-243.2962499999999864
 30
0.0
  0
VERTEX
  5
4FAD
  8
SCAN
 10
288.2114999999998872
 20
-243.157100000000014
 30
0.0
  0
VERTEX
  5
4FAE
  8
SCAN
 10
292.2476500000000215
 20
-243.9921500000000094
 30
0.0
  0
VERTEX
  5
4FAF
  8
SCAN
 10
294.7528500000000236
 20
-244.2705000000001121
 30
0.0
  0
VERTEX
  5
4FB0
  8
SCAN
 10
295.0312000000000126
 20
-243.713799999999992
 30
0.0
  0
VERTEX
  5
4FB1
  8
SCAN
 10
295.0312000000000126
 20
-242.0436500000000137
 30
0.0
  0
VERTEX
  5
4FB2
  8
SCAN
 10
294.6136999999998807
 20
-241.3477499999999907
 30
0.0
  0
VERTEX
  5
4FB3
  8
SCAN
 10
293.9177999999999997
 20
-240.9302500000000862
 30
0.0
  0
VERTEX
  5
4FB4
  8
SCAN
 10
291.8300999999999021
 20
-240.3735000000000923
 30
0.0
  0
VERTEX
  5
4FB5
  8
SCAN
 10
269.839999999999975
 20
-236.6157000000000892
 30
0.0
  0
VERTEX
  5
4FB6
  8
SCAN
 10
268.0306499999999232
 20
-236.7548999999999921
 30
0.0
  0
VERTEX
  5
4FB7
  8
SCAN
 10
267.6131500000000187
 20
-237.0332500000000095
 30
0.0
  0
VERTEX
  5
4FB8
  8
SCAN
 10
267.3347999999999729
 20
-237.5899499999999875
 30
0.0
  0
VERTEX
  5
4FB9
  8
SCAN
 10
267.0563999999998828
 20
-238.9817499999998915
 30
0.0
  0
VERTEX
  5
4FBA
  8
SCAN
 10
267.0563999999998828
 20
-245.8014499999999884
 30
0.0
  0
VERTEX
  5
4FBB
  8
SCAN
 10
266.2213499999999726
 20
-245.9406500000000051
 30
0.0
  0
VERTEX
  5
4FBC
  8
SCAN
 10
261.4892999999999006
 20
-245.1055500000001075
 30
0.0
  0
VERTEX
  5
4FBD
  8
SCAN
 10
261.2109500000000253
 20
-244.8272000000000901
 30
0.0
  0
VERTEX
  5
4FBE
  8
SCAN
 10
260.9325999999999226
 20
-242.0436500000000137
 30
0.0
  0
VERTEX
  5
4FBF
  8
SCAN
 10
260.9325999999999226
 20
-237.0332500000000095
 30
0.0
  0
VERTEX
  5
4FC0
  8
SCAN
 10
261.4892999999999006
 20
-233.9713000000000989
 30
0.0
  0
VERTEX
  5
4FC1
  8
SCAN
 10
262.3243499999999244
 20
-232.1619999999998925
 30
0.0
  0
VERTEX
  5
4FC2
  8
SCAN
 10
263.4377999999999247
 20
-230.9094000000000904
 30
0.0
  0
VERTEX
  5
4FC3
  8
SCAN
 10
264.5511999999999944
 20
-230.2135000000000105
 30
0.0
  0
VERTEX
  5
4FC4
  8
SCAN
 10
266.6388999999999783
 20
-229.6568000000000893
 30
0.0
  0
VERTEX
  5
4FC5
  8
SCAN
 10
270.9533999999998741
 20
-229.796000000000106
 30
0.0
  0
VERTEX
  5
4FC6
  8
SCAN
 10
290.160000000000025
 20
-233.1362499999999898
 30
0.0
  0
VERTEX
  5
4FC7
  8
SCAN
 10
293.9177999999999997
 20
-233.9713000000000989
 30
0.0
  0
VERTEX
  5
4FC8
  8
SCAN
 10
296.5622000000000185
 20
-234.9455499999999972
 30
0.0
  0
VERTEX
  5
4FC9
  8
SCAN
 10
298.0931499999999232
 20
-235.9198000000000945
 30
0.0
  0
VERTEX
  5
4FCA
  8
SCAN
 10
299.0674000000000206
 20
-236.8940499999999929
 30
0.0
  0
VERTEX
  5
4FCB
  8
SCAN
 10
299.9024499999998739
 20
-238.1466500000001076
 30
0.0
  0
VERTEX
  5
4FCC
  8
SCAN
 10
300.5983499999999822
 20
-240.2343500000000915
 30
0.0
  0
VERTEX
  5
4FCD
  8
SCAN
 10
300.876700000000028
 20
-242.6003500000001054
 30
0.0
  0
VERTEX
  5
4FCE
  8
SCAN
 10
300.7375000000000114
 20
-245.5231000000001131
 30
0.0
  0
SEQEND
  5
4FCF
  8
SCAN
  0
POLYLINE
  5
2E4
  8
SCAN
 66
     1
 10
0.0
 20
0.0
 30
0.0
 70
     1
  0
VERTEX
  5
4FD0
  8
SCAN
 10
304.2169499999998834
 20
-258.6058499999999754
 30
0.0
  0
VERTEX
  5
4FD1
  8
SCAN
 10
303.7994499999999221
 20
-258.7450000000000045
 30
0.0
  0
VERTEX
  5
4FD2
  8
SCAN
 10
301.7117499999998813
 20
-258.1883000000000266
 30
0.0
  0
VERTEX
  5
4FD3
  8
SCAN
 10
299.6240999999998849
 20
-258.1883000000000266
 30
0.0
  0
VERTEX
  5
4FD4
  8
SCAN
 10
298.3715000000000259
 20
-256.7965500000000247
 30
0.0
  0
VERTEX
  5
4FD5
  8
SCAN
 10
301.0158999999998741
 20
-256.6573500000000081
 30
0.0
  0
VERTEX
  5
4FD6
  8
SCAN
 10
300.4591500000000224
 20
-256.1006499999999733
 30
0.0
  0
VERTEX
  5
4FD7
  8
SCAN
 10
298.5106499999999983
 20
-254.9872000000000867
 30
0.0
  0
VERTEX
  5
4FD8
  8
SCAN
 10
296.979699999999923
 20
-254.5697000000000116
 30
0.0
  0
VERTEX
  5
4FD9
  8
SCAN
 10
296.0054499999999962
 20
-254.5697000000000116
 30
0.0
  0
VERTEX
  5
4FDA
  8
SCAN
 10
294.4744999999999777
 20
-253.1779000000001076
 30
0.0
  0
VERTEX
  5
4FDB
  8
SCAN
 10
296.979699999999923
 20
-253.038700000000091
 30
0.0
  0
VERTEX
  5
4FDC
  8
SCAN
 10
298.7890499999999747
 20
-253.4562500000000114
 30
0.0
  0
VERTEX
  5
4FDD
  8
SCAN
 10
300.3199999999999932
 20
-254.1521500000000913
 30
0.0
  0
VERTEX
  5
4FDE
  8
SCAN
 10
302.2685000000000173
 20
-255.6831000000001097
 30
0.0
  0
VERTEX
  5
4FDF
  8
SCAN
 10
303.3818999999999733
 20
-257.0749000000001274
 30
0.0
  0
SEQEND
  5
4FE0
  8
SCAN
  0
POLYLINE
  5
2F3
  8
SCAN
 66
     1
 10
0.0
 20
0.0
 30
0.0
 70
     1
  0
VERTEX
  5
4FE1
  8
SCAN
 10
456.7013499999998203
 20
-287.6940499999998906
 30
0.0
  0
VERTEX
  5
4FE2
  8
SCAN
 10
456.9796999999998093
 20
-287.5548999999999751
 30
0.0
  0
VERTEX
  5
4FE3
  8
SCAN
 10
459.0673999999999069
 20
-281.5702499999999873
 30
0.0
  0
VERTEX
  5
4FE4
  8
SCAN
 10
460.3199999999998226
 20
-275.8639499999998748
 30
0.0
  0
VERTEX
  5
4FE5
  8
SCAN
 10
460.8766999999998006
 20
-271.2710500000000025
 30
0.0
  0
VERTEX
  5
4FE6
  8
SCAN
 10
461.1550499999996759
 20
-270.9927000000001271
 30
0.0
  0
VERTEX
  5
4FE7
  8
SCAN
 10
464.495349999999803
 20
-271.4102500000000759
 30
0.0
  0
VERTEX
  5
4FE8
  8
SCAN
 10
465.8870999999998048
 20
-271.9669500000001108
 30
0.0
  0
VERTEX
  5
4FE9
  8
SCAN
 10
466.1654500000000212
 20
-271.8277500000000941
 30
0.0
  0
VERTEX
  5
4FEA
  8
SCAN
 10
465.6087499999998727
 20
-268.9049999999999727
 30
0.0
  0
VERTEX
  5
4FEB
  8
SCAN
 10
463.7994499999998084
 20
-266.2606499999998846
 30
0.0
  0
VERTEX
  5
4FEC
  8
SCAN
 10
462.4076499999998191
 20
-265.147199999999998
 30
0.0
  0
VERTEX
  5
4FED
  8
SCAN
 10
461.7117499999998245
 20
-266.8173499999999763
 30
0.0
  0
VERTEX
  5
4FEE
  8
SCAN
 10
461.29424999999992
 20
-267.2348999999999819
 30
0.0
  0
VERTEX
  5
4FEF
  8
SCAN
 10
461.1550499999996759
 20
-267.0957000000000789
 30
0.0
  0
VERTEX
  5
4FF0
  8
SCAN
 10
461.4333999999997786
 20
-265.0080500000000256
 30
0.0
  0
VERTEX
  5
4FF1
  8
SCAN
 10
461.29424999999992
 20
-261.3894000000000233
 30
0.0
  0
VERTEX
  5
4FF2
  8
SCAN
 10
464.2169499999998266
 20
-261.2502499999999941
 30
0.0
  0
VERTEX
  5
4FF3
  8
SCAN
 10
467.0005499999998051
 20
-261.667750000000126
 30
0.0
  0
VERTEX
  5
4FF4
  8
SCAN
 10
466.8613499999997885
 20
-259.8584500000000048
 30
0.0
  0
VERTEX
  5
4FF5
  8
SCAN
 10
465.8870999999998048
 20
-257.0749000000001274
 30
0.0
  0
VERTEX
  5
4FF6
  8
SCAN
 10
464.3561499999997864
 20
-254.5697000000000116
 30
0.0
  0
VERTEX
  5
4FF7
  8
SCAN
 10
461.1550499999996759
 20
-250.8118500000001063
 30
0.0
  0
VERTEX
  5
4FF8
  8
SCAN
 10
462.5468499999997789
 20
-248.5850000000000932
 30
0.0
  0
VERTEX
  5
4FF9
  8
SCAN
 10
463.3818999999999164
 20
-245.5231000000001131
 30
0.0
  0
VERTEX
  5
4FFA
  8
SCAN
 10
463.3818999999999164
 20
-240.9302500000000862
 30
0.0
  0
VERTEX
  5
4FFB
  8
SCAN
 10
462.9643499999997971
 20
-238.8425499999999886
 30
0.0
  0
VERTEX
  5
4FFC
  8
SCAN
 10
461.9900999999995861
 20
-236.4765500000000884
 30
0.0
  0
VERTEX
  5
4FFD
  8
SCAN
 10
460.3199999999998226
 20
-234.3888500000001045
 30
0.0
  0
VERTEX
  5
4FFE
  8
SCAN
 10
460.8766999999998006
 20
-234.2497000000001037
 30
0.0
  0
VERTEX
  5
4FFF
  8
SCAN
 10
462.8251999999998247
 20
-234.6672000000000935
 30
0.0
  0
VERTEX
  5
5000
  8
SCAN
 10
462.8251999999998247
 20
-205.7181499999998948
 30
0.0
  0
VERTEX
  5
5001
  8
SCAN
 10
451.4125999999998271
 20
-203.769700000000114
 30
0.0
  0
VERTEX
  5
5002
  8
SCAN
 10
451.4125999999998271
 20
-207.249149999999986
 30
0.0
  0
VERTEX
  5
5003
  8
SCAN
 10
451.1342499999997813
 20
-207.3882999999999868
 30
0.0
  0
VERTEX
  5
5004
  8
SCAN
 10
432.2059999999997899
 20
-204.048050000000103
 30
0.0
  0
VERTEX
  5
5005
  8
SCAN
 10
429.4224499999997988
 20
-203.2129500000000917
 30
0.0
  0
VERTEX
  5
5006
  8
SCAN
 10
429.2832499999997822
 20
-199.0376500000000135
 30
0.0
  0
VERTEX
  5
5007
  8
SCAN
 10
419.8191499999998086
 20
-197.3675000000000068
 30
0.0
  0
VERTEX
  5
5008
  8
SCAN
 10
418.844899999999825
 20
-200.1510500000001116
 30
0.0
  0
VERTEX
  5
5009
  8
SCAN
 10
418.2881999999997902
 20
-203.3521499999999946
 30
0.0
  0
VERTEX
  5
500A
  8
SCAN
 10
418.5665499999997223
 20
-207.3882999999999868
 30
0.0
  0
VERTEX
  5
500B
  8
SCAN
 10
419.1232499999999277
 20
-209.1976500000000101
 30
0.0
  0
VERTEX
  5
500C
  8
SCAN
 10
419.8191499999998086
 20
-210.3110499999999945
 30
0.0
  0
VERTEX
  5
500D
  8
SCAN
 10
418.4273999999998068
 20
-215.3214499999999987
 30
0.0
  0
VERTEX
  5
500E
  8
SCAN
 10
418.4273999999998068
 20
-219.7751500000001101
 30
0.0
  0
VERTEX
  5
500F
  8
SCAN
 10
418.844899999999825
 20
-221.584500000000105
 30
0.0
  0
VERTEX
  5
5010
  8
SCAN
 10
420.0974999999997976
 20
-224.0896999999999935
 30
0.0
  0
VERTEX
  5
5011
  8
SCAN
 10
421.9068499999997925
 20
-225.8990000000000862
 30
0.0
  0
VERTEX
  5
5012
  8
SCAN
 10
424.5511999999997101
 20
-227.4299500000001046
 30
0.0
  0
VERTEX
  5
5013
  8
SCAN
 10
422.8810999999997762
 20
-228.125850000000014
 30
0.0
  0
VERTEX
  5
5014
  8
SCAN
 10
421.4893000000000143
 20
-229.1000999999999976
 30
0.0
  0
VERTEX
  5
5015
  8
SCAN
 10
419.8191499999998086
 20
-231.1877499999999941
 30
0.0
  0
VERTEX
  5
5016
  8
SCAN
 10
419.1232499999999277
 20
-232.7187000000000126
 30
0.0
  0
VERTEX
  5
5017
  8
SCAN
 10
418.2881999999997902
 20
-237.3115999999999985
 30
0.0
  0
VERTEX
  5
5018
  8
SCAN
 10
418.2881999999997902
 20
-241.6261000000000934
 30
0.0
  0
VERTEX
  5
5019
  8
SCAN
 10
418.7057499999996821
 20
-246.3581499999999949
 30
0.0
  0
VERTEX
  5
501A
  8
SCAN
 10
418.9840999999997848
 20
-247.3324000000000922
 30
0.0
  0
VERTEX
  5
501B
  8
SCAN
 10
426.7780499999997232
 20
-248.5850000000000932
 30
0.0
  0
VERTEX
  5
501C
  8
SCAN
 10
426.9172499999997967
 20
-248.8634000000000981
 30
0.0
  0
VERTEX
  5
501D
  8
SCAN
 10
424.1336999999998056
 20
-251.507750000000101
 30
0.0
  0
VERTEX
  5
501E
  8
SCAN
 10
421.3500999999998271
 20
-254.9872000000000867
 30
0.0
  0
VERTEX
  5
501F
  8
SCAN
 10
418.844899999999825
 20
-259.023399999999981
 30
0.0
  0
VERTEX
  5
5020
  8
SCAN
 10
416.2005499999997937
 20
-264.8688500000001227
 30
0.0
  0
VERTEX
  5
5021
  8
SCAN
 10
418.0098499999998012
 20
-268.7658500000001141
 30
0.0
  0
VERTEX
  5
5022
  8
SCAN
 10
420.3758999999997172
 20
-272.9411999999999807
 30
0.0
  0
VERTEX
  5
5023
  8
SCAN
 10
424.6903999999997268
 20
-278.6474999999999795
 30
0.0
  0
VERTEX
  5
5024
  8
SCAN
 10
427.4739499999997747
 20
-281.2918499999998971
 30
0.0
  0
VERTEX
  5
5025
  8
SCAN
 10
430.2574999999998226
 20
-283.2403499999999781
 30
0.0
  0
VERTEX
  5
5026
  8
SCAN
 10
432.9018999999997845
 20
-284.3537999999999784
 30
0.0
  0
VERTEX
  5
5027
  8
SCAN
 10
435.1287499999997976
 20
-284.632150000000081
 30
0.0
  0
VERTEX
  5
5028
  8
SCAN
 10
433.7369499999998084
 20
-284.2146000000000754
 30
0.0
  0
VERTEX
  5
5029
  8
SCAN
 10
430.5359000000000265
 20
-282.4053000000001248
 30
0.0
  0
VERTEX
  5
502A
  8
SCAN
 10
428.4481999999998152
 20
-280.735149999999976
 30
0.0
  0
VERTEX
  5
502B
  8
SCAN
 10
425.9429999999999268
 20
-278.2299499999999739
 30
0.0
  0
VERTEX
  5
502C
  8
SCAN
 10
422.1851999999997815
 20
-273.2195500000000266
 30
0.0
  0
VERTEX
  5
502D
  8
SCAN
 10
420.2366999999998143
 20
-269.8792500000001269
 30
0.0
  0
VERTEX
  5
502E
  8
SCAN
 10
417.8706499999997845
 20
-264.8688500000001227
 30
0.0
  0
VERTEX
  5
502F
  8
SCAN
 10
420.6542499999998199
 20
-262.9203499999999849
 30
0.0
  0
VERTEX
  5
5030
  8
SCAN
 10
423.159449999999822
 20
-261.667750000000126
 30
0.0
  0
VERTEX
  5
5031
  8
SCAN
 10
426.7780499999997232
 20
-260.4151499999999828
 30
0.0
  0
VERTEX
  5
5032
  8
SCAN
 10
430.9533999999998173
 20
-259.7192500000001019
 30
0.0
  0
VERTEX
  5
5033
  8
SCAN
 10
435.6854499999997188
 20
-259.8584499999998911
 30
0.0
  0
VERTEX
  5
5034
  8
SCAN
 10
439.7216499999997268
 20
-260.9718500000000745
 30
0.0
  0
VERTEX
  5
5035
  8
SCAN
 10
442.5051999999997747
 20
-262.6419999999998822
 30
0.0
  0
VERTEX
  5
5036
  8
SCAN
 10
444.7320500000000152
 20
-265.0080500000000256
 30
0.0
  0
VERTEX
  5
5037
  8
SCAN
 10
446.5413499999997953
 20
-268.6266499999999837
 30
0.0
  0
VERTEX
  5
5038
  8
SCAN
 10
446.6805499999998119
 20
-266.1214499999999816
 30
0.0
  0
VERTEX
  5
5039
  8
SCAN
 10
446.1237999999997896
 20
-263.7554500000001099
 30
0.0
  0
VERTEX
  5
503A
  8
SCAN
 10
444.871199999999817
 20
-261.5286000000000968
 30
0.0
  0
VERTEX
  5
503B
  8
SCAN
 10
442.3659999999998718
 20
-259.1625500000001239
 30
0.0
  0
VERTEX
  5
503C
  8
SCAN
 10
439.7216499999997268
 20
-257.7708000000001221
 30
0.0
  0
VERTEX
  5
503D
  8
SCAN
 10
436.6596999999998161
 20
-256.9357000000001108
 30
0.0
  0
VERTEX
  5
503E
  8
SCAN
 10
432.7627499999998122
 20
-256.7965500000000247
 30
0.0
  0
VERTEX
  5
503F
  8
SCAN
 10
429.8399999999999181
 20
-257.3532500000001164
 30
0.0
  0
VERTEX
  5
5040
  8
SCAN
 10
429.1440999999998098
 20
-257.2140499999998724
 30
0.0
  0
VERTEX
  5
5041
  8
SCAN
 10
431.6492999999998119
 20
-255.404750000000007
 30
0.0
  0
VERTEX
  5
5042
  8
SCAN
 10
434.0153499999997848
 20
-254.1521500000000913
 30
0.0
  0
VERTEX
  5
5043
  8
SCAN
 10
438.0514999999999191
 20
-252.8995500000000902
 30
0.0
  0
VERTEX
  5
5044
  8
SCAN
 10
442.6443499999998039
 20
-252.8995500000000902
 30
0.0
  0
VERTEX
  5
5045
  8
SCAN
 10
444.7320500000000152
 20
-253.4562500000000114
 30
0.0
  0
VERTEX
  5
5046
  8
SCAN
 10
446.5413499999997953
 20
-254.291300000000092
 30
0.0
  0
VERTEX
  5
5047
  8
SCAN
 10
448.2114999999997735
 20
-255.404750000000007
 30
0.0
  0
VERTEX
  5
5048
  8
SCAN
 10
450.2991499999998268
 20
-257.4923999999999751
 30
0.0
  0
VERTEX
  5
5049
  8
SCAN
 10
451.6909499999998161
 20
-259.8584499999998911
 30
0.0
  0
VERTEX
  5
504A
  8
SCAN
 10
451.9692999999999756
 20
-260.6934999999999718
 30
0.0
  0
VERTEX
  5
504B
  8
SCAN
 10
451.8301000000000158
 20
-260.9718500000000745
 30
0.0
  0
VERTEX
  5
504C
  8
SCAN
 10
449.1857499999999277
 20
-258.0491499999998837
 30
0.0
  0
VERTEX
  5
504D
  8
SCAN
 10
446.5413499999997953
 20
-256.3790000000000759
 30
0.0
  0
VERTEX
  5
504E
  8
SCAN
 10
442.5051999999997747
 20
-255.1264000000001033
 30
0.0
  0
VERTEX
  5
504F
  8
SCAN
 10
438.8865499999997724
 20
-254.9872000000000867
 30
0.0
  0
VERTEX
  5
5050
  8
SCAN
 10
441.9484999999997967
 20
-255.9614500000000135
 30
0.0
  0
VERTEX
  5
5051
  8
SCAN
 10
444.592849999999828
 20
-257.631599999999878
 30
0.0
  0
VERTEX
  5
5052
  8
SCAN
 10
446.4021999999998229
 20
-259.4408999999998855
 30
0.0
  0
VERTEX
  5
5053
  8
SCAN
 10
447.3763999999998191
 20
-260.8326999999998748
 30
0.0
  0
VERTEX
  5
5054
  8
SCAN
 10
448.7681999999998084
 20
-264.1729500000001281
 30
0.0
  0
VERTEX
  5
5055
  8
SCAN
 10
449.3248999999997864
 20
-267.6524000000001138
 30
0.0
  0
VERTEX
  5
5056
  8
SCAN
 10
449.0465499999997974
 20
-272.5236499999999751
 30
0.0
  0
VERTEX
  5
5057
  8
SCAN
 10
447.6548000000000229
 20
-277.5340499999999793
 30
0.0
  0
VERTEX
  5
5058
  8
SCAN
 10
446.5413499999997953
 20
-279.7608999999999924
 30
0.0
  0
VERTEX
  5
5059
  8
SCAN
 10
445.845450000000028
 20
-280.5960000000001173
 30
0.0
  0
VERTEX
  5
505A
  8
SCAN
 10
444.1753499999999235
 20
-280.735149999999976
 30
0.0
  0
VERTEX
  5
505B
  8
SCAN
 10
442.5051999999997747
 20
-281.7094000000000165
 30
0.0
  0
VERTEX
  5
505C
  8
SCAN
 10
441.1133999999997855
 20
-280.4567999999998733
 30
0.0
  0
VERTEX
  5
505D
  8
SCAN
 10
440.8350500000000238
 20
-279.900100000000009
 30
0.0
  0
VERTEX
  5
505E
  8
SCAN
 10
440.5566999999998075
 20
-277.5340499999999793
 30
0.0
  0
VERTEX
  5
505F
  8
SCAN
 10
441.5309499999997911
 20
-272.5236499999999751
 30
0.0
  0
VERTEX
  5
5060
  8
SCAN
 10
441.5309499999997911
 20
-269.600900000000081
 30
0.0
  0
VERTEX
  5
5061
  8
SCAN
 10
441.1133999999997855
 20
-268.069949999999892
 30
0.0
  0
VERTEX
  5
5062
  8
SCAN
 10
439.9999999999997726
 20
-266.1214499999999816
 30
0.0
  0
VERTEX
  5
5063
  8
SCAN
 10
437.912299999999675
 20
-264.3121499999999742
 30
0.0
  0
VERTEX
  5
5064
  8
SCAN
 10
436.1029999999997813
 20
-263.6162499999999795
 30
0.0
  0
VERTEX
  5
5065
  8
SCAN
 10
434.432849999999803
 20
-263.3379000000001042
 30
0.0
  0
VERTEX
  5
5066
  8
SCAN
 10
431.2317499999998063
 20
-263.3379000000001042
 30
0.0
  0
VERTEX
  5
5067
  8
SCAN
 10
429.5616499999998155
 20
-263.6162499999999795
 30
0.0
  0
VERTEX
  5
5068
  8
SCAN
 10
427.0563999999998259
 20
-264.4512999999998897
 30
0.0
  0
VERTEX
  5
5069
  8
SCAN
 10
425.2470999999998753
 20
-265.4255499999998733
 30
0.0
  0
VERTEX
  5
506A
  8
SCAN
 10
423.437799999999811
 20
-266.8173499999999763
 30
0.0
  0
VERTEX
  5
506B
  8
SCAN
 10
422.4635499999997137
 20
-268.069949999999892
 30
0.0
  0
VERTEX
  5
506C
  8
SCAN
 10
426.6388999999998077
 20
-267.2348999999999819
 30
0.0
  0
VERTEX
  5
506D
  8
SCAN
 10
429.8399999999999181
 20
-267.0957000000000789
 30
0.0
  0
VERTEX
  5
506E
  8
SCAN
 10
429.9791499999997768
 20
-267.2348999999999819
 30
0.0
  0
VERTEX
  5
506F
  8
SCAN
 10
428.309049999999786
 20
-269.0441999999999894
 30
0.0
  0
VERTEX
  5
5070
  8
SCAN
 10
426.9172499999997967
 20
-271.1318499999999858
 30
0.0
  0
VERTEX
  5
5071
  8
SCAN
 10
425.9429999999999268
 20
-273.6370999999999754
 30
0.0
  0
VERTEX
  5
5072
  8
SCAN
 10
429.0048999999997932
 20
-271.5493999999999915
 30
0.0
  0
VERTEX
  5
5073
  8
SCAN
 10
432.2059999999997899
 20
-269.8792500000001269
 30
0.0
  0
VERTEX
  5
5074
  8
SCAN
 10
432.3451999999998066
 20
-270.018449999999973
 30
0.0
  0
VERTEX
  5
5075
  8
SCAN
 10
431.2317499999998063
 20
-271.9669500000001108
 30
0.0
  0
VERTEX
  5
5076
  8
SCAN
 10
430.1183499999997935
 20
-275.7247499999999718
 30
0.0
  0
VERTEX
  5
5077
  8
SCAN
 10
430.1183499999997935
 20
-278.2299499999999739
 30
0.0
  0
VERTEX
  5
5078
  8
SCAN
 10
431.6492999999998119
 20
-275.8639499999998748
 30
0.0
  0
VERTEX
  5
5079
  8
SCAN
 10
433.3194499999997902
 20
-274.1938000000001239
 30
0.0
  0
VERTEX
  5
507A
  8
SCAN
 10
435.1287499999997976
 20
-273.2195500000000266
 30
0.0
  0
VERTEX
  5
507B
  8
SCAN
 10
437.0772499999998217
 20
-273.0803499999998962
 30
0.0
  0
VERTEX
  5
507C
  8
SCAN
 10
437.3555999999998107
 20
-273.4979000000000724
 30
0.0
  0
VERTEX
  5
507D
  8
SCAN
 10
437.3555999999998107
 20
-278.5083000000000766
 30
0.0
  0
VERTEX
  5
507E
  8
SCAN
 10
438.1906499999997777
 20
-280.735149999999976
 30
0.0
  0
VERTEX
  5
507F
  8
SCAN
 10
440.4174999999997908
 20
-283.101199999999892
 30
0.0
  0
VERTEX
  5
5080
  8
SCAN
 10
443.2010999999998262
 20
-284.9105000000001269
 30
0.0
  0
VERTEX
  5
5081
  8
SCAN
 10
444.871199999999817
 20
-285.4671999999998775
 30
0.0
  0
VERTEX
  5
5082
  8
SCAN
 10
445.7062999999997146
 20
-285.4671999999998775
 30
0.0
  0
VERTEX
  5
5083
  8
SCAN
 10
446.9589000000000283
 20
-284.0754499999998757
 30
0.0
  0
VERTEX
  5
5084
  8
SCAN
 10
448.7681999999998084
 20
-281.1526999999999816
 30
0.0
  0
VERTEX
  5
5085
  8
SCAN
 10
450.2991499999998268
 20
-277.9515999999999849
 30
0.0
  0
VERTEX
  5
5086
  8
SCAN
 10
451.4125999999998271
 20
-276.6989999999998986
 30
0.0
  0
VERTEX
  5
5087
  8
SCAN
 10
452.6651999999997997
 20
-276.1422999999999774
 30
0.0
  0
VERTEX
  5
5088
  8
SCAN
 10
454.0569499999999721
 20
-276.1422999999999774
 30
0.0
  0
VERTEX
  5
5089
  8
SCAN
 10
455.5879499999998075
 20
-276.977350000000115
 30
0.0
  0
VERTEX
  5
508A
  8
SCAN
 10
455.4487499999997908
 20
-276.2814500000001203
 30
0.0
  0
VERTEX
  5
508B
  8
SCAN
 10
454.4744999999998072
 20
-275.1680499999999938
 30
0.0
  0
VERTEX
  5
508C
  8
SCAN
 10
456.4229999999997744
 20
-274.3329500000000962
 30
0.0
  0
VERTEX
  5
508D
  8
SCAN
 10
459.2065499999998224
 20
-271.5493999999999915
 30
0.0
  0
VERTEX
  5
508E
  8
SCAN
 10
459.3457499999997822
 20
-271.9669500000001108
 30
0.0
  0
VERTEX
  5
508F
  8
SCAN
 10
457.9539500000000203
 20
-279.6217500000000769
 30
0.0
  0
VERTEX
  5
5090
  8
SCAN
 10
456.7013499999998203
 20
-283.7971000000000004
 30
0.0
  0
VERTEX
  5
5091
  8
SCAN
 10
455.8663000000000238
 20
-285.6064000000001215
 30
0.0
  0
VERTEX
  5
5092
  8
SCAN
 10
455.3095499999997742
 20
-286.0239500000001271
 30
0.0
  0
VERTEX
  5
5093
  8
SCAN
 10
453.3610999999997944
 20
-286.5806500000001051
 30
0.0
  0
VERTEX
  5
5094
  8
SCAN
 10
449.1857499999999277
 20
-286.9981500000001233
 30
0.0
  0
VERTEX
  5
5095
  8
SCAN
 10
451.9692999999999756
 20
-287.5548999999999751
 30
0.0
  0
SEQEND
  5
5096
  8
SCAN
  0
POLYLINE
  5
2F4
  8
SCAN
 66
     1
 10
0.0
 20
0.0
 30
0.0
 70
     1
  0
VERTEX
  5
5097
  8
SCAN
 10
456.7013499999998203
 20
-287.6940499999998906
 30
0.0
  0
VERTEX
  5
5098
  8
SCAN
 10
456.9796999999998093
 20
-287.5548999999999751
 30
0.0
  0
VERTEX
  5
5099
  8
SCAN
 10
457.5363999999997873
 20
-286.3023000000000025
 30
0.0
  0
VERTEX
  5
509A
  8
SCAN
 10
459.0673999999999069
 20
-281.5702499999999873
 30
0.0
  0
VERTEX
  5
509B
  8
SCAN
 10
460.3199999999998226
 20
-275.8639499999998748
 30
0.0
  0
VERTEX
  5
509C
  8
SCAN
 10
460.8766999999998006
 20
-271.2710500000000025
 30
0.0
  0
VERTEX
  5
509D
  8
SCAN
 10
461.1550499999996759
 20
-270.9927000000001271
 30
0.0
  0
VERTEX
  5
509E
  8
SCAN
 10
461.9900999999995861
 20
-270.9927000000001271
 30
0.0
  0
VERTEX
  5
509F
  8
SCAN
 10
464.495349999999803
 20
-271.4102500000000759
 30
0.0
  0
VERTEX
  5
50A0
  8
SCAN
 10
465.8870999999998048
 20
-271.9669500000001108
 30
0.0
  0
VERTEX
  5
50A1
  8
SCAN
 10
466.1654500000000212
 20
-271.8277500000000941
 30
0.0
  0
VERTEX
  5
50A2
  8
SCAN
 10
466.0262999999998215
 20
-270.2968000000001894
 30
0.0
  0
VERTEX
  5
50A3
  8
SCAN
 10
465.6087499999998727
 20
-268.9049999999999727
 30
0.0
  0
VERTEX
  5
50A4
  8
SCAN
 10
463.7994499999998084
 20
-266.2606499999998846
 30
0.0
  0
VERTEX
  5
50A5
  8
SCAN
 10
462.4076499999998191
 20
-265.147199999999998
 30
0.0
  0
VERTEX
  5
50A6
  8
SCAN
 10
461.7117499999998245
 20
-266.8173499999999763
 30
0.0
  0
VERTEX
  5
50A7
  8
SCAN
 10
461.29424999999992
 20
-267.2348999999999819
 30
0.0
  0
VERTEX
  5
50A8
  8
SCAN
 10
461.1550499999996759
 20
-267.0957000000000789
 30
0.0
  0
VERTEX
  5
50A9
  8
SCAN
 10
461.4333999999997786
 20
-265.0080500000000256
 30
0.0
  0
VERTEX
  5
50AA
  8
SCAN
 10
461.29424999999992
 20
-261.3894000000000233
 30
0.0
  0
VERTEX
  5
50AB
  8
SCAN
 10
464.2169499999998266
 20
-261.2502499999999941
 30
0.0
  0
VERTEX
  5
50AC
  8
SCAN
 10
467.0005499999998051
 20
-261.667750000000126
 30
0.0
  0
VERTEX
  5
50AD
  8
SCAN
 10
466.8613499999997885
 20
-259.8584500000000048
 30
0.0
  0
VERTEX
  5
50AE
  8
SCAN
 10
465.8870999999998048
 20
-257.0749000000001274
 30
0.0
  0
VERTEX
  5
50AF
  8
SCAN
 10
464.3561499999997864
 20
-254.5697000000000116
 30
0.0
  0
VERTEX
  5
50B0
  8
SCAN
 10
461.1550499999996759
 20
-250.8118500000001063
 30
0.0
  0
VERTEX
  5
50B1
  8
SCAN
 10
462.5468499999997789
 20
-248.5850000000000932
 30
0.0
  0
VERTEX
  5
50B2
  8
SCAN
 10
463.3818999999999164
 20
-245.5231000000001131
 30
0.0
  0
VERTEX
  5
50B3
  8
SCAN
 10
463.3818999999999164
 20
-240.9302500000000862
 30
0.0
  0
VERTEX
  5
50B4
  8
SCAN
 10
462.9643499999997971
 20
-238.8425499999999886
 30
0.0
  0
VERTEX
  5
50B5
  8
SCAN
 10
461.9900999999995861
 20
-236.4765500000000884
 30
0.0
  0
VERTEX
  5
50B6
  8
SCAN
 10
460.3199999999998226
 20
-234.3888500000001045
 30
0.0
  0
VERTEX
  5
50B7
  8
SCAN
 10
460.8766999999998006
 20
-234.2497000000001037
 30
0.0
  0
VERTEX
  5
50B8
  8
SCAN
 10
462.8251999999998247
 20
-234.6672000000000935
 30
0.0
  0
VERTEX
  5
50B9
  8
SCAN
 10
462.8251999999998247
 20
-205.7181499999998948
 30
0.0
  0
VERTEX
  5
50BA
  8
SCAN
 10
451.4125999999998271
 20
-203.769700000000114
 30
0.0
  0
VERTEX
  5
50BB
  8
SCAN
 10
451.4125999999998271
 20
-207.249149999999986
 30
0.0
  0
VERTEX
  5
50BC
  8
SCAN
 10
451.1342499999997813
 20
-207.3882999999999868
 30
0.0
  0
VERTEX
  5
50BD
  8
SCAN
 10
430.2574999999998226
 20
-203.6305000000000121
 30
0.0
  0
VERTEX
  5
50BE
  8
SCAN
 10
429.4224499999997988
 20
-203.2129500000000917
 30
0.0
  0
VERTEX
  5
50BF
  8
SCAN
 10
429.2832499999997822
 20
-199.0376500000000135
 30
0.0
  0
VERTEX
  5
50C0
  8
SCAN
 10
419.8191499999998086
 20
-197.3675000000000068
 30
0.0
  0
VERTEX
  5
50C1
  8
SCAN
 10
418.844899999999825
 20
-200.1510500000001116
 30
0.0
  0
VERTEX
  5
50C2
  8
SCAN
 10
418.2881999999997902
 20
-203.3521499999999946
 30
0.0
  0
VERTEX
  5
50C3
  8
SCAN
 10
418.5665499999997223
 20
-207.3882999999999868
 30
0.0
  0
VERTEX
  5
50C4
  8
SCAN
 10
419.1232499999999277
 20
-209.1976500000000101
 30
0.0
  0
VERTEX
  5
50C5
  8
SCAN
 10
419.8191499999998086
 20
-210.3110499999999945
 30
0.0
  0
VERTEX
  5
50C6
  8
SCAN
 10
418.4273999999998068
 20
-215.3214499999999987
 30
0.0
  0
VERTEX
  5
50C7
  8
SCAN
 10
418.4273999999998068
 20
-219.7751500000001101
 30
0.0
  0
VERTEX
  5
50C8
  8
SCAN
 10
418.844899999999825
 20
-221.584500000000105
 30
0.0
  0
VERTEX
  5
50C9
  8
SCAN
 10
420.0974999999997976
 20
-224.0896999999999935
 30
0.0
  0
VERTEX
  5
50CA
  8
SCAN
 10
421.9068499999997925
 20
-225.8990000000000862
 30
0.0
  0
VERTEX
  5
50CB
  8
SCAN
 10
424.5511999999997101
 20
-227.4299500000001046
 30
0.0
  0
VERTEX
  5
50CC
  8
SCAN
 10
422.8810999999997762
 20
-228.125850000000014
 30
0.0
  0
VERTEX
  5
50CD
  8
SCAN
 10
421.4893000000000143
 20
-229.1000999999999976
 30
0.0
  0
VERTEX
  5
50CE
  8
SCAN
 10
419.8191499999998086
 20
-231.1877499999999941
 30
0.0
  0
VERTEX
  5
50CF
  8
SCAN
 10
419.1232499999999277
 20
-232.7187000000000126
 30
0.0
  0
VERTEX
  5
50D0
  8
SCAN
 10
418.5665499999997223
 20
-234.9455499999999972
 30
0.0
  0
VERTEX
  5
50D1
  8
SCAN
 10
418.2881999999997902
 20
-237.3115999999999985
 30
0.0
  0
VERTEX
  5
50D2
  8
SCAN
 10
418.2881999999997902
 20
-241.6261000000000934
 30
0.0
  0
VERTEX
  5
50D3
  8
SCAN
 10
418.7057499999996821
 20
-246.3581499999999949
 30
0.0
  0
VERTEX
  5
50D4
  8
SCAN
 10
418.9840999999997848
 20
-247.3324000000000922
 30
0.0
  0
VERTEX
  5
50D5
  8
SCAN
 10
426.7780499999997232
 20
-248.5850000000000932
 30
0.0
  0
VERTEX
  5
50D6
  8
SCAN
 10
426.9172499999997967
 20
-248.8634000000000981
 30
0.0
  0
VERTEX
  5
50D7
  8
SCAN
 10
424.1336999999998056
 20
-251.507750000000101
 30
0.0
  0
VERTEX
  5
50D8
  8
SCAN
 10
421.3500999999998271
 20
-254.9872000000000867
 30
0.0
  0
VERTEX
  5
50D9
  8
SCAN
 10
418.844899999999825
 20
-259.023399999999981
 30
0.0
  0
VERTEX
  5
50DA
  8
SCAN
 10
416.2005499999997937
 20
-264.8688500000001227
 30
0.0
  0
VERTEX
  5
50DB
  8
SCAN
 10
418.0098499999998012
 20
-268.7658500000001141
 30
0.0
  0
VERTEX
  5
50DC
  8
SCAN
 10
420.3758999999997172
 20
-272.9411999999999807
 30
0.0
  0
VERTEX
  5
50DD
  8
SCAN
 10
423.0202499999998054
 20
-276.6989999999998986
 30
0.0
  0
VERTEX
  5
50DE
  8
SCAN
 10
424.6903999999997268
 20
-278.6474999999999795
 30
0.0
  0
VERTEX
  5
50DF
  8
SCAN
 10
427.4739499999997747
 20
-281.2918499999998971
 30
0.0
  0
VERTEX
  5
50E0
  8
SCAN
 10
430.2574999999998226
 20
-283.2403499999999781
 30
0.0
  0
VERTEX
  5
50E1
  8
SCAN
 10
432.9018999999997845
 20
-284.3537999999999784
 30
0.0
  0
VERTEX
  5
50E2
  8
SCAN
 10
435.1287499999997976
 20
-284.632150000000081
 30
0.0
  0
VERTEX
  5
50E3
  8
SCAN
 10
433.7369499999998084
 20
-284.2146000000000754
 30
0.0
  0
VERTEX
  5
50E4
  8
SCAN
 10
430.5359000000000265
 20
-282.4053000000001248
 30
0.0
  0
VERTEX
  5
50E5
  8
SCAN
 10
428.4481999999998152
 20
-280.735149999999976
 30
0.0
  0
VERTEX
  5
50E6
  8
SCAN
 10
425.9429999999999268
 20
-278.2299499999999739
 30
0.0
  0
VERTEX
  5
50E7
  8
SCAN
 10
422.1851999999997815
 20
-273.2195500000000266
 30
0.0
  0
VERTEX
  5
50E8
  8
SCAN
 10
420.2366999999998143
 20
-269.8792500000001269
 30
0.0
  0
VERTEX
  5
50E9
  8
SCAN
 10
417.8706499999997845
 20
-264.8688500000001227
 30
0.0
  0
VERTEX
  5
50EA
  8
SCAN
 10
420.6542499999998199
 20
-262.9203499999999849
 30
0.0
  0
VERTEX
  5
50EB
  8
SCAN
 10
423.159449999999822
 20
-261.667750000000126
 30
0.0
  0
VERTEX
  5
50EC
  8
SCAN
 10
426.7780499999997232
 20
-260.4151499999999828
 30
0.0
  0
VERTEX
  5
50ED
  8
SCAN
 10
430.9533999999998173
 20
-259.7192500000001019
 30
0.0
  0
VERTEX
  5
50EE
  8
SCAN
 10
435.6854499999997188
 20
-259.8584499999998911
 30
0.0
  0
VERTEX
  5
50EF
  8
SCAN
 10
439.7216499999997268
 20
-260.9718500000000745
 30
0.0
  0
VERTEX
  5
50F0
  8
SCAN
 10
442.5051999999997747
 20
-262.6419999999998822
 30
0.0
  0
VERTEX
  5
50F1
  8
SCAN
 10
444.7320500000000152
 20
-265.0080500000000256
 30
0.0
  0
VERTEX
  5
50F2
  8
SCAN
 10
446.5413499999997953
 20
-268.6266499999999837
 30
0.0
  0
VERTEX
  5
50F3
  8
SCAN
 10
446.6805499999998119
 20
-266.1214499999999816
 30
0.0
  0
VERTEX
  5
50F4
  8
SCAN
 10
446.1237999999997896
 20
-263.7554500000001099
 30
0.0
  0
VERTEX
  5
50F5
  8
SCAN
 10
444.871199999999817
 20
-261.5286000000000968
 30
0.0
  0
VERTEX
  5
50F6
  8
SCAN
 10
443.7577999999999747
 20
-260.2759999999998968
 30
0.0
  0
VERTEX
  5
50F7
  8
SCAN
 10
442.3659999999998718
 20
-259.1625500000001239
 30
0.0
  0
VERTEX
  5
50F8
  8
SCAN
 10
439.7216499999997268
 20
-257.7708000000001221
 30
0.0
  0
VERTEX
  5
50F9
  8
SCAN
 10
436.6596999999998161
 20
-256.9357000000001108
 30
0.0
  0
VERTEX
  5
50FA
  8
SCAN
 10
432.7627499999998122
 20
-256.7965500000000247
 30
0.0
  0
VERTEX
  5
50FB
  8
SCAN
 10
430.5359000000000265
 20
-257.0749000000001274
 30
0.0
  0
VERTEX
  5
50FC
  8
SCAN
 10
429.8399999999999181
 20
-257.3532500000001164
 30
0.0
  0
VERTEX
  5
50FD
  8
SCAN
 10
429.1440999999998098
 20
-257.2140499999998724
 30
0.0
  0
VERTEX
  5
50FE
  8
SCAN
 10
431.6492999999998119
 20
-255.404750000000007
 30
0.0
  0
VERTEX
  5
50FF
  8
SCAN
 10
434.0153499999997848
 20
-254.1521500000000913
 30
0.0
  0
VERTEX
  5
5100
  8
SCAN
 10
438.0514999999999191
 20
-252.8995500000000902
 30
0.0
  0
VERTEX
  5
5101
  8
SCAN
 10
442.6443499999998039
 20
-252.8995500000000902
 30
0.0
  0
VERTEX
  5
5102
  8
SCAN
 10
444.7320500000000152
 20
-253.4562500000000114
 30
0.0
  0
VERTEX
  5
5103
  8
SCAN
 10
446.5413499999997953
 20
-254.291300000000092
 30
0.0
  0
VERTEX
  5
5104
  8
SCAN
 10
448.2114999999997735
 20
-255.404750000000007
 30
0.0
  0
VERTEX
  5
5105
  8
SCAN
 10
450.2991499999998268
 20
-257.4923999999999751
 30
0.0
  0
VERTEX
  5
5106
  8
SCAN
 10
451.6909499999998161
 20
-259.8584499999998911
 30
0.0
  0
VERTEX
  5
5107
  8
SCAN
 10
451.9692999999999756
 20
-260.6934999999999718
 30
0.0
  0
VERTEX
  5
5108
  8
SCAN
 10
451.8301000000000158
 20
-260.9718500000000745
 30
0.0
  0
VERTEX
  5
5109
  8
SCAN
 10
449.1857499999999277
 20
-258.0491499999998837
 30
0.0
  0
VERTEX
  5
510A
  8
SCAN
 10
446.5413499999997953
 20
-256.3790000000000759
 30
0.0
  0
VERTEX
  5
510B
  8
SCAN
 10
442.5051999999997747
 20
-255.1264000000001033
 30
0.0
  0
VERTEX
  5
510C
  8
SCAN
 10
438.8865499999997724
 20
-254.9872000000000867
 30
0.0
  0
VERTEX
  5
510D
  8
SCAN
 10
441.9484999999997967
 20
-255.9614500000000135
 30
0.0
  0
VERTEX
  5
510E
  8
SCAN
 10
444.592849999999828
 20
-257.631599999999878
 30
0.0
  0
VERTEX
  5
510F
  8
SCAN
 10
446.4021999999998229
 20
-259.4408999999998855
 30
0.0
  0
VERTEX
  5
5110
  8
SCAN
 10
447.3763999999998191
 20
-260.8326999999998748
 30
0.0
  0
VERTEX
  5
5111
  8
SCAN
 10
448.7681999999998084
 20
-264.1729500000001281
 30
0.0
  0
VERTEX
  5
5112
  8
SCAN
 10
449.3248999999997864
 20
-267.6524000000001138
 30
0.0
  0
VERTEX
  5
5113
  8
SCAN
 10
449.0465499999997974
 20
-272.5236499999999751
 30
0.0
  0
VERTEX
  5
5114
  8
SCAN
 10
447.6548000000000229
 20
-277.5340499999999793
 30
0.0
  0
VERTEX
  5
5115
  8
SCAN
 10
446.5413499999997953
 20
-279.7608999999999924
 30
0.0
  0
VERTEX
  5
5116
  8
SCAN
 10
445.845450000000028
 20
-280.5960000000001173
 30
0.0
  0
VERTEX
  5
5117
  8
SCAN
 10
444.1753499999999235
 20
-280.735149999999976
 30
0.0
  0
VERTEX
  5
5118
  8
SCAN
 10
442.5051999999997747
 20
-281.7094000000000165
 30
0.0
  0
VERTEX
  5
5119
  8
SCAN
 10
441.1133999999997855
 20
-280.4567999999998733
 30
0.0
  0
VERTEX
  5
511A
  8
SCAN
 10
440.5566999999998075
 20
-278.7866500000001224
 30
0.0
  0
VERTEX
  5
511B
  8
SCAN
 10
440.5566999999998075
 20
-277.5340499999999793
 30
0.0
  0
VERTEX
  5
511C
  8
SCAN
 10
441.5309499999997911
 20
-272.5236499999999751
 30
0.0
  0
VERTEX
  5
511D
  8
SCAN
 10
441.5309499999997911
 20
-269.600900000000081
 30
0.0
  0
VERTEX
  5
511E
  8
SCAN
 10
441.1133999999997855
 20
-268.069949999999892
 30
0.0
  0
VERTEX
  5
511F
  8
SCAN
 10
439.9999999999997726
 20
-266.1214499999999816
 30
0.0
  0
VERTEX
  5
5120
  8
SCAN
 10
437.912299999999675
 20
-264.3121499999999742
 30
0.0
  0
VERTEX
  5
5121
  8
SCAN
 10
436.1029999999997813
 20
-263.6162499999999795
 30
0.0
  0
VERTEX
  5
5122
  8
SCAN
 10
434.432849999999803
 20
-263.3379000000001042
 30
0.0
  0
VERTEX
  5
5123
  8
SCAN
 10
431.2317499999998063
 20
-263.3379000000001042
 30
0.0
  0
VERTEX
  5
5124
  8
SCAN
 10
429.5616499999998155
 20
-263.6162499999999795
 30
0.0
  0
VERTEX
  5
5125
  8
SCAN
 10
427.0563999999998259
 20
-264.4512999999998897
 30
0.0
  0
VERTEX
  5
5126
  8
SCAN
 10
425.2470999999998753
 20
-265.4255499999998733
 30
0.0
  0
VERTEX
  5
5127
  8
SCAN
 10
423.437799999999811
 20
-266.8173499999999763
 30
0.0
  0
VERTEX
  5
5128
  8
SCAN
 10
422.4635499999997137
 20
-268.069949999999892
 30
0.0
  0
VERTEX
  5
5129
  8
SCAN
 10
426.6388999999998077
 20
-267.2348999999999819
 30
0.0
  0
VERTEX
  5
512A
  8
SCAN
 10
429.8399999999999181
 20
-267.0957000000000789
 30
0.0
  0
VERTEX
  5
512B
  8
SCAN
 10
429.9791499999997768
 20
-267.2348999999999819
 30
0.0
  0
VERTEX
  5
512C
  8
SCAN
 10
428.309049999999786
 20
-269.0441999999999894
 30
0.0
  0
VERTEX
  5
512D
  8
SCAN
 10
426.9172499999997967
 20
-271.1318499999999858
 30
0.0
  0
VERTEX
  5
512E
  8
SCAN
 10
425.9429999999999268
 20
-273.6370999999999754
 30
0.0
  0
VERTEX
  5
512F
  8
SCAN
 10
426.2213499999998021
 20
-273.6370999999999754
 30
0.0
  0
VERTEX
  5
5130
  8
SCAN
 10
429.0048999999997932
 20
-271.5493999999999915
 30
0.0
  0
VERTEX
  5
5131
  8
SCAN
 10
432.2059999999997899
 20
-269.8792500000001269
 30
0.0
  0
VERTEX
  5
5132
  8
SCAN
 10
432.3451999999998066
 20
-270.018449999999973
 30
0.0
  0
VERTEX
  5
5133
  8
SCAN
 10
431.2317499999998063
 20
-271.9669500000001108
 30
0.0
  0
VERTEX
  5
5134
  8
SCAN
 10
430.5359000000000265
 20
-273.915450000000078
 30
0.0
  0
VERTEX
  5
5135
  8
SCAN
 10
430.1183499999997935
 20
-275.7247499999999718
 30
0.0
  0
VERTEX
  5
5136
  8
SCAN
 10
430.1183499999997935
 20
-278.2299499999999739
 30
0.0
  0
VERTEX
  5
5137
  8
SCAN
 10
431.6492999999998119
 20
-275.8639499999998748
 30
0.0
  0
VERTEX
  5
5138
  8
SCAN
 10
433.3194499999997902
 20
-274.1938000000001239
 30
0.0
  0
VERTEX
  5
5139
  8
SCAN
 10
435.1287499999997976
 20
-273.2195500000000266
 30
0.0
  0
VERTEX
  5
513A
  8
SCAN
 10
437.0772499999998217
 20
-273.0803499999998962
 30
0.0
  0
VERTEX
  5
513B
  8
SCAN
 10
437.3555999999998107
 20
-273.4979000000000724
 30
0.0
  0
VERTEX
  5
513C
  8
SCAN
 10
437.3555999999998107
 20
-278.5083000000000766
 30
0.0
  0
VERTEX
  5
513D
  8
SCAN
 10
438.1906499999997777
 20
-280.735149999999976
 30
0.0
  0
VERTEX
  5
513E
  8
SCAN
 10
440.4174999999997908
 20
-283.101199999999892
 30
0.0
  0
VERTEX
  5
513F
  8
SCAN
 10
443.2010999999998262
 20
-284.9105000000001269
 30
0.0
  0
VERTEX
  5
5140
  8
SCAN
 10
444.871199999999817
 20
-285.4671999999998775
 30
0.0
  0
VERTEX
  5
5141
  8
SCAN
 10
445.7062999999997146
 20
-285.4671999999998775
 30
0.0
  0
VERTEX
  5
5142
  8
SCAN
 10
446.9589000000000283
 20
-284.0754499999998757
 30
0.0
  0
VERTEX
  5
5143
  8
SCAN
 10
448.7681999999998084
 20
-281.1526999999999816
 30
0.0
  0
VERTEX
  5
5144
  8
SCAN
 10
450.2991499999998268
 20
-277.9515999999999849
 30
0.0
  0
VERTEX
  5
5145
  8
SCAN
 10
451.4125999999998271
 20
-276.6989999999998986
 30
0.0
  0
VERTEX
  5
5146
  8
SCAN
 10
452.6651999999997997
 20
-276.1422999999999774
 30
0.0
  0
VERTEX
  5
5147
  8
SCAN
 10
454.0569499999999721
 20
-276.1422999999999774
 30
0.0
  0
VERTEX
  5
5148
  8
SCAN
 10
455.5879499999998075
 20
-276.977350000000115
 30
0.0
  0
VERTEX
  5
5149
  8
SCAN
 10
455.4487499999997908
 20
-276.2814500000001203
 30
0.0
  0
VERTEX
  5
514A
  8
SCAN
 10
454.4744999999998072
 20
-275.1680499999999938
 30
0.0
  0
VERTEX
  5
514B
  8
SCAN
 10
456.4229999999997744
 20
-274.3329500000000962
 30
0.0
  0
VERTEX
  5
514C
  8
SCAN
 10
459.2065499999998224
 20
-271.5493999999999915
 30
0.0
  0
VERTEX
  5
514D
  8
SCAN
 10
459.3457499999997822
 20
-271.9669500000001108
 30
0.0
  0
VERTEX
  5
514E
  8
SCAN
 10
458.9281999999997197
 20
-274.8896999999998911
 30
0.0
  0
VERTEX
  5
514F
  8
SCAN
 10
457.9539500000000203
 20
-279.6217500000000769
 30
0.0
  0
VERTEX
  5
5150
  8
SCAN
 10
456.7013499999998203
 20
-283.7971000000000004
 30
0.0
  0
VERTEX
  5
5151
  8
SCAN
 10
455.8663000000000238
 20
-285.6064000000001215
 30
0.0
  0
VERTEX
  5
5152
  8
SCAN
 10
455.3095499999997742
 20
-286.0239500000001271
 30
0.0
  0
VERTEX
  5
5153
  8
SCAN
 10
453.3610999999997944
 20
-286.5806500000001051
 30
0.0
  0
VERTEX
  5
5154
  8
SCAN
 10
450.8558999999996786
 20
-286.9981500000001233
 30
0.0
  0
VERTEX
  5
5155
  8
SCAN
 10
449.1857499999999277
 20
-286.9981500000001233
 30
0.0
  0
VERTEX
  5
5156
  8
SCAN
 10
451.9692999999999756
 20
-287.5548999999999751
 30
0.0
  0
SEQEND
  5
5157
  8
SCAN
  0
POLYLINE
  5
2F5
  8
SCAN
 66
     1
 10
0.0
 20
0.0
 30
0.0
 70
     1
  0
VERTEX
  5
5158
  8
SCAN
 10
453.0827499999999759
 20
-269.183400000000006
 30
0.0
  0
VERTEX
  5
5159
  8
SCAN
 10
453.3610999999997944
 20
-270.018449999999973
 30
0.0
  0
VERTEX
  5
515A
  8
SCAN
 10
452.8043499999997721
 20
-270.2968000000000757
 30
0.0
  0
VERTEX
  5
515B
  8
SCAN
 10
452.5259999999997831
 20
-270.018449999999973
 30
0.0
  0
VERTEX
  5
515C
  8
SCAN
 10
452.5259999999997831
 20
-269.4617499999998813
 30
0.0
  0
SEQEND
  5
515D
  8
SCAN
  0
POLYLINE
  5
2F6
  8
SCAN
 66
     1
 10
0.0
 20
0.0
 30
0.0
 70
     1
  0
VERTEX
  5
515E
  8
SCAN
 10
453.2218999999997777
 20
-266.6781500000000165
 30
0.0
  0
VERTEX
  5
515F
  8
SCAN
 10
453.3610999999997944
 20
-267.7916000000000736
 30
0.0
  0
VERTEX
  5
5160
  8
SCAN
 10
452.1084999999998217
 20
-268.6266499999999837
 30
0.0
  0
VERTEX
  5
5161
  8
SCAN
 10
451.6909499999998161
 20
-270.018449999999973
 30
0.0
  0
VERTEX
  5
5162
  8
SCAN
 10
451.2733999999999241
 20
-269.3225499999999784
 30
0.0
  0
VERTEX
  5
5163
  8
SCAN
 10
451.4125999999998271
 20
-267.9307999999999765
 30
0.0
  0
VERTEX
  5
5164
  8
SCAN
 10
452.6651999999997997
 20
-266.6781500000000165
 30
0.0
  0
SEQEND
  5
5165
  8
SCAN
  0
POLYLINE
  5
2F7
  8
SCAN
 66
     1
 10
0.0
 20
0.0
 30
0.0
 70
     1
  0
VERTEX
  5
5166
  8
SCAN
 10
456.1446499999997855
 20
-263.1986999999999739
 30
0.0
  0
VERTEX
  5
5167
  8
SCAN
 10
456.2837999999998146
 20
-269.4617499999998813
 30
0.0
  0
VERTEX
  5
5168
  8
SCAN
 10
456.0054499999998256
 20
-270.8534999999998831
 30
0.0
  0
VERTEX
  5
5169
  8
SCAN
 10
455.4487499999997908
 20
-271.9669500000001108
 30
0.0
  0
VERTEX
  5
516A
  8
SCAN
 10
454.7528499999997962
 20
-272.662849999999878
 30
0.0
  0
VERTEX
  5
516B
  8
SCAN
 10
454.0569499999999721
 20
-273.0803499999998962
 30
0.0
  0
VERTEX
  5
516C
  8
SCAN
 10
453.2218999999997777
 20
-273.2195500000000266
 30
0.0
  0
VERTEX
  5
516D
  8
SCAN
 10
453.0827499999999759
 20
-273.0803499999998962
 30
0.0
  0
VERTEX
  5
516E
  8
SCAN
 10
453.7785999999998126
 20
-272.5236499999999751
 30
0.0
  0
VERTEX
  5
516F
  8
SCAN
 10
454.6136999999998238
 20
-270.8534999999998831
 30
0.0
  0
VERTEX
  5
5170
  8
SCAN
 10
454.7528499999997962
 20
-266.1214499999999816
 30
0.0
  0
VERTEX
  5
5171
  8
SCAN
 10
455.3095499999997742
 20
-264.0337999999999852
 30
0.0
  0
SEQEND
  5
5172
  8
SCAN
  0
POLYLINE
  5
2F8
  8
SCAN
 66
     1
 10
0.0
 20
0.0
 30
0.0
 70
     1
  0
VERTEX
  5
5173
  8
SCAN
 10
460.1807999999999765
 20
-231.3269500000000107
 30
0.0
  0
VERTEX
  5
5174
  8
SCAN
 10
458.7890499999998042
 20
-231.3269500000000107
 30
0.0
  0
VERTEX
  5
5175
  8
SCAN
 10
428.5873999999997181
 20
-225.8990000000000862
 30
0.0
  0
VERTEX
  5
5176
  8
SCAN
 10
425.5254499999998075
 20
-224.9247499999999889
 30
0.0
  0
VERTEX
  5
5177
  8
SCAN
 10
423.5769499999996128
 20
-223.8113000000001023
 30
0.0
  0
VERTEX
  5
5178
  8
SCAN
 10
422.1851999999997815
 20
-222.4195499999999868
 30
0.0
  0
VERTEX
  5
5179
  8
SCAN
 10
421.4893000000000143
 20
-221.1669500000000994
 30
0.0
  0
VERTEX
  5
517A
  8
SCAN
 10
420.9325999999999226
 20
-218.8009000000000128
 30
0.0
  0
VERTEX
  5
517B
  8
SCAN
 10
420.9325999999999226
 20
-216.295700000000096
 30
0.0
  0
VERTEX
  5
517C
  8
SCAN
 10
421.4893000000000143
 20
-213.651299999999992
 30
0.0
  0
VERTEX
  5
517D
  8
SCAN
 10
421.9068499999997925
 20
-213.5121499999999912
 30
0.0
  0
VERTEX
  5
517E
  8
SCAN
 10
426.4996999999997911
 20
-214.3471999999999866
 30
0.0
  0
VERTEX
  5
517F
  8
SCAN
 10
426.7780499999997232
 20
-216.8524000000001024
 30
0.0
  0
VERTEX
  5
5180
  8
SCAN
 10
427.1955999999997857
 20
-217.826650000000086
 30
0.0
  0
VERTEX
  5
5181
  8
SCAN
 10
428.5873999999997181
 20
-218.9401000000000863
 30
0.0
  0
VERTEX
  5
5182
  8
SCAN
 10
431.6492999999998119
 20
-219.7751500000001101
 30
0.0
  0
VERTEX
  5
5183
  8
SCAN
 10
454.0569499999999721
 20
-223.6721500000001015
 30
0.0
  0
VERTEX
  5
5184
  8
SCAN
 10
454.1961499999998182
 20
-220.0535000000000139
 30
0.0
  0
VERTEX
  5
5185
  8
SCAN
 10
460.0416499999997768
 20
-221.0277500000001112
 30
0.0
  0
SEQEND
  5
5186
  8
SCAN
  0
POLYLINE
  5
2F9
  8
SCAN
 66
     1
 10
0.0
 20
0.0
 30
0.0
 70
     1
  0
VERTEX
  5
5187
  8
SCAN
 10
460.1807999999999765
 20
-218.2442000000000917
 30
0.0
  0
VERTEX
  5
5188
  8
SCAN
 10
460.0416499999997768
 20
-218.3833999999999946
 30
0.0
  0
VERTEX
  5
5189
  8
SCAN
 10
431.6492999999998119
 20
-213.3729500000000883
 30
0.0
  0
VERTEX
  5
518A
  8
SCAN
 10
427.3347999999998024
 20
-212.398699999999991
 30
0.0
  0
VERTEX
  5
518B
  8
SCAN
 10
425.1079499999997893
 20
-211.5636499999999955
 30
0.0
  0
VERTEX
  5
518C
  8
SCAN
 10
423.8553499999998735
 20
-210.8677500000000862
 30
0.0
  0
VERTEX
  5
518D
  8
SCAN
 10
422.3243499999998107
 20
-209.4759999999999991
 30
0.0
  0
VERTEX
  5
518E
  8
SCAN
 10
421.7676499999997759
 20
-208.6409000000001015
 30
0.0
  0
VERTEX
  5
518F
  8
SCAN
 10
421.2109499999997979
 20
-207.1099499999999978
 30
0.0
  0
VERTEX
  5
5190
  8
SCAN
 10
420.9325999999999226
 20
-205.579000000000093
 30
0.0
  0
VERTEX
  5
5191
  8
SCAN
 10
420.9325999999999226
 20
-203.0738000000000909
 30
0.0
  0
VERTEX
  5
5192
  8
SCAN
 10
421.4893000000000143
 20
-200.5686000000000888
 30
0.0
  0
VERTEX
  5
5193
  8
SCAN
 10
422.4635499999997137
 20
-200.4294000000001006
 30
0.0
  0
VERTEX
  5
5194
  8
SCAN
 10
426.3605499999998187
 20
-201.1252999999998963
 30
0.0
  0
VERTEX
  5
5195
  8
SCAN
 10
426.6388999999998077
 20
-201.403649999999999
 30
0.0
  0
VERTEX
  5
5196
  8
SCAN
 10
426.7780499999997232
 20
-203.6305000000000121
 30
0.0
  0
VERTEX
  5
5197
  8
SCAN
 10
427.0563999999998259
 20
-204.4655500000000927
 30
0.0
  0
VERTEX
  5
5198
  8
SCAN
 10
427.6131499999996777
 20
-205.1614500000000874
 30
0.0
  0
VERTEX
  5
5199
  8
SCAN
 10
428.7265499999999747
 20
-205.8573499999999967
 30
0.0
  0
VERTEX
  5
519A
  8
SCAN
 10
432.0668499999998744
 20
-206.6924000000001058
 30
0.0
  0
VERTEX
  5
519B
  8
SCAN
 10
439.9999999999997726
 20
-207.9449999999999932
 30
0.0
  0
VERTEX
  5
519C
  8
SCAN
 10
453.3610999999997944
 20
-210.4502500000000964
 30
0.0
  0
VERTEX
  5
519D
  8
SCAN
 10
454.0569499999999721
 20
-210.4502500000000964
 30
0.0
  0
VERTEX
  5
519E
  8
SCAN
 10
454.1961499999998182
 20
-206.831600000000094
 30
0.0
  0
VERTEX
  5
519F
  8
SCAN
 10
460.0416499999997768
 20
-207.9449999999999932
 30
0.0
  0
SEQEND
  5
51A0
  8
SCAN
  0
POLYLINE
  5
2FA
  8
SCAN
 66
     1
 10
0.0
 20
0.0
 30
0.0
 70
     1
  0
VERTEX
  5
51A1
  8
SCAN
 10
460.459149999999795
 20
-246.6365500000001134
 30
0.0
  0
VERTEX
  5
51A2
  8
SCAN
 10
459.7632499999998004
 20
-248.1674999999999898
 30
0.0
  0
VERTEX
  5
51A3
  8
SCAN
 10
458.9281999999997197
 20
-249.1417500000000871
 30
0.0
  0
VERTEX
  5
51A4
  8
SCAN
 10
457.258049999999912
 20
-250.1160000000000139
 30
0.0
  0
VERTEX
  5
51A5
  8
SCAN
 10
456.1446499999997855
 20
-250.3943500000000029
 30
0.0
  0
VERTEX
  5
51A6
  8
SCAN
 10
453.5002499999998236
 20
-250.5335000000000036
 30
0.0
  0
VERTEX
  5
51A7
  8
SCAN
 10
447.6548000000000229
 20
-249.5592499999999916
 30
0.0
  0
VERTEX
  5
51A8
  8
SCAN
 10
447.5155999999997789
 20
-243.2962500000001
 30
0.0
  0
VERTEX
  5
51A9
  8
SCAN
 10
448.2114999999997735
 20
-243.157100000000014
 30
0.0
  0
VERTEX
  5
51AA
  8
SCAN
 10
452.2476499999997941
 20
-243.9921500000000094
 30
0.0
  0
VERTEX
  5
51AB
  8
SCAN
 10
454.7528499999997962
 20
-244.2705000000001121
 30
0.0
  0
VERTEX
  5
51AC
  8
SCAN
 10
455.0311999999997852
 20
-243.713799999999992
 30
0.0
  0
VERTEX
  5
51AD
  8
SCAN
 10
455.0311999999997852
 20
-242.0436500000000137
 30
0.0
  0
VERTEX
  5
51AE
  8
SCAN
 10
454.6136999999998238
 20
-241.3477499999999907
 30
0.0
  0
VERTEX
  5
51AF
  8
SCAN
 10
453.9177999999997155
 20
-240.9302500000000862
 30
0.0
  0
VERTEX
  5
51B0
  8
SCAN
 10
451.8301000000000158
 20
-240.3735000000000923
 30
0.0
  0
VERTEX
  5
51B1
  8
SCAN
 10
429.8399999999999181
 20
-236.6157000000000892
 30
0.0
  0
VERTEX
  5
51B2
  8
SCAN
 10
428.0306499999999232
 20
-236.7548999999999921
 30
0.0
  0
VERTEX
  5
51B3
  8
SCAN
 10
427.6131499999996777
 20
-237.0332500000000095
 30
0.0
  0
VERTEX
  5
51B4
  8
SCAN
 10
427.3347999999998024
 20
-237.5899499999999875
 30
0.0
  0
VERTEX
  5
51B5
  8
SCAN
 10
427.0563999999998259
 20
-238.9817500000000052
 30
0.0
  0
VERTEX
  5
51B6
  8
SCAN
 10
427.0563999999998259
 20
-245.8014499999999884
 30
0.0
  0
VERTEX
  5
51B7
  8
SCAN
 10
426.2213499999998021
 20
-245.9406500000000051
 30
0.0
  0
VERTEX
  5
51B8
  8
SCAN
 10
421.4893000000000143
 20
-245.1055500000001075
 30
0.0
  0
VERTEX
  5
51B9
  8
SCAN
 10
421.2109499999997979
 20
-244.8272000000000901
 30
0.0
  0
VERTEX
  5
51BA
  8
SCAN
 10
420.9325999999999226
 20
-242.0436500000000137
 30
0.0
  0
VERTEX
  5
51BB
  8
SCAN
 10
420.9325999999999226
 20
-237.0332500000000095
 30
0.0
  0
VERTEX
  5
51BC
  8
SCAN
 10
421.4893000000000143
 20
-233.9713000000000989
 30
0.0
  0
VERTEX
  5
51BD
  8
SCAN
 10
422.3243499999998107
 20
-232.1620000000000061
 30
0.0
  0
VERTEX
  5
51BE
  8
SCAN
 10
423.437799999999811
 20
-230.9094000000000904
 30
0.0
  0
VERTEX
  5
51BF
  8
SCAN
 10
424.5511999999997101
 20
-230.2135000000000105
 30
0.0
  0
VERTEX
  5
51C0
  8
SCAN
 10
426.6388999999998077
 20
-229.6568000000000893
 30
0.0
  0
VERTEX
  5
51C1
  8
SCAN
 10
430.9533999999998173
 20
-229.796000000000106
 30
0.0
  0
VERTEX
  5
51C2
  8
SCAN
 10
450.1599999999997976
 20
-233.1362499999999898
 30
0.0
  0
VERTEX
  5
51C3
  8
SCAN
 10
453.9177999999997155
 20
-233.9713000000000989
 30
0.0
  0
VERTEX
  5
51C4
  8
SCAN
 10
456.5621999999997911
 20
-234.9455499999999972
 30
0.0
  0
VERTEX
  5
51C5
  8
SCAN
 10
458.0931499999998096
 20
-235.9198000000000945
 30
0.0
  0
VERTEX
  5
51C6
  8
SCAN
 10
459.0673999999999069
 20
-236.8940499999999929
 30
0.0
  0
VERTEX
  5
51C7
  8
SCAN
 10
459.902449999999817
 20
-238.1466500000001076
 30
0.0
  0
VERTEX
  5
51C8
  8
SCAN
 10
460.5983499999998116
 20
-240.2343500000000915
 30
0.0
  0
VERTEX
  5
51C9
  8
SCAN
 10
460.8766999999998006
 20
-242.6003500000001054
 30
0.0
  0
VERTEX
  5
51CA
  8
SCAN
 10
460.737499999999784
 20
-245.5231000000001131
 30
0.0
  0
SEQEND
  5
51CB
  8
SCAN
  0
POLYLINE
  5
2FB
  8
SCAN
 66
     1
 10
0.0
 20
0.0
 30
0.0
 70
     1
  0
VERTEX
  5
51CC
  8
SCAN
 10
464.2169499999998266
 20
-258.605850000000089
 30
0.0
  0
VERTEX
  5
51CD
  8
SCAN
 10
463.7994499999998084
 20
-258.7450000000000045
 30
0.0
  0
VERTEX
  5
51CE
  8
SCAN
 10
461.7117499999998245
 20
-258.1883000000000266
 30
0.0
  0
VERTEX
  5
51CF
  8
SCAN
 10
459.624099999999828
 20
-258.1883000000000266
 30
0.0
  0
VERTEX
  5
51D0
  8
SCAN
 10
458.3714999999997985
 20
-256.7965500000000247
 30
0.0
  0
VERTEX
  5
51D1
  8
SCAN
 10
461.0158999999998173
 20
-256.6573500000000081
 30
0.0
  0
VERTEX
  5
51D2
  8
SCAN
 10
460.459149999999795
 20
-256.1006499999999733
 30
0.0
  0
VERTEX
  5
51D3
  8
SCAN
 10
458.5106499999998277
 20
-254.9872000000000867
 30
0.0
  0
VERTEX
  5
51D4
  8
SCAN
 10
456.9796999999998093
 20
-254.5697000000000116
 30
0.0
  0
VERTEX
  5
51D5
  8
SCAN
 10
456.0054499999998256
 20
-254.5697000000000116
 30
0.0
  0
VERTEX
  5
51D6
  8
SCAN
 10
454.4744999999998072
 20
-253.1779000000001076
 30
0.0
  0
VERTEX
  5
51D7
  8
SCAN
 10
456.9796999999998093
 20
-253.038700000000091
 30
0.0
  0
VERTEX
  5
51D8
  8
SCAN
 10
458.7890499999998042
 20
-253.4562500000000114
 30
0.0
  0
VERTEX
  5
51D9
  8
SCAN
 10
460.3199999999998226
 20
-254.1521500000000913
 30
0.0
  0
VERTEX
  5
51DA
  8
SCAN
 10
462.2684999999997899
 20
-255.6831000000001097
 30
0.0
  0
VERTEX
  5
51DB
  8
SCAN
 10
463.3818999999999164
 20
-257.0749000000001274
 30
0.0
  0
SEQEND
  5
51DC
  8
SCAN
  0
POLYLINE
  5
30A
  8
SCAN
 66
     1
 10
0.0
 20
0.0
 30
0.0
 70
     1
  0
VERTEX
  5
51DD
  8
SCAN
 10
136.7013499999999055
 20
-288.9466499999999769
 30
0.0
  0
VERTEX
  5
51DE
  8
SCAN
 10
136.9796999999998093
 20
-288.8075000000000045
 30
0.0
  0
VERTEX
  5
51DF
  8
SCAN
 10
139.0673999999999069
 20
-282.8228500000000167
 30
0.0
  0
VERTEX
  5
51E0
  8
SCAN
 10
140.3199999999999079
 20
-277.1165499999999042
 30
0.0
  0
VERTEX
  5
51E1
  8
SCAN
 10
140.8766999999998859
 20
-272.5236499999999751
 30
0.0
  0
VERTEX
  5
51E2
  8
SCAN
 10
141.1550499999999033
 20
-272.2453000000000998
 30
0.0
  0
VERTEX
  5
51E3
  8
SCAN
 10
144.495349999999803
 20
-272.6628499999999917
 30
0.0
  0
VERTEX
  5
51E4
  8
SCAN
 10
145.8870999999998048
 20
-273.2195500000000266
 30
0.0
  0
VERTEX
  5
51E5
  8
SCAN
 10
146.1654499999999075
 20
-273.0803499999998962
 30
0.0
  0
VERTEX
  5
51E6
  8
SCAN
 10
145.6087499999999011
 20
-270.1576000000000022
 30
0.0
  0
VERTEX
  5
51E7
  8
SCAN
 10
143.7994499999998084
 20
-267.5132500000000277
 30
0.0
  0
VERTEX
  5
51E8
  8
SCAN
 10
142.4076499999999044
 20
-266.3998000000000275
 30
0.0
  0
VERTEX
  5
51E9
  8
SCAN
 10
141.7117499999999097
 20
-268.069949999999892
 30
0.0
  0
VERTEX
  5
51EA
  8
SCAN
 10
141.2942499999998063
 20
-268.4874999999998977
 30
0.0
  0
VERTEX
  5
51EB
  8
SCAN
 10
141.1550499999999033
 20
-268.3482999999999947
 30
0.0
  0
VERTEX
  5
51EC
  8
SCAN
 10
141.4333999999998071
 20
-266.2606499999998846
 30
0.0
  0
VERTEX
  5
51ED
  8
SCAN
 10
141.2942499999998063
 20
-262.6419999999998822
 30
0.0
  0
VERTEX
  5
51EE
  8
SCAN
 10
144.2169499999999118
 20
-262.5028499999999099
 30
0.0
  0
VERTEX
  5
51EF
  8
SCAN
 10
147.0005499999998904
 20
-262.9203499999999849
 30
0.0
  0
VERTEX
  5
51F0
  8
SCAN
 10
146.8613499999999021
 20
-261.1110499999999774
 30
0.0
  0
VERTEX
  5
51F1
  8
SCAN
 10
145.8870999999998048
 20
-258.3274999999999864
 30
0.0
  0
VERTEX
  5
51F2
  8
SCAN
 10
144.3561499999999
 20
-255.8223000000000127
 30
0.0
  0
VERTEX
  5
51F3
  8
SCAN
 10
141.1550499999999033
 20
-252.0644499999999084
 30
0.0
  0
VERTEX
  5
51F4
  8
SCAN
 10
142.5468499999998073
 20
-249.8375999999998953
 30
0.0
  0
VERTEX
  5
51F5
  8
SCAN
 10
143.3818999999998027
 20
-246.7757000000000005
 30
0.0
  0
VERTEX
  5
51F6
  8
SCAN
 10
143.3818999999998027
 20
-242.182850000000002
 30
0.0
  0
VERTEX
  5
51F7
  8
SCAN
 10
142.9643499999999108
 20
-240.0951499999999896
 30
0.0
  0
VERTEX
  5
51F8
  8
SCAN
 10
141.9900999999998135
 20
-237.7291500000000894
 30
0.0
  0
VERTEX
  5
51F9
  8
SCAN
 10
140.3199999999999079
 20
-235.6414499999999919
 30
0.0
  0
VERTEX
  5
51FA
  8
SCAN
 10
140.8766999999998859
 20
-235.5022999999999911
 30
0.0
  0
VERTEX
  5
51FB
  8
SCAN
 10
142.82519999999991
 20
-235.9198000000000945
 30
0.0
  0
VERTEX
  5
51FC
  8
SCAN
 10
142.82519999999991
 20
-206.9707499999998959
 30
0.0
  0
VERTEX
  5
51FD
  8
SCAN
 10
131.4125999999999124
 20
-205.0223000000000013
 30
0.0
  0
VERTEX
  5
51FE
  8
SCAN
 10
131.4125999999999124
 20
-208.501749999999987
 30
0.0
  0
VERTEX
  5
51FF
  8
SCAN
 10
131.1342500000000086
 20
-208.6408999999999878
 30
0.0
  0
VERTEX
  5
5200
  8
SCAN
 10
112.2059999999999036
 20
-205.3006499999999903
 30
0.0
  0
VERTEX
  5
5201
  8
SCAN
 10
109.4224499999998983
 20
-204.4655500000000075
 30
0.0
  0
VERTEX
  5
5202
  8
SCAN
 10
109.2832499999997964
 20
-200.2902499999999861
 30
0.0
  0
VERTEX
  5
5203
  8
SCAN
 10
99.8191499999999934
 20
-198.6201000000000079
 30
0.0
  0
VERTEX
  5
5204
  8
SCAN
 10
98.8448999999999955
 20
-201.403649999999999
 30
0.0
  0
VERTEX
  5
5205
  8
SCAN
 10
98.2881999999999749
 20
-204.6047499999999957
 30
0.0
  0
VERTEX
  5
5206
  8
SCAN
 10
98.5665499999999781
 20
-208.6408999999999878
 30
0.0
  0
VERTEX
  5
5207
  8
SCAN
 10
99.1232499999999561
 20
-210.4502500000000964
 30
0.0
  0
VERTEX
  5
5208
  8
SCAN
 10
99.8191499999999934
 20
-211.5636499999999955
 30
0.0
  0
VERTEX
  5
5209
  8
SCAN
 10
98.4274000000000058
 20
-216.5740499999999997
 30
0.0
  0
VERTEX
  5
520A
  8
SCAN
 10
98.4274000000000058
 20
-221.0277499999999975
 30
0.0
  0
VERTEX
  5
520B
  8
SCAN
 10
98.8448999999999955
 20
-222.8370999999999924
 30
0.0
  0
VERTEX
  5
520C
  8
SCAN
 10
100.0974999999997976
 20
-225.3422999999999945
 30
0.0
  0
VERTEX
  5
520D
  8
SCAN
 10
101.9068499999999062
 20
-227.151600000000002
 30
0.0
  0
VERTEX
  5
520E
  8
SCAN
 10
104.5511999999997954
 20
-228.682549999999992
 30
0.0
  0
VERTEX
  5
520F
  8
SCAN
 10
102.8810999999999041
 20
-229.3784499999999866
 30
0.0
  0
VERTEX
  5
5210
  8
SCAN
 10
101.4892999999999006
 20
-230.3526999999999987
 30
0.0
  0
VERTEX
  5
5211
  8
SCAN
 10
99.8191499999999934
 20
-232.4403499999999951
 30
0.0
  0
VERTEX
  5
5212
  8
SCAN
 10
99.1232499999999561
 20
-233.9713000000000989
 30
0.0
  0
VERTEX
  5
5213
  8
SCAN
 10
98.2881999999999749
 20
-238.5641999999999996
 30
0.0
  0
VERTEX
  5
5214
  8
SCAN
 10
98.2881999999999749
 20
-242.8787000000000091
 30
0.0
  0
VERTEX
  5
5215
  8
SCAN
 10
98.7057499999999806
 20
-247.6107499999999959
 30
0.0
  0
VERTEX
  5
5216
  8
SCAN
 10
98.9840999999999838
 20
-248.5850000000000932
 30
0.0
  0
VERTEX
  5
5217
  8
SCAN
 10
106.7780499999997943
 20
-249.8375999999998953
 30
0.0
  0
VERTEX
  5
5218
  8
SCAN
 10
106.9172499999997967
 20
-250.1160000000000139
 30
0.0
  0
VERTEX
  5
5219
  8
SCAN
 10
104.1336999999999051
 20
-252.7603499999999883
 30
0.0
  0
VERTEX
  5
521A
  8
SCAN
 10
101.3500999999996992
 20
-256.2397999999998888
 30
0.0
  0
VERTEX
  5
521B
  8
SCAN
 10
98.8448999999999955
 20
-260.2759999999998968
 30
0.0
  0
VERTEX
  5
521C
  8
SCAN
 10
96.2005499999999785
 20
-266.1214499999999816
 30
0.0
  0
VERTEX
  5
521D
  8
SCAN
 10
98.0098499999999859
 20
-270.018449999999973
 30
0.0
  0
VERTEX
  5
521E
  8
SCAN
 10
100.375899999999902
 20
-274.1938000000000102
 30
0.0
  0
VERTEX
  5
521F
  8
SCAN
 10
104.6903999999997978
 20
-279.900100000000009
 30
0.0
  0
VERTEX
  5
5220
  8
SCAN
 10
107.4739499999999026
 20
-282.5444499999999834
 30
0.0
  0
VERTEX
  5
5221
  8
SCAN
 10
110.2574999999997942
 20
-284.4929500000000075
 30
0.0
  0
VERTEX
  5
5222
  8
SCAN
 10
112.9018999999996993
 20
-285.6064000000000078
 30
0.0
  0
VERTEX
  5
5223
  8
SCAN
 10
115.1287499999997976
 20
-285.8847499999998831
 30
0.0
  0
VERTEX
  5
5224
  8
SCAN
 10
113.7369499999997942
 20
-285.4671999999999912
 30
0.0
  0
VERTEX
  5
5225
  8
SCAN
 10
110.5358999999997991
 20
-283.6578999999999837
 30
0.0
  0
VERTEX
  5
5226
  8
SCAN
 10
108.4481999999999005
 20
-281.9877500000000055
 30
0.0
  0
VERTEX
  5
5227
  8
SCAN
 10
105.9429999999997989
 20
-279.4825499999998897
 30
0.0
  0
VERTEX
  5
5228
  8
SCAN
 10
102.1851999999997958
 20
-274.4721499999998855
 30
0.0
  0
VERTEX
  5
5229
  8
SCAN
 10
100.2366999999998995
 20
-271.1318499999999858
 30
0.0
  0
VERTEX
  5
522A
  8
SCAN
 10
97.8706499999999835
 20
-266.1214499999999816
 30
0.0
  0
VERTEX
  5
522B
  8
SCAN
 10
100.6542499999999052
 20
-264.1729500000000144
 30
0.0
  0
VERTEX
  5
522C
  8
SCAN
 10
103.1594499999998931
 20
-262.9203499999999849
 30
0.0
  0
VERTEX
  5
522D
  8
SCAN
 10
106.7780499999997943
 20
-261.6677500000000123
 30
0.0
  0
VERTEX
  5
522E
  8
SCAN
 10
110.9533999999999025
 20
-260.9718500000000176
 30
0.0
  0
VERTEX
  5
522F
  8
SCAN
 10
115.6854499999999035
 20
-261.1110499999999774
 30
0.0
  0
VERTEX
  5
5230
  8
SCAN
 10
119.7216499999998973
 20
-262.2244499999999903
 30
0.0
  0
VERTEX
  5
5231
  8
SCAN
 10
122.5051999999999026
 20
-263.8946000000000254
 30
0.0
  0
VERTEX
  5
5232
  8
SCAN
 10
124.7320499999999015
 20
-266.2606499999998846
 30
0.0
  0
VERTEX
  5
5233
  8
SCAN
 10
126.5413499999997953
 20
-269.8792500000000132
 30
0.0
  0
VERTEX
  5
5234
  8
SCAN
 10
126.6805499999997977
 20
-267.3740500000000111
 30
0.0
  0
VERTEX
  5
5235
  8
SCAN
 10
126.1237999999999033
 20
-265.0080500000000256
 30
0.0
  0
VERTEX
  5
5236
  8
SCAN
 10
124.8711999999999023
 20
-262.7812000000000126
 30
0.0
  0
VERTEX
  5
5237
  8
SCAN
 10
122.3659999999999997
 20
-260.4151499999999828
 30
0.0
  0
VERTEX
  5
5238
  8
SCAN
 10
119.7216499999998973
 20
-259.0234000000000947
 30
0.0
  0
VERTEX
  5
5239
  8
SCAN
 10
116.6596999999999014
 20
-258.1883000000000266
 30
0.0
  0
VERTEX
  5
523A
  8
SCAN
 10
112.762749999999798
 20
-258.0491499999999974
 30
0.0
  0
VERTEX
  5
523B
  8
SCAN
 10
109.8399999999999039
 20
-258.6058499999999754
 30
0.0
  0
VERTEX
  5
523C
  8
SCAN
 10
109.1440999999997956
 20
-258.4666499999999019
 30
0.0
  0
VERTEX
  5
523D
  8
SCAN
 10
111.6492999999997977
 20
-256.6573500000000081
 30
0.0
  0
VERTEX
  5
523E
  8
SCAN
 10
114.015349999999799
 20
-255.404750000000007
 30
0.0
  0
VERTEX
  5
523F
  8
SCAN
 10
118.0514999999999048
 20
-254.152150000000006
 30
0.0
  0
VERTEX
  5
5240
  8
SCAN
 10
122.6443499999999034
 20
-254.152150000000006
 30
0.0
  0
VERTEX
  5
5241
  8
SCAN
 10
124.7320499999999015
 20
-254.7088500000000124
 30
0.0
  0
VERTEX
  5
5242
  8
SCAN
 10
126.5413499999997953
 20
-255.5439000000000078
 30
0.0
  0
VERTEX
  5
5243
  8
SCAN
 10
128.211499999999802
 20
-256.6573500000000081
 30
0.0
  0
VERTEX
  5
5244
  8
SCAN
 10
130.2991499999999121
 20
-258.7450000000000045
 30
0.0
  0
VERTEX
  5
5245
  8
SCAN
 10
131.6909499999999014
 20
-261.1110499999999774
 30
0.0
  0
VERTEX
  5
5246
  8
SCAN
 10
131.9692999999998051
 20
-261.9461000000000013
 30
0.0
  0
VERTEX
  5
5247
  8
SCAN
 10
131.8300999999999021
 20
-262.2244499999999903
 30
0.0
  0
VERTEX
  5
5248
  8
SCAN
 10
129.1857499999998993
 20
-259.3017500000000268
 30
0.0
  0
VERTEX
  5
5249
  8
SCAN
 10
126.5413499999997953
 20
-257.6316000000001054
 30
0.0
  0
VERTEX
  5
524A
  8
SCAN
 10
122.5051999999999026
 20
-256.3790000000000191
 30
0.0
  0
VERTEX
  5
524B
  8
SCAN
 10
118.8865499999999997
 20
-256.2397999999998888
 30
0.0
  0
VERTEX
  5
524C
  8
SCAN
 10
121.9484999999997967
 20
-257.2140499999998724
 30
0.0
  0
VERTEX
  5
524D
  8
SCAN
 10
124.5928499999998991
 20
-258.8842000000000212
 30
0.0
  0
VERTEX
  5
524E
  8
SCAN
 10
126.4021999999997945
 20
-260.6934999999999718
 30
0.0
  0
VERTEX
  5
524F
  8
SCAN
 10
127.3763999999999044
 20
-262.0853000000000179
 30
0.0
  0
VERTEX
  5
5250
  8
SCAN
 10
128.7681999999996947
 20
-265.425549999999987
 30
0.0
  0
VERTEX
  5
5251
  8
SCAN
 10
129.3248999999999
 20
-268.9049999999999727
 30
0.0
  0
VERTEX
  5
5252
  8
SCAN
 10
129.0465499999999111
 20
-273.7762500000000045
 30
0.0
  0
VERTEX
  5
5253
  8
SCAN
 10
127.6547999999997955
 20
-278.7866500000000087
 30
0.0
  0
VERTEX
  5
5254
  8
SCAN
 10
126.5413499999997953
 20
-281.0135000000000218
 30
0.0
  0
VERTEX
  5
5255
  8
SCAN
 10
125.8454499999999996
 20
-281.8485999999999763
 30
0.0
  0
VERTEX
  5
5256
  8
SCAN
 10
124.1753499999996961
 20
-281.9877500000000055
 30
0.0
  0
VERTEX
  5
5257
  8
SCAN
 10
122.5051999999999026
 20
-282.9619999999999891
 30
0.0
  0
VERTEX
  5
5258
  8
SCAN
 10
121.1133999999998991
 20
-281.7093999999999028
 30
0.0
  0
VERTEX
  5
5259
  8
SCAN
 10
120.8350499999997965
 20
-281.1526999999999816
 30
0.0
  0
VERTEX
  5
525A
  8
SCAN
 10
120.5566999999999069
 20
-278.7866500000000087
 30
0.0
  0
VERTEX
  5
525B
  8
SCAN
 10
121.5309499999999048
 20
-273.7762500000000045
 30
0.0
  0
VERTEX
  5
525C
  8
SCAN
 10
121.5309499999999048
 20
-270.8534999999998831
 30
0.0
  0
VERTEX
  5
525D
  8
SCAN
 10
121.1133999999998991
 20
-269.3225499999999784
 30
0.0
  0
VERTEX
  5
525E
  8
SCAN
 10
119.9999999999999005
 20
-267.3740500000000111
 30
0.0
  0
VERTEX
  5
525F
  8
SCAN
 10
117.9122999999999024
 20
-265.5647500000000036
 30
0.0
  0
VERTEX
  5
5260
  8
SCAN
 10
116.1029999999997955
 20
-264.868850000000009
 30
0.0
  0
VERTEX
  5
5261
  8
SCAN
 10
114.4328499999999025
 20
-264.59050000000002
 30
0.0
  0
VERTEX
  5
5262
  8
SCAN
 10
111.2317499999999058
 20
-264.59050000000002
 30
0.0
  0
VERTEX
  5
5263
  8
SCAN
 10
109.5616499999999007
 20
-264.868850000000009
 30
0.0
  0
VERTEX
  5
5264
  8
SCAN
 10
107.0563999999997975
 20
-265.703899999999976
 30
0.0
  0
VERTEX
  5
5265
  8
SCAN
 10
105.2470999999999037
 20
-266.6781499999999028
 30
0.0
  0
VERTEX
  5
5266
  8
SCAN
 10
103.4377999999997968
 20
-268.069949999999892
 30
0.0
  0
VERTEX
  5
5267
  8
SCAN
 10
102.463549999999799
 20
-269.3225499999999784
 30
0.0
  0
VERTEX
  5
5268
  8
SCAN
 10
106.6388999999997935
 20
-268.4874999999998977
 30
0.0
  0
VERTEX
  5
5269
  8
SCAN
 10
109.8399999999999039
 20
-268.3482999999999947
 30
0.0
  0
VERTEX
  5
526A
  8
SCAN
 10
109.9791499999999047
 20
-268.4874999999998977
 30
0.0
  0
VERTEX
  5
526B
  8
SCAN
 10
108.3090499999998997
 20
-270.2968000000000188
 30
0.0
  0
VERTEX
  5
526C
  8
SCAN
 10
106.9172499999997967
 20
-272.3844500000000153
 30
0.0
  0
VERTEX
  5
526D
  8
SCAN
 10
105.9429999999997989
 20
-274.8896999999998911
 30
0.0
  0
VERTEX
  5
526E
  8
SCAN
 10
109.0048999999999069
 20
-272.8020000000000209
 30
0.0
  0
VERTEX
  5
526F
  8
SCAN
 10
112.2059999999999036
 20
-271.1318499999999858
 30
0.0
  0
VERTEX
  5
5270
  8
SCAN
 10
112.345199999999906
 20
-271.2710500000000025
 30
0.0
  0
VERTEX
  5
5271
  8
SCAN
 10
111.2317499999999058
 20
-273.2195500000000266
 30
0.0
  0
VERTEX
  5
5272
  8
SCAN
 10
110.1183499999997935
 20
-276.9773500000000013
 30
0.0
  0
VERTEX
  5
5273
  8
SCAN
 10
110.1183499999997935
 20
-279.4825499999998897
 30
0.0
  0
VERTEX
  5
5274
  8
SCAN
 10
111.6492999999997977
 20
-277.1165499999999042
 30
0.0
  0
VERTEX
  5
5275
  8
SCAN
 10
113.3194499999999039
 20
-275.4463999999999828
 30
0.0
  0
VERTEX
  5
5276
  8
SCAN
 10
115.1287499999997976
 20
-274.4721499999998855
 30
0.0
  0
VERTEX
  5
5277
  8
SCAN
 10
117.077249999999907
 20
-274.3329499999999825
 30
0.0
  0
VERTEX
  5
5278
  8
SCAN
 10
117.3555999999997965
 20
-274.7504999999999882
 30
0.0
  0
VERTEX
  5
5279
  8
SCAN
 10
117.3555999999997965
 20
-279.7608999999999924
 30
0.0
  0
VERTEX
  5
527A
  8
SCAN
 10
118.1906499999999056
 20
-281.9877500000000055
 30
0.0
  0
VERTEX
  5
527B
  8
SCAN
 10
120.4174999999999045
 20
-284.3537999999999784
 30
0.0
  0
VERTEX
  5
527C
  8
SCAN
 10
123.2010999999997978
 20
-286.1630999999999858
 30
0.0
  0
VERTEX
  5
527D
  8
SCAN
 10
124.8711999999999023
 20
-286.7198000000000206
 30
0.0
  0
VERTEX
  5
527E
  8
SCAN
 10
125.7062999999998993
 20
-286.7198000000000206
 30
0.0
  0
VERTEX
  5
527F
  8
SCAN
 10
126.9588999999999004
 20
-285.3280500000000188
 30
0.0
  0
VERTEX
  5
5280
  8
SCAN
 10
128.7681999999996947
 20
-282.4053000000000111
 30
0.0
  0
VERTEX
  5
5281
  8
SCAN
 10
130.2991499999999121
 20
-279.2042000000000144
 30
0.0
  0
VERTEX
  5
5282
  8
SCAN
 10
131.4125999999999124
 20
-277.9515999999999849
 30
0.0
  0
VERTEX
  5
5283
  8
SCAN
 10
132.6651999999999134
 20
-277.3949000000000069
 30
0.0
  0
VERTEX
  5
5284
  8
SCAN
 10
134.0569499999998015
 20
-277.3949000000000069
 30
0.0
  0
VERTEX
  5
5285
  8
SCAN
 10
135.5879499999998075
 20
-278.2299499999999739
 30
0.0
  0
VERTEX
  5
5286
  8
SCAN
 10
135.4487499999999045
 20
-277.5340499999999793
 30
0.0
  0
VERTEX
  5
5287
  8
SCAN
 10
134.4744999999998072
 20
-276.4206500000000233
 30
0.0
  0
VERTEX
  5
5288
  8
SCAN
 10
136.4229999999998029
 20
-275.585550000000012
 30
0.0
  0
VERTEX
  5
5289
  8
SCAN
 10
139.2065499999999076
 20
-272.8020000000000209
 30
0.0
  0
VERTEX
  5
528A
  8
SCAN
 10
139.3457500000000095
 20
-273.2195500000000266
 30
0.0
  0
VERTEX
  5
528B
  8
SCAN
 10
137.9539499999999066
 20
-280.8743500000001063
 30
0.0
  0
VERTEX
  5
528C
  8
SCAN
 10
136.7013499999999055
 20
-285.049699999999973
 30
0.0
  0
VERTEX
  5
528D
  8
SCAN
 10
135.8662999999999101
 20
-286.8590000000000941
 30
0.0
  0
VERTEX
  5
528E
  8
SCAN
 10
135.3095499999998026
 20
-287.2765499999999861
 30
0.0
  0
VERTEX
  5
528F
  8
SCAN
 10
133.3610999999999081
 20
-287.8332500000000209
 30
0.0
  0
VERTEX
  5
5290
  8
SCAN
 10
129.1857499999998993
 20
-288.2507499999999823
 30
0.0
  0
VERTEX
  5
5291
  8
SCAN
 10
131.9692999999998051
 20
-288.8075000000000045
 30
0.0
  0
SEQEND
  5
5292
  8
SCAN
  0
POLYLINE
  5
30B
  8
SCAN
 66
     1
 10
0.0
 20
0.0
 30
0.0
 70
     1
  0
VERTEX
  5
5293
  8
SCAN
 10
136.7013499999999055
 20
-288.9466499999999769
 30
0.0
  0
VERTEX
  5
5294
  8
SCAN
 10
136.9796999999998093
 20
-288.8075000000000045
 30
0.0
  0
VERTEX
  5
5295
  8
SCAN
 10
137.536399999999901
 20
-287.5548999999999751
 30
0.0
  0
VERTEX
  5
5296
  8
SCAN
 10
139.0673999999999069
 20
-282.8228500000000167
 30
0.0
  0
VERTEX
  5
5297
  8
SCAN
 10
140.3199999999999079
 20
-277.1165499999999042
 30
0.0
  0
VERTEX
  5
5298
  8
SCAN
 10
140.8766999999998859
 20
-272.5236499999999751
 30
0.0
  0
VERTEX
  5
5299
  8
SCAN
 10
141.1550499999999033
 20
-272.2453000000000998
 30
0.0
  0
VERTEX
  5
529A
  8
SCAN
 10
141.9900999999998135
 20
-272.2453000000000998
 30
0.0
  0
VERTEX
  5
529B
  8
SCAN
 10
144.495349999999803
 20
-272.6628499999999917
 30
0.0
  0
VERTEX
  5
529C
  8
SCAN
 10
145.8870999999998048
 20
-273.2195500000000266
 30
0.0
  0
VERTEX
  5
529D
  8
SCAN
 10
146.1654499999999075
 20
-273.0803499999998962
 30
0.0
  0
VERTEX
  5
529E
  8
SCAN
 10
146.0262999999999067
 20
-271.5493999999999915
 30
0.0
  0
VERTEX
  5
529F
  8
SCAN
 10
145.6087499999999011
 20
-270.1576000000000022
 30
0.0
  0
VERTEX
  5
52A0
  8
SCAN
 10
143.7994499999998084
 20
-267.5132500000000277
 30
0.0
  0
VERTEX
  5
52A1
  8
SCAN
 10
142.4076499999999044
 20
-266.3998000000000275
 30
0.0
  0
VERTEX
  5
52A2
  8
SCAN
 10
141.7117499999999097
 20
-268.069949999999892
 30
0.0
  0
VERTEX
  5
52A3
  8
SCAN
 10
141.2942499999998063
 20
-268.4874999999998977
 30
0.0
  0
VERTEX
  5
52A4
  8
SCAN
 10
141.1550499999999033
 20
-268.3482999999999947
 30
0.0
  0
VERTEX
  5
52A5
  8
SCAN
 10
141.4333999999998071
 20
-266.2606499999998846
 30
0.0
  0
VERTEX
  5
52A6
  8
SCAN
 10
141.2942499999998063
 20
-262.6419999999998822
 30
0.0
  0
VERTEX
  5
52A7
  8
SCAN
 10
144.2169499999999118
 20
-262.5028499999999099
 30
0.0
  0
VERTEX
  5
52A8
  8
SCAN
 10
147.0005499999998904
 20
-262.9203499999999849
 30
0.0
  0
VERTEX
  5
52A9
  8
SCAN
 10
146.8613499999999021
 20
-261.1110499999999774
 30
0.0
  0
VERTEX
  5
52AA
  8
SCAN
 10
145.8870999999998048
 20
-258.3274999999999864
 30
0.0
  0
VERTEX
  5
52AB
  8
SCAN
 10
144.3561499999999
 20
-255.8223000000000127
 30
0.0
  0
VERTEX
  5
52AC
  8
SCAN
 10
141.1550499999999033
 20
-252.0644499999999084
 30
0.0
  0
VERTEX
  5
52AD
  8
SCAN
 10
142.5468499999998073
 20
-249.8375999999998953
 30
0.0
  0
VERTEX
  5
52AE
  8
SCAN
 10
143.3818999999998027
 20
-246.7757000000000005
 30
0.0
  0
VERTEX
  5
52AF
  8
SCAN
 10
143.3818999999998027
 20
-242.182850000000002
 30
0.0
  0
VERTEX
  5
52B0
  8
SCAN
 10
142.9643499999999108
 20
-240.0951499999999896
 30
0.0
  0
VERTEX
  5
52B1
  8
SCAN
 10
141.9900999999998135
 20
-237.7291500000000894
 30
0.0
  0
VERTEX
  5
52B2
  8
SCAN
 10
140.3199999999999079
 20
-235.6414499999999919
 30
0.0
  0
VERTEX
  5
52B3
  8
SCAN
 10
140.8766999999998859
 20
-235.5022999999999911
 30
0.0
  0
VERTEX
  5
52B4
  8
SCAN
 10
142.82519999999991
 20
-235.9198000000000945
 30
0.0
  0
VERTEX
  5
52B5
  8
SCAN
 10
142.82519999999991
 20
-206.9707499999998959
 30
0.0
  0
VERTEX
  5
52B6
  8
SCAN
 10
131.4125999999999124
 20
-205.0223000000000013
 30
0.0
  0
VERTEX
  5
52B7
  8
SCAN
 10
131.4125999999999124
 20
-208.501749999999987
 30
0.0
  0
VERTEX
  5
52B8
  8
SCAN
 10
131.1342500000000086
 20
-208.6408999999999878
 30
0.0
  0
VERTEX
  5
52B9
  8
SCAN
 10
110.2574999999997942
 20
-204.8831000000000131
 30
0.0
  0
VERTEX
  5
52BA
  8
SCAN
 10
109.4224499999998983
 20
-204.4655500000000075
 30
0.0
  0
VERTEX
  5
52BB
  8
SCAN
 10
109.2832499999997964
 20
-200.2902499999999861
 30
0.0
  0
VERTEX
  5
52BC
  8
SCAN
 10
99.8191499999999934
 20
-198.6201000000000079
 30
0.0
  0
VERTEX
  5
52BD
  8
SCAN
 10
98.8448999999999955
 20
-201.403649999999999
 30
0.0
  0
VERTEX
  5
52BE
  8
SCAN
 10
98.2881999999999749
 20
-204.6047499999999957
 30
0.0
  0
VERTEX
  5
52BF
  8
SCAN
 10
98.5665499999999781
 20
-208.6408999999999878
 30
0.0
  0
VERTEX
  5
52C0
  8
SCAN
 10
99.1232499999999561
 20
-210.4502500000000964
 30
0.0
  0
VERTEX
  5
52C1
  8
SCAN
 10
99.8191499999999934
 20
-211.5636499999999955
 30
0.0
  0
VERTEX
  5
52C2
  8
SCAN
 10
98.4274000000000058
 20
-216.5740499999999997
 30
0.0
  0
VERTEX
  5
52C3
  8
SCAN
 10
98.4274000000000058
 20
-221.0277499999999975
 30
0.0
  0
VERTEX
  5
52C4
  8
SCAN
 10
98.8448999999999955
 20
-222.8370999999999924
 30
0.0
  0
VERTEX
  5
52C5
  8
SCAN
 10
100.0974999999997976
 20
-225.3422999999999945
 30
0.0
  0
VERTEX
  5
52C6
  8
SCAN
 10
101.9068499999999062
 20
-227.151600000000002
 30
0.0
  0
VERTEX
  5
52C7
  8
SCAN
 10
104.5511999999997954
 20
-228.682549999999992
 30
0.0
  0
VERTEX
  5
52C8
  8
SCAN
 10
102.8810999999999041
 20
-229.3784499999999866
 30
0.0
  0
VERTEX
  5
52C9
  8
SCAN
 10
101.4892999999999006
 20
-230.3526999999999987
 30
0.0
  0
VERTEX
  5
52CA
  8
SCAN
 10
99.8191499999999934
 20
-232.4403499999999951
 30
0.0
  0
VERTEX
  5
52CB
  8
SCAN
 10
99.1232499999999561
 20
-233.9713000000000989
 30
0.0
  0
VERTEX
  5
52CC
  8
SCAN
 10
98.5665499999999781
 20
-236.198149999999913
 30
0.0
  0
VERTEX
  5
52CD
  8
SCAN
 10
98.2881999999999749
 20
-238.5641999999999996
 30
0.0
  0
VERTEX
  5
52CE
  8
SCAN
 10
98.2881999999999749
 20
-242.8787000000000091
 30
0.0
  0
VERTEX
  5
52CF
  8
SCAN
 10
98.7057499999999806
 20
-247.6107499999999959
 30
0.0
  0
VERTEX
  5
52D0
  8
SCAN
 10
98.9840999999999838
 20
-248.5850000000000932
 30
0.0
  0
VERTEX
  5
52D1
  8
SCAN
 10
106.7780499999997943
 20
-249.8375999999998953
 30
0.0
  0
VERTEX
  5
52D2
  8
SCAN
 10
106.9172499999997967
 20
-250.1160000000000139
 30
0.0
  0
VERTEX
  5
52D3
  8
SCAN
 10
104.1336999999999051
 20
-252.7603499999999883
 30
0.0
  0
VERTEX
  5
52D4
  8
SCAN
 10
101.3500999999996992
 20
-256.2397999999998888
 30
0.0
  0
VERTEX
  5
52D5
  8
SCAN
 10
98.8448999999999955
 20
-260.2759999999998968
 30
0.0
  0
VERTEX
  5
52D6
  8
SCAN
 10
96.2005499999999785
 20
-266.1214499999999816
 30
0.0
  0
VERTEX
  5
52D7
  8
SCAN
 10
98.0098499999999859
 20
-270.018449999999973
 30
0.0
  0
VERTEX
  5
52D8
  8
SCAN
 10
100.375899999999902
 20
-274.1938000000000102
 30
0.0
  0
VERTEX
  5
52D9
  8
SCAN
 10
103.0202499999999048
 20
-277.9515999999999849
 30
0.0
  0
VERTEX
  5
52DA
  8
SCAN
 10
104.6903999999997978
 20
-279.900100000000009
 30
0.0
  0
VERTEX
  5
52DB
  8
SCAN
 10
107.4739499999999026
 20
-282.5444499999999834
 30
0.0
  0
VERTEX
  5
52DC
  8
SCAN
 10
110.2574999999997942
 20
-284.4929500000000075
 30
0.0
  0
VERTEX
  5
52DD
  8
SCAN
 10
112.9018999999996993
 20
-285.6064000000000078
 30
0.0
  0
VERTEX
  5
52DE
  8
SCAN
 10
115.1287499999997976
 20
-285.8847499999998831
 30
0.0
  0
VERTEX
  5
52DF
  8
SCAN
 10
113.7369499999997942
 20
-285.4671999999999912
 30
0.0
  0
VERTEX
  5
52E0
  8
SCAN
 10
110.5358999999997991
 20
-283.6578999999999837
 30
0.0
  0
VERTEX
  5
52E1
  8
SCAN
 10
108.4481999999999005
 20
-281.9877500000000055
 30
0.0
  0
VERTEX
  5
52E2
  8
SCAN
 10
105.9429999999997989
 20
-279.4825499999998897
 30
0.0
  0
VERTEX
  5
52E3
  8
SCAN
 10
102.1851999999997958
 20
-274.4721499999998855
 30
0.0
  0
VERTEX
  5
52E4
  8
SCAN
 10
100.2366999999998995
 20
-271.1318499999999858
 30
0.0
  0
VERTEX
  5
52E5
  8
SCAN
 10
97.8706499999999835
 20
-266.1214499999999816
 30
0.0
  0
VERTEX
  5
52E6
  8
SCAN
 10
100.6542499999999052
 20
-264.1729500000000144
 30
0.0
  0
VERTEX
  5
52E7
  8
SCAN
 10
103.1594499999998931
 20
-262.9203499999999849
 30
0.0
  0
VERTEX
  5
52E8
  8
SCAN
 10
106.7780499999997943
 20
-261.6677500000000123
 30
0.0
  0
VERTEX
  5
52E9
  8
SCAN
 10
110.9533999999999025
 20
-260.9718500000000176
 30
0.0
  0
VERTEX
  5
52EA
  8
SCAN
 10
115.6854499999999035
 20
-261.1110499999999774
 30
0.0
  0
VERTEX
  5
52EB
  8
SCAN
 10
119.7216499999998973
 20
-262.2244499999999903
 30
0.0
  0
VERTEX
  5
52EC
  8
SCAN
 10
122.5051999999999026
 20
-263.8946000000000254
 30
0.0
  0
VERTEX
  5
52ED
  8
SCAN
 10
124.7320499999999015
 20
-266.2606499999998846
 30
0.0
  0
VERTEX
  5
52EE
  8
SCAN
 10
126.5413499999997953
 20
-269.8792500000000132
 30
0.0
  0
VERTEX
  5
52EF
  8
SCAN
 10
126.6805499999997977
 20
-267.3740500000000111
 30
0.0
  0
VERTEX
  5
52F0
  8
SCAN
 10
126.1237999999999033
 20
-265.0080500000000256
 30
0.0
  0
VERTEX
  5
52F1
  8
SCAN
 10
124.8711999999999023
 20
-262.7812000000000126
 30
0.0
  0
VERTEX
  5
52F2
  8
SCAN
 10
123.7577999999999037
 20
-261.5285999999999831
 30
0.0
  0
VERTEX
  5
52F3
  8
SCAN
 10
122.3659999999999997
 20
-260.4151499999999828
 30
0.0
  0
VERTEX
  5
52F4
  8
SCAN
 10
119.7216499999998973
 20
-259.0234000000000947
 30
0.0
  0
VERTEX
  5
52F5
  8
SCAN
 10
116.6596999999999014
 20
-258.1883000000000266
 30
0.0
  0
VERTEX
  5
52F6
  8
SCAN
 10
112.762749999999798
 20
-258.0491499999999974
 30
0.0
  0
VERTEX
  5
52F7
  8
SCAN
 10
110.5358999999997991
 20
-258.3274999999999864
 30
0.0
  0
VERTEX
  5
52F8
  8
SCAN
 10
109.8399999999999039
 20
-258.6058499999999754
 30
0.0
  0
VERTEX
  5
52F9
  8
SCAN
 10
109.1440999999997956
 20
-258.4666499999999019
 30
0.0
  0
VERTEX
  5
52FA
  8
SCAN
 10
111.6492999999997977
 20
-256.6573500000000081
 30
0.0
  0
VERTEX
  5
52FB
  8
SCAN
 10
114.015349999999799
 20
-255.404750000000007
 30
0.0
  0
VERTEX
  5
52FC
  8
SCAN
 10
118.0514999999999048
 20
-254.152150000000006
 30
0.0
  0
VERTEX
  5
52FD
  8
SCAN
 10
122.6443499999999034
 20
-254.152150000000006
 30
0.0
  0
VERTEX
  5
52FE
  8
SCAN
 10
124.7320499999999015
 20
-254.7088500000000124
 30
0.0
  0
VERTEX
  5
52FF
  8
SCAN
 10
126.5413499999997953
 20
-255.5439000000000078
 30
0.0
  0
VERTEX
  5
5300
  8
SCAN
 10
128.211499999999802
 20
-256.6573500000000081
 30
0.0
  0
VERTEX
  5
5301
  8
SCAN
 10
130.2991499999999121
 20
-258.7450000000000045
 30
0.0
  0
VERTEX
  5
5302
  8
SCAN
 10
131.6909499999999014
 20
-261.1110499999999774
 30
0.0
  0
VERTEX
  5
5303
  8
SCAN
 10
131.9692999999998051
 20
-261.9461000000000013
 30
0.0
  0
VERTEX
  5
5304
  8
SCAN
 10
131.8300999999999021
 20
-262.2244499999999903
 30
0.0
  0
VERTEX
  5
5305
  8
SCAN
 10
129.1857499999998993
 20
-259.3017500000000268
 30
0.0
  0
VERTEX
  5
5306
  8
SCAN
 10
126.5413499999997953
 20
-257.6316000000001054
 30
0.0
  0
VERTEX
  5
5307
  8
SCAN
 10
122.5051999999999026
 20
-256.3790000000000191
 30
0.0
  0
VERTEX
  5
5308
  8
SCAN
 10
118.8865499999999997
 20
-256.2397999999998888
 30
0.0
  0
VERTEX
  5
5309
  8
SCAN
 10
121.9484999999997967
 20
-257.2140499999998724
 30
0.0
  0
VERTEX
  5
530A
  8
SCAN
 10
124.5928499999998991
 20
-258.8842000000000212
 30
0.0
  0
VERTEX
  5
530B
  8
SCAN
 10
126.4021999999997945
 20
-260.6934999999999718
 30
0.0
  0
VERTEX
  5
530C
  8
SCAN
 10
127.3763999999999044
 20
-262.0853000000000179
 30
0.0
  0
VERTEX
  5
530D
  8
SCAN
 10
128.7681999999996947
 20
-265.425549999999987
 30
0.0
  0
VERTEX
  5
530E
  8
SCAN
 10
129.3248999999999
 20
-268.9049999999999727
 30
0.0
  0
VERTEX
  5
530F
  8
SCAN
 10
129.0465499999999111
 20
-273.7762500000000045
 30
0.0
  0
VERTEX
  5
5310
  8
SCAN
 10
127.6547999999997955
 20
-278.7866500000000087
 30
0.0
  0
VERTEX
  5
5311
  8
SCAN
 10
126.5413499999997953
 20
-281.0135000000000218
 30
0.0
  0
VERTEX
  5
5312
  8
SCAN
 10
125.8454499999999996
 20
-281.8485999999999763
 30
0.0
  0
VERTEX
  5
5313
  8
SCAN
 10
124.1753499999996961
 20
-281.9877500000000055
 30
0.0
  0
VERTEX
  5
5314
  8
SCAN
 10
122.5051999999999026
 20
-282.9619999999999891
 30
0.0
  0
VERTEX
  5
5315
  8
SCAN
 10
121.1133999999998991
 20
-281.7093999999999028
 30
0.0
  0
VERTEX
  5
5316
  8
SCAN
 10
120.5566999999999069
 20
-280.0392499999999814
 30
0.0
  0
VERTEX
  5
5317
  8
SCAN
 10
120.5566999999999069
 20
-278.7866500000000087
 30
0.0
  0
VERTEX
  5
5318
  8
SCAN
 10
121.5309499999999048
 20
-273.7762500000000045
 30
0.0
  0
VERTEX
  5
5319
  8
SCAN
 10
121.5309499999999048
 20
-270.8534999999998831
 30
0.0
  0
VERTEX
  5
531A
  8
SCAN
 10
121.1133999999998991
 20
-269.3225499999999784
 30
0.0
  0
VERTEX
  5
531B
  8
SCAN
 10
119.9999999999999005
 20
-267.3740500000000111
 30
0.0
  0
VERTEX
  5
531C
  8
SCAN
 10
117.9122999999999024
 20
-265.5647500000000036
 30
0.0
  0
VERTEX
  5
531D
  8
SCAN
 10
116.1029999999997955
 20
-264.868850000000009
 30
0.0
  0
VERTEX
  5
531E
  8
SCAN
 10
114.4328499999999025
 20
-264.59050000000002
 30
0.0
  0
VERTEX
  5
531F
  8
SCAN
 10
111.2317499999999058
 20
-264.59050000000002
 30
0.0
  0
VERTEX
  5
5320
  8
SCAN
 10
109.5616499999999007
 20
-264.868850000000009
 30
0.0
  0
VERTEX
  5
5321
  8
SCAN
 10
107.0563999999997975
 20
-265.703899999999976
 30
0.0
  0
VERTEX
  5
5322
  8
SCAN
 10
105.2470999999999037
 20
-266.6781499999999028
 30
0.0
  0
VERTEX
  5
5323
  8
SCAN
 10
103.4377999999997968
 20
-268.069949999999892
 30
0.0
  0
VERTEX
  5
5324
  8
SCAN
 10
102.463549999999799
 20
-269.3225499999999784
 30
0.0
  0
VERTEX
  5
5325
  8
SCAN
 10
106.6388999999997935
 20
-268.4874999999998977
 30
0.0
  0
VERTEX
  5
5326
  8
SCAN
 10
109.8399999999999039
 20
-268.3482999999999947
 30
0.0
  0
VERTEX
  5
5327
  8
SCAN
 10
109.9791499999999047
 20
-268.4874999999998977
 30
0.0
  0
VERTEX
  5
5328
  8
SCAN
 10
108.3090499999998997
 20
-270.2968000000000188
 30
0.0
  0
VERTEX
  5
5329
  8
SCAN
 10
106.9172499999997967
 20
-272.3844500000000153
 30
0.0
  0
VERTEX
  5
532A
  8
SCAN
 10
105.9429999999997989
 20
-274.8896999999998911
 30
0.0
  0
VERTEX
  5
532B
  8
SCAN
 10
106.2213499999999016
 20
-274.8896999999998911
 30
0.0
  0
VERTEX
  5
532C
  8
SCAN
 10
109.0048999999999069
 20
-272.8020000000000209
 30
0.0
  0
VERTEX
  5
532D
  8
SCAN
 10
112.2059999999999036
 20
-271.1318499999999858
 30
0.0
  0
VERTEX
  5
532E
  8
SCAN
 10
112.345199999999906
 20
-271.2710500000000025
 30
0.0
  0
VERTEX
  5
532F
  8
SCAN
 10
111.2317499999999058
 20
-273.2195500000000266
 30
0.0
  0
VERTEX
  5
5330
  8
SCAN
 10
110.5358999999997991
 20
-275.1680499999999938
 30
0.0
  0
VERTEX
  5
5331
  8
SCAN
 10
110.1183499999997935
 20
-276.9773500000000013
 30
0.0
  0
VERTEX
  5
5332
  8
SCAN
 10
110.1183499999997935
 20
-279.4825499999998897
 30
0.0
  0
VERTEX
  5
5333
  8
SCAN
 10
111.6492999999997977
 20
-277.1165499999999042
 30
0.0
  0
VERTEX
  5
5334
  8
SCAN
 10
113.3194499999999039
 20
-275.4463999999999828
 30
0.0
  0
VERTEX
  5
5335
  8
SCAN
 10
115.1287499999997976
 20
-274.4721499999998855
 30
0.0
  0
VERTEX
  5
5336
  8
SCAN
 10
117.077249999999907
 20
-274.3329499999999825
 30
0.0
  0
VERTEX
  5
5337
  8
SCAN
 10
117.3555999999997965
 20
-274.7504999999999882
 30
0.0
  0
VERTEX
  5
5338
  8
SCAN
 10
117.3555999999997965
 20
-279.7608999999999924
 30
0.0
  0
VERTEX
  5
5339
  8
SCAN
 10
118.1906499999999056
 20
-281.9877500000000055
 30
0.0
  0
VERTEX
  5
533A
  8
SCAN
 10
120.4174999999999045
 20
-284.3537999999999784
 30
0.0
  0
VERTEX
  5
533B
  8
SCAN
 10
123.2010999999997978
 20
-286.1630999999999858
 30
0.0
  0
VERTEX
  5
533C
  8
SCAN
 10
124.8711999999999023
 20
-286.7198000000000206
 30
0.0
  0
VERTEX
  5
533D
  8
SCAN
 10
125.7062999999998993
 20
-286.7198000000000206
 30
0.0
  0
VERTEX
  5
533E
  8
SCAN
 10
126.9588999999999004
 20
-285.3280500000000188
 30
0.0
  0
VERTEX
  5
533F
  8
SCAN
 10
128.7681999999996947
 20
-282.4053000000000111
 30
0.0
  0
VERTEX
  5
5340
  8
SCAN
 10
130.2991499999999121
 20
-279.2042000000000144
 30
0.0
  0
VERTEX
  5
5341
  8
SCAN
 10
131.4125999999999124
 20
-277.9515999999999849
 30
0.0
  0
VERTEX
  5
5342
  8
SCAN
 10
132.6651999999999134
 20
-277.3949000000000069
 30
0.0
  0
VERTEX
  5
5343
  8
SCAN
 10
134.0569499999998015
 20
-277.3949000000000069
 30
0.0
  0
VERTEX
  5
5344
  8
SCAN
 10
135.5879499999998075
 20
-278.2299499999999739
 30
0.0
  0
VERTEX
  5
5345
  8
SCAN
 10
135.4487499999999045
 20
-277.5340499999999793
 30
0.0
  0
VERTEX
  5
5346
  8
SCAN
 10
134.4744999999998072
 20
-276.4206500000000233
 30
0.0
  0
VERTEX
  5
5347
  8
SCAN
 10
136.4229999999998029
 20
-275.585550000000012
 30
0.0
  0
VERTEX
  5
5348
  8
SCAN
 10
139.2065499999999076
 20
-272.8020000000000209
 30
0.0
  0
VERTEX
  5
5349
  8
SCAN
 10
139.3457500000000095
 20
-273.2195500000000266
 30
0.0
  0
VERTEX
  5
534A
  8
SCAN
 10
138.9281999999996913
 20
-276.1422999999999774
 30
0.0
  0
VERTEX
  5
534B
  8
SCAN
 10
137.9539499999999066
 20
-280.8743500000001063
 30
0.0
  0
VERTEX
  5
534C
  8
SCAN
 10
136.7013499999999055
 20
-285.049699999999973
 30
0.0
  0
VERTEX
  5
534D
  8
SCAN
 10
135.8662999999999101
 20
-286.8590000000000941
 30
0.0
  0
VERTEX
  5
534E
  8
SCAN
 10
135.3095499999998026
 20
-287.2765499999999861
 30
0.0
  0
VERTEX
  5
534F
  8
SCAN
 10
133.3610999999999081
 20
-287.8332500000000209
 30
0.0
  0
VERTEX
  5
5350
  8
SCAN
 10
130.855899999999906
 20
-288.2507499999999823
 30
0.0
  0
VERTEX
  5
5351
  8
SCAN
 10
129.1857499999998993
 20
-288.2507499999999823
 30
0.0
  0
VERTEX
  5
5352
  8
SCAN
 10
131.9692999999998051
 20
-288.8075000000000045
 30
0.0
  0
SEQEND
  5
5353
  8
SCAN
  0
POLYLINE
  5
30C
  8
SCAN
 66
     1
 10
0.0
 20
0.0
 30
0.0
 70
     1
  0
VERTEX
  5
5354
  8
SCAN
 10
133.0827499999998054
 20
-270.4359999999999786
 30
0.0
  0
VERTEX
  5
5355
  8
SCAN
 10
133.3610999999999081
 20
-271.2710500000000025
 30
0.0
  0
VERTEX
  5
5356
  8
SCAN
 10
132.8043499999999142
 20
-271.5493999999999915
 30
0.0
  0
VERTEX
  5
5357
  8
SCAN
 10
132.5259999999998115
 20
-271.2710500000000025
 30
0.0
  0
VERTEX
  5
5358
  8
SCAN
 10
132.5259999999998115
 20
-270.7143500000000245
 30
0.0
  0
SEQEND
  5
5359
  8
SCAN
  0
POLYLINE
  5
30D
  8
SCAN
 66
     1
 10
0.0
 20
0.0
 30
0.0
 70
     1
  0
VERTEX
  5
535A
  8
SCAN
 10
133.2218999999998061
 20
-267.9307499999999891
 30
0.0
  0
VERTEX
  5
535B
  8
SCAN
 10
133.3610999999999081
 20
-269.0441999999999894
 30
0.0
  0
VERTEX
  5
535C
  8
SCAN
 10
132.108499999999907
 20
-269.8792500000000132
 30
0.0
  0
VERTEX
  5
535D
  8
SCAN
 10
131.6909499999999014
 20
-271.2710500000000025
 30
0.0
  0
VERTEX
  5
535E
  8
SCAN
 10
131.2734000000000094
 20
-270.5751500000000078
 30
0.0
  0
VERTEX
  5
535F
  8
SCAN
 10
131.4125999999999124
 20
-269.183400000000006
 30
0.0
  0
VERTEX
  5
5360
  8
SCAN
 10
132.6651999999999134
 20
-267.9307499999999891
 30
0.0
  0
SEQEND
  5
5361
  8
SCAN
  0
POLYLINE
  5
30E
  8
SCAN
 66
     1
 10
0.0
 20
0.0
 30
0.0
 70
     1
  0
VERTEX
  5
5362
  8
SCAN
 10
136.1446499999998991
 20
-264.4512999999998897
 30
0.0
  0
VERTEX
  5
5363
  8
SCAN
 10
136.283799999999701
 20
-270.7143500000000245
 30
0.0
  0
VERTEX
  5
5364
  8
SCAN
 10
136.0054499999999109
 20
-272.1061000000000263
 30
0.0
  0
VERTEX
  5
5365
  8
SCAN
 10
135.4487499999999045
 20
-273.2195500000000266
 30
0.0
  0
VERTEX
  5
5366
  8
SCAN
 10
134.7528499999999099
 20
-273.9154500000000212
 30
0.0
  0
VERTEX
  5
5367
  8
SCAN
 10
134.0569499999998015
 20
-274.3329499999999825
 30
0.0
  0
VERTEX
  5
5368
  8
SCAN
 10
133.2218999999998061
 20
-274.4721499999998855
 30
0.0
  0
VERTEX
  5
5369
  8
SCAN
 10
133.0827499999998054
 20
-274.3329499999999825
 30
0.0
  0
VERTEX
  5
536A
  8
SCAN
 10
133.7785999999998978
 20
-273.7762500000000045
 30
0.0
  0
VERTEX
  5
536B
  8
SCAN
 10
134.6136999999999091
 20
-272.1061000000000263
 30
0.0
  0
VERTEX
  5
536C
  8
SCAN
 10
134.7528499999999099
 20
-267.3740500000000111
 30
0.0
  0
VERTEX
  5
536D
  8
SCAN
 10
135.3095499999998026
 20
-265.2864000000000146
 30
0.0
  0
SEQEND
  5
536E
  8
SCAN
  0
POLYLINE
  5
30F
  8
SCAN
 66
     1
 10
0.0
 20
0.0
 30
0.0
 70
     1
  0
VERTEX
  5
536F
  8
SCAN
 10
140.1807999999996923
 20
-232.5795500000000118
 30
0.0
  0
VERTEX
  5
5370
  8
SCAN
 10
138.7890499999998895
 20
-232.5795500000000118
 30
0.0
  0
VERTEX
  5
5371
  8
SCAN
 10
108.5873999999999029
 20
-227.151600000000002
 30
0.0
  0
VERTEX
  5
5372
  8
SCAN
 10
105.5254499999999069
 20
-226.1773499999999899
 30
0.0
  0
VERTEX
  5
5373
  8
SCAN
 10
103.5769499999997976
 20
-225.0638999999999896
 30
0.0
  0
VERTEX
  5
5374
  8
SCAN
 10
102.1851999999997958
 20
-223.6721499999999878
 30
0.0
  0
VERTEX
  5
5375
  8
SCAN
 10
101.4892999999999006
 20
-222.4195499999999868
 30
0.0
  0
VERTEX
  5
5376
  8
SCAN
 10
100.9325999999996952
 20
-220.0535000000000139
 30
0.0
  0
VERTEX
  5
5377
  8
SCAN
 10
100.9325999999996952
 20
-217.5483000000000118
 30
0.0
  0
VERTEX
  5
5378
  8
SCAN
 10
101.4892999999999006
 20
-214.903899999999993
 30
0.0
  0
VERTEX
  5
5379
  8
SCAN
 10
101.9068499999999062
 20
-214.7647499999999923
 30
0.0
  0
VERTEX
  5
537A
  8
SCAN
 10
106.4996999999999048
 20
-215.5997999999999877
 30
0.0
  0
VERTEX
  5
537B
  8
SCAN
 10
106.7780499999997943
 20
-218.1049999999999898
 30
0.0
  0
VERTEX
  5
537C
  8
SCAN
 10
107.1955999999998994
 20
-219.0792500000000018
 30
0.0
  0
VERTEX
  5
537D
  8
SCAN
 10
108.5873999999999029
 20
-220.1926999999998884
 30
0.0
  0
VERTEX
  5
537E
  8
SCAN
 10
111.6492999999997977
 20
-221.0277499999999975
 30
0.0
  0
VERTEX
  5
537F
  8
SCAN
 10
134.0569499999998015
 20
-224.9247499999999889
 30
0.0
  0
VERTEX
  5
5380
  8
SCAN
 10
134.1961499999999035
 20
-221.3060999999999865
 30
0.0
  0
VERTEX
  5
5381
  8
SCAN
 10
140.0416499999996915
 20
-222.2803499999999985
 30
0.0
  0
SEQEND
  5
5382
  8
SCAN
  0
POLYLINE
  5
310
  8
SCAN
 66
     1
 10
0.0
 20
0.0
 30
0.0
 70
     1
  0
VERTEX
  5
5383
  8
SCAN
 10
140.1807999999996923
 20
-219.4968000000000075
 30
0.0
  0
VERTEX
  5
5384
  8
SCAN
 10
140.0416499999996915
 20
-219.6359999999999957
 30
0.0
  0
VERTEX
  5
5385
  8
SCAN
 10
111.6492999999997977
 20
-214.625550000000004
 30
0.0
  0
VERTEX
  5
5386
  8
SCAN
 10
107.3347999999999018
 20
-213.651299999999992
 30
0.0
  0
VERTEX
  5
5387
  8
SCAN
 10
105.107949999999903
 20
-212.8162499999999966
 30
0.0
  0
VERTEX
  5
5388
  8
SCAN
 10
103.8553499999999019
 20
-212.120350000000002
 30
0.0
  0
VERTEX
  5
5389
  8
SCAN
 10
102.324349999999697
 20
-210.7286000000000001
 30
0.0
  0
VERTEX
  5
538A
  8
SCAN
 10
101.7676499999999038
 20
-209.8934999999999889
 30
0.0
  0
VERTEX
  5
538B
  8
SCAN
 10
101.2109499999996984
 20
-208.3625499999999988
 30
0.0
  0
VERTEX
  5
538C
  8
SCAN
 10
100.9325999999996952
 20
-206.8316000000000088
 30
0.0
  0
VERTEX
  5
538D
  8
SCAN
 10
100.9325999999996952
 20
-204.3264000000000067
 30
0.0
  0
VERTEX
  5
538E
  8
SCAN
 10
101.4892999999999006
 20
-201.8212000000000899
 30
0.0
  0
VERTEX
  5
538F
  8
SCAN
 10
102.463549999999799
 20
-201.6819999999999879
 30
0.0
  0
VERTEX
  5
5390
  8
SCAN
 10
106.360549999999904
 20
-202.377900000000011
 30
0.0
  0
VERTEX
  5
5391
  8
SCAN
 10
106.6388999999997935
 20
-202.65625
 30
0.0
  0
VERTEX
  5
5392
  8
SCAN
 10
106.7780499999997943
 20
-204.8831000000000131
 30
0.0
  0
VERTEX
  5
5393
  8
SCAN
 10
107.0563999999997975
 20
-205.7181500000000085
 30
0.0
  0
VERTEX
  5
5394
  8
SCAN
 10
107.613149999999905
 20
-206.4140500000000031
 30
0.0
  0
VERTEX
  5
5395
  8
SCAN
 10
108.7265499999999037
 20
-207.1099499999999978
 30
0.0
  0
VERTEX
  5
5396
  8
SCAN
 10
112.0668499999999028
 20
-207.9449999999999932
 30
0.0
  0
VERTEX
  5
5397
  8
SCAN
 10
119.9999999999999005
 20
-209.1975999999999942
 30
0.0
  0
VERTEX
  5
5398
  8
SCAN
 10
133.3610999999999081
 20
-211.7028500000000122
 30
0.0
  0
VERTEX
  5
5399
  8
SCAN
 10
134.0569499999998015
 20
-211.7028500000000122
 30
0.0
  0
VERTEX
  5
539A
  8
SCAN
 10
134.1961499999999035
 20
-208.0842000000000098
 30
0.0
  0
VERTEX
  5
539B
  8
SCAN
 10
140.0416499999996915
 20
-209.1975999999999942
 30
0.0
  0
SEQEND
  5
539C
  8
SCAN
  0
POLYLINE
  5
311
  8
SCAN
 66
     1
 10
0.0
 20
0.0
 30
0.0
 70
     1
  0
VERTEX
  5
539D
  8
SCAN
 10
140.4591499999999087
 20
-247.8891500000000008
 30
0.0
  0
VERTEX
  5
539E
  8
SCAN
 10
139.7632499999999993
 20
-249.4200999999999908
 30
0.0
  0
VERTEX
  5
539F
  8
SCAN
 10
138.9281999999996913
 20
-250.3943500000000029
 30
0.0
  0
VERTEX
  5
53A0
  8
SCAN
 10
137.258049999999912
 20
-251.3685999999999865
 30
0.0
  0
VERTEX
  5
53A1
  8
SCAN
 10
136.1446499999998991
 20
-251.6469499999998902
 30
0.0
  0
VERTEX
  5
53A2
  8
SCAN
 10
133.5002499999999088
 20
-251.7861000000000047
 30
0.0
  0
VERTEX
  5
53A3
  8
SCAN
 10
127.6547999999997955
 20
-250.8118499999999926
 30
0.0
  0
VERTEX
  5
53A4
  8
SCAN
 10
127.5155999999999068
 20
-244.5488499999999874
 30
0.0
  0
VERTEX
  5
53A5
  8
SCAN
 10
128.211499999999802
 20
-244.4096999999999866
 30
0.0
  0
VERTEX
  5
53A6
  8
SCAN
 10
132.2476499999999078
 20
-245.2447499999998968
 30
0.0
  0
VERTEX
  5
53A7
  8
SCAN
 10
134.7528499999999099
 20
-245.5230999999999995
 30
0.0
  0
VERTEX
  5
53A8
  8
SCAN
 10
135.0311999999998136
 20
-244.966399999999993
 30
0.0
  0
VERTEX
  5
53A9
  8
SCAN
 10
135.0311999999998136
 20
-243.2962499999999864
 30
0.0
  0
VERTEX
  5
53AA
  8
SCAN
 10
134.6136999999999091
 20
-242.6003499999999917
 30
0.0
  0
VERTEX
  5
53AB
  8
SCAN
 10
133.9177999999998008
 20
-242.182850000000002
 30
0.0
  0
VERTEX
  5
53AC
  8
SCAN
 10
131.8300999999999021
 20
-241.6260999999998944
 30
0.0
  0
VERTEX
  5
53AD
  8
SCAN
 10
109.8399999999999039
 20
-237.868300000000005
 30
0.0
  0
VERTEX
  5
53AE
  8
SCAN
 10
108.0306499999997953
 20
-238.0074999999999932
 30
0.0
  0
VERTEX
  5
53AF
  8
SCAN
 10
107.613149999999905
 20
-238.2858500000000959
 30
0.0
  0
VERTEX
  5
53B0
  8
SCAN
 10
107.3347999999999018
 20
-238.8425499999999886
 30
0.0
  0
VERTEX
  5
53B1
  8
SCAN
 10
107.0563999999997975
 20
-240.2343500000000063
 30
0.0
  0
VERTEX
  5
53B2
  8
SCAN
 10
107.0563999999997975
 20
-247.0540499999999895
 30
0.0
  0
VERTEX
  5
53B3
  8
SCAN
 10
106.2213499999999016
 20
-247.1932500000000061
 30
0.0
  0
VERTEX
  5
53B4
  8
SCAN
 10
101.4892999999999006
 20
-246.3581499999999949
 30
0.0
  0
VERTEX
  5
53B5
  8
SCAN
 10
101.2109499999996984
 20
-246.0798000000000059
 30
0.0
  0
VERTEX
  5
53B6
  8
SCAN
 10
100.9325999999996952
 20
-243.2962499999999864
 30
0.0
  0
VERTEX
  5
53B7
  8
SCAN
 10
100.9325999999996952
 20
-238.2858500000000959
 30
0.0
  0
VERTEX
  5
53B8
  8
SCAN
 10
101.4892999999999006
 20
-235.223899999999901
 30
0.0
  0
VERTEX
  5
53B9
  8
SCAN
 10
102.324349999999697
 20
-233.4146000000000072
 30
0.0
  0
VERTEX
  5
53BA
  8
SCAN
 10
103.4377999999997968
 20
-232.1620000000000061
 30
0.0
  0
VERTEX
  5
53BB
  8
SCAN
 10
104.5511999999997954
 20
-231.4661000000000115
 30
0.0
  0
VERTEX
  5
53BC
  8
SCAN
 10
106.6388999999997935
 20
-230.9094000000000051
 30
0.0
  0
VERTEX
  5
53BD
  8
SCAN
 10
110.9533999999999025
 20
-231.0485999999999933
 30
0.0
  0
VERTEX
  5
53BE
  8
SCAN
 10
130.1599999999999113
 20
-234.3888499999999908
 30
0.0
  0
VERTEX
  5
53BF
  8
SCAN
 10
133.9177999999998008
 20
-235.223899999999901
 30
0.0
  0
VERTEX
  5
53C0
  8
SCAN
 10
136.5621999999999048
 20
-236.198149999999913
 30
0.0
  0
VERTEX
  5
53C1
  8
SCAN
 10
138.0931499999996959
 20
-237.1724000000000103
 30
0.0
  0
VERTEX
  5
53C2
  8
SCAN
 10
139.0673999999999069
 20
-238.146649999999994
 30
0.0
  0
VERTEX
  5
53C3
  8
SCAN
 10
139.9024499999999023
 20
-239.399249999999995
 30
0.0
  0
VERTEX
  5
53C4
  8
SCAN
 10
140.5983499999998116
 20
-241.4869500000000073
 30
0.0
  0
VERTEX
  5
53C5
  8
SCAN
 10
140.8766999999998859
 20
-243.8529499999999928
 30
0.0
  0
VERTEX
  5
53C6
  8
SCAN
 10
140.7374999999998124
 20
-246.7757000000000005
 30
0.0
  0
SEQEND
  5
53C7
  8
SCAN
  0
POLYLINE
  5
312
  8
SCAN
 66
     1
 10
0.0
 20
0.0
 30
0.0
 70
     1
  0
VERTEX
  5
53C8
  8
SCAN
 10
144.2169499999999118
 20
-259.8584500000001185
 30
0.0
  0
VERTEX
  5
53C9
  8
SCAN
 10
143.7994499999998084
 20
-259.9975999999999772
 30
0.0
  0
VERTEX
  5
53CA
  8
SCAN
 10
141.7117499999999097
 20
-259.4409000000001129
 30
0.0
  0
VERTEX
  5
53CB
  8
SCAN
 10
139.6240999999999133
 20
-259.4409000000001129
 30
0.0
  0
VERTEX
  5
53CC
  8
SCAN
 10
138.3714999999999122
 20
-258.0491499999999974
 30
0.0
  0
VERTEX
  5
53CD
  8
SCAN
 10
141.0158999999999025
 20
-257.9099499999999807
 30
0.0
  0
VERTEX
  5
53CE
  8
SCAN
 10
140.4591499999999087
 20
-257.3532500000000027
 30
0.0
  0
VERTEX
  5
53CF
  8
SCAN
 10
138.510649999999913
 20
-256.2397999999998888
 30
0.0
  0
VERTEX
  5
53D0
  8
SCAN
 10
136.9796999999998093
 20
-255.8223000000000127
 30
0.0
  0
VERTEX
  5
53D1
  8
SCAN
 10
136.0054499999999109
 20
-255.8223000000000127
 30
0.0
  0
VERTEX
  5
53D2
  8
SCAN
 10
134.4744999999998072
 20
-254.430499999999995
 30
0.0
  0
VERTEX
  5
53D3
  8
SCAN
 10
136.9796999999998093
 20
-254.2913000000000068
 30
0.0
  0
VERTEX
  5
53D4
  8
SCAN
 10
138.7890499999998895
 20
-254.7088500000000124
 30
0.0
  0
VERTEX
  5
53D5
  8
SCAN
 10
140.3199999999999079
 20
-255.404750000000007
 30
0.0
  0
VERTEX
  5
53D6
  8
SCAN
 10
142.2684999999999036
 20
-256.9356999999999971
 30
0.0
  0
VERTEX
  5
53D7
  8
SCAN
 10
143.3818999999998027
 20
-258.3274999999999864
 30
0.0
  0
SEQEND
  5
53D8
  8
SCAN
  0
LINE
  5
314
  8
SCAN
 10
480.0
 20
-149.2249999999999943
 30
0.0
 11
440.0
 21
-149.2249999999999943
 31
0.0
  0
LINE
  5
98A
  8
CONSTRUCTION_LINES
 10
159.999999999999801
 20
-149.2249999999999943
 30
0.0
 11
180.0
 21
-149.2249999999999943
 31
0.0
  0
LINE
  5
98B
  8
CONSTRUCTION_LINES
 10
320.0
 20
-149.2249999999999091
 30
0.0
 11
340.0
 21
-149.2249999999999091
 31
0.0
  0
LINE
  5
99D
  8
SCAN
 10
340.0
 20
-149.2249999999999091
 30
0.0
 11
280.0
 21
-149.2249999999999091
 31
0.0
  0
LINE
  5
99F
  8
SCAN
 10
180.0
 20
-149.2249999999999091
 30
0.0
 11
119.9999999999999005
 21
-149.2249999999999091
 31
0.0
  0
LINE
  5
9A0
  8
SCAN
 10
19.9999999999999716
 20
-149.2249999999997954
 30
0.0
 11
-0.0000000000000274
 21
-149.2249999999997954
 31
0.0
  0
POLYLINE
  5
3640
  8
CUT_1
 66
     1
 10
0.0
 20
0.0
 30
0.0
 70
     1
  0
VERTEX
  5
53D9
  8
CUT_1
 10
19.9999999999999716
 20
-144.9375
 30
0.0
  0
VERTEX
  5
53DA
  8
CUT_1
 10
19.9999999999999716
 20
-153.5124999999999034
 30
0.0
  0
VERTEX
  5
53DB
  8
CUT_1
 10
119.9999999999999005
 20
-153.5124999999999034
 30
0.0
  0
VERTEX
  5
53DC
  8
CUT_1
 10
119.9999999999999005
 20
-144.9375
 30
0.0
  0
SEQEND
  5
53DD
  8
CUT_1
  0
POLYLINE
  5
3648
  8
CUT_1
 66
     1
 10
0.0
 20
0.0
 30
0.0
 70
     1
  0
VERTEX
  5
53DE
  8
CUT_1
 10
180.0
 20
-144.9375
 30
0.0
  0
VERTEX
  5
53DF
  8
CUT_1
 10
180.0
 20
-153.5124999999999034
 30
0.0
  0
VERTEX
  5
53E0
  8
CUT_1
 10
280.0
 20
-153.5124999999999034
 30
0.0
  0
VERTEX
  5
53E1
  8
CUT_1
 10
280.0
 20
-144.9375
 30
0.0
  0
SEQEND
  5
53E2
  8
CUT_1
  0
POLYLINE
  5
3650
  8
CUT_1
 66
     1
 10
0.0
 20
0.0
 30
0.0
 70
     1
  0
VERTEX
  5
53E3
  8
CUT_1
 10
340.0
 20
-144.9375
 30
0.0
  0
VERTEX
  5
53E4
  8
CUT_1
 10
340.0
 20
-153.5124999999999034
 30
0.0
  0
VERTEX
  5
53E5
  8
CUT_1
 10
440.0
 20
-153.5124999999999034
 30
0.0
  0
VERTEX
  5
53E6
  8
CUT_1
 10
440.0
 20
-144.9375000000001137
 30
0.0
  0
SEQEND
  5
53E7
  8
CUT_1
  0
LINE
  5
3D33
  8
CONSTRUCTION_LINES
 10
15.0
 20
-15.0
 30
0.0
 11
14.9999999999999805
 21
-105.0
 31
0.0
  0
LINE
  5
3D34
  8
CONSTRUCTION_LINES
 10
175.0
 20
-15.0000000000000604
 30
0.0
 11
175.0
 21
-105.0
 31
0.0
  0
LINE
  5
3D35
  8
CONSTRUCTION_LINES
 10
335.0
 20
-15.0000000000000604
 30
0.0
 11
335.0
 21
-105.0
 31
0.0
  0
POLYLINE
  5
3D3B
  8
SCAN
 66
     1
 10
0.0
 20
0.0
 30
0.0
 70
     1
  0
VERTEX
  5
53E8
  8
SCAN
 10
342.8667489204195249
 20
-108.3386798272672991
 30
0.0
  0
VERTEX
  5
53E9
  8
SCAN
 10
344.1622455274520007
 20
-107.859962985810995
 30
0.0
  0
VERTEX
  5
53EA
  8
SCAN
 10
344.3044031462060275
 20
-107.8050971622456018
 30
0.0
  0
VERTEX
  5
53EB
  8
SCAN
 10
344.5533235657002251
 20
-107.6881940160394038
 30
0.0
  0
VERTEX
  5
53EC
  8
SCAN
 10
344.7090434145588915
 20
-107.5942415946944948
 30
0.0
  0
VERTEX
  5
53ED
  8
SCAN
 10
344.7981088062924755
 20
-107.5286185225167941
 30
0.0
  0
VERTEX
  5
53EE
  8
SCAN
 10
344.8753759253550015
 20
-107.4606049506478058
 30
0.0
  0
VERTEX
  5
53EF
  8
SCAN
 10
344.940844771745617
 20
-107.3902008790869047
 30
0.0
  0
VERTEX
  5
53F0
  8
SCAN
 10
344.969154842689818
 20
-107.3541024059223048
 30
0.0
  0
VERTEX
  5
53F1
  8
SCAN
 10
344.9954503392968945
 20
-107.3163074491051958
 30
0.0
  0
VERTEX
  5
53F2
  8
SCAN
 10
345.0429518815544725
 20
-107.2304807988897011
 30
0.0
  0
VERTEX
  5
53F3
  8
SCAN
 10
345.0836674892042879
 20
-107.1310051665636962
 30
0.0
  0
VERTEX
  5
53F4
  8
SCAN
 10
345.1175971622457155
 20
-107.0178805521282044
 30
0.0
  0
VERTEX
  5
53F5
  8
SCAN
 10
345.1447409006786984
 20
-106.8911069555828988
 30
0.0
  0
VERTEX
  5
53F6
  8
SCAN
 10
345.1650987045035777
 20
-106.7506843769277936
 30
0.0
  0
VERTEX
  5
53F7
  8
SCAN
 10
345.1829117828502262
 20
-106.514458667489194
 30
0.0
  0
VERTEX
  5
53F8
  8
SCAN
 10
345.1863047501543065
 20
-106.3399136335595045
 30
0.0
  0
VERTEX
  5
53F9
  8
SCAN
 10
345.1863047501543065
 20
-105.4762492288711968
 30
0.0
  0
VERTEX
  5
53FA
  8
SCAN
 10
347.0
 20
-105.4762492288711968
 30
0.0
  0
VERTEX
  5
53FB
  8
SCAN
 10
347.0
 20
-107.0727945712524019
 30
0.0
  0
VERTEX
  5
53FC
  8
SCAN
 10
346.9976769740902114
 20
-107.245787708204702
 30
0.0
  0
VERTEX
  5
53FD
  8
SCAN
 10
346.979092766810993
 20
-107.5766791332512042
 30
0.0
  0
VERTEX
  5
53FE
  8
SCAN
 10
346.9419243522515899
 20
-107.8874440931521974
 30
0.0
  0
VERTEX
  5
53FF
  8
SCAN
 10
346.8861717304135937
 20
-108.1780825879086052
 30
0.0
  0
VERTEX
  5
5400
  8
SCAN
 10
346.8118349012951853
 20
-108.4485946175200013
 30
0.0
  0
VERTEX
  5
5401
  8
SCAN
 10
346.718913864898127
 20
-108.6989801819863004
 30
0.0
  0
VERTEX
  5
5402
  8
SCAN
 10
346.6074086212212251
 20
-108.9292392813077015
 30
0.0
  0
VERTEX
  5
5403
  8
SCAN
 10
346.4773191702652184
 20
-109.1393719154844035
 30
0.0
  0
VERTEX
  5
5404
  8
SCAN
 10
346.4053053670573945
 20
-109.2368908081430021
 30
0.0
  0
VERTEX
  5
5405
  8
SCAN
 10
346.3278165484272222
 20
-109.3309685379393983
 30
0.0
  0
VERTEX
  5
5406
  8
SCAN
 10
346.1539269740902114
 20
-109.5135718692163067
 30
0.0
  0
VERTEX
  5
5407
  8
SCAN
 10
345.9548214836523243
 20
-109.6887723627392006
 30
0.0
  0
VERTEX
  5
5408
  8
SCAN
 10
345.7305000771128789
 20
-109.8565700185071989
 30
0.0
  0
VERTEX
  5
5409
  8
SCAN
 10
345.4809627544728983
 20
-110.0169648365204011
 30
0.0
  0
VERTEX
  5
540A
  8
SCAN
 10
345.2062095157311887
 20
-110.1699568167796031
 30
0.0
  0
VERTEX
  5
540B
  8
SCAN
 10
344.906240360888205
 20
-110.3155459592844068
 30
0.0
  0
VERTEX
  5
540C
  8
SCAN
 10
344.5810552899446861
 20
-110.4537322640345991
 30
0.0
  0
VERTEX
  5
540D
  8
SCAN
 10
344.4090067859343094
 20
-110.5200493522516041
 30
0.0
  0
VERTEX
  5
540E
  8
SCAN
 10
335.0
 20
-114.0512029611350044
 30
0.0
  0
VERTEX
  5
540F
  8
SCAN
 10
335.0
 20
-111.2924120913016992
 30
0.0
  0
VERTEX
  5
5410
  8
SCAN
 10
339.535471930906624
 20
-109.5724861196792972
 30
0.0
  0
VERTEX
  5
5411
  8
SCAN
 10
335.0
 20
-107.7587908698333052
 30
0.0
  0
VERTEX
  5
5412
  8
SCAN
 10
335.0
 20
-105.0
 30
0.0
  0
SEQEND
  5
5413
  8
SCAN
  0
POLYLINE
  5
3D41
  8
SCAN
 66
     1
 10
0.0
 20
0.0
 30
0.0
 70
     1
  0
VERTEX
  5
5414
  8
SCAN
 10
182.8667489204192123
 20
-108.3386798272671996
 30
0.0
  0
VERTEX
  5
5415
  8
SCAN
 10
184.1622455274518018
 20
-107.859962985810995
 30
0.0
  0
VERTEX
  5
5416
  8
SCAN
 10
184.3044031462058001
 20
-107.8050971622456018
 30
0.0
  0
VERTEX
  5
5417
  8
SCAN
 10
184.5533235657003104
 20
-107.6881940160394038
 30
0.0
  0
VERTEX
  5
5418
  8
SCAN
 10
184.7090434145588063
 20
-107.5942415946944948
 30
0.0
  0
VERTEX
  5
5419
  8
SCAN
 10
184.7981088062923902
 20
-107.5286185225167941
 30
0.0
  0
VERTEX
  5
541A
  8
SCAN
 10
184.8753759253548878
 20
-107.4606049506478058
 30
0.0
  0
VERTEX
  5
541B
  8
SCAN
 10
184.9408447717455886
 20
-107.3902008790869047
 30
0.0
  0
VERTEX
  5
541C
  8
SCAN
 10
184.9691548426899033
 20
-107.3541024059223048
 30
0.0
  0
VERTEX
  5
541D
  8
SCAN
 10
184.9954503392968093
 20
-107.3163074491051958
 30
0.0
  0
VERTEX
  5
541E
  8
SCAN
 10
185.0429518815543872
 20
-107.2304807988898006
 30
0.0
  0
VERTEX
  5
541F
  8
SCAN
 10
185.083667489204089
 20
-107.1310051665636962
 30
0.0
  0
VERTEX
  5
5420
  8
SCAN
 10
185.1175971622456018
 20
-107.0178805521282044
 30
0.0
  0
VERTEX
  5
5421
  8
SCAN
 10
185.1447409006786131
 20
-106.8911069555828988
 30
0.0
  0
VERTEX
  5
5422
  8
SCAN
 10
185.1650987045034924
 20
-106.7506843769277936
 30
0.0
  0
VERTEX
  5
5423
  8
SCAN
 10
185.1829117828501126
 20
-106.514458667489194
 30
0.0
  0
VERTEX
  5
5424
  8
SCAN
 10
185.1863047501541075
 20
-106.3399136335595045
 30
0.0
  0
VERTEX
  5
5425
  8
SCAN
 10
185.1863047501541075
 20
-105.4762492288711968
 30
0.0
  0
VERTEX
  5
5426
  8
SCAN
 10
186.999999999999801
 20
-105.4762492288711968
 30
0.0
  0
VERTEX
  5
5427
  8
SCAN
 10
186.999999999999801
 20
-107.0727945712524019
 30
0.0
  0
VERTEX
  5
5428
  8
SCAN
 10
186.9976769740898987
 20
-107.245787708204702
 30
0.0
  0
VERTEX
  5
5429
  8
SCAN
 10
186.979092766810794
 20
-107.5766791332512042
 30
0.0
  0
VERTEX
  5
542A
  8
SCAN
 10
186.9419243522515046
 20
-107.8874440931521974
 30
0.0
  0
VERTEX
  5
542B
  8
SCAN
 10
186.8861717304135084
 20
-108.1780825879086052
 30
0.0
  0
VERTEX
  5
542C
  8
SCAN
 10
186.8118349012951001
 20
-108.4485946175200013
 30
0.0
  0
VERTEX
  5
542D
  8
SCAN
 10
186.7189138648982123
 20
-108.6989801819863004
 30
0.0
  0
VERTEX
  5
542E
  8
SCAN
 10
186.6074086212211114
 20
-108.9292392813077015
 30
0.0
  0
VERTEX
  5
542F
  8
SCAN
 10
186.4773191702651047
 20
-109.1393719154844035
 30
0.0
  0
VERTEX
  5
5430
  8
SCAN
 10
186.4053053670571956
 20
-109.2368908081430021
 30
0.0
  0
VERTEX
  5
5431
  8
SCAN
 10
186.3278165484271085
 20
-109.3309685379394978
 30
0.0
  0
VERTEX
  5
5432
  8
SCAN
 10
186.1539269740900977
 20
-109.5135718692163067
 30
0.0
  0
VERTEX
  5
5433
  8
SCAN
 10
185.9548214836522106
 20
-109.6887723627392006
 30
0.0
  0
VERTEX
  5
5434
  8
SCAN
 10
185.7305000771129073
 20
-109.8565700185071989
 30
0.0
  0
VERTEX
  5
5435
  8
SCAN
 10
185.480962754472813
 20
-110.0169648365204011
 30
0.0
  0
VERTEX
  5
5436
  8
SCAN
 10
185.2062095157311035
 20
-110.1699568167796031
 30
0.0
  0
VERTEX
  5
5437
  8
SCAN
 10
184.9062403608880913
 20
-110.3155459592844068
 30
0.0
  0
VERTEX
  5
5438
  8
SCAN
 10
184.5810552899446009
 20
-110.4537322640345991
 30
0.0
  0
VERTEX
  5
5439
  8
SCAN
 10
184.4090067859339968
 20
-110.5200493522516041
 30
0.0
  0
VERTEX
  5
543A
  8
SCAN
 10
175.0
 20
-114.0512029611350044
 30
0.0
  0
VERTEX
  5
543B
  8
SCAN
 10
175.0
 20
-111.2924120913016992
 30
0.0
  0
VERTEX
  5
543C
  8
SCAN
 10
179.5354719309065956
 20
-109.5724861196792972
 30
0.0
  0
VERTEX
  5
543D
  8
SCAN
 10
175.0
 20
-107.7587908698333052
 30
0.0
  0
VERTEX
  5
543E
  8
SCAN
 10
175.0
 20
-105.0
 30
0.0
  0
SEQEND
  5
543F
  8
SCAN
  0
POLYLINE
  5
3D47
  8
SCAN
 66
     1
 10
0.0
 20
0.0
 30
0.0
 70
     1
  0
VERTEX
  5
5440
  8
SCAN
 10
22.8667489204194503
 20
-108.3386798272671996
 30
0.0
  0
VERTEX
  5
5441
  8
SCAN
 10
24.1622455274518693
 20
-107.859962985810995
 30
0.0
  0
VERTEX
  5
5442
  8
SCAN
 10
24.3044031462058996
 20
-107.8050971622456018
 30
0.0
  0
VERTEX
  5
5443
  8
SCAN
 10
24.553323565700321
 20
-107.6881940160394038
 30
0.0
  0
VERTEX
  5
5444
  8
SCAN
 10
24.7090434145588702
 20
-107.5942415946944948
 30
0.0
  0
VERTEX
  5
5445
  8
SCAN
 10
24.7981088062924613
 20
-107.5286185225167941
 30
0.0
  0
VERTEX
  5
5446
  8
SCAN
 10
24.8753759253549802
 20
-107.4606049506478058
 30
0.0
  0
VERTEX
  5
5447
  8
SCAN
 10
24.9408447717455388
 20
-107.3902008790869047
 30
0.0
  0
VERTEX
  5
5448
  8
SCAN
 10
24.969154842689921
 20
-107.3541024059223048
 30
0.0
  0
VERTEX
  5
5449
  8
SCAN
 10
24.9954503392968803
 20
-107.3163074491051958
 30
0.0
  0
VERTEX
  5
544A
  8
SCAN
 10
25.0429518815544583
 20
-107.2304807988897011
 30
0.0
  0
VERTEX
  5
544B
  8
SCAN
 10
25.0836674892043305
 20
-107.1310051665636962
 30
0.0
  0
VERTEX
  5
544C
  8
SCAN
 10
25.1175971622455805
 20
-107.0178805521282044
 30
0.0
  0
VERTEX
  5
544D
  8
SCAN
 10
25.1447409006786806
 20
-106.8911069555828988
 30
0.0
  0
VERTEX
  5
544E
  8
SCAN
 10
25.1650987045036096
 20
-106.7506843769277936
 30
0.0
  0
VERTEX
  5
544F
  8
SCAN
 10
25.1829117828501516
 20
-106.514458667489194
 30
0.0
  0
VERTEX
  5
5450
  8
SCAN
 10
25.1863047501542283
 20
-106.3399136335595045
 30
0.0
  0
VERTEX
  5
5451
  8
SCAN
 10
25.1863047501542283
 20
-105.4762492288711968
 30
0.0
  0
VERTEX
  5
5452
  8
SCAN
 10
26.9999999999999716
 20
-105.4762492288711968
 30
0.0
  0
VERTEX
  5
5453
  8
SCAN
 10
26.9999999999999716
 20
-107.0727945712524019
 30
0.0
  0
VERTEX
  5
5454
  8
SCAN
 10
26.9976769740901297
 20
-107.245787708204702
 30
0.0
  0
VERTEX
  5
5455
  8
SCAN
 10
26.9790927668109113
 20
-107.5766791332512042
 30
0.0
  0
VERTEX
  5
5456
  8
SCAN
 10
26.9419243522515615
 20
-107.8874440931521974
 30
0.0
  0
VERTEX
  5
5457
  8
SCAN
 10
26.8861717304134515
 20
-108.1780825879086052
 30
0.0
  0
VERTEX
  5
5458
  8
SCAN
 10
26.8118349012952208
 20
-108.4485946175200013
 30
0.0
  0
VERTEX
  5
5459
  8
SCAN
 10
26.7189138648982194
 20
-108.6989801819863004
 30
0.0
  0
VERTEX
  5
545A
  8
SCAN
 10
26.6074086212211114
 20
-108.9292392813077015
 30
0.0
  0
VERTEX
  5
545B
  8
SCAN
 10
26.47731917026519
 20
-109.1393719154844035
 30
0.0
  0
VERTEX
  5
545C
  8
SCAN
 10
26.4053053670572702
 20
-109.2368908081430021
 30
0.0
  0
VERTEX
  5
545D
  8
SCAN
 10
26.3278165484270907
 20
-109.3309685379393983
 30
0.0
  0
VERTEX
  5
545E
  8
SCAN
 10
26.1539269740901403
 20
-109.5135718692163067
 30
0.0
  0
VERTEX
  5
545F
  8
SCAN
 10
25.9548214836522497
 20
-109.6887723627392006
 30
0.0
  0
VERTEX
  5
5460
  8
SCAN
 10
25.7305000771129713
 20
-109.8565700185071989
 30
0.0
  0
VERTEX
  5
5461
  8
SCAN
 10
25.4809627544727704
 20
-110.0169648365204011
 30
0.0
  0
VERTEX
  5
5462
  8
SCAN
 10
25.206209515731171
 20
-110.1699568167796031
 30
0.0
  0
VERTEX
  5
5463
  8
SCAN
 10
24.9062403608881908
 20
-110.3155459592844068
 30
0.0
  0
VERTEX
  5
5464
  8
SCAN
 10
24.5810552899447288
 20
-110.4537322640345991
 30
0.0
  0
VERTEX
  5
5465
  8
SCAN
 10
24.4090067859342383
 20
-110.5200493522516041
 30
0.0
  0
VERTEX
  5
5466
  8
SCAN
 10
14.9999999999999805
 20
-114.0512029611350044
 30
0.0
  0
VERTEX
  5
5467
  8
SCAN
 10
14.9999999999999805
 20
-111.2924120913016992
 30
0.0
  0
VERTEX
  5
5468
  8
SCAN
 10
19.5354719309065992
 20
-109.5724861196792972
 30
0.0
  0
VERTEX
  5
5469
  8
SCAN
 10
14.9999999999999805
 20
-107.7587908698333052
 30
0.0
  0
VERTEX
  5
546A
  8
SCAN
 10
14.9999999999999805
 20
-105.0
 30
0.0
  0
SEQEND
  5
546B
  8
SCAN
  0
POLYLINE
  5
4CBD
  8
CONSTRUCTION_LINES
 62
     3
 66
     1
 10
0.0
 20
0.0
 30
0.0
  0
VERTEX
  5
4CBE
  8
CONSTRUCTION_LINES
 62
     3
 10
338.8013368649525887
 20
-22.4935067322649083
 30
0.0
  0
VERTEX
  5
4CBF
  8
CONSTRUCTION_LINES
 62
     3
 10
338.8013368649525887
 20
-15.0007902025004807
 30
0.0
  0
VERTEX
  5
4CC0
  8
CONSTRUCTION_LINES
 62
     3
 10
346.2940533947170252
 20
-20.6096237190669989
 30
0.0
  0
VERTEX
  5
4CC1
  8
CONSTRUCTION_LINES
 62
     3
 10
335.0763863615840137
 20
-20.6096237190669989
 30
0.0
  0
SEQEND
  5
4CC2
  8
CONSTRUCTION_LINES
 62
     3
  0
POLYLINE
  5
4CC3
  8
CONSTRUCTION_LINES
 62
     3
 66
     1
 10
0.0
 20
0.0
 30
0.0
 70
     1
  0
VERTEX
  5
4CC4
  8
CONSTRUCTION_LINES
 62
     3
 10
335.0763863615840137
 20
-28.1023402488314282
 30
0.0
  0
VERTEX
  5
4CC5
  8
CONSTRUCTION_LINES
 62
     3
 10
336.9174538517547717
 20
-26.2612727586607413
 30
0.0
  0
VERTEX
  5
4CC6
  8
CONSTRUCTION_LINES
 62
     3
 10
344.4101703815192081
 20
-26.2612727586607413
 30
0.0
  0
VERTEX
  5
4CC7
  8
CONSTRUCTION_LINES
 62
     3
 10
346.2940533947170252
 20
-28.1023402488314282
 30
0.0
  0
VERTEX
  5
4CC8
  8
CONSTRUCTION_LINES
 62
     3
 10
346.2940533947170252
 20
-29.9862232620293412
 30
0.0
  0
VERTEX
  5
4CC9
  8
CONSTRUCTION_LINES
 62
     3
 10
344.4101703815192081
 20
-31.8701062752272612
 30
0.0
  0
VERTEX
  5
4CCA
  8
CONSTRUCTION_LINES
 62
     3
 10
336.9174538517547717
 20
-31.8701062752272612
 30
0.0
  0
VERTEX
  5
4CCB
  8
CONSTRUCTION_LINES
 62
     3
 10
335.0763863615840137
 20
-29.9862232620293412
 30
0.0
  0
VERTEX
  5
4CCC
  8
CONSTRUCTION_LINES
 62
     3
 10
335.0763863615840137
 20
-28.1023402488314282
 30
0.0
  0
SEQEND
  5
4CCD
  8
CONSTRUCTION_LINES
 62
     3
  0
POLYLINE
  5
4CCE
  8
CONSTRUCTION_LINES
 62
     3
 66
     1
 10
0.0
 20
0.0
 30
0.0
  0
VERTEX
  5
4CCF
  8
CONSTRUCTION_LINES
 62
     3
 10
335.0763863615840137
 20
-46.8555393347561022
 30
0.0
  0
VERTEX
  5
4CD0
  8
CONSTRUCTION_LINES
 62
     3
 10
346.2940533947170252
 20
-46.8555393347561022
 30
0.0
  0
SEQEND
  5
4CD1
  8
CONSTRUCTION_LINES
 62
     3
  0
POLYLINE
  5
4CD2
  8
CONSTRUCTION_LINES
 62
     3
 66
     1
 10
0.0
 20
0.0
 30
0.0
  0
VERTEX
  5
4CD3
  8
CONSTRUCTION_LINES
 62
     3
 10
346.2940533947170252
 20
-54.3482558645205103
 30
0.0
  0
VERTEX
  5
4CD4
  8
CONSTRUCTION_LINES
 62
     3
 10
340.6852198781505194
 20
-48.7394223479539974
 30
0.0
  0
VERTEX
  5
4CD5
  8
CONSTRUCTION_LINES
 62
     3
 10
340.6852198781505194
 20
-46.8555393347561022
 30
0.0
  0
SEQEND
  5
4CD6
  8
CONSTRUCTION_LINES
 62
     3
  0
POLYLINE
  5
4CD7
  8
CONSTRUCTION_LINES
 62
     3
 66
     1
 10
0.0
 20
0.0
 30
0.0
  0
VERTEX
  5
4CD8
  8
CONSTRUCTION_LINES
 62
     3
 10
340.6852198781505194
 20
-48.7394223479539974
 30
0.0
  0
VERTEX
  5
4CD9
  8
CONSTRUCTION_LINES
 62
     3
 10
335.0763863615840137
 20
-54.3482558645205103
 30
0.0
  0
SEQEND
  5
4CDA
  8
CONSTRUCTION_LINES
 62
     3
  0
POLYLINE
  5
4CDB
  8
CONSTRUCTION_LINES
 62
     3
 66
     1
 10
0.0
 20
0.0
 30
0.0
  0
VERTEX
  5
4CDC
  8
CONSTRUCTION_LINES
 62
     3
 10
335.0763863615840137
 20
-58.1160218909163433
 30
0.0
  0
VERTEX
  5
4CDD
  8
CONSTRUCTION_LINES
 62
     3
 10
346.2940533947170252
 20
-58.1160218909163433
 30
0.0
  0
SEQEND
  5
4CDE
  8
CONSTRUCTION_LINES
 62
     3
  0
POLYLINE
  5
4CDF
  8
CONSTRUCTION_LINES
 62
     3
 66
     1
 10
0.0
 20
0.0
 30
0.0
  0
VERTEX
  5
4CE0
  8
CONSTRUCTION_LINES
 62
     3
 10
340.6852198781505194
 20
-58.1160218909163433
 30
0.0
  0
VERTEX
  5
4CE1
  8
CONSTRUCTION_LINES
 62
     3
 10
340.6852198781505194
 20
-65.6087384206807798
 30
0.0
  0
SEQEND
  5
4CE2
  8
CONSTRUCTION_LINES
 62
     3
  0
POLYLINE
  5
4CE3
  8
CONSTRUCTION_LINES
 62
     3
 66
     1
 10
0.0
 20
0.0
 30
0.0
  0
VERTEX
  5
4CE4
  8
CONSTRUCTION_LINES
 62
     3
 10
346.2940533947170252
 20
-65.6087384206807798
 30
0.0
  0
VERTEX
  5
4CE5
  8
CONSTRUCTION_LINES
 62
     3
 10
335.0763863615840137
 20
-65.6087384206807798
 30
0.0
  0
SEQEND
  5
4CE6
  8
CONSTRUCTION_LINES
 62
     3
  0
POLYLINE
  5
4CE7
  8
CONSTRUCTION_LINES
 62
     3
 66
     1
 10
0.0
 20
0.0
 30
0.0
  0
VERTEX
  5
4CE8
  8
CONSTRUCTION_LINES
 62
     3
 10
342.569102891348507
 20
-69.3765044470765844
 30
0.0
  0
VERTEX
  5
4CE9
  8
CONSTRUCTION_LINES
 62
     3
 10
342.569102891348507
 20
-76.8692209768410208
 30
0.0
  0
VERTEX
  5
4CEA
  8
CONSTRUCTION_LINES
 62
     3
 10
335.0763863615840137
 20
-69.3765044470765844
 30
0.0
  0
VERTEX
  5
4CEB
  8
CONSTRUCTION_LINES
 62
     3
 10
335.0763863615840137
 20
-76.8692209768410208
 30
0.0
  0
SEQEND
  5
4CEC
  8
CONSTRUCTION_LINES
 62
     3
  0
POLYLINE
  5
4CED
  8
CONSTRUCTION_LINES
 62
     3
 66
     1
 10
0.0
 20
0.0
 30
0.0
  0
VERTEX
  5
4CEE
  8
CONSTRUCTION_LINES
 62
     3
 10
344.4101703815192081
 20
-91.8546540363698654
 30
0.0
  0
VERTEX
  5
4CEF
  8
CONSTRUCTION_LINES
 62
     3
 10
346.2940533947170252
 20
-93.7385370495677677
 30
0.0
  0
VERTEX
  5
4CF0
  8
CONSTRUCTION_LINES
 62
     3
 10
335.0763863615840137
 20
-93.7385370495677677
 30
0.0
  0
SEQEND
  5
4CF1
  8
CONSTRUCTION_LINES
 62
     3
  0
POLYLINE
  5
4CF2
  8
CONSTRUCTION_LINES
 62
     3
 66
     1
 10
0.0
 20
0.0
 30
0.0
  0
VERTEX
  5
4CF3
  8
CONSTRUCTION_LINES
 62
     3
 10
335.0763863615840137
 20
-91.8546540363698654
 30
0.0
  0
VERTEX
  5
4CF4
  8
CONSTRUCTION_LINES
 62
     3
 10
335.0763863615840137
 20
-95.6224200627656842
 30
0.0
  0
SEQEND
  5
4CF5
  8
CONSTRUCTION_LINES
 62
     3
  0
POLYLINE
  5
4D6F
  8
CONSTRUCTION_LINES
 62
     3
 66
     1
 10
0.0
 20
0.0
 30
0.0
  0
VERTEX
  5
4D70
  8
CONSTRUCTION_LINES
 62
     3
 10
179.0138049273479055
 20
-22.4935067322649083
 30
0.0
  0
VERTEX
  5
4D71
  8
CONSTRUCTION_LINES
 62
     3
 10
179.0138049273479055
 20
-15.0007902025004807
 30
0.0
  0
VERTEX
  5
4D72
  8
CONSTRUCTION_LINES
 62
     3
 10
186.5065214571123136
 20
-20.6096237190669989
 30
0.0
  0
VERTEX
  5
4D73
  8
CONSTRUCTION_LINES
 62
     3
 10
175.2888544239793021
 20
-20.6096237190669989
 30
0.0
  0
SEQEND
  5
4D74
  8
CONSTRUCTION_LINES
 62
     3
  0
POLYLINE
  5
4D75
  8
CONSTRUCTION_LINES
 62
     3
 66
     1
 10
0.0
 20
0.0
 30
0.0
 70
     1
  0
VERTEX
  5
4D76
  8
CONSTRUCTION_LINES
 62
     3
 10
175.2888544239793021
 20
-28.1023402488314282
 30
0.0
  0
VERTEX
  5
4D77
  8
CONSTRUCTION_LINES
 62
     3
 10
177.1727374371772044
 20
-26.2612727586607413
 30
0.0
  0
VERTEX
  5
4D78
  8
CONSTRUCTION_LINES
 62
     3
 10
184.6654539669416124
 20
-26.2612727586607413
 30
0.0
  0
VERTEX
  5
4D79
  8
CONSTRUCTION_LINES
 62
     3
 10
186.5065214571123136
 20
-28.1023402488314282
 30
0.0
  0
VERTEX
  5
4D7A
  8
CONSTRUCTION_LINES
 62
     3
 10
186.5065214571123136
 20
-29.9862232620293412
 30
0.0
  0
VERTEX
  5
4D7B
  8
CONSTRUCTION_LINES
 62
     3
 10
184.6654539669416124
 20
-31.8701062752272612
 30
0.0
  0
VERTEX
  5
4D7C
  8
CONSTRUCTION_LINES
 62
     3
 10
177.1727374371772044
 20
-31.8701062752272612
 30
0.0
  0
VERTEX
  5
4D7D
  8
CONSTRUCTION_LINES
 62
     3
 10
175.2888544239793021
 20
-29.9862232620293412
 30
0.0
  0
VERTEX
  5
4D7E
  8
CONSTRUCTION_LINES
 62
     3
 10
175.2888544239793021
 20
-28.1023402488314282
 30
0.0
  0
SEQEND
  5
4D7F
  8
CONSTRUCTION_LINES
 62
     3
  0
POLYLINE
  5
4D80
  8
CONSTRUCTION_LINES
 62
     3
 66
     1
 10
0.0
 20
0.0
 30
0.0
  0
VERTEX
  5
4D81
  8
CONSTRUCTION_LINES
 62
     3
 10
175.2888544239793021
 20
-46.8555393347561022
 30
0.0
  0
VERTEX
  5
4D82
  8
CONSTRUCTION_LINES
 62
     3
 10
186.5065214571123136
 20
-46.8555393347561022
 30
0.0
  0
SEQEND
  5
4D83
  8
CONSTRUCTION_LINES
 62
     3
  0
POLYLINE
  5
4D84
  8
CONSTRUCTION_LINES
 62
     3
 66
     1
 10
0.0
 20
0.0
 30
0.0
  0
VERTEX
  5
4D85
  8
CONSTRUCTION_LINES
 62
     3
 10
186.5065214571123136
 20
-54.3482558645205103
 30
0.0
  0
VERTEX
  5
4D86
  8
CONSTRUCTION_LINES
 62
     3
 10
180.8976879405458078
 20
-48.7394223479539974
 30
0.0
  0
VERTEX
  5
4D87
  8
CONSTRUCTION_LINES
 62
     3
 10
180.8976879405458078
 20
-46.8555393347561022
 30
0.0
  0
SEQEND
  5
4D88
  8
CONSTRUCTION_LINES
 62
     3
  0
POLYLINE
  5
4D89
  8
CONSTRUCTION_LINES
 62
     3
 66
     1
 10
0.0
 20
0.0
 30
0.0
  0
VERTEX
  5
4D8A
  8
CONSTRUCTION_LINES
 62
     3
 10
180.8976879405458078
 20
-48.7394223479539974
 30
0.0
  0
VERTEX
  5
4D8B
  8
CONSTRUCTION_LINES
 62
     3
 10
175.2888544239793021
 20
-54.3482558645205103
 30
0.0
  0
SEQEND
  5
4D8C
  8
CONSTRUCTION_LINES
 62
     3
  0
POLYLINE
  5
4D8D
  8
CONSTRUCTION_LINES
 62
     3
 66
     1
 10
0.0
 20
0.0
 30
0.0
  0
VERTEX
  5
4D8E
  8
CONSTRUCTION_LINES
 62
     3
 10
175.2888544239793021
 20
-58.1160218909163433
 30
0.0
  0
VERTEX
  5
4D8F
  8
CONSTRUCTION_LINES
 62
     3
 10
186.5065214571123136
 20
-58.1160218909163433
 30
0.0
  0
SEQEND
  5
4D90
  8
CONSTRUCTION_LINES
 62
     3
  0
POLYLINE
  5
4D91
  8
CONSTRUCTION_LINES
 62
     3
 66
     1
 10
0.0
 20
0.0
 30
0.0
  0
VERTEX
  5
4D92
  8
CONSTRUCTION_LINES
 62
     3
 10
180.8976879405458078
 20
-58.1160218909163433
 30
0.0
  0
VERTEX
  5
4D93
  8
CONSTRUCTION_LINES
 62
     3
 10
180.8976879405458078
 20
-65.6087384206807798
 30
0.0
  0
SEQEND
  5
4D94
  8
CONSTRUCTION_LINES
 62
     3
  0
POLYLINE
  5
4D95
  8
CONSTRUCTION_LINES
 62
     3
 66
     1
 10
0.0
 20
0.0
 30
0.0
  0
VERTEX
  5
4D96
  8
CONSTRUCTION_LINES
 62
     3
 10
186.5065214571123136
 20
-65.6087384206807798
 30
0.0
  0
VERTEX
  5
4D97
  8
CONSTRUCTION_LINES
 62
     3
 10
175.2888544239793021
 20
-65.6087384206807798
 30
0.0
  0
SEQEND
  5
4D98
  8
CONSTRUCTION_LINES
 62
     3
  0
POLYLINE
  5
4D99
  8
CONSTRUCTION_LINES
 62
     3
 66
     1
 10
0.0
 20
0.0
 30
0.0
  0
VERTEX
  5
4D9A
  8
CONSTRUCTION_LINES
 62
     3
 10
182.7815709537437101
 20
-69.3765044470765844
 30
0.0
  0
VERTEX
  5
4D9B
  8
CONSTRUCTION_LINES
 62
     3
 10
182.7815709537437101
 20
-76.8692209768410208
 30
0.0
  0
VERTEX
  5
4D9C
  8
CONSTRUCTION_LINES
 62
     3
 10
175.2888544239793021
 20
-69.3765044470765844
 30
0.0
  0
VERTEX
  5
4D9D
  8
CONSTRUCTION_LINES
 62
     3
 10
175.2888544239793021
 20
-76.8692209768410208
 30
0.0
  0
SEQEND
  5
4D9E
  8
CONSTRUCTION_LINES
 62
     3
  0
POLYLINE
  5
4D9F
  8
CONSTRUCTION_LINES
 62
     3
 66
     1
 10
0.0
 20
0.0
 30
0.0
  0
VERTEX
  5
4DA0
  8
CONSTRUCTION_LINES
 62
     3
 10
184.6654539669416124
 20
-91.8546540363698654
 30
0.0
  0
VERTEX
  5
4DA1
  8
CONSTRUCTION_LINES
 62
     3
 10
186.5065214571123136
 20
-93.7385370495677677
 30
0.0
  0
VERTEX
  5
4DA2
  8
CONSTRUCTION_LINES
 62
     3
 10
175.2888544239793021
 20
-93.7385370495677677
 30
0.0
  0
SEQEND
  5
4DA3
  8
CONSTRUCTION_LINES
 62
     3
  0
POLYLINE
  5
4DA4
  8
CONSTRUCTION_LINES
 62
     3
 66
     1
 10
0.0
 20
0.0
 30
0.0
  0
VERTEX
  5
4DA5
  8
CONSTRUCTION_LINES
 62
     3
 10
175.2888544239793021
 20
-91.8546540363698654
 30
0.0
  0
VERTEX
  5
4DA6
  8
CONSTRUCTION_LINES
 62
     3
 10
175.2888544239793021
 20
-95.6224200627656842
 30
0.0
  0
SEQEND
  5
4DA7
  8
CONSTRUCTION_LINES
 62
     3
  0
POLYLINE
  5
4DA8
  8
CONSTRUCTION_LINES
 62
     3
 66
     1
 10
0.0
 20
0.0
 30
0.0
  0
VERTEX
  5
4DA9
  8
CONSTRUCTION_LINES
 62
     3
 10
19.1406419436886992
 20
-22.4935067322649083
 30
0.0
  0
VERTEX
  5
4DAA
  8
CONSTRUCTION_LINES
 62
     3
 10
19.1406419436886992
 20
-15.0007902025004807
 30
0.0
  0
VERTEX
  5
4DAB
  8
CONSTRUCTION_LINES
 62
     3
 10
26.6333584734531996
 20
-20.6096237190669989
 30
0.0
  0
VERTEX
  5
4DAC
  8
CONSTRUCTION_LINES
 62
     3
 10
15.3728759172929603
 20
-20.6096237190669989
 30
0.0
  0
SEQEND
  5
4DAD
  8
CONSTRUCTION_LINES
 62
     3
  0
POLYLINE
  5
4DAE
  8
CONSTRUCTION_LINES
 62
     3
 66
     1
 10
0.0
 20
0.0
 30
0.0
 70
     1
  0
VERTEX
  5
4DAF
  8
CONSTRUCTION_LINES
 62
     3
 10
15.3728759172929603
 20
-28.1023402488314282
 30
0.0
  0
VERTEX
  5
4DB0
  8
CONSTRUCTION_LINES
 62
     3
 10
17.2567589304908289
 20
-26.2612727586607413
 30
0.0
  0
VERTEX
  5
4DB1
  8
CONSTRUCTION_LINES
 62
     3
 10
24.7494754602550984
 20
-26.2612727586607413
 30
0.0
  0
VERTEX
  5
4DB2
  8
CONSTRUCTION_LINES
 62
     3
 10
26.6333584734531996
 20
-28.1023402488314282
 30
0.0
  0
VERTEX
  5
4DB3
  8
CONSTRUCTION_LINES
 62
     3
 10
26.6333584734531996
 20
-29.9862232620293412
 30
0.0
  0
VERTEX
  5
4DB4
  8
CONSTRUCTION_LINES
 62
     3
 10
24.7494754602550984
 20
-31.8701062752272612
 30
0.0
  0
VERTEX
  5
4DB5
  8
CONSTRUCTION_LINES
 62
     3
 10
17.2567589304908289
 20
-31.8701062752272612
 30
0.0
  0
VERTEX
  5
4DB6
  8
CONSTRUCTION_LINES
 62
     3
 10
15.3728759172929603
 20
-29.9862232620293412
 30
0.0
  0
VERTEX
  5
4DB7
  8
CONSTRUCTION_LINES
 62
     3
 10
15.3728759172929603
 20
-28.1023402488314282
 30
0.0
  0
SEQEND
  5
4DB8
  8
CONSTRUCTION_LINES
 62
     3
  0
POLYLINE
  5
4DB9
  8
CONSTRUCTION_LINES
 62
     3
 66
     1
 10
0.0
 20
0.0
 30
0.0
  0
VERTEX
  5
4DBA
  8
CONSTRUCTION_LINES
 62
     3
 10
15.3728759172929603
 20
-46.8555393347561022
 30
0.0
  0
VERTEX
  5
4DBB
  8
CONSTRUCTION_LINES
 62
     3
 10
26.6333584734531996
 20
-46.8555393347561022
 30
0.0
  0
SEQEND
  5
4DBC
  8
CONSTRUCTION_LINES
 62
     3
  0
POLYLINE
  5
4DBD
  8
CONSTRUCTION_LINES
 62
     3
 66
     1
 10
0.0
 20
0.0
 30
0.0
  0
VERTEX
  5
4DBE
  8
CONSTRUCTION_LINES
 62
     3
 10
26.6333584734531996
 20
-54.3482558645205103
 30
0.0
  0
VERTEX
  5
4DBF
  8
CONSTRUCTION_LINES
 62
     3
 10
21.0245249568865802
 20
-48.7394223479539974
 30
0.0
  0
VERTEX
  5
4DC0
  8
CONSTRUCTION_LINES
 62
     3
 10
21.0245249568865802
 20
-46.8555393347561022
 30
0.0
  0
SEQEND
  5
4DC1
  8
CONSTRUCTION_LINES
 62
     3
  0
POLYLINE
  5
4DC2
  8
CONSTRUCTION_LINES
 62
     3
 66
     1
 10
0.0
 20
0.0
 30
0.0
  0
VERTEX
  5
4DC3
  8
CONSTRUCTION_LINES
 62
     3
 10
21.0245249568865802
 20
-48.7394223479539974
 30
0.0
  0
VERTEX
  5
4DC4
  8
CONSTRUCTION_LINES
 62
     3
 10
15.3728759172929603
 20
-54.3482558645205103
 30
0.0
  0
SEQEND
  5
4DC5
  8
CONSTRUCTION_LINES
 62
     3
  0
POLYLINE
  5
4DC6
  8
CONSTRUCTION_LINES
 62
     3
 66
     1
 10
0.0
 20
0.0
 30
0.0
  0
VERTEX
  5
4DC7
  8
CONSTRUCTION_LINES
 62
     3
 10
15.3728759172929603
 20
-58.1160218909163433
 30
0.0
  0
VERTEX
  5
4DC8
  8
CONSTRUCTION_LINES
 62
     3
 10
26.6333584734531996
 20
-58.1160218909163433
 30
0.0
  0
SEQEND
  5
4DC9
  8
CONSTRUCTION_LINES
 62
     3
  0
POLYLINE
  5
4DCA
  8
CONSTRUCTION_LINES
 62
     3
 66
     1
 10
0.0
 20
0.0
 30
0.0
  0
VERTEX
  5
4DCB
  8
CONSTRUCTION_LINES
 62
     3
 10
21.0245249568865802
 20
-58.1160218909163433
 30
0.0
  0
VERTEX
  5
4DCC
  8
CONSTRUCTION_LINES
 62
     3
 10
21.0245249568865802
 20
-65.6087384206807798
 30
0.0
  0
SEQEND
  5
4DCD
  8
CONSTRUCTION_LINES
 62
     3
  0
POLYLINE
  5
4DCE
  8
CONSTRUCTION_LINES
 62
     3
 66
     1
 10
0.0
 20
0.0
 30
0.0
  0
VERTEX
  5
4DCF
  8
CONSTRUCTION_LINES
 62
     3
 10
26.6333584734531996
 20
-65.6087384206807798
 30
0.0
  0
VERTEX
  5
4DD0
  8
CONSTRUCTION_LINES
 62
     3
 10
15.3728759172929603
 20
-65.6087384206807798
 30
0.0
  0
SEQEND
  5
4DD1
  8
CONSTRUCTION_LINES
 62
     3
  0
POLYLINE
  5
4DD2
  8
CONSTRUCTION_LINES
 62
     3
 66
     1
 10
0.0
 20
0.0
 30
0.0
  0
VERTEX
  5
4DD3
  8
CONSTRUCTION_LINES
 62
     3
 10
22.8655924470572209
 20
-69.3765044470765844
 30
0.0
  0
VERTEX
  5
4DD4
  8
CONSTRUCTION_LINES
 62
     3
 10
22.8655924470572209
 20
-76.8692209768410208
 30
0.0
  0
VERTEX
  5
4DD5
  8
CONSTRUCTION_LINES
 62
     3
 10
15.3728759172929603
 20
-69.3765044470765844
 30
0.0
  0
VERTEX
  5
4DD6
  8
CONSTRUCTION_LINES
 62
     3
 10
15.3728759172929603
 20
-76.8692209768410208
 30
0.0
  0
SEQEND
  5
4DD7
  8
CONSTRUCTION_LINES
 62
     3
  0
POLYLINE
  5
4DD8
  8
CONSTRUCTION_LINES
 62
     3
 66
     1
 10
0.0
 20
0.0
 30
0.0
  0
VERTEX
  5
4DD9
  8
CONSTRUCTION_LINES
 62
     3
 10
24.7494754602550984
 20
-91.8546540363698654
 30
0.0
  0
VERTEX
  5
4DDA
  8
CONSTRUCTION_LINES
 62
     3
 10
26.6333584734531996
 20
-93.7385370495677677
 30
0.0
  0
VERTEX
  5
4DDB
  8
CONSTRUCTION_LINES
 62
     3
 10
15.3728759172929603
 20
-93.7385370495677677
 30
0.0
  0
SEQEND
  5
4DDC
  8
CONSTRUCTION_LINES
 62
     3
  0
POLYLINE
  5
4DDD
  8
CONSTRUCTION_LINES
 62
     3
 66
     1
 10
0.0
 20
0.0
 30
0.0
  0
VERTEX
  5
4DDE
  8
CONSTRUCTION_LINES
 62
     3
 10
15.3728759172929603
 20
-91.8546540363698654
 30
0.0
  0
VERTEX
  5
4DDF
  8
CONSTRUCTION_LINES
 62
     3
 10
15.3728759172929603
 20
-95.6224200627656842
 30
0.0
  0
SEQEND
  5
4DE0
  8
CONSTRUCTION_LINES
 62
     3
  0
ENDSEC
  0
EOF
