ISO-10303-21;
HEADER;
/* Generated by software containing ST-Developer
 * from STEP Tools, Inc. (www.steptools.com) 
 */

FILE_DESCRIPTION(
/* description */ (''),
/* implementation_level */ '2;1');

FILE_NAME(
/* name */ 'Ruler square.stp',
/* time_stamp */ '2026-07-29T11:40:45-05:00',
/* author */ ('blaze'),
/* organization */ (''),
/* preprocessor_version */ 'ST-DEVELOPER v20.1',
/* originating_system */ 'Autodesk Inventor 2027',
/* authorisation */ '');

FILE_SCHEMA (('AUTOMOTIVE_DESIGN { 1 0 10303 214 3 1 1 }'));
ENDSEC;

DATA;
#10=MECHANICAL_DESIGN_GEOMETRIC_PRESENTATION_REPRESENTATION('',(#13),#743);
#11=SHAPE_REPRESENTATION_RELATIONSHIP('SRR','None',#754,#12);
#12=ADVANCED_BREP_SHAPE_REPRESENTATION('',(#14),#742);
#13=STYLED_ITEM('',(#763),#14);
#14=MANIFOLD_SOLID_BREP('Solid1',#451);
#15=FACE_BOUND('',#70,.T.);
#16=FACE_BOUND('',#71,.T.);
#17=FACE_BOUND('',#74,.T.);
#18=FACE_BOUND('',#75,.T.);
#19=FACE_BOUND('',#84,.T.);
#20=FACE_BOUND('',#85,.T.);
#21=FACE_BOUND('',#91,.T.);
#22=FACE_BOUND('',#92,.T.);
#23=PLANE('',#485);
#24=PLANE('',#486);
#25=PLANE('',#487);
#26=PLANE('',#488);
#27=PLANE('',#489);
#28=PLANE('',#490);
#29=PLANE('',#491);
#30=PLANE('',#492);
#31=PLANE('',#493);
#32=PLANE('',#494);
#33=PLANE('',#495);
#34=PLANE('',#496);
#35=PLANE('',#497);
#36=PLANE('',#498);
#37=PLANE('',#499);
#38=PLANE('',#500);
#39=PLANE('',#501);
#40=PLANE('',#502);
#41=FACE_OUTER_BOUND('',#63,.T.);
#42=FACE_OUTER_BOUND('',#64,.T.);
#43=FACE_OUTER_BOUND('',#65,.T.);
#44=FACE_OUTER_BOUND('',#66,.T.);
#45=FACE_OUTER_BOUND('',#67,.T.);
#46=FACE_OUTER_BOUND('',#68,.T.);
#47=FACE_OUTER_BOUND('',#69,.T.);
#48=FACE_OUTER_BOUND('',#72,.T.);
#49=FACE_OUTER_BOUND('',#73,.T.);
#50=FACE_OUTER_BOUND('',#76,.T.);
#51=FACE_OUTER_BOUND('',#77,.T.);
#52=FACE_OUTER_BOUND('',#78,.T.);
#53=FACE_OUTER_BOUND('',#79,.T.);
#54=FACE_OUTER_BOUND('',#80,.T.);
#55=FACE_OUTER_BOUND('',#81,.T.);
#56=FACE_OUTER_BOUND('',#82,.T.);
#57=FACE_OUTER_BOUND('',#83,.T.);
#58=FACE_OUTER_BOUND('',#86,.T.);
#59=FACE_OUTER_BOUND('',#87,.T.);
#60=FACE_OUTER_BOUND('',#88,.T.);
#61=FACE_OUTER_BOUND('',#89,.T.);
#62=FACE_OUTER_BOUND('',#90,.T.);
#63=EDGE_LOOP('',(#305,#306,#307,#308));
#64=EDGE_LOOP('',(#309,#310,#311,#312));
#65=EDGE_LOOP('',(#313,#314,#315,#316));
#66=EDGE_LOOP('',(#317,#318,#319,#320));
#67=EDGE_LOOP('',(#321,#322,#323,#324));
#68=EDGE_LOOP('',(#325,#326,#327,#328));
#69=EDGE_LOOP('',(#329,#330,#331,#332));
#70=EDGE_LOOP('',(#333));
#71=EDGE_LOOP('',(#334));
#72=EDGE_LOOP('',(#335,#336,#337,#338));
#73=EDGE_LOOP('',(#339,#340,#341,#342,#343,#344,#345,#346));
#74=EDGE_LOOP('',(#347));
#75=EDGE_LOOP('',(#348));
#76=EDGE_LOOP('',(#349,#350,#351,#352));
#77=EDGE_LOOP('',(#353,#354,#355,#356));
#78=EDGE_LOOP('',(#357,#358,#359,#360));
#79=EDGE_LOOP('',(#361,#362,#363,#364));
#80=EDGE_LOOP('',(#365,#366,#367,#368));
#81=EDGE_LOOP('',(#369,#370,#371,#372));
#82=EDGE_LOOP('',(#373,#374,#375,#376,#377,#378,#379,#380,#381,#382,#383,
#384));
#83=EDGE_LOOP('',(#385,#386,#387,#388));
#84=EDGE_LOOP('',(#389));
#85=EDGE_LOOP('',(#390));
#86=EDGE_LOOP('',(#391,#392,#393,#394));
#87=EDGE_LOOP('',(#395,#396,#397,#398));
#88=EDGE_LOOP('',(#399,#400,#401,#402,#403,#404,#405,#406));
#89=EDGE_LOOP('',(#407,#408,#409,#410,#411,#412,#413,#414));
#90=EDGE_LOOP('',(#415,#416,#417,#418,#419,#420,#421,#422));
#91=EDGE_LOOP('',(#423));
#92=EDGE_LOOP('',(#424));
#93=LINE('',#622,#145);
#94=LINE('',#628,#146);
#95=LINE('',#634,#147);
#96=LINE('',#640,#148);
#97=LINE('',#645,#149);
#98=LINE('',#647,#150);
#99=LINE('',#649,#151);
#100=LINE('',#650,#152);
#101=LINE('',#654,#153);
#102=LINE('',#656,#154);
#103=LINE('',#658,#155);
#104=LINE('',#659,#156);
#105=LINE('',#663,#157);
#106=LINE('',#665,#158);
#107=LINE('',#667,#159);
#108=LINE('',#668,#160);
#109=LINE('',#672,#161);
#110=LINE('',#674,#162);
#111=LINE('',#676,#163);
#112=LINE('',#677,#164);
#113=LINE('',#679,#165);
#114=LINE('',#681,#166);
#115=LINE('',#683,#167);
#116=LINE('',#685,#168);
#117=LINE('',#687,#169);
#118=LINE('',#688,#170);
#119=LINE('',#691,#171);
#120=LINE('',#692,#172);
#121=LINE('',#695,#173);
#122=LINE('',#696,#174);
#123=LINE('',#699,#175);
#124=LINE('',#701,#176);
#125=LINE('',#702,#177);
#126=LINE('',#705,#178);
#127=LINE('',#706,#179);
#128=LINE('',#709,#180);
#129=LINE('',#711,#181);
#130=LINE('',#712,#182);
#131=LINE('',#715,#183);
#132=LINE('',#716,#184);
#133=LINE('',#719,#185);
#134=LINE('',#720,#186);
#135=LINE('',#721,#187);
#136=LINE('',#722,#188);
#137=LINE('',#725,#189);
#138=LINE('',#726,#190);
#139=LINE('',#728,#191);
#140=LINE('',#731,#192);
#141=LINE('',#733,#193);
#142=LINE('',#734,#194);
#143=LINE('',#736,#195);
#144=LINE('',#737,#196);
#145=VECTOR('',#509,0.0787401575);
#146=VECTOR('',#516,0.0787401575);
#147=VECTOR('',#523,0.0787401575);
#148=VECTOR('',#530,0.0787401575);
#149=VECTOR('',#535,0.393700787401575);
#150=VECTOR('',#536,0.393700787401575);
#151=VECTOR('',#537,0.393700787401575);
#152=VECTOR('',#538,0.393700787401575);
#153=VECTOR('',#541,0.393700787401575);
#154=VECTOR('',#542,0.393700787401575);
#155=VECTOR('',#543,0.393700787401575);
#156=VECTOR('',#544,0.393700787401575);
#157=VECTOR('',#547,0.393700787401575);
#158=VECTOR('',#548,0.393700787401575);
#159=VECTOR('',#549,0.393700787401575);
#160=VECTOR('',#550,0.393700787401575);
#161=VECTOR('',#553,0.393700787401575);
#162=VECTOR('',#554,0.393700787401575);
#163=VECTOR('',#555,0.393700787401575);
#164=VECTOR('',#556,0.393700787401575);
#165=VECTOR('',#559,0.393700787401575);
#166=VECTOR('',#560,0.393700787401575);
#167=VECTOR('',#561,0.393700787401575);
#168=VECTOR('',#562,0.393700787401575);
#169=VECTOR('',#563,0.393700787401575);
#170=VECTOR('',#564,0.393700787401575);
#171=VECTOR('',#567,0.393700787401575);
#172=VECTOR('',#568,0.393700787401575);
#173=VECTOR('',#571,0.393700787401575);
#174=VECTOR('',#572,0.393700787401575);
#175=VECTOR('',#575,0.393700787401575);
#176=VECTOR('',#576,0.393700787401575);
#177=VECTOR('',#577,0.393700787401575);
#178=VECTOR('',#580,0.393700787401575);
#179=VECTOR('',#581,0.393700787401575);
#180=VECTOR('',#584,0.393700787401575);
#181=VECTOR('',#585,0.393700787401575);
#182=VECTOR('',#586,0.393700787401575);
#183=VECTOR('',#589,0.393700787401575);
#184=VECTOR('',#590,0.393700787401575);
#185=VECTOR('',#593,0.393700787401575);
#186=VECTOR('',#594,0.393700787401575);
#187=VECTOR('',#595,0.393700787401575);
#188=VECTOR('',#596,0.393700787401575);
#189=VECTOR('',#599,0.393700787401575);
#190=VECTOR('',#600,0.393700787401575);
#191=VECTOR('',#603,0.393700787401575);
#192=VECTOR('',#606,0.393700787401575);
#193=VECTOR('',#607,0.393700787401575);
#194=VECTOR('',#608,0.393700787401575);
#195=VECTOR('',#611,0.393700787401575);
#196=VECTOR('',#612,0.393700787401575);
#197=CIRCLE('',#474,0.0787401575);
#198=CIRCLE('',#475,0.0787401575);
#199=CIRCLE('',#477,0.0787401575);
#200=CIRCLE('',#478,0.0787401575);
#201=CIRCLE('',#480,0.0787401575);
#202=CIRCLE('',#481,0.0787401575);
#203=CIRCLE('',#483,0.0787401575);
#204=CIRCLE('',#484,0.0787401575);
#205=VERTEX_POINT('',#619);
#206=VERTEX_POINT('',#621);
#207=VERTEX_POINT('',#625);
#208=VERTEX_POINT('',#627);
#209=VERTEX_POINT('',#631);
#210=VERTEX_POINT('',#633);
#211=VERTEX_POINT('',#637);
#212=VERTEX_POINT('',#639);
#213=VERTEX_POINT('',#643);
#214=VERTEX_POINT('',#644);
#215=VERTEX_POINT('',#646);
#216=VERTEX_POINT('',#648);
#217=VERTEX_POINT('',#652);
#218=VERTEX_POINT('',#653);
#219=VERTEX_POINT('',#655);
#220=VERTEX_POINT('',#657);
#221=VERTEX_POINT('',#661);
#222=VERTEX_POINT('',#662);
#223=VERTEX_POINT('',#664);
#224=VERTEX_POINT('',#666);
#225=VERTEX_POINT('',#670);
#226=VERTEX_POINT('',#671);
#227=VERTEX_POINT('',#673);
#228=VERTEX_POINT('',#675);
#229=VERTEX_POINT('',#680);
#230=VERTEX_POINT('',#682);
#231=VERTEX_POINT('',#684);
#232=VERTEX_POINT('',#686);
#233=VERTEX_POINT('',#690);
#234=VERTEX_POINT('',#694);
#235=VERTEX_POINT('',#698);
#236=VERTEX_POINT('',#700);
#237=VERTEX_POINT('',#704);
#238=VERTEX_POINT('',#708);
#239=VERTEX_POINT('',#710);
#240=VERTEX_POINT('',#714);
#241=VERTEX_POINT('',#718);
#242=VERTEX_POINT('',#724);
#243=VERTEX_POINT('',#730);
#244=VERTEX_POINT('',#732);
#245=EDGE_CURVE('',#205,#205,#197,.T.);
#246=EDGE_CURVE('',#205,#206,#93,.T.);
#247=EDGE_CURVE('',#206,#206,#198,.T.);
#248=EDGE_CURVE('',#207,#207,#199,.T.);
#249=EDGE_CURVE('',#207,#208,#94,.T.);
#250=EDGE_CURVE('',#208,#208,#200,.T.);
#251=EDGE_CURVE('',#209,#209,#201,.T.);
#252=EDGE_CURVE('',#209,#210,#95,.T.);
#253=EDGE_CURVE('',#210,#210,#202,.T.);
#254=EDGE_CURVE('',#211,#211,#203,.T.);
#255=EDGE_CURVE('',#211,#212,#96,.T.);
#256=EDGE_CURVE('',#212,#212,#204,.T.);
#257=EDGE_CURVE('',#213,#214,#97,.T.);
#258=EDGE_CURVE('',#215,#213,#98,.T.);
#259=EDGE_CURVE('',#216,#215,#99,.T.);
#260=EDGE_CURVE('',#216,#214,#100,.T.);
#261=EDGE_CURVE('',#217,#218,#101,.T.);
#262=EDGE_CURVE('',#219,#217,#102,.T.);
#263=EDGE_CURVE('',#220,#219,#103,.T.);
#264=EDGE_CURVE('',#218,#220,#104,.T.);
#265=EDGE_CURVE('',#221,#222,#105,.T.);
#266=EDGE_CURVE('',#223,#221,#106,.T.);
#267=EDGE_CURVE('',#224,#223,#107,.T.);
#268=EDGE_CURVE('',#222,#224,#108,.T.);
#269=EDGE_CURVE('',#225,#226,#109,.T.);
#270=EDGE_CURVE('',#225,#227,#110,.T.);
#271=EDGE_CURVE('',#228,#227,#111,.T.);
#272=EDGE_CURVE('',#226,#228,#112,.T.);
#273=EDGE_CURVE('',#227,#224,#113,.T.);
#274=EDGE_CURVE('',#223,#229,#114,.T.);
#275=EDGE_CURVE('',#230,#229,#115,.T.);
#276=EDGE_CURVE('',#231,#230,#116,.T.);
#277=EDGE_CURVE('',#232,#231,#117,.T.);
#278=EDGE_CURVE('',#232,#228,#118,.T.);
#279=EDGE_CURVE('',#221,#233,#119,.T.);
#280=EDGE_CURVE('',#229,#233,#120,.T.);
#281=EDGE_CURVE('',#222,#234,#121,.T.);
#282=EDGE_CURVE('',#233,#234,#122,.T.);
#283=EDGE_CURVE('',#218,#235,#123,.T.);
#284=EDGE_CURVE('',#236,#235,#124,.T.);
#285=EDGE_CURVE('',#217,#236,#125,.T.);
#286=EDGE_CURVE('',#220,#237,#126,.T.);
#287=EDGE_CURVE('',#235,#237,#127,.T.);
#288=EDGE_CURVE('',#238,#213,#128,.T.);
#289=EDGE_CURVE('',#239,#238,#129,.T.);
#290=EDGE_CURVE('',#239,#215,#130,.T.);
#291=EDGE_CURVE('',#240,#214,#131,.T.);
#292=EDGE_CURVE('',#238,#240,#132,.T.);
#293=EDGE_CURVE('',#241,#225,#133,.T.);
#294=EDGE_CURVE('',#240,#241,#134,.T.);
#295=EDGE_CURVE('',#219,#216,#135,.T.);
#296=EDGE_CURVE('',#234,#236,#136,.T.);
#297=EDGE_CURVE('',#242,#226,#137,.T.);
#298=EDGE_CURVE('',#241,#242,#138,.T.);
#299=EDGE_CURVE('',#242,#232,#139,.T.);
#300=EDGE_CURVE('',#231,#243,#140,.T.);
#301=EDGE_CURVE('',#244,#230,#141,.T.);
#302=EDGE_CURVE('',#243,#244,#142,.T.);
#303=EDGE_CURVE('',#243,#239,#143,.T.);
#304=EDGE_CURVE('',#237,#244,#144,.T.);
#305=ORIENTED_EDGE('',*,*,#245,.F.);
#306=ORIENTED_EDGE('',*,*,#246,.T.);
#307=ORIENTED_EDGE('',*,*,#247,.F.);
#308=ORIENTED_EDGE('',*,*,#246,.F.);
#309=ORIENTED_EDGE('',*,*,#248,.F.);
#310=ORIENTED_EDGE('',*,*,#249,.T.);
#311=ORIENTED_EDGE('',*,*,#250,.F.);
#312=ORIENTED_EDGE('',*,*,#249,.F.);
#313=ORIENTED_EDGE('',*,*,#251,.F.);
#314=ORIENTED_EDGE('',*,*,#252,.T.);
#315=ORIENTED_EDGE('',*,*,#253,.F.);
#316=ORIENTED_EDGE('',*,*,#252,.F.);
#317=ORIENTED_EDGE('',*,*,#254,.F.);
#318=ORIENTED_EDGE('',*,*,#255,.T.);
#319=ORIENTED_EDGE('',*,*,#256,.F.);
#320=ORIENTED_EDGE('',*,*,#255,.F.);
#321=ORIENTED_EDGE('',*,*,#257,.F.);
#322=ORIENTED_EDGE('',*,*,#258,.F.);
#323=ORIENTED_EDGE('',*,*,#259,.F.);
#324=ORIENTED_EDGE('',*,*,#260,.T.);
#325=ORIENTED_EDGE('',*,*,#261,.F.);
#326=ORIENTED_EDGE('',*,*,#262,.F.);
#327=ORIENTED_EDGE('',*,*,#263,.F.);
#328=ORIENTED_EDGE('',*,*,#264,.F.);
#329=ORIENTED_EDGE('',*,*,#265,.F.);
#330=ORIENTED_EDGE('',*,*,#266,.F.);
#331=ORIENTED_EDGE('',*,*,#267,.F.);
#332=ORIENTED_EDGE('',*,*,#268,.F.);
#333=ORIENTED_EDGE('',*,*,#247,.T.);
#334=ORIENTED_EDGE('',*,*,#250,.T.);
#335=ORIENTED_EDGE('',*,*,#269,.F.);
#336=ORIENTED_EDGE('',*,*,#270,.T.);
#337=ORIENTED_EDGE('',*,*,#271,.F.);
#338=ORIENTED_EDGE('',*,*,#272,.F.);
#339=ORIENTED_EDGE('',*,*,#271,.T.);
#340=ORIENTED_EDGE('',*,*,#273,.T.);
#341=ORIENTED_EDGE('',*,*,#267,.T.);
#342=ORIENTED_EDGE('',*,*,#274,.T.);
#343=ORIENTED_EDGE('',*,*,#275,.F.);
#344=ORIENTED_EDGE('',*,*,#276,.F.);
#345=ORIENTED_EDGE('',*,*,#277,.F.);
#346=ORIENTED_EDGE('',*,*,#278,.T.);
#347=ORIENTED_EDGE('',*,*,#251,.T.);
#348=ORIENTED_EDGE('',*,*,#254,.T.);
#349=ORIENTED_EDGE('',*,*,#266,.T.);
#350=ORIENTED_EDGE('',*,*,#279,.T.);
#351=ORIENTED_EDGE('',*,*,#280,.F.);
#352=ORIENTED_EDGE('',*,*,#274,.F.);
#353=ORIENTED_EDGE('',*,*,#265,.T.);
#354=ORIENTED_EDGE('',*,*,#281,.T.);
#355=ORIENTED_EDGE('',*,*,#282,.F.);
#356=ORIENTED_EDGE('',*,*,#279,.F.);
#357=ORIENTED_EDGE('',*,*,#261,.T.);
#358=ORIENTED_EDGE('',*,*,#283,.T.);
#359=ORIENTED_EDGE('',*,*,#284,.F.);
#360=ORIENTED_EDGE('',*,*,#285,.F.);
#361=ORIENTED_EDGE('',*,*,#264,.T.);
#362=ORIENTED_EDGE('',*,*,#286,.T.);
#363=ORIENTED_EDGE('',*,*,#287,.F.);
#364=ORIENTED_EDGE('',*,*,#283,.F.);
#365=ORIENTED_EDGE('',*,*,#258,.T.);
#366=ORIENTED_EDGE('',*,*,#288,.F.);
#367=ORIENTED_EDGE('',*,*,#289,.F.);
#368=ORIENTED_EDGE('',*,*,#290,.T.);
#369=ORIENTED_EDGE('',*,*,#257,.T.);
#370=ORIENTED_EDGE('',*,*,#291,.F.);
#371=ORIENTED_EDGE('',*,*,#292,.F.);
#372=ORIENTED_EDGE('',*,*,#288,.T.);
#373=ORIENTED_EDGE('',*,*,#293,.F.);
#374=ORIENTED_EDGE('',*,*,#294,.F.);
#375=ORIENTED_EDGE('',*,*,#291,.T.);
#376=ORIENTED_EDGE('',*,*,#260,.F.);
#377=ORIENTED_EDGE('',*,*,#295,.F.);
#378=ORIENTED_EDGE('',*,*,#262,.T.);
#379=ORIENTED_EDGE('',*,*,#285,.T.);
#380=ORIENTED_EDGE('',*,*,#296,.F.);
#381=ORIENTED_EDGE('',*,*,#281,.F.);
#382=ORIENTED_EDGE('',*,*,#268,.T.);
#383=ORIENTED_EDGE('',*,*,#273,.F.);
#384=ORIENTED_EDGE('',*,*,#270,.F.);
#385=ORIENTED_EDGE('',*,*,#269,.T.);
#386=ORIENTED_EDGE('',*,*,#297,.F.);
#387=ORIENTED_EDGE('',*,*,#298,.F.);
#388=ORIENTED_EDGE('',*,*,#293,.T.);
#389=ORIENTED_EDGE('',*,*,#253,.T.);
#390=ORIENTED_EDGE('',*,*,#256,.T.);
#391=ORIENTED_EDGE('',*,*,#272,.T.);
#392=ORIENTED_EDGE('',*,*,#278,.F.);
#393=ORIENTED_EDGE('',*,*,#299,.F.);
#394=ORIENTED_EDGE('',*,*,#297,.T.);
#395=ORIENTED_EDGE('',*,*,#300,.F.);
#396=ORIENTED_EDGE('',*,*,#276,.T.);
#397=ORIENTED_EDGE('',*,*,#301,.F.);
#398=ORIENTED_EDGE('',*,*,#302,.F.);
#399=ORIENTED_EDGE('',*,*,#259,.T.);
#400=ORIENTED_EDGE('',*,*,#290,.F.);
#401=ORIENTED_EDGE('',*,*,#303,.F.);
#402=ORIENTED_EDGE('',*,*,#302,.T.);
#403=ORIENTED_EDGE('',*,*,#304,.F.);
#404=ORIENTED_EDGE('',*,*,#286,.F.);
#405=ORIENTED_EDGE('',*,*,#263,.T.);
#406=ORIENTED_EDGE('',*,*,#295,.T.);
#407=ORIENTED_EDGE('',*,*,#303,.T.);
#408=ORIENTED_EDGE('',*,*,#289,.T.);
#409=ORIENTED_EDGE('',*,*,#292,.T.);
#410=ORIENTED_EDGE('',*,*,#294,.T.);
#411=ORIENTED_EDGE('',*,*,#298,.T.);
#412=ORIENTED_EDGE('',*,*,#299,.T.);
#413=ORIENTED_EDGE('',*,*,#277,.T.);
#414=ORIENTED_EDGE('',*,*,#300,.T.);
#415=ORIENTED_EDGE('',*,*,#304,.T.);
#416=ORIENTED_EDGE('',*,*,#301,.T.);
#417=ORIENTED_EDGE('',*,*,#275,.T.);
#418=ORIENTED_EDGE('',*,*,#280,.T.);
#419=ORIENTED_EDGE('',*,*,#282,.T.);
#420=ORIENTED_EDGE('',*,*,#296,.T.);
#421=ORIENTED_EDGE('',*,*,#284,.T.);
#422=ORIENTED_EDGE('',*,*,#287,.T.);
#423=ORIENTED_EDGE('',*,*,#245,.T.);
#424=ORIENTED_EDGE('',*,*,#248,.T.);
#425=CYLINDRICAL_SURFACE('',#473,0.0787401575);
#426=CYLINDRICAL_SURFACE('',#476,0.0787401575);
#427=CYLINDRICAL_SURFACE('',#479,0.0787401575);
#428=CYLINDRICAL_SURFACE('',#482,0.0787401575);
#429=ADVANCED_FACE('',(#41),#425,.F.);
#430=ADVANCED_FACE('',(#42),#426,.F.);
#431=ADVANCED_FACE('',(#43),#427,.F.);
#432=ADVANCED_FACE('',(#44),#428,.F.);
#433=ADVANCED_FACE('',(#45),#23,.F.);
#434=ADVANCED_FACE('',(#46),#24,.F.);
#435=ADVANCED_FACE('',(#47,#15,#16),#25,.F.);
#436=ADVANCED_FACE('',(#48),#26,.F.);
#437=ADVANCED_FACE('',(#49,#17,#18),#27,.T.);
#438=ADVANCED_FACE('',(#50),#28,.T.);
#439=ADVANCED_FACE('',(#51),#29,.T.);
#440=ADVANCED_FACE('',(#52),#30,.T.);
#441=ADVANCED_FACE('',(#53),#31,.T.);
#442=ADVANCED_FACE('',(#54),#32,.T.);
#443=ADVANCED_FACE('',(#55),#33,.T.);
#444=ADVANCED_FACE('',(#56),#34,.T.);
#445=ADVANCED_FACE('',(#57,#19,#20),#35,.T.);
#446=ADVANCED_FACE('',(#58),#36,.T.);
#447=ADVANCED_FACE('',(#59),#37,.T.);
#448=ADVANCED_FACE('',(#60),#38,.T.);
#449=ADVANCED_FACE('',(#61),#39,.T.);
#450=ADVANCED_FACE('',(#62,#21,#22),#40,.T.);
#451=CLOSED_SHELL('',(#429,#430,#431,#432,#433,#434,#435,#436,#437,#438,
#439,#440,#441,#442,#443,#444,#445,#446,#447,#448,#449,#450));
#452=DERIVED_UNIT_ELEMENT(#454,1.);
#453=DERIVED_UNIT_ELEMENT(#748,-3.);
#454=(
CONVERSION_BASED_UNIT('gram',#456)
MASS_UNIT()
NAMED_UNIT(#745)
);
#455=(
MASS_UNIT()
NAMED_UNIT(*)
SI_UNIT(.KILO.,.GRAM.)
);
#456=MASS_MEASURE_WITH_UNIT(MASS_MEASURE(0.001),#455);
#457=DERIVED_UNIT((#452,#453));
#458=MEASURE_REPRESENTATION_ITEM('density measure',
POSITIVE_RATIO_MEASURE(1.),#457);
#459=PROPERTY_DEFINITION_REPRESENTATION(#464,#461);
#460=PROPERTY_DEFINITION_REPRESENTATION(#465,#462);
#461=REPRESENTATION('material name',(#463),#742);
#462=REPRESENTATION('density',(#458),#742);
#463=DESCRIPTIVE_REPRESENTATION_ITEM('Generic','Generic');
#464=PROPERTY_DEFINITION('material property','material name',#756);
#465=PROPERTY_DEFINITION('material property','density of part',#756);
#466=DATE_TIME_ROLE('creation_date');
#467=APPLIED_DATE_AND_TIME_ASSIGNMENT(#468,#466,(#756));
#468=DATE_AND_TIME(#469,#470);
#469=CALENDAR_DATE(2026,30,6);
#470=LOCAL_TIME(0,0,0.,#471);
#471=COORDINATED_UNIVERSAL_TIME_OFFSET(0,0,.BEHIND.);
#472=AXIS2_PLACEMENT_3D('',#617,#503,#504);
#473=AXIS2_PLACEMENT_3D('',#618,#505,#506);
#474=AXIS2_PLACEMENT_3D('',#620,#507,#508);
#475=AXIS2_PLACEMENT_3D('',#623,#510,#511);
#476=AXIS2_PLACEMENT_3D('',#624,#512,#513);
#477=AXIS2_PLACEMENT_3D('',#626,#514,#515);
#478=AXIS2_PLACEMENT_3D('',#629,#517,#518);
#479=AXIS2_PLACEMENT_3D('',#630,#519,#520);
#480=AXIS2_PLACEMENT_3D('',#632,#521,#522);
#481=AXIS2_PLACEMENT_3D('',#635,#524,#525);
#482=AXIS2_PLACEMENT_3D('',#636,#526,#527);
#483=AXIS2_PLACEMENT_3D('',#638,#528,#529);
#484=AXIS2_PLACEMENT_3D('',#641,#531,#532);
#485=AXIS2_PLACEMENT_3D('',#642,#533,#534);
#486=AXIS2_PLACEMENT_3D('',#651,#539,#540);
#487=AXIS2_PLACEMENT_3D('',#660,#545,#546);
#488=AXIS2_PLACEMENT_3D('',#669,#551,#552);
#489=AXIS2_PLACEMENT_3D('',#678,#557,#558);
#490=AXIS2_PLACEMENT_3D('',#689,#565,#566);
#491=AXIS2_PLACEMENT_3D('',#693,#569,#570);
#492=AXIS2_PLACEMENT_3D('',#697,#573,#574);
#493=AXIS2_PLACEMENT_3D('',#703,#578,#579);
#494=AXIS2_PLACEMENT_3D('',#707,#582,#583);
#495=AXIS2_PLACEMENT_3D('',#713,#587,#588);
#496=AXIS2_PLACEMENT_3D('',#717,#591,#592);
#497=AXIS2_PLACEMENT_3D('',#723,#597,#598);
#498=AXIS2_PLACEMENT_3D('',#727,#601,#602);
#499=AXIS2_PLACEMENT_3D('',#729,#604,#605);
#500=AXIS2_PLACEMENT_3D('',#735,#609,#610);
#501=AXIS2_PLACEMENT_3D('',#738,#613,#614);
#502=AXIS2_PLACEMENT_3D('',#739,#615,#616);
#503=DIRECTION('axis',(0.,0.,1.));
#504=DIRECTION('refdir',(1.,0.,0.));
#505=DIRECTION('center_axis',(0.,0.,1.));
#506=DIRECTION('ref_axis',(-1.,0.,0.));
#507=DIRECTION('center_axis',(0.,0.,1.));
#508=DIRECTION('ref_axis',(-1.,0.,0.));
#509=DIRECTION('',(0.,0.,1.));
#510=DIRECTION('center_axis',(0.,0.,-1.));
#511=DIRECTION('ref_axis',(-1.,0.,0.));
#512=DIRECTION('center_axis',(0.,0.,1.));
#513=DIRECTION('ref_axis',(-1.,0.,0.));
#514=DIRECTION('center_axis',(0.,0.,1.));
#515=DIRECTION('ref_axis',(-1.,0.,0.));
#516=DIRECTION('',(0.,0.,1.));
#517=DIRECTION('center_axis',(0.,0.,-1.));
#518=DIRECTION('ref_axis',(-1.,0.,0.));
#519=DIRECTION('center_axis',(1.,0.,0.));
#520=DIRECTION('ref_axis',(0.,0.,1.));
#521=DIRECTION('center_axis',(1.,0.,0.));
#522=DIRECTION('ref_axis',(0.,0.,1.));
#523=DIRECTION('',(1.,0.,0.));
#524=DIRECTION('center_axis',(-1.,0.,0.));
#525=DIRECTION('ref_axis',(0.,0.,1.));
#526=DIRECTION('center_axis',(1.,0.,0.));
#527=DIRECTION('ref_axis',(0.,0.,1.));
#528=DIRECTION('center_axis',(1.,0.,0.));
#529=DIRECTION('ref_axis',(0.,0.,1.));
#530=DIRECTION('',(1.,0.,0.));
#531=DIRECTION('center_axis',(-1.,0.,0.));
#532=DIRECTION('ref_axis',(0.,0.,1.));
#533=DIRECTION('center_axis',(0.,0.,1.));
#534=DIRECTION('ref_axis',(0.,1.,0.));
#535=DIRECTION('',(0.,-1.,0.));
#536=DIRECTION('',(-1.,0.,0.));
#537=DIRECTION('',(0.,1.,0.));
#538=DIRECTION('',(-1.,0.,0.));
#539=DIRECTION('center_axis',(0.,0.,-1.));
#540=DIRECTION('ref_axis',(0.,-1.,0.));
#541=DIRECTION('',(0.,1.,0.));
#542=DIRECTION('',(-1.,0.,0.));
#543=DIRECTION('',(0.,-1.,0.));
#544=DIRECTION('',(1.,0.,0.));
#545=DIRECTION('center_axis',(0.,0.,-1.));
#546=DIRECTION('ref_axis',(0.,-1.,0.));
#547=DIRECTION('',(0.,-1.,0.));
#548=DIRECTION('',(1.,0.,0.));
#549=DIRECTION('',(0.,1.,0.));
#550=DIRECTION('',(-1.,0.,0.));
#551=DIRECTION('center_axis',(0.,0.,1.));
#552=DIRECTION('ref_axis',(0.,1.,0.));
#553=DIRECTION('',(0.,1.,0.));
#554=DIRECTION('',(-1.,0.,0.));
#555=DIRECTION('',(0.,-1.,0.));
#556=DIRECTION('',(-1.,0.,0.));
#557=DIRECTION('center_axis',(-1.,0.,0.));
#558=DIRECTION('ref_axis',(0.,1.,0.));
#559=DIRECTION('',(0.,0.,-1.));
#560=DIRECTION('',(0.,0.,-1.));
#561=DIRECTION('',(0.,1.,0.));
#562=DIRECTION('',(0.,0.,-1.));
#563=DIRECTION('',(0.,-1.,0.));
#564=DIRECTION('',(0.,0.,-1.));
#565=DIRECTION('center_axis',(0.,1.,0.));
#566=DIRECTION('ref_axis',(1.,0.,0.));
#567=DIRECTION('',(0.,0.,-1.));
#568=DIRECTION('',(1.,0.,0.));
#569=DIRECTION('center_axis',(1.,0.,0.));
#570=DIRECTION('ref_axis',(0.,-1.,0.));
#571=DIRECTION('',(0.,0.,-1.));
#572=DIRECTION('',(0.,-1.,0.));
#573=DIRECTION('center_axis',(-1.,0.,0.));
#574=DIRECTION('ref_axis',(0.,1.,0.));
#575=DIRECTION('',(0.,0.,-1.));
#576=DIRECTION('',(0.,1.,0.));
#577=DIRECTION('',(0.,0.,-1.));
#578=DIRECTION('center_axis',(0.,1.,0.));
#579=DIRECTION('ref_axis',(1.,0.,0.));
#580=DIRECTION('',(0.,0.,-1.));
#581=DIRECTION('',(1.,0.,0.));
#582=DIRECTION('center_axis',(0.,1.,0.));
#583=DIRECTION('ref_axis',(1.,0.,0.));
#584=DIRECTION('',(0.,0.,-1.));
#585=DIRECTION('',(-1.,0.,0.));
#586=DIRECTION('',(0.,0.,-1.));
#587=DIRECTION('center_axis',(-1.,0.,0.));
#588=DIRECTION('ref_axis',(0.,1.,0.));
#589=DIRECTION('',(0.,0.,-1.));
#590=DIRECTION('',(0.,-1.,0.));
#591=DIRECTION('center_axis',(0.,1.,0.));
#592=DIRECTION('ref_axis',(1.,0.,0.));
#593=DIRECTION('',(0.,0.,-1.));
#594=DIRECTION('',(-1.,0.,0.));
#595=DIRECTION('',(0.,0.,1.));
#596=DIRECTION('',(1.,0.,0.));
#597=DIRECTION('center_axis',(1.,0.,0.));
#598=DIRECTION('ref_axis',(0.,-1.,0.));
#599=DIRECTION('',(0.,0.,-1.));
#600=DIRECTION('',(0.,1.,0.));
#601=DIRECTION('center_axis',(0.,1.,0.));
#602=DIRECTION('ref_axis',(1.,0.,0.));
#603=DIRECTION('',(-1.,0.,0.));
#604=DIRECTION('center_axis',(0.,-1.,0.));
#605=DIRECTION('ref_axis',(-1.,0.,0.));
#606=DIRECTION('',(1.,0.,0.));
#607=DIRECTION('',(-1.,0.,0.));
#608=DIRECTION('',(0.,0.,-1.));
#609=DIRECTION('center_axis',(1.,0.,0.));
#610=DIRECTION('ref_axis',(0.,-1.,0.));
#611=DIRECTION('',(0.,1.,0.));
#612=DIRECTION('',(0.,-1.,0.));
#613=DIRECTION('center_axis',(0.,0.,1.));
#614=DIRECTION('ref_axis',(1.,0.,0.));
#615=DIRECTION('center_axis',(0.,0.,-1.));
#616=DIRECTION('ref_axis',(-1.,0.,0.));
#617=CARTESIAN_POINT('',(0.,0.,0.));
#618=CARTESIAN_POINT('Origin',(0.23,0.58,-2.));
#619=CARTESIAN_POINT('',(0.3087401575,0.58,-2.));
#620=CARTESIAN_POINT('Origin',(0.23,0.58,-2.));
#621=CARTESIAN_POINT('',(0.3087401575,0.58,-1.54));
#622=CARTESIAN_POINT('',(0.3087401575,0.58,-2.));
#623=CARTESIAN_POINT('Origin',(0.23,0.58,-1.54));
#624=CARTESIAN_POINT('Origin',(0.23,0.275,-2.));
#625=CARTESIAN_POINT('',(0.3087401575,0.275,-2.));
#626=CARTESIAN_POINT('Origin',(0.23,0.275,-2.));
#627=CARTESIAN_POINT('',(0.3087401575,0.275,-1.54));
#628=CARTESIAN_POINT('',(0.3087401575,0.275,-2.));
#629=CARTESIAN_POINT('Origin',(0.23,0.275,-1.54));
#630=CARTESIAN_POINT('Origin',(0.,0.58,-0.23));
#631=CARTESIAN_POINT('',(0.,0.58,-0.3087401575));
#632=CARTESIAN_POINT('Origin',(0.,0.58,-0.23));
#633=CARTESIAN_POINT('',(0.46,0.58,-0.3087401575));
#634=CARTESIAN_POINT('',(0.,0.58,-0.3087401575));
#635=CARTESIAN_POINT('Origin',(0.46,0.58,-0.23));
#636=CARTESIAN_POINT('Origin',(0.,0.275,-0.23));
#637=CARTESIAN_POINT('',(0.,0.275,-0.3087401575));
#638=CARTESIAN_POINT('Origin',(0.,0.275,-0.23));
#639=CARTESIAN_POINT('',(0.46,0.275,-0.3087401575));
#640=CARTESIAN_POINT('',(0.,0.275,-0.3087401575));
#641=CARTESIAN_POINT('Origin',(0.46,0.275,-0.23));
#642=CARTESIAN_POINT('Origin',(2.,0.125,-0.46));
#643=CARTESIAN_POINT('',(1.54,0.735,-0.46));
#644=CARTESIAN_POINT('',(1.54,0.125,-0.46));
#645=CARTESIAN_POINT('',(1.54,0.125,-0.46));
#646=CARTESIAN_POINT('',(2.,0.735,-0.46));
#647=CARTESIAN_POINT('',(1.77,0.735,-0.46));
#648=CARTESIAN_POINT('',(2.,0.125,-0.46));
#649=CARTESIAN_POINT('',(2.,0.43,-0.46));
#650=CARTESIAN_POINT('',(2.,0.125,-0.46));
#651=CARTESIAN_POINT('Origin',(2.,0.735,-1.54));
#652=CARTESIAN_POINT('',(1.54,0.125,-1.54));
#653=CARTESIAN_POINT('',(1.54,0.735,-1.54));
#654=CARTESIAN_POINT('',(1.54,0.43,-1.54));
#655=CARTESIAN_POINT('',(2.,0.125,-1.54));
#656=CARTESIAN_POINT('',(2.,0.125,-1.54));
#657=CARTESIAN_POINT('',(2.,0.735,-1.54));
#658=CARTESIAN_POINT('',(2.,0.735,-1.54));
#659=CARTESIAN_POINT('',(1.77,0.735,-1.54));
#660=CARTESIAN_POINT('Origin',(2.,0.735,-1.54));
#661=CARTESIAN_POINT('',(0.46,0.735,-1.54));
#662=CARTESIAN_POINT('',(0.46,0.125,-1.54));
#663=CARTESIAN_POINT('',(0.46,0.735,-1.54));
#664=CARTESIAN_POINT('',(0.,0.735,-1.54));
#665=CARTESIAN_POINT('',(1.,0.735,-1.54));
#666=CARTESIAN_POINT('',(0.,0.125,-1.54));
#667=CARTESIAN_POINT('',(0.,0.3675,-1.54));
#668=CARTESIAN_POINT('',(2.,0.125,-1.54));
#669=CARTESIAN_POINT('Origin',(2.,0.125,-0.46));
#670=CARTESIAN_POINT('',(0.46,0.125,-0.46));
#671=CARTESIAN_POINT('',(0.46,0.735,-0.46));
#672=CARTESIAN_POINT('',(0.46,0.43,-0.46));
#673=CARTESIAN_POINT('',(0.,0.125,-0.46));
#674=CARTESIAN_POINT('',(2.,0.125,-0.46));
#675=CARTESIAN_POINT('',(0.,0.735,-0.46));
#676=CARTESIAN_POINT('',(0.,0.0625,-0.46));
#677=CARTESIAN_POINT('',(1.,0.735,-0.46));
#678=CARTESIAN_POINT('Origin',(0.,0.,0.));
#679=CARTESIAN_POINT('',(0.,0.125,-0.77));
#680=CARTESIAN_POINT('',(0.,0.735,-2.));
#681=CARTESIAN_POINT('',(0.,0.735,0.));
#682=CARTESIAN_POINT('',(0.,0.,-2.));
#683=CARTESIAN_POINT('',(0.,0.735,-2.));
#684=CARTESIAN_POINT('',(0.,0.,0.));
#685=CARTESIAN_POINT('',(0.,0.,0.));
#686=CARTESIAN_POINT('',(0.,0.735,0.));
#687=CARTESIAN_POINT('',(0.,0.735,0.));
#688=CARTESIAN_POINT('',(0.,0.735,0.));
#689=CARTESIAN_POINT('Origin',(0.,0.735,0.));
#690=CARTESIAN_POINT('',(0.46,0.735,-2.));
#691=CARTESIAN_POINT('',(0.46,0.735,0.));
#692=CARTESIAN_POINT('',(0.46,0.735,-2.));
#693=CARTESIAN_POINT('Origin',(0.46,0.735,0.));
#694=CARTESIAN_POINT('',(0.46,0.125,-2.));
#695=CARTESIAN_POINT('',(0.46,0.125,0.));
#696=CARTESIAN_POINT('',(0.46,0.125,-2.));
#697=CARTESIAN_POINT('Origin',(1.54,0.125,0.));
#698=CARTESIAN_POINT('',(1.54,0.735,-2.));
#699=CARTESIAN_POINT('',(1.54,0.735,0.));
#700=CARTESIAN_POINT('',(1.54,0.125,-2.));
#701=CARTESIAN_POINT('',(1.54,0.735,-2.));
#702=CARTESIAN_POINT('',(1.54,0.125,0.));
#703=CARTESIAN_POINT('Origin',(1.54,0.735,0.));
#704=CARTESIAN_POINT('',(2.,0.735,-2.));
#705=CARTESIAN_POINT('',(2.,0.735,0.));
#706=CARTESIAN_POINT('',(2.,0.735,-2.));
#707=CARTESIAN_POINT('Origin',(1.54,0.735,0.));
#708=CARTESIAN_POINT('',(1.54,0.735,0.));
#709=CARTESIAN_POINT('',(1.54,0.735,0.));
#710=CARTESIAN_POINT('',(2.,0.735,0.));
#711=CARTESIAN_POINT('',(2.,0.735,0.));
#712=CARTESIAN_POINT('',(2.,0.735,0.));
#713=CARTESIAN_POINT('Origin',(1.54,0.125,0.));
#714=CARTESIAN_POINT('',(1.54,0.125,0.));
#715=CARTESIAN_POINT('',(1.54,0.125,0.));
#716=CARTESIAN_POINT('',(1.54,0.735,0.));
#717=CARTESIAN_POINT('Origin',(0.46,0.125,0.));
#718=CARTESIAN_POINT('',(0.46,0.125,0.));
#719=CARTESIAN_POINT('',(0.46,0.125,0.));
#720=CARTESIAN_POINT('',(2.,0.125,0.));
#721=CARTESIAN_POINT('',(2.,0.125,-0.77));
#722=CARTESIAN_POINT('',(2.,0.125,-2.));
#723=CARTESIAN_POINT('Origin',(0.46,0.735,0.));
#724=CARTESIAN_POINT('',(0.46,0.735,0.));
#725=CARTESIAN_POINT('',(0.46,0.735,0.));
#726=CARTESIAN_POINT('',(0.46,0.125,0.));
#727=CARTESIAN_POINT('Origin',(0.,0.735,0.));
#728=CARTESIAN_POINT('',(0.46,0.735,0.));
#729=CARTESIAN_POINT('Origin',(2.,0.,0.));
#730=CARTESIAN_POINT('',(2.,0.,0.));
#731=CARTESIAN_POINT('',(0.,0.,0.));
#732=CARTESIAN_POINT('',(2.,0.,-2.));
#733=CARTESIAN_POINT('',(0.,0.,-2.));
#734=CARTESIAN_POINT('',(2.,0.,0.));
#735=CARTESIAN_POINT('Origin',(2.,0.735,0.));
#736=CARTESIAN_POINT('',(2.,0.,0.));
#737=CARTESIAN_POINT('',(2.,0.,-2.));
#738=CARTESIAN_POINT('Origin',(1.,0.3675,0.));
#739=CARTESIAN_POINT('Origin',(1.,0.3675,-2.));
#740=UNCERTAINTY_MEASURE_WITH_UNIT(LENGTH_MEASURE(0.000393700787401575),
#746,'DISTANCE_ACCURACY_VALUE',
'Maximum model space distance between geometric entities at asserted c
onnectivities');
#741=UNCERTAINTY_MEASURE_WITH_UNIT(LENGTH_MEASURE(0.000393700787401575),
#746,'DISTANCE_ACCURACY_VALUE',
'Maximum model space distance between geometric entities at asserted c
onnectivities');
#742=(
GEOMETRIC_REPRESENTATION_CONTEXT(3)
GLOBAL_UNCERTAINTY_ASSIGNED_CONTEXT((#740))
GLOBAL_UNIT_ASSIGNED_CONTEXT((#746,#750,#751))
REPRESENTATION_CONTEXT('','3D')
);
#743=(
GEOMETRIC_REPRESENTATION_CONTEXT(3)
GLOBAL_UNCERTAINTY_ASSIGNED_CONTEXT((#741))
GLOBAL_UNIT_ASSIGNED_CONTEXT((#746,#750,#751))
REPRESENTATION_CONTEXT('','3D')
);
#744=DIMENSIONAL_EXPONENTS(1.,0.,0.,0.,0.,0.,0.);
#745=DIMENSIONAL_EXPONENTS(0.,1.,0.,0.,0.,0.,0.);
#746=(
CONVERSION_BASED_UNIT('inch',#749)
LENGTH_UNIT()
NAMED_UNIT(#744)
);
#747=(
LENGTH_UNIT()
NAMED_UNIT(*)
SI_UNIT(.MILLI.,.METRE.)
);
#748=(
LENGTH_UNIT()
NAMED_UNIT(*)
SI_UNIT(.CENTI.,.METRE.)
);
#749=LENGTH_MEASURE_WITH_UNIT(LENGTH_MEASURE(25.4),#747);
#750=(
NAMED_UNIT(*)
PLANE_ANGLE_UNIT()
SI_UNIT($,.RADIAN.)
);
#751=(
NAMED_UNIT(*)
SI_UNIT($,.STERADIAN.)
SOLID_ANGLE_UNIT()
);
#752=SHAPE_DEFINITION_REPRESENTATION(#753,#754);
#753=PRODUCT_DEFINITION_SHAPE('',$,#756);
#754=SHAPE_REPRESENTATION('',(#472),#742);
#755=PRODUCT_DEFINITION_CONTEXT('part definition',#760,'design');
#756=PRODUCT_DEFINITION('Ruler square','Ruler square',#757,#755);
#757=PRODUCT_DEFINITION_FORMATION('',$,#762);
#758=PRODUCT_RELATED_PRODUCT_CATEGORY('Ruler square','Ruler square',(#762));
#759=APPLICATION_PROTOCOL_DEFINITION('international standard',
'automotive_design',2009,#760);
#760=APPLICATION_CONTEXT(
'Core Data for Automotive Mechanical Design Process');
#761=PRODUCT_CONTEXT('part definition',#760,'mechanical');
#762=PRODUCT('Ruler square','Ruler square',$,(#761));
#763=PRESENTATION_STYLE_ASSIGNMENT((#764));
#764=SURFACE_STYLE_USAGE(.BOTH.,#767);
#765=SURFACE_STYLE_RENDERING_WITH_PROPERTIES($,#771,(#766));
#766=SURFACE_STYLE_TRANSPARENT(0.);
#767=SURFACE_SIDE_STYLE('',(#768,#765));
#768=SURFACE_STYLE_FILL_AREA(#769);
#769=FILL_AREA_STYLE('',(#770));
#770=FILL_AREA_STYLE_COLOUR('',#771);
#771=COLOUR_RGB('',0.749019607843137,0.749019607843137,0.749019607843137);
ENDSEC;
END-ISO-10303-21;
