  0
SECTION
  2
HEADER
  9
$ACADVER
  1
AC1009
  9
$INSBASE
 10
0.0
 20
0.0
 30
0.0
  9
$EXTMIN
 10
-203.1999999999999034
 20
-1.7012780255614639
 30
0.0
  9
$EXTMAX
 10
500.3361224836368137
 20
800.1000000000001364
 30
0.0
  9
$LIMMIN
 10
0.0
 20
0.0
  9
$LIMMAX
 10
12.0
 20
9.0
  9
$ORTHOMODE
 70
     0
  9
$REGENMODE
 70
     1
  9
$FILLMODE
 70
     1
  9
$QTEXTMODE
 70
     0
  9
$MIRRTEXT
 70
     0
  9
$DRAGMODE
 70
     2
  9
$LTSCALE
 40
1.0
  9
$OSMODE
 70
    39
  9
$ATTMODE
 70
     1
  9
$TEXTSIZE
 40
15.0
  9
$TRACEWID
 40
0.05
  9
$TEXTSTYLE
  7
STANDARD
  9
$CLAYER
  8
CONSTRUCTION_LINES
  9
$CELTYPE
  6
BYLAYER
  9
$CECOLOR
 62
   256
  9
$DIMSCALE
 40
1.0
  9
$DIMASZ
 40
0.18
  9
$DIMEXO
 40
0.0625
  9
$DIMDLI
 40
0.38
  9
$DIMRND
 40
0.0
  9
$DIMDLE
 40
0.0
  9
$DIMEXE
 40
0.18
  9
$DIMTP
 40
0.0
  9
$DIMTM
 40
0.0
  9
$DIMTXT
 40
0.18
  9
$DIMCEN
 40
0.09
  9
$DIMTSZ
 40
0.0
  9
$DIMTOL
 70
     0
  9
$DIMLIM
 70
     0
  9
$DIMTIH
 70
     1
  9
$DIMTOH
 70
     1
  9
$DIMSE1
 70
     0
  9
$DIMSE2
 70
     0
  9
$DIMTAD
 70
     0
  9
$DIMZIN
 70
     0
  9
$DIMBLK
  1

  9
$DIMASO
 70
     1
  9
$DIMSHO
 70
     1
  9
$DIMPOST
  1

  9
$DIMAPOST
  1

  9
$DIMALT
 70
     0
  9
$DIMALTD
 70
     2
  9
$DIMALTF
 40
25.3999999999999986
  9
$DIMLFAC
 40
1.0
  9
$DIMTOFL
 70
     0
  9
$DIMTVP
 40
0.0
  9
$DIMTIX
 70
     0
  9
$DIMSOXD
 70
     0
  9
$DIMSAH
 70
     0
  9
$DIMBLK1
  1

  9
$DIMBLK2
  1

  9
$DIMSTYLE
  2
STANDARD
  9
$DIMCLRD
 70
     0
  9
$DIMCLRE
 70
     0
  9
$DIMCLRT
 70
     0
  9
$DIMTFAC
 40
1.0
  9
$DIMGAP
 40
0.09
  9
$LUNITS
 70
     2
  9
$LUPREC
 70
     4
  9
$SKETCHINC
 40
0.1
  9
$FILLETRAD
 40
0.0
  9
$AUNITS
 70
     0
  9
$AUPREC
 70
     0
  9
$MENU
  1
.
  9
$ELEVATION
 40
0.0
  9
$PELEVATION
 40
0.0
  9
$THICKNESS
 40
0.0
  9
$LIMCHECK
 70
     0
  9
$BLIPMODE
 70
     0
  9
$CHAMFERA
 40
0.0
  9
$CHAMFERB
 40
0.0
  9
$SKPOLY
 70
     0
  9
$TDCREATE
 40
2461237.4615624998696148
  9
$TDUPDATE
 40
2461245.530439815018326
  9
$TDINDWG
 40
1.0307291667
  9
$TDUSRTIMER
 40
1.0307291667
  9
$USRTIMER
 70
     1
  9
$ANGBASE
 50
0.0
  9
$ANGDIR
 70
     0
  9
$PDMODE
 70
     0
  9
$PDSIZE
 40
0.0
  9
$PLINEWID
 40
0.0
  9
$COORDS
 70
     1
  9
$SPLFRAME
 70
     0
  9
$SPLINETYPE
 70
     6
  9
$SPLINESEGS
 70
     8
  9
$ATTDIA
 70
     1
  9
$ATTREQ
 70
     1
  9
$HANDLING
 70
     1
  9
$HANDSEED
  5
54D4
  9
$SURFTAB1
 70
     6
  9
$SURFTAB2
 70
     6
  9
$SURFTYPE
 70
     6
  9
$SURFU
 70
     6
  9
$SURFV
 70
     6
  9
$UCSNAME
  2

  9
$UCSORG
 10
0.0
 20
0.0
 30
0.0
  9
$UCSXDIR
 10
1.0
 20
0.0
 30
0.0
  9
$UCSYDIR
 10
0.0
 20
1.0
 30
0.0
  9
$PUCSNAME
  2

  9
$PUCSORG
 10
0.0
 20
0.0
 30
0.0
  9
$PUCSXDIR
 10
1.0
 20
0.0
 30
0.0
  9
$PUCSYDIR
 10
0.0
 20
1.0
 30
0.0
  9
$USERI1
 70
     0
  9
$USERI2
 70
     0
  9
$USERI3
 70
     0
  9
$USERI4
 70
     0
  9
$USERI5
 70
     0
  9
$USERR1
 40
0.0
  9
$USERR2
 40
0.0
  9
$USERR3
 40
0.0
  9
$USERR4
 40
0.0
  9
$USERR5
 40
0.0
  9
$WORLDVIEW
 70
     1
  9
$SHADEDGE
 70
     3
  9
$SHADEDIF
 70
    70
  9
$TILEMODE
 70
     1
  9
$MAXACTVP
 70
    64
  9
$PLIMCHECK
 70
     0
  9
$PEXTMIN
 10
0.0
 20
0.0
 30
0.0
  9
$PEXTMAX
 10
0.0
 20
0.0
 30
0.0
  9
$PLIMMIN
 10
0.0
 20
0.0
  9
$PLIMMAX
 10
12.0
 20
9.0
  9
$UNITMODE
 70
     0
  9
$VISRETAIN
 70
     1
  9
$PLINEGEN
 70
     0
  9
$PSLTSCALE
 70
     1
  0
ENDSEC
  0
SECTION
  2
TABLES
  0
TABLE
  2
VPORT
 70
     1
  0
VPORT
  2
*ACTIVE
 70
     0
 10
0.0
 20
0.0
 11
1.0
 21
1.0
 12
148.3378840745889988
 22
-821.2870430978364311
 13
0.0
 23
0.0
 14
0.5
 24
0.5
 15
0.5
 25
0.5
 16
0.0
 26
0.0
 36
262.5390601339537966
 17
38.1801867188817212
 27
47.8722388328310373
 37
0.0
 40
2798.0625089016971287
 41
2.2032146957520089
 42
50.0
 43
0.0
 44
0.0
 50
0.0
 51
0.0
 71
     0
 72
  1000
 73
     1
 74
     3
 75
     0
 76
     1
 77
     0
 78
     0
  0
ENDTAB
  0
TABLE
  2
LTYPE
 70
     1
  0
LTYPE
  2
CONTINUOUS
 70
     0
  3
Solid line
 72
    65
 73
     0
 40
0.0
  0
ENDTAB
  0
TABLE
  2
LAYER
 70
     6
  0
LAYER
  2
0
 70
     0
 62
     7
  6
CONTINUOUS
  0
LAYER
  2
CONSTRUCTION_LINES
 70
     0
 62
    30
  6
CONTINUOUS
  0
LAYER
  2
CUT_1
 70
     0
 62
    50
  6
CONTINUOUS
  0
LAYER
  2
BOUNDS
 70
     0
 62
   220
  6
CONTINUOUS
  0
LAYER
  2
CUT_2
 70
     0
 62
    10
  6
CONTINUOUS
  0
LAYER
  2
SCAN
 70
     0
 62
    90
  6
CONTINUOUS
  0
ENDTAB
  0
TABLE
  2
STYLE
 70
     2
  0
STYLE
  2
STANDARD
 70
     0
 40
0.0
 41
1.0
 50
0.0
 71
     0
 42
15.0
  3
txt
  4

  0
STYLE
  2
ANNOTATIVE
 70
     0
 40
0.0
 41
1.0
 50
0.0
 71
     0
 42
0.2
  3
txt
  4

  0
ENDTAB
  0
TABLE
  2
VIEW
 70
     0
  0
ENDTAB
  0
TABLE
  2
UCS
 70
     0
  0
ENDTAB
  0
TABLE
  2
APPID
 70
    10
  0
APPID
  2
ACAD
 70
     0
  0
APPID
  2
ACADANNOTATIVE
 70
     0
  0
APPID
  2
ACADANNOPO
 70
     0
  0
APPID
  2
ACAD_DSTYLE_DIMJAG
 70
     0
  0
APPID
  2
ACAD_DSTYLE_DIMTALN
 70
     0
  0
APPID
  2
ACAD_MLEADERVER
 70
     0
  0
APPID
  2
ACAD_NAV_VCDISPLAY
 70
     0
  0
APPID
  2
ACAD_EXEMPT_FROM_CAD_STANDARDS
 70
     0
  0
APPID
  2
ACAECLAYERSTANDARD
 70
     0
  0
APPID
  2
ACCMTRANSPARENCY
 70
     0
  0
ENDTAB
  0
TABLE
  2
DIMSTYLE
 70
     2
  0
DIMSTYLE
  2
STANDARD
 70
     0
  3

  4

  5

  6

  7

 40
1.0
 41
0.18
 42
0.0625
 43
0.38
 44
0.18
 45
0.0
 46
0.0
 47
0.0
 48
0.0
140
0.18
141
0.09
142
0.0
143
25.3999999999999986
144
1.0
145
0.0
146
1.0
147
0.09
 71
     0
 72
     0
 73
     1
 74
     1
 75
     0
 76
     0
 77
     0
 78
     0
170
     0
171
     2
172
     0
173
     0
174
     0
175
     0
176
     0
177
     0
178
     0
  0
DIMSTYLE
  2
ANNOTATIVE
 70
     0
  3

  4

  5

  6

  7

 40
0.0
 41
0.18
 42
0.0625
 43
0.38
 44
0.18
 45
0.0
 46
0.0
 47
0.0
 48
0.0
140
0.18
141
0.09
142
0.0
143
25.3999999999999986
144
1.0
145
0.0
146
1.0
147
0.09
 71
     0
 72
     0
 73
     1
 74
     1
 75
     0
 76
     0
 77
     0
 78
     0
170
     0
171
     2
172
     0
173
     0
174
     0
175
     0
176
     0
177
     0
178
     0
  0
ENDTAB
  0
ENDSEC
  0
SECTION
  2
BLOCKS
  0
BLOCK
  8
0
  2
$MODEL_SPACE
 70
     0
 10
0.0
 20
0.0
 30
0.0
  3
$MODEL_SPACE
  1

  0
ENDBLK
  5
4529
  8
0
  0
BLOCK
 67
     1
  8
0
  2
$PAPER_SPACE
 70
     0
 10
0.0
 20
0.0
 30
0.0
  3
$PAPER_SPACE
  1

  0
ENDBLK
  5
4525
 67
     1
  8
0
  0
BLOCK
  8
0
  2
A$C7EFE6D65
 70
     0
 10
0.0
 20
0.0
 30
0.0
  3
A$C7EFE6D65
  1

  0
POLYLINE
  5
3D74
  8
SCAN
 66
     1
 10
0.0
 20
0.0
 30
0.0
 70
     1
  0
VERTEX
  5
53E5
  8
SCAN
 10
3.3386798272672422
 20
7.866748920419468
 30
0.0
  0
VERTEX
  5
53E6
  8
SCAN
 10
2.8599629858110802
 20
9.162245527451887
 30
0.0
  0
VERTEX
  5
53E7
  8
SCAN
 10
2.8050971622456
 20
9.3044031462059138
 30
0.0
  0
VERTEX
  5
53E8
  8
SCAN
 10
2.6881940160394602
 20
9.5533235657003388
 30
0.0
  0
VERTEX
  5
53E9
  8
SCAN
 10
2.594241594694493
 20
9.7090434145588933
 30
0.0
  0
VERTEX
  5
53EA
  8
SCAN
 10
2.528618522516807
 20
9.7981088062924773
 30
0.0
  0
VERTEX
  5
53EB
  8
SCAN
 10
2.460604950647848
 20
9.8753759253549998
 30
0.0
  0
VERTEX
  5
53EC
  8
SCAN
 10
2.3902008790869318
 20
9.9408447717455601
 30
0.0
  0
VERTEX
  5
53ED
  8
SCAN
 10
2.354102405922275
 20
9.9691548426899335
 30
0.0
  0
VERTEX
  5
53EE
  8
SCAN
 10
2.3163074491053521
 20
9.9954503392968945
 30
0.0
  0
VERTEX
  5
53EF
  8
SCAN
 10
2.2304807988898561
 20
10.0429518815544707
 30
0.0
  0
VERTEX
  5
53F0
  8
SCAN
 10
2.1310051665636802
 20
10.0836674892043394
 30
0.0
  0
VERTEX
  5
53F1
  8
SCAN
 10
2.0178805521281902
 20
10.1175971622456
 30
0.0
  0
VERTEX
  5
53F2
  8
SCAN
 10
1.891106955582927
 20
10.1447409006787002
 30
0.0
  0
VERTEX
  5
53F3
  8
SCAN
 10
1.750684376927893
 20
10.1650987045036292
 30
0.0
  0
VERTEX
  5
53F4
  8
SCAN
 10
1.514458667489178
 20
10.1829117828501694
 30
0.0
  0
VERTEX
  5
53F5
  8
SCAN
 10
1.339913633559489
 20
10.1863047501542496
 30
0.0
  0
VERTEX
  5
53F6
  8
SCAN
 10
0.4762492288712111
 20
10.1863047501542496
 30
0.0
  0
VERTEX
  5
53F7
  8
SCAN
 10
0.4762492288712111
 20
12.0
 30
0.0
  0
VERTEX
  5
53F8
  8
SCAN
 10
2.0727945712524161
 20
12.0
 30
0.0
  0
VERTEX
  5
53F9
  8
SCAN
 10
2.2457877082047162
 20
11.9976769740901492
 30
0.0
  0
VERTEX
  5
53FA
  8
SCAN
 10
2.576679133251218
 20
11.9790927668109308
 30
0.0
  0
VERTEX
  5
53FB
  8
SCAN
 10
2.8874440931522241
 20
11.9419243522515899
 30
0.0
  0
VERTEX
  5
53FC
  8
SCAN
 10
3.1780825879086461
 20
11.88617173041348
 30
0.0
  0
VERTEX
  5
53FD
  8
SCAN
 10
3.4485946175200279
 20
11.8118349012952404
 30
0.0
  0
VERTEX
  5
53FE
  8
SCAN
 10
3.698980181986371
 20
11.7189138648982407
 30
0.0
  0
VERTEX
  5
53FF
  8
SCAN
 10
3.9292392813076722
 20
11.6074086212211096
 30
0.0
  0
VERTEX
  5
5400
  8
SCAN
 10
4.1393719154843884
 20
11.4773191702652202
 30
0.0
  0
VERTEX
  5
5401
  8
SCAN
 10
4.2368908081430163
 20
11.4053053670572808
 30
0.0
  0
VERTEX
  5
5402
  8
SCAN
 10
4.330968537939496
 20
11.3278165484271103
 30
0.0
  0
VERTEX
  5
5403
  8
SCAN
 10
4.51357186921632
 20
11.1539269740901403
 30
0.0
  0
VERTEX
  5
5404
  8
SCAN
 10
4.6887723627391988
 20
10.9548214836522693
 30
0.0
  0
VERTEX
  5
5405
  8
SCAN
 10
4.8565700185072274
 20
10.7305000771129908
 30
0.0
  0
VERTEX
  5
5406
  8
SCAN
 10
5.0169648365204011
 20
10.4809627544727793
 30
0.0
  0
VERTEX
  5
5407
  8
SCAN
 10
5.1699568167796306
 20
10.2062095157311905
 30
0.0
  0
VERTEX
  5
5408
  8
SCAN
 10
5.3155459592844627
 20
9.9062403608882033
 30
0.0
  0
VERTEX
  5
5409
  8
SCAN
 10
5.4537322640346702
 20
9.5810552899447394
 30
0.0
  0
VERTEX
  5
540A
  8
SCAN
 10
5.5200493522515881
 20
9.4090067859342525
 30
0.0
  0
VERTEX
  5
540B
  8
SCAN
 10
9.0512029611350044
 20
0.0
 30
0.0
  0
VERTEX
  5
540C
  8
SCAN
 10
6.2924120913016841
 20
0.0
 30
0.0
  0
VERTEX
  5
540D
  8
SCAN
 10
4.5724861196792972
 20
4.535471930906624
 30
0.0
  0
VERTEX
  5
540E
  8
SCAN
 10
2.7587908698333181
 20
0.0
 30
0.0
  0
VERTEX
  5
540F
  8
SCAN
 10
0.0
 20
0.0
 30
0.0
  0
SEQEND
  5
5410
  8
SCAN
  0
ENDBLK
  5
3D76
  8
0
  0
BLOCK
  8
0
  2
A$CB6126E47
 70
     0
 10
0.0
 20
0.0
 30
0.0
  3
A$CB6126E47
  1

  0
TEXT
  5
3D84
  8
SCAN
 10
0.0
 20
0.0
 30
0.0
 40
11.25
  1
40 KHz 1/4
  0
ENDBLK
  5
3D86
  8
0
  0
ENDSEC
  0
SECTION
  2
ENTITIES
  0
LINE
  5
263
  8
BOUNDS
 10
-1.313877516363106
 20
296.7487219744385811
 30
0.0
 11
-1.3138775163631631
 21
-1.70127802556135
 31
0.0
  0
LINE
  5
264
  8
BOUNDS
 10
-1.3138775163631631
 20
-1.70127802556135
 30
0.0
 11
500.3361224836367001
 21
-1.7012780255614639
 31
0.0
  0
LINE
  5
265
  8
BOUNDS
 10
500.3361224836367001
 20
-1.7012780255614639
 30
0.0
 11
500.3361224836368137
 21
296.7487219744385243
 31
0.0
  0
LINE
  5
266
  8
BOUNDS
 10
-1.313877516363106
 20
296.7487219744385811
 30
0.0
 11
500.3361224836368137
 21
296.7487219744385243
 31
0.0
  0
LINE
  5
26C
  8
CONSTRUCTION_LINES
 10
-1.313877516363078
 20
296.7487219744385811
 30
0.0
 11
-1.313877516363106
 21
296.7487219744385811
 31
0.0
  0
LINE
  5
288
  8
CONSTRUCTION_LINES
 10
158.6861224836368081
 20
147.5237219744385868
 30
0.0
 11
158.6861224836368081
 21
-1.7012780255614071
 31
0.0
  0
LINE
  5
289
  8
CUT_2
 10
158.6861224836368081
 20
-1.7012780255614071
 30
0.0
 11
158.6861224836368933
 21
296.7487219744385243
 31
0.0
  0
LINE
  5
294
  8
CUT_2
 10
318.6861224836368933
 20
-1.7012780255612929
 30
0.0
 11
318.6861224836368933
 21
296.7487219744385243
 31
0.0
  0
LINE
  5
29F
  8
CUT_2
 10
478.6861224836367796
 20
-1.70127802556135
 30
0.0
 11
478.6861224836368933
 21
296.7487219744385243
 31
0.0
  0
LINE
  5
2A5
  8
CONSTRUCTION_LINES
 10
318.6861224836368933
 20
296.7487219744385243
 30
0.0
 11
333.6861224836368933
 21
296.7487219744385243
 31
0.0
  0
LINE
  5
2A6
  8
CONSTRUCTION_LINES
 10
333.6861224836368933
 20
296.7487219744385243
 30
0.0
 11
333.6861224836368933
 21
281.7487219744385243
 31
0.0
  0
LINE
  5
2A7
  8
CONSTRUCTION_LINES
 10
158.6861224836368933
 20
296.7487219744385243
 30
0.0
 11
173.6861224836368933
 21
296.7487219744385243
 31
0.0
  0
LINE
  5
2A8
  8
CONSTRUCTION_LINES
 10
173.6861224836368933
 20
296.7487219744385243
 30
0.0
 11
173.6861224836368933
 21
281.7487219744385243
 31
0.0
  0
LINE
  5
2A9
  8
CONSTRUCTION_LINES
 10
-1.313877516363106
 20
296.7487219744385811
 30
0.0
 11
13.6861224836368898
 21
296.7487219744385811
 31
0.0
  0
LINE
  5
2AA
  8
CONSTRUCTION_LINES
 10
13.6861224836368898
 20
296.7487219744385811
 30
0.0
 11
13.6861224836368898
 21
281.7487219744385811
 31
0.0
  0
POLYLINE
  5
2DC
  8
SCAN
 66
     1
 10
0.0
 20
0.0
 30
0.0
 70
     1
  0
VERTEX
  5
4DD3
  8
SCAN
 10
295.3874724836368273
 20
9.0546719744386905
 30
0.0
  0
VERTEX
  5
4DD4
  8
SCAN
 10
295.6658224836368163
 20
9.1938219744386611
 30
0.0
  0
VERTEX
  5
4DD5
  8
SCAN
 10
297.7535224836369139
 20
15.1784719744385406
 30
0.0
  0
VERTEX
  5
4DD6
  8
SCAN
 10
299.0061224836367728
 20
20.8847719744387099
 30
0.0
  0
VERTEX
  5
4DD7
  8
SCAN
 10
299.5628224836369213
 20
25.4776719744385787
 30
0.0
  0
VERTEX
  5
4DD8
  8
SCAN
 10
299.8411724836369103
 20
25.7560219744385108
 30
0.0
  0
VERTEX
  5
4DD9
  8
SCAN
 10
303.18147248363681
 20
25.3384719744386189
 30
0.0
  0
VERTEX
  5
4DDA
  8
SCAN
 10
304.5732224836368118
 20
24.7817719744385307
 30
0.0
  0
VERTEX
  5
4DDB
  8
SCAN
 10
304.8515724836369145
 20
24.9209719744386007
 30
0.0
  0
VERTEX
  5
4DDC
  8
SCAN
 10
304.2948724836368228
 20
27.8437219744385516
 30
0.0
  0
VERTEX
  5
4DDD
  8
SCAN
 10
302.4855724836368154
 20
30.4880719744387001
 30
0.0
  0
VERTEX
  5
4DDE
  8
SCAN
 10
301.0937724836368261
 20
31.60152197443864
 30
0.0
  0
VERTEX
  5
4DDF
  8
SCAN
 10
300.3978724836367746
 20
29.9313719744386084
 30
0.0
  0
VERTEX
  5
4DE0
  8
SCAN
 10
299.9803724836368133
 20
29.5138219744385992
 30
0.0
  0
VERTEX
  5
4DE1
  8
SCAN
 10
299.8411724836369103
 20
29.653021974438559
 30
0.0
  0
VERTEX
  5
4DE2
  8
SCAN
 10
300.1195224836368993
 20
31.7406719744386088
 30
0.0
  0
VERTEX
  5
4DE3
  8
SCAN
 10
299.9803724836368133
 20
35.359321974438501
 30
0.0
  0
VERTEX
  5
4DE4
  8
SCAN
 10
302.9030724836367767
 20
35.4984719744387007
 30
0.0
  0
VERTEX
  5
4DE5
  8
SCAN
 10
305.6866724836369258
 20
35.0809719744385689
 30
0.0
  0
VERTEX
  5
4DE6
  8
SCAN
 10
305.5474724836367955
 20
36.89027197443869
 30
0.0
  0
VERTEX
  5
4DE7
  8
SCAN
 10
304.5732224836368118
 20
39.6738219744385674
 30
0.0
  0
VERTEX
  5
4DE8
  8
SCAN
 10
303.0422724836367934
 20
42.1790219744385126
 30
0.0
  0
VERTEX
  5
4DE9
  8
SCAN
 10
299.8411724836369103
 20
45.9368719744385814
 30
0.0
  0
VERTEX
  5
4DEA
  8
SCAN
 10
301.2329724836367859
 20
48.1637219744386016
 30
0.0
  0
VERTEX
  5
4DEB
  8
SCAN
 10
302.0680224836368097
 20
51.2256219744386385
 30
0.0
  0
VERTEX
  5
4DEC
  8
SCAN
 10
302.0680224836368097
 20
55.81847197443863
 30
0.0
  0
VERTEX
  5
4DED
  8
SCAN
 10
301.6504724836369178
 20
57.906171974438557
 30
0.0
  0
VERTEX
  5
4DEE
  8
SCAN
 10
300.6762224836368205
 20
60.2721719744385496
 30
0.0
  0
VERTEX
  5
4DEF
  8
SCAN
 10
299.0061224836367728
 20
62.3598719744385903
 30
0.0
  0
VERTEX
  5
4DF0
  8
SCAN
 10
299.5628224836369213
 20
62.4990219744385627
 30
0.0
  0
VERTEX
  5
4DF1
  8
SCAN
 10
301.5113224836368886
 20
62.0815219744385516
 30
0.0
  0
VERTEX
  5
4DF2
  8
SCAN
 10
301.5113224836368886
 20
91.0305719744387147
 30
0.0
  0
VERTEX
  5
4DF3
  8
SCAN
 10
290.0987224836367773
 20
92.9790219744385951
 30
0.0
  0
VERTEX
  5
4DF4
  8
SCAN
 10
290.0987224836367773
 20
89.499571974438652
 30
0.0
  0
VERTEX
  5
4DF5
  8
SCAN
 10
289.8203724836367883
 20
89.3604219744385659
 30
0.0
  0
VERTEX
  5
4DF6
  8
SCAN
 10
270.8921224836369106
 20
92.7006719744386345
 30
0.0
  0
VERTEX
  5
4DF7
  8
SCAN
 10
268.1085724836369195
 20
93.5357719744385463
 30
0.0
  0
VERTEX
  5
4DF8
  8
SCAN
 10
267.9693724836369029
 20
97.711071974438525
 30
0.0
  0
VERTEX
  5
4DF9
  8
SCAN
 10
258.5052724836368157
 20
99.3812219744385743
 30
0.0
  0
VERTEX
  5
4DFA
  8
SCAN
 10
257.5310224836367752
 20
96.5976719744385832
 30
0.0
  0
VERTEX
  5
4DFB
  8
SCAN
 10
256.9743224836367972
 20
93.3965719744385865
 30
0.0
  0
VERTEX
  5
4DFC
  8
SCAN
 10
257.2526724836368999
 20
89.3604219744385659
 30
0.0
  0
VERTEX
  5
4DFD
  8
SCAN
 10
257.809372483636821
 20
87.551071974438571
 30
0.0
  0
VERTEX
  5
4DFE
  8
SCAN
 10
258.5052724836368157
 20
86.4376719744386151
 30
0.0
  0
VERTEX
  5
4DFF
  8
SCAN
 10
257.1135224836368138
 20
81.4272719744386109
 30
0.0
  0
VERTEX
  5
4E00
  8
SCAN
 10
257.1135224836368138
 20
76.9735719744385847
 30
0.0
  0
VERTEX
  5
4E01
  8
SCAN
 10
257.5310224836367752
 20
75.1642219744385756
 30
0.0
  0
VERTEX
  5
4E02
  8
SCAN
 10
258.7836224836369183
 20
72.6590219744385308
 30
0.0
  0
VERTEX
  5
4E03
  8
SCAN
 10
260.5929724836367996
 20
70.8497219744386371
 30
0.0
  0
VERTEX
  5
4E04
  8
SCAN
 10
263.237322483636774
 20
69.3187719744385618
 30
0.0
  0
VERTEX
  5
4E05
  8
SCAN
 10
261.5672224836368969
 20
68.622871974438624
 30
0.0
  0
VERTEX
  5
4E06
  8
SCAN
 10
260.1754224836369076
 20
67.6486219744386403
 30
0.0
  0
VERTEX
  5
4E07
  8
SCAN
 10
258.5052724836368157
 20
65.560971974438587
 30
0.0
  0
VERTEX
  5
4E08
  8
SCAN
 10
257.809372483636821
 20
64.0300219744386254
 30
0.0
  0
VERTEX
  5
4E09
  8
SCAN
 10
256.9743224836367972
 20
59.4371219744385186
 30
0.0
  0
VERTEX
  5
4E0A
  8
SCAN
 10
256.9743224836367972
 20
55.122621974438573
 30
0.0
  0
VERTEX
  5
4E0B
  8
SCAN
 10
257.3918724836369165
 20
50.3905719744386076
 30
0.0
  0
VERTEX
  5
4E0C
  8
SCAN
 10
257.6702224836369055
 20
49.4163219744385103
 30
0.0
  0
VERTEX
  5
4E0D
  8
SCAN
 10
265.4641724836367871
 20
48.1637219744386016
 30
0.0
  0
VERTEX
  5
4E0E
  8
SCAN
 10
265.6033724836369174
 20
47.8853219744385612
 30
0.0
  0
VERTEX
  5
4E0F
  8
SCAN
 10
262.8198224836368126
 20
45.2409719744385299
 30
0.0
  0
VERTEX
  5
4E10
  8
SCAN
 10
260.0362224836367773
 20
41.7615219744386081
 30
0.0
  0
VERTEX
  5
4E11
  8
SCAN
 10
257.5310224836367752
 20
37.7253219744387067
 30
0.0
  0
VERTEX
  5
4E12
  8
SCAN
 10
254.886672483636886
 20
31.8798719744385686
 30
0.0
  0
VERTEX
  5
4E13
  8
SCAN
 10
256.6959724836368082
 20
27.982871974438531
 30
0.0
  0
VERTEX
  5
4E14
  8
SCAN
 10
259.0620224836368948
 20
23.80752197443854
 30
0.0
  0
VERTEX
  5
4E15
  8
SCAN
 10
263.3765224836367906
 20
18.1012219744387117
 30
0.0
  0
VERTEX
  5
4E16
  8
SCAN
 10
266.1600724836367817
 20
15.4568719744386804
 30
0.0
  0
VERTEX
  5
4E17
  8
SCAN
 10
268.9436224836367728
 20
13.5083719744387096
 30
0.0
  0
VERTEX
  5
4E18
  8
SCAN
 10
271.5880224836367915
 20
12.3949219744386596
 30
0.0
  0
VERTEX
  5
4E19
  8
SCAN
 10
273.8148724836368046
 20
12.1165719744386102
 30
0.0
  0
VERTEX
  5
4E1A
  8
SCAN
 10
272.4230724836368154
 20
12.5341219744385004
 30
0.0
  0
VERTEX
  5
4E1B
  8
SCAN
 10
269.2220224836368061
 20
14.3434219744386304
 30
0.0
  0
VERTEX
  5
4E1C
  8
SCAN
 10
267.1343224836368222
 20
16.0135719744385483
 30
0.0
  0
VERTEX
  5
4E1D
  8
SCAN
 10
264.6291224836368201
 20
18.5187719744386108
 30
0.0
  0
VERTEX
  5
4E1E
  8
SCAN
 10
260.8713224836367885
 20
23.5291719744386114
 30
0.0
  0
VERTEX
  5
4E1F
  8
SCAN
 10
258.9228224836368213
 20
26.8694719744385715
 30
0.0
  0
VERTEX
  5
4E20
  8
SCAN
 10
256.5567724836367915
 20
31.8798719744385686
 30
0.0
  0
VERTEX
  5
4E21
  8
SCAN
 10
259.3403724836368269
 20
33.8283719744386602
 30
0.0
  0
VERTEX
  5
4E22
  8
SCAN
 10
261.8455724836367722
 20
35.0809719744385689
 30
0.0
  0
VERTEX
  5
4E23
  8
SCAN
 10
265.4641724836367871
 20
36.333571974438712
 30
0.0
  0
VERTEX
  5
4E24
  8
SCAN
 10
269.6395224836368243
 20
37.0294719744386498
 30
0.0
  0
VERTEX
  5
4E25
  8
SCAN
 10
274.3715724836368963
 20
36.89027197443869
 30
0.0
  0
VERTEX
  5
4E26
  8
SCAN
 10
278.4077724836369043
 20
35.7768719744386203
 30
0.0
  0
VERTEX
  5
4E27
  8
SCAN
 10
281.1913224836367817
 20
34.1067219744386989
 30
0.0
  0
VERTEX
  5
4E28
  8
SCAN
 10
283.4181724836369085
 20
31.7406719744386088
 30
0.0
  0
VERTEX
  5
4E29
  8
SCAN
 10
285.227472483636916
 20
28.122071974438601
 30
0.0
  0
VERTEX
  5
4E2A
  8
SCAN
 10
285.3666724836368189
 20
30.6272719744386599
 30
0.0
  0
VERTEX
  5
4E2B
  8
SCAN
 10
284.8099224836369103
 20
32.9932719744386418
 30
0.0
  0
VERTEX
  5
4E2C
  8
SCAN
 10
283.557322483636824
 20
35.220121974438662
 30
0.0
  0
VERTEX
  5
4E2D
  8
SCAN
 10
281.0521224836368219
 20
37.5861719744385212
 30
0.0
  0
VERTEX
  5
4E2E
  8
SCAN
 10
278.4077724836369043
 20
38.977921974438523
 30
0.0
  0
VERTEX
  5
4E2F
  8
SCAN
 10
275.3458224836368231
 20
39.8130219744385272
 30
0.0
  0
VERTEX
  5
4E30
  8
SCAN
 10
271.4488724836368192
 20
39.9521719744384995
 30
0.0
  0
VERTEX
  5
4E31
  8
SCAN
 10
268.5261224836368115
 20
39.3954719744386423
 30
0.0
  0
VERTEX
  5
4E32
  8
SCAN
 10
267.8302224836368168
 20
39.5346719744387087
 30
0.0
  0
VERTEX
  5
4E33
  8
SCAN
 10
270.3354224836368189
 20
41.3439719744387091
 30
0.0
  0
VERTEX
  5
4E34
  8
SCAN
 10
272.7014724836369055
 20
42.596571974438632
 30
0.0
  0
VERTEX
  5
4E35
  8
SCAN
 10
276.7376224836368124
 20
43.8491719744385406
 30
0.0
  0
VERTEX
  5
4E36
  8
SCAN
 10
281.3304724836368109
 20
43.8491719744385406
 30
0.0
  0
VERTEX
  5
4E37
  8
SCAN
 10
283.4181724836369085
 20
43.2924719744385698
 30
0.0
  0
VERTEX
  5
4E38
  8
SCAN
 10
285.227472483636916
 20
42.4574219744385388
 30
0.0
  0
VERTEX
  5
4E39
  8
SCAN
 10
286.8976224836368942
 20
41.3439719744387091
 30
0.0
  0
VERTEX
  5
4E3A
  8
SCAN
 10
288.9852724836368907
 20
39.2563219744386629
 30
0.0
  0
VERTEX
  5
4E3B
  8
SCAN
 10
290.3770724836368231
 20
36.89027197443869
 30
0.0
  0
VERTEX
  5
4E3C
  8
SCAN
 10
290.6554224836368121
 20
36.0552219744386733
 30
0.0
  0
VERTEX
  5
4E3D
  8
SCAN
 10
290.5162224836367955
 20
35.7768719744386203
 30
0.0
  0
VERTEX
  5
4E3E
  8
SCAN
 10
287.871872483636821
 20
38.6995719744386975
 30
0.0
  0
VERTEX
  5
4E3F
  8
SCAN
 10
285.227472483636916
 20
40.3697219744386118
 30
0.0
  0
VERTEX
  5
4E40
  8
SCAN
 10
281.1913224836367817
 20
41.6223219744386483
 30
0.0
  0
VERTEX
  5
4E41
  8
SCAN
 10
277.5726724836367794
 20
41.7615219744386081
 30
0.0
  0
VERTEX
  5
4E42
  8
SCAN
 10
280.6346224836369174
 20
40.7872719744385108
 30
0.0
  0
VERTEX
  5
4E43
  8
SCAN
 10
283.2789724836367782
 20
39.1171219744387102
 30
0.0
  0
VERTEX
  5
4E44
  8
SCAN
 10
285.0883224836367731
 20
37.3078219744387027
 30
0.0
  0
VERTEX
  5
4E45
  8
SCAN
 10
286.0625224836368261
 20
35.9160219744387135
 30
0.0
  0
VERTEX
  5
4E46
  8
SCAN
 10
287.4543224836368154
 20
32.5757719744386165
 30
0.0
  0
VERTEX
  5
4E47
  8
SCAN
 10
288.0110224836367934
 20
29.096321974438581
 30
0.0
  0
VERTEX
  5
4E48
  8
SCAN
 10
287.7326724836369181
 20
24.2250719744386593
 30
0.0
  0
VERTEX
  5
4E49
  8
SCAN
 10
286.3409224836368026
 20
19.2146719744385415
 30
0.0
  0
VERTEX
  5
4E4A
  8
SCAN
 10
285.227472483636916
 20
16.9878219744385284
 30
0.0
  0
VERTEX
  5
4E4B
  8
SCAN
 10
284.5315724836368076
 20
16.1527219744385206
 30
0.0
  0
VERTEX
  5
4E4C
  8
SCAN
 10
282.8614724836368168
 20
16.0135719744385483
 30
0.0
  0
VERTEX
  5
4E4D
  8
SCAN
 10
281.1913224836367817
 20
15.0393219744385593
 30
0.0
  0
VERTEX
  5
4E4E
  8
SCAN
 10
279.7995224836367925
 20
16.2919219744387007
 30
0.0
  0
VERTEX
  5
4E4F
  8
SCAN
 10
279.5211724836369171
 20
16.8486219744385686
 30
0.0
  0
VERTEX
  5
4E50
  8
SCAN
 10
279.2428224836368145
 20
19.2146719744385415
 30
0.0
  0
VERTEX
  5
4E51
  8
SCAN
 10
280.2170724836367981
 20
24.2250719744386593
 30
0.0
  0
VERTEX
  5
4E52
  8
SCAN
 10
280.2170724836367981
 20
27.1478219744386209
 30
0.0
  0
VERTEX
  5
4E53
  8
SCAN
 10
279.7995224836367925
 20
28.6787719744386891
 30
0.0
  0
VERTEX
  5
4E54
  8
SCAN
 10
278.6861224836367796
 20
30.6272719744386599
 30
0.0
  0
VERTEX
  5
4E55
  8
SCAN
 10
276.5984224836369094
 20
32.4365719744385501
 30
0.0
  0
VERTEX
  5
4E56
  8
SCAN
 10
274.789122483636902
 20
33.1324719744387082
 30
0.0
  0
VERTEX
  5
4E57
  8
SCAN
 10
273.11897248363681
 20
33.4108219744385266
 30
0.0
  0
VERTEX
  5
4E58
  8
SCAN
 10
269.917872483636927
 20
33.4108219744385266
 30
0.0
  0
VERTEX
  5
4E59
  8
SCAN
 10
268.2477724836368225
 20
33.1324719744387082
 30
0.0
  0
VERTEX
  5
4E5A
  8
SCAN
 10
265.7425224836368898
 20
32.2974219744386914
 30
0.0
  0
VERTEX
  5
4E5B
  8
SCAN
 10
263.9332224836368255
 20
31.3231719744387114
 30
0.0
  0
VERTEX
  5
4E5C
  8
SCAN
 10
262.123922483636818
 20
29.9313719744386084
 30
0.0
  0
VERTEX
  5
4E5D
  8
SCAN
 10
261.1496724836367775
 20
28.6787719744386891
 30
0.0
  0
VERTEX
  5
4E5E
  8
SCAN
 10
265.3250224836368716
 20
29.5138219744385992
 30
0.0
  0
VERTEX
  5
4E5F
  8
SCAN
 10
268.5261224836368115
 20
29.653021974438559
 30
0.0
  0
VERTEX
  5
4E60
  8
SCAN
 10
268.6652724836367838
 20
29.5138219744385992
 30
0.0
  0
VERTEX
  5
4E61
  8
SCAN
 10
266.995172483636793
 20
27.7045219744385918
 30
0.0
  0
VERTEX
  5
4E62
  8
SCAN
 10
265.6033724836369174
 20
25.6168719744385385
 30
0.0
  0
VERTEX
  5
4E63
  8
SCAN
 10
264.6291224836368201
 20
23.1116219744386093
 30
0.0
  0
VERTEX
  5
4E64
  8
SCAN
 10
267.6910224836368002
 20
25.1993219744386501
 30
0.0
  0
VERTEX
  5
4E65
  8
SCAN
 10
270.8921224836369106
 20
26.8694719744385715
 30
0.0
  0
VERTEX
  5
4E66
  8
SCAN
 10
271.0313224836368136
 20
26.7302719744386117
 30
0.0
  0
VERTEX
  5
4E67
  8
SCAN
 10
269.917872483636927
 20
24.7817719744385307
 30
0.0
  0
VERTEX
  5
4E68
  8
SCAN
 10
268.8044724836369141
 20
21.0239719744386697
 30
0.0
  0
VERTEX
  5
4E69
  8
SCAN
 10
268.8044724836369141
 20
18.5187719744386108
 30
0.0
  0
VERTEX
  5
4E6A
  8
SCAN
 10
270.3354224836368189
 20
20.8847719744387099
 30
0.0
  0
VERTEX
  5
4E6B
  8
SCAN
 10
272.0055724836369109
 20
22.5549219744385105
 30
0.0
  0
VERTEX
  5
4E6C
  8
SCAN
 10
273.8148724836368046
 20
23.5291719744386114
 30
0.0
  0
VERTEX
  5
4E6D
  8
SCAN
 10
275.7633724836367719
 20
23.6683719744386885
 30
0.0
  0
VERTEX
  5
4E6E
  8
SCAN
 10
276.0417224836368177
 20
23.2508219744385585
 30
0.0
  0
VERTEX
  5
4E6F
  8
SCAN
 10
276.0417224836368177
 20
18.2404219744385614
 30
0.0
  0
VERTEX
  5
4E70
  8
SCAN
 10
276.8767724836368984
 20
16.0135719744385483
 30
0.0
  0
VERTEX
  5
4E71
  8
SCAN
 10
279.1036224836369115
 20
13.6475219744386909
 30
0.0
  0
VERTEX
  5
4E72
  8
SCAN
 10
281.8872224836367764
 20
11.8382219744385608
 30
0.0
  0
VERTEX
  5
4E73
  8
SCAN
 10
283.557322483636824
 20
11.2815219744387001
 30
0.0
  0
VERTEX
  5
4E74
  8
SCAN
 10
284.3924224836368921
 20
11.2815219744387001
 30
0.0
  0
VERTEX
  5
4E75
  8
SCAN
 10
285.6450224836369216
 20
12.6732719744387001
 30
0.0
  0
VERTEX
  5
4E76
  8
SCAN
 10
287.4543224836368154
 20
15.5960219744386492
 30
0.0
  0
VERTEX
  5
4E77
  8
SCAN
 10
288.9852724836368907
 20
18.7971219744386495
 30
0.0
  0
VERTEX
  5
4E78
  8
SCAN
 10
290.0987224836367773
 20
20.049721974438679
 30
0.0
  0
VERTEX
  5
4E79
  8
SCAN
 10
291.3513224836369204
 20
20.6064219744385504
 30
0.0
  0
VERTEX
  5
4E7A
  8
SCAN
 10
292.7430724836368086
 20
20.6064219744385504
 30
0.0
  0
VERTEX
  5
4E7B
  8
SCAN
 10
294.2740724836368145
 20
19.7713719744386403
 30
0.0
  0
VERTEX
  5
4E7C
  8
SCAN
 10
294.1348724836369115
 20
20.4672719744385709
 30
0.0
  0
VERTEX
  5
4E7D
  8
SCAN
 10
293.1606224836368142
 20
21.5806719744385305
 30
0.0
  0
VERTEX
  5
4E7E
  8
SCAN
 10
295.1091224836367815
 20
22.4157719744385417
 30
0.0
  0
VERTEX
  5
4E7F
  8
SCAN
 10
297.8926724836367725
 20
25.1993219744386501
 30
0.0
  0
VERTEX
  5
4E80
  8
SCAN
 10
298.0318724836369029
 20
24.7817719744385307
 30
0.0
  0
VERTEX
  5
4E81
  8
SCAN
 10
296.6400724836367999
 20
17.1269719744385007
 30
0.0
  0
VERTEX
  5
4E82
  8
SCAN
 10
295.3874724836368273
 20
12.9516219744385204
 30
0.0
  0
VERTEX
  5
4E83
  8
SCAN
 10
294.5524224836368035
 20
11.1423219744386301
 30
0.0
  0
VERTEX
  5
4E84
  8
SCAN
 10
293.9956724836367812
 20
10.7247719744385108
 30
0.0
  0
VERTEX
  5
4E85
  8
SCAN
 10
292.0472224836369151
 20
10.1680719744386394
 30
0.0
  0
VERTEX
  5
4E86
  8
SCAN
 10
287.871872483636821
 20
9.7505719744386283
 30
0.0
  0
VERTEX
  5
4E87
  8
SCAN
 10
290.6554224836368121
 20
9.1938219744386611
 30
0.0
  0
SEQEND
  5
4E88
  8
SCAN
  0
POLYLINE
  5
2DD
  8
SCAN
 66
     1
 10
0.0
 20
0.0
 30
0.0
 70
     1
  0
VERTEX
  5
4E89
  8
SCAN
 10
295.3874724836368273
 20
9.0546719744386905
 30
0.0
  0
VERTEX
  5
4E8A
  8
SCAN
 10
295.6658224836368163
 20
9.1938219744386611
 30
0.0
  0
VERTEX
  5
4E8B
  8
SCAN
 10
296.222522483636908
 20
10.4464219744385804
 30
0.0
  0
VERTEX
  5
4E8C
  8
SCAN
 10
297.7535224836369139
 20
15.1784719744385406
 30
0.0
  0
VERTEX
  5
4E8D
  8
SCAN
 10
299.0061224836367728
 20
20.8847719744387099
 30
0.0
  0
VERTEX
  5
4E8E
  8
SCAN
 10
299.5628224836369213
 20
25.4776719744385787
 30
0.0
  0
VERTEX
  5
4E8F
  8
SCAN
 10
299.8411724836369103
 20
25.7560219744385108
 30
0.0
  0
VERTEX
  5
4E90
  8
SCAN
 10
300.6762224836368205
 20
25.7560219744385108
 30
0.0
  0
VERTEX
  5
4E91
  8
SCAN
 10
303.18147248363681
 20
25.3384719744386189
 30
0.0
  0
VERTEX
  5
4E92
  8
SCAN
 10
304.5732224836368118
 20
24.7817719744385307
 30
0.0
  0
VERTEX
  5
4E93
  8
SCAN
 10
304.8515724836369145
 20
24.9209719744386007
 30
0.0
  0
VERTEX
  5
4E94
  8
SCAN
 10
304.7124224836367716
 20
26.4519219744385694
 30
0.0
  0
VERTEX
  5
4E95
  8
SCAN
 10
304.2948724836368228
 20
27.8437219744385516
 30
0.0
  0
VERTEX
  5
4E96
  8
SCAN
 10
302.4855724836368154
 20
30.4880719744387001
 30
0.0
  0
VERTEX
  5
4E97
  8
SCAN
 10
301.0937724836368261
 20
31.60152197443864
 30
0.0
  0
VERTEX
  5
4E98
  8
SCAN
 10
300.3978724836367746
 20
29.9313719744386084
 30
0.0
  0
VERTEX
  5
4E99
  8
SCAN
 10
299.9803724836368133
 20
29.5138219744385992
 30
0.0
  0
VERTEX
  5
4E9A
  8
SCAN
 10
299.8411724836369103
 20
29.653021974438559
 30
0.0
  0
VERTEX
  5
4E9B
  8
SCAN
 10
300.1195224836368993
 20
31.7406719744386088
 30
0.0
  0
VERTEX
  5
4E9C
  8
SCAN
 10
299.9803724836368133
 20
35.359321974438501
 30
0.0
  0
VERTEX
  5
4E9D
  8
SCAN
 10
302.9030724836367767
 20
35.4984719744387007
 30
0.0
  0
VERTEX
  5
4E9E
  8
SCAN
 10
305.6866724836369258
 20
35.0809719744385689
 30
0.0
  0
VERTEX
  5
4E9F
  8
SCAN
 10
305.5474724836367955
 20
36.89027197443869
 30
0.0
  0
VERTEX
  5
4EA0
  8
SCAN
 10
304.5732224836368118
 20
39.6738219744385674
 30
0.0
  0
VERTEX
  5
4EA1
  8
SCAN
 10
303.0422724836367934
 20
42.1790219744385126
 30
0.0
  0
VERTEX
  5
4EA2
  8
SCAN
 10
299.8411724836369103
 20
45.9368719744385814
 30
0.0
  0
VERTEX
  5
4EA3
  8
SCAN
 10
301.2329724836367859
 20
48.1637219744386016
 30
0.0
  0
VERTEX
  5
4EA4
  8
SCAN
 10
302.0680224836368097
 20
51.2256219744386385
 30
0.0
  0
VERTEX
  5
4EA5
  8
SCAN
 10
302.0680224836368097
 20
55.81847197443863
 30
0.0
  0
VERTEX
  5
4EA6
  8
SCAN
 10
301.6504724836369178
 20
57.906171974438557
 30
0.0
  0
VERTEX
  5
4EA7
  8
SCAN
 10
300.6762224836368205
 20
60.2721719744385496
 30
0.0
  0
VERTEX
  5
4EA8
  8
SCAN
 10
299.0061224836367728
 20
62.3598719744385903
 30
0.0
  0
VERTEX
  5
4EA9
  8
SCAN
 10
299.5628224836369213
 20
62.4990219744385627
 30
0.0
  0
VERTEX
  5
4EAA
  8
SCAN
 10
301.5113224836368886
 20
62.0815219744385516
 30
0.0
  0
VERTEX
  5
4EAB
  8
SCAN
 10
301.5113224836368886
 20
91.0305719744387147
 30
0.0
  0
VERTEX
  5
4EAC
  8
SCAN
 10
290.0987224836367773
 20
92.9790219744385951
 30
0.0
  0
VERTEX
  5
4EAD
  8
SCAN
 10
290.0987224836367773
 20
89.499571974438652
 30
0.0
  0
VERTEX
  5
4EAE
  8
SCAN
 10
289.8203724836367883
 20
89.3604219744385659
 30
0.0
  0
VERTEX
  5
4EAF
  8
SCAN
 10
268.9436224836367728
 20
93.1182219744385407
 30
0.0
  0
VERTEX
  5
4EB0
  8
SCAN
 10
268.1085724836369195
 20
93.5357719744385463
 30
0.0
  0
VERTEX
  5
4EB1
  8
SCAN
 10
267.9693724836369029
 20
97.711071974438525
 30
0.0
  0
VERTEX
  5
4EB2
  8
SCAN
 10
258.5052724836368157
 20
99.3812219744385743
 30
0.0
  0
VERTEX
  5
4EB3
  8
SCAN
 10
257.5310224836367752
 20
96.5976719744385832
 30
0.0
  0
VERTEX
  5
4EB4
  8
SCAN
 10
256.9743224836367972
 20
93.3965719744385865
 30
0.0
  0
VERTEX
  5
4EB5
  8
SCAN
 10
257.2526724836368999
 20
89.3604219744385659
 30
0.0
  0
VERTEX
  5
4EB6
  8
SCAN
 10
257.809372483636821
 20
87.551071974438571
 30
0.0
  0
VERTEX
  5
4EB7
  8
SCAN
 10
258.5052724836368157
 20
86.4376719744386151
 30
0.0
  0
VERTEX
  5
4EB8
  8
SCAN
 10
257.1135224836368138
 20
81.4272719744386109
 30
0.0
  0
VERTEX
  5
4EB9
  8
SCAN
 10
257.1135224836368138
 20
76.9735719744385847
 30
0.0
  0
VERTEX
  5
4EBA
  8
SCAN
 10
257.5310224836367752
 20
75.1642219744385756
 30
0.0
  0
VERTEX
  5
4EBB
  8
SCAN
 10
258.7836224836369183
 20
72.6590219744385308
 30
0.0
  0
VERTEX
  5
4EBC
  8
SCAN
 10
260.5929724836367996
 20
70.8497219744386371
 30
0.0
  0
VERTEX
  5
4EBD
  8
SCAN
 10
263.237322483636774
 20
69.3187719744385618
 30
0.0
  0
VERTEX
  5
4EBE
  8
SCAN
 10
261.5672224836368969
 20
68.622871974438624
 30
0.0
  0
VERTEX
  5
4EBF
  8
SCAN
 10
260.1754224836369076
 20
67.6486219744386403
 30
0.0
  0
VERTEX
  5
4EC0
  8
SCAN
 10
258.5052724836368157
 20
65.560971974438587
 30
0.0
  0
VERTEX
  5
4EC1
  8
SCAN
 10
257.809372483636821
 20
64.0300219744386254
 30
0.0
  0
VERTEX
  5
4EC2
  8
SCAN
 10
257.2526724836368999
 20
61.8031719744386123
 30
0.0
  0
VERTEX
  5
4EC3
  8
SCAN
 10
256.9743224836367972
 20
59.4371219744385186
 30
0.0
  0
VERTEX
  5
4EC4
  8
SCAN
 10
256.9743224836367972
 20
55.122621974438573
 30
0.0
  0
VERTEX
  5
4EC5
  8
SCAN
 10
257.3918724836369165
 20
50.3905719744386076
 30
0.0
  0
VERTEX
  5
4EC6
  8
SCAN
 10
257.6702224836369055
 20
49.4163219744385103
 30
0.0
  0
VERTEX
  5
4EC7
  8
SCAN
 10
265.4641724836367871
 20
48.1637219744386016
 30
0.0
  0
VERTEX
  5
4EC8
  8
SCAN
 10
265.6033724836369174
 20
47.8853219744385612
 30
0.0
  0
VERTEX
  5
4EC9
  8
SCAN
 10
262.8198224836368126
 20
45.2409719744385299
 30
0.0
  0
VERTEX
  5
4ECA
  8
SCAN
 10
260.0362224836367773
 20
41.7615219744386081
 30
0.0
  0
VERTEX
  5
4ECB
  8
SCAN
 10
257.5310224836367752
 20
37.7253219744387067
 30
0.0
  0
VERTEX
  5
4ECC
  8
SCAN
 10
254.886672483636886
 20
31.8798719744385686
 30
0.0
  0
VERTEX
  5
4ECD
  8
SCAN
 10
256.6959724836368082
 20
27.982871974438531
 30
0.0
  0
VERTEX
  5
4ECE
  8
SCAN
 10
259.0620224836368948
 20
23.80752197443854
 30
0.0
  0
VERTEX
  5
4ECF
  8
SCAN
 10
261.7063724836368124
 20
20.049721974438679
 30
0.0
  0
VERTEX
  5
4ED0
  8
SCAN
 10
263.3765224836367906
 20
18.1012219744387117
 30
0.0
  0
VERTEX
  5
4ED1
  8
SCAN
 10
266.1600724836367817
 20
15.4568719744386804
 30
0.0
  0
VERTEX
  5
4ED2
  8
SCAN
 10
268.9436224836367728
 20
13.5083719744387096
 30
0.0
  0
VERTEX
  5
4ED3
  8
SCAN
 10
271.5880224836367915
 20
12.3949219744386596
 30
0.0
  0
VERTEX
  5
4ED4
  8
SCAN
 10
273.8148724836368046
 20
12.1165719744386102
 30
0.0
  0
VERTEX
  5
4ED5
  8
SCAN
 10
272.4230724836368154
 20
12.5341219744385004
 30
0.0
  0
VERTEX
  5
4ED6
  8
SCAN
 10
269.2220224836368061
 20
14.3434219744386304
 30
0.0
  0
VERTEX
  5
4ED7
  8
SCAN
 10
267.1343224836368222
 20
16.0135719744385483
 30
0.0
  0
VERTEX
  5
4ED8
  8
SCAN
 10
264.6291224836368201
 20
18.5187719744386108
 30
0.0
  0
VERTEX
  5
4ED9
  8
SCAN
 10
260.8713224836367885
 20
23.5291719744386114
 30
0.0
  0
VERTEX
  5
4EDA
  8
SCAN
 10
258.9228224836368213
 20
26.8694719744385715
 30
0.0
  0
VERTEX
  5
4EDB
  8
SCAN
 10
256.5567724836367915
 20
31.8798719744385686
 30
0.0
  0
VERTEX
  5
4EDC
  8
SCAN
 10
259.3403724836368269
 20
33.8283719744386602
 30
0.0
  0
VERTEX
  5
4EDD
  8
SCAN
 10
261.8455724836367722
 20
35.0809719744385689
 30
0.0
  0
VERTEX
  5
4EDE
  8
SCAN
 10
265.4641724836367871
 20
36.333571974438712
 30
0.0
  0
VERTEX
  5
4EDF
  8
SCAN
 10
269.6395224836368243
 20
37.0294719744386498
 30
0.0
  0
VERTEX
  5
4EE0
  8
SCAN
 10
274.3715724836368963
 20
36.89027197443869
 30
0.0
  0
VERTEX
  5
4EE1
  8
SCAN
 10
278.4077724836369043
 20
35.7768719744386203
 30
0.0
  0
VERTEX
  5
4EE2
  8
SCAN
 10
281.1913224836367817
 20
34.1067219744386989
 30
0.0
  0
VERTEX
  5
4EE3
  8
SCAN
 10
283.4181724836369085
 20
31.7406719744386088
 30
0.0
  0
VERTEX
  5
4EE4
  8
SCAN
 10
285.227472483636916
 20
28.122071974438601
 30
0.0
  0
VERTEX
  5
4EE5
  8
SCAN
 10
285.3666724836368189
 20
30.6272719744386599
 30
0.0
  0
VERTEX
  5
4EE6
  8
SCAN
 10
284.8099224836369103
 20
32.9932719744386418
 30
0.0
  0
VERTEX
  5
4EE7
  8
SCAN
 10
283.557322483636824
 20
35.220121974438662
 30
0.0
  0
VERTEX
  5
4EE8
  8
SCAN
 10
282.4439224836368112
 20
36.4727219744386773
 30
0.0
  0
VERTEX
  5
4EE9
  8
SCAN
 10
281.0521224836368219
 20
37.5861719744385212
 30
0.0
  0
VERTEX
  5
4EEA
  8
SCAN
 10
278.4077724836369043
 20
38.977921974438523
 30
0.0
  0
VERTEX
  5
4EEB
  8
SCAN
 10
275.3458224836368231
 20
39.8130219744385272
 30
0.0
  0
VERTEX
  5
4EEC
  8
SCAN
 10
271.4488724836368192
 20
39.9521719744384995
 30
0.0
  0
VERTEX
  5
4EED
  8
SCAN
 10
269.2220224836368061
 20
39.6738219744385674
 30
0.0
  0
VERTEX
  5
4EEE
  8
SCAN
 10
268.5261224836368115
 20
39.3954719744386423
 30
0.0
  0
VERTEX
  5
4EEF
  8
SCAN
 10
267.8302224836368168
 20
39.5346719744387087
 30
0.0
  0
VERTEX
  5
4EF0
  8
SCAN
 10
270.3354224836368189
 20
41.3439719744387091
 30
0.0
  0
VERTEX
  5
4EF1
  8
SCAN
 10
272.7014724836369055
 20
42.596571974438632
 30
0.0
  0
VERTEX
  5
4EF2
  8
SCAN
 10
276.7376224836368124
 20
43.8491719744385406
 30
0.0
  0
VERTEX
  5
4EF3
  8
SCAN
 10
281.3304724836368109
 20
43.8491719744385406
 30
0.0
  0
VERTEX
  5
4EF4
  8
SCAN
 10
283.4181724836369085
 20
43.2924719744385698
 30
0.0
  0
VERTEX
  5
4EF5
  8
SCAN
 10
285.227472483636916
 20
42.4574219744385388
 30
0.0
  0
VERTEX
  5
4EF6
  8
SCAN
 10
286.8976224836368942
 20
41.3439719744387091
 30
0.0
  0
VERTEX
  5
4EF7
  8
SCAN
 10
288.9852724836368907
 20
39.2563219744386629
 30
0.0
  0
VERTEX
  5
4EF8
  8
SCAN
 10
290.3770724836368231
 20
36.89027197443869
 30
0.0
  0
VERTEX
  5
4EF9
  8
SCAN
 10
290.6554224836368121
 20
36.0552219744386733
 30
0.0
  0
VERTEX
  5
4EFA
  8
SCAN
 10
290.5162224836367955
 20
35.7768719744386203
 30
0.0
  0
VERTEX
  5
4EFB
  8
SCAN
 10
287.871872483636821
 20
38.6995719744386975
 30
0.0
  0
VERTEX
  5
4EFC
  8
SCAN
 10
285.227472483636916
 20
40.3697219744386118
 30
0.0
  0
VERTEX
  5
4EFD
  8
SCAN
 10
281.1913224836367817
 20
41.6223219744386483
 30
0.0
  0
VERTEX
  5
4EFE
  8
SCAN
 10
277.5726724836367794
 20
41.7615219744386081
 30
0.0
  0
VERTEX
  5
4EFF
  8
SCAN
 10
280.6346224836369174
 20
40.7872719744385108
 30
0.0
  0
VERTEX
  5
4F00
  8
SCAN
 10
283.2789724836367782
 20
39.1171219744387102
 30
0.0
  0
VERTEX
  5
4F01
  8
SCAN
 10
285.0883224836367731
 20
37.3078219744387027
 30
0.0
  0
VERTEX
  5
4F02
  8
SCAN
 10
286.0625224836368261
 20
35.9160219744387135
 30
0.0
  0
VERTEX
  5
4F03
  8
SCAN
 10
287.4543224836368154
 20
32.5757719744386165
 30
0.0
  0
VERTEX
  5
4F04
  8
SCAN
 10
288.0110224836367934
 20
29.096321974438581
 30
0.0
  0
VERTEX
  5
4F05
  8
SCAN
 10
287.7326724836369181
 20
24.2250719744386593
 30
0.0
  0
VERTEX
  5
4F06
  8
SCAN
 10
286.3409224836368026
 20
19.2146719744385415
 30
0.0
  0
VERTEX
  5
4F07
  8
SCAN
 10
285.227472483636916
 20
16.9878219744385284
 30
0.0
  0
VERTEX
  5
4F08
  8
SCAN
 10
284.5315724836368076
 20
16.1527219744385206
 30
0.0
  0
VERTEX
  5
4F09
  8
SCAN
 10
282.8614724836368168
 20
16.0135719744385483
 30
0.0
  0
VERTEX
  5
4F0A
  8
SCAN
 10
281.1913224836367817
 20
15.0393219744385593
 30
0.0
  0
VERTEX
  5
4F0B
  8
SCAN
 10
279.7995224836367925
 20
16.2919219744387007
 30
0.0
  0
VERTEX
  5
4F0C
  8
SCAN
 10
279.2428224836368145
 20
17.9620719744385084
 30
0.0
  0
VERTEX
  5
4F0D
  8
SCAN
 10
279.2428224836368145
 20
19.2146719744385415
 30
0.0
  0
VERTEX
  5
4F0E
  8
SCAN
 10
280.2170724836367981
 20
24.2250719744386593
 30
0.0
  0
VERTEX
  5
4F0F
  8
SCAN
 10
280.2170724836367981
 20
27.1478219744386209
 30
0.0
  0
VERTEX
  5
4F10
  8
SCAN
 10
279.7995224836367925
 20
28.6787719744386891
 30
0.0
  0
VERTEX
  5
4F11
  8
SCAN
 10
278.6861224836367796
 20
30.6272719744386599
 30
0.0
  0
VERTEX
  5
4F12
  8
SCAN
 10
276.5984224836369094
 20
32.4365719744385501
 30
0.0
  0
VERTEX
  5
4F13
  8
SCAN
 10
274.789122483636902
 20
33.1324719744387082
 30
0.0
  0
VERTEX
  5
4F14
  8
SCAN
 10
273.11897248363681
 20
33.4108219744385266
 30
0.0
  0
VERTEX
  5
4F15
  8
SCAN
 10
269.917872483636927
 20
33.4108219744385266
 30
0.0
  0
VERTEX
  5
4F16
  8
SCAN
 10
268.2477724836368225
 20
33.1324719744387082
 30
0.0
  0
VERTEX
  5
4F17
  8
SCAN
 10
265.7425224836368898
 20
32.2974219744386914
 30
0.0
  0
VERTEX
  5
4F18
  8
SCAN
 10
263.9332224836368255
 20
31.3231719744387114
 30
0.0
  0
VERTEX
  5
4F19
  8
SCAN
 10
262.123922483636818
 20
29.9313719744386084
 30
0.0
  0
VERTEX
  5
4F1A
  8
SCAN
 10
261.1496724836367775
 20
28.6787719744386891
 30
0.0
  0
VERTEX
  5
4F1B
  8
SCAN
 10
265.3250224836368716
 20
29.5138219744385992
 30
0.0
  0
VERTEX
  5
4F1C
  8
SCAN
 10
268.5261224836368115
 20
29.653021974438559
 30
0.0
  0
VERTEX
  5
4F1D
  8
SCAN
 10
268.6652724836367838
 20
29.5138219744385992
 30
0.0
  0
VERTEX
  5
4F1E
  8
SCAN
 10
266.995172483636793
 20
27.7045219744385918
 30
0.0
  0
VERTEX
  5
4F1F
  8
SCAN
 10
265.6033724836369174
 20
25.6168719744385385
 30
0.0
  0
VERTEX
  5
4F20
  8
SCAN
 10
264.6291224836368201
 20
23.1116219744386093
 30
0.0
  0
VERTEX
  5
4F21
  8
SCAN
 10
264.9074724836368091
 20
23.1116219744386093
 30
0.0
  0
VERTEX
  5
4F22
  8
SCAN
 10
267.6910224836368002
 20
25.1993219744386501
 30
0.0
  0
VERTEX
  5
4F23
  8
SCAN
 10
270.8921224836369106
 20
26.8694719744385715
 30
0.0
  0
VERTEX
  5
4F24
  8
SCAN
 10
271.0313224836368136
 20
26.7302719744386117
 30
0.0
  0
VERTEX
  5
4F25
  8
SCAN
 10
269.917872483636927
 20
24.7817719744385307
 30
0.0
  0
VERTEX
  5
4F26
  8
SCAN
 10
269.2220224836368061
 20
22.8332719744385599
 30
0.0
  0
VERTEX
  5
4F27
  8
SCAN
 10
268.8044724836369141
 20
21.0239719744386697
 30
0.0
  0
VERTEX
  5
4F28
  8
SCAN
 10
268.8044724836369141
 20
18.5187719744386108
 30
0.0
  0
VERTEX
  5
4F29
  8
SCAN
 10
270.3354224836368189
 20
20.8847719744387099
 30
0.0
  0
VERTEX
  5
4F2A
  8
SCAN
 10
272.0055724836369109
 20
22.5549219744385105
 30
0.0
  0
VERTEX
  5
4F2B
  8
SCAN
 10
273.8148724836368046
 20
23.5291719744386114
 30
0.0
  0
VERTEX
  5
4F2C
  8
SCAN
 10
275.7633724836367719
 20
23.6683719744386885
 30
0.0
  0
VERTEX
  5
4F2D
  8
SCAN
 10
276.0417224836368177
 20
23.2508219744385585
 30
0.0
  0
VERTEX
  5
4F2E
  8
SCAN
 10
276.0417224836368177
 20
18.2404219744385614
 30
0.0
  0
VERTEX
  5
4F2F
  8
SCAN
 10
276.8767724836368984
 20
16.0135719744385483
 30
0.0
  0
VERTEX
  5
4F30
  8
SCAN
 10
279.1036224836369115
 20
13.6475219744386909
 30
0.0
  0
VERTEX
  5
4F31
  8
SCAN
 10
281.8872224836367764
 20
11.8382219744385608
 30
0.0
  0
VERTEX
  5
4F32
  8
SCAN
 10
283.557322483636824
 20
11.2815219744387001
 30
0.0
  0
VERTEX
  5
4F33
  8
SCAN
 10
284.3924224836368921
 20
11.2815219744387001
 30
0.0
  0
VERTEX
  5
4F34
  8
SCAN
 10
285.6450224836369216
 20
12.6732719744387001
 30
0.0
  0
VERTEX
  5
4F35
  8
SCAN
 10
287.4543224836368154
 20
15.5960219744386492
 30
0.0
  0
VERTEX
  5
4F36
  8
SCAN
 10
288.9852724836368907
 20
18.7971219744386495
 30
0.0
  0
VERTEX
  5
4F37
  8
SCAN
 10
290.0987224836367773
 20
20.049721974438679
 30
0.0
  0
VERTEX
  5
4F38
  8
SCAN
 10
291.3513224836369204
 20
20.6064219744385504
 30
0.0
  0
VERTEX
  5
4F39
  8
SCAN
 10
292.7430724836368086
 20
20.6064219744385504
 30
0.0
  0
VERTEX
  5
4F3A
  8
SCAN
 10
294.2740724836368145
 20
19.7713719744386403
 30
0.0
  0
VERTEX
  5
4F3B
  8
SCAN
 10
294.1348724836369115
 20
20.4672719744385709
 30
0.0
  0
VERTEX
  5
4F3C
  8
SCAN
 10
293.1606224836368142
 20
21.5806719744385305
 30
0.0
  0
VERTEX
  5
4F3D
  8
SCAN
 10
295.1091224836367815
 20
22.4157719744385417
 30
0.0
  0
VERTEX
  5
4F3E
  8
SCAN
 10
297.8926724836367725
 20
25.1993219744386501
 30
0.0
  0
VERTEX
  5
4F3F
  8
SCAN
 10
298.0318724836369029
 20
24.7817719744385307
 30
0.0
  0
VERTEX
  5
4F40
  8
SCAN
 10
297.6143224836367835
 20
21.85902197443869
 30
0.0
  0
VERTEX
  5
4F41
  8
SCAN
 10
296.6400724836367999
 20
17.1269719744385007
 30
0.0
  0
VERTEX
  5
4F42
  8
SCAN
 10
295.3874724836368273
 20
12.9516219744385204
 30
0.0
  0
VERTEX
  5
4F43
  8
SCAN
 10
294.5524224836368035
 20
11.1423219744386301
 30
0.0
  0
VERTEX
  5
4F44
  8
SCAN
 10
293.9956724836367812
 20
10.7247719744385108
 30
0.0
  0
VERTEX
  5
4F45
  8
SCAN
 10
292.0472224836369151
 20
10.1680719744386394
 30
0.0
  0
VERTEX
  5
4F46
  8
SCAN
 10
289.542022483636913
 20
9.7505719744386283
 30
0.0
  0
VERTEX
  5
4F47
  8
SCAN
 10
287.871872483636821
 20
9.7505719744386283
 30
0.0
  0
VERTEX
  5
4F48
  8
SCAN
 10
290.6554224836368121
 20
9.1938219744386611
 30
0.0
  0
SEQEND
  5
4F49
  8
SCAN
  0
POLYLINE
  5
2DE
  8
SCAN
 66
     1
 10
0.0
 20
0.0
 30
0.0
 70
     1
  0
VERTEX
  5
4F4A
  8
SCAN
 10
291.7688724836368124
 20
27.5653219744386284
 30
0.0
  0
VERTEX
  5
4F4B
  8
SCAN
 10
292.0472224836369151
 20
26.7302719744386117
 30
0.0
  0
VERTEX
  5
4F4C
  8
SCAN
 10
291.4904724836367791
 20
26.4519219744385694
 30
0.0
  0
VERTEX
  5
4F4D
  8
SCAN
 10
291.2121224836369038
 20
26.7302719744386117
 30
0.0
  0
VERTEX
  5
4F4E
  8
SCAN
 10
291.2121224836369038
 20
27.2869719744386998
 30
0.0
  0
SEQEND
  5
4F4F
  8
SCAN
  0
POLYLINE
  5
2DF
  8
SCAN
 66
     1
 10
0.0
 20
0.0
 30
0.0
 70
     1
  0
VERTEX
  5
4F50
  8
SCAN
 10
291.9080224836367847
 20
30.0705719744385611
 30
0.0
  0
VERTEX
  5
4F51
  8
SCAN
 10
292.0472224836369151
 20
28.9571219744385111
 30
0.0
  0
VERTEX
  5
4F52
  8
SCAN
 10
290.7946224836367719
 20
28.122071974438601
 30
0.0
  0
VERTEX
  5
4F53
  8
SCAN
 10
290.3770724836368231
 20
26.7302719744386117
 30
0.0
  0
VERTEX
  5
4F54
  8
SCAN
 10
289.9595224836368175
 20
27.4261719744386596
 30
0.0
  0
VERTEX
  5
4F55
  8
SCAN
 10
290.0987224836367773
 20
28.8179219744386614
 30
0.0
  0
VERTEX
  5
4F56
  8
SCAN
 10
291.3513224836369204
 20
30.0705719744385611
 30
0.0
  0
SEQEND
  5
4F57
  8
SCAN
  0
POLYLINE
  5
2E0
  8
SCAN
 66
     1
 10
0.0
 20
0.0
 30
0.0
 70
     1
  0
VERTEX
  5
4F58
  8
SCAN
 10
294.8307724836367925
 20
33.5500219744386072
 30
0.0
  0
VERTEX
  5
4F59
  8
SCAN
 10
294.9699224836368217
 20
27.2869719744386998
 30
0.0
  0
VERTEX
  5
4F5A
  8
SCAN
 10
294.6915724836367758
 20
25.8952219744387016
 30
0.0
  0
VERTEX
  5
4F5B
  8
SCAN
 10
294.1348724836369115
 20
24.7817719744385307
 30
0.0
  0
VERTEX
  5
4F5C
  8
SCAN
 10
293.4389724836369169
 20
24.0858719744386995
 30
0.0
  0
VERTEX
  5
4F5D
  8
SCAN
 10
292.7430724836368086
 20
23.6683719744386885
 30
0.0
  0
VERTEX
  5
4F5E
  8
SCAN
 10
291.9080224836367847
 20
23.5291719744386114
 30
0.0
  0
VERTEX
  5
4F5F
  8
SCAN
 10
291.7688724836368124
 20
23.6683719744386885
 30
0.0
  0
VERTEX
  5
4F60
  8
SCAN
 10
292.4647224836368196
 20
24.2250719744386593
 30
0.0
  0
VERTEX
  5
4F61
  8
SCAN
 10
293.299822483636774
 20
25.8952219744387016
 30
0.0
  0
VERTEX
  5
4F62
  8
SCAN
 10
293.4389724836369169
 20
30.6272719744386599
 30
0.0
  0
VERTEX
  5
4F63
  8
SCAN
 10
293.9956724836367812
 20
32.7149219744386031
 30
0.0
  0
SEQEND
  5
4F64
  8
SCAN
  0
POLYLINE
  5
2E1
  8
SCAN
 66
     1
 10
0.0
 20
0.0
 30
0.0
 70
     1
  0
VERTEX
  5
4F65
  8
SCAN
 10
298.866922483636813
 20
65.421771974438613
 30
0.0
  0
VERTEX
  5
4F66
  8
SCAN
 10
297.4751724836368112
 20
65.421771974438613
 30
0.0
  0
VERTEX
  5
4F67
  8
SCAN
 10
267.273522483636782
 20
70.8497219744386371
 30
0.0
  0
VERTEX
  5
4F68
  8
SCAN
 10
264.2115724836368145
 20
71.8239719744386207
 30
0.0
  0
VERTEX
  5
4F69
  8
SCAN
 10
262.2630724836369041
 20
72.9374219744385641
 30
0.0
  0
VERTEX
  5
4F6A
  8
SCAN
 10
260.8713224836367885
 20
74.3291719744385659
 30
0.0
  0
VERTEX
  5
4F6B
  8
SCAN
 10
260.1754224836369076
 20
75.5817719744385954
 30
0.0
  0
VERTEX
  5
4F6C
  8
SCAN
 10
259.6187224836368159
 20
77.9478219744385683
 30
0.0
  0
VERTEX
  5
4F6D
  8
SCAN
 10
259.6187224836368159
 20
80.4530219744386272
 30
0.0
  0
VERTEX
  5
4F6E
  8
SCAN
 10
260.1754224836369076
 20
83.0974219744385323
 30
0.0
  0
VERTEX
  5
4F6F
  8
SCAN
 10
260.5929724836367996
 20
83.2365719744386183
 30
0.0
  0
VERTEX
  5
4F70
  8
SCAN
 10
265.1858224836367981
 20
82.4015219744385945
 30
0.0
  0
VERTEX
  5
4F71
  8
SCAN
 10
265.4641724836367871
 20
79.8963219744385356
 30
0.0
  0
VERTEX
  5
4F72
  8
SCAN
 10
265.8817224836369064
 20
78.9220719744385519
 30
0.0
  0
VERTEX
  5
4F73
  8
SCAN
 10
267.273522483636782
 20
77.8086219744386085
 30
0.0
  0
VERTEX
  5
4F74
  8
SCAN
 10
270.3354224836368189
 20
76.9735719744385847
 30
0.0
  0
VERTEX
  5
4F75
  8
SCAN
 10
292.7430724836368086
 20
73.0765719744386502
 30
0.0
  0
VERTEX
  5
4F76
  8
SCAN
 10
292.8822724836368252
 20
76.6952219744385246
 30
0.0
  0
VERTEX
  5
4F77
  8
SCAN
 10
298.7277724836367838
 20
75.7209719744385552
 30
0.0
  0
SEQEND
  5
4F78
  8
SCAN
  0
POLYLINE
  5
2E2
  8
SCAN
 66
     1
 10
0.0
 20
0.0
 30
0.0
 70
     1
  0
VERTEX
  5
4F79
  8
SCAN
 10
298.866922483636813
 20
78.5045219744385463
 30
0.0
  0
VERTEX
  5
4F7A
  8
SCAN
 10
298.7277724836367838
 20
78.3653219744385865
 30
0.0
  0
VERTEX
  5
4F7B
  8
SCAN
 10
270.3354224836368189
 20
83.3757719744385781
 30
0.0
  0
VERTEX
  5
4F7C
  8
SCAN
 10
266.0209224836368094
 20
84.3500219744385475
 30
0.0
  0
VERTEX
  5
4F7D
  8
SCAN
 10
263.79407248363691
 20
85.1850719744385856
 30
0.0
  0
VERTEX
  5
4F7E
  8
SCAN
 10
262.5414724836368237
 20
85.8809719744386371
 30
0.0
  0
VERTEX
  5
4F7F
  8
SCAN
 10
261.0104724836368177
 20
87.2727219744386389
 30
0.0
  0
VERTEX
  5
4F80
  8
SCAN
 10
260.4537724836367829
 20
88.1078219744386502
 30
0.0
  0
VERTEX
  5
4F81
  8
SCAN
 10
259.8970724836369186
 20
89.638771974438626
 30
0.0
  0
VERTEX
  5
4F82
  8
SCAN
 10
259.6187224836368159
 20
91.1697219744385734
 30
0.0
  0
VERTEX
  5
4F83
  8
SCAN
 10
259.6187224836368159
 20
93.6749219744386465
 30
0.0
  0
VERTEX
  5
4F84
  8
SCAN
 10
260.1754224836369076
 20
96.1801219744385776
 30
0.0
  0
VERTEX
  5
4F85
  8
SCAN
 10
261.1496724836367775
 20
96.3193219744385374
 30
0.0
  0
VERTEX
  5
4F86
  8
SCAN
 10
265.0466724836368257
 20
95.6234219744387133
 30
0.0
  0
VERTEX
  5
4F87
  8
SCAN
 10
265.3250224836368716
 20
95.3450719744385538
 30
0.0
  0
VERTEX
  5
4F88
  8
SCAN
 10
265.4641724836367871
 20
93.1182219744385407
 30
0.0
  0
VERTEX
  5
4F89
  8
SCAN
 10
265.7425224836368898
 20
92.2831719744386163
 30
0.0
  0
VERTEX
  5
4F8A
  8
SCAN
 10
266.2992724836369121
 20
91.5872719744385648
 30
0.0
  0
VERTEX
  5
4F8B
  8
SCAN
 10
267.4126724836368112
 20
90.8913719744385133
 30
0.0
  0
VERTEX
  5
4F8C
  8
SCAN
 10
270.7529724836368246
 20
90.0563219744386174
 30
0.0
  0
VERTEX
  5
4F8D
  8
SCAN
 10
278.6861224836367796
 20
88.8037219744385879
 30
0.0
  0
VERTEX
  5
4F8E
  8
SCAN
 10
292.0472224836369151
 20
86.2984719744385416
 30
0.0
  0
VERTEX
  5
4F8F
  8
SCAN
 10
292.7430724836368086
 20
86.2984719744385416
 30
0.0
  0
VERTEX
  5
4F90
  8
SCAN
 10
292.8822724836368252
 20
89.9171219744385439
 30
0.0
  0
VERTEX
  5
4F91
  8
SCAN
 10
298.7277724836367838
 20
88.8037219744385879
 30
0.0
  0
SEQEND
  5
4F92
  8
SCAN
  0
POLYLINE
  5
2E3
  8
SCAN
 66
     1
 10
0.0
 20
0.0
 30
0.0
 70
     1
  0
VERTEX
  5
4F93
  8
SCAN
 10
299.1452724836369157
 20
50.1121719744385814
 30
0.0
  0
VERTEX
  5
4F94
  8
SCAN
 10
298.4493724836369211
 20
48.5812219744386127
 30
0.0
  0
VERTEX
  5
4F95
  8
SCAN
 10
297.6143224836367835
 20
47.6069719744385225
 30
0.0
  0
VERTEX
  5
4F96
  8
SCAN
 10
295.944172483636919
 20
46.6327219744385388
 30
0.0
  0
VERTEX
  5
4F97
  8
SCAN
 10
294.8307724836367925
 20
46.3543719744385996
 30
0.0
  0
VERTEX
  5
4F98
  8
SCAN
 10
292.1863724836367737
 20
46.2152219744385206
 30
0.0
  0
VERTEX
  5
4F99
  8
SCAN
 10
286.3409224836368026
 20
47.189471974438618
 30
0.0
  0
VERTEX
  5
4F9A
  8
SCAN
 10
286.2017224836367859
 20
53.4524719744386516
 30
0.0
  0
VERTEX
  5
4F9B
  8
SCAN
 10
286.8976224836368942
 20
53.5916219744386169
 30
0.0
  0
VERTEX
  5
4F9C
  8
SCAN
 10
290.9337724836369148
 20
52.7565719744386001
 30
0.0
  0
VERTEX
  5
4F9D
  8
SCAN
 10
293.4389724836369169
 20
52.4782219744385614
 30
0.0
  0
VERTEX
  5
4F9E
  8
SCAN
 10
293.7173224836369059
 20
53.0349219744385323
 30
0.0
  0
VERTEX
  5
4F9F
  8
SCAN
 10
293.7173224836369059
 20
54.7050719744385674
 30
0.0
  0
VERTEX
  5
4FA0
  8
SCAN
 10
293.299822483636774
 20
55.4009719744386189
 30
0.0
  0
VERTEX
  5
4FA1
  8
SCAN
 10
292.603922483636893
 20
55.81847197443863
 30
0.0
  0
VERTEX
  5
4FA2
  8
SCAN
 10
290.5162224836367955
 20
56.3752219744386025
 30
0.0
  0
VERTEX
  5
4FA3
  8
SCAN
 10
268.5261224836368115
 20
60.1330219744385772
 30
0.0
  0
VERTEX
  5
4FA4
  8
SCAN
 10
266.7167724836368166
 20
59.9938219744386103
 30
0.0
  0
VERTEX
  5
4FA5
  8
SCAN
 10
266.2992724836369121
 20
59.7154719744385716
 30
0.0
  0
VERTEX
  5
4FA6
  8
SCAN
 10
266.0209224836368094
 20
59.1587719744385865
 30
0.0
  0
VERTEX
  5
4FA7
  8
SCAN
 10
265.7425224836368898
 20
57.766971974438718
 30
0.0
  0
VERTEX
  5
4FA8
  8
SCAN
 10
265.7425224836368898
 20
50.9472719744385927
 30
0.0
  0
VERTEX
  5
4FA9
  8
SCAN
 10
264.9074724836368091
 20
50.8080719744385192
 30
0.0
  0
VERTEX
  5
4FAA
  8
SCAN
 10
260.1754224836369076
 20
51.6431719744385305
 30
0.0
  0
VERTEX
  5
4FAB
  8
SCAN
 10
259.8970724836369186
 20
51.9215219744385692
 30
0.0
  0
VERTEX
  5
4FAC
  8
SCAN
 10
259.6187224836368159
 20
54.7050719744385674
 30
0.0
  0
VERTEX
  5
4FAD
  8
SCAN
 10
259.6187224836368159
 20
59.7154719744385716
 30
0.0
  0
VERTEX
  5
4FAE
  8
SCAN
 10
260.1754224836369076
 20
62.7774219744386031
 30
0.0
  0
VERTEX
  5
4FAF
  8
SCAN
 10
261.0104724836368177
 20
64.5867219744387171
 30
0.0
  0
VERTEX
  5
4FB0
  8
SCAN
 10
262.123922483636818
 20
65.8393219744385192
 30
0.0
  0
VERTEX
  5
4FB1
  8
SCAN
 10
263.237322483636774
 20
66.5352219744385707
 30
0.0
  0
VERTEX
  5
4FB2
  8
SCAN
 10
265.3250224836368716
 20
67.0919219744385344
 30
0.0
  0
VERTEX
  5
4FB3
  8
SCAN
 10
269.6395224836368243
 20
66.9527219744385889
 30
0.0
  0
VERTEX
  5
4FB4
  8
SCAN
 10
288.8461224836369183
 20
63.6124719744386198
 30
0.0
  0
VERTEX
  5
4FB5
  8
SCAN
 10
292.603922483636893
 20
62.7774219744386031
 30
0.0
  0
VERTEX
  5
4FB6
  8
SCAN
 10
295.2483224836369118
 20
61.8031719744386123
 30
0.0
  0
VERTEX
  5
4FB7
  8
SCAN
 10
296.7792724836368166
 20
60.8289219744386287
 30
0.0
  0
VERTEX
  5
4FB8
  8
SCAN
 10
297.7535224836369139
 20
59.854671974438638
 30
0.0
  0
VERTEX
  5
4FB9
  8
SCAN
 10
298.588572483636824
 20
58.6020719744386227
 30
0.0
  0
VERTEX
  5
4FBA
  8
SCAN
 10
299.2844724836368755
 20
56.514371974438582
 30
0.0
  0
VERTEX
  5
4FBB
  8
SCAN
 10
299.5628224836369213
 20
54.1483719744385823
 30
0.0
  0
VERTEX
  5
4FBC
  8
SCAN
 10
299.423622483636791
 20
51.2256219744386385
 30
0.0
  0
SEQEND
  5
4FBD
  8
SCAN
  0
POLYLINE
  5
2E4
  8
SCAN
 66
     1
 10
0.0
 20
0.0
 30
0.0
 70
     1
  0
VERTEX
  5
4FBE
  8
SCAN
 10
302.9030724836367767
 20
38.1428719744385987
 30
0.0
  0
VERTEX
  5
4FBF
  8
SCAN
 10
302.4855724836368154
 20
38.0037219744386334
 30
0.0
  0
VERTEX
  5
4FC0
  8
SCAN
 10
300.3978724836367746
 20
38.5604219744384977
 30
0.0
  0
VERTEX
  5
4FC1
  8
SCAN
 10
298.3102224836367782
 20
38.5604219744384977
 30
0.0
  0
VERTEX
  5
4FC2
  8
SCAN
 10
297.0576224836369192
 20
39.9521719744384995
 30
0.0
  0
VERTEX
  5
4FC3
  8
SCAN
 10
299.7020224836368243
 20
40.091371974438573
 30
0.0
  0
VERTEX
  5
4FC4
  8
SCAN
 10
299.1452724836369157
 20
40.6480719744386576
 30
0.0
  0
VERTEX
  5
4FC5
  8
SCAN
 10
297.1967724836367779
 20
41.7615219744386081
 30
0.0
  0
VERTEX
  5
4FC6
  8
SCAN
 10
295.6658224836368163
 20
42.1790219744385126
 30
0.0
  0
VERTEX
  5
4FC7
  8
SCAN
 10
294.6915724836367758
 20
42.1790219744385126
 30
0.0
  0
VERTEX
  5
4FC8
  8
SCAN
 10
293.1606224836368142
 20
43.5708219744386085
 30
0.0
  0
VERTEX
  5
4FC9
  8
SCAN
 10
295.6658224836368163
 20
43.7100219744385683
 30
0.0
  0
VERTEX
  5
4FCA
  8
SCAN
 10
297.4751724836368112
 20
43.2924719744385698
 30
0.0
  0
VERTEX
  5
4FCB
  8
SCAN
 10
299.0061224836367728
 20
42.596571974438632
 30
0.0
  0
VERTEX
  5
4FCC
  8
SCAN
 10
300.9546224836367969
 20
41.0656219744385567
 30
0.0
  0
VERTEX
  5
4FCD
  8
SCAN
 10
302.0680224836368097
 20
39.6738219744385674
 30
0.0
  0
SEQEND
  5
4FCE
  8
SCAN
  0
POLYLINE
  5
2F3
  8
SCAN
 66
     1
 10
0.0
 20
0.0
 30
0.0
 70
     1
  0
VERTEX
  5
4FCF
  8
SCAN
 10
455.3874724836368273
 20
9.0546719744386905
 30
0.0
  0
VERTEX
  5
4FD0
  8
SCAN
 10
455.6658224836367026
 20
9.1938219744386611
 30
0.0
  0
VERTEX
  5
4FD1
  8
SCAN
 10
457.7535224836368002
 20
15.1784719744385406
 30
0.0
  0
VERTEX
  5
4FD2
  8
SCAN
 10
459.0061224836367728
 20
20.8847719744387099
 30
0.0
  0
VERTEX
  5
4FD3
  8
SCAN
 10
459.5628224836368076
 20
25.4776719744385787
 30
0.0
  0
VERTEX
  5
4FD4
  8
SCAN
 10
459.8411724836367966
 20
25.7560219744385108
 30
0.0
  0
VERTEX
  5
4FD5
  8
SCAN
 10
463.1814724836366963
 20
25.3384719744385087
 30
0.0
  0
VERTEX
  5
4FD6
  8
SCAN
 10
464.5732224836366981
 20
24.7817719744385307
 30
0.0
  0
VERTEX
  5
4FD7
  8
SCAN
 10
464.8515724836368008
 20
24.9209719744386007
 30
0.0
  0
VERTEX
  5
4FD8
  8
SCAN
 10
464.2948724836367091
 20
27.8437219744385516
 30
0.0
  0
VERTEX
  5
4FD9
  8
SCAN
 10
462.4855724836367017
 20
30.4880719744387001
 30
0.0
  0
VERTEX
  5
4FDA
  8
SCAN
 10
461.0937724836368261
 20
31.60152197443864
 30
0.0
  0
VERTEX
  5
4FDB
  8
SCAN
 10
460.3978724836367178
 20
29.9313719744386084
 30
0.0
  0
VERTEX
  5
4FDC
  8
SCAN
 10
459.9803724836366996
 20
29.5138219744385992
 30
0.0
  0
VERTEX
  5
4FDD
  8
SCAN
 10
459.8411724836367966
 20
29.653021974438559
 30
0.0
  0
VERTEX
  5
4FDE
  8
SCAN
 10
460.1195224836367856
 20
31.7406719744386088
 30
0.0
  0
VERTEX
  5
4FDF
  8
SCAN
 10
459.9803724836366996
 20
35.359321974438501
 30
0.0
  0
VERTEX
  5
4FE0
  8
SCAN
 10
462.9030724836367767
 20
35.4984719744387007
 30
0.0
  0
VERTEX
  5
4FE1
  8
SCAN
 10
465.6866724836368121
 20
35.0809719744384481
 30
0.0
  0
VERTEX
  5
4FE2
  8
SCAN
 10
465.5474724836367955
 20
36.8902719744385834
 30
0.0
  0
VERTEX
  5
4FE3
  8
SCAN
 10
464.5732224836366981
 20
39.6738219744384466
 30
0.0
  0
VERTEX
  5
4FE4
  8
SCAN
 10
463.0422724836367934
 20
42.1790219744385126
 30
0.0
  0
VERTEX
  5
4FE5
  8
SCAN
 10
459.8411724836367966
 20
45.9368719744385814
 30
0.0
  0
VERTEX
  5
4FE6
  8
SCAN
 10
461.2329724836367859
 20
48.1637219744384879
 30
0.0
  0
VERTEX
  5
4FE7
  8
SCAN
 10
462.0680224836366961
 20
51.2256219744385177
 30
0.0
  0
VERTEX
  5
4FE8
  8
SCAN
 10
462.0680224836366961
 20
55.8184719744385305
 30
0.0
  0
VERTEX
  5
4FE9
  8
SCAN
 10
461.6504724836368041
 20
57.906171974438557
 30
0.0
  0
VERTEX
  5
4FEA
  8
SCAN
 10
460.6762224836367068
 20
60.2721719744385496
 30
0.0
  0
VERTEX
  5
4FEB
  8
SCAN
 10
459.0061224836367728
 20
62.3598719744385903
 30
0.0
  0
VERTEX
  5
4FEC
  8
SCAN
 10
459.5628224836368076
 20
62.4990219744385627
 30
0.0
  0
VERTEX
  5
4FED
  8
SCAN
 10
461.5113224836367181
 20
62.0815219744385516
 30
0.0
  0
VERTEX
  5
4FEE
  8
SCAN
 10
461.5113224836367181
 20
91.0305719744387147
 30
0.0
  0
VERTEX
  5
4FEF
  8
SCAN
 10
450.0987224836367773
 20
92.9790219744385951
 30
0.0
  0
VERTEX
  5
4FF0
  8
SCAN
 10
450.0987224836367773
 20
89.4995719744385383
 30
0.0
  0
VERTEX
  5
4FF1
  8
SCAN
 10
449.8203724836367883
 20
89.3604219744385659
 30
0.0
  0
VERTEX
  5
4FF2
  8
SCAN
 10
430.8921224836367969
 20
92.700671974438535
 30
0.0
  0
VERTEX
  5
4FF3
  8
SCAN
 10
428.1085724836368058
 20
93.5357719744385463
 30
0.0
  0
VERTEX
  5
4FF4
  8
SCAN
 10
427.9693724836367892
 20
97.711071974438525
 30
0.0
  0
VERTEX
  5
4FF5
  8
SCAN
 10
418.5052724836368157
 20
99.3812219744385743
 30
0.0
  0
VERTEX
  5
4FF6
  8
SCAN
 10
417.5310224836367752
 20
96.5976719744385832
 30
0.0
  0
VERTEX
  5
4FF7
  8
SCAN
 10
416.9743224836367972
 20
93.3965719744385865
 30
0.0
  0
VERTEX
  5
4FF8
  8
SCAN
 10
417.2526724836367862
 20
89.3604219744385659
 30
0.0
  0
VERTEX
  5
4FF9
  8
SCAN
 10
417.8093724836367073
 20
87.551071974438571
 30
0.0
  0
VERTEX
  5
4FFA
  8
SCAN
 10
418.5052724836368157
 20
86.4376719744385014
 30
0.0
  0
VERTEX
  5
4FFB
  8
SCAN
 10
417.1135224836367001
 20
81.4272719744386109
 30
0.0
  0
VERTEX
  5
4FFC
  8
SCAN
 10
417.1135224836367001
 20
76.9735719744385847
 30
0.0
  0
VERTEX
  5
4FFD
  8
SCAN
 10
417.5310224836367752
 20
75.1642219744385756
 30
0.0
  0
VERTEX
  5
4FFE
  8
SCAN
 10
418.7836224836368046
 20
72.6590219744385308
 30
0.0
  0
VERTEX
  5
4FFF
  8
SCAN
 10
420.5929724836367996
 20
70.8497219744385234
 30
0.0
  0
VERTEX
  5
5000
  8
SCAN
 10
423.237322483636774
 20
69.3187719744385618
 30
0.0
  0
VERTEX
  5
5001
  8
SCAN
 10
421.5672224836367832
 20
68.6228719744385103
 30
0.0
  0
VERTEX
  5
5002
  8
SCAN
 10
420.1754224836367939
 20
67.6486219744385266
 30
0.0
  0
VERTEX
  5
5003
  8
SCAN
 10
418.5052724836368157
 20
65.560971974438587
 30
0.0
  0
VERTEX
  5
5004
  8
SCAN
 10
417.8093724836367073
 20
64.0300219744385117
 30
0.0
  0
VERTEX
  5
5005
  8
SCAN
 10
416.9743224836367972
 20
59.4371219744385186
 30
0.0
  0
VERTEX
  5
5006
  8
SCAN
 10
416.9743224836367972
 20
55.122621974438573
 30
0.0
  0
VERTEX
  5
5007
  8
SCAN
 10
417.3918724836368028
 20
50.390571974438501
 30
0.0
  0
VERTEX
  5
5008
  8
SCAN
 10
417.6702224836367918
 20
49.4163219744385103
 30
0.0
  0
VERTEX
  5
5009
  8
SCAN
 10
425.4641724836367871
 20
48.1637219744384879
 30
0.0
  0
VERTEX
  5
500A
  8
SCAN
 10
425.6033724836369174
 20
47.8853219744385612
 30
0.0
  0
VERTEX
  5
500B
  8
SCAN
 10
422.8198224836368126
 20
45.2409719744385299
 30
0.0
  0
VERTEX
  5
500C
  8
SCAN
 10
420.0362224836367204
 20
41.7615219744384873
 30
0.0
  0
VERTEX
  5
500D
  8
SCAN
 10
417.5310224836367752
 20
37.7253219744387067
 30
0.0
  0
VERTEX
  5
500E
  8
SCAN
 10
414.8866724836368007
 20
31.8798719744385686
 30
0.0
  0
VERTEX
  5
500F
  8
SCAN
 10
416.6959724836368082
 20
27.982871974438531
 30
0.0
  0
VERTEX
  5
5010
  8
SCAN
 10
419.0620224836367811
 20
23.80752197443854
 30
0.0
  0
VERTEX
  5
5011
  8
SCAN
 10
423.3765224836367906
 20
18.1012219744387117
 30
0.0
  0
VERTEX
  5
5012
  8
SCAN
 10
426.1600724836367817
 20
15.4568719744386804
 30
0.0
  0
VERTEX
  5
5013
  8
SCAN
 10
428.9436224836367728
 20
13.5083719744387096
 30
0.0
  0
VERTEX
  5
5014
  8
SCAN
 10
431.5880224836369052
 20
12.3949219744386596
 30
0.0
  0
VERTEX
  5
5015
  8
SCAN
 10
433.8148724836369183
 20
12.1165719744386102
 30
0.0
  0
VERTEX
  5
5016
  8
SCAN
 10
432.4230724836367017
 20
12.5341219744385004
 30
0.0
  0
VERTEX
  5
5017
  8
SCAN
 10
429.2220224836368061
 20
14.3434219744386304
 30
0.0
  0
VERTEX
  5
5018
  8
SCAN
 10
427.1343224836368222
 20
16.0135719744385483
 30
0.0
  0
VERTEX
  5
5019
  8
SCAN
 10
424.6291224836368201
 20
18.5187719744386108
 30
0.0
  0
VERTEX
  5
501A
  8
SCAN
 10
420.8713224836367885
 20
23.5291719744386114
 30
0.0
  0
VERTEX
  5
501B
  8
SCAN
 10
418.9228224836368213
 20
26.8694719744385715
 30
0.0
  0
VERTEX
  5
501C
  8
SCAN
 10
416.5567724836367915
 20
31.8798719744385686
 30
0.0
  0
VERTEX
  5
501D
  8
SCAN
 10
419.3403724836368269
 20
33.8283719744386602
 30
0.0
  0
VERTEX
  5
501E
  8
SCAN
 10
421.8455724836367153
 20
35.0809719744385689
 30
0.0
  0
VERTEX
  5
501F
  8
SCAN
 10
425.4641724836367871
 20
36.333571974438712
 30
0.0
  0
VERTEX
  5
5020
  8
SCAN
 10
429.6395224836368243
 20
37.0294719744386498
 30
0.0
  0
VERTEX
  5
5021
  8
SCAN
 10
434.3715724836367826
 20
36.89027197443869
 30
0.0
  0
VERTEX
  5
5022
  8
SCAN
 10
438.4077724836367906
 20
35.7768719744386203
 30
0.0
  0
VERTEX
  5
5023
  8
SCAN
 10
441.1913224836367249
 20
34.1067219744386989
 30
0.0
  0
VERTEX
  5
5024
  8
SCAN
 10
443.4181724836367948
 20
31.7406719744386088
 30
0.0
  0
VERTEX
  5
5025
  8
SCAN
 10
445.2274724836368023
 20
28.122071974438601
 30
0.0
  0
VERTEX
  5
5026
  8
SCAN
 10
445.3666724836367052
 20
30.6272719744386599
 30
0.0
  0
VERTEX
  5
5027
  8
SCAN
 10
444.8099224836367966
 20
32.9932719744386418
 30
0.0
  0
VERTEX
  5
5028
  8
SCAN
 10
443.5573224836367103
 20
35.220121974438662
 30
0.0
  0
VERTEX
  5
5029
  8
SCAN
 10
441.0521224836367082
 20
37.5861719744385212
 30
0.0
  0
VERTEX
  5
502A
  8
SCAN
 10
438.4077724836367906
 20
38.977921974438523
 30
0.0
  0
VERTEX
  5
502B
  8
SCAN
 10
435.3458224836368231
 20
39.8130219744385272
 30
0.0
  0
VERTEX
  5
502C
  8
SCAN
 10
431.4488724836368192
 20
39.9521719744384995
 30
0.0
  0
VERTEX
  5
502D
  8
SCAN
 10
428.5261224836368115
 20
39.3954719744386423
 30
0.0
  0
VERTEX
  5
502E
  8
SCAN
 10
427.8302224836367031
 20
39.5346719744387087
 30
0.0
  0
VERTEX
  5
502F
  8
SCAN
 10
430.3354224836367052
 20
41.3439719744386025
 30
0.0
  0
VERTEX
  5
5030
  8
SCAN
 10
432.7014724836367918
 20
42.5965719744385183
 30
0.0
  0
VERTEX
  5
5031
  8
SCAN
 10
436.7376224836368124
 20
43.8491719744385406
 30
0.0
  0
VERTEX
  5
5032
  8
SCAN
 10
441.3304724836366972
 20
43.8491719744385406
 30
0.0
  0
VERTEX
  5
5033
  8
SCAN
 10
443.4181724836367948
 20
43.2924719744385698
 30
0.0
  0
VERTEX
  5
5034
  8
SCAN
 10
445.2274724836368023
 20
42.4574219744385388
 30
0.0
  0
VERTEX
  5
5035
  8
SCAN
 10
446.8976224836367805
 20
41.3439719744386025
 30
0.0
  0
VERTEX
  5
5036
  8
SCAN
 10
448.985272483636777
 20
39.2563219744386629
 30
0.0
  0
VERTEX
  5
5037
  8
SCAN
 10
450.3770724836368231
 20
36.89027197443869
 30
0.0
  0
VERTEX
  5
5038
  8
SCAN
 10
450.6554224836368121
 20
36.0552219744386733
 30
0.0
  0
VERTEX
  5
5039
  8
SCAN
 10
450.5162224836367955
 20
35.7768719744386203
 30
0.0
  0
VERTEX
  5
503A
  8
SCAN
 10
447.871872483636821
 20
38.6995719744386975
 30
0.0
  0
VERTEX
  5
503B
  8
SCAN
 10
445.2274724836368023
 20
40.3697219744386118
 30
0.0
  0
VERTEX
  5
503C
  8
SCAN
 10
441.1913224836367249
 20
41.6223219744385275
 30
0.0
  0
VERTEX
  5
503D
  8
SCAN
 10
437.5726724836367794
 20
41.7615219744384873
 30
0.0
  0
VERTEX
  5
503E
  8
SCAN
 10
440.6346224836368037
 20
40.7872719744385108
 30
0.0
  0
VERTEX
  5
503F
  8
SCAN
 10
443.2789724836367213
 20
39.1171219744387102
 30
0.0
  0
VERTEX
  5
5040
  8
SCAN
 10
445.0883224836367162
 20
37.3078219744387027
 30
0.0
  0
VERTEX
  5
5041
  8
SCAN
 10
446.0625224836368261
 20
35.9160219744387135
 30
0.0
  0
VERTEX
  5
5042
  8
SCAN
 10
447.4543224836367017
 20
32.5757719744386165
 30
0.0
  0
VERTEX
  5
5043
  8
SCAN
 10
448.0110224836367934
 20
29.096321974438581
 30
0.0
  0
VERTEX
  5
5044
  8
SCAN
 10
447.7326724836368044
 20
24.2250719744386593
 30
0.0
  0
VERTEX
  5
5045
  8
SCAN
 10
446.3409224836368026
 20
19.2146719744385415
 30
0.0
  0
VERTEX
  5
5046
  8
SCAN
 10
445.2274724836368023
 20
16.9878219744385284
 30
0.0
  0
VERTEX
  5
5047
  8
SCAN
 10
444.5315724836368076
 20
16.1527219744385206
 30
0.0
  0
VERTEX
  5
5048
  8
SCAN
 10
442.8614724836367031
 20
16.0135719744385483
 30
0.0
  0
VERTEX
  5
5049
  8
SCAN
 10
441.1913224836367249
 20
15.0393219744385593
 30
0.0
  0
VERTEX
  5
504A
  8
SCAN
 10
439.7995224836367925
 20
16.2919219744387007
 30
0.0
  0
VERTEX
  5
504B
  8
SCAN
 10
439.5211724836368035
 20
16.8486219744385686
 30
0.0
  0
VERTEX
  5
504C
  8
SCAN
 10
439.2428224836367008
 20
19.2146719744385415
 30
0.0
  0
VERTEX
  5
504D
  8
SCAN
 10
440.2170724836367981
 20
24.2250719744386593
 30
0.0
  0
VERTEX
  5
504E
  8
SCAN
 10
440.2170724836367981
 20
27.1478219744386209
 30
0.0
  0
VERTEX
  5
504F
  8
SCAN
 10
439.7995224836367925
 20
28.6787719744386891
 30
0.0
  0
VERTEX
  5
5050
  8
SCAN
 10
438.6861224836367796
 20
30.6272719744386599
 30
0.0
  0
VERTEX
  5
5051
  8
SCAN
 10
436.5984224836367957
 20
32.4365719744385501
 30
0.0
  0
VERTEX
  5
5052
  8
SCAN
 10
434.7891224836367883
 20
33.1324719744387082
 30
0.0
  0
VERTEX
  5
5053
  8
SCAN
 10
433.1189724836366963
 20
33.4108219744385266
 30
0.0
  0
VERTEX
  5
5054
  8
SCAN
 10
429.9178724836366996
 20
33.4108219744385266
 30
0.0
  0
VERTEX
  5
5055
  8
SCAN
 10
428.2477724836367088
 20
33.1324719744387082
 30
0.0
  0
VERTEX
  5
5056
  8
SCAN
 10
425.7425224836367761
 20
32.2974219744386914
 30
0.0
  0
VERTEX
  5
5057
  8
SCAN
 10
423.9332224836367118
 20
31.3231719744387114
 30
0.0
  0
VERTEX
  5
5058
  8
SCAN
 10
422.1239224836367043
 20
29.9313719744386084
 30
0.0
  0
VERTEX
  5
5059
  8
SCAN
 10
421.1496724836367775
 20
28.6787719744386891
 30
0.0
  0
VERTEX
  5
505A
  8
SCAN
 10
425.3250224836368147
 20
29.5138219744385992
 30
0.0
  0
VERTEX
  5
505B
  8
SCAN
 10
428.5261224836368115
 20
29.653021974438559
 30
0.0
  0
VERTEX
  5
505C
  8
SCAN
 10
428.6652724836367838
 20
29.5138219744385992
 30
0.0
  0
VERTEX
  5
505D
  8
SCAN
 10
426.995172483636793
 20
27.7045219744385918
 30
0.0
  0
VERTEX
  5
505E
  8
SCAN
 10
425.6033724836369174
 20
25.6168719744385385
 30
0.0
  0
VERTEX
  5
505F
  8
SCAN
 10
424.6291224836368201
 20
23.1116219744386093
 30
0.0
  0
VERTEX
  5
5060
  8
SCAN
 10
427.6910224836369139
 20
25.1993219744386501
 30
0.0
  0
VERTEX
  5
5061
  8
SCAN
 10
430.8921224836367969
 20
26.8694719744385715
 30
0.0
  0
VERTEX
  5
5062
  8
SCAN
 10
431.0313224836368136
 20
26.7302719744386117
 30
0.0
  0
VERTEX
  5
5063
  8
SCAN
 10
429.9178724836366996
 20
24.7817719744385307
 30
0.0
  0
VERTEX
  5
5064
  8
SCAN
 10
428.8044724836368005
 20
21.0239719744386697
 30
0.0
  0
VERTEX
  5
5065
  8
SCAN
 10
428.8044724836368005
 20
18.5187719744386108
 30
0.0
  0
VERTEX
  5
5066
  8
SCAN
 10
430.3354224836367052
 20
20.8847719744387099
 30
0.0
  0
VERTEX
  5
5067
  8
SCAN
 10
432.0055724836367972
 20
22.5549219744385105
 30
0.0
  0
VERTEX
  5
5068
  8
SCAN
 10
433.8148724836369183
 20
23.5291719744386114
 30
0.0
  0
VERTEX
  5
5069
  8
SCAN
 10
435.7633724836367719
 20
23.6683719744386885
 30
0.0
  0
VERTEX
  5
506A
  8
SCAN
 10
436.0417224836367041
 20
23.2508219744385585
 30
0.0
  0
VERTEX
  5
506B
  8
SCAN
 10
436.0417224836367041
 20
18.2404219744385614
 30
0.0
  0
VERTEX
  5
506C
  8
SCAN
 10
436.8767724836367847
 20
16.0135719744385483
 30
0.0
  0
VERTEX
  5
506D
  8
SCAN
 10
439.1036224836367978
 20
13.6475219744386909
 30
0.0
  0
VERTEX
  5
506E
  8
SCAN
 10
441.8872224836367764
 20
11.8382219744385608
 30
0.0
  0
VERTEX
  5
506F
  8
SCAN
 10
443.5573224836367103
 20
11.2815219744387001
 30
0.0
  0
VERTEX
  5
5070
  8
SCAN
 10
444.3924224836367785
 20
11.2815219744387001
 30
0.0
  0
VERTEX
  5
5071
  8
SCAN
 10
445.6450224836368079
 20
12.6732719744387001
 30
0.0
  0
VERTEX
  5
5072
  8
SCAN
 10
447.4543224836367017
 20
15.5960219744386492
 30
0.0
  0
VERTEX
  5
5073
  8
SCAN
 10
448.985272483636777
 20
18.7971219744386495
 30
0.0
  0
VERTEX
  5
5074
  8
SCAN
 10
450.0987224836367773
 20
20.049721974438679
 30
0.0
  0
VERTEX
  5
5075
  8
SCAN
 10
451.3513224836368067
 20
20.6064219744385504
 30
0.0
  0
VERTEX
  5
5076
  8
SCAN
 10
452.7430724836368086
 20
20.6064219744385504
 30
0.0
  0
VERTEX
  5
5077
  8
SCAN
 10
454.2740724836368145
 20
19.7713719744386403
 30
0.0
  0
VERTEX
  5
5078
  8
SCAN
 10
454.1348724836367978
 20
20.4672719744385709
 30
0.0
  0
VERTEX
  5
5079
  8
SCAN
 10
453.1606224836367005
 20
21.5806719744385305
 30
0.0
  0
VERTEX
  5
507A
  8
SCAN
 10
455.1091224836367815
 20
22.4157719744385417
 30
0.0
  0
VERTEX
  5
507B
  8
SCAN
 10
457.8926724836367725
 20
25.1993219744386501
 30
0.0
  0
VERTEX
  5
507C
  8
SCAN
 10
458.0318724836367892
 20
24.7817719744385307
 30
0.0
  0
VERTEX
  5
507D
  8
SCAN
 10
456.6400724836367999
 20
17.1269719744385007
 30
0.0
  0
VERTEX
  5
507E
  8
SCAN
 10
455.3874724836368273
 20
12.9516219744385204
 30
0.0
  0
VERTEX
  5
507F
  8
SCAN
 10
454.5524224836368035
 20
11.1423219744386301
 30
0.0
  0
VERTEX
  5
5080
  8
SCAN
 10
453.9956724836367812
 20
10.7247719744385108
 30
0.0
  0
VERTEX
  5
5081
  8
SCAN
 10
452.0472224836368014
 20
10.1680719744386394
 30
0.0
  0
VERTEX
  5
5082
  8
SCAN
 10
447.871872483636821
 20
9.7505719744386283
 30
0.0
  0
VERTEX
  5
5083
  8
SCAN
 10
450.6554224836368121
 20
9.1938219744386611
 30
0.0
  0
SEQEND
  5
5084
  8
SCAN
  0
POLYLINE
  5
2F4
  8
SCAN
 66
     1
 10
0.0
 20
0.0
 30
0.0
 70
     1
  0
VERTEX
  5
5085
  8
SCAN
 10
455.3874724836368273
 20
9.0546719744386905
 30
0.0
  0
VERTEX
  5
5086
  8
SCAN
 10
455.6658224836367026
 20
9.1938219744386611
 30
0.0
  0
VERTEX
  5
5087
  8
SCAN
 10
456.2225224836367943
 20
10.4464219744385804
 30
0.0
  0
VERTEX
  5
5088
  8
SCAN
 10
457.7535224836368002
 20
15.1784719744385406
 30
0.0
  0
VERTEX
  5
5089
  8
SCAN
 10
459.0061224836367728
 20
20.8847719744387099
 30
0.0
  0
VERTEX
  5
508A
  8
SCAN
 10
459.5628224836368076
 20
25.4776719744385787
 30
0.0
  0
VERTEX
  5
508B
  8
SCAN
 10
459.8411724836367966
 20
25.7560219744385108
 30
0.0
  0
VERTEX
  5
508C
  8
SCAN
 10
460.6762224836367068
 20
25.7560219744385108
 30
0.0
  0
VERTEX
  5
508D
  8
SCAN
 10
463.1814724836366963
 20
25.3384719744385087
 30
0.0
  0
VERTEX
  5
508E
  8
SCAN
 10
464.5732224836366981
 20
24.7817719744385307
 30
0.0
  0
VERTEX
  5
508F
  8
SCAN
 10
464.8515724836368008
 20
24.9209719744386007
 30
0.0
  0
VERTEX
  5
5090
  8
SCAN
 10
464.7124224836367148
 20
26.4519219744384486
 30
0.0
  0
VERTEX
  5
5091
  8
SCAN
 10
464.2948724836367091
 20
27.8437219744385516
 30
0.0
  0
VERTEX
  5
5092
  8
SCAN
 10
462.4855724836367017
 20
30.4880719744387001
 30
0.0
  0
VERTEX
  5
5093
  8
SCAN
 10
461.0937724836368261
 20
31.60152197443864
 30
0.0
  0
VERTEX
  5
5094
  8
SCAN
 10
460.3978724836367178
 20
29.9313719744386084
 30
0.0
  0
VERTEX
  5
5095
  8
SCAN
 10
459.9803724836366996
 20
29.5138219744385992
 30
0.0
  0
VERTEX
  5
5096
  8
SCAN
 10
459.8411724836367966
 20
29.653021974438559
 30
0.0
  0
VERTEX
  5
5097
  8
SCAN
 10
460.1195224836367856
 20
31.7406719744386088
 30
0.0
  0
VERTEX
  5
5098
  8
SCAN
 10
459.9803724836366996
 20
35.359321974438501
 30
0.0
  0
VERTEX
  5
5099
  8
SCAN
 10
462.9030724836367767
 20
35.4984719744387007
 30
0.0
  0
VERTEX
  5
509A
  8
SCAN
 10
465.6866724836368121
 20
35.0809719744384481
 30
0.0
  0
VERTEX
  5
509B
  8
SCAN
 10
465.5474724836367955
 20
36.8902719744385834
 30
0.0
  0
VERTEX
  5
509C
  8
SCAN
 10
464.5732224836366981
 20
39.6738219744384466
 30
0.0
  0
VERTEX
  5
509D
  8
SCAN
 10
463.0422724836367934
 20
42.1790219744385126
 30
0.0
  0
VERTEX
  5
509E
  8
SCAN
 10
459.8411724836367966
 20
45.9368719744385814
 30
0.0
  0
VERTEX
  5
509F
  8
SCAN
 10
461.2329724836367859
 20
48.1637219744384879
 30
0.0
  0
VERTEX
  5
50A0
  8
SCAN
 10
462.0680224836366961
 20
51.2256219744385177
 30
0.0
  0
VERTEX
  5
50A1
  8
SCAN
 10
462.0680224836366961
 20
55.8184719744385305
 30
0.0
  0
VERTEX
  5
50A2
  8
SCAN
 10
461.6504724836368041
 20
57.906171974438557
 30
0.0
  0
VERTEX
  5
50A3
  8
SCAN
 10
460.6762224836367068
 20
60.2721719744385496
 30
0.0
  0
VERTEX
  5
50A4
  8
SCAN
 10
459.0061224836367728
 20
62.3598719744385903
 30
0.0
  0
VERTEX
  5
50A5
  8
SCAN
 10
459.5628224836368076
 20
62.4990219744385627
 30
0.0
  0
VERTEX
  5
50A6
  8
SCAN
 10
461.5113224836367181
 20
62.0815219744385516
 30
0.0
  0
VERTEX
  5
50A7
  8
SCAN
 10
461.5113224836367181
 20
91.0305719744387147
 30
0.0
  0
VERTEX
  5
50A8
  8
SCAN
 10
450.0987224836367773
 20
92.9790219744385951
 30
0.0
  0
VERTEX
  5
50A9
  8
SCAN
 10
450.0987224836367773
 20
89.4995719744385383
 30
0.0
  0
VERTEX
  5
50AA
  8
SCAN
 10
449.8203724836367883
 20
89.3604219744385659
 30
0.0
  0
VERTEX
  5
50AB
  8
SCAN
 10
428.9436224836367728
 20
93.1182219744385407
 30
0.0
  0
VERTEX
  5
50AC
  8
SCAN
 10
428.1085724836368058
 20
93.5357719744385463
 30
0.0
  0
VERTEX
  5
50AD
  8
SCAN
 10
427.9693724836367892
 20
97.711071974438525
 30
0.0
  0
VERTEX
  5
50AE
  8
SCAN
 10
418.5052724836368157
 20
99.3812219744385743
 30
0.0
  0
VERTEX
  5
50AF
  8
SCAN
 10
417.5310224836367752
 20
96.5976719744385832
 30
0.0
  0
VERTEX
  5
50B0
  8
SCAN
 10
416.9743224836367972
 20
93.3965719744385865
 30
0.0
  0
VERTEX
  5
50B1
  8
SCAN
 10
417.2526724836367862
 20
89.3604219744385659
 30
0.0
  0
VERTEX
  5
50B2
  8
SCAN
 10
417.8093724836367073
 20
87.551071974438571
 30
0.0
  0
VERTEX
  5
50B3
  8
SCAN
 10
418.5052724836368157
 20
86.4376719744385014
 30
0.0
  0
VERTEX
  5
50B4
  8
SCAN
 10
417.1135224836367001
 20
81.4272719744386109
 30
0.0
  0
VERTEX
  5
50B5
  8
SCAN
 10
417.1135224836367001
 20
76.9735719744385847
 30
0.0
  0
VERTEX
  5
50B6
  8
SCAN
 10
417.5310224836367752
 20
75.1642219744385756
 30
0.0
  0
VERTEX
  5
50B7
  8
SCAN
 10
418.7836224836368046
 20
72.6590219744385308
 30
0.0
  0
VERTEX
  5
50B8
  8
SCAN
 10
420.5929724836367996
 20
70.8497219744385234
 30
0.0
  0
VERTEX
  5
50B9
  8
SCAN
 10
423.237322483636774
 20
69.3187719744385618
 30
0.0
  0
VERTEX
  5
50BA
  8
SCAN
 10
421.5672224836367832
 20
68.6228719744385103
 30
0.0
  0
VERTEX
  5
50BB
  8
SCAN
 10
420.1754224836367939
 20
67.6486219744385266
 30
0.0
  0
VERTEX
  5
50BC
  8
SCAN
 10
418.5052724836368157
 20
65.560971974438587
 30
0.0
  0
VERTEX
  5
50BD
  8
SCAN
 10
417.8093724836367073
 20
64.0300219744385117
 30
0.0
  0
VERTEX
  5
50BE
  8
SCAN
 10
417.2526724836367862
 20
61.8031719744386123
 30
0.0
  0
VERTEX
  5
50BF
  8
SCAN
 10
416.9743224836367972
 20
59.4371219744385186
 30
0.0
  0
VERTEX
  5
50C0
  8
SCAN
 10
416.9743224836367972
 20
55.122621974438573
 30
0.0
  0
VERTEX
  5
50C1
  8
SCAN
 10
417.3918724836368028
 20
50.390571974438501
 30
0.0
  0
VERTEX
  5
50C2
  8
SCAN
 10
417.6702224836367918
 20
49.4163219744385103
 30
0.0
  0
VERTEX
  5
50C3
  8
SCAN
 10
425.4641724836367871
 20
48.1637219744384879
 30
0.0
  0
VERTEX
  5
50C4
  8
SCAN
 10
425.6033724836369174
 20
47.8853219744385612
 30
0.0
  0
VERTEX
  5
50C5
  8
SCAN
 10
422.8198224836368126
 20
45.2409719744385299
 30
0.0
  0
VERTEX
  5
50C6
  8
SCAN
 10
420.0362224836367204
 20
41.7615219744384873
 30
0.0
  0
VERTEX
  5
50C7
  8
SCAN
 10
417.5310224836367752
 20
37.7253219744387067
 30
0.0
  0
VERTEX
  5
50C8
  8
SCAN
 10
414.8866724836368007
 20
31.8798719744385686
 30
0.0
  0
VERTEX
  5
50C9
  8
SCAN
 10
416.6959724836368082
 20
27.982871974438531
 30
0.0
  0
VERTEX
  5
50CA
  8
SCAN
 10
419.0620224836367811
 20
23.80752197443854
 30
0.0
  0
VERTEX
  5
50CB
  8
SCAN
 10
421.7063724836368124
 20
20.049721974438679
 30
0.0
  0
VERTEX
  5
50CC
  8
SCAN
 10
423.3765224836367906
 20
18.1012219744387117
 30
0.0
  0
VERTEX
  5
50CD
  8
SCAN
 10
426.1600724836367817
 20
15.4568719744386804
 30
0.0
  0
VERTEX
  5
50CE
  8
SCAN
 10
428.9436224836367728
 20
13.5083719744387096
 30
0.0
  0
VERTEX
  5
50CF
  8
SCAN
 10
431.5880224836369052
 20
12.3949219744386596
 30
0.0
  0
VERTEX
  5
50D0
  8
SCAN
 10
433.8148724836369183
 20
12.1165719744386102
 30
0.0
  0
VERTEX
  5
50D1
  8
SCAN
 10
432.4230724836367017
 20
12.5341219744385004
 30
0.0
  0
VERTEX
  5
50D2
  8
SCAN
 10
429.2220224836368061
 20
14.3434219744386304
 30
0.0
  0
VERTEX
  5
50D3
  8
SCAN
 10
427.1343224836368222
 20
16.0135719744385483
 30
0.0
  0
VERTEX
  5
50D4
  8
SCAN
 10
424.6291224836368201
 20
18.5187719744386108
 30
0.0
  0
VERTEX
  5
50D5
  8
SCAN
 10
420.8713224836367885
 20
23.5291719744386114
 30
0.0
  0
VERTEX
  5
50D6
  8
SCAN
 10
418.9228224836368213
 20
26.8694719744385715
 30
0.0
  0
VERTEX
  5
50D7
  8
SCAN
 10
416.5567724836367915
 20
31.8798719744385686
 30
0.0
  0
VERTEX
  5
50D8
  8
SCAN
 10
419.3403724836368269
 20
33.8283719744386602
 30
0.0
  0
VERTEX
  5
50D9
  8
SCAN
 10
421.8455724836367153
 20
35.0809719744385689
 30
0.0
  0
VERTEX
  5
50DA
  8
SCAN
 10
425.4641724836367871
 20
36.333571974438712
 30
0.0
  0
VERTEX
  5
50DB
  8
SCAN
 10
429.6395224836368243
 20
37.0294719744386498
 30
0.0
  0
VERTEX
  5
50DC
  8
SCAN
 10
434.3715724836367826
 20
36.89027197443869
 30
0.0
  0
VERTEX
  5
50DD
  8
SCAN
 10
438.4077724836367906
 20
35.7768719744386203
 30
0.0
  0
VERTEX
  5
50DE
  8
SCAN
 10
441.1913224836367249
 20
34.1067219744386989
 30
0.0
  0
VERTEX
  5
50DF
  8
SCAN
 10
443.4181724836367948
 20
31.7406719744386088
 30
0.0
  0
VERTEX
  5
50E0
  8
SCAN
 10
445.2274724836368023
 20
28.122071974438601
 30
0.0
  0
VERTEX
  5
50E1
  8
SCAN
 10
445.3666724836367052
 20
30.6272719744386599
 30
0.0
  0
VERTEX
  5
50E2
  8
SCAN
 10
444.8099224836367966
 20
32.9932719744386418
 30
0.0
  0
VERTEX
  5
50E3
  8
SCAN
 10
443.5573224836367103
 20
35.220121974438662
 30
0.0
  0
VERTEX
  5
50E4
  8
SCAN
 10
442.4439224836368112
 20
36.4727219744386773
 30
0.0
  0
VERTEX
  5
50E5
  8
SCAN
 10
441.0521224836367082
 20
37.5861719744385212
 30
0.0
  0
VERTEX
  5
50E6
  8
SCAN
 10
438.4077724836367906
 20
38.977921974438523
 30
0.0
  0
VERTEX
  5
50E7
  8
SCAN
 10
435.3458224836368231
 20
39.8130219744385272
 30
0.0
  0
VERTEX
  5
50E8
  8
SCAN
 10
431.4488724836368192
 20
39.9521719744384995
 30
0.0
  0
VERTEX
  5
50E9
  8
SCAN
 10
429.2220224836368061
 20
39.6738219744385674
 30
0.0
  0
VERTEX
  5
50EA
  8
SCAN
 10
428.5261224836368115
 20
39.3954719744386423
 30
0.0
  0
VERTEX
  5
50EB
  8
SCAN
 10
427.8302224836367031
 20
39.5346719744387087
 30
0.0
  0
VERTEX
  5
50EC
  8
SCAN
 10
430.3354224836367052
 20
41.3439719744386025
 30
0.0
  0
VERTEX
  5
50ED
  8
SCAN
 10
432.7014724836367918
 20
42.5965719744385183
 30
0.0
  0
VERTEX
  5
50EE
  8
SCAN
 10
436.7376224836368124
 20
43.8491719744385406
 30
0.0
  0
VERTEX
  5
50EF
  8
SCAN
 10
441.3304724836366972
 20
43.8491719744385406
 30
0.0
  0
VERTEX
  5
50F0
  8
SCAN
 10
443.4181724836367948
 20
43.2924719744385698
 30
0.0
  0
VERTEX
  5
50F1
  8
SCAN
 10
445.2274724836368023
 20
42.4574219744385388
 30
0.0
  0
VERTEX
  5
50F2
  8
SCAN
 10
446.8976224836367805
 20
41.3439719744386025
 30
0.0
  0
VERTEX
  5
50F3
  8
SCAN
 10
448.985272483636777
 20
39.2563219744386629
 30
0.0
  0
VERTEX
  5
50F4
  8
SCAN
 10
450.3770724836368231
 20
36.89027197443869
 30
0.0
  0
VERTEX
  5
50F5
  8
SCAN
 10
450.6554224836368121
 20
36.0552219744386733
 30
0.0
  0
VERTEX
  5
50F6
  8
SCAN
 10
450.5162224836367955
 20
35.7768719744386203
 30
0.0
  0
VERTEX
  5
50F7
  8
SCAN
 10
447.871872483636821
 20
38.6995719744386975
 30
0.0
  0
VERTEX
  5
50F8
  8
SCAN
 10
445.2274724836368023
 20
40.3697219744386118
 30
0.0
  0
VERTEX
  5
50F9
  8
SCAN
 10
441.1913224836367249
 20
41.6223219744385275
 30
0.0
  0
VERTEX
  5
50FA
  8
SCAN
 10
437.5726724836367794
 20
41.7615219744384873
 30
0.0
  0
VERTEX
  5
50FB
  8
SCAN
 10
440.6346224836368037
 20
40.7872719744385108
 30
0.0
  0
VERTEX
  5
50FC
  8
SCAN
 10
443.2789724836367213
 20
39.1171219744387102
 30
0.0
  0
VERTEX
  5
50FD
  8
SCAN
 10
445.0883224836367162
 20
37.3078219744387027
 30
0.0
  0
VERTEX
  5
50FE
  8
SCAN
 10
446.0625224836368261
 20
35.9160219744387135
 30
0.0
  0
VERTEX
  5
50FF
  8
SCAN
 10
447.4543224836367017
 20
32.5757719744386165
 30
0.0
  0
VERTEX
  5
5100
  8
SCAN
 10
448.0110224836367934
 20
29.096321974438581
 30
0.0
  0
VERTEX
  5
5101
  8
SCAN
 10
447.7326724836368044
 20
24.2250719744386593
 30
0.0
  0
VERTEX
  5
5102
  8
SCAN
 10
446.3409224836368026
 20
19.2146719744385415
 30
0.0
  0
VERTEX
  5
5103
  8
SCAN
 10
445.2274724836368023
 20
16.9878219744385284
 30
0.0
  0
VERTEX
  5
5104
  8
SCAN
 10
444.5315724836368076
 20
16.1527219744385206
 30
0.0
  0
VERTEX
  5
5105
  8
SCAN
 10
442.8614724836367031
 20
16.0135719744385483
 30
0.0
  0
VERTEX
  5
5106
  8
SCAN
 10
441.1913224836367249
 20
15.0393219744385593
 30
0.0
  0
VERTEX
  5
5107
  8
SCAN
 10
439.7995224836367925
 20
16.2919219744387007
 30
0.0
  0
VERTEX
  5
5108
  8
SCAN
 10
439.2428224836367008
 20
17.9620719744385084
 30
0.0
  0
VERTEX
  5
5109
  8
SCAN
 10
439.2428224836367008
 20
19.2146719744385415
 30
0.0
  0
VERTEX
  5
510A
  8
SCAN
 10
440.2170724836367981
 20
24.2250719744386593
 30
0.0
  0
VERTEX
  5
510B
  8
SCAN
 10
440.2170724836367981
 20
27.1478219744386209
 30
0.0
  0
VERTEX
  5
510C
  8
SCAN
 10
439.7995224836367925
 20
28.6787719744386891
 30
0.0
  0
VERTEX
  5
510D
  8
SCAN
 10
438.6861224836367796
 20
30.6272719744386599
 30
0.0
  0
VERTEX
  5
510E
  8
SCAN
 10
436.5984224836367957
 20
32.4365719744385501
 30
0.0
  0
VERTEX
  5
510F
  8
SCAN
 10
434.7891224836367883
 20
33.1324719744387082
 30
0.0
  0
VERTEX
  5
5110
  8
SCAN
 10
433.1189724836366963
 20
33.4108219744385266
 30
0.0
  0
VERTEX
  5
5111
  8
SCAN
 10
429.9178724836366996
 20
33.4108219744385266
 30
0.0
  0
VERTEX
  5
5112
  8
SCAN
 10
428.2477724836367088
 20
33.1324719744387082
 30
0.0
  0
VERTEX
  5
5113
  8
SCAN
 10
425.7425224836367761
 20
32.2974219744386914
 30
0.0
  0
VERTEX
  5
5114
  8
SCAN
 10
423.9332224836367118
 20
31.3231719744387114
 30
0.0
  0
VERTEX
  5
5115
  8
SCAN
 10
422.1239224836367043
 20
29.9313719744386084
 30
0.0
  0
VERTEX
  5
5116
  8
SCAN
 10
421.1496724836367775
 20
28.6787719744386891
 30
0.0
  0
VERTEX
  5
5117
  8
SCAN
 10
425.3250224836368147
 20
29.5138219744385992
 30
0.0
  0
VERTEX
  5
5118
  8
SCAN
 10
428.5261224836368115
 20
29.653021974438559
 30
0.0
  0
VERTEX
  5
5119
  8
SCAN
 10
428.6652724836367838
 20
29.5138219744385992
 30
0.0
  0
VERTEX
  5
511A
  8
SCAN
 10
426.995172483636793
 20
27.7045219744385918
 30
0.0
  0
VERTEX
  5
511B
  8
SCAN
 10
425.6033724836369174
 20
25.6168719744385385
 30
0.0
  0
VERTEX
  5
511C
  8
SCAN
 10
424.6291224836368201
 20
23.1116219744386093
 30
0.0
  0
VERTEX
  5
511D
  8
SCAN
 10
424.9074724836368091
 20
23.1116219744386093
 30
0.0
  0
VERTEX
  5
511E
  8
SCAN
 10
427.6910224836369139
 20
25.1993219744386501
 30
0.0
  0
VERTEX
  5
511F
  8
SCAN
 10
430.8921224836367969
 20
26.8694719744385715
 30
0.0
  0
VERTEX
  5
5120
  8
SCAN
 10
431.0313224836368136
 20
26.7302719744386117
 30
0.0
  0
VERTEX
  5
5121
  8
SCAN
 10
429.9178724836366996
 20
24.7817719744385307
 30
0.0
  0
VERTEX
  5
5122
  8
SCAN
 10
429.2220224836368061
 20
22.8332719744385599
 30
0.0
  0
VERTEX
  5
5123
  8
SCAN
 10
428.8044724836368005
 20
21.0239719744386697
 30
0.0
  0
VERTEX
  5
5124
  8
SCAN
 10
428.8044724836368005
 20
18.5187719744386108
 30
0.0
  0
VERTEX
  5
5125
  8
SCAN
 10
430.3354224836367052
 20
20.8847719744387099
 30
0.0
  0
VERTEX
  5
5126
  8
SCAN
 10
432.0055724836367972
 20
22.5549219744385105
 30
0.0
  0
VERTEX
  5
5127
  8
SCAN
 10
433.8148724836369183
 20
23.5291719744386114
 30
0.0
  0
VERTEX
  5
5128
  8
SCAN
 10
435.7633724836367719
 20
23.6683719744386885
 30
0.0
  0
VERTEX
  5
5129
  8
SCAN
 10
436.0417224836367041
 20
23.2508219744385585
 30
0.0
  0
VERTEX
  5
512A
  8
SCAN
 10
436.0417224836367041
 20
18.2404219744385614
 30
0.0
  0
VERTEX
  5
512B
  8
SCAN
 10
436.8767724836367847
 20
16.0135719744385483
 30
0.0
  0
VERTEX
  5
512C
  8
SCAN
 10
439.1036224836367978
 20
13.6475219744386909
 30
0.0
  0
VERTEX
  5
512D
  8
SCAN
 10
441.8872224836367764
 20
11.8382219744385608
 30
0.0
  0
VERTEX
  5
512E
  8
SCAN
 10
443.5573224836367103
 20
11.2815219744387001
 30
0.0
  0
VERTEX
  5
512F
  8
SCAN
 10
444.3924224836367785
 20
11.2815219744387001
 30
0.0
  0
VERTEX
  5
5130
  8
SCAN
 10
445.6450224836368079
 20
12.6732719744387001
 30
0.0
  0
VERTEX
  5
5131
  8
SCAN
 10
447.4543224836367017
 20
15.5960219744386492
 30
0.0
  0
VERTEX
  5
5132
  8
SCAN
 10
448.985272483636777
 20
18.7971219744386495
 30
0.0
  0
VERTEX
  5
5133
  8
SCAN
 10
450.0987224836367773
 20
20.049721974438679
 30
0.0
  0
VERTEX
  5
5134
  8
SCAN
 10
451.3513224836368067
 20
20.6064219744385504
 30
0.0
  0
VERTEX
  5
5135
  8
SCAN
 10
452.7430724836368086
 20
20.6064219744385504
 30
0.0
  0
VERTEX
  5
5136
  8
SCAN
 10
454.2740724836368145
 20
19.7713719744386403
 30
0.0
  0
VERTEX
  5
5137
  8
SCAN
 10
454.1348724836367978
 20
20.4672719744385709
 30
0.0
  0
VERTEX
  5
5138
  8
SCAN
 10
453.1606224836367005
 20
21.5806719744385305
 30
0.0
  0
VERTEX
  5
5139
  8
SCAN
 10
455.1091224836367815
 20
22.4157719744385417
 30
0.0
  0
VERTEX
  5
513A
  8
SCAN
 10
457.8926724836367725
 20
25.1993219744386501
 30
0.0
  0
VERTEX
  5
513B
  8
SCAN
 10
458.0318724836367892
 20
24.7817719744385307
 30
0.0
  0
VERTEX
  5
513C
  8
SCAN
 10
457.6143224836367835
 20
21.85902197443869
 30
0.0
  0
VERTEX
  5
513D
  8
SCAN
 10
456.6400724836367999
 20
17.1269719744385007
 30
0.0
  0
VERTEX
  5
513E
  8
SCAN
 10
455.3874724836368273
 20
12.9516219744385204
 30
0.0
  0
VERTEX
  5
513F
  8
SCAN
 10
454.5524224836368035
 20
11.1423219744386301
 30
0.0
  0
VERTEX
  5
5140
  8
SCAN
 10
453.9956724836367812
 20
10.7247719744385108
 30
0.0
  0
VERTEX
  5
5141
  8
SCAN
 10
452.0472224836368014
 20
10.1680719744386394
 30
0.0
  0
VERTEX
  5
5142
  8
SCAN
 10
449.5420224836366856
 20
9.7505719744386283
 30
0.0
  0
VERTEX
  5
5143
  8
SCAN
 10
447.871872483636821
 20
9.7505719744386283
 30
0.0
  0
VERTEX
  5
5144
  8
SCAN
 10
450.6554224836368121
 20
9.1938219744386611
 30
0.0
  0
SEQEND
  5
5145
  8
SCAN
  0
POLYLINE
  5
2F5
  8
SCAN
 66
     1
 10
0.0
 20
0.0
 30
0.0
 70
     1
  0
VERTEX
  5
5146
  8
SCAN
 10
451.7688724836368124
 20
27.5653219744386284
 30
0.0
  0
VERTEX
  5
5147
  8
SCAN
 10
452.0472224836368014
 20
26.7302719744386117
 30
0.0
  0
VERTEX
  5
5148
  8
SCAN
 10
451.4904724836367791
 20
26.4519219744385694
 30
0.0
  0
VERTEX
  5
5149
  8
SCAN
 10
451.2121224836367901
 20
26.7302719744386117
 30
0.0
  0
VERTEX
  5
514A
  8
SCAN
 10
451.2121224836367901
 20
27.2869719744386998
 30
0.0
  0
SEQEND
  5
514B
  8
SCAN
  0
POLYLINE
  5
2F6
  8
SCAN
 66
     1
 10
0.0
 20
0.0
 30
0.0
 70
     1
  0
VERTEX
  5
514C
  8
SCAN
 10
451.9080224836367847
 20
30.0705719744385611
 30
0.0
  0
VERTEX
  5
514D
  8
SCAN
 10
452.0472224836368014
 20
28.9571219744385111
 30
0.0
  0
VERTEX
  5
514E
  8
SCAN
 10
450.7946224836367719
 20
28.122071974438601
 30
0.0
  0
VERTEX
  5
514F
  8
SCAN
 10
450.3770724836368231
 20
26.7302719744386117
 30
0.0
  0
VERTEX
  5
5150
  8
SCAN
 10
449.9595224836368175
 20
27.4261719744386596
 30
0.0
  0
VERTEX
  5
5151
  8
SCAN
 10
450.0987224836367773
 20
28.8179219744386614
 30
0.0
  0
VERTEX
  5
5152
  8
SCAN
 10
451.3513224836368067
 20
30.0705719744385611
 30
0.0
  0
SEQEND
  5
5153
  8
SCAN
  0
POLYLINE
  5
2F7
  8
SCAN
 66
     1
 10
0.0
 20
0.0
 30
0.0
 70
     1
  0
VERTEX
  5
5154
  8
SCAN
 10
454.8307724836369061
 20
33.5500219744386072
 30
0.0
  0
VERTEX
  5
5155
  8
SCAN
 10
454.9699224836368217
 20
27.2869719744386998
 30
0.0
  0
VERTEX
  5
5156
  8
SCAN
 10
454.6915724836367758
 20
25.8952219744387016
 30
0.0
  0
VERTEX
  5
5157
  8
SCAN
 10
454.1348724836367978
 20
24.7817719744385307
 30
0.0
  0
VERTEX
  5
5158
  8
SCAN
 10
453.4389724836368032
 20
24.0858719744386995
 30
0.0
  0
VERTEX
  5
5159
  8
SCAN
 10
452.7430724836368086
 20
23.6683719744386885
 30
0.0
  0
VERTEX
  5
515A
  8
SCAN
 10
451.9080224836367847
 20
23.5291719744386114
 30
0.0
  0
VERTEX
  5
515B
  8
SCAN
 10
451.7688724836368124
 20
23.6683719744386885
 30
0.0
  0
VERTEX
  5
515C
  8
SCAN
 10
452.4647224836368196
 20
24.2250719744386593
 30
0.0
  0
VERTEX
  5
515D
  8
SCAN
 10
453.299822483636774
 20
25.8952219744387016
 30
0.0
  0
VERTEX
  5
515E
  8
SCAN
 10
453.4389724836368032
 20
30.6272719744386599
 30
0.0
  0
VERTEX
  5
515F
  8
SCAN
 10
453.9956724836367812
 20
32.7149219744386031
 30
0.0
  0
SEQEND
  5
5160
  8
SCAN
  0
POLYLINE
  5
2F8
  8
SCAN
 66
     1
 10
0.0
 20
0.0
 30
0.0
 70
     1
  0
VERTEX
  5
5161
  8
SCAN
 10
458.866922483636813
 20
65.4217719744385136
 30
0.0
  0
VERTEX
  5
5162
  8
SCAN
 10
457.4751724836366975
 20
65.4217719744385136
 30
0.0
  0
VERTEX
  5
5163
  8
SCAN
 10
427.273522483636782
 20
70.8497219744385234
 30
0.0
  0
VERTEX
  5
5164
  8
SCAN
 10
424.2115724836367008
 20
71.8239719744386207
 30
0.0
  0
VERTEX
  5
5165
  8
SCAN
 10
422.2630724836366767
 20
72.9374219744385641
 30
0.0
  0
VERTEX
  5
5166
  8
SCAN
 10
420.8713224836367885
 20
74.3291719744385659
 30
0.0
  0
VERTEX
  5
5167
  8
SCAN
 10
420.1754224836367939
 20
75.5817719744384817
 30
0.0
  0
VERTEX
  5
5168
  8
SCAN
 10
419.6187224836367022
 20
77.9478219744385683
 30
0.0
  0
VERTEX
  5
5169
  8
SCAN
 10
419.6187224836367022
 20
80.4530219744385136
 30
0.0
  0
VERTEX
  5
516A
  8
SCAN
 10
420.1754224836367939
 20
83.0974219744385323
 30
0.0
  0
VERTEX
  5
516B
  8
SCAN
 10
420.5929724836367996
 20
83.2365719744385046
 30
0.0
  0
VERTEX
  5
516C
  8
SCAN
 10
425.1858224836367981
 20
82.4015219744385945
 30
0.0
  0
VERTEX
  5
516D
  8
SCAN
 10
425.4641724836367871
 20
79.8963219744385356
 30
0.0
  0
VERTEX
  5
516E
  8
SCAN
 10
425.8817224836367927
 20
78.9220719744385519
 30
0.0
  0
VERTEX
  5
516F
  8
SCAN
 10
427.273522483636782
 20
77.8086219744384948
 30
0.0
  0
VERTEX
  5
5170
  8
SCAN
 10
430.3354224836367052
 20
76.9735719744385847
 30
0.0
  0
VERTEX
  5
5171
  8
SCAN
 10
452.7430724836368086
 20
73.0765719744385365
 30
0.0
  0
VERTEX
  5
5172
  8
SCAN
 10
452.8822724836368252
 20
76.6952219744385246
 30
0.0
  0
VERTEX
  5
5173
  8
SCAN
 10
458.7277724836367838
 20
75.7209719744385552
 30
0.0
  0
SEQEND
  5
5174
  8
SCAN
  0
POLYLINE
  5
2F9
  8
SCAN
 66
     1
 10
0.0
 20
0.0
 30
0.0
 70
     1
  0
VERTEX
  5
5175
  8
SCAN
 10
458.866922483636813
 20
78.5045219744385463
 30
0.0
  0
VERTEX
  5
5176
  8
SCAN
 10
458.7277724836367838
 20
78.3653219744385865
 30
0.0
  0
VERTEX
  5
5177
  8
SCAN
 10
430.3354224836367052
 20
83.3757719744385781
 30
0.0
  0
VERTEX
  5
5178
  8
SCAN
 10
426.0209224836366957
 20
84.3500219744385475
 30
0.0
  0
VERTEX
  5
5179
  8
SCAN
 10
423.7940724836367963
 20
85.1850719744385856
 30
0.0
  0
VERTEX
  5
517A
  8
SCAN
 10
422.5414724836368237
 20
85.8809719744385234
 30
0.0
  0
VERTEX
  5
517B
  8
SCAN
 10
421.0104724836368177
 20
87.2727219744385252
 30
0.0
  0
VERTEX
  5
517C
  8
SCAN
 10
420.4537724836367829
 20
88.1078219744385365
 30
0.0
  0
VERTEX
  5
517D
  8
SCAN
 10
419.8970724836368049
 20
89.638771974438626
 30
0.0
  0
VERTEX
  5
517E
  8
SCAN
 10
419.6187224836367022
 20
91.1697219744385734
 30
0.0
  0
VERTEX
  5
517F
  8
SCAN
 10
419.6187224836367022
 20
93.6749219744385044
 30
0.0
  0
VERTEX
  5
5180
  8
SCAN
 10
420.1754224836367939
 20
96.1801219744385776
 30
0.0
  0
VERTEX
  5
5181
  8
SCAN
 10
421.1496724836367775
 20
96.3193219744385374
 30
0.0
  0
VERTEX
  5
5182
  8
SCAN
 10
425.0466724836368257
 20
95.6234219744387133
 30
0.0
  0
VERTEX
  5
5183
  8
SCAN
 10
425.3250224836368147
 20
95.3450719744385538
 30
0.0
  0
VERTEX
  5
5184
  8
SCAN
 10
425.4641724836367871
 20
93.1182219744385407
 30
0.0
  0
VERTEX
  5
5185
  8
SCAN
 10
425.7425224836367761
 20
92.2831719744385168
 30
0.0
  0
VERTEX
  5
5186
  8
SCAN
 10
426.2992724836366847
 20
91.5872719744385648
 30
0.0
  0
VERTEX
  5
5187
  8
SCAN
 10
427.4126724836368112
 20
90.8913719744385133
 30
0.0
  0
VERTEX
  5
5188
  8
SCAN
 10
430.7529724836368246
 20
90.0563219744386174
 30
0.0
  0
VERTEX
  5
5189
  8
SCAN
 10
438.6861224836367796
 20
88.8037219744385879
 30
0.0
  0
VERTEX
  5
518A
  8
SCAN
 10
452.0472224836368014
 20
86.2984719744385416
 30
0.0
  0
VERTEX
  5
518B
  8
SCAN
 10
452.7430724836368086
 20
86.2984719744385416
 30
0.0
  0
VERTEX
  5
518C
  8
SCAN
 10
452.8822724836368252
 20
89.9171219744385439
 30
0.0
  0
VERTEX
  5
518D
  8
SCAN
 10
458.7277724836367838
 20
88.8037219744385879
 30
0.0
  0
SEQEND
  5
518E
  8
SCAN
  0
POLYLINE
  5
2FA
  8
SCAN
 66
     1
 10
0.0
 20
0.0
 30
0.0
 70
     1
  0
VERTEX
  5
518F
  8
SCAN
 10
459.1452724836369157
 20
50.1121719744385814
 30
0.0
  0
VERTEX
  5
5190
  8
SCAN
 10
458.4493724836368074
 20
48.5812219744385132
 30
0.0
  0
VERTEX
  5
5191
  8
SCAN
 10
457.6143224836367835
 20
47.6069719744385225
 30
0.0
  0
VERTEX
  5
5192
  8
SCAN
 10
455.9441724836366916
 20
46.6327219744385388
 30
0.0
  0
VERTEX
  5
5193
  8
SCAN
 10
454.8307724836369061
 20
46.354371974438493
 30
0.0
  0
VERTEX
  5
5194
  8
SCAN
 10
452.1863724836367737
 20
46.2152219744385206
 30
0.0
  0
VERTEX
  5
5195
  8
SCAN
 10
446.3409224836368026
 20
47.1894719744384972
 30
0.0
  0
VERTEX
  5
5196
  8
SCAN
 10
446.2017224836367859
 20
53.4524719744385308
 30
0.0
  0
VERTEX
  5
5197
  8
SCAN
 10
446.8976224836367805
 20
53.5916219744385103
 30
0.0
  0
VERTEX
  5
5198
  8
SCAN
 10
450.9337724836369148
 20
52.7565719744384793
 30
0.0
  0
VERTEX
  5
5199
  8
SCAN
 10
453.4389724836368032
 20
52.4782219744385614
 30
0.0
  0
VERTEX
  5
519A
  8
SCAN
 10
453.7173224836367922
 20
53.0349219744385323
 30
0.0
  0
VERTEX
  5
519B
  8
SCAN
 10
453.7173224836367922
 20
54.7050719744385674
 30
0.0
  0
VERTEX
  5
519C
  8
SCAN
 10
453.299822483636774
 20
55.4009719744386189
 30
0.0
  0
VERTEX
  5
519D
  8
SCAN
 10
452.6039224836367794
 20
55.8184719744385305
 30
0.0
  0
VERTEX
  5
519E
  8
SCAN
 10
450.5162224836367955
 20
56.3752219744386025
 30
0.0
  0
VERTEX
  5
519F
  8
SCAN
 10
428.5261224836368115
 20
60.1330219744385772
 30
0.0
  0
VERTEX
  5
51A0
  8
SCAN
 10
426.7167724836368166
 20
59.9938219744386103
 30
0.0
  0
VERTEX
  5
51A1
  8
SCAN
 10
426.2992724836366847
 20
59.7154719744385716
 30
0.0
  0
VERTEX
  5
51A2
  8
SCAN
 10
426.0209224836366957
 20
59.1587719744385865
 30
0.0
  0
VERTEX
  5
51A3
  8
SCAN
 10
425.7425224836367761
 20
57.7669719744385972
 30
0.0
  0
VERTEX
  5
51A4
  8
SCAN
 10
425.7425224836367761
 20
50.9472719744385927
 30
0.0
  0
VERTEX
  5
51A5
  8
SCAN
 10
424.9074724836368091
 20
50.8080719744385192
 30
0.0
  0
VERTEX
  5
51A6
  8
SCAN
 10
420.1754224836367939
 20
51.6431719744385305
 30
0.0
  0
VERTEX
  5
51A7
  8
SCAN
 10
419.8970724836368049
 20
51.9215219744385692
 30
0.0
  0
VERTEX
  5
51A8
  8
SCAN
 10
419.6187224836367022
 20
54.7050719744385674
 30
0.0
  0
VERTEX
  5
51A9
  8
SCAN
 10
419.6187224836367022
 20
59.7154719744385716
 30
0.0
  0
VERTEX
  5
51AA
  8
SCAN
 10
420.1754224836367939
 20
62.7774219744386031
 30
0.0
  0
VERTEX
  5
51AB
  8
SCAN
 10
421.0104724836368177
 20
64.5867219744387171
 30
0.0
  0
VERTEX
  5
51AC
  8
SCAN
 10
422.1239224836367043
 20
65.8393219744385192
 30
0.0
  0
VERTEX
  5
51AD
  8
SCAN
 10
423.237322483636774
 20
66.5352219744385707
 30
0.0
  0
VERTEX
  5
51AE
  8
SCAN
 10
425.3250224836368147
 20
67.0919219744385344
 30
0.0
  0
VERTEX
  5
51AF
  8
SCAN
 10
429.6395224836368243
 20
66.9527219744385889
 30
0.0
  0
VERTEX
  5
51B0
  8
SCAN
 10
448.8461224836369183
 20
63.6124719744385132
 30
0.0
  0
VERTEX
  5
51B1
  8
SCAN
 10
452.6039224836367794
 20
62.7774219744386031
 30
0.0
  0
VERTEX
  5
51B2
  8
SCAN
 10
455.2483224836367981
 20
61.8031719744386123
 30
0.0
  0
VERTEX
  5
51B3
  8
SCAN
 10
456.7792724836368166
 20
60.8289219744385079
 30
0.0
  0
VERTEX
  5
51B4
  8
SCAN
 10
457.7535224836368002
 20
59.8546719744385314
 30
0.0
  0
VERTEX
  5
51B5
  8
SCAN
 10
458.588572483636824
 20
58.6020719744386227
 30
0.0
  0
VERTEX
  5
51B6
  8
SCAN
 10
459.284472483636705
 20
56.514371974438582
 30
0.0
  0
VERTEX
  5
51B7
  8
SCAN
 10
459.5628224836368076
 20
54.1483719744385823
 30
0.0
  0
VERTEX
  5
51B8
  8
SCAN
 10
459.423622483636791
 20
51.2256219744385177
 30
0.0
  0
SEQEND
  5
51B9
  8
SCAN
  0
POLYLINE
  5
2FB
  8
SCAN
 66
     1
 10
0.0
 20
0.0
 30
0.0
 70
     1
  0
VERTEX
  5
51BA
  8
SCAN
 10
462.9030724836367767
 20
38.1428719744385987
 30
0.0
  0
VERTEX
  5
51BB
  8
SCAN
 10
462.4855724836367017
 20
38.0037219744386334
 30
0.0
  0
VERTEX
  5
51BC
  8
SCAN
 10
460.3978724836367178
 20
38.5604219744384977
 30
0.0
  0
VERTEX
  5
51BD
  8
SCAN
 10
458.3102224836367782
 20
38.5604219744384977
 30
0.0
  0
VERTEX
  5
51BE
  8
SCAN
 10
457.0576224836369192
 20
39.9521719744384995
 30
0.0
  0
VERTEX
  5
51BF
  8
SCAN
 10
459.7020224836368243
 20
40.091371974438573
 30
0.0
  0
VERTEX
  5
51C0
  8
SCAN
 10
459.1452724836369157
 20
40.6480719744386576
 30
0.0
  0
VERTEX
  5
51C1
  8
SCAN
 10
457.1967724836367779
 20
41.7615219744384873
 30
0.0
  0
VERTEX
  5
51C2
  8
SCAN
 10
455.6658224836367026
 20
42.1790219744385126
 30
0.0
  0
VERTEX
  5
51C3
  8
SCAN
 10
454.6915724836367758
 20
42.1790219744385126
 30
0.0
  0
VERTEX
  5
51C4
  8
SCAN
 10
453.1606224836367005
 20
43.5708219744386085
 30
0.0
  0
VERTEX
  5
51C5
  8
SCAN
 10
455.6658224836367026
 20
43.7100219744385683
 30
0.0
  0
VERTEX
  5
51C6
  8
SCAN
 10
457.4751724836366975
 20
43.2924719744385698
 30
0.0
  0
VERTEX
  5
51C7
  8
SCAN
 10
459.0061224836367728
 20
42.5965719744385183
 30
0.0
  0
VERTEX
  5
51C8
  8
SCAN
 10
460.9546224836367969
 20
41.0656219744385567
 30
0.0
  0
VERTEX
  5
51C9
  8
SCAN
 10
462.0680224836366961
 20
39.6738219744385674
 30
0.0
  0
SEQEND
  5
51CA
  8
SCAN
  0
POLYLINE
  5
30A
  8
SCAN
 66
     1
 10
0.0
 20
0.0
 30
0.0
 70
     1
  0
VERTEX
  5
51CB
  8
SCAN
 10
135.3874724836367989
 20
7.8020719744386611
 30
0.0
  0
VERTEX
  5
51CC
  8
SCAN
 10
135.6658224836367879
 20
7.9412219744386334
 30
0.0
  0
VERTEX
  5
51CD
  8
SCAN
 10
137.7535224836368002
 20
13.9258719744386195
 30
0.0
  0
VERTEX
  5
51CE
  8
SCAN
 10
139.0061224836368012
 20
19.6321719744386698
 30
0.0
  0
VERTEX
  5
51CF
  8
SCAN
 10
139.5628224836368076
 20
24.2250719744386593
 30
0.0
  0
VERTEX
  5
51D0
  8
SCAN
 10
139.8411724836367966
 20
24.5034219744385915
 30
0.0
  0
VERTEX
  5
51D1
  8
SCAN
 10
143.18147248363681
 20
24.0858719744385894
 30
0.0
  0
VERTEX
  5
51D2
  8
SCAN
 10
144.5732224836368118
 20
23.5291719744386114
 30
0.0
  0
VERTEX
  5
51D3
  8
SCAN
 10
144.8515724836368008
 20
23.6683719744387986
 30
0.0
  0
VERTEX
  5
51D4
  8
SCAN
 10
144.2948724836367944
 20
26.5911219744386393
 30
0.0
  0
VERTEX
  5
51D5
  8
SCAN
 10
142.485572483636787
 20
29.2354719744385605
 30
0.0
  0
VERTEX
  5
51D6
  8
SCAN
 10
141.0937724836367977
 20
30.3489219744386105
 30
0.0
  0
VERTEX
  5
51D7
  8
SCAN
 10
140.3978724836368031
 20
28.6787719744386891
 30
0.0
  0
VERTEX
  5
51D8
  8
SCAN
 10
139.9803724836368133
 20
28.2612219744388007
 30
0.0
  0
VERTEX
  5
51D9
  8
SCAN
 10
139.8411724836367966
 20
28.4004219744386397
 30
0.0
  0
VERTEX
  5
51DA
  8
SCAN
 10
140.1195224836368141
 20
30.4880719744388102
 30
0.0
  0
VERTEX
  5
51DB
  8
SCAN
 10
139.9803724836368133
 20
34.1067219744386989
 30
0.0
  0
VERTEX
  5
51DC
  8
SCAN
 10
142.9030724836368051
 20
34.2458719744386713
 30
0.0
  0
VERTEX
  5
51DD
  8
SCAN
 10
145.6866724836368121
 20
33.8283719744386602
 30
0.0
  0
VERTEX
  5
51DE
  8
SCAN
 10
145.5474724836367955
 20
35.6376719744386605
 30
0.0
  0
VERTEX
  5
51DF
  8
SCAN
 10
144.5732224836368118
 20
38.4212219744386516
 30
0.0
  0
VERTEX
  5
51E0
  8
SCAN
 10
143.0422724836367934
 20
40.9264219744385969
 30
0.0
  0
VERTEX
  5
51E1
  8
SCAN
 10
139.8411724836367966
 20
44.6842719744386727
 30
0.0
  0
VERTEX
  5
51E2
  8
SCAN
 10
141.2329724836367859
 20
46.9111219744386787
 30
0.0
  0
VERTEX
  5
51E3
  8
SCAN
 10
142.0680224836368097
 20
49.973021974438609
 30
0.0
  0
VERTEX
  5
51E4
  8
SCAN
 10
142.0680224836368097
 20
54.5658719744386076
 30
0.0
  0
VERTEX
  5
51E5
  8
SCAN
 10
141.6504724836368041
 20
56.6535719744386483
 30
0.0
  0
VERTEX
  5
51E6
  8
SCAN
 10
140.676222483636792
 20
59.0195719744386267
 30
0.0
  0
VERTEX
  5
51E7
  8
SCAN
 10
139.0061224836368012
 20
61.1072719744386816
 30
0.0
  0
VERTEX
  5
51E8
  8
SCAN
 10
139.5628224836368076
 20
61.2464219744386469
 30
0.0
  0
VERTEX
  5
51E9
  8
SCAN
 10
141.5113224836368033
 20
60.8289219744386287
 30
0.0
  0
VERTEX
  5
51EA
  8
SCAN
 10
141.5113224836368033
 20
89.777971974438799
 30
0.0
  0
VERTEX
  5
51EB
  8
SCAN
 10
130.0987224836368057
 20
91.7264219744386651
 30
0.0
  0
VERTEX
  5
51EC
  8
SCAN
 10
130.0987224836368057
 20
88.2469719744386225
 30
0.0
  0
VERTEX
  5
51ED
  8
SCAN
 10
129.8203724836367883
 20
88.1078219744386502
 30
0.0
  0
VERTEX
  5
51EE
  8
SCAN
 10
110.8921224836367969
 20
91.4480719744386192
 30
0.0
  0
VERTEX
  5
51EF
  8
SCAN
 10
108.1085724836368058
 20
92.2831719744386163
 30
0.0
  0
VERTEX
  5
51F0
  8
SCAN
 10
107.9693724836368034
 20
96.4584719744386234
 30
0.0
  0
VERTEX
  5
51F1
  8
SCAN
 10
98.5052724836369009
 20
98.1286219744386585
 30
0.0
  0
VERTEX
  5
51F2
  8
SCAN
 10
97.5310224836368462
 20
95.3450719744385538
 30
0.0
  0
VERTEX
  5
51F3
  8
SCAN
 10
96.974322483636854
 20
92.143971974438557
 30
0.0
  0
VERTEX
  5
51F4
  8
SCAN
 10
97.252672483636843
 20
88.1078219744386502
 30
0.0
  0
VERTEX
  5
51F5
  8
SCAN
 10
97.8093724836368352
 20
86.2984719744386553
 30
0.0
  0
VERTEX
  5
51F6
  8
SCAN
 10
98.5052724836369009
 20
85.1850719744385856
 30
0.0
  0
VERTEX
  5
51F7
  8
SCAN
 10
97.1135224836368849
 20
80.1746719744385814
 30
0.0
  0
VERTEX
  5
51F8
  8
SCAN
 10
97.1135224836368849
 20
75.7209719744385552
 30
0.0
  0
VERTEX
  5
51F9
  8
SCAN
 10
97.5310224836368462
 20
73.9116219744385603
 30
0.0
  0
VERTEX
  5
51FA
  8
SCAN
 10
98.7836224836368615
 20
71.4064219744386151
 30
0.0
  0
VERTEX
  5
51FB
  8
SCAN
 10
100.5929724836367996
 20
69.5971219744385934
 30
0.0
  0
VERTEX
  5
51FC
  8
SCAN
 10
103.2373224836368024
 20
68.066171974438646
 30
0.0
  0
VERTEX
  5
51FD
  8
SCAN
 10
101.5672224836367974
 20
67.3702719744385945
 30
0.0
  0
VERTEX
  5
51FE
  8
SCAN
 10
100.1754224836367939
 20
66.3960219744386109
 30
0.0
  0
VERTEX
  5
51FF
  8
SCAN
 10
98.5052724836369009
 20
64.3083719744386713
 30
0.0
  0
VERTEX
  5
5200
  8
SCAN
 10
97.8093724836368352
 20
62.7774219744386031
 30
0.0
  0
VERTEX
  5
5201
  8
SCAN
 10
96.974322483636854
 20
58.1845219744386029
 30
0.0
  0
VERTEX
  5
5202
  8
SCAN
 10
96.974322483636854
 20
53.8700219744385365
 30
0.0
  0
VERTEX
  5
5203
  8
SCAN
 10
97.3918724836368597
 20
49.1379719744385923
 30
0.0
  0
VERTEX
  5
5204
  8
SCAN
 10
97.6702224836368487
 20
48.1637219744386016
 30
0.0
  0
VERTEX
  5
5205
  8
SCAN
 10
105.4641724836368013
 20
46.9111219744386787
 30
0.0
  0
VERTEX
  5
5206
  8
SCAN
 10
105.6033724836368037
 20
46.6327219744385388
 30
0.0
  0
VERTEX
  5
5207
  8
SCAN
 10
102.8198224836367984
 20
43.9883719744386212
 30
0.0
  0
VERTEX
  5
5208
  8
SCAN
 10
100.0362224836368057
 20
40.5089219744386924
 30
0.0
  0
VERTEX
  5
5209
  8
SCAN
 10
97.5310224836368462
 20
36.4727219744386773
 30
0.0
  0
VERTEX
  5
520A
  8
SCAN
 10
94.8866724836368576
 20
30.6272719744386599
 30
0.0
  0
VERTEX
  5
520B
  8
SCAN
 10
96.6959724836368792
 20
26.7302719744387183
 30
0.0
  0
VERTEX
  5
520C
  8
SCAN
 10
99.0620224836368237
 20
22.5549219744386313
 30
0.0
  0
VERTEX
  5
520D
  8
SCAN
 10
103.3765224836368048
 20
16.8486219744386787
 30
0.0
  0
VERTEX
  5
520E
  8
SCAN
 10
106.1600724836367959
 20
14.2042719744386492
 30
0.0
  0
VERTEX
  5
520F
  8
SCAN
 10
108.9436224836368012
 20
12.2557719744386802
 30
0.0
  0
VERTEX
  5
5210
  8
SCAN
 10
111.5880224836368058
 20
11.1423219744386301
 30
0.0
  0
VERTEX
  5
5211
  8
SCAN
 10
113.8148724836368046
 20
10.8639719744388099
 30
0.0
  0
VERTEX
  5
5212
  8
SCAN
 10
112.4230724836368012
 20
11.2815219744387001
 30
0.0
  0
VERTEX
  5
5213
  8
SCAN
 10
109.2220224836368061
 20
13.0908219744385992
 30
0.0
  0
VERTEX
  5
5214
  8
SCAN
 10
107.1343224836367938
 20
14.7609719744386307
 30
0.0
  0
VERTEX
  5
5215
  8
SCAN
 10
104.6291224836368059
 20
17.2661719744388016
 30
0.0
  0
VERTEX
  5
5216
  8
SCAN
 10
100.8713224836368028
 20
22.2765719744386885
 30
0.0
  0
VERTEX
  5
5217
  8
SCAN
 10
98.9228224836368355
 20
25.6168719744386486
 30
0.0
  0
VERTEX
  5
5218
  8
SCAN
 10
96.5567724836368484
 20
30.6272719744386599
 30
0.0
  0
VERTEX
  5
5219
  8
SCAN
 10
99.3403724836368553
 20
32.5757719744386165
 30
0.0
  0
VERTEX
  5
521A
  8
SCAN
 10
101.8455724836368006
 20
33.8283719744386602
 30
0.0
  0
VERTEX
  5
521B
  8
SCAN
 10
105.4641724836368013
 20
35.0809719744386896
 30
0.0
  0
VERTEX
  5
521C
  8
SCAN
 10
109.6395224836367959
 20
35.7768719744386203
 30
0.0
  0
VERTEX
  5
521D
  8
SCAN
 10
114.3715724836367968
 20
35.6376719744386605
 30
0.0
  0
VERTEX
  5
521E
  8
SCAN
 10
118.4077724836368048
 20
34.5242719744385909
 30
0.0
  0
VERTEX
  5
521F
  8
SCAN
 10
121.1913224836367959
 20
32.8541219744386694
 30
0.0
  0
VERTEX
  5
5220
  8
SCAN
 10
123.4181724836367948
 20
30.4880719744388102
 30
0.0
  0
VERTEX
  5
5221
  8
SCAN
 10
125.2274724836368023
 20
26.8694719744385715
 30
0.0
  0
VERTEX
  5
5222
  8
SCAN
 10
125.3666724836368047
 20
29.3746719744386304
 30
0.0
  0
VERTEX
  5
5223
  8
SCAN
 10
124.8099224836367966
 20
31.7406719744386088
 30
0.0
  0
VERTEX
  5
5224
  8
SCAN
 10
123.5573224836367956
 20
33.9675219744386325
 30
0.0
  0
VERTEX
  5
5225
  8
SCAN
 10
121.052122483636893
 20
36.333571974438712
 30
0.0
  0
VERTEX
  5
5226
  8
SCAN
 10
118.4077724836368048
 20
37.7253219744386001
 30
0.0
  0
VERTEX
  5
5227
  8
SCAN
 10
115.3458224836367947
 20
38.5604219744386114
 30
0.0
  0
VERTEX
  5
5228
  8
SCAN
 10
111.448872483636805
 20
38.6995719744386975
 30
0.0
  0
VERTEX
  5
5229
  8
SCAN
 10
108.5261224836367973
 20
38.1428719744385987
 30
0.0
  0
VERTEX
  5
522A
  8
SCAN
 10
107.8302224836368026
 20
38.2820719744386793
 30
0.0
  0
VERTEX
  5
522B
  8
SCAN
 10
110.3354224836368047
 20
40.091371974438573
 30
0.0
  0
VERTEX
  5
522C
  8
SCAN
 10
112.701472483636806
 20
41.3439719744386025
 30
0.0
  0
VERTEX
  5
522D
  8
SCAN
 10
116.7376224836367982
 20
42.596571974438632
 30
0.0
  0
VERTEX
  5
522E
  8
SCAN
 10
121.3304724836367967
 20
42.596571974438632
 30
0.0
  0
VERTEX
  5
522F
  8
SCAN
 10
123.4181724836367948
 20
42.0398719744385332
 30
0.0
  0
VERTEX
  5
5230
  8
SCAN
 10
125.2274724836368023
 20
41.2048219744386301
 30
0.0
  0
VERTEX
  5
5231
  8
SCAN
 10
126.8976224836367948
 20
40.091371974438573
 30
0.0
  0
VERTEX
  5
5232
  8
SCAN
 10
128.9852724836368054
 20
38.0037219744386334
 30
0.0
  0
VERTEX
  5
5233
  8
SCAN
 10
130.3770724836367947
 20
35.6376719744386605
 30
0.0
  0
VERTEX
  5
5234
  8
SCAN
 10
130.6554224836368121
 20
34.8026219744386367
 30
0.0
  0
VERTEX
  5
5235
  8
SCAN
 10
130.5162224836367955
 20
34.5242719744385909
 30
0.0
  0
VERTEX
  5
5236
  8
SCAN
 10
127.8718724836368068
 20
37.446971974438668
 30
0.0
  0
VERTEX
  5
5237
  8
SCAN
 10
125.2274724836368023
 20
39.1171219744385894
 30
0.0
  0
VERTEX
  5
5238
  8
SCAN
 10
121.1913224836367959
 20
40.3697219744386118
 30
0.0
  0
VERTEX
  5
5239
  8
SCAN
 10
117.5726724836367936
 20
40.5089219744386924
 30
0.0
  0
VERTEX
  5
523A
  8
SCAN
 10
120.6346224836368037
 20
39.5346719744387087
 30
0.0
  0
VERTEX
  5
523B
  8
SCAN
 10
123.2789724836368066
 20
37.8645219744385599
 30
0.0
  0
VERTEX
  5
523C
  8
SCAN
 10
125.0883224836368015
 20
36.0552219744386733
 30
0.0
  0
VERTEX
  5
523D
  8
SCAN
 10
126.0625224836367977
 20
34.6634219744385632
 30
0.0
  0
VERTEX
  5
523E
  8
SCAN
 10
127.4543224836368012
 20
31.3231719744385906
 30
0.0
  0
VERTEX
  5
523F
  8
SCAN
 10
128.0110224836367934
 20
27.8437219744386688
 30
0.0
  0
VERTEX
  5
5240
  8
SCAN
 10
127.7326724836368044
 20
22.9724719744386299
 30
0.0
  0
VERTEX
  5
5241
  8
SCAN
 10
126.3409224836368026
 20
17.9620719744386292
 30
0.0
  0
VERTEX
  5
5242
  8
SCAN
 10
125.2274724836368023
 20
15.7352219744386108
 30
0.0
  0
VERTEX
  5
5243
  8
SCAN
 10
124.5315724836367934
 20
14.9001219744387203
 30
0.0
  0
VERTEX
  5
5244
  8
SCAN
 10
122.8614724836366037
 20
14.7609719744386307
 30
0.0
  0
VERTEX
  5
5245
  8
SCAN
 10
121.1913224836367959
 20
13.7867219744386507
 30
0.0
  0
VERTEX
  5
5246
  8
SCAN
 10
119.7995224836368067
 20
15.0393219744386801
 30
0.0
  0
VERTEX
  5
5247
  8
SCAN
 10
119.5211724836368035
 20
15.5960219744386492
 30
0.0
  0
VERTEX
  5
5248
  8
SCAN
 10
119.2428224836368003
 20
17.9620719744386292
 30
0.0
  0
VERTEX
  5
5249
  8
SCAN
 10
120.2170724836367981
 20
22.9724719744386299
 30
0.0
  0
VERTEX
  5
524A
  8
SCAN
 10
120.2170724836367981
 20
25.8952219744388117
 30
0.0
  0
VERTEX
  5
524B
  8
SCAN
 10
119.7995224836368067
 20
27.4261719744386596
 30
0.0
  0
VERTEX
  5
524C
  8
SCAN
 10
118.6861224836367938
 20
29.3746719744386304
 30
0.0
  0
VERTEX
  5
524D
  8
SCAN
 10
116.5984224836367957
 20
31.1839719744386414
 30
0.0
  0
VERTEX
  5
524E
  8
SCAN
 10
114.7891224836368025
 20
31.8798719744386894
 30
0.0
  0
VERTEX
  5
524F
  8
SCAN
 10
113.1189724836367958
 20
32.158221974438618
 30
0.0
  0
VERTEX
  5
5250
  8
SCAN
 10
109.9178724836367991
 20
32.158221974438618
 30
0.0
  0
VERTEX
  5
5251
  8
SCAN
 10
108.247772483636794
 20
31.8798719744386894
 30
0.0
  0
VERTEX
  5
5252
  8
SCAN
 10
105.7425224836368045
 20
31.0448219744386584
 30
0.0
  0
VERTEX
  5
5253
  8
SCAN
 10
103.9332224836367971
 20
30.0705719744386784
 30
0.0
  0
VERTEX
  5
5254
  8
SCAN
 10
102.1239224836368038
 20
28.6787719744386891
 30
0.0
  0
VERTEX
  5
5255
  8
SCAN
 10
101.149672483636806
 20
27.4261719744386596
 30
0.0
  0
VERTEX
  5
5256
  8
SCAN
 10
105.3250224836368005
 20
28.2612219744388007
 30
0.0
  0
VERTEX
  5
5257
  8
SCAN
 10
108.5261224836367973
 20
28.4004219744386397
 30
0.0
  0
VERTEX
  5
5258
  8
SCAN
 10
108.665272483636798
 20
28.2612219744388007
 30
0.0
  0
VERTEX
  5
5259
  8
SCAN
 10
106.995172483636793
 20
26.4519219744386795
 30
0.0
  0
VERTEX
  5
525A
  8
SCAN
 10
105.6033724836368037
 20
24.3642719744386191
 30
0.0
  0
VERTEX
  5
525B
  8
SCAN
 10
104.6291224836368059
 20
21.8590219744388001
 30
0.0
  0
VERTEX
  5
525C
  8
SCAN
 10
107.6910224836368002
 20
23.9467219744386206
 30
0.0
  0
VERTEX
  5
525D
  8
SCAN
 10
110.8921224836367969
 20
25.6168719744386486
 30
0.0
  0
VERTEX
  5
525E
  8
SCAN
 10
111.0313224836367993
 20
25.4776719744386995
 30
0.0
  0
VERTEX
  5
525F
  8
SCAN
 10
109.9178724836367991
 20
23.5291719744386114
 30
0.0
  0
VERTEX
  5
5260
  8
SCAN
 10
108.8044724836368005
 20
19.7713719744386403
 30
0.0
  0
VERTEX
  5
5261
  8
SCAN
 10
108.8044724836368005
 20
17.2661719744388016
 30
0.0
  0
VERTEX
  5
5262
  8
SCAN
 10
110.3354224836368047
 20
19.6321719744386698
 30
0.0
  0
VERTEX
  5
5263
  8
SCAN
 10
112.0055724836367972
 20
21.3023219744387085
 30
0.0
  0
VERTEX
  5
5264
  8
SCAN
 10
113.8148724836368046
 20
22.2765719744386885
 30
0.0
  0
VERTEX
  5
5265
  8
SCAN
 10
115.7633724836368003
 20
22.415771974438659
 30
0.0
  0
VERTEX
  5
5266
  8
SCAN
 10
116.0417224836368035
 20
21.9982219744386498
 30
0.0
  0
VERTEX
  5
5267
  8
SCAN
 10
116.0417224836368035
 20
16.9878219744386385
 30
0.0
  0
VERTEX
  5
5268
  8
SCAN
 10
116.8767724836367989
 20
14.7609719744386307
 30
0.0
  0
VERTEX
  5
5269
  8
SCAN
 10
119.1036224836367978
 20
12.3949219744386596
 30
0.0
  0
VERTEX
  5
526A
  8
SCAN
 10
121.8872224836368048
 20
10.5856219744386504
 30
0.0
  0
VERTEX
  5
526B
  8
SCAN
 10
123.5573224836367956
 20
10.0289219744386706
 30
0.0
  0
VERTEX
  5
526C
  8
SCAN
 10
124.3924224836368069
 20
10.0289219744386706
 30
0.0
  0
VERTEX
  5
526D
  8
SCAN
 10
125.6450224836367937
 20
11.4206719744386707
 30
0.0
  0
VERTEX
  5
526E
  8
SCAN
 10
127.4543224836368012
 20
14.3434219744386304
 30
0.0
  0
VERTEX
  5
526F
  8
SCAN
 10
128.9852724836368054
 20
17.54452197443862
 30
0.0
  0
VERTEX
  5
5270
  8
SCAN
 10
130.0987224836368057
 20
18.7971219744386495
 30
0.0
  0
VERTEX
  5
5271
  8
SCAN
 10
131.3513224836368067
 20
19.3538219744386311
 30
0.0
  0
VERTEX
  5
5272
  8
SCAN
 10
132.7430724836368086
 20
19.3538219744386311
 30
0.0
  0
VERTEX
  5
5273
  8
SCAN
 10
134.274072483636786
 20
18.5187719744386108
 30
0.0
  0
VERTEX
  5
5274
  8
SCAN
 10
134.1348724836367978
 20
19.2146719744386587
 30
0.0
  0
VERTEX
  5
5275
  8
SCAN
 10
133.1606224836368142
 20
20.3280719744386182
 30
0.0
  0
VERTEX
  5
5276
  8
SCAN
 10
135.1091224836368099
 20
21.1631719744386295
 30
0.0
  0
VERTEX
  5
5277
  8
SCAN
 10
137.892672483636801
 20
23.9467219744386206
 30
0.0
  0
VERTEX
  5
5278
  8
SCAN
 10
138.0318724836369029
 20
23.5291719744386114
 30
0.0
  0
VERTEX
  5
5279
  8
SCAN
 10
136.6400724836367999
 20
15.8743719744385903
 30
0.0
  0
VERTEX
  5
527A
  8
SCAN
 10
135.3874724836367989
 20
11.6990219744387201
 30
0.0
  0
VERTEX
  5
527B
  8
SCAN
 10
134.5524224836368035
 20
9.8897219744386007
 30
0.0
  0
VERTEX
  5
527C
  8
SCAN
 10
133.9956724836368096
 20
9.4721719744387087
 30
0.0
  0
VERTEX
  5
527D
  8
SCAN
 10
132.0472224836368014
 20
8.9154719744386171
 30
0.0
  0
VERTEX
  5
527E
  8
SCAN
 10
127.8718724836368068
 20
8.4979719744386557
 30
0.0
  0
VERTEX
  5
527F
  8
SCAN
 10
130.6554224836368121
 20
7.9412219744386334
 30
0.0
  0
SEQEND
  5
5280
  8
SCAN
  0
POLYLINE
  5
30B
  8
SCAN
 66
     1
 10
0.0
 20
0.0
 30
0.0
 70
     1
  0
VERTEX
  5
5281
  8
SCAN
 10
135.3874724836367989
 20
7.8020719744386611
 30
0.0
  0
VERTEX
  5
5282
  8
SCAN
 10
135.6658224836367879
 20
7.9412219744386334
 30
0.0
  0
VERTEX
  5
5283
  8
SCAN
 10
136.2225224836367943
 20
9.1938219744386611
 30
0.0
  0
VERTEX
  5
5284
  8
SCAN
 10
137.7535224836368002
 20
13.9258719744386195
 30
0.0
  0
VERTEX
  5
5285
  8
SCAN
 10
139.0061224836368012
 20
19.6321719744386698
 30
0.0
  0
VERTEX
  5
5286
  8
SCAN
 10
139.5628224836368076
 20
24.2250719744386593
 30
0.0
  0
VERTEX
  5
5287
  8
SCAN
 10
139.8411724836367966
 20
24.5034219744385915
 30
0.0
  0
VERTEX
  5
5288
  8
SCAN
 10
140.676222483636792
 20
24.5034219744385915
 30
0.0
  0
VERTEX
  5
5289
  8
SCAN
 10
143.18147248363681
 20
24.0858719744385894
 30
0.0
  0
VERTEX
  5
528A
  8
SCAN
 10
144.5732224836368118
 20
23.5291719744386114
 30
0.0
  0
VERTEX
  5
528B
  8
SCAN
 10
144.8515724836368008
 20
23.6683719744387986
 30
0.0
  0
VERTEX
  5
528C
  8
SCAN
 10
144.7124224836368001
 20
25.1993219744386501
 30
0.0
  0
VERTEX
  5
528D
  8
SCAN
 10
144.2948724836367944
 20
26.5911219744386393
 30
0.0
  0
VERTEX
  5
528E
  8
SCAN
 10
142.485572483636787
 20
29.2354719744385605
 30
0.0
  0
VERTEX
  5
528F
  8
SCAN
 10
141.0937724836367977
 20
30.3489219744386105
 30
0.0
  0
VERTEX
  5
5290
  8
SCAN
 10
140.3978724836368031
 20
28.6787719744386891
 30
0.0
  0
VERTEX
  5
5291
  8
SCAN
 10
139.9803724836368133
 20
28.2612219744388007
 30
0.0
  0
VERTEX
  5
5292
  8
SCAN
 10
139.8411724836367966
 20
28.4004219744386397
 30
0.0
  0
VERTEX
  5
5293
  8
SCAN
 10
140.1195224836368141
 20
30.4880719744388102
 30
0.0
  0
VERTEX
  5
5294
  8
SCAN
 10
139.9803724836368133
 20
34.1067219744386989
 30
0.0
  0
VERTEX
  5
5295
  8
SCAN
 10
142.9030724836368051
 20
34.2458719744386713
 30
0.0
  0
VERTEX
  5
5296
  8
SCAN
 10
145.6866724836368121
 20
33.8283719744386602
 30
0.0
  0
VERTEX
  5
5297
  8
SCAN
 10
145.5474724836367955
 20
35.6376719744386605
 30
0.0
  0
VERTEX
  5
5298
  8
SCAN
 10
144.5732224836368118
 20
38.4212219744386516
 30
0.0
  0
VERTEX
  5
5299
  8
SCAN
 10
143.0422724836367934
 20
40.9264219744385969
 30
0.0
  0
VERTEX
  5
529A
  8
SCAN
 10
139.8411724836367966
 20
44.6842719744386727
 30
0.0
  0
VERTEX
  5
529B
  8
SCAN
 10
141.2329724836367859
 20
46.9111219744386787
 30
0.0
  0
VERTEX
  5
529C
  8
SCAN
 10
142.0680224836368097
 20
49.973021974438609
 30
0.0
  0
VERTEX
  5
529D
  8
SCAN
 10
142.0680224836368097
 20
54.5658719744386076
 30
0.0
  0
VERTEX
  5
529E
  8
SCAN
 10
141.6504724836368041
 20
56.6535719744386483
 30
0.0
  0
VERTEX
  5
529F
  8
SCAN
 10
140.676222483636792
 20
59.0195719744386267
 30
0.0
  0
VERTEX
  5
52A0
  8
SCAN
 10
139.0061224836368012
 20
61.1072719744386816
 30
0.0
  0
VERTEX
  5
52A1
  8
SCAN
 10
139.5628224836368076
 20
61.2464219744386469
 30
0.0
  0
VERTEX
  5
52A2
  8
SCAN
 10
141.5113224836368033
 20
60.8289219744386287
 30
0.0
  0
VERTEX
  5
52A3
  8
SCAN
 10
141.5113224836368033
 20
89.777971974438799
 30
0.0
  0
VERTEX
  5
52A4
  8
SCAN
 10
130.0987224836368057
 20
91.7264219744386651
 30
0.0
  0
VERTEX
  5
52A5
  8
SCAN
 10
130.0987224836368057
 20
88.2469719744386225
 30
0.0
  0
VERTEX
  5
52A6
  8
SCAN
 10
129.8203724836367883
 20
88.1078219744386502
 30
0.0
  0
VERTEX
  5
52A7
  8
SCAN
 10
108.9436224836368012
 20
91.8656219744386249
 30
0.0
  0
VERTEX
  5
52A8
  8
SCAN
 10
108.1085724836368058
 20
92.2831719744386163
 30
0.0
  0
VERTEX
  5
52A9
  8
SCAN
 10
107.9693724836368034
 20
96.4584719744386234
 30
0.0
  0
VERTEX
  5
52AA
  8
SCAN
 10
98.5052724836369009
 20
98.1286219744386585
 30
0.0
  0
VERTEX
  5
52AB
  8
SCAN
 10
97.5310224836368462
 20
95.3450719744385538
 30
0.0
  0
VERTEX
  5
52AC
  8
SCAN
 10
96.974322483636854
 20
92.143971974438557
 30
0.0
  0
VERTEX
  5
52AD
  8
SCAN
 10
97.252672483636843
 20
88.1078219744386502
 30
0.0
  0
VERTEX
  5
52AE
  8
SCAN
 10
97.8093724836368352
 20
86.2984719744386553
 30
0.0
  0
VERTEX
  5
52AF
  8
SCAN
 10
98.5052724836369009
 20
85.1850719744385856
 30
0.0
  0
VERTEX
  5
52B0
  8
SCAN
 10
97.1135224836368849
 20
80.1746719744385814
 30
0.0
  0
VERTEX
  5
52B1
  8
SCAN
 10
97.1135224836368849
 20
75.7209719744385552
 30
0.0
  0
VERTEX
  5
52B2
  8
SCAN
 10
97.5310224836368462
 20
73.9116219744385603
 30
0.0
  0
VERTEX
  5
52B3
  8
SCAN
 10
98.7836224836368615
 20
71.4064219744386151
 30
0.0
  0
VERTEX
  5
52B4
  8
SCAN
 10
100.5929724836367996
 20
69.5971219744385934
 30
0.0
  0
VERTEX
  5
52B5
  8
SCAN
 10
103.2373224836368024
 20
68.066171974438646
 30
0.0
  0
VERTEX
  5
52B6
  8
SCAN
 10
101.5672224836367974
 20
67.3702719744385945
 30
0.0
  0
VERTEX
  5
52B7
  8
SCAN
 10
100.1754224836367939
 20
66.3960219744386109
 30
0.0
  0
VERTEX
  5
52B8
  8
SCAN
 10
98.5052724836369009
 20
64.3083719744386713
 30
0.0
  0
VERTEX
  5
52B9
  8
SCAN
 10
97.8093724836368352
 20
62.7774219744386031
 30
0.0
  0
VERTEX
  5
52BA
  8
SCAN
 10
97.252672483636843
 20
60.5505719744386894
 30
0.0
  0
VERTEX
  5
52BB
  8
SCAN
 10
96.974322483636854
 20
58.1845219744386029
 30
0.0
  0
VERTEX
  5
52BC
  8
SCAN
 10
96.974322483636854
 20
53.8700219744385365
 30
0.0
  0
VERTEX
  5
52BD
  8
SCAN
 10
97.3918724836368597
 20
49.1379719744385923
 30
0.0
  0
VERTEX
  5
52BE
  8
SCAN
 10
97.6702224836368487
 20
48.1637219744386016
 30
0.0
  0
VERTEX
  5
52BF
  8
SCAN
 10
105.4641724836368013
 20
46.9111219744386787
 30
0.0
  0
VERTEX
  5
52C0
  8
SCAN
 10
105.6033724836368037
 20
46.6327219744385388
 30
0.0
  0
VERTEX
  5
52C1
  8
SCAN
 10
102.8198224836367984
 20
43.9883719744386212
 30
0.0
  0
VERTEX
  5
52C2
  8
SCAN
 10
100.0362224836368057
 20
40.5089219744386924
 30
0.0
  0
VERTEX
  5
52C3
  8
SCAN
 10
97.5310224836368462
 20
36.4727219744386773
 30
0.0
  0
VERTEX
  5
52C4
  8
SCAN
 10
94.8866724836368576
 20
30.6272719744386599
 30
0.0
  0
VERTEX
  5
52C5
  8
SCAN
 10
96.6959724836368792
 20
26.7302719744387183
 30
0.0
  0
VERTEX
  5
52C6
  8
SCAN
 10
99.0620224836368237
 20
22.5549219744386313
 30
0.0
  0
VERTEX
  5
52C7
  8
SCAN
 10
101.7063724836367982
 20
18.7971219744386495
 30
0.0
  0
VERTEX
  5
52C8
  8
SCAN
 10
103.3765224836368048
 20
16.8486219744386787
 30
0.0
  0
VERTEX
  5
52C9
  8
SCAN
 10
106.1600724836367959
 20
14.2042719744386492
 30
0.0
  0
VERTEX
  5
52CA
  8
SCAN
 10
108.9436224836368012
 20
12.2557719744386802
 30
0.0
  0
VERTEX
  5
52CB
  8
SCAN
 10
111.5880224836368058
 20
11.1423219744386301
 30
0.0
  0
VERTEX
  5
52CC
  8
SCAN
 10
113.8148724836368046
 20
10.8639719744388099
 30
0.0
  0
VERTEX
  5
52CD
  8
SCAN
 10
112.4230724836368012
 20
11.2815219744387001
 30
0.0
  0
VERTEX
  5
52CE
  8
SCAN
 10
109.2220224836368061
 20
13.0908219744385992
 30
0.0
  0
VERTEX
  5
52CF
  8
SCAN
 10
107.1343224836367938
 20
14.7609719744386307
 30
0.0
  0
VERTEX
  5
52D0
  8
SCAN
 10
104.6291224836368059
 20
17.2661719744388016
 30
0.0
  0
VERTEX
  5
52D1
  8
SCAN
 10
100.8713224836368028
 20
22.2765719744386885
 30
0.0
  0
VERTEX
  5
52D2
  8
SCAN
 10
98.9228224836368355
 20
25.6168719744386486
 30
0.0
  0
VERTEX
  5
52D3
  8
SCAN
 10
96.5567724836368484
 20
30.6272719744386599
 30
0.0
  0
VERTEX
  5
52D4
  8
SCAN
 10
99.3403724836368553
 20
32.5757719744386165
 30
0.0
  0
VERTEX
  5
52D5
  8
SCAN
 10
101.8455724836368006
 20
33.8283719744386602
 30
0.0
  0
VERTEX
  5
52D6
  8
SCAN
 10
105.4641724836368013
 20
35.0809719744386896
 30
0.0
  0
VERTEX
  5
52D7
  8
SCAN
 10
109.6395224836367959
 20
35.7768719744386203
 30
0.0
  0
VERTEX
  5
52D8
  8
SCAN
 10
114.3715724836367968
 20
35.6376719744386605
 30
0.0
  0
VERTEX
  5
52D9
  8
SCAN
 10
118.4077724836368048
 20
34.5242719744385909
 30
0.0
  0
VERTEX
  5
52DA
  8
SCAN
 10
121.1913224836367959
 20
32.8541219744386694
 30
0.0
  0
VERTEX
  5
52DB
  8
SCAN
 10
123.4181724836367948
 20
30.4880719744388102
 30
0.0
  0
VERTEX
  5
52DC
  8
SCAN
 10
125.2274724836368023
 20
26.8694719744385715
 30
0.0
  0
VERTEX
  5
52DD
  8
SCAN
 10
125.3666724836368047
 20
29.3746719744386304
 30
0.0
  0
VERTEX
  5
52DE
  8
SCAN
 10
124.8099224836367966
 20
31.7406719744386088
 30
0.0
  0
VERTEX
  5
52DF
  8
SCAN
 10
123.5573224836367956
 20
33.9675219744386325
 30
0.0
  0
VERTEX
  5
52E0
  8
SCAN
 10
122.443922483636797
 20
35.220121974438662
 30
0.0
  0
VERTEX
  5
52E1
  8
SCAN
 10
121.052122483636893
 20
36.333571974438712
 30
0.0
  0
VERTEX
  5
52E2
  8
SCAN
 10
118.4077724836368048
 20
37.7253219744386001
 30
0.0
  0
VERTEX
  5
52E3
  8
SCAN
 10
115.3458224836367947
 20
38.5604219744386114
 30
0.0
  0
VERTEX
  5
52E4
  8
SCAN
 10
111.448872483636805
 20
38.6995719744386975
 30
0.0
  0
VERTEX
  5
52E5
  8
SCAN
 10
109.2220224836368061
 20
38.4212219744386516
 30
0.0
  0
VERTEX
  5
52E6
  8
SCAN
 10
108.5261224836367973
 20
38.1428719744385987
 30
0.0
  0
VERTEX
  5
52E7
  8
SCAN
 10
107.8302224836368026
 20
38.2820719744386793
 30
0.0
  0
VERTEX
  5
52E8
  8
SCAN
 10
110.3354224836368047
 20
40.091371974438573
 30
0.0
  0
VERTEX
  5
52E9
  8
SCAN
 10
112.701472483636806
 20
41.3439719744386025
 30
0.0
  0
VERTEX
  5
52EA
  8
SCAN
 10
116.7376224836367982
 20
42.596571974438632
 30
0.0
  0
VERTEX
  5
52EB
  8
SCAN
 10
121.3304724836367967
 20
42.596571974438632
 30
0.0
  0
VERTEX
  5
52EC
  8
SCAN
 10
123.4181724836367948
 20
42.0398719744385332
 30
0.0
  0
VERTEX
  5
52ED
  8
SCAN
 10
125.2274724836368023
 20
41.2048219744386301
 30
0.0
  0
VERTEX
  5
52EE
  8
SCAN
 10
126.8976224836367948
 20
40.091371974438573
 30
0.0
  0
VERTEX
  5
52EF
  8
SCAN
 10
128.9852724836368054
 20
38.0037219744386334
 30
0.0
  0
VERTEX
  5
52F0
  8
SCAN
 10
130.3770724836367947
 20
35.6376719744386605
 30
0.0
  0
VERTEX
  5
52F1
  8
SCAN
 10
130.6554224836368121
 20
34.8026219744386367
 30
0.0
  0
VERTEX
  5
52F2
  8
SCAN
 10
130.5162224836367955
 20
34.5242719744385909
 30
0.0
  0
VERTEX
  5
52F3
  8
SCAN
 10
127.8718724836368068
 20
37.446971974438668
 30
0.0
  0
VERTEX
  5
52F4
  8
SCAN
 10
125.2274724836368023
 20
39.1171219744385894
 30
0.0
  0
VERTEX
  5
52F5
  8
SCAN
 10
121.1913224836367959
 20
40.3697219744386118
 30
0.0
  0
VERTEX
  5
52F6
  8
SCAN
 10
117.5726724836367936
 20
40.5089219744386924
 30
0.0
  0
VERTEX
  5
52F7
  8
SCAN
 10
120.6346224836368037
 20
39.5346719744387087
 30
0.0
  0
VERTEX
  5
52F8
  8
SCAN
 10
123.2789724836368066
 20
37.8645219744385599
 30
0.0
  0
VERTEX
  5
52F9
  8
SCAN
 10
125.0883224836368015
 20
36.0552219744386733
 30
0.0
  0
VERTEX
  5
52FA
  8
SCAN
 10
126.0625224836367977
 20
34.6634219744385632
 30
0.0
  0
VERTEX
  5
52FB
  8
SCAN
 10
127.4543224836368012
 20
31.3231719744385906
 30
0.0
  0
VERTEX
  5
52FC
  8
SCAN
 10
128.0110224836367934
 20
27.8437219744386688
 30
0.0
  0
VERTEX
  5
52FD
  8
SCAN
 10
127.7326724836368044
 20
22.9724719744386299
 30
0.0
  0
VERTEX
  5
52FE
  8
SCAN
 10
126.3409224836368026
 20
17.9620719744386292
 30
0.0
  0
VERTEX
  5
52FF
  8
SCAN
 10
125.2274724836368023
 20
15.7352219744386108
 30
0.0
  0
VERTEX
  5
5300
  8
SCAN
 10
124.5315724836367934
 20
14.9001219744387203
 30
0.0
  0
VERTEX
  5
5301
  8
SCAN
 10
122.8614724836366037
 20
14.7609719744386307
 30
0.0
  0
VERTEX
  5
5302
  8
SCAN
 10
121.1913224836367959
 20
13.7867219744386507
 30
0.0
  0
VERTEX
  5
5303
  8
SCAN
 10
119.7995224836368067
 20
15.0393219744386801
 30
0.0
  0
VERTEX
  5
5304
  8
SCAN
 10
119.2428224836368003
 20
16.7094719744387099
 30
0.0
  0
VERTEX
  5
5305
  8
SCAN
 10
119.2428224836368003
 20
17.9620719744386292
 30
0.0
  0
VERTEX
  5
5306
  8
SCAN
 10
120.2170724836367981
 20
22.9724719744386299
 30
0.0
  0
VERTEX
  5
5307
  8
SCAN
 10
120.2170724836367981
 20
25.8952219744388117
 30
0.0
  0
VERTEX
  5
5308
  8
SCAN
 10
119.7995224836368067
 20
27.4261719744386596
 30
0.0
  0
VERTEX
  5
5309
  8
SCAN
 10
118.6861224836367938
 20
29.3746719744386304
 30
0.0
  0
VERTEX
  5
530A
  8
SCAN
 10
116.5984224836367957
 20
31.1839719744386414
 30
0.0
  0
VERTEX
  5
530B
  8
SCAN
 10
114.7891224836368025
 20
31.8798719744386894
 30
0.0
  0
VERTEX
  5
530C
  8
SCAN
 10
113.1189724836367958
 20
32.158221974438618
 30
0.0
  0
VERTEX
  5
530D
  8
SCAN
 10
109.9178724836367991
 20
32.158221974438618
 30
0.0
  0
VERTEX
  5
530E
  8
SCAN
 10
108.247772483636794
 20
31.8798719744386894
 30
0.0
  0
VERTEX
  5
530F
  8
SCAN
 10
105.7425224836368045
 20
31.0448219744386584
 30
0.0
  0
VERTEX
  5
5310
  8
SCAN
 10
103.9332224836367971
 20
30.0705719744386784
 30
0.0
  0
VERTEX
  5
5311
  8
SCAN
 10
102.1239224836368038
 20
28.6787719744386891
 30
0.0
  0
VERTEX
  5
5312
  8
SCAN
 10
101.149672483636806
 20
27.4261719744386596
 30
0.0
  0
VERTEX
  5
5313
  8
SCAN
 10
105.3250224836368005
 20
28.2612219744388007
 30
0.0
  0
VERTEX
  5
5314
  8
SCAN
 10
108.5261224836367973
 20
28.4004219744386397
 30
0.0
  0
VERTEX
  5
5315
  8
SCAN
 10
108.665272483636798
 20
28.2612219744388007
 30
0.0
  0
VERTEX
  5
5316
  8
SCAN
 10
106.995172483636793
 20
26.4519219744386795
 30
0.0
  0
VERTEX
  5
5317
  8
SCAN
 10
105.6033724836368037
 20
24.3642719744386191
 30
0.0
  0
VERTEX
  5
5318
  8
SCAN
 10
104.6291224836368059
 20
21.8590219744388001
 30
0.0
  0
VERTEX
  5
5319
  8
SCAN
 10
104.9074724836367949
 20
21.8590219744388001
 30
0.0
  0
VERTEX
  5
531A
  8
SCAN
 10
107.6910224836368002
 20
23.9467219744386206
 30
0.0
  0
VERTEX
  5
531B
  8
SCAN
 10
110.8921224836367969
 20
25.6168719744386486
 30
0.0
  0
VERTEX
  5
531C
  8
SCAN
 10
111.0313224836367993
 20
25.4776719744386995
 30
0.0
  0
VERTEX
  5
531D
  8
SCAN
 10
109.9178724836367991
 20
23.5291719744386114
 30
0.0
  0
VERTEX
  5
531E
  8
SCAN
 10
109.2220224836368061
 20
21.5806719744386406
 30
0.0
  0
VERTEX
  5
531F
  8
SCAN
 10
108.8044724836368005
 20
19.7713719744386403
 30
0.0
  0
VERTEX
  5
5320
  8
SCAN
 10
108.8044724836368005
 20
17.2661719744388016
 30
0.0
  0
VERTEX
  5
5321
  8
SCAN
 10
110.3354224836368047
 20
19.6321719744386698
 30
0.0
  0
VERTEX
  5
5322
  8
SCAN
 10
112.0055724836367972
 20
21.3023219744387085
 30
0.0
  0
VERTEX
  5
5323
  8
SCAN
 10
113.8148724836368046
 20
22.2765719744386885
 30
0.0
  0
VERTEX
  5
5324
  8
SCAN
 10
115.7633724836368003
 20
22.415771974438659
 30
0.0
  0
VERTEX
  5
5325
  8
SCAN
 10
116.0417224836368035
 20
21.9982219744386498
 30
0.0
  0
VERTEX
  5
5326
  8
SCAN
 10
116.0417224836368035
 20
16.9878219744386385
 30
0.0
  0
VERTEX
  5
5327
  8
SCAN
 10
116.8767724836367989
 20
14.7609719744386307
 30
0.0
  0
VERTEX
  5
5328
  8
SCAN
 10
119.1036224836367978
 20
12.3949219744386596
 30
0.0
  0
VERTEX
  5
5329
  8
SCAN
 10
121.8872224836368048
 20
10.5856219744386504
 30
0.0
  0
VERTEX
  5
532A
  8
SCAN
 10
123.5573224836367956
 20
10.0289219744386706
 30
0.0
  0
VERTEX
  5
532B
  8
SCAN
 10
124.3924224836368069
 20
10.0289219744386706
 30
0.0
  0
VERTEX
  5
532C
  8
SCAN
 10
125.6450224836367937
 20
11.4206719744386707
 30
0.0
  0
VERTEX
  5
532D
  8
SCAN
 10
127.4543224836368012
 20
14.3434219744386304
 30
0.0
  0
VERTEX
  5
532E
  8
SCAN
 10
128.9852724836368054
 20
17.54452197443862
 30
0.0
  0
VERTEX
  5
532F
  8
SCAN
 10
130.0987224836368057
 20
18.7971219744386495
 30
0.0
  0
VERTEX
  5
5330
  8
SCAN
 10
131.3513224836368067
 20
19.3538219744386311
 30
0.0
  0
VERTEX
  5
5331
  8
SCAN
 10
132.7430724836368086
 20
19.3538219744386311
 30
0.0
  0
VERTEX
  5
5332
  8
SCAN
 10
134.274072483636786
 20
18.5187719744386108
 30
0.0
  0
VERTEX
  5
5333
  8
SCAN
 10
134.1348724836367978
 20
19.2146719744386587
 30
0.0
  0
VERTEX
  5
5334
  8
SCAN
 10
133.1606224836368142
 20
20.3280719744386182
 30
0.0
  0
VERTEX
  5
5335
  8
SCAN
 10
135.1091224836368099
 20
21.1631719744386295
 30
0.0
  0
VERTEX
  5
5336
  8
SCAN
 10
137.892672483636801
 20
23.9467219744386206
 30
0.0
  0
VERTEX
  5
5337
  8
SCAN
 10
138.0318724836369029
 20
23.5291719744386114
 30
0.0
  0
VERTEX
  5
5338
  8
SCAN
 10
137.614322483636812
 20
20.6064219744386605
 30
0.0
  0
VERTEX
  5
5339
  8
SCAN
 10
136.6400724836367999
 20
15.8743719744385903
 30
0.0
  0
VERTEX
  5
533A
  8
SCAN
 10
135.3874724836367989
 20
11.6990219744387201
 30
0.0
  0
VERTEX
  5
533B
  8
SCAN
 10
134.5524224836368035
 20
9.8897219744386007
 30
0.0
  0
VERTEX
  5
533C
  8
SCAN
 10
133.9956724836368096
 20
9.4721719744387087
 30
0.0
  0
VERTEX
  5
533D
  8
SCAN
 10
132.0472224836368014
 20
8.9154719744386171
 30
0.0
  0
VERTEX
  5
533E
  8
SCAN
 10
129.5420224836367993
 20
8.4979719744386557
 30
0.0
  0
VERTEX
  5
533F
  8
SCAN
 10
127.8718724836368068
 20
8.4979719744386557
 30
0.0
  0
VERTEX
  5
5340
  8
SCAN
 10
130.6554224836368121
 20
7.9412219744386334
 30
0.0
  0
SEQEND
  5
5341
  8
SCAN
  0
POLYLINE
  5
30C
  8
SCAN
 66
     1
 10
0.0
 20
0.0
 30
0.0
 70
     1
  0
VERTEX
  5
5342
  8
SCAN
 10
131.7688724836368124
 20
26.3127219744385989
 30
0.0
  0
VERTEX
  5
5343
  8
SCAN
 10
132.0472224836368014
 20
25.4776719744386995
 30
0.0
  0
VERTEX
  5
5344
  8
SCAN
 10
131.4904724836368075
 20
25.1993219744386501
 30
0.0
  0
VERTEX
  5
5345
  8
SCAN
 10
131.2121224836367901
 20
25.4776719744386995
 30
0.0
  0
VERTEX
  5
5346
  8
SCAN
 10
131.2121224836367901
 20
26.0343719744385602
 30
0.0
  0
SEQEND
  5
5347
  8
SCAN
  0
POLYLINE
  5
30D
  8
SCAN
 66
     1
 10
0.0
 20
0.0
 30
0.0
 70
     1
  0
VERTEX
  5
5348
  8
SCAN
 10
131.9080224836368131
 20
28.8179719744386489
 30
0.0
  0
VERTEX
  5
5349
  8
SCAN
 10
132.0472224836368014
 20
27.704521974438709
 30
0.0
  0
VERTEX
  5
534A
  8
SCAN
 10
130.7946224836368003
 20
26.8694719744385715
 30
0.0
  0
VERTEX
  5
534B
  8
SCAN
 10
130.3770724836367947
 20
25.4776719744386995
 30
0.0
  0
VERTEX
  5
534C
  8
SCAN
 10
129.959522483636789
 20
26.1735719744386301
 30
0.0
  0
VERTEX
  5
534D
  8
SCAN
 10
130.0987224836368057
 20
27.5653219744386284
 30
0.0
  0
VERTEX
  5
534E
  8
SCAN
 10
131.3513224836368067
 20
28.8179719744386489
 30
0.0
  0
SEQEND
  5
534F
  8
SCAN
  0
POLYLINE
  5
30E
  8
SCAN
 66
     1
 10
0.0
 20
0.0
 30
0.0
 70
     1
  0
VERTEX
  5
5350
  8
SCAN
 10
134.8307724836367925
 20
32.2974219744388122
 30
0.0
  0
VERTEX
  5
5351
  8
SCAN
 10
134.969922483636708
 20
26.0343719744385602
 30
0.0
  0
VERTEX
  5
5352
  8
SCAN
 10
134.6915724836368042
 20
24.6426219744385584
 30
0.0
  0
VERTEX
  5
5353
  8
SCAN
 10
134.1348724836367978
 20
23.5291719744386114
 30
0.0
  0
VERTEX
  5
5354
  8
SCAN
 10
133.4389724836368032
 20
22.8332719744385599
 30
0.0
  0
VERTEX
  5
5355
  8
SCAN
 10
132.7430724836368086
 20
22.415771974438659
 30
0.0
  0
VERTEX
  5
5356
  8
SCAN
 10
131.9080224836368131
 20
22.2765719744386885
 30
0.0
  0
VERTEX
  5
5357
  8
SCAN
 10
131.7688724836368124
 20
22.415771974438659
 30
0.0
  0
VERTEX
  5
5358
  8
SCAN
 10
132.4647224836367911
 20
22.9724719744386299
 30
0.0
  0
VERTEX
  5
5359
  8
SCAN
 10
133.2998224836368024
 20
24.6426219744385584
 30
0.0
  0
VERTEX
  5
535A
  8
SCAN
 10
133.4389724836368032
 20
29.3746719744386304
 30
0.0
  0
VERTEX
  5
535B
  8
SCAN
 10
133.9956724836368096
 20
31.46232197443857
 30
0.0
  0
SEQEND
  5
535C
  8
SCAN
  0
POLYLINE
  5
30F
  8
SCAN
 66
     1
 10
0.0
 20
0.0
 30
0.0
 70
     1
  0
VERTEX
  5
535D
  8
SCAN
 10
138.866922483636813
 20
64.1691719744385978
 30
0.0
  0
VERTEX
  5
535E
  8
SCAN
 10
137.4751724836368112
 20
64.1691719744385978
 30
0.0
  0
VERTEX
  5
535F
  8
SCAN
 10
107.2735224836367962
 20
69.5971219744385934
 30
0.0
  0
VERTEX
  5
5360
  8
SCAN
 10
104.2115724836368003
 20
70.5713719744385912
 30
0.0
  0
VERTEX
  5
5361
  8
SCAN
 10
102.2630724836368046
 20
71.6848219744386341
 30
0.0
  0
VERTEX
  5
5362
  8
SCAN
 10
100.8713224836368028
 20
73.0765719744386502
 30
0.0
  0
VERTEX
  5
5363
  8
SCAN
 10
100.1754224836367939
 20
74.3291719744386796
 30
0.0
  0
VERTEX
  5
5364
  8
SCAN
 10
99.6187224836366738
 20
76.6952219744385246
 30
0.0
  0
VERTEX
  5
5365
  8
SCAN
 10
99.6187224836366738
 20
79.2004219744385836
 30
0.0
  0
VERTEX
  5
5366
  8
SCAN
 10
100.1754224836367939
 20
81.8448219744386165
 30
0.0
  0
VERTEX
  5
5367
  8
SCAN
 10
100.5929724836367996
 20
81.9839719744385746
 30
0.0
  0
VERTEX
  5
5368
  8
SCAN
 10
105.1858224836367981
 20
81.148921974438565
 30
0.0
  0
VERTEX
  5
5369
  8
SCAN
 10
105.4641724836368013
 20
78.6437219744386198
 30
0.0
  0
VERTEX
  5
536A
  8
SCAN
 10
105.8817224836368069
 20
77.6694719744386362
 30
0.0
  0
VERTEX
  5
536B
  8
SCAN
 10
107.2735224836367962
 20
76.5560219744386927
 30
0.0
  0
VERTEX
  5
536C
  8
SCAN
 10
110.3354224836368047
 20
75.7209719744385552
 30
0.0
  0
VERTEX
  5
536D
  8
SCAN
 10
132.7430724836368086
 20
71.8239719744386207
 30
0.0
  0
VERTEX
  5
536E
  8
SCAN
 10
132.8822724836367968
 20
75.4426219744386231
 30
0.0
  0
VERTEX
  5
536F
  8
SCAN
 10
138.7277724836368975
 20
74.4683719744386394
 30
0.0
  0
SEQEND
  5
5370
  8
SCAN
  0
POLYLINE
  5
310
  8
SCAN
 66
     1
 10
0.0
 20
0.0
 30
0.0
 70
     1
  0
VERTEX
  5
5371
  8
SCAN
 10
138.8669224836368983
 20
77.2519219744386305
 30
0.0
  0
VERTEX
  5
5372
  8
SCAN
 10
138.7277724836368975
 20
77.112721974438557
 30
0.0
  0
VERTEX
  5
5373
  8
SCAN
 10
110.3354224836368047
 20
82.1231719744385487
 30
0.0
  0
VERTEX
  5
5374
  8
SCAN
 10
106.0209224836367952
 20
83.097421974438646
 30
0.0
  0
VERTEX
  5
5375
  8
SCAN
 10
103.7940724836367963
 20
83.932471974438684
 30
0.0
  0
VERTEX
  5
5376
  8
SCAN
 10
102.5414724836367952
 20
84.6283719744385934
 30
0.0
  0
VERTEX
  5
5377
  8
SCAN
 10
101.0104724836366046
 20
86.0201219744385952
 30
0.0
  0
VERTEX
  5
5378
  8
SCAN
 10
100.4537724836367971
 20
86.8552219744386207
 30
0.0
  0
VERTEX
  5
5379
  8
SCAN
 10
99.8970724836368618
 20
88.386171974438696
 30
0.0
  0
VERTEX
  5
537A
  8
SCAN
 10
99.6187224836366738
 20
89.9171219744385439
 30
0.0
  0
VERTEX
  5
537B
  8
SCAN
 10
99.6187224836366738
 20
92.4223219744385887
 30
0.0
  0
VERTEX
  5
537C
  8
SCAN
 10
100.1754224836367939
 20
94.9275219744386618
 30
0.0
  0
VERTEX
  5
537D
  8
SCAN
 10
101.149672483636806
 20
95.0667219744386216
 30
0.0
  0
VERTEX
  5
537E
  8
SCAN
 10
105.0466724836367973
 20
94.3708219744385701
 30
0.0
  0
VERTEX
  5
537F
  8
SCAN
 10
105.3250224836368005
 20
94.092471974438638
 30
0.0
  0
VERTEX
  5
5380
  8
SCAN
 10
105.4641724836368013
 20
91.8656219744386249
 30
0.0
  0
VERTEX
  5
5381
  8
SCAN
 10
105.7425224836368045
 20
91.030571974438601
 30
0.0
  0
VERTEX
  5
5382
  8
SCAN
 10
106.2992724836367984
 20
90.3346719744386633
 30
0.0
  0
VERTEX
  5
5383
  8
SCAN
 10
107.412672483636797
 20
89.638771974438626
 30
0.0
  0
VERTEX
  5
5384
  8
SCAN
 10
110.7529724836367961
 20
88.8037219744385879
 30
0.0
  0
VERTEX
  5
5385
  8
SCAN
 10
118.6861224836367938
 20
87.5511219744385443
 30
0.0
  0
VERTEX
  5
5386
  8
SCAN
 10
132.0472224836368014
 20
85.0458719744386258
 30
0.0
  0
VERTEX
  5
5387
  8
SCAN
 10
132.7430724836368086
 20
85.0458719744386258
 30
0.0
  0
VERTEX
  5
5388
  8
SCAN
 10
132.8822724836367968
 20
88.6645219744386139
 30
0.0
  0
VERTEX
  5
5389
  8
SCAN
 10
138.7277724836368975
 20
87.5511219744385443
 30
0.0
  0
SEQEND
  5
538A
  8
SCAN
  0
POLYLINE
  5
311
  8
SCAN
 66
     1
 10
0.0
 20
0.0
 30
0.0
 70
     1
  0
VERTEX
  5
538B
  8
SCAN
 10
139.145272483636802
 20
48.8595719744385519
 30
0.0
  0
VERTEX
  5
538C
  8
SCAN
 10
138.4493724836368074
 20
47.3286219744385903
 30
0.0
  0
VERTEX
  5
538D
  8
SCAN
 10
137.614322483636812
 20
46.3543719744385996
 30
0.0
  0
VERTEX
  5
538E
  8
SCAN
 10
135.9441724836368053
 20
45.3801219744386231
 30
0.0
  0
VERTEX
  5
538F
  8
SCAN
 10
134.8307724836367925
 20
45.1017719744386767
 30
0.0
  0
VERTEX
  5
5390
  8
SCAN
 10
132.1863724836368021
 20
44.962621974438612
 30
0.0
  0
VERTEX
  5
5391
  8
SCAN
 10
126.3409224836368026
 20
45.9368719744385814
 30
0.0
  0
VERTEX
  5
5392
  8
SCAN
 10
126.2017224836368001
 20
52.1998719744386221
 30
0.0
  0
VERTEX
  5
5393
  8
SCAN
 10
126.8976224836367948
 20
52.3390219744385874
 30
0.0
  0
VERTEX
  5
5394
  8
SCAN
 10
130.9337724836368011
 20
51.5039719744386915
 30
0.0
  0
VERTEX
  5
5395
  8
SCAN
 10
133.4389724836368032
 20
51.2256219744386385
 30
0.0
  0
VERTEX
  5
5396
  8
SCAN
 10
133.7173224836367922
 20
51.7823219744386094
 30
0.0
  0
VERTEX
  5
5397
  8
SCAN
 10
133.7173224836367922
 20
53.4524719744386516
 30
0.0
  0
VERTEX
  5
5398
  8
SCAN
 10
133.2998224836368024
 20
54.1483719744385823
 30
0.0
  0
VERTEX
  5
5399
  8
SCAN
 10
132.6039224836368078
 20
54.5658719744386076
 30
0.0
  0
VERTEX
  5
539A
  8
SCAN
 10
130.5162224836367955
 20
55.1226219744386867
 30
0.0
  0
VERTEX
  5
539B
  8
SCAN
 10
108.5261224836367973
 20
58.8804219744386614
 30
0.0
  0
VERTEX
  5
539C
  8
SCAN
 10
106.7167724836368023
 20
58.7412219744385879
 30
0.0
  0
VERTEX
  5
539D
  8
SCAN
 10
106.2992724836367984
 20
58.4628719744385421
 30
0.0
  0
VERTEX
  5
539E
  8
SCAN
 10
106.0209224836367952
 20
57.9061719744386778
 30
0.0
  0
VERTEX
  5
539F
  8
SCAN
 10
105.7425224836368045
 20
56.514371974438582
 30
0.0
  0
VERTEX
  5
53A0
  8
SCAN
 10
105.7425224836368045
 20
49.6946719744385632
 30
0.0
  0
VERTEX
  5
53A1
  8
SCAN
 10
104.9074724836367949
 20
49.5554719744386034
 30
0.0
  0
VERTEX
  5
53A2
  8
SCAN
 10
100.1754224836367939
 20
50.3905719744386076
 30
0.0
  0
VERTEX
  5
53A3
  8
SCAN
 10
99.8970724836368618
 20
50.6689219744385468
 30
0.0
  0
VERTEX
  5
53A4
  8
SCAN
 10
99.6187224836366738
 20
53.4524719744386516
 30
0.0
  0
VERTEX
  5
53A5
  8
SCAN
 10
99.6187224836366738
 20
58.4628719744385421
 30
0.0
  0
VERTEX
  5
53A6
  8
SCAN
 10
100.1754224836367939
 20
61.5248219744386802
 30
0.0
  0
VERTEX
  5
53A7
  8
SCAN
 10
101.0104724836366046
 20
63.3341219744385668
 30
0.0
  0
VERTEX
  5
53A8
  8
SCAN
 10
102.1239224836368038
 20
64.5867219744386034
 30
0.0
  0
VERTEX
  5
53A9
  8
SCAN
 10
103.2373224836368024
 20
65.2826219744386549
 30
0.0
  0
VERTEX
  5
53AA
  8
SCAN
 10
105.3250224836368005
 20
65.8393219744386329
 30
0.0
  0
VERTEX
  5
53AB
  8
SCAN
 10
109.6395224836367959
 20
65.7001219744386731
 30
0.0
  0
VERTEX
  5
53AC
  8
SCAN
 10
128.8461224836368046
 20
62.3598719744385903
 30
0.0
  0
VERTEX
  5
53AD
  8
SCAN
 10
132.6039224836368078
 20
61.5248219744386802
 30
0.0
  0
VERTEX
  5
53AE
  8
SCAN
 10
135.2483224836367981
 20
60.5505719744386894
 30
0.0
  0
VERTEX
  5
53AF
  8
SCAN
 10
136.7792724836367881
 20
59.5763219744385992
 30
0.0
  0
VERTEX
  5
53B0
  8
SCAN
 10
137.7535224836368002
 20
58.6020719744386227
 30
0.0
  0
VERTEX
  5
53B1
  8
SCAN
 10
138.5885724836367956
 20
57.349471974438579
 30
0.0
  0
VERTEX
  5
53B2
  8
SCAN
 10
139.2844724836367902
 20
55.2617719744385383
 30
0.0
  0
VERTEX
  5
53B3
  8
SCAN
 10
139.5628224836368076
 20
52.8957719744385599
 30
0.0
  0
VERTEX
  5
53B4
  8
SCAN
 10
139.423622483636791
 20
49.973021974438609
 30
0.0
  0
SEQEND
  5
53B5
  8
SCAN
  0
POLYLINE
  5
312
  8
SCAN
 66
     1
 10
0.0
 20
0.0
 30
0.0
 70
     1
  0
VERTEX
  5
53B6
  8
SCAN
 10
142.9030724836368051
 20
36.8902719744385834
 30
0.0
  0
VERTEX
  5
53B7
  8
SCAN
 10
142.485572483636787
 20
36.7511219744386111
 30
0.0
  0
VERTEX
  5
53B8
  8
SCAN
 10
140.3978724836368031
 20
37.3078219744385819
 30
0.0
  0
VERTEX
  5
53B9
  8
SCAN
 10
138.3102224836368066
 20
37.3078219744385819
 30
0.0
  0
VERTEX
  5
53BA
  8
SCAN
 10
137.0576224836368056
 20
38.6995719744386975
 30
0.0
  0
VERTEX
  5
53BB
  8
SCAN
 10
139.7020224836367959
 20
38.8387719744386573
 30
0.0
  0
VERTEX
  5
53BC
  8
SCAN
 10
139.145272483636802
 20
39.3954719744386423
 30
0.0
  0
VERTEX
  5
53BD
  8
SCAN
 10
137.1967724836368063
 20
40.5089219744386924
 30
0.0
  0
VERTEX
  5
53BE
  8
SCAN
 10
135.6658224836367879
 20
40.9264219744385969
 30
0.0
  0
VERTEX
  5
53BF
  8
SCAN
 10
134.6915724836368042
 20
40.9264219744385969
 30
0.0
  0
VERTEX
  5
53C0
  8
SCAN
 10
133.1606224836368142
 20
42.318221974438579
 30
0.0
  0
VERTEX
  5
53C1
  8
SCAN
 10
135.6658224836367879
 20
42.4574219744386596
 30
0.0
  0
VERTEX
  5
53C2
  8
SCAN
 10
137.4751724836368112
 20
42.0398719744385332
 30
0.0
  0
VERTEX
  5
53C3
  8
SCAN
 10
139.0061224836368012
 20
41.3439719744386025
 30
0.0
  0
VERTEX
  5
53C4
  8
SCAN
 10
140.9546224836367969
 20
39.8130219744386409
 30
0.0
  0
VERTEX
  5
53C5
  8
SCAN
 10
142.0680224836368097
 20
38.4212219744386516
 30
0.0
  0
SEQEND
  5
53C6
  8
SCAN
  0
LINE
  5
314
  8
SCAN
 10
478.6861224836368933
 20
147.5237219744385868
 30
0.0
 11
438.6861224836367796
 21
147.5237219744385868
 31
0.0
  0
LINE
  5
98A
  8
CONSTRUCTION_LINES
 10
158.6861224836368081
 20
147.5237219744385868
 30
0.0
 11
178.6861224836368081
 21
147.5237219744385868
 31
0.0
  0
LINE
  5
98B
  8
CONSTRUCTION_LINES
 10
318.6861224836368933
 20
147.5237219744385868
 30
0.0
 11
338.6861224836368933
 21
147.5237219744385868
 31
0.0
  0
LINE
  5
99D
  8
SCAN
 10
338.6861224836368933
 20
147.5237219744385868
 30
0.0
 11
278.6861224836368933
 21
147.5237219744385868
 31
0.0
  0
LINE
  5
99F
  8
SCAN
 10
178.6861224836368081
 20
147.5237219744387005
 30
0.0
 11
118.6861224836367938
 21
147.5237219744387005
 31
0.0
  0
LINE
  5
9A0
  8
SCAN
 10
18.6861224836368613
 20
147.5237219744388142
 30
0.0
 11
-1.3138775163631351
 21
147.5237219744388142
 31
0.0
  0
POLYLINE
  5
365F
  8
CUT_1
 66
     1
 10
0.0
 20
0.0
 30
0.0
  0
VERTEX
  5
53C7
  8
CUT_1
 10
118.6861224836367938
 20
147.5237219744387005
 30
0.0
  0
VERTEX
  5
53C8
  8
CUT_1
 10
118.6861224836367938
 20
156.0987219744386039
 30
0.0
  0
VERTEX
  5
53C9
  8
CUT_1
 10
18.6861224836368613
 20
156.0987219744386039
 30
0.0
  0
VERTEX
  5
53CA
  8
CUT_1
 10
18.6861224836368613
 20
147.5237219744387005
 30
0.0
  0
SEQEND
  5
53CB
  8
CUT_1
  0
POLYLINE
  5
3667
  8
CUT_1
 66
     1
 10
0.0
 20
0.0
 30
0.0
  0
VERTEX
  5
53CC
  8
CUT_1
 10
18.6861224836368613
 20
147.5237219744387005
 30
0.0
  0
VERTEX
  5
53CD
  8
CUT_1
 10
18.6861224836368613
 20
138.9487219744387971
 30
0.0
  0
VERTEX
  5
53CE
  8
CUT_1
 10
118.6861224836367938
 20
138.9487219744387971
 30
0.0
  0
VERTEX
  5
53CF
  8
CUT_1
 10
118.6861224836367938
 20
147.5237219744387005
 30
0.0
  0
SEQEND
  5
53D0
  8
CUT_1
  0
POLYLINE
  5
3670
  8
CUT_1
 66
     1
 10
0.0
 20
0.0
 30
0.0
  0
VERTEX
  5
53D1
  8
CUT_1
 10
278.6861224836368933
 20
147.5237219744385868
 30
0.0
  0
VERTEX
  5
53D2
  8
CUT_1
 10
278.6861224836368933
 20
156.0987219744384902
 30
0.0
  0
VERTEX
  5
53D3
  8
CUT_1
 10
178.6861224836368081
 20
156.0987219744386039
 30
0.0
  0
VERTEX
  5
53D4
  8
CUT_1
 10
178.6861224836368081
 20
147.5237219744387005
 30
0.0
  0
SEQEND
  5
53D5
  8
CUT_1
  0
POLYLINE
  5
3671
  8
CUT_1
 66
     1
 10
0.0
 20
0.0
 30
0.0
  0
VERTEX
  5
53D6
  8
CUT_1
 10
178.6861224836368081
 20
147.5237219744387005
 30
0.0
  0
VERTEX
  5
53D7
  8
CUT_1
 10
178.6861224836368081
 20
138.9487219744387971
 30
0.0
  0
VERTEX
  5
53D8
  8
CUT_1
 10
278.6861224836367796
 20
138.9487219744387971
 30
0.0
  0
VERTEX
  5
53D9
  8
CUT_1
 10
278.6861224836368933
 20
147.5237219744385868
 30
0.0
  0
SEQEND
  5
53DA
  8
CUT_1
  0
POLYLINE
  5
367A
  8
CUT_1
 66
     1
 10
0.0
 20
0.0
 30
0.0
  0
VERTEX
  5
53DB
  8
CUT_1
 10
438.6861224836367796
 20
147.5237219744385868
 30
0.0
  0
VERTEX
  5
53DC
  8
CUT_1
 10
438.6861224836367796
 20
156.0987219744384902
 30
0.0
  0
VERTEX
  5
53DD
  8
CUT_1
 10
338.6861224836368933
 20
156.0987219744384902
 30
0.0
  0
VERTEX
  5
53DE
  8
CUT_1
 10
338.6861224836368933
 20
147.5237219744385868
 30
0.0
  0
SEQEND
  5
53DF
  8
CUT_1
  0
POLYLINE
  5
367B
  8
CUT_1
 66
     1
 10
0.0
 20
0.0
 30
0.0
  0
VERTEX
  5
53E0
  8
CUT_1
 10
338.6861224836368933
 20
147.5237219744385868
 30
0.0
  0
VERTEX
  5
53E1
  8
CUT_1
 10
338.6861224836367796
 20
138.9487219744387971
 30
0.0
  0
VERTEX
  5
53E2
  8
CUT_1
 10
438.6861224836367796
 20
138.9487219744387971
 30
0.0
  0
VERTEX
  5
53E3
  8
CUT_1
 10
438.6861224836367796
 20
147.5237219744385868
 30
0.0
  0
SEQEND
  5
53E4
  8
CUT_1
  0
LINE
  5
3D80
  8
CONSTRUCTION_LINES
 10
13.6861224836368898
 20
281.7487219744385811
 30
0.0
 11
13.6861224836368596
 21
191.7487219744386095
 31
0.0
  0
LINE
  5
3D81
  8
CONSTRUCTION_LINES
 10
173.6861224836368933
 20
281.7487219744385243
 30
0.0
 11
173.6861224836368081
 21
191.7487219744386095
 31
0.0
  0
LINE
  5
3D82
  8
CONSTRUCTION_LINES
 10
333.6861224836368933
 20
281.7487219744385243
 30
0.0
 11
333.6861224836368933
 21
191.7487219744384959
 31
0.0
  0
POLYLINE
  5
3D8C
  8
SCAN
 66
     1
 10
0.0
 20
0.0
 30
0.0
 70
     1
  0
VERTEX
  5
5411
  8
SCAN
 10
21.5528714040563294
 20
188.4100421471713958
 30
0.0
  0
VERTEX
  5
5412
  8
SCAN
 10
22.8483680110887484
 20
188.8887589886275862
 30
0.0
  0
VERTEX
  5
5413
  8
SCAN
 10
22.9905256298428107
 20
188.9436248121930078
 30
0.0
  0
VERTEX
  5
5414
  8
SCAN
 10
23.2394460493372002
 20
189.060527958399291
 30
0.0
  0
VERTEX
  5
5415
  8
SCAN
 10
23.3951658981957493
 20
189.1544803797440863
 30
0.0
  0
VERTEX
  5
5416
  8
SCAN
 10
23.4842312899293688
 20
189.2201034519218013
 30
0.0
  0
VERTEX
  5
5417
  8
SCAN
 10
23.5614984089918593
 20
189.2881170237907895
 30
0.0
  0
VERTEX
  5
5418
  8
SCAN
 10
23.6269672553824215
 20
189.3585210953517048
 30
0.0
  0
VERTEX
  5
5419
  8
SCAN
 10
23.6552773263268001
 20
189.3946195685163048
 30
0.0
  0
VERTEX
  5
541A
  8
SCAN
 10
23.6815728229337594
 20
189.4324145253333995
 30
0.0
  0
VERTEX
  5
541B
  8
SCAN
 10
23.7290743651913587
 20
189.5182411755488943
 30
0.0
  0
VERTEX
  5
541C
  8
SCAN
 10
23.7697899728412096
 20
189.6177168078748991
 30
0.0
  0
VERTEX
  5
541D
  8
SCAN
 10
23.8037196458824702
 20
189.730841422310391
 30
0.0
  0
VERTEX
  5
541E
  8
SCAN
 10
23.8308633843155704
 20
189.8576150188557961
 30
0.0
  0
VERTEX
  5
541F
  8
SCAN
 10
23.8512211881404994
 20
189.9980375975108018
 30
0.0
  0
VERTEX
  5
5420
  8
SCAN
 10
23.8690342664870414
 20
190.2342633069494013
 30
0.0
  0
VERTEX
  5
5421
  8
SCAN
 10
23.872427233791111
 20
190.4088083408790908
 30
0.0
  0
VERTEX
  5
5422
  8
SCAN
 10
23.872427233791111
 20
191.2724727455673985
 30
0.0
  0
VERTEX
  5
5423
  8
SCAN
 10
25.6861224836368685
 20
191.2724727455673985
 30
0.0
  0
VERTEX
  5
5424
  8
SCAN
 10
25.6861224836368685
 20
189.6759274031861935
 30
0.0
  0
VERTEX
  5
5425
  8
SCAN
 10
25.6837994577270194
 20
189.5029342662338934
 30
0.0
  0
VERTEX
  5
5426
  8
SCAN
 10
25.6652152504478011
 20
189.1720428411873911
 30
0.0
  0
VERTEX
  5
5427
  8
SCAN
 10
25.6280468358884583
 20
188.8612778812864121
 30
0.0
  0
VERTEX
  5
5428
  8
SCAN
 10
25.5722942140503484
 20
188.5706393865299901
 30
0.0
  0
VERTEX
  5
5429
  8
SCAN
 10
25.4979573849321106
 20
188.3001273569186083
 30
0.0
  0
VERTEX
  5
542A
  8
SCAN
 10
25.4050363485351092
 20
188.0497417924522949
 30
0.0
  0
VERTEX
  5
542B
  8
SCAN
 10
25.2935311048580012
 20
187.819482693130908
 30
0.0
  0
VERTEX
  5
542C
  8
SCAN
 10
25.1634416539020798
 20
187.6093500589541918
 30
0.0
  0
VERTEX
  5
542D
  8
SCAN
 10
25.0914278506941493
 20
187.5118311662955932
 30
0.0
  0
VERTEX
  5
542E
  8
SCAN
 10
25.0139390320639698
 20
187.4177534364991971
 30
0.0
  0
VERTEX
  5
542F
  8
SCAN
 10
24.8400494577270514
 20
187.2351501052222886
 30
0.0
  0
VERTEX
  5
5430
  8
SCAN
 10
24.6409439672891288
 20
187.0599496116994089
 30
0.0
  0
VERTEX
  5
5431
  8
SCAN
 10
24.416622560749861
 20
186.8921519559314106
 30
0.0
  0
VERTEX
  5
5432
  8
SCAN
 10
24.1670852381096495
 20
186.7317571379182084
 30
0.0
  0
VERTEX
  5
5433
  8
SCAN
 10
23.8923319993680501
 20
186.5787651576590065
 30
0.0
  0
VERTEX
  5
5434
  8
SCAN
 10
23.5923628445250699
 20
186.4331760151542881
 30
0.0
  0
VERTEX
  5
5435
  8
SCAN
 10
23.2671777735816292
 20
186.2949897104041099
 30
0.0
  0
VERTEX
  5
5436
  8
SCAN
 10
23.095129269571121
 20
186.2286726221869912
 30
0.0
  0
VERTEX
  5
5437
  8
SCAN
 10
13.6861224836368596
 20
182.6975190133036051
 30
0.0
  0
VERTEX
  5
5438
  8
SCAN
 10
13.6861224836368596
 20
185.4563098831368961
 30
0.0
  0
VERTEX
  5
5439
  8
SCAN
 10
18.2215944145434889
 20
187.1762358547593124
 30
0.0
  0
VERTEX
  5
543A
  8
SCAN
 10
13.6861224836368596
 20
188.9899311046052901
 30
0.0
  0
VERTEX
  5
543B
  8
SCAN
 10
13.6861224836368596
 20
191.7487219744386095
 30
0.0
  0
SEQEND
  5
543C
  8
SCAN
  0
POLYLINE
  5
3D92
  8
SCAN
 66
     1
 10
0.0
 20
0.0
 30
0.0
 70
     1
  0
VERTEX
  5
543D
  8
SCAN
 10
181.5528714040561908
 20
188.4100421471713958
 30
0.0
  0
VERTEX
  5
543E
  8
SCAN
 10
182.8483680110886951
 20
188.8887589886275009
 30
0.0
  0
VERTEX
  5
543F
  8
SCAN
 10
182.9905256298428071
 20
188.9436248121930078
 30
0.0
  0
VERTEX
  5
5440
  8
SCAN
 10
183.2394460493372037
 20
189.0605279583992058
 30
0.0
  0
VERTEX
  5
5441
  8
SCAN
 10
183.3951658981956996
 20
189.1544803797440863
 30
0.0
  0
VERTEX
  5
5442
  8
SCAN
 10
183.484231289929312
 20
189.2201034519218013
 30
0.0
  0
VERTEX
  5
5443
  8
SCAN
 10
183.5614984089918096
 20
189.2881170237907895
 30
0.0
  0
VERTEX
  5
5444
  8
SCAN
 10
183.6269672553823966
 20
189.3585210953517048
 30
0.0
  0
VERTEX
  5
5445
  8
SCAN
 10
183.6552773263267966
 20
189.3946195685161911
 30
0.0
  0
VERTEX
  5
5446
  8
SCAN
 10
183.6815728229337026
 20
189.4324145253332858
 30
0.0
  0
VERTEX
  5
5447
  8
SCAN
 10
183.729074365191309
 20
189.518241175548809
 30
0.0
  0
VERTEX
  5
5448
  8
SCAN
 10
183.769789972841096
 20
189.6177168078748991
 30
0.0
  0
VERTEX
  5
5449
  8
SCAN
 10
183.8037196458824098
 20
189.730841422310391
 30
0.0
  0
VERTEX
  5
544A
  8
SCAN
 10
183.8308633843155064
 20
189.8576150188557108
 30
0.0
  0
VERTEX
  5
544B
  8
SCAN
 10
183.8512211881404141
 20
189.9980375975106881
 30
0.0
  0
VERTEX
  5
544C
  8
SCAN
 10
183.8690342664870059
 20
190.2342633069492877
 30
0.0
  0
VERTEX
  5
544D
  8
SCAN
 10
183.8724272337910861
 20
190.4088083408790908
 30
0.0
  0
VERTEX
  5
544E
  8
SCAN
 10
183.8724272337910861
 20
191.2724727455673985
 30
0.0
  0
VERTEX
  5
544F
  8
SCAN
 10
185.6861224836368081
 20
191.2724727455673985
 30
0.0
  0
VERTEX
  5
5450
  8
SCAN
 10
185.6861224836368081
 20
189.6759274031861935
 30
0.0
  0
VERTEX
  5
5451
  8
SCAN
 10
185.6837994577269058
 20
189.5029342662338934
 30
0.0
  0
VERTEX
  5
5452
  8
SCAN
 10
185.6652152504476874
 20
189.1720428411873911
 30
0.0
  0
VERTEX
  5
5453
  8
SCAN
 10
185.6280468358883979
 20
188.8612778812864121
 30
0.0
  0
VERTEX
  5
5454
  8
SCAN
 10
185.5722942140504017
 20
188.5706393865299901
 30
0.0
  0
VERTEX
  5
5455
  8
SCAN
 10
185.4979573849321071
 20
188.3001273569186083
 30
0.0
  0
VERTEX
  5
5456
  8
SCAN
 10
185.4050363485351056
 20
188.0497417924522097
 30
0.0
  0
VERTEX
  5
5457
  8
SCAN
 10
185.2935311048580047
 20
187.8194826931307944
 30
0.0
  0
VERTEX
  5
5458
  8
SCAN
 10
185.1634416539019981
 20
187.6093500589541918
 30
0.0
  0
VERTEX
  5
5459
  8
SCAN
 10
185.0914278506940889
 20
187.5118311662955932
 30
0.0
  0
VERTEX
  5
545A
  8
SCAN
 10
185.0139390320640018
 20
187.4177534364991118
 30
0.0
  0
VERTEX
  5
545B
  8
SCAN
 10
184.8400494577269058
 20
187.2351501052222886
 30
0.0
  0
VERTEX
  5
545C
  8
SCAN
 10
184.640943967289104
 20
187.0599496116994089
 30
0.0
  0
VERTEX
  5
545D
  8
SCAN
 10
184.4166225607498006
 20
186.8921519559314106
 30
0.0
  0
VERTEX
  5
545E
  8
SCAN
 10
184.1670852381095926
 20
186.7317571379182084
 30
0.0
  0
VERTEX
  5
545F
  8
SCAN
 10
183.8923319993679968
 20
186.5787651576590065
 30
0.0
  0
VERTEX
  5
5460
  8
SCAN
 10
183.5923628445250131
 20
186.4331760151540891
 30
0.0
  0
VERTEX
  5
5461
  8
SCAN
 10
183.2671777735814942
 20
186.294989710403911
 30
0.0
  0
VERTEX
  5
5462
  8
SCAN
 10
183.0951292695710038
 20
186.2286726221869912
 30
0.0
  0
VERTEX
  5
5463
  8
SCAN
 10
173.6861224836368081
 20
182.6975190133036051
 30
0.0
  0
VERTEX
  5
5464
  8
SCAN
 10
173.6861224836368081
 20
185.4563098831368961
 30
0.0
  0
VERTEX
  5
5465
  8
SCAN
 10
178.2215944145434037
 20
187.1762358547593124
 30
0.0
  0
VERTEX
  5
5466
  8
SCAN
 10
173.6861224836368081
 20
188.9899311046052901
 30
0.0
  0
VERTEX
  5
5467
  8
SCAN
 10
173.6861224836368081
 20
191.7487219744386095
 30
0.0
  0
SEQEND
  5
5468
  8
SCAN
  0
POLYLINE
  5
3D98
  8
SCAN
 66
     1
 10
0.0
 20
0.0
 30
0.0
 70
     1
  0
VERTEX
  5
5469
  8
SCAN
 10
341.5528714040564182
 20
188.4100421471713958
 30
0.0
  0
VERTEX
  5
546A
  8
SCAN
 10
342.8483680110887803
 20
188.8887589886275009
 30
0.0
  0
VERTEX
  5
546B
  8
SCAN
 10
342.9905256298429208
 20
188.9436248121928941
 30
0.0
  0
VERTEX
  5
546C
  8
SCAN
 10
343.2394460493371184
 20
189.0605279583992058
 30
0.0
  0
VERTEX
  5
546D
  8
SCAN
 10
343.395165898195728
 20
189.1544803797440863
 30
0.0
  0
VERTEX
  5
546E
  8
SCAN
 10
343.4842312899294257
 20
189.2201034519218013
 30
0.0
  0
VERTEX
  5
546F
  8
SCAN
 10
343.5614984089918948
 20
189.2881170237907895
 30
0.0
  0
VERTEX
  5
5470
  8
SCAN
 10
343.6269672553825103
 20
189.3585210953517048
 30
0.0
  0
VERTEX
  5
5471
  8
SCAN
 10
343.6552773263267113
 20
189.3946195685161911
 30
0.0
  0
VERTEX
  5
5472
  8
SCAN
 10
343.6815728229337878
 20
189.4324145253333995
 30
0.0
  0
VERTEX
  5
5473
  8
SCAN
 10
343.7290743651914227
 20
189.5182411755488943
 30
0.0
  0
VERTEX
  5
5474
  8
SCAN
 10
343.7697899728411812
 20
189.6177168078748139
 30
0.0
  0
VERTEX
  5
5475
  8
SCAN
 10
343.8037196458826088
 20
189.7308414223103057
 30
0.0
  0
VERTEX
  5
5476
  8
SCAN
 10
343.830863384315478
 20
189.8576150188557108
 30
0.0
  0
VERTEX
  5
5477
  8
SCAN
 10
343.8512211881405278
 20
189.9980375975106881
 30
0.0
  0
VERTEX
  5
5478
  8
SCAN
 10
343.8690342664871196
 20
190.2342633069492877
 30
0.0
  0
VERTEX
  5
5479
  8
SCAN
 10
343.8724272337911998
 20
190.4088083408790055
 30
0.0
  0
VERTEX
  5
547A
  8
SCAN
 10
343.8724272337911998
 20
191.2724727455673985
 30
0.0
  0
VERTEX
  5
547B
  8
SCAN
 10
345.6861224836368933
 20
191.2724727455673985
 30
0.0
  0
VERTEX
  5
547C
  8
SCAN
 10
345.6861224836368933
 20
189.6759274031861935
 30
0.0
  0
VERTEX
  5
547D
  8
SCAN
 10
345.6837994577271047
 20
189.5029342662338934
 30
0.0
  0
VERTEX
  5
547E
  8
SCAN
 10
345.6652152504477726
 20
189.1720428411873911
 30
0.0
  0
VERTEX
  5
547F
  8
SCAN
 10
345.6280468358884832
 20
188.8612778812864121
 30
0.0
  0
VERTEX
  5
5480
  8
SCAN
 10
345.5722942140503733
 20
188.5706393865299901
 30
0.0
  0
VERTEX
  5
5481
  8
SCAN
 10
345.4979573849320786
 20
188.3001273569186083
 30
0.0
  0
VERTEX
  5
5482
  8
SCAN
 10
345.4050363485350204
 20
188.0497417924522097
 30
0.0
  0
VERTEX
  5
5483
  8
SCAN
 10
345.2935311048580047
 20
187.8194826931307944
 30
0.0
  0
VERTEX
  5
5484
  8
SCAN
 10
345.1634416539021117
 20
187.6093500589541065
 30
0.0
  0
VERTEX
  5
5485
  8
SCAN
 10
345.0914278506941741
 20
187.5118311662955932
 30
0.0
  0
VERTEX
  5
5486
  8
SCAN
 10
345.0139390320641155
 20
187.4177534364991118
 30
0.0
  0
VERTEX
  5
5487
  8
SCAN
 10
344.8400494577271047
 20
187.2351501052222886
 30
0.0
  0
VERTEX
  5
5488
  8
SCAN
 10
344.6409439672892177
 20
187.0599496116992952
 30
0.0
  0
VERTEX
  5
5489
  8
SCAN
 10
344.4166225607497722
 20
186.8921519559314106
 30
0.0
  0
VERTEX
  5
548A
  8
SCAN
 10
344.1670852381096779
 20
186.7317571379180947
 30
0.0
  0
VERTEX
  5
548B
  8
SCAN
 10
343.8923319993680821
 20
186.5787651576590065
 30
0.0
  0
VERTEX
  5
548C
  8
SCAN
 10
343.5923628445250984
 20
186.4331760151540891
 30
0.0
  0
VERTEX
  5
548D
  8
SCAN
 10
343.2671777735815795
 20
186.294989710403911
 30
0.0
  0
VERTEX
  5
548E
  8
SCAN
 10
343.0951292695712027
 20
186.228672622186906
 30
0.0
  0
VERTEX
  5
548F
  8
SCAN
 10
333.6861224836368933
 20
182.6975190133034914
 30
0.0
  0
VERTEX
  5
5490
  8
SCAN
 10
333.6861224836368933
 20
185.4563098831368109
 30
0.0
  0
VERTEX
  5
5491
  8
SCAN
 10
338.2215944145435174
 20
187.1762358547593124
 30
0.0
  0
VERTEX
  5
5492
  8
SCAN
 10
333.6861224836368933
 20
188.9899311046052901
 30
0.0
  0
VERTEX
  5
5493
  8
SCAN
 10
333.6861224836368933
 20
191.7487219744384959
 30
0.0
  0
SEQEND
  5
5494
  8
SCAN
  0
POLYLINE
  5
45FD
  8
CONSTRUCTION_LINES
 62
     3
 66
     1
 10
0.0
 20
0.0
 30
0.0
  0
VERTEX
  5
45FE
  8
CONSTRUCTION_LINES
 62
     3
 10
337.5209064749769254
 20
274.2568926700942029
 30
0.0
  0
VERTEX
  5
45FF
  8
CONSTRUCTION_LINES
 62
     3
 10
337.5209064749769254
 20
281.7727282229773209
 30
0.0
  0
VERTEX
  5
4600
  8
CONSTRUCTION_LINES
 62
     3
 10
345.0367420278599866
 20
276.1534119217562875
 30
0.0
  0
VERTEX
  5
4601
  8
CONSTRUCTION_LINES
 62
     3
 10
333.7981094254180903
 20
276.1534119217562875
 30
0.0
  0
SEQEND
  5
4602
  8
CONSTRUCTION_LINES
 62
     3
  0
POLYLINE
  5
4603
  8
CONSTRUCTION_LINES
 62
     3
 66
     1
 10
0.0
 20
0.0
 30
0.0
 70
     1
  0
VERTEX
  5
4604
  8
CONSTRUCTION_LINES
 62
     3
 10
333.7981094254180903
 20
268.6375763688732832
 30
0.0
  0
VERTEX
  5
4605
  8
CONSTRUCTION_LINES
 62
     3
 10
335.6243872233150114
 20
270.5340956205354246
 30
0.0
  0
VERTEX
  5
4606
  8
CONSTRUCTION_LINES
 62
     3
 10
343.140222776197902
 20
270.5340956205354246
 30
0.0
  0
VERTEX
  5
4607
  8
CONSTRUCTION_LINES
 62
     3
 10
345.0367420278599866
 20
268.6375763688732832
 30
0.0
  0
VERTEX
  5
4608
  8
CONSTRUCTION_LINES
 62
     3
 10
345.0367420278599866
 20
266.7410571172111986
 30
0.0
  0
VERTEX
  5
4609
  8
CONSTRUCTION_LINES
 62
     3
 10
343.140222776197902
 20
264.9147793193145048
 30
0.0
  0
VERTEX
  5
460A
  8
CONSTRUCTION_LINES
 62
     3
 10
335.6243872233150114
 20
264.9147793193145048
 30
0.0
  0
VERTEX
  5
460B
  8
CONSTRUCTION_LINES
 62
     3
 10
333.7981094254180903
 20
266.7410571172111986
 30
0.0
  0
VERTEX
  5
460C
  8
CONSTRUCTION_LINES
 62
     3
 10
333.7981094254180903
 20
268.6375763688732832
 30
0.0
  0
SEQEND
  5
460D
  8
CONSTRUCTION_LINES
 62
     3
  0
POLYLINE
  5
460E
  8
CONSTRUCTION_LINES
 62
     3
 66
     1
 10
0.0
 20
0.0
 30
0.0
  0
VERTEX
  5
460F
  8
CONSTRUCTION_LINES
 62
     3
 10
333.7981094254180903
 20
249.8831082135484962
 30
0.0
  0
VERTEX
  5
4610
  8
CONSTRUCTION_LINES
 62
     3
 10
345.0367420278599866
 20
249.8831082135484962
 30
0.0
  0
SEQEND
  5
4611
  8
CONSTRUCTION_LINES
 62
     3
  0
POLYLINE
  5
4612
  8
CONSTRUCTION_LINES
 62
     3
 66
     1
 10
0.0
 20
0.0
 30
0.0
  0
VERTEX
  5
4613
  8
CONSTRUCTION_LINES
 62
     3
 10
345.0367420278599866
 20
242.3672726606654066
 30
0.0
  0
VERTEX
  5
4614
  8
CONSTRUCTION_LINES
 62
     3
 10
339.4174257266388963
 20
248.0568304156516035
 30
0.0
  0
VERTEX
  5
4615
  8
CONSTRUCTION_LINES
 62
     3
 10
339.4174257266388963
 20
249.8831082135484962
 30
0.0
  0
SEQEND
  5
4616
  8
CONSTRUCTION_LINES
 62
     3
  0
POLYLINE
  5
4617
  8
CONSTRUCTION_LINES
 62
     3
 66
     1
 10
0.0
 20
0.0
 30
0.0
  0
VERTEX
  5
4618
  8
CONSTRUCTION_LINES
 62
     3
 10
339.4174257266388963
 20
248.0568304156516035
 30
0.0
  0
VERTEX
  5
4619
  8
CONSTRUCTION_LINES
 62
     3
 10
333.7981094254180903
 20
242.3672726606654066
 30
0.0
  0
SEQEND
  5
461A
  8
CONSTRUCTION_LINES
 62
     3
  0
POLYLINE
  5
461B
  8
CONSTRUCTION_LINES
 62
     3
 66
     1
 10
0.0
 20
0.0
 30
0.0
  0
VERTEX
  5
461C
  8
CONSTRUCTION_LINES
 62
     3
 10
333.7981094254180903
 20
238.6444756111064862
 30
0.0
  0
VERTEX
  5
461D
  8
CONSTRUCTION_LINES
 62
     3
 10
345.0367420278599866
 20
238.6444756111064862
 30
0.0
  0
SEQEND
  5
461E
  8
CONSTRUCTION_LINES
 62
     3
  0
POLYLINE
  5
461F
  8
CONSTRUCTION_LINES
 62
     3
 66
     1
 10
0.0
 20
0.0
 30
0.0
  0
VERTEX
  5
4620
  8
CONSTRUCTION_LINES
 62
     3
 10
339.4174257266388963
 20
238.6444756111064862
 30
0.0
  0
VERTEX
  5
4621
  8
CONSTRUCTION_LINES
 62
     3
 10
339.4174257266388963
 20
231.1286400582235103
 30
0.0
  0
SEQEND
  5
4622
  8
CONSTRUCTION_LINES
 62
     3
  0
POLYLINE
  5
4623
  8
CONSTRUCTION_LINES
 62
     3
 66
     1
 10
0.0
 20
0.0
 30
0.0
  0
VERTEX
  5
4624
  8
CONSTRUCTION_LINES
 62
     3
 10
345.0367420278599866
 20
231.1286400582235103
 30
0.0
  0
VERTEX
  5
4625
  8
CONSTRUCTION_LINES
 62
     3
 10
333.7981094254180903
 20
231.1286400582235103
 30
0.0
  0
SEQEND
  5
4626
  8
CONSTRUCTION_LINES
 62
     3
  0
POLYLINE
  5
4627
  8
CONSTRUCTION_LINES
 62
     3
 66
     1
 10
0.0
 20
0.0
 30
0.0
  0
VERTEX
  5
4628
  8
CONSTRUCTION_LINES
 62
     3
 10
341.2437035245358175
 20
227.4058430086645899
 30
0.0
  0
VERTEX
  5
4629
  8
CONSTRUCTION_LINES
 62
     3
 10
341.2437035245358175
 20
219.8900074557816993
 30
0.0
  0
VERTEX
  5
462A
  8
CONSTRUCTION_LINES
 62
     3
 10
333.7981094254180903
 20
227.4058430086645899
 30
0.0
  0
VERTEX
  5
462B
  8
CONSTRUCTION_LINES
 62
     3
 10
333.7981094254180903
 20
219.8900074557816993
 30
0.0
  0
SEQEND
  5
462C
  8
CONSTRUCTION_LINES
 62
     3
  0
POLYLINE
  5
462D
  8
CONSTRUCTION_LINES
 62
     3
 66
     1
 10
0.0
 20
0.0
 30
0.0
  0
VERTEX
  5
462E
  8
CONSTRUCTION_LINES
 62
     3
 10
343.140222776197902
 20
204.9285778037809109
 30
0.0
  0
VERTEX
  5
462F
  8
CONSTRUCTION_LINES
 62
     3
 10
345.0367420278599866
 20
203.0320585521187979
 30
0.0
  0
VERTEX
  5
4630
  8
CONSTRUCTION_LINES
 62
     3
 10
345.0367420278599866
 20
199.3092615025599059
 30
0.0
  0
VERTEX
  5
4631
  8
CONSTRUCTION_LINES
 62
     3
 10
343.140222776197902
 20
197.4127422508979066
 30
0.0
  0
VERTEX
  5
4632
  8
CONSTRUCTION_LINES
 62
     3
 10
341.2437035245358175
 20
197.4127422508979066
 30
0.0
  0
VERTEX
  5
4633
  8
CONSTRUCTION_LINES
 62
     3
 10
339.4174257266388963
 20
199.3092615025599059
 30
0.0
  0
VERTEX
  5
4634
  8
CONSTRUCTION_LINES
 62
     3
 10
339.4174257266388963
 20
203.0320585521187979
 30
0.0
  0
VERTEX
  5
4635
  8
CONSTRUCTION_LINES
 62
     3
 10
337.5209064749769254
 20
204.9285778037809109
 30
0.0
  0
VERTEX
  5
4636
  8
CONSTRUCTION_LINES
 62
     3
 10
333.7981094254180903
 20
204.9285778037809109
 30
0.0
  0
VERTEX
  5
4637
  8
CONSTRUCTION_LINES
 62
     3
 10
333.7981094254180903
 20
197.4127422508979066
 30
0.0
  0
SEQEND
  5
4638
  8
CONSTRUCTION_LINES
 62
     3
  0
POLYLINE
  5
4639
  8
CONSTRUCTION_LINES
 62
     3
 66
     1
 10
0.0
 20
0.0
 30
0.0
  0
VERTEX
  5
463A
  8
CONSTRUCTION_LINES
 62
     3
 10
177.7215991590063027
 20
274.2568926700942029
 30
0.0
  0
VERTEX
  5
463B
  8
CONSTRUCTION_LINES
 62
     3
 10
177.7215991590063027
 20
281.7727282229773209
 30
0.0
  0
VERTEX
  5
463C
  8
CONSTRUCTION_LINES
 62
     3
 10
185.2374347118893922
 20
276.1534119217562875
 30
0.0
  0
VERTEX
  5
463D
  8
CONSTRUCTION_LINES
 62
     3
 10
173.9988021094476096
 20
276.1534119217562875
 30
0.0
  0
SEQEND
  5
463E
  8
CONSTRUCTION_LINES
 62
     3
  0
POLYLINE
  5
463F
  8
CONSTRUCTION_LINES
 62
     3
 66
     1
 10
0.0
 20
0.0
 30
0.0
 70
     1
  0
VERTEX
  5
4640
  8
CONSTRUCTION_LINES
 62
     3
 10
173.9988021094476096
 20
268.6375763688732832
 30
0.0
  0
VERTEX
  5
4641
  8
CONSTRUCTION_LINES
 62
     3
 10
175.8250799073443034
 20
270.5340956205354246
 30
0.0
  0
VERTEX
  5
4642
  8
CONSTRUCTION_LINES
 62
     3
 10
183.3409154602273929
 20
270.5340956205354246
 30
0.0
  0
VERTEX
  5
4643
  8
CONSTRUCTION_LINES
 62
     3
 10
185.2374347118893922
 20
268.6375763688732832
 30
0.0
  0
VERTEX
  5
4644
  8
CONSTRUCTION_LINES
 62
     3
 10
185.2374347118893922
 20
266.7410571172111986
 30
0.0
  0
VERTEX
  5
4645
  8
CONSTRUCTION_LINES
 62
     3
 10
183.3409154602273929
 20
264.9147793193145048
 30
0.0
  0
VERTEX
  5
4646
  8
CONSTRUCTION_LINES
 62
     3
 10
175.8250799073443034
 20
264.9147793193145048
 30
0.0
  0
VERTEX
  5
4647
  8
CONSTRUCTION_LINES
 62
     3
 10
173.9988021094476096
 20
266.7410571172111986
 30
0.0
  0
VERTEX
  5
4648
  8
CONSTRUCTION_LINES
 62
     3
 10
173.9988021094476096
 20
268.6375763688732832
 30
0.0
  0
SEQEND
  5
4649
  8
CONSTRUCTION_LINES
 62
     3
  0
POLYLINE
  5
464A
  8
CONSTRUCTION_LINES
 62
     3
 66
     1
 10
0.0
 20
0.0
 30
0.0
  0
VERTEX
  5
464B
  8
CONSTRUCTION_LINES
 62
     3
 10
173.9988021094476096
 20
249.8831082135484962
 30
0.0
  0
VERTEX
  5
464C
  8
CONSTRUCTION_LINES
 62
     3
 10
185.2374347118893922
 20
249.8831082135484962
 30
0.0
  0
SEQEND
  5
464D
  8
CONSTRUCTION_LINES
 62
     3
  0
POLYLINE
  5
464E
  8
CONSTRUCTION_LINES
 62
     3
 66
     1
 10
0.0
 20
0.0
 30
0.0
  0
VERTEX
  5
464F
  8
CONSTRUCTION_LINES
 62
     3
 10
185.2374347118893922
 20
242.3672726606654066
 30
0.0
  0
VERTEX
  5
4650
  8
CONSTRUCTION_LINES
 62
     3
 10
179.6181184106683872
 20
248.0568304156516035
 30
0.0
  0
VERTEX
  5
4651
  8
CONSTRUCTION_LINES
 62
     3
 10
179.6181184106683872
 20
249.8831082135484962
 30
0.0
  0
SEQEND
  5
4652
  8
CONSTRUCTION_LINES
 62
     3
  0
POLYLINE
  5
4653
  8
CONSTRUCTION_LINES
 62
     3
 66
     1
 10
0.0
 20
0.0
 30
0.0
  0
VERTEX
  5
4654
  8
CONSTRUCTION_LINES
 62
     3
 10
179.6181184106683872
 20
248.0568304156516035
 30
0.0
  0
VERTEX
  5
4655
  8
CONSTRUCTION_LINES
 62
     3
 10
173.9988021094476096
 20
242.3672726606654066
 30
0.0
  0
SEQEND
  5
4656
  8
CONSTRUCTION_LINES
 62
     3
  0
POLYLINE
  5
4657
  8
CONSTRUCTION_LINES
 62
     3
 66
     1
 10
0.0
 20
0.0
 30
0.0
  0
VERTEX
  5
4658
  8
CONSTRUCTION_LINES
 62
     3
 10
173.9988021094476096
 20
238.6444756111064862
 30
0.0
  0
VERTEX
  5
4659
  8
CONSTRUCTION_LINES
 62
     3
 10
185.2374347118893922
 20
238.6444756111064862
 30
0.0
  0
SEQEND
  5
465A
  8
CONSTRUCTION_LINES
 62
     3
  0
POLYLINE
  5
465B
  8
CONSTRUCTION_LINES
 62
     3
 66
     1
 10
0.0
 20
0.0
 30
0.0
  0
VERTEX
  5
465C
  8
CONSTRUCTION_LINES
 62
     3
 10
179.6181184106683872
 20
238.6444756111064862
 30
0.0
  0
VERTEX
  5
465D
  8
CONSTRUCTION_LINES
 62
     3
 10
179.6181184106683872
 20
231.1286400582235103
 30
0.0
  0
SEQEND
  5
465E
  8
CONSTRUCTION_LINES
 62
     3
  0
POLYLINE
  5
465F
  8
CONSTRUCTION_LINES
 62
     3
 66
     1
 10
0.0
 20
0.0
 30
0.0
  0
VERTEX
  5
4660
  8
CONSTRUCTION_LINES
 62
     3
 10
185.2374347118893922
 20
231.1286400582235103
 30
0.0
  0
VERTEX
  5
4661
  8
CONSTRUCTION_LINES
 62
     3
 10
173.9988021094476096
 20
231.1286400582235103
 30
0.0
  0
SEQEND
  5
4662
  8
CONSTRUCTION_LINES
 62
     3
  0
POLYLINE
  5
4663
  8
CONSTRUCTION_LINES
 62
     3
 66
     1
 10
0.0
 20
0.0
 30
0.0
  0
VERTEX
  5
4664
  8
CONSTRUCTION_LINES
 62
     3
 10
181.4443962085653084
 20
227.4058430086645899
 30
0.0
  0
VERTEX
  5
4665
  8
CONSTRUCTION_LINES
 62
     3
 10
181.4443962085653084
 20
219.8900074557816993
 30
0.0
  0
VERTEX
  5
4666
  8
CONSTRUCTION_LINES
 62
     3
 10
173.9988021094476096
 20
227.4058430086645899
 30
0.0
  0
VERTEX
  5
4667
  8
CONSTRUCTION_LINES
 62
     3
 10
173.9988021094476096
 20
219.8900074557816993
 30
0.0
  0
SEQEND
  5
4668
  8
CONSTRUCTION_LINES
 62
     3
  0
POLYLINE
  5
4669
  8
CONSTRUCTION_LINES
 62
     3
 66
     1
 10
0.0
 20
0.0
 30
0.0
  0
VERTEX
  5
466A
  8
CONSTRUCTION_LINES
 62
     3
 10
183.3409154602273929
 20
204.9285778037809109
 30
0.0
  0
VERTEX
  5
466B
  8
CONSTRUCTION_LINES
 62
     3
 10
185.2374347118893922
 20
203.0320585521187979
 30
0.0
  0
VERTEX
  5
466C
  8
CONSTRUCTION_LINES
 62
     3
 10
185.2374347118893922
 20
199.3092615025599059
 30
0.0
  0
VERTEX
  5
466D
  8
CONSTRUCTION_LINES
 62
     3
 10
183.3409154602273929
 20
197.4127422508979066
 30
0.0
  0
VERTEX
  5
466E
  8
CONSTRUCTION_LINES
 62
     3
 10
181.4443962085653084
 20
197.4127422508979066
 30
0.0
  0
VERTEX
  5
466F
  8
CONSTRUCTION_LINES
 62
     3
 10
179.6181184106683872
 20
199.3092615025599059
 30
0.0
  0
VERTEX
  5
4670
  8
CONSTRUCTION_LINES
 62
     3
 10
179.6181184106683872
 20
203.0320585521187979
 30
0.0
  0
VERTEX
  5
4671
  8
CONSTRUCTION_LINES
 62
     3
 10
177.7215991590063027
 20
204.9285778037809109
 30
0.0
  0
VERTEX
  5
4672
  8
CONSTRUCTION_LINES
 62
     3
 10
173.9988021094476096
 20
204.9285778037809109
 30
0.0
  0
VERTEX
  5
4673
  8
CONSTRUCTION_LINES
 62
     3
 10
173.9988021094476096
 20
197.4127422508979066
 30
0.0
  0
SEQEND
  5
4674
  8
CONSTRUCTION_LINES
 62
     3
  0
POLYLINE
  5
4675
  8
CONSTRUCTION_LINES
 62
     3
 66
     1
 10
0.0
 20
0.0
 30
0.0
  0
VERTEX
  5
4676
  8
CONSTRUCTION_LINES
 62
     3
 10
17.8520503892706301
 20
274.2568926700942029
 30
0.0
  0
VERTEX
  5
4677
  8
CONSTRUCTION_LINES
 62
     3
 10
17.8520503892706301
 20
281.7727282229773209
 30
0.0
  0
VERTEX
  5
4678
  8
CONSTRUCTION_LINES
 62
     3
 10
25.3678859421537517
 20
276.1534119217562875
 30
0.0
  0
VERTEX
  5
4679
  8
CONSTRUCTION_LINES
 62
     3
 10
14.0590118859464592
 20
276.1534119217562875
 30
0.0
  0
SEQEND
  5
467A
  8
CONSTRUCTION_LINES
 62
     3
  0
POLYLINE
  5
467B
  8
CONSTRUCTION_LINES
 62
     3
 66
     1
 10
0.0
 20
0.0
 30
0.0
 70
     1
  0
VERTEX
  5
467C
  8
CONSTRUCTION_LINES
 62
     3
 10
14.0590118859464592
 20
268.6375763688732832
 30
0.0
  0
VERTEX
  5
467D
  8
CONSTRUCTION_LINES
 62
     3
 10
15.9555311376085402
 20
270.5340956205354246
 30
0.0
  0
VERTEX
  5
467E
  8
CONSTRUCTION_LINES
 62
     3
 10
23.4713666904916707
 20
270.5340956205354246
 30
0.0
  0
VERTEX
  5
467F
  8
CONSTRUCTION_LINES
 62
     3
 10
25.3678859421537517
 20
268.6375763688732832
 30
0.0
  0
VERTEX
  5
4680
  8
CONSTRUCTION_LINES
 62
     3
 10
25.3678859421537517
 20
266.7410571172111986
 30
0.0
  0
VERTEX
  5
4681
  8
CONSTRUCTION_LINES
 62
     3
 10
23.4713666904916707
 20
264.9147793193145048
 30
0.0
  0
VERTEX
  5
4682
  8
CONSTRUCTION_LINES
 62
     3
 10
15.9555311376085402
 20
264.9147793193145048
 30
0.0
  0
VERTEX
  5
4683
  8
CONSTRUCTION_LINES
 62
     3
 10
14.0590118859464592
 20
266.7410571172111986
 30
0.0
  0
VERTEX
  5
4684
  8
CONSTRUCTION_LINES
 62
     3
 10
14.0590118859464592
 20
268.6375763688732832
 30
0.0
  0
SEQEND
  5
4685
  8
CONSTRUCTION_LINES
 62
     3
  0
POLYLINE
  5
4686
  8
CONSTRUCTION_LINES
 62
     3
 66
     1
 10
0.0
 20
0.0
 30
0.0
  0
VERTEX
  5
4687
  8
CONSTRUCTION_LINES
 62
     3
 10
14.0590118859464592
 20
249.8831082135484962
 30
0.0
  0
VERTEX
  5
4688
  8
CONSTRUCTION_LINES
 62
     3
 10
25.3678859421537517
 20
249.8831082135484962
 30
0.0
  0
SEQEND
  5
4689
  8
CONSTRUCTION_LINES
 62
     3
  0
POLYLINE
  5
468A
  8
CONSTRUCTION_LINES
 62
     3
 66
     1
 10
0.0
 20
0.0
 30
0.0
  0
VERTEX
  5
468B
  8
CONSTRUCTION_LINES
 62
     3
 10
25.3678859421537517
 20
242.3672726606654066
 30
0.0
  0
VERTEX
  5
468C
  8
CONSTRUCTION_LINES
 62
     3
 10
19.6783281871674909
 20
248.0568304156516035
 30
0.0
  0
VERTEX
  5
468D
  8
CONSTRUCTION_LINES
 62
     3
 10
19.6783281871674909
 20
249.8831082135484962
 30
0.0
  0
SEQEND
  5
468E
  8
CONSTRUCTION_LINES
 62
     3
  0
POLYLINE
  5
468F
  8
CONSTRUCTION_LINES
 62
     3
 66
     1
 10
0.0
 20
0.0
 30
0.0
  0
VERTEX
  5
4690
  8
CONSTRUCTION_LINES
 62
     3
 10
19.6783281871674909
 20
248.0568304156516035
 30
0.0
  0
VERTEX
  5
4691
  8
CONSTRUCTION_LINES
 62
     3
 10
14.0590118859464592
 20
242.3672726606654066
 30
0.0
  0
SEQEND
  5
4692
  8
CONSTRUCTION_LINES
 62
     3
  0
POLYLINE
  5
4693
  8
CONSTRUCTION_LINES
 62
     3
 66
     1
 10
0.0
 20
0.0
 30
0.0
  0
VERTEX
  5
4694
  8
CONSTRUCTION_LINES
 62
     3
 10
14.0590118859464592
 20
238.6444756111064862
 30
0.0
  0
VERTEX
  5
4695
  8
CONSTRUCTION_LINES
 62
     3
 10
25.3678859421537517
 20
238.6444756111064862
 30
0.0
  0
SEQEND
  5
4696
  8
CONSTRUCTION_LINES
 62
     3
  0
POLYLINE
  5
4697
  8
CONSTRUCTION_LINES
 62
     3
 66
     1
 10
0.0
 20
0.0
 30
0.0
  0
VERTEX
  5
4698
  8
CONSTRUCTION_LINES
 62
     3
 10
19.6783281871674909
 20
238.6444756111064862
 30
0.0
  0
VERTEX
  5
4699
  8
CONSTRUCTION_LINES
 62
     3
 10
19.6783281871674909
 20
231.1286400582235103
 30
0.0
  0
SEQEND
  5
469A
  8
CONSTRUCTION_LINES
 62
     3
  0
POLYLINE
  5
469B
  8
CONSTRUCTION_LINES
 62
     3
 66
     1
 10
0.0
 20
0.0
 30
0.0
  0
VERTEX
  5
469C
  8
CONSTRUCTION_LINES
 62
     3
 10
25.3678859421537517
 20
231.1286400582235103
 30
0.0
  0
VERTEX
  5
469D
  8
CONSTRUCTION_LINES
 62
     3
 10
14.0590118859464592
 20
231.1286400582235103
 30
0.0
  0
SEQEND
  5
469E
  8
CONSTRUCTION_LINES
 62
     3
  0
POLYLINE
  5
469F
  8
CONSTRUCTION_LINES
 62
     3
 66
     1
 10
0.0
 20
0.0
 30
0.0
  0
VERTEX
  5
46A0
  8
CONSTRUCTION_LINES
 62
     3
 10
21.574847438829579
 20
227.4058430086645899
 30
0.0
  0
VERTEX
  5
46A1
  8
CONSTRUCTION_LINES
 62
     3
 10
21.574847438829579
 20
219.8900074557816993
 30
0.0
  0
VERTEX
  5
46A2
  8
CONSTRUCTION_LINES
 62
     3
 10
14.0590118859464592
 20
227.4058430086645899
 30
0.0
  0
VERTEX
  5
46A3
  8
CONSTRUCTION_LINES
 62
     3
 10
14.0590118859464592
 20
219.8900074557816993
 30
0.0
  0
SEQEND
  5
46A4
  8
CONSTRUCTION_LINES
 62
     3
  0
POLYLINE
  5
46A5
  8
CONSTRUCTION_LINES
 62
     3
 66
     1
 10
0.0
 20
0.0
 30
0.0
  0
VERTEX
  5
46A6
  8
CONSTRUCTION_LINES
 62
     3
 10
23.4713666904916707
 20
204.9285778037809109
 30
0.0
  0
VERTEX
  5
46A7
  8
CONSTRUCTION_LINES
 62
     3
 10
25.3678859421537517
 20
203.0320585521187979
 30
0.0
  0
VERTEX
  5
46A8
  8
CONSTRUCTION_LINES
 62
     3
 10
25.3678859421537517
 20
199.3092615025599059
 30
0.0
  0
VERTEX
  5
46A9
  8
CONSTRUCTION_LINES
 62
     3
 10
23.4713666904916707
 20
197.4127422508979066
 30
0.0
  0
VERTEX
  5
46AA
  8
CONSTRUCTION_LINES
 62
     3
 10
21.574847438829579
 20
197.4127422508979066
 30
0.0
  0
VERTEX
  5
46AB
  8
CONSTRUCTION_LINES
 62
     3
 10
19.6783281871674909
 20
199.3092615025599059
 30
0.0
  0
VERTEX
  5
46AC
  8
CONSTRUCTION_LINES
 62
     3
 10
19.6783281871674909
 20
203.0320585521187979
 30
0.0
  0
VERTEX
  5
46AD
  8
CONSTRUCTION_LINES
 62
     3
 10
17.8520503892706301
 20
204.9285778037809109
 30
0.0
  0
VERTEX
  5
46AE
  8
CONSTRUCTION_LINES
 62
     3
 10
14.0590118859464592
 20
204.9285778037809109
 30
0.0
  0
VERTEX
  5
46AF
  8
CONSTRUCTION_LINES
 62
     3
 10
14.0590118859464592
 20
197.4127422508979066
 30
0.0
  0
SEQEND
  5
46B0
  8
CONSTRUCTION_LINES
 62
     3
  0
ENDSEC
  0
EOF
