  0
SECTION
  2
HEADER
  9
$ACADVER
  1
AC1009
  9
$INSBASE
 10
0.0
 20
0.0
 30
0.0
  9
$EXTMIN
 10
-134.4059620942078936
 20
-298.4499999999999886
 30
0.0
  9
$EXTMAX
 10
501.6499999999999204
 20
501.6499999999999204
 30
0.0
  9
$LIMMIN
 10
0.0
 20
0.0
  9
$LIMMAX
 10
12.0
 20
9.0
  9
$ORTHOMODE
 70
     0
  9
$REGENMODE
 70
     1
  9
$FILLMODE
 70
     1
  9
$QTEXTMODE
 70
     0
  9
$MIRRTEXT
 70
     0
  9
$DRAGMODE
 70
     2
  9
$LTSCALE
 40
1.0
  9
$OSMODE
 70
    39
  9
$ATTMODE
 70
     1
  9
$TEXTSIZE
 40
15.0
  9
$TRACEWID
 40
0.05
  9
$TEXTSTYLE
  7
STANDARD
  9
$CLAYER
  8
CUT_1
  9
$CELTYPE
  6
BYLAYER
  9
$CECOLOR
 62
   256
  9
$DIMSCALE
 40
1.0
  9
$DIMASZ
 40
0.18
  9
$DIMEXO
 40
0.0625
  9
$DIMDLI
 40
0.38
  9
$DIMRND
 40
0.0
  9
$DIMDLE
 40
0.0
  9
$DIMEXE
 40
0.18
  9
$DIMTP
 40
0.0
  9
$DIMTM
 40
0.0
  9
$DIMTXT
 40
0.18
  9
$DIMCEN
 40
0.09
  9
$DIMTSZ
 40
0.0
  9
$DIMTOL
 70
     0
  9
$DIMLIM
 70
     0
  9
$DIMTIH
 70
     1
  9
$DIMTOH
 70
     1
  9
$DIMSE1
 70
     0
  9
$DIMSE2
 70
     0
  9
$DIMTAD
 70
     0
  9
$DIMZIN
 70
     0
  9
$DIMBLK
  1

  9
$DIMASO
 70
     1
  9
$DIMSHO
 70
     1
  9
$DIMPOST
  1

  9
$DIMAPOST
  1

  9
$DIMALT
 70
     0
  9
$DIMALTD
 70
     2
  9
$DIMALTF
 40
25.3999999999999986
  9
$DIMLFAC
 40
1.0
  9
$DIMTOFL
 70
     0
  9
$DIMTVP
 40
0.0
  9
$DIMTIX
 70
     0
  9
$DIMSOXD
 70
     0
  9
$DIMSAH
 70
     0
  9
$DIMBLK1
  1

  9
$DIMBLK2
  1

  9
$DIMSTYLE
  2
STANDARD
  9
$DIMCLRD
 70
     0
  9
$DIMCLRE
 70
     0
  9
$DIMCLRT
 70
     0
  9
$DIMTFAC
 40
1.0
  9
$DIMGAP
 40
0.09
  9
$LUNITS
 70
     2
  9
$LUPREC
 70
     4
  9
$SKETCHINC
 40
0.1
  9
$FILLETRAD
 40
0.0
  9
$AUNITS
 70
     0
  9
$AUPREC
 70
     0
  9
$MENU
  1
.
  9
$ELEVATION
 40
0.0
  9
$PELEVATION
 40
0.0
  9
$THICKNESS
 40
0.0
  9
$LIMCHECK
 70
     0
  9
$BLIPMODE
 70
     0
  9
$CHAMFERA
 40
0.0
  9
$CHAMFERB
 40
0.0
  9
$SKPOLY
 70
     0
  9
$TDCREATE
 40
2461237.4615624998696148
  9
$TDUPDATE
 40
2461245.5335416668094695
  9
$TDINDWG
 40
0.987025463
  9
$TDUSRTIMER
 40
0.987025463
  9
$USRTIMER
 70
     1
  9
$ANGBASE
 50
0.0
  9
$ANGDIR
 70
     0
  9
$PDMODE
 70
     0
  9
$PDSIZE
 40
0.0
  9
$PLINEWID
 40
0.0
  9
$COORDS
 70
     1
  9
$SPLFRAME
 70
     0
  9
$SPLINETYPE
 70
     6
  9
$SPLINESEGS
 70
     8
  9
$ATTDIA
 70
     1
  9
$ATTREQ
 70
     1
  9
$HANDLING
 70
     1
  9
$HANDSEED
  5
24E7
  9
$SURFTAB1
 70
     6
  9
$SURFTAB2
 70
     6
  9
$SURFTYPE
 70
     6
  9
$SURFU
 70
     6
  9
$SURFV
 70
     6
  9
$UCSNAME
  2

  9
$UCSORG
 10
0.0
 20
0.0
 30
0.0
  9
$UCSXDIR
 10
1.0
 20
0.0
 30
0.0
  9
$UCSYDIR
 10
0.0
 20
1.0
 30
0.0
  9
$PUCSNAME
  2

  9
$PUCSORG
 10
0.0
 20
0.0
 30
0.0
  9
$PUCSXDIR
 10
1.0
 20
0.0
 30
0.0
  9
$PUCSYDIR
 10
0.0
 20
1.0
 30
0.0
  9
$USERI1
 70
     0
  9
$USERI2
 70
     0
  9
$USERI3
 70
     0
  9
$USERI4
 70
     0
  9
$USERI5
 70
     0
  9
$USERR1
 40
0.0
  9
$USERR2
 40
0.0
  9
$USERR3
 40
0.0
  9
$USERR4
 40
0.0
  9
$USERR5
 40
0.0
  9
$WORLDVIEW
 70
     1
  9
$SHADEDGE
 70
     3
  9
$SHADEDIF
 70
    70
  9
$TILEMODE
 70
     1
  9
$MAXACTVP
 70
    64
  9
$PLIMCHECK
 70
     0
  9
$PEXTMIN
 10
0.0
 20
0.0
 30
0.0
  9
$PEXTMAX
 10
0.0
 20
0.0
 30
0.0
  9
$PLIMMIN
 10
0.0
 20
0.0
  9
$PLIMMAX
 10
12.0
 20
9.0
  9
$UNITMODE
 70
     0
  9
$VISRETAIN
 70
     1
  9
$PLINEGEN
 70
     0
  9
$PSLTSCALE
 70
     1
  0
ENDSEC
  0
SECTION
  2
TABLES
  0
TABLE
  2
VPORT
 70
     1
  0
VPORT
  2
*ACTIVE
 70
     0
 10
0.0
 20
0.0
 11
1.0
 21
1.0
 12
69.6168322340142822
 22
-318.3999323613483057
 13
0.0
 23
0.0
 14
0.5
 24
0.5
 15
0.5
 25
0.5
 16
0.0
 26
0.0
 36
262.5390601339537966
 17
38.1801867188817212
 27
47.8722388328310515
 37
0.0
 40
1217.7617615798790212
 41
2.2032146957520089
 42
50.0
 43
0.0
 44
0.0
 50
0.0
 51
0.0
 71
     0
 72
  1000
 73
     1
 74
     3
 75
     0
 76
     1
 77
     0
 78
     0
  0
ENDTAB
  0
TABLE
  2
LTYPE
 70
     1
  0
LTYPE
  2
CONTINUOUS
 70
     0
  3
Solid line
 72
    65
 73
     0
 40
0.0
  0
ENDTAB
  0
TABLE
  2
LAYER
 70
     6
  0
LAYER
  2
0
 70
     0
 62
     7
  6
CONTINUOUS
  0
LAYER
  2
CUT_1
 70
     0
 62
    50
  6
CONTINUOUS
  0
LAYER
  2
BOUNDS
 70
     0
 62
   220
  6
CONTINUOUS
  0
LAYER
  2
CUT_2
 70
     0
 62
    10
  6
CONTINUOUS
  0
LAYER
  2
CONSTRUCTION_LINES
 70
     0
 62
    30
  6
CONTINUOUS
  0
LAYER
  2
SCAN
 70
     0
 62
    90
  6
CONTINUOUS
  0
ENDTAB
  0
TABLE
  2
STYLE
 70
     2
  0
STYLE
  2
STANDARD
 70
     0
 40
0.0
 41
1.0
 50
0.0
 71
     0
 42
15.0
  3
txt
  4

  0
STYLE
  2
ANNOTATIVE
 70
     0
 40
0.0
 41
1.0
 50
0.0
 71
     0
 42
0.2
  3
txt
  4

  0
ENDTAB
  0
TABLE
  2
VIEW
 70
     0
  0
ENDTAB
  0
TABLE
  2
UCS
 70
     0
  0
ENDTAB
  0
TABLE
  2
APPID
 70
    10
  0
APPID
  2
ACAD
 70
     0
  0
APPID
  2
ACADANNOTATIVE
 70
     0
  0
APPID
  2
ACADANNOPO
 70
     0
  0
APPID
  2
ACAD_DSTYLE_DIMJAG
 70
     0
  0
APPID
  2
ACAD_DSTYLE_DIMTALN
 70
     0
  0
APPID
  2
ACAD_MLEADERVER
 70
     0
  0
APPID
  2
ACAD_NAV_VCDISPLAY
 70
     0
  0
APPID
  2
ACAD_EXEMPT_FROM_CAD_STANDARDS
 70
     0
  0
APPID
  2
ACAECLAYERSTANDARD
 70
     0
  0
APPID
  2
ACCMTRANSPARENCY
 70
     0
  0
ENDTAB
  0
TABLE
  2
DIMSTYLE
 70
     2
  0
DIMSTYLE
  2
STANDARD
 70
     0
  3

  4

  5

  6

  7

 40
1.0
 41
0.18
 42
0.0625
 43
0.38
 44
0.18
 45
0.0
 46
0.0
 47
0.0
 48
0.0
140
0.18
141
0.09
142
0.0
143
25.3999999999999986
144
1.0
145
0.0
146
1.0
147
0.09
 71
     0
 72
     0
 73
     1
 74
     1
 75
     0
 76
     0
 77
     0
 78
     0
170
     0
171
     2
172
     0
173
     0
174
     0
175
     0
176
     0
177
     0
178
     0
  0
DIMSTYLE
  2
ANNOTATIVE
 70
     0
  3

  4

  5

  6

  7

 40
0.0
 41
0.18
 42
0.0625
 43
0.38
 44
0.18
 45
0.0
 46
0.0
 47
0.0
 48
0.0
140
0.18
141
0.09
142
0.0
143
25.3999999999999986
144
1.0
145
0.0
146
1.0
147
0.09
 71
     0
 72
     0
 73
     1
 74
     1
 75
     0
 76
     0
 77
     0
 78
     0
170
     0
171
     2
172
     0
173
     0
174
     0
175
     0
176
     0
177
     0
178
     0
  0
ENDTAB
  0
ENDSEC
  0
SECTION
  2
BLOCKS
  0
BLOCK
  8
0
  2
$MODEL_SPACE
 70
     0
 10
0.0
 20
0.0
 30
0.0
  3
$MODEL_SPACE
  1

  0
ENDBLK
  5
1D3D
  8
0
  0
BLOCK
 67
     1
  8
0
  2
$PAPER_SPACE
 70
     0
 10
0.0
 20
0.0
 30
0.0
  3
$PAPER_SPACE
  1

  0
ENDBLK
  5
1D39
 67
     1
  8
0
  0
ENDSEC
  0
SECTION
  2
ENTITIES
  0
LINE
  5
263
  8
BOUNDS
 10
-0.0000000000000365
 20
0.0000000000000365
 30
0.0
 11
-0.0000000000000913
 21
-298.4499999999998749
 31
0.0
  0
LINE
  5
264
  8
BOUNDS
 10
-0.0000000000000913
 20
-298.4499999999998749
 30
0.0
 11
501.649999999999693
 21
-298.4499999999999886
 31
0.0
  0
LINE
  5
265
  8
BOUNDS
 10
501.649999999999693
 20
-298.4499999999999886
 30
0.0
 11
501.6499999999999204
 21
-0.0000000000001125
 31
0.0
  0
LINE
  5
266
  8
BOUNDS
 10
-0.0000000000000365
 20
0.0000000000000365
 30
0.0
 11
501.6499999999999204
 21
-0.0000000000001125
 31
0.0
  0
LINE
  5
26C
  8
CONSTRUCTION_LINES
 10
0.0
 20
0.0000000000000365
 30
0.0
 11
-0.0000000000000365
 21
0.0000000000000365
 31
0.0
  0
LINE
  5
288
  8
CONSTRUCTION_LINES
 10
159.9999999999998863
 20
-149.2249999999999943
 30
0.0
 11
159.9999999999998863
 21
-298.4499999999999886
 31
0.0
  0
LINE
  5
289
  8
CUT_2
 10
159.9999999999998863
 20
-298.4499999999999886
 30
0.0
 11
159.9999999999998863
 21
-0.0000000000000213
 31
0.0
  0
LINE
  5
294
  8
CUT_2
 10
319.9999999999998863
 20
-298.4499999999998749
 30
0.0
 11
319.9999999999998863
 21
-0.0000000000000223
 31
0.0
  0
LINE
  5
29F
  8
CUT_2
 10
479.9999999999997726
 20
-298.4499999999998749
 30
0.0
 11
479.9999999999998863
 21
-0.0000000000000517
 31
0.0
  0
LINE
  5
2A5
  8
CONSTRUCTION_LINES
 10
319.9999999999998863
 20
-0.0000000000000223
 30
0.0
 11
335.0
 21
-0.0000000000000259
 31
0.0
  0
LINE
  5
2A6
  8
CONSTRUCTION_LINES
 10
335.0
 20
-0.0000000000000259
 30
0.0
 11
335.0
 21
-15.0000000000000195
 31
0.0
  0
LINE
  5
2A7
  8
CONSTRUCTION_LINES
 10
159.9999999999998863
 20
-0.0000000000000213
 30
0.0
 11
175.0
 21
-0.0000000000000308
 31
0.0
  0
LINE
  5
2A8
  8
CONSTRUCTION_LINES
 10
175.0
 20
-0.0000000000000308
 30
0.0
 11
175.0
 21
-15.0000000000000195
 31
0.0
  0
LINE
  5
2A9
  8
CONSTRUCTION_LINES
 10
-0.0000000000000365
 20
0.0000000000000365
 30
0.0
 11
14.9999999999999591
 21
0.0000000000000328
 31
0.0
  0
LINE
  5
2AA
  8
CONSTRUCTION_LINES
 10
14.9999999999999591
 20
0.0000000000000328
 30
0.0
 11
14.9999999999999591
 21
-14.9999999999999591
 31
0.0
  0
POLYLINE
  5
2DC
  8
SCAN
 66
     1
 10
0.0
 20
0.0
 30
0.0
 70
     1
  0
VERTEX
  5
1E96
  8
SCAN
 10
296.7013499999998771
 20
-287.6940499999998906
 30
0.0
  0
VERTEX
  5
1E97
  8
SCAN
 10
296.979699999999923
 20
-287.5548999999999751
 30
0.0
  0
VERTEX
  5
1E98
  8
SCAN
 10
299.0673999999999069
 20
-281.5702499999999873
 30
0.0
  0
VERTEX
  5
1E99
  8
SCAN
 10
300.3199999999998795
 20
-275.8639499999998748
 30
0.0
  0
VERTEX
  5
1E9A
  8
SCAN
 10
300.8766999999999143
 20
-271.2710500000000025
 30
0.0
  0
VERTEX
  5
1E9B
  8
SCAN
 10
301.1550499999999033
 20
-270.9927000000000135
 30
0.0
  0
VERTEX
  5
1E9C
  8
SCAN
 10
304.4953499999999167
 20
-271.4102500000000191
 30
0.0
  0
VERTEX
  5
1E9D
  8
SCAN
 10
305.8870999999999185
 20
-271.9669499999999971
 30
0.0
  0
VERTEX
  5
1E9E
  8
SCAN
 10
306.1654499999999075
 20
-271.8277499999999236
 30
0.0
  0
VERTEX
  5
1E9F
  8
SCAN
 10
305.6087499999998727
 20
-268.9049999999999727
 30
0.0
  0
VERTEX
  5
1EA0
  8
SCAN
 10
303.7994499999999221
 20
-266.2606499999998846
 30
0.0
  0
VERTEX
  5
1EA1
  8
SCAN
 10
302.4076499999998759
 20
-265.147199999999998
 30
0.0
  0
VERTEX
  5
1EA2
  8
SCAN
 10
301.7117499999998813
 20
-266.8173499999999763
 30
0.0
  0
VERTEX
  5
1EA3
  8
SCAN
 10
301.2942499999998063
 20
-267.2348999999999251
 30
0.0
  0
VERTEX
  5
1EA4
  8
SCAN
 10
301.1550499999999033
 20
-267.0957000000000221
 30
0.0
  0
VERTEX
  5
1EA5
  8
SCAN
 10
301.4333999999998923
 20
-265.008049999999912
 30
0.0
  0
VERTEX
  5
1EA6
  8
SCAN
 10
301.2942499999998063
 20
-261.3894000000000233
 30
0.0
  0
VERTEX
  5
1EA7
  8
SCAN
 10
304.2169499999998834
 20
-261.2502499999998804
 30
0.0
  0
VERTEX
  5
1EA8
  8
SCAN
 10
307.0005499999999188
 20
-261.6677500000000123
 30
0.0
  0
VERTEX
  5
1EA9
  8
SCAN
 10
306.8613499999999021
 20
-259.8584499999998911
 30
0.0
  0
VERTEX
  5
1EAA
  8
SCAN
 10
305.8870999999999185
 20
-257.0749000000000137
 30
0.0
  0
VERTEX
  5
1EAB
  8
SCAN
 10
304.3561499999999
 20
-254.5697000000000116
 30
0.0
  0
VERTEX
  5
1EAC
  8
SCAN
 10
301.1550499999999033
 20
-250.8118499999999926
 30
0.0
  0
VERTEX
  5
1EAD
  8
SCAN
 10
302.5468499999998926
 20
-248.5850000000000932
 30
0.0
  0
VERTEX
  5
1EAE
  8
SCAN
 10
303.3818999999998027
 20
-245.5230999999999995
 30
0.0
  0
VERTEX
  5
1EAF
  8
SCAN
 10
303.3818999999998027
 20
-240.9302500000000009
 30
0.0
  0
VERTEX
  5
1EB0
  8
SCAN
 10
302.9643499999999108
 20
-238.8425499999999886
 30
0.0
  0
VERTEX
  5
1EB1
  8
SCAN
 10
301.9900999999999271
 20
-236.4765500000000031
 30
0.0
  0
VERTEX
  5
1EB2
  8
SCAN
 10
300.3199999999998795
 20
-234.3888499999999908
 30
0.0
  0
VERTEX
  5
1EB3
  8
SCAN
 10
300.8766999999999143
 20
-234.24969999999999
 30
0.0
  0
VERTEX
  5
1EB4
  8
SCAN
 10
302.8251999999998816
 20
-234.6672000000000082
 30
0.0
  0
VERTEX
  5
1EB5
  8
SCAN
 10
302.8251999999998816
 20
-205.7181499999998948
 30
0.0
  0
VERTEX
  5
1EB6
  8
SCAN
 10
291.4125999999998839
 20
-203.7697000000000003
 30
0.0
  0
VERTEX
  5
1EB7
  8
SCAN
 10
291.4125999999998839
 20
-207.249149999999986
 30
0.0
  0
VERTEX
  5
1EB8
  8
SCAN
 10
291.134249999999895
 20
-207.3882999999999868
 30
0.0
  0
VERTEX
  5
1EB9
  8
SCAN
 10
272.2059999999999036
 20
-204.0480499999999893
 30
0.0
  0
VERTEX
  5
1EBA
  8
SCAN
 10
269.4224499999999125
 20
-203.2129500000000064
 30
0.0
  0
VERTEX
  5
1EBB
  8
SCAN
 10
269.2832499999998959
 20
-199.0376500000000135
 30
0.0
  0
VERTEX
  5
1EBC
  8
SCAN
 10
259.8191499999999223
 20
-197.3675000000000068
 30
0.0
  0
VERTEX
  5
1EBD
  8
SCAN
 10
258.8448999999998819
 20
-200.1510499999999979
 30
0.0
  0
VERTEX
  5
1EBE
  8
SCAN
 10
258.2881999999999039
 20
-203.3521499999999094
 30
0.0
  0
VERTEX
  5
1EBF
  8
SCAN
 10
258.5665499999998929
 20
-207.3882999999999868
 30
0.0
  0
VERTEX
  5
1EC0
  8
SCAN
 10
259.1232499999999277
 20
-209.1976500000000101
 30
0.0
  0
VERTEX
  5
1EC1
  8
SCAN
 10
259.8191499999999223
 20
-210.3110499999999945
 30
0.0
  0
VERTEX
  5
1EC2
  8
SCAN
 10
258.4273999999999205
 20
-215.3214499999999987
 30
0.0
  0
VERTEX
  5
1EC3
  8
SCAN
 10
258.4273999999999205
 20
-219.7751499999999965
 30
0.0
  0
VERTEX
  5
1EC4
  8
SCAN
 10
258.8448999999998819
 20
-221.5844999999999914
 30
0.0
  0
VERTEX
  5
1EC5
  8
SCAN
 10
260.0974999999999113
 20
-224.0896999999999935
 30
0.0
  0
VERTEX
  5
1EC6
  8
SCAN
 10
261.9068499999999062
 20
-225.8990000000000009
 30
0.0
  0
VERTEX
  5
1EC7
  8
SCAN
 10
264.5511999999998807
 20
-227.429949999999991
 30
0.0
  0
VERTEX
  5
1EC8
  8
SCAN
 10
262.8810999999998899
 20
-228.125850000000014
 30
0.0
  0
VERTEX
  5
1EC9
  8
SCAN
 10
261.4892999999999006
 20
-229.1000999999999976
 30
0.0
  0
VERTEX
  5
1ECA
  8
SCAN
 10
259.8191499999999223
 20
-231.1877499999999941
 30
0.0
  0
VERTEX
  5
1ECB
  8
SCAN
 10
259.1232499999999277
 20
-232.7187000000000126
 30
0.0
  0
VERTEX
  5
1ECC
  8
SCAN
 10
258.2881999999999039
 20
-237.3115999999999985
 30
0.0
  0
VERTEX
  5
1ECD
  8
SCAN
 10
258.2881999999999039
 20
-241.6261000000000081
 30
0.0
  0
VERTEX
  5
1ECE
  8
SCAN
 10
258.7057499999999095
 20
-246.3581499999999949
 30
0.0
  0
VERTEX
  5
1ECF
  8
SCAN
 10
258.9840999999998985
 20
-247.3324000000000069
 30
0.0
  0
VERTEX
  5
1ED0
  8
SCAN
 10
266.7780499999998938
 20
-248.5850000000000932
 30
0.0
  0
VERTEX
  5
1ED1
  8
SCAN
 10
266.9172499999999104
 20
-248.8634000000000981
 30
0.0
  0
VERTEX
  5
1ED2
  8
SCAN
 10
264.1336999999999193
 20
-251.5077499999999873
 30
0.0
  0
VERTEX
  5
1ED3
  8
SCAN
 10
261.3500999999998839
 20
-254.9872000000000014
 30
0.0
  0
VERTEX
  5
1ED4
  8
SCAN
 10
258.8448999999998819
 20
-259.0233999999999241
 30
0.0
  0
VERTEX
  5
1ED5
  8
SCAN
 10
256.2005499999999074
 20
-264.868850000000009
 30
0.0
  0
VERTEX
  5
1ED6
  8
SCAN
 10
258.0098499999999149
 20
-268.7658500000000004
 30
0.0
  0
VERTEX
  5
1ED7
  8
SCAN
 10
260.3758999999998878
 20
-272.9411999999999807
 30
0.0
  0
VERTEX
  5
1ED8
  8
SCAN
 10
264.6903999999998973
 20
-278.6474999999999227
 30
0.0
  0
VERTEX
  5
1ED9
  8
SCAN
 10
267.4739499999998884
 20
-281.2918499999998971
 30
0.0
  0
VERTEX
  5
1EDA
  8
SCAN
 10
270.2574999999998795
 20
-283.2403499999999212
 30
0.0
  0
VERTEX
  5
1EDB
  8
SCAN
 10
272.9018999999998982
 20
-284.3537999999999784
 30
0.0
  0
VERTEX
  5
1EDC
  8
SCAN
 10
275.1287499999999113
 20
-284.6321500000000242
 30
0.0
  0
VERTEX
  5
1EDD
  8
SCAN
 10
273.7369499999999221
 20
-284.2146000000000186
 30
0.0
  0
VERTEX
  5
1EDE
  8
SCAN
 10
270.5358999999999128
 20
-282.4053000000000111
 30
0.0
  0
VERTEX
  5
1EDF
  8
SCAN
 10
268.448199999999872
 20
-280.735149999999976
 30
0.0
  0
VERTEX
  5
1EE0
  8
SCAN
 10
265.9429999999999268
 20
-278.2299499999999739
 30
0.0
  0
VERTEX
  5
1EE1
  8
SCAN
 10
262.1851999999998952
 20
-273.2195499999999129
 30
0.0
  0
VERTEX
  5
1EE2
  8
SCAN
 10
260.236699999999928
 20
-269.8792500000000132
 30
0.0
  0
VERTEX
  5
1EE3
  8
SCAN
 10
257.8706499999998982
 20
-264.868850000000009
 30
0.0
  0
VERTEX
  5
1EE4
  8
SCAN
 10
260.6542499999998768
 20
-262.9203499999999849
 30
0.0
  0
VERTEX
  5
1EE5
  8
SCAN
 10
263.1594499999998789
 20
-261.6677500000000123
 30
0.0
  0
VERTEX
  5
1EE6
  8
SCAN
 10
266.7780499999998938
 20
-260.415149999999926
 30
0.0
  0
VERTEX
  5
1EE7
  8
SCAN
 10
270.9533999999998741
 20
-259.7192499999999882
 30
0.0
  0
VERTEX
  5
1EE8
  8
SCAN
 10
275.6854499999998893
 20
-259.8584499999998911
 30
0.0
  0
VERTEX
  5
1EE9
  8
SCAN
 10
279.7216499999998973
 20
-260.9718500000000176
 30
0.0
  0
VERTEX
  5
1EEA
  8
SCAN
 10
282.5051999999998884
 20
-262.6419999999998822
 30
0.0
  0
VERTEX
  5
1EEB
  8
SCAN
 10
284.7320499999999015
 20
-265.008049999999912
 30
0.0
  0
VERTEX
  5
1EEC
  8
SCAN
 10
286.541349999999909
 20
-268.6266499999999269
 30
0.0
  0
VERTEX
  5
1EED
  8
SCAN
 10
286.6805499999999256
 20
-266.1214499999999816
 30
0.0
  0
VERTEX
  5
1EEE
  8
SCAN
 10
286.1237999999999033
 20
-263.7554499999999962
 30
0.0
  0
VERTEX
  5
1EEF
  8
SCAN
 10
284.8711999999998739
 20
-261.5285999999999831
 30
0.0
  0
VERTEX
  5
1EF0
  8
SCAN
 10
282.3659999999998718
 20
-259.1625500000000102
 30
0.0
  0
VERTEX
  5
1EF1
  8
SCAN
 10
279.7216499999998973
 20
-257.7708000000000084
 30
0.0
  0
VERTEX
  5
1EF2
  8
SCAN
 10
276.6596999999998729
 20
-256.9356999999999971
 30
0.0
  0
VERTEX
  5
1EF3
  8
SCAN
 10
272.7627499999999259
 20
-256.7965500000000247
 30
0.0
  0
VERTEX
  5
1EF4
  8
SCAN
 10
269.8399999999999181
 20
-257.3532500000000027
 30
0.0
  0
VERTEX
  5
1EF5
  8
SCAN
 10
269.1440999999999235
 20
-257.2140499999998724
 30
0.0
  0
VERTEX
  5
1EF6
  8
SCAN
 10
271.6492999999999256
 20
-255.4047499999998934
 30
0.0
  0
VERTEX
  5
1EF7
  8
SCAN
 10
274.0153499999998985
 20
-254.152150000000006
 30
0.0
  0
VERTEX
  5
1EF8
  8
SCAN
 10
278.0514999999998054
 20
-252.899550000000005
 30
0.0
  0
VERTEX
  5
1EF9
  8
SCAN
 10
282.6443499999998039
 20
-252.899550000000005
 30
0.0
  0
VERTEX
  5
1EFA
  8
SCAN
 10
284.7320499999999015
 20
-253.4562500000000114
 30
0.0
  0
VERTEX
  5
1EFB
  8
SCAN
 10
286.541349999999909
 20
-254.2913000000000068
 30
0.0
  0
VERTEX
  5
1EFC
  8
SCAN
 10
288.2114999999998872
 20
-255.4047499999998934
 30
0.0
  0
VERTEX
  5
1EFD
  8
SCAN
 10
290.2991499999998837
 20
-257.4923999999999751
 30
0.0
  0
VERTEX
  5
1EFE
  8
SCAN
 10
291.6909499999998729
 20
-259.8584499999998911
 30
0.0
  0
VERTEX
  5
1EFF
  8
SCAN
 10
291.9692999999999188
 20
-260.6934999999999718
 30
0.0
  0
VERTEX
  5
1F00
  8
SCAN
 10
291.8300999999999021
 20
-260.9718500000000176
 30
0.0
  0
VERTEX
  5
1F01
  8
SCAN
 10
289.185749999999814
 20
-258.0491499999998837
 30
0.0
  0
VERTEX
  5
1F02
  8
SCAN
 10
286.541349999999909
 20
-256.3790000000000191
 30
0.0
  0
VERTEX
  5
1F03
  8
SCAN
 10
282.5051999999998884
 20
-255.1263999999999896
 30
0.0
  0
VERTEX
  5
1F04
  8
SCAN
 10
278.886549999999886
 20
-254.9872000000000014
 30
0.0
  0
VERTEX
  5
1F05
  8
SCAN
 10
281.9484999999999104
 20
-255.9614500000000135
 30
0.0
  0
VERTEX
  5
1F06
  8
SCAN
 10
284.5928499999998849
 20
-257.631599999999878
 30
0.0
  0
VERTEX
  5
1F07
  8
SCAN
 10
286.4021999999998798
 20
-259.4408999999998855
 30
0.0
  0
VERTEX
  5
1F08
  8
SCAN
 10
287.3763999999998759
 20
-260.8326999999998748
 30
0.0
  0
VERTEX
  5
1F09
  8
SCAN
 10
288.7681999999998084
 20
-264.1729500000000144
 30
0.0
  0
VERTEX
  5
1F0A
  8
SCAN
 10
289.3248999999999
 20
-267.6524000000000001
 30
0.0
  0
VERTEX
  5
1F0B
  8
SCAN
 10
289.0465499999999111
 20
-272.5236499999999751
 30
0.0
  0
VERTEX
  5
1F0C
  8
SCAN
 10
287.6547999999999092
 20
-277.5340499999999793
 30
0.0
  0
VERTEX
  5
1F0D
  8
SCAN
 10
286.541349999999909
 20
-279.7608999999999924
 30
0.0
  0
VERTEX
  5
1F0E
  8
SCAN
 10
285.8454499999999143
 20
-280.5960000000000036
 30
0.0
  0
VERTEX
  5
1F0F
  8
SCAN
 10
284.1753499999999235
 20
-280.735149999999976
 30
0.0
  0
VERTEX
  5
1F10
  8
SCAN
 10
282.5051999999998884
 20
-281.7093999999999028
 30
0.0
  0
VERTEX
  5
1F11
  8
SCAN
 10
281.1133999999998991
 20
-280.4567999999998733
 30
0.0
  0
VERTEX
  5
1F12
  8
SCAN
 10
280.8350499999999101
 20
-279.900100000000009
 30
0.0
  0
VERTEX
  5
1F13
  8
SCAN
 10
280.5566999999999211
 20
-277.5340499999999793
 30
0.0
  0
VERTEX
  5
1F14
  8
SCAN
 10
281.5309499999999048
 20
-272.5236499999999751
 30
0.0
  0
VERTEX
  5
1F15
  8
SCAN
 10
281.5309499999999048
 20
-269.6009000000000242
 30
0.0
  0
VERTEX
  5
1F16
  8
SCAN
 10
281.1133999999998991
 20
-268.069949999999892
 30
0.0
  0
VERTEX
  5
1F17
  8
SCAN
 10
279.9999999999998863
 20
-266.1214499999999816
 30
0.0
  0
VERTEX
  5
1F18
  8
SCAN
 10
277.9122999999999024
 20
-264.3121499999999742
 30
0.0
  0
VERTEX
  5
1F19
  8
SCAN
 10
276.102999999999895
 20
-263.6162499999999227
 30
0.0
  0
VERTEX
  5
1F1A
  8
SCAN
 10
274.4328499999999167
 20
-263.3378999999999905
 30
0.0
  0
VERTEX
  5
1F1B
  8
SCAN
 10
271.23174999999992
 20
-263.3378999999999905
 30
0.0
  0
VERTEX
  5
1F1C
  8
SCAN
 10
269.5616499999998723
 20
-263.6162499999999227
 30
0.0
  0
VERTEX
  5
1F1D
  8
SCAN
 10
267.0563999999998828
 20
-264.4512999999998897
 30
0.0
  0
VERTEX
  5
1F1E
  8
SCAN
 10
265.2470999999998753
 20
-265.4255499999998733
 30
0.0
  0
VERTEX
  5
1F1F
  8
SCAN
 10
263.437799999999811
 20
-266.8173499999999763
 30
0.0
  0
VERTEX
  5
1F20
  8
SCAN
 10
262.4635499999998842
 20
-268.069949999999892
 30
0.0
  0
VERTEX
  5
1F21
  8
SCAN
 10
266.6388999999999214
 20
-267.2348999999999251
 30
0.0
  0
VERTEX
  5
1F22
  8
SCAN
 10
269.8399999999999181
 20
-267.0957000000000221
 30
0.0
  0
VERTEX
  5
1F23
  8
SCAN
 10
269.9791499999998905
 20
-267.2348999999999251
 30
0.0
  0
VERTEX
  5
1F24
  8
SCAN
 10
268.3090499999998997
 20
-269.0441999999999894
 30
0.0
  0
VERTEX
  5
1F25
  8
SCAN
 10
266.9172499999999104
 20
-271.1318499999999858
 30
0.0
  0
VERTEX
  5
1F26
  8
SCAN
 10
265.9429999999999268
 20
-273.6370999999999754
 30
0.0
  0
VERTEX
  5
1F27
  8
SCAN
 10
269.0048999999999069
 20
-271.5493999999999915
 30
0.0
  0
VERTEX
  5
1F28
  8
SCAN
 10
272.2059999999999036
 20
-269.8792500000000132
 30
0.0
  0
VERTEX
  5
1F29
  8
SCAN
 10
272.3451999999999202
 20
-270.018449999999973
 30
0.0
  0
VERTEX
  5
1F2A
  8
SCAN
 10
271.23174999999992
 20
-271.9669499999999971
 30
0.0
  0
VERTEX
  5
1F2B
  8
SCAN
 10
270.1183499999999071
 20
-275.7247499999999718
 30
0.0
  0
VERTEX
  5
1F2C
  8
SCAN
 10
270.1183499999999071
 20
-278.2299499999999739
 30
0.0
  0
VERTEX
  5
1F2D
  8
SCAN
 10
271.6492999999999256
 20
-275.8639499999998748
 30
0.0
  0
VERTEX
  5
1F2E
  8
SCAN
 10
273.3194499999999039
 20
-274.1938000000000102
 30
0.0
  0
VERTEX
  5
1F2F
  8
SCAN
 10
275.1287499999999113
 20
-273.2195499999999129
 30
0.0
  0
VERTEX
  5
1F30
  8
SCAN
 10
277.0772499999998786
 20
-273.0803499999998962
 30
0.0
  0
VERTEX
  5
1F31
  8
SCAN
 10
277.3555999999999244
 20
-273.4979000000000156
 30
0.0
  0
VERTEX
  5
1F32
  8
SCAN
 10
277.3555999999999244
 20
-278.5083000000000197
 30
0.0
  0
VERTEX
  5
1F33
  8
SCAN
 10
278.1906499999998914
 20
-280.735149999999976
 30
0.0
  0
VERTEX
  5
1F34
  8
SCAN
 10
280.4174999999999045
 20
-283.101199999999892
 30
0.0
  0
VERTEX
  5
1F35
  8
SCAN
 10
283.201099999999883
 20
-284.9105000000000132
 30
0.0
  0
VERTEX
  5
1F36
  8
SCAN
 10
284.8711999999998739
 20
-285.4671999999998775
 30
0.0
  0
VERTEX
  5
1F37
  8
SCAN
 10
285.7062999999998851
 20
-285.4671999999998775
 30
0.0
  0
VERTEX
  5
1F38
  8
SCAN
 10
286.9588999999999146
 20
-284.0754499999998757
 30
0.0
  0
VERTEX
  5
1F39
  8
SCAN
 10
288.7681999999998084
 20
-281.1526999999999816
 30
0.0
  0
VERTEX
  5
1F3A
  8
SCAN
 10
290.2991499999998837
 20
-277.9515999999999849
 30
0.0
  0
VERTEX
  5
1F3B
  8
SCAN
 10
291.4125999999998839
 20
-276.6989999999998986
 30
0.0
  0
VERTEX
  5
1F3C
  8
SCAN
 10
292.6651999999999134
 20
-276.1422999999999774
 30
0.0
  0
VERTEX
  5
1F3D
  8
SCAN
 10
294.0569499999999152
 20
-276.1422999999999774
 30
0.0
  0
VERTEX
  5
1F3E
  8
SCAN
 10
295.5879499999999211
 20
-276.9773500000000013
 30
0.0
  0
VERTEX
  5
1F3F
  8
SCAN
 10
295.4487499999999045
 20
-276.2814500000000066
 30
0.0
  0
VERTEX
  5
1F40
  8
SCAN
 10
294.4744999999999209
 20
-275.1680499999999938
 30
0.0
  0
VERTEX
  5
1F41
  8
SCAN
 10
296.4229999999998881
 20
-274.3329499999999825
 30
0.0
  0
VERTEX
  5
1F42
  8
SCAN
 10
299.2065499999998792
 20
-271.5493999999999915
 30
0.0
  0
VERTEX
  5
1F43
  8
SCAN
 10
299.3457499999998959
 20
-271.9669499999999971
 30
0.0
  0
VERTEX
  5
1F44
  8
SCAN
 10
297.9539499999999066
 20
-279.62175000000002
 30
0.0
  0
VERTEX
  5
1F45
  8
SCAN
 10
296.7013499999998771
 20
-283.7971000000000004
 30
0.0
  0
VERTEX
  5
1F46
  8
SCAN
 10
295.8662999999999101
 20
-285.6064000000000078
 30
0.0
  0
VERTEX
  5
1F47
  8
SCAN
 10
295.3095499999998879
 20
-286.0239500000000135
 30
0.0
  0
VERTEX
  5
1F48
  8
SCAN
 10
293.3610999999999081
 20
-286.5806499999999915
 30
0.0
  0
VERTEX
  5
1F49
  8
SCAN
 10
289.185749999999814
 20
-286.9981500000000096
 30
0.0
  0
VERTEX
  5
1F4A
  8
SCAN
 10
291.9692999999999188
 20
-287.5548999999999751
 30
0.0
  0
SEQEND
  5
1F4B
  8
SCAN
  0
POLYLINE
  5
2DD
  8
SCAN
 66
     1
 10
0.0
 20
0.0
 30
0.0
 70
     1
  0
VERTEX
  5
1F4C
  8
SCAN
 10
296.7013499999998771
 20
-287.6940499999998906
 30
0.0
  0
VERTEX
  5
1F4D
  8
SCAN
 10
296.979699999999923
 20
-287.5548999999999751
 30
0.0
  0
VERTEX
  5
1F4E
  8
SCAN
 10
297.536399999999901
 20
-286.3023000000000025
 30
0.0
  0
VERTEX
  5
1F4F
  8
SCAN
 10
299.0673999999999069
 20
-281.5702499999999873
 30
0.0
  0
VERTEX
  5
1F50
  8
SCAN
 10
300.3199999999998795
 20
-275.8639499999998748
 30
0.0
  0
VERTEX
  5
1F51
  8
SCAN
 10
300.8766999999999143
 20
-271.2710500000000025
 30
0.0
  0
VERTEX
  5
1F52
  8
SCAN
 10
301.1550499999999033
 20
-270.9927000000000135
 30
0.0
  0
VERTEX
  5
1F53
  8
SCAN
 10
301.9900999999999271
 20
-270.9927000000000135
 30
0.0
  0
VERTEX
  5
1F54
  8
SCAN
 10
304.4953499999999167
 20
-271.4102500000000191
 30
0.0
  0
VERTEX
  5
1F55
  8
SCAN
 10
305.8870999999999185
 20
-271.9669499999999971
 30
0.0
  0
VERTEX
  5
1F56
  8
SCAN
 10
306.1654499999999075
 20
-271.8277499999999236
 30
0.0
  0
VERTEX
  5
1F57
  8
SCAN
 10
306.0262999999998783
 20
-270.2968000000000188
 30
0.0
  0
VERTEX
  5
1F58
  8
SCAN
 10
305.6087499999998727
 20
-268.9049999999999727
 30
0.0
  0
VERTEX
  5
1F59
  8
SCAN
 10
303.7994499999999221
 20
-266.2606499999998846
 30
0.0
  0
VERTEX
  5
1F5A
  8
SCAN
 10
302.4076499999998759
 20
-265.147199999999998
 30
0.0
  0
VERTEX
  5
1F5B
  8
SCAN
 10
301.7117499999998813
 20
-266.8173499999999763
 30
0.0
  0
VERTEX
  5
1F5C
  8
SCAN
 10
301.2942499999998063
 20
-267.2348999999999251
 30
0.0
  0
VERTEX
  5
1F5D
  8
SCAN
 10
301.1550499999999033
 20
-267.0957000000000221
 30
0.0
  0
VERTEX
  5
1F5E
  8
SCAN
 10
301.4333999999998923
 20
-265.008049999999912
 30
0.0
  0
VERTEX
  5
1F5F
  8
SCAN
 10
301.2942499999998063
 20
-261.3894000000000233
 30
0.0
  0
VERTEX
  5
1F60
  8
SCAN
 10
304.2169499999998834
 20
-261.2502499999998804
 30
0.0
  0
VERTEX
  5
1F61
  8
SCAN
 10
307.0005499999999188
 20
-261.6677500000000123
 30
0.0
  0
VERTEX
  5
1F62
  8
SCAN
 10
306.8613499999999021
 20
-259.8584499999998911
 30
0.0
  0
VERTEX
  5
1F63
  8
SCAN
 10
305.8870999999999185
 20
-257.0749000000000137
 30
0.0
  0
VERTEX
  5
1F64
  8
SCAN
 10
304.3561499999999
 20
-254.5697000000000116
 30
0.0
  0
VERTEX
  5
1F65
  8
SCAN
 10
301.1550499999999033
 20
-250.8118499999999926
 30
0.0
  0
VERTEX
  5
1F66
  8
SCAN
 10
302.5468499999998926
 20
-248.5850000000000932
 30
0.0
  0
VERTEX
  5
1F67
  8
SCAN
 10
303.3818999999998027
 20
-245.5230999999999995
 30
0.0
  0
VERTEX
  5
1F68
  8
SCAN
 10
303.3818999999998027
 20
-240.9302500000000009
 30
0.0
  0
VERTEX
  5
1F69
  8
SCAN
 10
302.9643499999999108
 20
-238.8425499999999886
 30
0.0
  0
VERTEX
  5
1F6A
  8
SCAN
 10
301.9900999999999271
 20
-236.4765500000000031
 30
0.0
  0
VERTEX
  5
1F6B
  8
SCAN
 10
300.3199999999998795
 20
-234.3888499999999908
 30
0.0
  0
VERTEX
  5
1F6C
  8
SCAN
 10
300.8766999999999143
 20
-234.24969999999999
 30
0.0
  0
VERTEX
  5
1F6D
  8
SCAN
 10
302.8251999999998816
 20
-234.6672000000000082
 30
0.0
  0
VERTEX
  5
1F6E
  8
SCAN
 10
302.8251999999998816
 20
-205.7181499999998948
 30
0.0
  0
VERTEX
  5
1F6F
  8
SCAN
 10
291.4125999999998839
 20
-203.7697000000000003
 30
0.0
  0
VERTEX
  5
1F70
  8
SCAN
 10
291.4125999999998839
 20
-207.249149999999986
 30
0.0
  0
VERTEX
  5
1F71
  8
SCAN
 10
291.134249999999895
 20
-207.3882999999999868
 30
0.0
  0
VERTEX
  5
1F72
  8
SCAN
 10
270.2574999999998795
 20
-203.6305000000000121
 30
0.0
  0
VERTEX
  5
1F73
  8
SCAN
 10
269.4224499999999125
 20
-203.2129500000000064
 30
0.0
  0
VERTEX
  5
1F74
  8
SCAN
 10
269.2832499999998959
 20
-199.0376500000000135
 30
0.0
  0
VERTEX
  5
1F75
  8
SCAN
 10
259.8191499999999223
 20
-197.3675000000000068
 30
0.0
  0
VERTEX
  5
1F76
  8
SCAN
 10
258.8448999999998819
 20
-200.1510499999999979
 30
0.0
  0
VERTEX
  5
1F77
  8
SCAN
 10
258.2881999999999039
 20
-203.3521499999999094
 30
0.0
  0
VERTEX
  5
1F78
  8
SCAN
 10
258.5665499999998929
 20
-207.3882999999999868
 30
0.0
  0
VERTEX
  5
1F79
  8
SCAN
 10
259.1232499999999277
 20
-209.1976500000000101
 30
0.0
  0
VERTEX
  5
1F7A
  8
SCAN
 10
259.8191499999999223
 20
-210.3110499999999945
 30
0.0
  0
VERTEX
  5
1F7B
  8
SCAN
 10
258.4273999999999205
 20
-215.3214499999999987
 30
0.0
  0
VERTEX
  5
1F7C
  8
SCAN
 10
258.4273999999999205
 20
-219.7751499999999965
 30
0.0
  0
VERTEX
  5
1F7D
  8
SCAN
 10
258.8448999999998819
 20
-221.5844999999999914
 30
0.0
  0
VERTEX
  5
1F7E
  8
SCAN
 10
260.0974999999999113
 20
-224.0896999999999935
 30
0.0
  0
VERTEX
  5
1F7F
  8
SCAN
 10
261.9068499999999062
 20
-225.8990000000000009
 30
0.0
  0
VERTEX
  5
1F80
  8
SCAN
 10
264.5511999999998807
 20
-227.429949999999991
 30
0.0
  0
VERTEX
  5
1F81
  8
SCAN
 10
262.8810999999998899
 20
-228.125850000000014
 30
0.0
  0
VERTEX
  5
1F82
  8
SCAN
 10
261.4892999999999006
 20
-229.1000999999999976
 30
0.0
  0
VERTEX
  5
1F83
  8
SCAN
 10
259.8191499999999223
 20
-231.1877499999999941
 30
0.0
  0
VERTEX
  5
1F84
  8
SCAN
 10
259.1232499999999277
 20
-232.7187000000000126
 30
0.0
  0
VERTEX
  5
1F85
  8
SCAN
 10
258.5665499999998929
 20
-234.945549999999912
 30
0.0
  0
VERTEX
  5
1F86
  8
SCAN
 10
258.2881999999999039
 20
-237.3115999999999985
 30
0.0
  0
VERTEX
  5
1F87
  8
SCAN
 10
258.2881999999999039
 20
-241.6261000000000081
 30
0.0
  0
VERTEX
  5
1F88
  8
SCAN
 10
258.7057499999999095
 20
-246.3581499999999949
 30
0.0
  0
VERTEX
  5
1F89
  8
SCAN
 10
258.9840999999998985
 20
-247.3324000000000069
 30
0.0
  0
VERTEX
  5
1F8A
  8
SCAN
 10
266.7780499999998938
 20
-248.5850000000000932
 30
0.0
  0
VERTEX
  5
1F8B
  8
SCAN
 10
266.9172499999999104
 20
-248.8634000000000981
 30
0.0
  0
VERTEX
  5
1F8C
  8
SCAN
 10
264.1336999999999193
 20
-251.5077499999999873
 30
0.0
  0
VERTEX
  5
1F8D
  8
SCAN
 10
261.3500999999998839
 20
-254.9872000000000014
 30
0.0
  0
VERTEX
  5
1F8E
  8
SCAN
 10
258.8448999999998819
 20
-259.0233999999999241
 30
0.0
  0
VERTEX
  5
1F8F
  8
SCAN
 10
256.2005499999999074
 20
-264.868850000000009
 30
0.0
  0
VERTEX
  5
1F90
  8
SCAN
 10
258.0098499999999149
 20
-268.7658500000000004
 30
0.0
  0
VERTEX
  5
1F91
  8
SCAN
 10
260.3758999999998878
 20
-272.9411999999999807
 30
0.0
  0
VERTEX
  5
1F92
  8
SCAN
 10
263.0202499999999191
 20
-276.6989999999998986
 30
0.0
  0
VERTEX
  5
1F93
  8
SCAN
 10
264.6903999999998973
 20
-278.6474999999999227
 30
0.0
  0
VERTEX
  5
1F94
  8
SCAN
 10
267.4739499999998884
 20
-281.2918499999998971
 30
0.0
  0
VERTEX
  5
1F95
  8
SCAN
 10
270.2574999999998795
 20
-283.2403499999999212
 30
0.0
  0
VERTEX
  5
1F96
  8
SCAN
 10
272.9018999999998982
 20
-284.3537999999999784
 30
0.0
  0
VERTEX
  5
1F97
  8
SCAN
 10
275.1287499999999113
 20
-284.6321500000000242
 30
0.0
  0
VERTEX
  5
1F98
  8
SCAN
 10
273.7369499999999221
 20
-284.2146000000000186
 30
0.0
  0
VERTEX
  5
1F99
  8
SCAN
 10
270.5358999999999128
 20
-282.4053000000000111
 30
0.0
  0
VERTEX
  5
1F9A
  8
SCAN
 10
268.448199999999872
 20
-280.735149999999976
 30
0.0
  0
VERTEX
  5
1F9B
  8
SCAN
 10
265.9429999999999268
 20
-278.2299499999999739
 30
0.0
  0
VERTEX
  5
1F9C
  8
SCAN
 10
262.1851999999998952
 20
-273.2195499999999129
 30
0.0
  0
VERTEX
  5
1F9D
  8
SCAN
 10
260.236699999999928
 20
-269.8792500000000132
 30
0.0
  0
VERTEX
  5
1F9E
  8
SCAN
 10
257.8706499999998982
 20
-264.868850000000009
 30
0.0
  0
VERTEX
  5
1F9F
  8
SCAN
 10
260.6542499999998768
 20
-262.9203499999999849
 30
0.0
  0
VERTEX
  5
1FA0
  8
SCAN
 10
263.1594499999998789
 20
-261.6677500000000123
 30
0.0
  0
VERTEX
  5
1FA1
  8
SCAN
 10
266.7780499999998938
 20
-260.415149999999926
 30
0.0
  0
VERTEX
  5
1FA2
  8
SCAN
 10
270.9533999999998741
 20
-259.7192499999999882
 30
0.0
  0
VERTEX
  5
1FA3
  8
SCAN
 10
275.6854499999998893
 20
-259.8584499999998911
 30
0.0
  0
VERTEX
  5
1FA4
  8
SCAN
 10
279.7216499999998973
 20
-260.9718500000000176
 30
0.0
  0
VERTEX
  5
1FA5
  8
SCAN
 10
282.5051999999998884
 20
-262.6419999999998822
 30
0.0
  0
VERTEX
  5
1FA6
  8
SCAN
 10
284.7320499999999015
 20
-265.008049999999912
 30
0.0
  0
VERTEX
  5
1FA7
  8
SCAN
 10
286.541349999999909
 20
-268.6266499999999269
 30
0.0
  0
VERTEX
  5
1FA8
  8
SCAN
 10
286.6805499999999256
 20
-266.1214499999999816
 30
0.0
  0
VERTEX
  5
1FA9
  8
SCAN
 10
286.1237999999999033
 20
-263.7554499999999962
 30
0.0
  0
VERTEX
  5
1FAA
  8
SCAN
 10
284.8711999999998739
 20
-261.5285999999999831
 30
0.0
  0
VERTEX
  5
1FAB
  8
SCAN
 10
283.7577999999999179
 20
-260.2759999999998968
 30
0.0
  0
VERTEX
  5
1FAC
  8
SCAN
 10
282.3659999999998718
 20
-259.1625500000000102
 30
0.0
  0
VERTEX
  5
1FAD
  8
SCAN
 10
279.7216499999998973
 20
-257.7708000000000084
 30
0.0
  0
VERTEX
  5
1FAE
  8
SCAN
 10
276.6596999999998729
 20
-256.9356999999999971
 30
0.0
  0
VERTEX
  5
1FAF
  8
SCAN
 10
272.7627499999999259
 20
-256.7965500000000247
 30
0.0
  0
VERTEX
  5
1FB0
  8
SCAN
 10
270.5358999999999128
 20
-257.0749000000000137
 30
0.0
  0
VERTEX
  5
1FB1
  8
SCAN
 10
269.8399999999999181
 20
-257.3532500000000027
 30
0.0
  0
VERTEX
  5
1FB2
  8
SCAN
 10
269.1440999999999235
 20
-257.2140499999998724
 30
0.0
  0
VERTEX
  5
1FB3
  8
SCAN
 10
271.6492999999999256
 20
-255.4047499999998934
 30
0.0
  0
VERTEX
  5
1FB4
  8
SCAN
 10
274.0153499999998985
 20
-254.152150000000006
 30
0.0
  0
VERTEX
  5
1FB5
  8
SCAN
 10
278.0514999999998054
 20
-252.899550000000005
 30
0.0
  0
VERTEX
  5
1FB6
  8
SCAN
 10
282.6443499999998039
 20
-252.899550000000005
 30
0.0
  0
VERTEX
  5
1FB7
  8
SCAN
 10
284.7320499999999015
 20
-253.4562500000000114
 30
0.0
  0
VERTEX
  5
1FB8
  8
SCAN
 10
286.541349999999909
 20
-254.2913000000000068
 30
0.0
  0
VERTEX
  5
1FB9
  8
SCAN
 10
288.2114999999998872
 20
-255.4047499999998934
 30
0.0
  0
VERTEX
  5
1FBA
  8
SCAN
 10
290.2991499999998837
 20
-257.4923999999999751
 30
0.0
  0
VERTEX
  5
1FBB
  8
SCAN
 10
291.6909499999998729
 20
-259.8584499999998911
 30
0.0
  0
VERTEX
  5
1FBC
  8
SCAN
 10
291.9692999999999188
 20
-260.6934999999999718
 30
0.0
  0
VERTEX
  5
1FBD
  8
SCAN
 10
291.8300999999999021
 20
-260.9718500000000176
 30
0.0
  0
VERTEX
  5
1FBE
  8
SCAN
 10
289.185749999999814
 20
-258.0491499999998837
 30
0.0
  0
VERTEX
  5
1FBF
  8
SCAN
 10
286.541349999999909
 20
-256.3790000000000191
 30
0.0
  0
VERTEX
  5
1FC0
  8
SCAN
 10
282.5051999999998884
 20
-255.1263999999999896
 30
0.0
  0
VERTEX
  5
1FC1
  8
SCAN
 10
278.886549999999886
 20
-254.9872000000000014
 30
0.0
  0
VERTEX
  5
1FC2
  8
SCAN
 10
281.9484999999999104
 20
-255.9614500000000135
 30
0.0
  0
VERTEX
  5
1FC3
  8
SCAN
 10
284.5928499999998849
 20
-257.631599999999878
 30
0.0
  0
VERTEX
  5
1FC4
  8
SCAN
 10
286.4021999999998798
 20
-259.4408999999998855
 30
0.0
  0
VERTEX
  5
1FC5
  8
SCAN
 10
287.3763999999998759
 20
-260.8326999999998748
 30
0.0
  0
VERTEX
  5
1FC6
  8
SCAN
 10
288.7681999999998084
 20
-264.1729500000000144
 30
0.0
  0
VERTEX
  5
1FC7
  8
SCAN
 10
289.3248999999999
 20
-267.6524000000000001
 30
0.0
  0
VERTEX
  5
1FC8
  8
SCAN
 10
289.0465499999999111
 20
-272.5236499999999751
 30
0.0
  0
VERTEX
  5
1FC9
  8
SCAN
 10
287.6547999999999092
 20
-277.5340499999999793
 30
0.0
  0
VERTEX
  5
1FCA
  8
SCAN
 10
286.541349999999909
 20
-279.7608999999999924
 30
0.0
  0
VERTEX
  5
1FCB
  8
SCAN
 10
285.8454499999999143
 20
-280.5960000000000036
 30
0.0
  0
VERTEX
  5
1FCC
  8
SCAN
 10
284.1753499999999235
 20
-280.735149999999976
 30
0.0
  0
VERTEX
  5
1FCD
  8
SCAN
 10
282.5051999999998884
 20
-281.7093999999999028
 30
0.0
  0
VERTEX
  5
1FCE
  8
SCAN
 10
281.1133999999998991
 20
-280.4567999999998733
 30
0.0
  0
VERTEX
  5
1FCF
  8
SCAN
 10
280.5566999999999211
 20
-278.7866500000000087
 30
0.0
  0
VERTEX
  5
1FD0
  8
SCAN
 10
280.5566999999999211
 20
-277.5340499999999793
 30
0.0
  0
VERTEX
  5
1FD1
  8
SCAN
 10
281.5309499999999048
 20
-272.5236499999999751
 30
0.0
  0
VERTEX
  5
1FD2
  8
SCAN
 10
281.5309499999999048
 20
-269.6009000000000242
 30
0.0
  0
VERTEX
  5
1FD3
  8
SCAN
 10
281.1133999999998991
 20
-268.069949999999892
 30
0.0
  0
VERTEX
  5
1FD4
  8
SCAN
 10
279.9999999999998863
 20
-266.1214499999999816
 30
0.0
  0
VERTEX
  5
1FD5
  8
SCAN
 10
277.9122999999999024
 20
-264.3121499999999742
 30
0.0
  0
VERTEX
  5
1FD6
  8
SCAN
 10
276.102999999999895
 20
-263.6162499999999227
 30
0.0
  0
VERTEX
  5
1FD7
  8
SCAN
 10
274.4328499999999167
 20
-263.3378999999999905
 30
0.0
  0
VERTEX
  5
1FD8
  8
SCAN
 10
271.23174999999992
 20
-263.3378999999999905
 30
0.0
  0
VERTEX
  5
1FD9
  8
SCAN
 10
269.5616499999998723
 20
-263.6162499999999227
 30
0.0
  0
VERTEX
  5
1FDA
  8
SCAN
 10
267.0563999999998828
 20
-264.4512999999998897
 30
0.0
  0
VERTEX
  5
1FDB
  8
SCAN
 10
265.2470999999998753
 20
-265.4255499999998733
 30
0.0
  0
VERTEX
  5
1FDC
  8
SCAN
 10
263.437799999999811
 20
-266.8173499999999763
 30
0.0
  0
VERTEX
  5
1FDD
  8
SCAN
 10
262.4635499999998842
 20
-268.069949999999892
 30
0.0
  0
VERTEX
  5
1FDE
  8
SCAN
 10
266.6388999999999214
 20
-267.2348999999999251
 30
0.0
  0
VERTEX
  5
1FDF
  8
SCAN
 10
269.8399999999999181
 20
-267.0957000000000221
 30
0.0
  0
VERTEX
  5
1FE0
  8
SCAN
 10
269.9791499999998905
 20
-267.2348999999999251
 30
0.0
  0
VERTEX
  5
1FE1
  8
SCAN
 10
268.3090499999998997
 20
-269.0441999999999894
 30
0.0
  0
VERTEX
  5
1FE2
  8
SCAN
 10
266.9172499999999104
 20
-271.1318499999999858
 30
0.0
  0
VERTEX
  5
1FE3
  8
SCAN
 10
265.9429999999999268
 20
-273.6370999999999754
 30
0.0
  0
VERTEX
  5
1FE4
  8
SCAN
 10
266.2213499999999158
 20
-273.6370999999999754
 30
0.0
  0
VERTEX
  5
1FE5
  8
SCAN
 10
269.0048999999999069
 20
-271.5493999999999915
 30
0.0
  0
VERTEX
  5
1FE6
  8
SCAN
 10
272.2059999999999036
 20
-269.8792500000000132
 30
0.0
  0
VERTEX
  5
1FE7
  8
SCAN
 10
272.3451999999999202
 20
-270.018449999999973
 30
0.0
  0
VERTEX
  5
1FE8
  8
SCAN
 10
271.23174999999992
 20
-271.9669499999999971
 30
0.0
  0
VERTEX
  5
1FE9
  8
SCAN
 10
270.5358999999999128
 20
-273.9154500000000212
 30
0.0
  0
VERTEX
  5
1FEA
  8
SCAN
 10
270.1183499999999071
 20
-275.7247499999999718
 30
0.0
  0
VERTEX
  5
1FEB
  8
SCAN
 10
270.1183499999999071
 20
-278.2299499999999739
 30
0.0
  0
VERTEX
  5
1FEC
  8
SCAN
 10
271.6492999999999256
 20
-275.8639499999998748
 30
0.0
  0
VERTEX
  5
1FED
  8
SCAN
 10
273.3194499999999039
 20
-274.1938000000000102
 30
0.0
  0
VERTEX
  5
1FEE
  8
SCAN
 10
275.1287499999999113
 20
-273.2195499999999129
 30
0.0
  0
VERTEX
  5
1FEF
  8
SCAN
 10
277.0772499999998786
 20
-273.0803499999998962
 30
0.0
  0
VERTEX
  5
1FF0
  8
SCAN
 10
277.3555999999999244
 20
-273.4979000000000156
 30
0.0
  0
VERTEX
  5
1FF1
  8
SCAN
 10
277.3555999999999244
 20
-278.5083000000000197
 30
0.0
  0
VERTEX
  5
1FF2
  8
SCAN
 10
278.1906499999998914
 20
-280.735149999999976
 30
0.0
  0
VERTEX
  5
1FF3
  8
SCAN
 10
280.4174999999999045
 20
-283.101199999999892
 30
0.0
  0
VERTEX
  5
1FF4
  8
SCAN
 10
283.201099999999883
 20
-284.9105000000000132
 30
0.0
  0
VERTEX
  5
1FF5
  8
SCAN
 10
284.8711999999998739
 20
-285.4671999999998775
 30
0.0
  0
VERTEX
  5
1FF6
  8
SCAN
 10
285.7062999999998851
 20
-285.4671999999998775
 30
0.0
  0
VERTEX
  5
1FF7
  8
SCAN
 10
286.9588999999999146
 20
-284.0754499999998757
 30
0.0
  0
VERTEX
  5
1FF8
  8
SCAN
 10
288.7681999999998084
 20
-281.1526999999999816
 30
0.0
  0
VERTEX
  5
1FF9
  8
SCAN
 10
290.2991499999998837
 20
-277.9515999999999849
 30
0.0
  0
VERTEX
  5
1FFA
  8
SCAN
 10
291.4125999999998839
 20
-276.6989999999998986
 30
0.0
  0
VERTEX
  5
1FFB
  8
SCAN
 10
292.6651999999999134
 20
-276.1422999999999774
 30
0.0
  0
VERTEX
  5
1FFC
  8
SCAN
 10
294.0569499999999152
 20
-276.1422999999999774
 30
0.0
  0
VERTEX
  5
1FFD
  8
SCAN
 10
295.5879499999999211
 20
-276.9773500000000013
 30
0.0
  0
VERTEX
  5
1FFE
  8
SCAN
 10
295.4487499999999045
 20
-276.2814500000000066
 30
0.0
  0
VERTEX
  5
1FFF
  8
SCAN
 10
294.4744999999999209
 20
-275.1680499999999938
 30
0.0
  0
VERTEX
  5
2000
  8
SCAN
 10
296.4229999999998881
 20
-274.3329499999999825
 30
0.0
  0
VERTEX
  5
2001
  8
SCAN
 10
299.2065499999998792
 20
-271.5493999999999915
 30
0.0
  0
VERTEX
  5
2002
  8
SCAN
 10
299.3457499999998959
 20
-271.9669499999999971
 30
0.0
  0
VERTEX
  5
2003
  8
SCAN
 10
298.9281999999998902
 20
-274.8896999999998911
 30
0.0
  0
VERTEX
  5
2004
  8
SCAN
 10
297.9539499999999066
 20
-279.62175000000002
 30
0.0
  0
VERTEX
  5
2005
  8
SCAN
 10
296.7013499999998771
 20
-283.7971000000000004
 30
0.0
  0
VERTEX
  5
2006
  8
SCAN
 10
295.8662999999999101
 20
-285.6064000000000078
 30
0.0
  0
VERTEX
  5
2007
  8
SCAN
 10
295.3095499999998879
 20
-286.0239500000000135
 30
0.0
  0
VERTEX
  5
2008
  8
SCAN
 10
293.3610999999999081
 20
-286.5806499999999915
 30
0.0
  0
VERTEX
  5
2009
  8
SCAN
 10
290.855899999999906
 20
-286.9981500000000096
 30
0.0
  0
VERTEX
  5
200A
  8
SCAN
 10
289.185749999999814
 20
-286.9981500000000096
 30
0.0
  0
VERTEX
  5
200B
  8
SCAN
 10
291.9692999999999188
 20
-287.5548999999999751
 30
0.0
  0
SEQEND
  5
200C
  8
SCAN
  0
POLYLINE
  5
2DE
  8
SCAN
 66
     1
 10
0.0
 20
0.0
 30
0.0
 70
     1
  0
VERTEX
  5
200D
  8
SCAN
 10
293.0827499999999191
 20
-269.183400000000006
 30
0.0
  0
VERTEX
  5
200E
  8
SCAN
 10
293.3610999999999081
 20
-270.018449999999973
 30
0.0
  0
VERTEX
  5
200F
  8
SCAN
 10
292.8043499999998858
 20
-270.2968000000000188
 30
0.0
  0
VERTEX
  5
2010
  8
SCAN
 10
292.5259999999998968
 20
-270.018449999999973
 30
0.0
  0
VERTEX
  5
2011
  8
SCAN
 10
292.5259999999998968
 20
-269.4617499999998813
 30
0.0
  0
SEQEND
  5
2012
  8
SCAN
  0
POLYLINE
  5
2DF
  8
SCAN
 66
     1
 10
0.0
 20
0.0
 30
0.0
 70
     1
  0
VERTEX
  5
2013
  8
SCAN
 10
293.2218999999998914
 20
-266.6781499999999028
 30
0.0
  0
VERTEX
  5
2014
  8
SCAN
 10
293.3610999999999081
 20
-267.7916000000000167
 30
0.0
  0
VERTEX
  5
2015
  8
SCAN
 10
292.1084999999998786
 20
-268.6266499999999269
 30
0.0
  0
VERTEX
  5
2016
  8
SCAN
 10
291.6909499999998729
 20
-270.018449999999973
 30
0.0
  0
VERTEX
  5
2017
  8
SCAN
 10
291.2733999999998105
 20
-269.3225499999999784
 30
0.0
  0
VERTEX
  5
2018
  8
SCAN
 10
291.4125999999998839
 20
-267.9307999999999765
 30
0.0
  0
VERTEX
  5
2019
  8
SCAN
 10
292.6651999999999134
 20
-266.6781499999999028
 30
0.0
  0
SEQEND
  5
201A
  8
SCAN
  0
POLYLINE
  5
2E0
  8
SCAN
 66
     1
 10
0.0
 20
0.0
 30
0.0
 70
     1
  0
VERTEX
  5
201B
  8
SCAN
 10
296.1446499999998991
 20
-263.1986999999999739
 30
0.0
  0
VERTEX
  5
201C
  8
SCAN
 10
296.2837999999999283
 20
-269.4617499999998813
 30
0.0
  0
VERTEX
  5
201D
  8
SCAN
 10
296.0054499999998825
 20
-270.8534999999998831
 30
0.0
  0
VERTEX
  5
201E
  8
SCAN
 10
295.4487499999999045
 20
-271.9669499999999971
 30
0.0
  0
VERTEX
  5
201F
  8
SCAN
 10
294.7528499999999099
 20
-272.662849999999878
 30
0.0
  0
VERTEX
  5
2020
  8
SCAN
 10
294.0569499999999152
 20
-273.0803499999998962
 30
0.0
  0
VERTEX
  5
2021
  8
SCAN
 10
293.2218999999998914
 20
-273.2195499999999129
 30
0.0
  0
VERTEX
  5
2022
  8
SCAN
 10
293.0827499999999191
 20
-273.0803499999998962
 30
0.0
  0
VERTEX
  5
2023
  8
SCAN
 10
293.7785999999999262
 20
-272.5236499999999751
 30
0.0
  0
VERTEX
  5
2024
  8
SCAN
 10
294.6136999999998807
 20
-270.8534999999998831
 30
0.0
  0
VERTEX
  5
2025
  8
SCAN
 10
294.7528499999999099
 20
-266.1214499999999816
 30
0.0
  0
VERTEX
  5
2026
  8
SCAN
 10
295.3095499999998879
 20
-264.0337999999999283
 30
0.0
  0
SEQEND
  5
2027
  8
SCAN
  0
POLYLINE
  5
2E1
  8
SCAN
 66
     1
 10
0.0
 20
0.0
 30
0.0
 70
     1
  0
VERTEX
  5
2028
  8
SCAN
 10
300.1807999999999197
 20
-231.3269500000000107
 30
0.0
  0
VERTEX
  5
2029
  8
SCAN
 10
298.7890499999999179
 20
-231.3269500000000107
 30
0.0
  0
VERTEX
  5
202A
  8
SCAN
 10
268.5873999999998887
 20
-225.8990000000000009
 30
0.0
  0
VERTEX
  5
202B
  8
SCAN
 10
265.5254499999998075
 20
-224.9247499999999889
 30
0.0
  0
VERTEX
  5
202C
  8
SCAN
 10
263.576949999999897
 20
-223.8112999999999886
 30
0.0
  0
VERTEX
  5
202D
  8
SCAN
 10
262.1851999999998952
 20
-222.4195499999999868
 30
0.0
  0
VERTEX
  5
202E
  8
SCAN
 10
261.4892999999999006
 20
-221.1669500000000994
 30
0.0
  0
VERTEX
  5
202F
  8
SCAN
 10
260.9325999999999226
 20
-218.8009000000000128
 30
0.0
  0
VERTEX
  5
2030
  8
SCAN
 10
260.9325999999999226
 20
-216.2957000000000107
 30
0.0
  0
VERTEX
  5
2031
  8
SCAN
 10
261.4892999999999006
 20
-213.651299999999992
 30
0.0
  0
VERTEX
  5
2032
  8
SCAN
 10
261.9068499999999062
 20
-213.5121499999999912
 30
0.0
  0
VERTEX
  5
2033
  8
SCAN
 10
266.4996999999999048
 20
-214.3471999999999866
 30
0.0
  0
VERTEX
  5
2034
  8
SCAN
 10
266.7780499999998938
 20
-216.8523999999999887
 30
0.0
  0
VERTEX
  5
2035
  8
SCAN
 10
267.1955999999998994
 20
-217.8266500000000008
 30
0.0
  0
VERTEX
  5
2036
  8
SCAN
 10
268.5873999999998887
 20
-218.940100000000001
 30
0.0
  0
VERTEX
  5
2037
  8
SCAN
 10
271.6492999999999256
 20
-219.7751499999999965
 30
0.0
  0
VERTEX
  5
2038
  8
SCAN
 10
294.0569499999999152
 20
-223.6721499999999878
 30
0.0
  0
VERTEX
  5
2039
  8
SCAN
 10
294.196149999999875
 20
-220.0535000000000139
 30
0.0
  0
VERTEX
  5
203A
  8
SCAN
 10
300.0416499999998905
 20
-221.0277499999999975
 30
0.0
  0
SEQEND
  5
203B
  8
SCAN
  0
POLYLINE
  5
2E2
  8
SCAN
 66
     1
 10
0.0
 20
0.0
 30
0.0
 70
     1
  0
VERTEX
  5
203C
  8
SCAN
 10
300.1807999999999197
 20
-218.2442000000000064
 30
0.0
  0
VERTEX
  5
203D
  8
SCAN
 10
300.0416499999998905
 20
-218.3833999999999946
 30
0.0
  0
VERTEX
  5
203E
  8
SCAN
 10
271.6492999999999256
 20
-213.372950000000003
 30
0.0
  0
VERTEX
  5
203F
  8
SCAN
 10
267.3347999999998024
 20
-212.398699999999991
 30
0.0
  0
VERTEX
  5
2040
  8
SCAN
 10
265.107949999999903
 20
-211.5636499999999955
 30
0.0
  0
VERTEX
  5
2041
  8
SCAN
 10
263.8553499999998735
 20
-210.8677500000000009
 30
0.0
  0
VERTEX
  5
2042
  8
SCAN
 10
262.3243499999999244
 20
-209.4759999999999991
 30
0.0
  0
VERTEX
  5
2043
  8
SCAN
 10
261.7676499999998896
 20
-208.6408999999999878
 30
0.0
  0
VERTEX
  5
2044
  8
SCAN
 10
261.2109499999999116
 20
-207.1099499999999978
 30
0.0
  0
VERTEX
  5
2045
  8
SCAN
 10
260.9325999999999226
 20
-205.5790000000000077
 30
0.0
  0
VERTEX
  5
2046
  8
SCAN
 10
260.9325999999999226
 20
-203.0738000000000056
 30
0.0
  0
VERTEX
  5
2047
  8
SCAN
 10
261.4892999999999006
 20
-200.5686000000000035
 30
0.0
  0
VERTEX
  5
2048
  8
SCAN
 10
262.4635499999998842
 20
-200.4293999999999869
 30
0.0
  0
VERTEX
  5
2049
  8
SCAN
 10
266.3605499999998756
 20
-201.1252999999998963
 30
0.0
  0
VERTEX
  5
204A
  8
SCAN
 10
266.6388999999999214
 20
-201.403649999999999
 30
0.0
  0
VERTEX
  5
204B
  8
SCAN
 10
266.7780499999998938
 20
-203.6305000000000121
 30
0.0
  0
VERTEX
  5
204C
  8
SCAN
 10
267.0563999999998828
 20
-204.4655500000000075
 30
0.0
  0
VERTEX
  5
204D
  8
SCAN
 10
267.613149999999905
 20
-205.1614500000000021
 30
0.0
  0
VERTEX
  5
204E
  8
SCAN
 10
268.7265499999999179
 20
-205.8573499999999967
 30
0.0
  0
VERTEX
  5
204F
  8
SCAN
 10
272.0668499999998744
 20
-206.6923999999999921
 30
0.0
  0
VERTEX
  5
2050
  8
SCAN
 10
279.9999999999998863
 20
-207.9449999999999932
 30
0.0
  0
VERTEX
  5
2051
  8
SCAN
 10
293.3610999999999081
 20
-210.4502500000000964
 30
0.0
  0
VERTEX
  5
2052
  8
SCAN
 10
294.0569499999999152
 20
-210.4502500000000964
 30
0.0
  0
VERTEX
  5
2053
  8
SCAN
 10
294.196149999999875
 20
-206.8316000000000088
 30
0.0
  0
VERTEX
  5
2054
  8
SCAN
 10
300.0416499999998905
 20
-207.9449999999999932
 30
0.0
  0
SEQEND
  5
2055
  8
SCAN
  0
POLYLINE
  5
2E3
  8
SCAN
 66
     1
 10
0.0
 20
0.0
 30
0.0
 70
     1
  0
VERTEX
  5
2056
  8
SCAN
 10
300.4591499999999087
 20
-246.6365499999999997
 30
0.0
  0
VERTEX
  5
2057
  8
SCAN
 10
299.7632499999999141
 20
-248.1674999999999898
 30
0.0
  0
VERTEX
  5
2058
  8
SCAN
 10
298.9281999999998902
 20
-249.1417500000000018
 30
0.0
  0
VERTEX
  5
2059
  8
SCAN
 10
297.258049999999912
 20
-250.1160000000000139
 30
0.0
  0
VERTEX
  5
205A
  8
SCAN
 10
296.1446499999998991
 20
-250.3943500000000029
 30
0.0
  0
VERTEX
  5
205B
  8
SCAN
 10
293.5002499999998804
 20
-250.5335000000000036
 30
0.0
  0
VERTEX
  5
205C
  8
SCAN
 10
287.6547999999999092
 20
-249.5592499999999916
 30
0.0
  0
VERTEX
  5
205D
  8
SCAN
 10
287.5155999999998926
 20
-243.2962499999999864
 30
0.0
  0
VERTEX
  5
205E
  8
SCAN
 10
288.2114999999998872
 20
-243.157100000000014
 30
0.0
  0
VERTEX
  5
205F
  8
SCAN
 10
292.2476499999999078
 20
-243.9921500000000094
 30
0.0
  0
VERTEX
  5
2060
  8
SCAN
 10
294.7528499999999099
 20
-244.2704999999999984
 30
0.0
  0
VERTEX
  5
2061
  8
SCAN
 10
295.0311999999998989
 20
-243.713799999999992
 30
0.0
  0
VERTEX
  5
2062
  8
SCAN
 10
295.0311999999998989
 20
-242.0436500000000137
 30
0.0
  0
VERTEX
  5
2063
  8
SCAN
 10
294.6136999999998807
 20
-241.3477499999999907
 30
0.0
  0
VERTEX
  5
2064
  8
SCAN
 10
293.917799999999886
 20
-240.9302500000000009
 30
0.0
  0
VERTEX
  5
2065
  8
SCAN
 10
291.8300999999999021
 20
-240.3735000000000923
 30
0.0
  0
VERTEX
  5
2066
  8
SCAN
 10
269.8399999999999181
 20
-236.6157000000000039
 30
0.0
  0
VERTEX
  5
2067
  8
SCAN
 10
268.0306499999999232
 20
-236.7548999999999921
 30
0.0
  0
VERTEX
  5
2068
  8
SCAN
 10
267.613149999999905
 20
-237.0332500000000095
 30
0.0
  0
VERTEX
  5
2069
  8
SCAN
 10
267.3347999999998024
 20
-237.5899499999999875
 30
0.0
  0
VERTEX
  5
206A
  8
SCAN
 10
267.0563999999998828
 20
-238.9817499999998915
 30
0.0
  0
VERTEX
  5
206B
  8
SCAN
 10
267.0563999999998828
 20
-245.8014499999999884
 30
0.0
  0
VERTEX
  5
206C
  8
SCAN
 10
266.2213499999999158
 20
-245.9406500000000051
 30
0.0
  0
VERTEX
  5
206D
  8
SCAN
 10
261.4892999999999006
 20
-245.1055499999999938
 30
0.0
  0
VERTEX
  5
206E
  8
SCAN
 10
261.2109499999999116
 20
-244.8272000000000048
 30
0.0
  0
VERTEX
  5
206F
  8
SCAN
 10
260.9325999999999226
 20
-242.0436500000000137
 30
0.0
  0
VERTEX
  5
2070
  8
SCAN
 10
260.9325999999999226
 20
-237.0332500000000095
 30
0.0
  0
VERTEX
  5
2071
  8
SCAN
 10
261.4892999999999006
 20
-233.9713000000000989
 30
0.0
  0
VERTEX
  5
2072
  8
SCAN
 10
262.3243499999999244
 20
-232.1619999999998925
 30
0.0
  0
VERTEX
  5
2073
  8
SCAN
 10
263.437799999999811
 20
-230.9094000000000051
 30
0.0
  0
VERTEX
  5
2074
  8
SCAN
 10
264.5511999999998807
 20
-230.2135000000000105
 30
0.0
  0
VERTEX
  5
2075
  8
SCAN
 10
266.6388999999999214
 20
-229.656800000000004
 30
0.0
  0
VERTEX
  5
2076
  8
SCAN
 10
270.9533999999998741
 20
-229.7959999999999923
 30
0.0
  0
VERTEX
  5
2077
  8
SCAN
 10
290.1599999999999113
 20
-233.1362499999999898
 30
0.0
  0
VERTEX
  5
2078
  8
SCAN
 10
293.917799999999886
 20
-233.9713000000000989
 30
0.0
  0
VERTEX
  5
2079
  8
SCAN
 10
296.5621999999999048
 20
-234.945549999999912
 30
0.0
  0
VERTEX
  5
207A
  8
SCAN
 10
298.0931499999999232
 20
-235.9198000000000945
 30
0.0
  0
VERTEX
  5
207B
  8
SCAN
 10
299.0673999999999069
 20
-236.8940499999999929
 30
0.0
  0
VERTEX
  5
207C
  8
SCAN
 10
299.9024499999998739
 20
-238.146649999999994
 30
0.0
  0
VERTEX
  5
207D
  8
SCAN
 10
300.5983499999999253
 20
-240.2343500000000063
 30
0.0
  0
VERTEX
  5
207E
  8
SCAN
 10
300.8766999999999143
 20
-242.6003499999999917
 30
0.0
  0
VERTEX
  5
207F
  8
SCAN
 10
300.7374999999998977
 20
-245.5230999999999995
 30
0.0
  0
SEQEND
  5
2080
  8
SCAN
  0
POLYLINE
  5
2E4
  8
SCAN
 66
     1
 10
0.0
 20
0.0
 30
0.0
 70
     1
  0
VERTEX
  5
2081
  8
SCAN
 10
304.2169499999998834
 20
-258.6058499999999754
 30
0.0
  0
VERTEX
  5
2082
  8
SCAN
 10
303.7994499999999221
 20
-258.7450000000000045
 30
0.0
  0
VERTEX
  5
2083
  8
SCAN
 10
301.7117499999998813
 20
-258.1883000000000266
 30
0.0
  0
VERTEX
  5
2084
  8
SCAN
 10
299.6240999999998849
 20
-258.1883000000000266
 30
0.0
  0
VERTEX
  5
2085
  8
SCAN
 10
298.3714999999999122
 20
-256.7965500000000247
 30
0.0
  0
VERTEX
  5
2086
  8
SCAN
 10
301.0158999999998741
 20
-256.6573500000000081
 30
0.0
  0
VERTEX
  5
2087
  8
SCAN
 10
300.4591499999999087
 20
-256.1006499999999733
 30
0.0
  0
VERTEX
  5
2088
  8
SCAN
 10
298.5106499999998846
 20
-254.9872000000000014
 30
0.0
  0
VERTEX
  5
2089
  8
SCAN
 10
296.979699999999923
 20
-254.5697000000000116
 30
0.0
  0
VERTEX
  5
208A
  8
SCAN
 10
296.0054499999998825
 20
-254.5697000000000116
 30
0.0
  0
VERTEX
  5
208B
  8
SCAN
 10
294.4744999999999209
 20
-253.177899999999994
 30
0.0
  0
VERTEX
  5
208C
  8
SCAN
 10
296.979699999999923
 20
-253.038700000000091
 30
0.0
  0
VERTEX
  5
208D
  8
SCAN
 10
298.7890499999999179
 20
-253.4562500000000114
 30
0.0
  0
VERTEX
  5
208E
  8
SCAN
 10
300.3199999999998795
 20
-254.152150000000006
 30
0.0
  0
VERTEX
  5
208F
  8
SCAN
 10
302.2684999999999036
 20
-255.683099999999996
 30
0.0
  0
VERTEX
  5
2090
  8
SCAN
 10
303.3818999999998027
 20
-257.0749000000000137
 30
0.0
  0
SEQEND
  5
2091
  8
SCAN
  0
POLYLINE
  5
2F3
  8
SCAN
 66
     1
 10
0.0
 20
0.0
 30
0.0
 70
     1
  0
VERTEX
  5
2092
  8
SCAN
 10
456.7013499999998203
 20
-287.6940499999998906
 30
0.0
  0
VERTEX
  5
2093
  8
SCAN
 10
456.9796999999998093
 20
-287.5548999999999751
 30
0.0
  0
VERTEX
  5
2094
  8
SCAN
 10
459.0673999999999069
 20
-281.5702499999999873
 30
0.0
  0
VERTEX
  5
2095
  8
SCAN
 10
460.3199999999998795
 20
-275.8639499999998748
 30
0.0
  0
VERTEX
  5
2096
  8
SCAN
 10
460.8766999999999143
 20
-271.2710500000000025
 30
0.0
  0
VERTEX
  5
2097
  8
SCAN
 10
461.1550499999997896
 20
-270.9927000000000135
 30
0.0
  0
VERTEX
  5
2098
  8
SCAN
 10
464.495349999999803
 20
-271.4102500000000759
 30
0.0
  0
VERTEX
  5
2099
  8
SCAN
 10
465.8870999999998048
 20
-271.9669500000001108
 30
0.0
  0
VERTEX
  5
209A
  8
SCAN
 10
466.1654499999999075
 20
-271.8277499999999804
 30
0.0
  0
VERTEX
  5
209B
  8
SCAN
 10
465.6087499999997021
 20
-268.9049999999999727
 30
0.0
  0
VERTEX
  5
209C
  8
SCAN
 10
463.7994499999998084
 20
-266.2606499999998846
 30
0.0
  0
VERTEX
  5
209D
  8
SCAN
 10
462.4076499999998759
 20
-265.147199999999998
 30
0.0
  0
VERTEX
  5
209E
  8
SCAN
 10
461.7117499999998245
 20
-266.8173499999999763
 30
0.0
  0
VERTEX
  5
209F
  8
SCAN
 10
461.29424999999992
 20
-267.2348999999999251
 30
0.0
  0
VERTEX
  5
20A0
  8
SCAN
 10
461.1550499999997896
 20
-267.0957000000000221
 30
0.0
  0
VERTEX
  5
20A1
  8
SCAN
 10
461.4333999999997786
 20
-265.008049999999912
 30
0.0
  0
VERTEX
  5
20A2
  8
SCAN
 10
461.29424999999992
 20
-261.3894000000000233
 30
0.0
  0
VERTEX
  5
20A3
  8
SCAN
 10
464.2169499999998266
 20
-261.2502499999998804
 30
0.0
  0
VERTEX
  5
20A4
  8
SCAN
 10
467.0005499999998051
 20
-261.667750000000126
 30
0.0
  0
VERTEX
  5
20A5
  8
SCAN
 10
466.8613499999999021
 20
-259.8584499999998911
 30
0.0
  0
VERTEX
  5
20A6
  8
SCAN
 10
465.8870999999998048
 20
-257.0749000000001274
 30
0.0
  0
VERTEX
  5
20A7
  8
SCAN
 10
464.3561499999997864
 20
-254.5697000000000116
 30
0.0
  0
VERTEX
  5
20A8
  8
SCAN
 10
461.1550499999997896
 20
-250.8118500000001063
 30
0.0
  0
VERTEX
  5
20A9
  8
SCAN
 10
462.5468499999998926
 20
-248.5850000000000932
 30
0.0
  0
VERTEX
  5
20AA
  8
SCAN
 10
463.3818999999999164
 20
-245.5231000000001131
 30
0.0
  0
VERTEX
  5
20AB
  8
SCAN
 10
463.3818999999999164
 20
-240.9302500000000862
 30
0.0
  0
VERTEX
  5
20AC
  8
SCAN
 10
462.9643499999999108
 20
-238.8425499999999886
 30
0.0
  0
VERTEX
  5
20AD
  8
SCAN
 10
461.9900999999998135
 20
-236.4765500000000884
 30
0.0
  0
VERTEX
  5
20AE
  8
SCAN
 10
460.3199999999998795
 20
-234.3888500000001045
 30
0.0
  0
VERTEX
  5
20AF
  8
SCAN
 10
460.8766999999999143
 20
-234.2497000000001037
 30
0.0
  0
VERTEX
  5
20B0
  8
SCAN
 10
462.8251999999998247
 20
-234.6672000000000935
 30
0.0
  0
VERTEX
  5
20B1
  8
SCAN
 10
462.8251999999998247
 20
-205.7181499999998948
 30
0.0
  0
VERTEX
  5
20B2
  8
SCAN
 10
451.4125999999998839
 20
-203.7697000000000003
 30
0.0
  0
VERTEX
  5
20B3
  8
SCAN
 10
451.4125999999998839
 20
-207.249149999999986
 30
0.0
  0
VERTEX
  5
20B4
  8
SCAN
 10
451.1342499999997813
 20
-207.3882999999999868
 30
0.0
  0
VERTEX
  5
20B5
  8
SCAN
 10
432.2059999999999036
 20
-204.048050000000103
 30
0.0
  0
VERTEX
  5
20B6
  8
SCAN
 10
429.4224499999999125
 20
-203.2129500000000917
 30
0.0
  0
VERTEX
  5
20B7
  8
SCAN
 10
429.2832499999998959
 20
-199.0376500000000135
 30
0.0
  0
VERTEX
  5
20B8
  8
SCAN
 10
419.8191499999998086
 20
-197.3675000000000068
 30
0.0
  0
VERTEX
  5
20B9
  8
SCAN
 10
418.844899999999825
 20
-200.1510500000001116
 30
0.0
  0
VERTEX
  5
20BA
  8
SCAN
 10
418.2881999999999039
 20
-203.3521499999999946
 30
0.0
  0
VERTEX
  5
20BB
  8
SCAN
 10
418.5665499999997792
 20
-207.3882999999999868
 30
0.0
  0
VERTEX
  5
20BC
  8
SCAN
 10
419.123249999999814
 20
-209.1976500000000954
 30
0.0
  0
VERTEX
  5
20BD
  8
SCAN
 10
419.8191499999998086
 20
-210.3110499999999945
 30
0.0
  0
VERTEX
  5
20BE
  8
SCAN
 10
418.4273999999998068
 20
-215.3214499999999987
 30
0.0
  0
VERTEX
  5
20BF
  8
SCAN
 10
418.4273999999998068
 20
-219.7751500000001101
 30
0.0
  0
VERTEX
  5
20C0
  8
SCAN
 10
418.844899999999825
 20
-221.584500000000105
 30
0.0
  0
VERTEX
  5
20C1
  8
SCAN
 10
420.0974999999997976
 20
-224.0896999999999935
 30
0.0
  0
VERTEX
  5
20C2
  8
SCAN
 10
421.9068499999997925
 20
-225.8990000000000862
 30
0.0
  0
VERTEX
  5
20C3
  8
SCAN
 10
424.5511999999997101
 20
-227.4299500000001046
 30
0.0
  0
VERTEX
  5
20C4
  8
SCAN
 10
422.8810999999997762
 20
-228.1258500000000993
 30
0.0
  0
VERTEX
  5
20C5
  8
SCAN
 10
421.4892999999999006
 20
-229.1000999999999976
 30
0.0
  0
VERTEX
  5
20C6
  8
SCAN
 10
419.8191499999998086
 20
-231.1877499999999941
 30
0.0
  0
VERTEX
  5
20C7
  8
SCAN
 10
419.123249999999814
 20
-232.7187000000000978
 30
0.0
  0
VERTEX
  5
20C8
  8
SCAN
 10
418.2881999999999039
 20
-237.3115999999999985
 30
0.0
  0
VERTEX
  5
20C9
  8
SCAN
 10
418.2881999999999039
 20
-241.6261000000000934
 30
0.0
  0
VERTEX
  5
20CA
  8
SCAN
 10
418.7057499999997958
 20
-246.3581499999999949
 30
0.0
  0
VERTEX
  5
20CB
  8
SCAN
 10
418.9840999999998985
 20
-247.3324000000000922
 30
0.0
  0
VERTEX
  5
20CC
  8
SCAN
 10
426.7780499999997801
 20
-248.5850000000000932
 30
0.0
  0
VERTEX
  5
20CD
  8
SCAN
 10
426.9172499999997967
 20
-248.8634000000000981
 30
0.0
  0
VERTEX
  5
20CE
  8
SCAN
 10
424.1336999999998056
 20
-251.5077499999999873
 30
0.0
  0
VERTEX
  5
20CF
  8
SCAN
 10
421.3500999999998271
 20
-254.9872000000000867
 30
0.0
  0
VERTEX
  5
20D0
  8
SCAN
 10
418.844899999999825
 20
-259.0233999999999241
 30
0.0
  0
VERTEX
  5
20D1
  8
SCAN
 10
416.2005499999999074
 20
-264.868850000000009
 30
0.0
  0
VERTEX
  5
20D2
  8
SCAN
 10
418.0098499999998012
 20
-268.7658500000000004
 30
0.0
  0
VERTEX
  5
20D3
  8
SCAN
 10
420.3758999999997741
 20
-272.9411999999999807
 30
0.0
  0
VERTEX
  5
20D4
  8
SCAN
 10
424.6903999999997836
 20
-278.6474999999999227
 30
0.0
  0
VERTEX
  5
20D5
  8
SCAN
 10
427.4739499999997747
 20
-281.2918499999998971
 30
0.0
  0
VERTEX
  5
20D6
  8
SCAN
 10
430.2574999999998795
 20
-283.2403499999999212
 30
0.0
  0
VERTEX
  5
20D7
  8
SCAN
 10
432.9018999999997845
 20
-284.3537999999999784
 30
0.0
  0
VERTEX
  5
20D8
  8
SCAN
 10
435.1287499999997976
 20
-284.6321500000000242
 30
0.0
  0
VERTEX
  5
20D9
  8
SCAN
 10
433.7369499999998084
 20
-284.2146000000000186
 30
0.0
  0
VERTEX
  5
20DA
  8
SCAN
 10
430.5358999999999128
 20
-282.4053000000000111
 30
0.0
  0
VERTEX
  5
20DB
  8
SCAN
 10
428.4481999999997015
 20
-280.735149999999976
 30
0.0
  0
VERTEX
  5
20DC
  8
SCAN
 10
425.9429999999999268
 20
-278.2299499999999739
 30
0.0
  0
VERTEX
  5
20DD
  8
SCAN
 10
422.1851999999998952
 20
-273.2195499999999129
 30
0.0
  0
VERTEX
  5
20DE
  8
SCAN
 10
420.2366999999998143
 20
-269.8792500000000132
 30
0.0
  0
VERTEX
  5
20DF
  8
SCAN
 10
417.8706499999997845
 20
-264.868850000000009
 30
0.0
  0
VERTEX
  5
20E0
  8
SCAN
 10
420.6542499999998199
 20
-262.9203499999999849
 30
0.0
  0
VERTEX
  5
20E1
  8
SCAN
 10
423.159449999999822
 20
-261.6677500000000123
 30
0.0
  0
VERTEX
  5
20E2
  8
SCAN
 10
426.7780499999997801
 20
-260.415149999999926
 30
0.0
  0
VERTEX
  5
20E3
  8
SCAN
 10
430.9533999999998173
 20
-259.7192499999999882
 30
0.0
  0
VERTEX
  5
20E4
  8
SCAN
 10
435.6854499999997756
 20
-259.8584499999998911
 30
0.0
  0
VERTEX
  5
20E5
  8
SCAN
 10
439.7216499999997836
 20
-260.9718500000000176
 30
0.0
  0
VERTEX
  5
20E6
  8
SCAN
 10
442.5051999999997747
 20
-262.6419999999998822
 30
0.0
  0
VERTEX
  5
20E7
  8
SCAN
 10
444.7320499999999015
 20
-265.008049999999912
 30
0.0
  0
VERTEX
  5
20E8
  8
SCAN
 10
446.541349999999909
 20
-268.6266499999999269
 30
0.0
  0
VERTEX
  5
20E9
  8
SCAN
 10
446.6805499999998119
 20
-266.1214499999999816
 30
0.0
  0
VERTEX
  5
20EA
  8
SCAN
 10
446.1237999999997896
 20
-263.7554499999999962
 30
0.0
  0
VERTEX
  5
20EB
  8
SCAN
 10
444.871199999999817
 20
-261.5285999999999831
 30
0.0
  0
VERTEX
  5
20EC
  8
SCAN
 10
442.3659999999998149
 20
-259.1625500000000102
 30
0.0
  0
VERTEX
  5
20ED
  8
SCAN
 10
439.7216499999997836
 20
-257.7708000000000084
 30
0.0
  0
VERTEX
  5
20EE
  8
SCAN
 10
436.6596999999997024
 20
-256.9356999999999971
 30
0.0
  0
VERTEX
  5
20EF
  8
SCAN
 10
432.7627499999998122
 20
-256.7965500000000247
 30
0.0
  0
VERTEX
  5
20F0
  8
SCAN
 10
429.8399999999999181
 20
-257.3532500000000027
 30
0.0
  0
VERTEX
  5
20F1
  8
SCAN
 10
429.1440999999998098
 20
-257.2140499999998724
 30
0.0
  0
VERTEX
  5
20F2
  8
SCAN
 10
431.6492999999998119
 20
-255.4047499999998934
 30
0.0
  0
VERTEX
  5
20F3
  8
SCAN
 10
434.0153499999997848
 20
-254.1521500000000913
 30
0.0
  0
VERTEX
  5
20F4
  8
SCAN
 10
438.0514999999999191
 20
-252.8995500000000902
 30
0.0
  0
VERTEX
  5
20F5
  8
SCAN
 10
442.6443499999998039
 20
-252.8995500000000902
 30
0.0
  0
VERTEX
  5
20F6
  8
SCAN
 10
444.7320499999999015
 20
-253.4562500000000966
 30
0.0
  0
VERTEX
  5
20F7
  8
SCAN
 10
446.541349999999909
 20
-254.291300000000092
 30
0.0
  0
VERTEX
  5
20F8
  8
SCAN
 10
448.2114999999998872
 20
-255.4047499999998934
 30
0.0
  0
VERTEX
  5
20F9
  8
SCAN
 10
450.2991499999998837
 20
-257.4923999999999751
 30
0.0
  0
VERTEX
  5
20FA
  8
SCAN
 10
451.6909499999997024
 20
-259.8584499999998911
 30
0.0
  0
VERTEX
  5
20FB
  8
SCAN
 10
451.9692999999998051
 20
-260.6934999999999718
 30
0.0
  0
VERTEX
  5
20FC
  8
SCAN
 10
451.8300999999999021
 20
-260.9718500000000176
 30
0.0
  0
VERTEX
  5
20FD
  8
SCAN
 10
449.1857499999999277
 20
-258.0491499999998837
 30
0.0
  0
VERTEX
  5
20FE
  8
SCAN
 10
446.541349999999909
 20
-256.3790000000000191
 30
0.0
  0
VERTEX
  5
20FF
  8
SCAN
 10
442.5051999999997747
 20
-255.1264000000001033
 30
0.0
  0
VERTEX
  5
2100
  8
SCAN
 10
438.8865499999997724
 20
-254.9872000000000867
 30
0.0
  0
VERTEX
  5
2101
  8
SCAN
 10
441.9484999999997967
 20
-255.9614500000000987
 30
0.0
  0
VERTEX
  5
2102
  8
SCAN
 10
444.592849999999828
 20
-257.631599999999878
 30
0.0
  0
VERTEX
  5
2103
  8
SCAN
 10
446.4021999999998229
 20
-259.4408999999998855
 30
0.0
  0
VERTEX
  5
2104
  8
SCAN
 10
447.3763999999998759
 20
-260.8326999999998748
 30
0.0
  0
VERTEX
  5
2105
  8
SCAN
 10
448.7681999999998084
 20
-264.1729500000000144
 30
0.0
  0
VERTEX
  5
2106
  8
SCAN
 10
449.3248999999997864
 20
-267.6524000000000001
 30
0.0
  0
VERTEX
  5
2107
  8
SCAN
 10
449.0465499999997974
 20
-272.5236499999999751
 30
0.0
  0
VERTEX
  5
2108
  8
SCAN
 10
447.6547999999999092
 20
-277.5340499999999793
 30
0.0
  0
VERTEX
  5
2109
  8
SCAN
 10
446.541349999999909
 20
-279.7608999999999924
 30
0.0
  0
VERTEX
  5
210A
  8
SCAN
 10
445.8454499999999143
 20
-280.5960000000000036
 30
0.0
  0
VERTEX
  5
210B
  8
SCAN
 10
444.1753499999998098
 20
-280.735149999999976
 30
0.0
  0
VERTEX
  5
210C
  8
SCAN
 10
442.5051999999997747
 20
-281.7093999999999028
 30
0.0
  0
VERTEX
  5
210D
  8
SCAN
 10
441.1133999999997855
 20
-280.4567999999998733
 30
0.0
  0
VERTEX
  5
210E
  8
SCAN
 10
440.8350499999999101
 20
-279.900100000000009
 30
0.0
  0
VERTEX
  5
210F
  8
SCAN
 10
440.5566999999998075
 20
-277.5340499999999793
 30
0.0
  0
VERTEX
  5
2110
  8
SCAN
 10
441.5309499999999048
 20
-272.5236499999999751
 30
0.0
  0
VERTEX
  5
2111
  8
SCAN
 10
441.5309499999999048
 20
-269.6009000000000242
 30
0.0
  0
VERTEX
  5
2112
  8
SCAN
 10
441.1133999999997855
 20
-268.069949999999892
 30
0.0
  0
VERTEX
  5
2113
  8
SCAN
 10
439.9999999999997726
 20
-266.1214499999999816
 30
0.0
  0
VERTEX
  5
2114
  8
SCAN
 10
437.9122999999997887
 20
-264.3121499999999742
 30
0.0
  0
VERTEX
  5
2115
  8
SCAN
 10
436.1029999999997813
 20
-263.6162499999999227
 30
0.0
  0
VERTEX
  5
2116
  8
SCAN
 10
434.432849999999803
 20
-263.3378999999999905
 30
0.0
  0
VERTEX
  5
2117
  8
SCAN
 10
431.2317499999998063
 20
-263.3378999999999905
 30
0.0
  0
VERTEX
  5
2118
  8
SCAN
 10
429.5616499999998155
 20
-263.6162499999999227
 30
0.0
  0
VERTEX
  5
2119
  8
SCAN
 10
427.0563999999998828
 20
-264.4512999999998897
 30
0.0
  0
VERTEX
  5
211A
  8
SCAN
 10
425.2470999999998185
 20
-265.4255499999998733
 30
0.0
  0
VERTEX
  5
211B
  8
SCAN
 10
423.4377999999996973
 20
-266.8173499999999763
 30
0.0
  0
VERTEX
  5
211C
  8
SCAN
 10
422.4635499999997137
 20
-268.069949999999892
 30
0.0
  0
VERTEX
  5
211D
  8
SCAN
 10
426.6388999999998077
 20
-267.2348999999999251
 30
0.0
  0
VERTEX
  5
211E
  8
SCAN
 10
429.8399999999999181
 20
-267.0957000000000221
 30
0.0
  0
VERTEX
  5
211F
  8
SCAN
 10
429.9791499999997768
 20
-267.2348999999999251
 30
0.0
  0
VERTEX
  5
2120
  8
SCAN
 10
428.3090499999998997
 20
-269.0441999999999894
 30
0.0
  0
VERTEX
  5
2121
  8
SCAN
 10
426.9172499999997967
 20
-271.1318499999999858
 30
0.0
  0
VERTEX
  5
2122
  8
SCAN
 10
425.9429999999999268
 20
-273.6370999999999754
 30
0.0
  0
VERTEX
  5
2123
  8
SCAN
 10
429.0048999999997932
 20
-271.5493999999999915
 30
0.0
  0
VERTEX
  5
2124
  8
SCAN
 10
432.2059999999999036
 20
-269.8792500000000132
 30
0.0
  0
VERTEX
  5
2125
  8
SCAN
 10
432.3451999999998066
 20
-270.018449999999973
 30
0.0
  0
VERTEX
  5
2126
  8
SCAN
 10
431.2317499999998063
 20
-271.9669499999999971
 30
0.0
  0
VERTEX
  5
2127
  8
SCAN
 10
430.1183499999999071
 20
-275.7247499999999718
 30
0.0
  0
VERTEX
  5
2128
  8
SCAN
 10
430.1183499999999071
 20
-278.2299499999999739
 30
0.0
  0
VERTEX
  5
2129
  8
SCAN
 10
431.6492999999998119
 20
-275.8639499999998748
 30
0.0
  0
VERTEX
  5
212A
  8
SCAN
 10
433.3194499999999039
 20
-274.1938000000000102
 30
0.0
  0
VERTEX
  5
212B
  8
SCAN
 10
435.1287499999997976
 20
-273.2195499999999129
 30
0.0
  0
VERTEX
  5
212C
  8
SCAN
 10
437.0772499999998786
 20
-273.0803499999998962
 30
0.0
  0
VERTEX
  5
212D
  8
SCAN
 10
437.3555999999998107
 20
-273.4979000000000156
 30
0.0
  0
VERTEX
  5
212E
  8
SCAN
 10
437.3555999999998107
 20
-278.5083000000000197
 30
0.0
  0
VERTEX
  5
212F
  8
SCAN
 10
438.1906499999997777
 20
-280.735149999999976
 30
0.0
  0
VERTEX
  5
2130
  8
SCAN
 10
440.4174999999999045
 20
-283.101199999999892
 30
0.0
  0
VERTEX
  5
2131
  8
SCAN
 10
443.201099999999883
 20
-284.9105000000000132
 30
0.0
  0
VERTEX
  5
2132
  8
SCAN
 10
444.871199999999817
 20
-285.4671999999998775
 30
0.0
  0
VERTEX
  5
2133
  8
SCAN
 10
445.7062999999997146
 20
-285.4671999999998775
 30
0.0
  0
VERTEX
  5
2134
  8
SCAN
 10
446.9588999999999146
 20
-284.0754499999998757
 30
0.0
  0
VERTEX
  5
2135
  8
SCAN
 10
448.7681999999998084
 20
-281.1526999999999816
 30
0.0
  0
VERTEX
  5
2136
  8
SCAN
 10
450.2991499999998837
 20
-277.9515999999999849
 30
0.0
  0
VERTEX
  5
2137
  8
SCAN
 10
451.4125999999998839
 20
-276.6989999999998986
 30
0.0
  0
VERTEX
  5
2138
  8
SCAN
 10
452.6651999999999134
 20
-276.1422999999999774
 30
0.0
  0
VERTEX
  5
2139
  8
SCAN
 10
454.0569499999998015
 20
-276.1422999999999774
 30
0.0
  0
VERTEX
  5
213A
  8
SCAN
 10
455.5879499999998075
 20
-276.9773500000000013
 30
0.0
  0
VERTEX
  5
213B
  8
SCAN
 10
455.4487499999999045
 20
-276.2814500000000066
 30
0.0
  0
VERTEX
  5
213C
  8
SCAN
 10
454.4744999999998072
 20
-275.1680499999999938
 30
0.0
  0
VERTEX
  5
213D
  8
SCAN
 10
456.4229999999998881
 20
-274.3329499999999825
 30
0.0
  0
VERTEX
  5
213E
  8
SCAN
 10
459.2065499999998224
 20
-271.5493999999999915
 30
0.0
  0
VERTEX
  5
213F
  8
SCAN
 10
459.3457499999997822
 20
-271.9669499999999971
 30
0.0
  0
VERTEX
  5
2140
  8
SCAN
 10
457.9539499999999066
 20
-279.62175000000002
 30
0.0
  0
VERTEX
  5
2141
  8
SCAN
 10
456.7013499999998203
 20
-283.7971000000000004
 30
0.0
  0
VERTEX
  5
2142
  8
SCAN
 10
455.8662999999999101
 20
-285.6064000000000078
 30
0.0
  0
VERTEX
  5
2143
  8
SCAN
 10
455.3095499999997742
 20
-286.0239500000000135
 30
0.0
  0
VERTEX
  5
2144
  8
SCAN
 10
453.3610999999999081
 20
-286.5806499999999915
 30
0.0
  0
VERTEX
  5
2145
  8
SCAN
 10
449.1857499999999277
 20
-286.9981500000000096
 30
0.0
  0
VERTEX
  5
2146
  8
SCAN
 10
451.9692999999998051
 20
-287.5548999999999751
 30
0.0
  0
SEQEND
  5
2147
  8
SCAN
  0
POLYLINE
  5
2F4
  8
SCAN
 66
     1
 10
0.0
 20
0.0
 30
0.0
 70
     1
  0
VERTEX
  5
2148
  8
SCAN
 10
456.7013499999998203
 20
-287.6940499999998906
 30
0.0
  0
VERTEX
  5
2149
  8
SCAN
 10
456.9796999999998093
 20
-287.5548999999999751
 30
0.0
  0
VERTEX
  5
214A
  8
SCAN
 10
457.536399999999901
 20
-286.3023000000000025
 30
0.0
  0
VERTEX
  5
214B
  8
SCAN
 10
459.0673999999999069
 20
-281.5702499999999873
 30
0.0
  0
VERTEX
  5
214C
  8
SCAN
 10
460.3199999999998795
 20
-275.8639499999998748
 30
0.0
  0
VERTEX
  5
214D
  8
SCAN
 10
460.8766999999999143
 20
-271.2710500000000025
 30
0.0
  0
VERTEX
  5
214E
  8
SCAN
 10
461.1550499999997896
 20
-270.9927000000000135
 30
0.0
  0
VERTEX
  5
214F
  8
SCAN
 10
461.9900999999998135
 20
-270.9927000000000135
 30
0.0
  0
VERTEX
  5
2150
  8
SCAN
 10
464.495349999999803
 20
-271.4102500000000759
 30
0.0
  0
VERTEX
  5
2151
  8
SCAN
 10
465.8870999999998048
 20
-271.9669500000001108
 30
0.0
  0
VERTEX
  5
2152
  8
SCAN
 10
466.1654499999999075
 20
-271.8277499999999804
 30
0.0
  0
VERTEX
  5
2153
  8
SCAN
 10
466.0262999999997078
 20
-270.2968000000000757
 30
0.0
  0
VERTEX
  5
2154
  8
SCAN
 10
465.6087499999997021
 20
-268.9049999999999727
 30
0.0
  0
VERTEX
  5
2155
  8
SCAN
 10
463.7994499999998084
 20
-266.2606499999998846
 30
0.0
  0
VERTEX
  5
2156
  8
SCAN
 10
462.4076499999998759
 20
-265.147199999999998
 30
0.0
  0
VERTEX
  5
2157
  8
SCAN
 10
461.7117499999998245
 20
-266.8173499999999763
 30
0.0
  0
VERTEX
  5
2158
  8
SCAN
 10
461.29424999999992
 20
-267.2348999999999251
 30
0.0
  0
VERTEX
  5
2159
  8
SCAN
 10
461.1550499999997896
 20
-267.0957000000000221
 30
0.0
  0
VERTEX
  5
215A
  8
SCAN
 10
461.4333999999997786
 20
-265.008049999999912
 30
0.0
  0
VERTEX
  5
215B
  8
SCAN
 10
461.29424999999992
 20
-261.3894000000000233
 30
0.0
  0
VERTEX
  5
215C
  8
SCAN
 10
464.2169499999998266
 20
-261.2502499999998804
 30
0.0
  0
VERTEX
  5
215D
  8
SCAN
 10
467.0005499999998051
 20
-261.667750000000126
 30
0.0
  0
VERTEX
  5
215E
  8
SCAN
 10
466.8613499999999021
 20
-259.8584499999998911
 30
0.0
  0
VERTEX
  5
215F
  8
SCAN
 10
465.8870999999998048
 20
-257.0749000000001274
 30
0.0
  0
VERTEX
  5
2160
  8
SCAN
 10
464.3561499999997864
 20
-254.5697000000000116
 30
0.0
  0
VERTEX
  5
2161
  8
SCAN
 10
461.1550499999997896
 20
-250.8118500000001063
 30
0.0
  0
VERTEX
  5
2162
  8
SCAN
 10
462.5468499999998926
 20
-248.5850000000000932
 30
0.0
  0
VERTEX
  5
2163
  8
SCAN
 10
463.3818999999999164
 20
-245.5231000000001131
 30
0.0
  0
VERTEX
  5
2164
  8
SCAN
 10
463.3818999999999164
 20
-240.9302500000000862
 30
0.0
  0
VERTEX
  5
2165
  8
SCAN
 10
462.9643499999999108
 20
-238.8425499999999886
 30
0.0
  0
VERTEX
  5
2166
  8
SCAN
 10
461.9900999999998135
 20
-236.4765500000000884
 30
0.0
  0
VERTEX
  5
2167
  8
SCAN
 10
460.3199999999998795
 20
-234.3888500000001045
 30
0.0
  0
VERTEX
  5
2168
  8
SCAN
 10
460.8766999999999143
 20
-234.2497000000001037
 30
0.0
  0
VERTEX
  5
2169
  8
SCAN
 10
462.8251999999998247
 20
-234.6672000000000935
 30
0.0
  0
VERTEX
  5
216A
  8
SCAN
 10
462.8251999999998247
 20
-205.7181499999998948
 30
0.0
  0
VERTEX
  5
216B
  8
SCAN
 10
451.4125999999998839
 20
-203.7697000000000003
 30
0.0
  0
VERTEX
  5
216C
  8
SCAN
 10
451.4125999999998839
 20
-207.249149999999986
 30
0.0
  0
VERTEX
  5
216D
  8
SCAN
 10
451.1342499999997813
 20
-207.3882999999999868
 30
0.0
  0
VERTEX
  5
216E
  8
SCAN
 10
430.2574999999998795
 20
-203.6305000000000973
 30
0.0
  0
VERTEX
  5
216F
  8
SCAN
 10
429.4224499999999125
 20
-203.2129500000000917
 30
0.0
  0
VERTEX
  5
2170
  8
SCAN
 10
429.2832499999998959
 20
-199.0376500000000135
 30
0.0
  0
VERTEX
  5
2171
  8
SCAN
 10
419.8191499999998086
 20
-197.3675000000000068
 30
0.0
  0
VERTEX
  5
2172
  8
SCAN
 10
418.844899999999825
 20
-200.1510500000001116
 30
0.0
  0
VERTEX
  5
2173
  8
SCAN
 10
418.2881999999999039
 20
-203.3521499999999946
 30
0.0
  0
VERTEX
  5
2174
  8
SCAN
 10
418.5665499999997792
 20
-207.3882999999999868
 30
0.0
  0
VERTEX
  5
2175
  8
SCAN
 10
419.123249999999814
 20
-209.1976500000000954
 30
0.0
  0
VERTEX
  5
2176
  8
SCAN
 10
419.8191499999998086
 20
-210.3110499999999945
 30
0.0
  0
VERTEX
  5
2177
  8
SCAN
 10
418.4273999999998068
 20
-215.3214499999999987
 30
0.0
  0
VERTEX
  5
2178
  8
SCAN
 10
418.4273999999998068
 20
-219.7751500000001101
 30
0.0
  0
VERTEX
  5
2179
  8
SCAN
 10
418.844899999999825
 20
-221.584500000000105
 30
0.0
  0
VERTEX
  5
217A
  8
SCAN
 10
420.0974999999997976
 20
-224.0896999999999935
 30
0.0
  0
VERTEX
  5
217B
  8
SCAN
 10
421.9068499999997925
 20
-225.8990000000000862
 30
0.0
  0
VERTEX
  5
217C
  8
SCAN
 10
424.5511999999997101
 20
-227.4299500000001046
 30
0.0
  0
VERTEX
  5
217D
  8
SCAN
 10
422.8810999999997762
 20
-228.1258500000000993
 30
0.0
  0
VERTEX
  5
217E
  8
SCAN
 10
421.4892999999999006
 20
-229.1000999999999976
 30
0.0
  0
VERTEX
  5
217F
  8
SCAN
 10
419.8191499999998086
 20
-231.1877499999999941
 30
0.0
  0
VERTEX
  5
2180
  8
SCAN
 10
419.123249999999814
 20
-232.7187000000000978
 30
0.0
  0
VERTEX
  5
2181
  8
SCAN
 10
418.5665499999997792
 20
-234.9455499999999972
 30
0.0
  0
VERTEX
  5
2182
  8
SCAN
 10
418.2881999999999039
 20
-237.3115999999999985
 30
0.0
  0
VERTEX
  5
2183
  8
SCAN
 10
418.2881999999999039
 20
-241.6261000000000934
 30
0.0
  0
VERTEX
  5
2184
  8
SCAN
 10
418.7057499999997958
 20
-246.3581499999999949
 30
0.0
  0
VERTEX
  5
2185
  8
SCAN
 10
418.9840999999998985
 20
-247.3324000000000922
 30
0.0
  0
VERTEX
  5
2186
  8
SCAN
 10
426.7780499999997801
 20
-248.5850000000000932
 30
0.0
  0
VERTEX
  5
2187
  8
SCAN
 10
426.9172499999997967
 20
-248.8634000000000981
 30
0.0
  0
VERTEX
  5
2188
  8
SCAN
 10
424.1336999999998056
 20
-251.5077499999999873
 30
0.0
  0
VERTEX
  5
2189
  8
SCAN
 10
421.3500999999998271
 20
-254.9872000000000867
 30
0.0
  0
VERTEX
  5
218A
  8
SCAN
 10
418.844899999999825
 20
-259.0233999999999241
 30
0.0
  0
VERTEX
  5
218B
  8
SCAN
 10
416.2005499999999074
 20
-264.868850000000009
 30
0.0
  0
VERTEX
  5
218C
  8
SCAN
 10
418.0098499999998012
 20
-268.7658500000000004
 30
0.0
  0
VERTEX
  5
218D
  8
SCAN
 10
420.3758999999997741
 20
-272.9411999999999807
 30
0.0
  0
VERTEX
  5
218E
  8
SCAN
 10
423.0202499999998054
 20
-276.6989999999998986
 30
0.0
  0
VERTEX
  5
218F
  8
SCAN
 10
424.6903999999997836
 20
-278.6474999999999227
 30
0.0
  0
VERTEX
  5
2190
  8
SCAN
 10
427.4739499999997747
 20
-281.2918499999998971
 30
0.0
  0
VERTEX
  5
2191
  8
SCAN
 10
430.2574999999998795
 20
-283.2403499999999212
 30
0.0
  0
VERTEX
  5
2192
  8
SCAN
 10
432.9018999999997845
 20
-284.3537999999999784
 30
0.0
  0
VERTEX
  5
2193
  8
SCAN
 10
435.1287499999997976
 20
-284.6321500000000242
 30
0.0
  0
VERTEX
  5
2194
  8
SCAN
 10
433.7369499999998084
 20
-284.2146000000000186
 30
0.0
  0
VERTEX
  5
2195
  8
SCAN
 10
430.5358999999999128
 20
-282.4053000000000111
 30
0.0
  0
VERTEX
  5
2196
  8
SCAN
 10
428.4481999999997015
 20
-280.735149999999976
 30
0.0
  0
VERTEX
  5
2197
  8
SCAN
 10
425.9429999999999268
 20
-278.2299499999999739
 30
0.0
  0
VERTEX
  5
2198
  8
SCAN
 10
422.1851999999998952
 20
-273.2195499999999129
 30
0.0
  0
VERTEX
  5
2199
  8
SCAN
 10
420.2366999999998143
 20
-269.8792500000000132
 30
0.0
  0
VERTEX
  5
219A
  8
SCAN
 10
417.8706499999997845
 20
-264.868850000000009
 30
0.0
  0
VERTEX
  5
219B
  8
SCAN
 10
420.6542499999998199
 20
-262.9203499999999849
 30
0.0
  0
VERTEX
  5
219C
  8
SCAN
 10
423.159449999999822
 20
-261.6677500000000123
 30
0.0
  0
VERTEX
  5
219D
  8
SCAN
 10
426.7780499999997801
 20
-260.415149999999926
 30
0.0
  0
VERTEX
  5
219E
  8
SCAN
 10
430.9533999999998173
 20
-259.7192499999999882
 30
0.0
  0
VERTEX
  5
219F
  8
SCAN
 10
435.6854499999997756
 20
-259.8584499999998911
 30
0.0
  0
VERTEX
  5
21A0
  8
SCAN
 10
439.7216499999997836
 20
-260.9718500000000176
 30
0.0
  0
VERTEX
  5
21A1
  8
SCAN
 10
442.5051999999997747
 20
-262.6419999999998822
 30
0.0
  0
VERTEX
  5
21A2
  8
SCAN
 10
444.7320499999999015
 20
-265.008049999999912
 30
0.0
  0
VERTEX
  5
21A3
  8
SCAN
 10
446.541349999999909
 20
-268.6266499999999269
 30
0.0
  0
VERTEX
  5
21A4
  8
SCAN
 10
446.6805499999998119
 20
-266.1214499999999816
 30
0.0
  0
VERTEX
  5
21A5
  8
SCAN
 10
446.1237999999997896
 20
-263.7554499999999962
 30
0.0
  0
VERTEX
  5
21A6
  8
SCAN
 10
444.871199999999817
 20
-261.5285999999999831
 30
0.0
  0
VERTEX
  5
21A7
  8
SCAN
 10
443.7577999999998042
 20
-260.2759999999998968
 30
0.0
  0
VERTEX
  5
21A8
  8
SCAN
 10
442.3659999999998149
 20
-259.1625500000000102
 30
0.0
  0
VERTEX
  5
21A9
  8
SCAN
 10
439.7216499999997836
 20
-257.7708000000000084
 30
0.0
  0
VERTEX
  5
21AA
  8
SCAN
 10
436.6596999999997024
 20
-256.9356999999999971
 30
0.0
  0
VERTEX
  5
21AB
  8
SCAN
 10
432.7627499999998122
 20
-256.7965500000000247
 30
0.0
  0
VERTEX
  5
21AC
  8
SCAN
 10
430.5358999999999128
 20
-257.0749000000000137
 30
0.0
  0
VERTEX
  5
21AD
  8
SCAN
 10
429.8399999999999181
 20
-257.3532500000000027
 30
0.0
  0
VERTEX
  5
21AE
  8
SCAN
 10
429.1440999999998098
 20
-257.2140499999998724
 30
0.0
  0
VERTEX
  5
21AF
  8
SCAN
 10
431.6492999999998119
 20
-255.4047499999998934
 30
0.0
  0
VERTEX
  5
21B0
  8
SCAN
 10
434.0153499999997848
 20
-254.1521500000000913
 30
0.0
  0
VERTEX
  5
21B1
  8
SCAN
 10
438.0514999999999191
 20
-252.8995500000000902
 30
0.0
  0
VERTEX
  5
21B2
  8
SCAN
 10
442.6443499999998039
 20
-252.8995500000000902
 30
0.0
  0
VERTEX
  5
21B3
  8
SCAN
 10
444.7320499999999015
 20
-253.4562500000000966
 30
0.0
  0
VERTEX
  5
21B4
  8
SCAN
 10
446.541349999999909
 20
-254.291300000000092
 30
0.0
  0
VERTEX
  5
21B5
  8
SCAN
 10
448.2114999999998872
 20
-255.4047499999998934
 30
0.0
  0
VERTEX
  5
21B6
  8
SCAN
 10
450.2991499999998837
 20
-257.4923999999999751
 30
0.0
  0
VERTEX
  5
21B7
  8
SCAN
 10
451.6909499999997024
 20
-259.8584499999998911
 30
0.0
  0
VERTEX
  5
21B8
  8
SCAN
 10
451.9692999999998051
 20
-260.6934999999999718
 30
0.0
  0
VERTEX
  5
21B9
  8
SCAN
 10
451.8300999999999021
 20
-260.9718500000000176
 30
0.0
  0
VERTEX
  5
21BA
  8
SCAN
 10
449.1857499999999277
 20
-258.0491499999998837
 30
0.0
  0
VERTEX
  5
21BB
  8
SCAN
 10
446.541349999999909
 20
-256.3790000000000191
 30
0.0
  0
VERTEX
  5
21BC
  8
SCAN
 10
442.5051999999997747
 20
-255.1264000000001033
 30
0.0
  0
VERTEX
  5
21BD
  8
SCAN
 10
438.8865499999997724
 20
-254.9872000000000867
 30
0.0
  0
VERTEX
  5
21BE
  8
SCAN
 10
441.9484999999997967
 20
-255.9614500000000987
 30
0.0
  0
VERTEX
  5
21BF
  8
SCAN
 10
444.592849999999828
 20
-257.631599999999878
 30
0.0
  0
VERTEX
  5
21C0
  8
SCAN
 10
446.4021999999998229
 20
-259.4408999999998855
 30
0.0
  0
VERTEX
  5
21C1
  8
SCAN
 10
447.3763999999998759
 20
-260.8326999999998748
 30
0.0
  0
VERTEX
  5
21C2
  8
SCAN
 10
448.7681999999998084
 20
-264.1729500000000144
 30
0.0
  0
VERTEX
  5
21C3
  8
SCAN
 10
449.3248999999997864
 20
-267.6524000000000001
 30
0.0
  0
VERTEX
  5
21C4
  8
SCAN
 10
449.0465499999997974
 20
-272.5236499999999751
 30
0.0
  0
VERTEX
  5
21C5
  8
SCAN
 10
447.6547999999999092
 20
-277.5340499999999793
 30
0.0
  0
VERTEX
  5
21C6
  8
SCAN
 10
446.541349999999909
 20
-279.7608999999999924
 30
0.0
  0
VERTEX
  5
21C7
  8
SCAN
 10
445.8454499999999143
 20
-280.5960000000000036
 30
0.0
  0
VERTEX
  5
21C8
  8
SCAN
 10
444.1753499999998098
 20
-280.735149999999976
 30
0.0
  0
VERTEX
  5
21C9
  8
SCAN
 10
442.5051999999997747
 20
-281.7093999999999028
 30
0.0
  0
VERTEX
  5
21CA
  8
SCAN
 10
441.1133999999997855
 20
-280.4567999999998733
 30
0.0
  0
VERTEX
  5
21CB
  8
SCAN
 10
440.5566999999998075
 20
-278.7866500000000087
 30
0.0
  0
VERTEX
  5
21CC
  8
SCAN
 10
440.5566999999998075
 20
-277.5340499999999793
 30
0.0
  0
VERTEX
  5
21CD
  8
SCAN
 10
441.5309499999999048
 20
-272.5236499999999751
 30
0.0
  0
VERTEX
  5
21CE
  8
SCAN
 10
441.5309499999999048
 20
-269.6009000000000242
 30
0.0
  0
VERTEX
  5
21CF
  8
SCAN
 10
441.1133999999997855
 20
-268.069949999999892
 30
0.0
  0
VERTEX
  5
21D0
  8
SCAN
 10
439.9999999999997726
 20
-266.1214499999999816
 30
0.0
  0
VERTEX
  5
21D1
  8
SCAN
 10
437.9122999999997887
 20
-264.3121499999999742
 30
0.0
  0
VERTEX
  5
21D2
  8
SCAN
 10
436.1029999999997813
 20
-263.6162499999999227
 30
0.0
  0
VERTEX
  5
21D3
  8
SCAN
 10
434.432849999999803
 20
-263.3378999999999905
 30
0.0
  0
VERTEX
  5
21D4
  8
SCAN
 10
431.2317499999998063
 20
-263.3378999999999905
 30
0.0
  0
VERTEX
  5
21D5
  8
SCAN
 10
429.5616499999998155
 20
-263.6162499999999227
 30
0.0
  0
VERTEX
  5
21D6
  8
SCAN
 10
427.0563999999998828
 20
-264.4512999999998897
 30
0.0
  0
VERTEX
  5
21D7
  8
SCAN
 10
425.2470999999998185
 20
-265.4255499999998733
 30
0.0
  0
VERTEX
  5
21D8
  8
SCAN
 10
423.4377999999996973
 20
-266.8173499999999763
 30
0.0
  0
VERTEX
  5
21D9
  8
SCAN
 10
422.4635499999997137
 20
-268.069949999999892
 30
0.0
  0
VERTEX
  5
21DA
  8
SCAN
 10
426.6388999999998077
 20
-267.2348999999999251
 30
0.0
  0
VERTEX
  5
21DB
  8
SCAN
 10
429.8399999999999181
 20
-267.0957000000000221
 30
0.0
  0
VERTEX
  5
21DC
  8
SCAN
 10
429.9791499999997768
 20
-267.2348999999999251
 30
0.0
  0
VERTEX
  5
21DD
  8
SCAN
 10
428.3090499999998997
 20
-269.0441999999999894
 30
0.0
  0
VERTEX
  5
21DE
  8
SCAN
 10
426.9172499999997967
 20
-271.1318499999999858
 30
0.0
  0
VERTEX
  5
21DF
  8
SCAN
 10
425.9429999999999268
 20
-273.6370999999999754
 30
0.0
  0
VERTEX
  5
21E0
  8
SCAN
 10
426.2213499999998021
 20
-273.6370999999999754
 30
0.0
  0
VERTEX
  5
21E1
  8
SCAN
 10
429.0048999999997932
 20
-271.5493999999999915
 30
0.0
  0
VERTEX
  5
21E2
  8
SCAN
 10
432.2059999999999036
 20
-269.8792500000000132
 30
0.0
  0
VERTEX
  5
21E3
  8
SCAN
 10
432.3451999999998066
 20
-270.018449999999973
 30
0.0
  0
VERTEX
  5
21E4
  8
SCAN
 10
431.2317499999998063
 20
-271.9669499999999971
 30
0.0
  0
VERTEX
  5
21E5
  8
SCAN
 10
430.5358999999999128
 20
-273.9154500000000212
 30
0.0
  0
VERTEX
  5
21E6
  8
SCAN
 10
430.1183499999999071
 20
-275.7247499999999718
 30
0.0
  0
VERTEX
  5
21E7
  8
SCAN
 10
430.1183499999999071
 20
-278.2299499999999739
 30
0.0
  0
VERTEX
  5
21E8
  8
SCAN
 10
431.6492999999998119
 20
-275.8639499999998748
 30
0.0
  0
VERTEX
  5
21E9
  8
SCAN
 10
433.3194499999999039
 20
-274.1938000000000102
 30
0.0
  0
VERTEX
  5
21EA
  8
SCAN
 10
435.1287499999997976
 20
-273.2195499999999129
 30
0.0
  0
VERTEX
  5
21EB
  8
SCAN
 10
437.0772499999998786
 20
-273.0803499999998962
 30
0.0
  0
VERTEX
  5
21EC
  8
SCAN
 10
437.3555999999998107
 20
-273.4979000000000156
 30
0.0
  0
VERTEX
  5
21ED
  8
SCAN
 10
437.3555999999998107
 20
-278.5083000000000197
 30
0.0
  0
VERTEX
  5
21EE
  8
SCAN
 10
438.1906499999997777
 20
-280.735149999999976
 30
0.0
  0
VERTEX
  5
21EF
  8
SCAN
 10
440.4174999999999045
 20
-283.101199999999892
 30
0.0
  0
VERTEX
  5
21F0
  8
SCAN
 10
443.201099999999883
 20
-284.9105000000000132
 30
0.0
  0
VERTEX
  5
21F1
  8
SCAN
 10
444.871199999999817
 20
-285.4671999999998775
 30
0.0
  0
VERTEX
  5
21F2
  8
SCAN
 10
445.7062999999997146
 20
-285.4671999999998775
 30
0.0
  0
VERTEX
  5
21F3
  8
SCAN
 10
446.9588999999999146
 20
-284.0754499999998757
 30
0.0
  0
VERTEX
  5
21F4
  8
SCAN
 10
448.7681999999998084
 20
-281.1526999999999816
 30
0.0
  0
VERTEX
  5
21F5
  8
SCAN
 10
450.2991499999998837
 20
-277.9515999999999849
 30
0.0
  0
VERTEX
  5
21F6
  8
SCAN
 10
451.4125999999998839
 20
-276.6989999999998986
 30
0.0
  0
VERTEX
  5
21F7
  8
SCAN
 10
452.6651999999999134
 20
-276.1422999999999774
 30
0.0
  0
VERTEX
  5
21F8
  8
SCAN
 10
454.0569499999998015
 20
-276.1422999999999774
 30
0.0
  0
VERTEX
  5
21F9
  8
SCAN
 10
455.5879499999998075
 20
-276.9773500000000013
 30
0.0
  0
VERTEX
  5
21FA
  8
SCAN
 10
455.4487499999999045
 20
-276.2814500000000066
 30
0.0
  0
VERTEX
  5
21FB
  8
SCAN
 10
454.4744999999998072
 20
-275.1680499999999938
 30
0.0
  0
VERTEX
  5
21FC
  8
SCAN
 10
456.4229999999998881
 20
-274.3329499999999825
 30
0.0
  0
VERTEX
  5
21FD
  8
SCAN
 10
459.2065499999998224
 20
-271.5493999999999915
 30
0.0
  0
VERTEX
  5
21FE
  8
SCAN
 10
459.3457499999997822
 20
-271.9669499999999971
 30
0.0
  0
VERTEX
  5
21FF
  8
SCAN
 10
458.9281999999997765
 20
-274.8896999999998911
 30
0.0
  0
VERTEX
  5
2200
  8
SCAN
 10
457.9539499999999066
 20
-279.62175000000002
 30
0.0
  0
VERTEX
  5
2201
  8
SCAN
 10
456.7013499999998203
 20
-283.7971000000000004
 30
0.0
  0
VERTEX
  5
2202
  8
SCAN
 10
455.8662999999999101
 20
-285.6064000000000078
 30
0.0
  0
VERTEX
  5
2203
  8
SCAN
 10
455.3095499999997742
 20
-286.0239500000000135
 30
0.0
  0
VERTEX
  5
2204
  8
SCAN
 10
453.3610999999999081
 20
-286.5806499999999915
 30
0.0
  0
VERTEX
  5
2205
  8
SCAN
 10
450.8558999999997923
 20
-286.9981500000000096
 30
0.0
  0
VERTEX
  5
2206
  8
SCAN
 10
449.1857499999999277
 20
-286.9981500000000096
 30
0.0
  0
VERTEX
  5
2207
  8
SCAN
 10
451.9692999999998051
 20
-287.5548999999999751
 30
0.0
  0
SEQEND
  5
2208
  8
SCAN
  0
POLYLINE
  5
2F5
  8
SCAN
 66
     1
 10
0.0
 20
0.0
 30
0.0
 70
     1
  0
VERTEX
  5
2209
  8
SCAN
 10
453.0827499999999191
 20
-269.183400000000006
 30
0.0
  0
VERTEX
  5
220A
  8
SCAN
 10
453.3610999999999081
 20
-270.018449999999973
 30
0.0
  0
VERTEX
  5
220B
  8
SCAN
 10
452.8043499999997721
 20
-270.2968000000000188
 30
0.0
  0
VERTEX
  5
220C
  8
SCAN
 10
452.5259999999998968
 20
-270.018449999999973
 30
0.0
  0
VERTEX
  5
220D
  8
SCAN
 10
452.5259999999998968
 20
-269.4617499999998813
 30
0.0
  0
SEQEND
  5
220E
  8
SCAN
  0
POLYLINE
  5
2F6
  8
SCAN
 66
     1
 10
0.0
 20
0.0
 30
0.0
 70
     1
  0
VERTEX
  5
220F
  8
SCAN
 10
453.2218999999997777
 20
-266.6781499999999028
 30
0.0
  0
VERTEX
  5
2210
  8
SCAN
 10
453.3610999999999081
 20
-267.7916000000000167
 30
0.0
  0
VERTEX
  5
2211
  8
SCAN
 10
452.1084999999998217
 20
-268.6266499999999269
 30
0.0
  0
VERTEX
  5
2212
  8
SCAN
 10
451.6909499999997024
 20
-270.018449999999973
 30
0.0
  0
VERTEX
  5
2213
  8
SCAN
 10
451.2733999999999241
 20
-269.3225499999999784
 30
0.0
  0
VERTEX
  5
2214
  8
SCAN
 10
451.4125999999998839
 20
-267.9307999999999765
 30
0.0
  0
VERTEX
  5
2215
  8
SCAN
 10
452.6651999999999134
 20
-266.6781499999999028
 30
0.0
  0
SEQEND
  5
2216
  8
SCAN
  0
POLYLINE
  5
2F7
  8
SCAN
 66
     1
 10
0.0
 20
0.0
 30
0.0
 70
     1
  0
VERTEX
  5
2217
  8
SCAN
 10
456.1446499999997855
 20
-263.1986999999999739
 30
0.0
  0
VERTEX
  5
2218
  8
SCAN
 10
456.2837999999998146
 20
-269.4617499999998813
 30
0.0
  0
VERTEX
  5
2219
  8
SCAN
 10
456.0054499999998256
 20
-270.8534999999998831
 30
0.0
  0
VERTEX
  5
221A
  8
SCAN
 10
455.4487499999999045
 20
-271.9669499999999971
 30
0.0
  0
VERTEX
  5
221B
  8
SCAN
 10
454.7528499999999099
 20
-272.662849999999878
 30
0.0
  0
VERTEX
  5
221C
  8
SCAN
 10
454.0569499999998015
 20
-273.0803499999998962
 30
0.0
  0
VERTEX
  5
221D
  8
SCAN
 10
453.2218999999997777
 20
-273.2195499999999129
 30
0.0
  0
VERTEX
  5
221E
  8
SCAN
 10
453.0827499999999191
 20
-273.0803499999998962
 30
0.0
  0
VERTEX
  5
221F
  8
SCAN
 10
453.7785999999998126
 20
-272.5236499999999751
 30
0.0
  0
VERTEX
  5
2220
  8
SCAN
 10
454.6136999999998238
 20
-270.8534999999998831
 30
0.0
  0
VERTEX
  5
2221
  8
SCAN
 10
454.7528499999999099
 20
-266.1214499999999816
 30
0.0
  0
VERTEX
  5
2222
  8
SCAN
 10
455.3095499999997742
 20
-264.0337999999999283
 30
0.0
  0
SEQEND
  5
2223
  8
SCAN
  0
POLYLINE
  5
2F8
  8
SCAN
 66
     1
 10
0.0
 20
0.0
 30
0.0
 70
     1
  0
VERTEX
  5
2224
  8
SCAN
 10
460.180799999999806
 20
-231.3269500000000107
 30
0.0
  0
VERTEX
  5
2225
  8
SCAN
 10
458.7890499999998042
 20
-231.3269500000000107
 30
0.0
  0
VERTEX
  5
2226
  8
SCAN
 10
428.587399999999775
 20
-225.8990000000000862
 30
0.0
  0
VERTEX
  5
2227
  8
SCAN
 10
425.5254499999998075
 20
-224.9247499999999889
 30
0.0
  0
VERTEX
  5
2228
  8
SCAN
 10
423.5769499999997834
 20
-223.8113000000001023
 30
0.0
  0
VERTEX
  5
2229
  8
SCAN
 10
422.1851999999998952
 20
-222.4195499999999868
 30
0.0
  0
VERTEX
  5
222A
  8
SCAN
 10
421.4892999999999006
 20
-221.1669500000000994
 30
0.0
  0
VERTEX
  5
222B
  8
SCAN
 10
420.9325999999998089
 20
-218.8009000000000128
 30
0.0
  0
VERTEX
  5
222C
  8
SCAN
 10
420.9325999999998089
 20
-216.295700000000096
 30
0.0
  0
VERTEX
  5
222D
  8
SCAN
 10
421.4892999999999006
 20
-213.651299999999992
 30
0.0
  0
VERTEX
  5
222E
  8
SCAN
 10
421.9068499999997925
 20
-213.5121499999999912
 30
0.0
  0
VERTEX
  5
222F
  8
SCAN
 10
426.4996999999999048
 20
-214.3471999999999866
 30
0.0
  0
VERTEX
  5
2230
  8
SCAN
 10
426.7780499999997801
 20
-216.8524000000001024
 30
0.0
  0
VERTEX
  5
2231
  8
SCAN
 10
427.1955999999998994
 20
-217.826650000000086
 30
0.0
  0
VERTEX
  5
2232
  8
SCAN
 10
428.587399999999775
 20
-218.9401000000000863
 30
0.0
  0
VERTEX
  5
2233
  8
SCAN
 10
431.6492999999998119
 20
-219.7751500000001101
 30
0.0
  0
VERTEX
  5
2234
  8
SCAN
 10
454.0569499999998015
 20
-223.6721500000001015
 30
0.0
  0
VERTEX
  5
2235
  8
SCAN
 10
454.1961499999998182
 20
-220.0535000000000991
 30
0.0
  0
VERTEX
  5
2236
  8
SCAN
 10
460.0416499999997768
 20
-221.0277500000001112
 30
0.0
  0
SEQEND
  5
2237
  8
SCAN
  0
POLYLINE
  5
2F9
  8
SCAN
 66
     1
 10
0.0
 20
0.0
 30
0.0
 70
     1
  0
VERTEX
  5
2238
  8
SCAN
 10
460.180799999999806
 20
-218.2442000000000917
 30
0.0
  0
VERTEX
  5
2239
  8
SCAN
 10
460.0416499999997768
 20
-218.3833999999999946
 30
0.0
  0
VERTEX
  5
223A
  8
SCAN
 10
431.6492999999998119
 20
-213.3729500000000883
 30
0.0
  0
VERTEX
  5
223B
  8
SCAN
 10
427.3347999999998024
 20
-212.398699999999991
 30
0.0
  0
VERTEX
  5
223C
  8
SCAN
 10
425.107949999999903
 20
-211.5636499999999955
 30
0.0
  0
VERTEX
  5
223D
  8
SCAN
 10
423.8553499999998735
 20
-210.8677500000000862
 30
0.0
  0
VERTEX
  5
223E
  8
SCAN
 10
422.324349999999697
 20
-209.4759999999999991
 30
0.0
  0
VERTEX
  5
223F
  8
SCAN
 10
421.7676499999997759
 20
-208.6409000000001015
 30
0.0
  0
VERTEX
  5
2240
  8
SCAN
 10
421.2109499999999116
 20
-207.1099499999999978
 30
0.0
  0
VERTEX
  5
2241
  8
SCAN
 10
420.9325999999998089
 20
-205.579000000000093
 30
0.0
  0
VERTEX
  5
2242
  8
SCAN
 10
420.9325999999998089
 20
-203.0738000000000909
 30
0.0
  0
VERTEX
  5
2243
  8
SCAN
 10
421.4892999999999006
 20
-200.5686000000000888
 30
0.0
  0
VERTEX
  5
2244
  8
SCAN
 10
422.4635499999997137
 20
-200.4294000000001006
 30
0.0
  0
VERTEX
  5
2245
  8
SCAN
 10
426.3605499999997051
 20
-201.1252999999998963
 30
0.0
  0
VERTEX
  5
2246
  8
SCAN
 10
426.6388999999998077
 20
-201.403649999999999
 30
0.0
  0
VERTEX
  5
2247
  8
SCAN
 10
426.7780499999997801
 20
-203.6305000000000973
 30
0.0
  0
VERTEX
  5
2248
  8
SCAN
 10
427.0563999999998828
 20
-204.4655500000000927
 30
0.0
  0
VERTEX
  5
2249
  8
SCAN
 10
427.6131499999997914
 20
-205.1614500000000874
 30
0.0
  0
VERTEX
  5
224A
  8
SCAN
 10
428.7265499999998042
 20
-205.8573499999999967
 30
0.0
  0
VERTEX
  5
224B
  8
SCAN
 10
432.0668499999998744
 20
-206.6924000000001058
 30
0.0
  0
VERTEX
  5
224C
  8
SCAN
 10
439.9999999999997726
 20
-207.9449999999999932
 30
0.0
  0
VERTEX
  5
224D
  8
SCAN
 10
453.3610999999999081
 20
-210.4502500000000964
 30
0.0
  0
VERTEX
  5
224E
  8
SCAN
 10
454.0569499999998015
 20
-210.4502500000000964
 30
0.0
  0
VERTEX
  5
224F
  8
SCAN
 10
454.1961499999998182
 20
-206.831600000000094
 30
0.0
  0
VERTEX
  5
2250
  8
SCAN
 10
460.0416499999997768
 20
-207.9449999999999932
 30
0.0
  0
SEQEND
  5
2251
  8
SCAN
  0
POLYLINE
  5
2FA
  8
SCAN
 66
     1
 10
0.0
 20
0.0
 30
0.0
 70
     1
  0
VERTEX
  5
2252
  8
SCAN
 10
460.459149999999795
 20
-246.6365500000001134
 30
0.0
  0
VERTEX
  5
2253
  8
SCAN
 10
459.7632499999999141
 20
-248.1674999999999898
 30
0.0
  0
VERTEX
  5
2254
  8
SCAN
 10
458.9281999999997765
 20
-249.1417500000000871
 30
0.0
  0
VERTEX
  5
2255
  8
SCAN
 10
457.2580499999997983
 20
-250.1160000000000991
 30
0.0
  0
VERTEX
  5
2256
  8
SCAN
 10
456.1446499999997855
 20
-250.3943500000000029
 30
0.0
  0
VERTEX
  5
2257
  8
SCAN
 10
453.5002499999998804
 20
-250.5335000000000036
 30
0.0
  0
VERTEX
  5
2258
  8
SCAN
 10
447.6547999999999092
 20
-249.5592499999999916
 30
0.0
  0
VERTEX
  5
2259
  8
SCAN
 10
447.5155999999998926
 20
-243.2962499999999864
 30
0.0
  0
VERTEX
  5
225A
  8
SCAN
 10
448.2114999999998872
 20
-243.1571000000000993
 30
0.0
  0
VERTEX
  5
225B
  8
SCAN
 10
452.2476499999997941
 20
-243.9921500000000094
 30
0.0
  0
VERTEX
  5
225C
  8
SCAN
 10
454.7528499999999099
 20
-244.2705000000001121
 30
0.0
  0
VERTEX
  5
225D
  8
SCAN
 10
455.0311999999997852
 20
-243.713799999999992
 30
0.0
  0
VERTEX
  5
225E
  8
SCAN
 10
455.0311999999997852
 20
-242.0436500000000137
 30
0.0
  0
VERTEX
  5
225F
  8
SCAN
 10
454.6136999999998238
 20
-241.3477499999999907
 30
0.0
  0
VERTEX
  5
2260
  8
SCAN
 10
453.9177999999997724
 20
-240.9302500000000862
 30
0.0
  0
VERTEX
  5
2261
  8
SCAN
 10
451.8300999999999021
 20
-240.3735000000000923
 30
0.0
  0
VERTEX
  5
2262
  8
SCAN
 10
429.8399999999999181
 20
-236.6157000000000892
 30
0.0
  0
VERTEX
  5
2263
  8
SCAN
 10
428.0306499999999232
 20
-236.7548999999999921
 30
0.0
  0
VERTEX
  5
2264
  8
SCAN
 10
427.6131499999997914
 20
-237.0332500000000948
 30
0.0
  0
VERTEX
  5
2265
  8
SCAN
 10
427.3347999999998024
 20
-237.5899499999999875
 30
0.0
  0
VERTEX
  5
2266
  8
SCAN
 10
427.0563999999998828
 20
-238.9817499999998915
 30
0.0
  0
VERTEX
  5
2267
  8
SCAN
 10
427.0563999999998828
 20
-245.8014499999999884
 30
0.0
  0
VERTEX
  5
2268
  8
SCAN
 10
426.2213499999998021
 20
-245.9406500000000051
 30
0.0
  0
VERTEX
  5
2269
  8
SCAN
 10
421.4892999999999006
 20
-245.1055500000001075
 30
0.0
  0
VERTEX
  5
226A
  8
SCAN
 10
421.2109499999999116
 20
-244.8272000000000901
 30
0.0
  0
VERTEX
  5
226B
  8
SCAN
 10
420.9325999999998089
 20
-242.0436500000000137
 30
0.0
  0
VERTEX
  5
226C
  8
SCAN
 10
420.9325999999998089
 20
-237.0332500000000948
 30
0.0
  0
VERTEX
  5
226D
  8
SCAN
 10
421.4892999999999006
 20
-233.9713000000000989
 30
0.0
  0
VERTEX
  5
226E
  8
SCAN
 10
422.324349999999697
 20
-232.1619999999998925
 30
0.0
  0
VERTEX
  5
226F
  8
SCAN
 10
423.4377999999996973
 20
-230.9094000000000904
 30
0.0
  0
VERTEX
  5
2270
  8
SCAN
 10
424.5511999999997101
 20
-230.2135000000000957
 30
0.0
  0
VERTEX
  5
2271
  8
SCAN
 10
426.6388999999998077
 20
-229.6568000000000893
 30
0.0
  0
VERTEX
  5
2272
  8
SCAN
 10
430.9533999999998173
 20
-229.796000000000106
 30
0.0
  0
VERTEX
  5
2273
  8
SCAN
 10
450.1599999999997976
 20
-233.1362499999999898
 30
0.0
  0
VERTEX
  5
2274
  8
SCAN
 10
453.9177999999997724
 20
-233.9713000000000989
 30
0.0
  0
VERTEX
  5
2275
  8
SCAN
 10
456.5621999999999048
 20
-234.9455499999999972
 30
0.0
  0
VERTEX
  5
2276
  8
SCAN
 10
458.0931499999998096
 20
-235.9198000000000945
 30
0.0
  0
VERTEX
  5
2277
  8
SCAN
 10
459.0673999999999069
 20
-236.8940499999999929
 30
0.0
  0
VERTEX
  5
2278
  8
SCAN
 10
459.9024499999997033
 20
-238.1466500000001076
 30
0.0
  0
VERTEX
  5
2279
  8
SCAN
 10
460.5983499999998116
 20
-240.2343500000000915
 30
0.0
  0
VERTEX
  5
227A
  8
SCAN
 10
460.8766999999999143
 20
-242.6003500000001054
 30
0.0
  0
VERTEX
  5
227B
  8
SCAN
 10
460.7374999999998977
 20
-245.5231000000001131
 30
0.0
  0
SEQEND
  5
227C
  8
SCAN
  0
POLYLINE
  5
2FB
  8
SCAN
 66
     1
 10
0.0
 20
0.0
 30
0.0
 70
     1
  0
VERTEX
  5
227D
  8
SCAN
 10
464.2169499999998266
 20
-258.6058499999999754
 30
0.0
  0
VERTEX
  5
227E
  8
SCAN
 10
463.7994499999998084
 20
-258.7450000000000045
 30
0.0
  0
VERTEX
  5
227F
  8
SCAN
 10
461.7117499999998245
 20
-258.1883000000000266
 30
0.0
  0
VERTEX
  5
2280
  8
SCAN
 10
459.6240999999998849
 20
-258.1883000000000266
 30
0.0
  0
VERTEX
  5
2281
  8
SCAN
 10
458.3714999999997985
 20
-256.7965500000000247
 30
0.0
  0
VERTEX
  5
2282
  8
SCAN
 10
461.0158999999998173
 20
-256.6573500000000081
 30
0.0
  0
VERTEX
  5
2283
  8
SCAN
 10
460.459149999999795
 20
-256.1006499999999733
 30
0.0
  0
VERTEX
  5
2284
  8
SCAN
 10
458.5106499999998846
 20
-254.9872000000000867
 30
0.0
  0
VERTEX
  5
2285
  8
SCAN
 10
456.9796999999998093
 20
-254.5697000000000116
 30
0.0
  0
VERTEX
  5
2286
  8
SCAN
 10
456.0054499999998256
 20
-254.5697000000000116
 30
0.0
  0
VERTEX
  5
2287
  8
SCAN
 10
454.4744999999998072
 20
-253.1779000000001076
 30
0.0
  0
VERTEX
  5
2288
  8
SCAN
 10
456.9796999999998093
 20
-253.038700000000091
 30
0.0
  0
VERTEX
  5
2289
  8
SCAN
 10
458.7890499999998042
 20
-253.4562500000000966
 30
0.0
  0
VERTEX
  5
228A
  8
SCAN
 10
460.3199999999998795
 20
-254.1521500000000913
 30
0.0
  0
VERTEX
  5
228B
  8
SCAN
 10
462.2684999999997899
 20
-255.6831000000001097
 30
0.0
  0
VERTEX
  5
228C
  8
SCAN
 10
463.3818999999999164
 20
-257.0749000000000137
 30
0.0
  0
SEQEND
  5
228D
  8
SCAN
  0
POLYLINE
  5
30A
  8
SCAN
 66
     1
 10
0.0
 20
0.0
 30
0.0
 70
     1
  0
VERTEX
  5
228E
  8
SCAN
 10
136.7013499999999055
 20
-288.9466499999999201
 30
0.0
  0
VERTEX
  5
228F
  8
SCAN
 10
136.9796999999998945
 20
-288.8075000000000045
 30
0.0
  0
VERTEX
  5
2290
  8
SCAN
 10
139.0673999999999069
 20
-282.8228500000000167
 30
0.0
  0
VERTEX
  5
2291
  8
SCAN
 10
140.3199999999999079
 20
-277.1165499999999042
 30
0.0
  0
VERTEX
  5
2292
  8
SCAN
 10
140.8766999999998859
 20
-272.5236499999999182
 30
0.0
  0
VERTEX
  5
2293
  8
SCAN
 10
141.1550499999999033
 20
-272.2452999999999861
 30
0.0
  0
VERTEX
  5
2294
  8
SCAN
 10
144.4953499999998883
 20
-272.662849999999878
 30
0.0
  0
VERTEX
  5
2295
  8
SCAN
 10
145.8870999999998901
 20
-273.2195499999999129
 30
0.0
  0
VERTEX
  5
2296
  8
SCAN
 10
146.1654499999999075
 20
-273.0803499999998962
 30
0.0
  0
VERTEX
  5
2297
  8
SCAN
 10
145.6087499999999011
 20
-270.1575999999998885
 30
0.0
  0
VERTEX
  5
2298
  8
SCAN
 10
143.7994499999998936
 20
-267.5132500000000277
 30
0.0
  0
VERTEX
  5
2299
  8
SCAN
 10
142.4076499999999044
 20
-266.3998000000000275
 30
0.0
  0
VERTEX
  5
229A
  8
SCAN
 10
141.7117499999999097
 20
-268.0699499999997784
 30
0.0
  0
VERTEX
  5
229B
  8
SCAN
 10
141.2942499999998915
 20
-268.4874999999998977
 30
0.0
  0
VERTEX
  5
229C
  8
SCAN
 10
141.1550499999999033
 20
-268.348299999999881
 30
0.0
  0
VERTEX
  5
229D
  8
SCAN
 10
141.4333999999998923
 20
-266.2606499999998277
 30
0.0
  0
VERTEX
  5
229E
  8
SCAN
 10
141.2942499999998915
 20
-262.6419999999998254
 30
0.0
  0
VERTEX
  5
229F
  8
SCAN
 10
144.2169499999999118
 20
-262.5028499999999099
 30
0.0
  0
VERTEX
  5
22A0
  8
SCAN
 10
147.0005499999998904
 20
-262.9203499999999281
 30
0.0
  0
VERTEX
  5
22A1
  8
SCAN
 10
146.8613499999999021
 20
-261.1110499999999206
 30
0.0
  0
VERTEX
  5
22A2
  8
SCAN
 10
145.8870999999998901
 20
-258.3274999999998727
 30
0.0
  0
VERTEX
  5
22A3
  8
SCAN
 10
144.3561499999999
 20
-255.8223000000000127
 30
0.0
  0
VERTEX
  5
22A4
  8
SCAN
 10
141.1550499999999033
 20
-252.0644499999999084
 30
0.0
  0
VERTEX
  5
22A5
  8
SCAN
 10
142.5468499999998926
 20
-249.8375999999998953
 30
0.0
  0
VERTEX
  5
22A6
  8
SCAN
 10
143.381899999999888
 20
-246.7757000000000005
 30
0.0
  0
VERTEX
  5
22A7
  8
SCAN
 10
143.381899999999888
 20
-242.182850000000002
 30
0.0
  0
VERTEX
  5
22A8
  8
SCAN
 10
142.9643499999999108
 20
-240.0951499999999896
 30
0.0
  0
VERTEX
  5
22A9
  8
SCAN
 10
141.9900999999998987
 20
-237.7291500000000042
 30
0.0
  0
VERTEX
  5
22AA
  8
SCAN
 10
140.3199999999999079
 20
-235.6414499999999919
 30
0.0
  0
VERTEX
  5
22AB
  8
SCAN
 10
140.8766999999998859
 20
-235.5022999999999911
 30
0.0
  0
VERTEX
  5
22AC
  8
SCAN
 10
142.82519999999991
 20
-235.9198000000000093
 30
0.0
  0
VERTEX
  5
22AD
  8
SCAN
 10
142.82519999999991
 20
-206.9707499999998959
 30
0.0
  0
VERTEX
  5
22AE
  8
SCAN
 10
131.4125999999999124
 20
-205.0223000000000013
 30
0.0
  0
VERTEX
  5
22AF
  8
SCAN
 10
131.4125999999999124
 20
-208.501749999999987
 30
0.0
  0
VERTEX
  5
22B0
  8
SCAN
 10
131.134249999999895
 20
-208.6408999999999878
 30
0.0
  0
VERTEX
  5
22B1
  8
SCAN
 10
112.2059999999999036
 20
-205.3006499999999903
 30
0.0
  0
VERTEX
  5
22B2
  8
SCAN
 10
109.4224499999998983
 20
-204.4655500000000075
 30
0.0
  0
VERTEX
  5
22B3
  8
SCAN
 10
109.2832499999998959
 20
-200.2902499999999861
 30
0.0
  0
VERTEX
  5
22B4
  8
SCAN
 10
99.8191499999999508
 20
-198.6201000000000079
 30
0.0
  0
VERTEX
  5
22B5
  8
SCAN
 10
98.8448999999999245
 20
-201.403649999999999
 30
0.0
  0
VERTEX
  5
22B6
  8
SCAN
 10
98.2881999999999323
 20
-204.6047499999999957
 30
0.0
  0
VERTEX
  5
22B7
  8
SCAN
 10
98.5665499999999213
 20
-208.6408999999999878
 30
0.0
  0
VERTEX
  5
22B8
  8
SCAN
 10
99.1232499999998993
 20
-210.4502500000000111
 30
0.0
  0
VERTEX
  5
22B9
  8
SCAN
 10
99.8191499999999508
 20
-211.5636499999999955
 30
0.0
  0
VERTEX
  5
22BA
  8
SCAN
 10
98.4273999999999347
 20
-216.5740499999999997
 30
0.0
  0
VERTEX
  5
22BB
  8
SCAN
 10
98.4273999999999347
 20
-221.0277499999999975
 30
0.0
  0
VERTEX
  5
22BC
  8
SCAN
 10
98.8448999999999245
 20
-222.8370999999999924
 30
0.0
  0
VERTEX
  5
22BD
  8
SCAN
 10
100.0974999999998971
 20
-225.3422999999999945
 30
0.0
  0
VERTEX
  5
22BE
  8
SCAN
 10
101.9068499999999062
 20
-227.151600000000002
 30
0.0
  0
VERTEX
  5
22BF
  8
SCAN
 10
104.5511999999998949
 20
-228.682549999999992
 30
0.0
  0
VERTEX
  5
22C0
  8
SCAN
 10
102.8810999999999041
 20
-229.3784499999999866
 30
0.0
  0
VERTEX
  5
22C1
  8
SCAN
 10
101.4892999999999006
 20
-230.3526999999999987
 30
0.0
  0
VERTEX
  5
22C2
  8
SCAN
 10
99.8191499999999508
 20
-232.4403499999999951
 30
0.0
  0
VERTEX
  5
22C3
  8
SCAN
 10
99.1232499999998993
 20
-233.9713000000000136
 30
0.0
  0
VERTEX
  5
22C4
  8
SCAN
 10
98.2881999999999323
 20
-238.5641999999999996
 30
0.0
  0
VERTEX
  5
22C5
  8
SCAN
 10
98.2881999999999323
 20
-242.8787000000000091
 30
0.0
  0
VERTEX
  5
22C6
  8
SCAN
 10
98.7057499999999237
 20
-247.6107499999999959
 30
0.0
  0
VERTEX
  5
22C7
  8
SCAN
 10
98.9840999999999127
 20
-248.585000000000008
 30
0.0
  0
VERTEX
  5
22C8
  8
SCAN
 10
106.7780499999998938
 20
-249.8375999999998953
 30
0.0
  0
VERTEX
  5
22C9
  8
SCAN
 10
106.9172499999998962
 20
-250.1160000000000139
 30
0.0
  0
VERTEX
  5
22CA
  8
SCAN
 10
104.1336999999999051
 20
-252.7603499999999883
 30
0.0
  0
VERTEX
  5
22CB
  8
SCAN
 10
101.3500999999998982
 20
-256.2397999999997751
 30
0.0
  0
VERTEX
  5
22CC
  8
SCAN
 10
98.8448999999999245
 20
-260.2759999999998968
 30
0.0
  0
VERTEX
  5
22CD
  8
SCAN
 10
96.2005499999999358
 20
-266.1214499999999248
 30
0.0
  0
VERTEX
  5
22CE
  8
SCAN
 10
98.0098499999999433
 20
-270.0184499999999161
 30
0.0
  0
VERTEX
  5
22CF
  8
SCAN
 10
100.375899999999902
 20
-274.1938000000000102
 30
0.0
  0
VERTEX
  5
22D0
  8
SCAN
 10
104.6903999999998973
 20
-279.900100000000009
 30
0.0
  0
VERTEX
  5
22D1
  8
SCAN
 10
107.4739499999999026
 20
-282.5444499999999266
 30
0.0
  0
VERTEX
  5
22D2
  8
SCAN
 10
110.2574999999998937
 20
-284.4929500000000075
 30
0.0
  0
VERTEX
  5
22D3
  8
SCAN
 10
112.9018999999998982
 20
-285.6063999999998941
 30
0.0
  0
VERTEX
  5
22D4
  8
SCAN
 10
115.1287499999998971
 20
-285.8847499999998263
 30
0.0
  0
VERTEX
  5
22D5
  8
SCAN
 10
113.7369499999998936
 20
-285.4671999999998775
 30
0.0
  0
VERTEX
  5
22D6
  8
SCAN
 10
110.5358999999998986
 20
-283.6578999999999837
 30
0.0
  0
VERTEX
  5
22D7
  8
SCAN
 10
108.4481999999999005
 20
-281.9877500000000055
 30
0.0
  0
VERTEX
  5
22D8
  8
SCAN
 10
105.9429999999998984
 20
-279.482549999999776
 30
0.0
  0
VERTEX
  5
22D9
  8
SCAN
 10
102.1851999999998952
 20
-274.4721499999997718
 30
0.0
  0
VERTEX
  5
22DA
  8
SCAN
 10
100.2366999999998995
 20
-271.1318499999998721
 30
0.0
  0
VERTEX
  5
22DB
  8
SCAN
 10
97.8706499999999124
 20
-266.1214499999999248
 30
0.0
  0
VERTEX
  5
22DC
  8
SCAN
 10
100.6542499999999052
 20
-264.1729500000000144
 30
0.0
  0
VERTEX
  5
22DD
  8
SCAN
 10
103.1594499999998931
 20
-262.9203499999999281
 30
0.0
  0
VERTEX
  5
22DE
  8
SCAN
 10
106.7780499999998938
 20
-261.6677500000000123
 30
0.0
  0
VERTEX
  5
22DF
  8
SCAN
 10
110.9533999999999025
 20
-260.9718500000000176
 30
0.0
  0
VERTEX
  5
22E0
  8
SCAN
 10
115.6854499999999035
 20
-261.1110499999999206
 30
0.0
  0
VERTEX
  5
22E1
  8
SCAN
 10
119.7216499999998973
 20
-262.2244499999998766
 30
0.0
  0
VERTEX
  5
22E2
  8
SCAN
 10
122.5051999999999026
 20
-263.8946000000000254
 30
0.0
  0
VERTEX
  5
22E3
  8
SCAN
 10
124.7320499999999015
 20
-266.2606499999998277
 30
0.0
  0
VERTEX
  5
22E4
  8
SCAN
 10
126.5413499999998947
 20
-269.8792500000000132
 30
0.0
  0
VERTEX
  5
22E5
  8
SCAN
 10
126.6805499999998972
 20
-267.3740500000000111
 30
0.0
  0
VERTEX
  5
22E6
  8
SCAN
 10
126.1237999999999033
 20
-265.0080500000000256
 30
0.0
  0
VERTEX
  5
22E7
  8
SCAN
 10
124.8711999999999023
 20
-262.7812000000000126
 30
0.0
  0
VERTEX
  5
22E8
  8
SCAN
 10
122.3659999999999002
 20
-260.415149999999926
 30
0.0
  0
VERTEX
  5
22E9
  8
SCAN
 10
119.7216499999998973
 20
-259.023399999999981
 30
0.0
  0
VERTEX
  5
22EA
  8
SCAN
 10
116.6596999999999014
 20
-258.1883000000000266
 30
0.0
  0
VERTEX
  5
22EB
  8
SCAN
 10
112.7627499999998975
 20
-258.0491499999998837
 30
0.0
  0
VERTEX
  5
22EC
  8
SCAN
 10
109.8399999999999039
 20
-258.6058499999999185
 30
0.0
  0
VERTEX
  5
22ED
  8
SCAN
 10
109.1440999999998951
 20
-258.4666499999999019
 30
0.0
  0
VERTEX
  5
22EE
  8
SCAN
 10
111.6492999999998972
 20
-256.6573500000000081
 30
0.0
  0
VERTEX
  5
22EF
  8
SCAN
 10
114.0153499999998985
 20
-255.404750000000007
 30
0.0
  0
VERTEX
  5
22F0
  8
SCAN
 10
118.0514999999999048
 20
-254.152150000000006
 30
0.0
  0
VERTEX
  5
22F1
  8
SCAN
 10
122.6443499999999034
 20
-254.152150000000006
 30
0.0
  0
VERTEX
  5
22F2
  8
SCAN
 10
124.7320499999999015
 20
-254.7088500000000124
 30
0.0
  0
VERTEX
  5
22F3
  8
SCAN
 10
126.5413499999998947
 20
-255.5439000000000078
 30
0.0
  0
VERTEX
  5
22F4
  8
SCAN
 10
128.2114999999998872
 20
-256.6573500000000081
 30
0.0
  0
VERTEX
  5
22F5
  8
SCAN
 10
130.2991499999999121
 20
-258.7450000000000045
 30
0.0
  0
VERTEX
  5
22F6
  8
SCAN
 10
131.6909499999999014
 20
-261.1110499999999206
 30
0.0
  0
VERTEX
  5
22F7
  8
SCAN
 10
131.9692999999998904
 20
-261.9460999999998876
 30
0.0
  0
VERTEX
  5
22F8
  8
SCAN
 10
131.8300999999999021
 20
-262.2244499999998766
 30
0.0
  0
VERTEX
  5
22F9
  8
SCAN
 10
129.1857499999998993
 20
-259.3017500000000268
 30
0.0
  0
VERTEX
  5
22FA
  8
SCAN
 10
126.5413499999998947
 20
-257.6315999999999917
 30
0.0
  0
VERTEX
  5
22FB
  8
SCAN
 10
122.5051999999999026
 20
-256.3790000000000191
 30
0.0
  0
VERTEX
  5
22FC
  8
SCAN
 10
118.8865499999999003
 20
-256.2397999999997751
 30
0.0
  0
VERTEX
  5
22FD
  8
SCAN
 10
121.9484999999998962
 20
-257.2140499999998156
 30
0.0
  0
VERTEX
  5
22FE
  8
SCAN
 10
124.5928499999998991
 20
-258.8842000000000212
 30
0.0
  0
VERTEX
  5
22FF
  8
SCAN
 10
126.402199999999894
 20
-260.693499999999915
 30
0.0
  0
VERTEX
  5
2300
  8
SCAN
 10
127.3763999999999044
 20
-262.0853000000000179
 30
0.0
  0
VERTEX
  5
2301
  8
SCAN
 10
128.7681999999998936
 20
-265.4255499999998733
 30
0.0
  0
VERTEX
  5
2302
  8
SCAN
 10
129.3248999999999
 20
-268.9049999999999159
 30
0.0
  0
VERTEX
  5
2303
  8
SCAN
 10
129.0465499999999111
 20
-273.7762500000000045
 30
0.0
  0
VERTEX
  5
2304
  8
SCAN
 10
127.654799999999895
 20
-278.786649999999895
 30
0.0
  0
VERTEX
  5
2305
  8
SCAN
 10
126.5413499999998947
 20
-281.0135000000000218
 30
0.0
  0
VERTEX
  5
2306
  8
SCAN
 10
125.8454499999999001
 20
-281.8485999999999194
 30
0.0
  0
VERTEX
  5
2307
  8
SCAN
 10
124.1753499999996961
 20
-281.9877500000000055
 30
0.0
  0
VERTEX
  5
2308
  8
SCAN
 10
122.5051999999999026
 20
-282.9619999999998754
 30
0.0
  0
VERTEX
  5
2309
  8
SCAN
 10
121.1133999999998991
 20
-281.7093999999999028
 30
0.0
  0
VERTEX
  5
230A
  8
SCAN
 10
120.8350499999998959
 20
-281.1526999999999248
 30
0.0
  0
VERTEX
  5
230B
  8
SCAN
 10
120.5566999999999069
 20
-278.786649999999895
 30
0.0
  0
VERTEX
  5
230C
  8
SCAN
 10
121.5309499999999048
 20
-273.7762500000000045
 30
0.0
  0
VERTEX
  5
230D
  8
SCAN
 10
121.5309499999999048
 20
-270.8534999999998263
 30
0.0
  0
VERTEX
  5
230E
  8
SCAN
 10
121.1133999999998991
 20
-269.3225499999999215
 30
0.0
  0
VERTEX
  5
230F
  8
SCAN
 10
119.9999999999999005
 20
-267.3740500000000111
 30
0.0
  0
VERTEX
  5
2310
  8
SCAN
 10
117.9122999999999024
 20
-265.5647500000000036
 30
0.0
  0
VERTEX
  5
2311
  8
SCAN
 10
116.102999999999895
 20
-264.868850000000009
 30
0.0
  0
VERTEX
  5
2312
  8
SCAN
 10
114.4328499999999025
 20
-264.5904999999999063
 30
0.0
  0
VERTEX
  5
2313
  8
SCAN
 10
111.2317499999999058
 20
-264.5904999999999063
 30
0.0
  0
VERTEX
  5
2314
  8
SCAN
 10
109.5616499999999007
 20
-264.868850000000009
 30
0.0
  0
VERTEX
  5
2315
  8
SCAN
 10
107.056399999999897
 20
-265.7038999999999191
 30
0.0
  0
VERTEX
  5
2316
  8
SCAN
 10
105.2470999999999037
 20
-266.6781499999999028
 30
0.0
  0
VERTEX
  5
2317
  8
SCAN
 10
103.4377999999998963
 20
-268.0699499999997784
 30
0.0
  0
VERTEX
  5
2318
  8
SCAN
 10
102.4635499999998984
 20
-269.3225499999999215
 30
0.0
  0
VERTEX
  5
2319
  8
SCAN
 10
106.638899999999893
 20
-268.4874999999998977
 30
0.0
  0
VERTEX
  5
231A
  8
SCAN
 10
109.8399999999999039
 20
-268.348299999999881
 30
0.0
  0
VERTEX
  5
231B
  8
SCAN
 10
109.9791499999999047
 20
-268.4874999999998977
 30
0.0
  0
VERTEX
  5
231C
  8
SCAN
 10
108.3090499999998997
 20
-270.2968000000000188
 30
0.0
  0
VERTEX
  5
231D
  8
SCAN
 10
106.9172499999998962
 20
-272.3844500000000153
 30
0.0
  0
VERTEX
  5
231E
  8
SCAN
 10
105.9429999999998984
 20
-274.8896999999998911
 30
0.0
  0
VERTEX
  5
231F
  8
SCAN
 10
109.0048999999999069
 20
-272.8020000000000209
 30
0.0
  0
VERTEX
  5
2320
  8
SCAN
 10
112.2059999999999036
 20
-271.1318499999998721
 30
0.0
  0
VERTEX
  5
2321
  8
SCAN
 10
112.345199999999906
 20
-271.2710500000000025
 30
0.0
  0
VERTEX
  5
2322
  8
SCAN
 10
111.2317499999999058
 20
-273.2195499999999129
 30
0.0
  0
VERTEX
  5
2323
  8
SCAN
 10
110.1183499999998929
 20
-276.9773499999998876
 30
0.0
  0
VERTEX
  5
2324
  8
SCAN
 10
110.1183499999998929
 20
-279.482549999999776
 30
0.0
  0
VERTEX
  5
2325
  8
SCAN
 10
111.6492999999998972
 20
-277.1165499999999042
 30
0.0
  0
VERTEX
  5
2326
  8
SCAN
 10
113.3194499999999039
 20
-275.446399999999926
 30
0.0
  0
VERTEX
  5
2327
  8
SCAN
 10
115.1287499999998971
 20
-274.4721499999997718
 30
0.0
  0
VERTEX
  5
2328
  8
SCAN
 10
117.077249999999907
 20
-274.3329499999999257
 30
0.0
  0
VERTEX
  5
2329
  8
SCAN
 10
117.355599999999896
 20
-274.7504999999998745
 30
0.0
  0
VERTEX
  5
232A
  8
SCAN
 10
117.355599999999896
 20
-279.7608999999999924
 30
0.0
  0
VERTEX
  5
232B
  8
SCAN
 10
118.1906499999999056
 20
-281.9877500000000055
 30
0.0
  0
VERTEX
  5
232C
  8
SCAN
 10
120.4174999999999045
 20
-284.3537999999999215
 30
0.0
  0
VERTEX
  5
232D
  8
SCAN
 10
123.2010999999998972
 20
-286.1630999999998721
 30
0.0
  0
VERTEX
  5
232E
  8
SCAN
 10
124.8711999999999023
 20
-286.7198000000000206
 30
0.0
  0
VERTEX
  5
232F
  8
SCAN
 10
125.7062999999998993
 20
-286.7198000000000206
 30
0.0
  0
VERTEX
  5
2330
  8
SCAN
 10
126.9588999999999004
 20
-285.3280500000000188
 30
0.0
  0
VERTEX
  5
2331
  8
SCAN
 10
128.7681999999998936
 20
-282.4053000000000111
 30
0.0
  0
VERTEX
  5
2332
  8
SCAN
 10
130.2991499999999121
 20
-279.2041999999999007
 30
0.0
  0
VERTEX
  5
2333
  8
SCAN
 10
131.4125999999999124
 20
-277.9515999999999281
 30
0.0
  0
VERTEX
  5
2334
  8
SCAN
 10
132.6651999999999134
 20
-277.3948999999998932
 30
0.0
  0
VERTEX
  5
2335
  8
SCAN
 10
134.0569499999998868
 20
-277.3948999999998932
 30
0.0
  0
VERTEX
  5
2336
  8
SCAN
 10
135.5879499999998927
 20
-278.2299499999999171
 30
0.0
  0
VERTEX
  5
2337
  8
SCAN
 10
135.4487499999999045
 20
-277.5340499999999224
 30
0.0
  0
VERTEX
  5
2338
  8
SCAN
 10
134.4744999999998925
 20
-276.4206500000000233
 30
0.0
  0
VERTEX
  5
2339
  8
SCAN
 10
136.4229999999998881
 20
-275.585550000000012
 30
0.0
  0
VERTEX
  5
233A
  8
SCAN
 10
139.2065499999999076
 20
-272.8020000000000209
 30
0.0
  0
VERTEX
  5
233B
  8
SCAN
 10
139.3457499999998959
 20
-273.2195499999999129
 30
0.0
  0
VERTEX
  5
233C
  8
SCAN
 10
137.9539499999999066
 20
-280.8743499999999926
 30
0.0
  0
VERTEX
  5
233D
  8
SCAN
 10
136.7013499999999055
 20
-285.0496999999999161
 30
0.0
  0
VERTEX
  5
233E
  8
SCAN
 10
135.8662999999999101
 20
-286.8589999999999804
 30
0.0
  0
VERTEX
  5
233F
  8
SCAN
 10
135.3095499999998879
 20
-287.2765499999998724
 30
0.0
  0
VERTEX
  5
2340
  8
SCAN
 10
133.3610999999999081
 20
-287.8332499999999072
 30
0.0
  0
VERTEX
  5
2341
  8
SCAN
 10
129.1857499999998993
 20
-288.2507499999999254
 30
0.0
  0
VERTEX
  5
2342
  8
SCAN
 10
131.9692999999998904
 20
-288.8075000000000045
 30
0.0
  0
SEQEND
  5
2343
  8
SCAN
  0
POLYLINE
  5
30B
  8
SCAN
 66
     1
 10
0.0
 20
0.0
 30
0.0
 70
     1
  0
VERTEX
  5
2344
  8
SCAN
 10
136.7013499999999055
 20
-288.9466499999999201
 30
0.0
  0
VERTEX
  5
2345
  8
SCAN
 10
136.9796999999998945
 20
-288.8075000000000045
 30
0.0
  0
VERTEX
  5
2346
  8
SCAN
 10
137.536399999999901
 20
-287.5548999999999182
 30
0.0
  0
VERTEX
  5
2347
  8
SCAN
 10
139.0673999999999069
 20
-282.8228500000000167
 30
0.0
  0
VERTEX
  5
2348
  8
SCAN
 10
140.3199999999999079
 20
-277.1165499999999042
 30
0.0
  0
VERTEX
  5
2349
  8
SCAN
 10
140.8766999999998859
 20
-272.5236499999999182
 30
0.0
  0
VERTEX
  5
234A
  8
SCAN
 10
141.1550499999999033
 20
-272.2452999999999861
 30
0.0
  0
VERTEX
  5
234B
  8
SCAN
 10
141.9900999999998987
 20
-272.2452999999999861
 30
0.0
  0
VERTEX
  5
234C
  8
SCAN
 10
144.4953499999998883
 20
-272.662849999999878
 30
0.0
  0
VERTEX
  5
234D
  8
SCAN
 10
145.8870999999998901
 20
-273.2195499999999129
 30
0.0
  0
VERTEX
  5
234E
  8
SCAN
 10
146.1654499999999075
 20
-273.0803499999998962
 30
0.0
  0
VERTEX
  5
234F
  8
SCAN
 10
146.0262999999999067
 20
-271.5493999999998778
 30
0.0
  0
VERTEX
  5
2350
  8
SCAN
 10
145.6087499999999011
 20
-270.1575999999998885
 30
0.0
  0
VERTEX
  5
2351
  8
SCAN
 10
143.7994499999998936
 20
-267.5132500000000277
 30
0.0
  0
VERTEX
  5
2352
  8
SCAN
 10
142.4076499999999044
 20
-266.3998000000000275
 30
0.0
  0
VERTEX
  5
2353
  8
SCAN
 10
141.7117499999999097
 20
-268.0699499999997784
 30
0.0
  0
VERTEX
  5
2354
  8
SCAN
 10
141.2942499999998915
 20
-268.4874999999998977
 30
0.0
  0
VERTEX
  5
2355
  8
SCAN
 10
141.1550499999999033
 20
-268.348299999999881
 30
0.0
  0
VERTEX
  5
2356
  8
SCAN
 10
141.4333999999998923
 20
-266.2606499999998277
 30
0.0
  0
VERTEX
  5
2357
  8
SCAN
 10
141.2942499999998915
 20
-262.6419999999998254
 30
0.0
  0
VERTEX
  5
2358
  8
SCAN
 10
144.2169499999999118
 20
-262.5028499999999099
 30
0.0
  0
VERTEX
  5
2359
  8
SCAN
 10
147.0005499999998904
 20
-262.9203499999999281
 30
0.0
  0
VERTEX
  5
235A
  8
SCAN
 10
146.8613499999999021
 20
-261.1110499999999206
 30
0.0
  0
VERTEX
  5
235B
  8
SCAN
 10
145.8870999999998901
 20
-258.3274999999998727
 30
0.0
  0
VERTEX
  5
235C
  8
SCAN
 10
144.3561499999999
 20
-255.8223000000000127
 30
0.0
  0
VERTEX
  5
235D
  8
SCAN
 10
141.1550499999999033
 20
-252.0644499999999084
 30
0.0
  0
VERTEX
  5
235E
  8
SCAN
 10
142.5468499999998926
 20
-249.8375999999998953
 30
0.0
  0
VERTEX
  5
235F
  8
SCAN
 10
143.381899999999888
 20
-246.7757000000000005
 30
0.0
  0
VERTEX
  5
2360
  8
SCAN
 10
143.381899999999888
 20
-242.182850000000002
 30
0.0
  0
VERTEX
  5
2361
  8
SCAN
 10
142.9643499999999108
 20
-240.0951499999999896
 30
0.0
  0
VERTEX
  5
2362
  8
SCAN
 10
141.9900999999998987
 20
-237.7291500000000042
 30
0.0
  0
VERTEX
  5
2363
  8
SCAN
 10
140.3199999999999079
 20
-235.6414499999999919
 30
0.0
  0
VERTEX
  5
2364
  8
SCAN
 10
140.8766999999998859
 20
-235.5022999999999911
 30
0.0
  0
VERTEX
  5
2365
  8
SCAN
 10
142.82519999999991
 20
-235.9198000000000093
 30
0.0
  0
VERTEX
  5
2366
  8
SCAN
 10
142.82519999999991
 20
-206.9707499999998959
 30
0.0
  0
VERTEX
  5
2367
  8
SCAN
 10
131.4125999999999124
 20
-205.0223000000000013
 30
0.0
  0
VERTEX
  5
2368
  8
SCAN
 10
131.4125999999999124
 20
-208.501749999999987
 30
0.0
  0
VERTEX
  5
2369
  8
SCAN
 10
131.134249999999895
 20
-208.6408999999999878
 30
0.0
  0
VERTEX
  5
236A
  8
SCAN
 10
110.2574999999998937
 20
-204.8831000000000131
 30
0.0
  0
VERTEX
  5
236B
  8
SCAN
 10
109.4224499999998983
 20
-204.4655500000000075
 30
0.0
  0
VERTEX
  5
236C
  8
SCAN
 10
109.2832499999998959
 20
-200.2902499999999861
 30
0.0
  0
VERTEX
  5
236D
  8
SCAN
 10
99.8191499999999508
 20
-198.6201000000000079
 30
0.0
  0
VERTEX
  5
236E
  8
SCAN
 10
98.8448999999999245
 20
-201.403649999999999
 30
0.0
  0
VERTEX
  5
236F
  8
SCAN
 10
98.2881999999999323
 20
-204.6047499999999957
 30
0.0
  0
VERTEX
  5
2370
  8
SCAN
 10
98.5665499999999213
 20
-208.6408999999999878
 30
0.0
  0
VERTEX
  5
2371
  8
SCAN
 10
99.1232499999998993
 20
-210.4502500000000111
 30
0.0
  0
VERTEX
  5
2372
  8
SCAN
 10
99.8191499999999508
 20
-211.5636499999999955
 30
0.0
  0
VERTEX
  5
2373
  8
SCAN
 10
98.4273999999999347
 20
-216.5740499999999997
 30
0.0
  0
VERTEX
  5
2374
  8
SCAN
 10
98.4273999999999347
 20
-221.0277499999999975
 30
0.0
  0
VERTEX
  5
2375
  8
SCAN
 10
98.8448999999999245
 20
-222.8370999999999924
 30
0.0
  0
VERTEX
  5
2376
  8
SCAN
 10
100.0974999999998971
 20
-225.3422999999999945
 30
0.0
  0
VERTEX
  5
2377
  8
SCAN
 10
101.9068499999999062
 20
-227.151600000000002
 30
0.0
  0
VERTEX
  5
2378
  8
SCAN
 10
104.5511999999998949
 20
-228.682549999999992
 30
0.0
  0
VERTEX
  5
2379
  8
SCAN
 10
102.8810999999999041
 20
-229.3784499999999866
 30
0.0
  0
VERTEX
  5
237A
  8
SCAN
 10
101.4892999999999006
 20
-230.3526999999999987
 30
0.0
  0
VERTEX
  5
237B
  8
SCAN
 10
99.8191499999999508
 20
-232.4403499999999951
 30
0.0
  0
VERTEX
  5
237C
  8
SCAN
 10
99.1232499999998993
 20
-233.9713000000000136
 30
0.0
  0
VERTEX
  5
237D
  8
SCAN
 10
98.5665499999999213
 20
-236.198149999999913
 30
0.0
  0
VERTEX
  5
237E
  8
SCAN
 10
98.2881999999999323
 20
-238.5641999999999996
 30
0.0
  0
VERTEX
  5
237F
  8
SCAN
 10
98.2881999999999323
 20
-242.8787000000000091
 30
0.0
  0
VERTEX
  5
2380
  8
SCAN
 10
98.7057499999999237
 20
-247.6107499999999959
 30
0.0
  0
VERTEX
  5
2381
  8
SCAN
 10
98.9840999999999127
 20
-248.585000000000008
 30
0.0
  0
VERTEX
  5
2382
  8
SCAN
 10
106.7780499999998938
 20
-249.8375999999998953
 30
0.0
  0
VERTEX
  5
2383
  8
SCAN
 10
106.9172499999998962
 20
-250.1160000000000139
 30
0.0
  0
VERTEX
  5
2384
  8
SCAN
 10
104.1336999999999051
 20
-252.7603499999999883
 30
0.0
  0
VERTEX
  5
2385
  8
SCAN
 10
101.3500999999998982
 20
-256.2397999999997751
 30
0.0
  0
VERTEX
  5
2386
  8
SCAN
 10
98.8448999999999245
 20
-260.2759999999998968
 30
0.0
  0
VERTEX
  5
2387
  8
SCAN
 10
96.2005499999999358
 20
-266.1214499999999248
 30
0.0
  0
VERTEX
  5
2388
  8
SCAN
 10
98.0098499999999433
 20
-270.0184499999999161
 30
0.0
  0
VERTEX
  5
2389
  8
SCAN
 10
100.375899999999902
 20
-274.1938000000000102
 30
0.0
  0
VERTEX
  5
238A
  8
SCAN
 10
103.0202499999999048
 20
-277.9515999999999281
 30
0.0
  0
VERTEX
  5
238B
  8
SCAN
 10
104.6903999999998973
 20
-279.900100000000009
 30
0.0
  0
VERTEX
  5
238C
  8
SCAN
 10
107.4739499999999026
 20
-282.5444499999999266
 30
0.0
  0
VERTEX
  5
238D
  8
SCAN
 10
110.2574999999998937
 20
-284.4929500000000075
 30
0.0
  0
VERTEX
  5
238E
  8
SCAN
 10
112.9018999999998982
 20
-285.6063999999998941
 30
0.0
  0
VERTEX
  5
238F
  8
SCAN
 10
115.1287499999998971
 20
-285.8847499999998263
 30
0.0
  0
VERTEX
  5
2390
  8
SCAN
 10
113.7369499999998936
 20
-285.4671999999998775
 30
0.0
  0
VERTEX
  5
2391
  8
SCAN
 10
110.5358999999998986
 20
-283.6578999999999837
 30
0.0
  0
VERTEX
  5
2392
  8
SCAN
 10
108.4481999999999005
 20
-281.9877500000000055
 30
0.0
  0
VERTEX
  5
2393
  8
SCAN
 10
105.9429999999998984
 20
-279.482549999999776
 30
0.0
  0
VERTEX
  5
2394
  8
SCAN
 10
102.1851999999998952
 20
-274.4721499999997718
 30
0.0
  0
VERTEX
  5
2395
  8
SCAN
 10
100.2366999999998995
 20
-271.1318499999998721
 30
0.0
  0
VERTEX
  5
2396
  8
SCAN
 10
97.8706499999999124
 20
-266.1214499999999248
 30
0.0
  0
VERTEX
  5
2397
  8
SCAN
 10
100.6542499999999052
 20
-264.1729500000000144
 30
0.0
  0
VERTEX
  5
2398
  8
SCAN
 10
103.1594499999998931
 20
-262.9203499999999281
 30
0.0
  0
VERTEX
  5
2399
  8
SCAN
 10
106.7780499999998938
 20
-261.6677500000000123
 30
0.0
  0
VERTEX
  5
239A
  8
SCAN
 10
110.9533999999999025
 20
-260.9718500000000176
 30
0.0
  0
VERTEX
  5
239B
  8
SCAN
 10
115.6854499999999035
 20
-261.1110499999999206
 30
0.0
  0
VERTEX
  5
239C
  8
SCAN
 10
119.7216499999998973
 20
-262.2244499999998766
 30
0.0
  0
VERTEX
  5
239D
  8
SCAN
 10
122.5051999999999026
 20
-263.8946000000000254
 30
0.0
  0
VERTEX
  5
239E
  8
SCAN
 10
124.7320499999999015
 20
-266.2606499999998277
 30
0.0
  0
VERTEX
  5
239F
  8
SCAN
 10
126.5413499999998947
 20
-269.8792500000000132
 30
0.0
  0
VERTEX
  5
23A0
  8
SCAN
 10
126.6805499999998972
 20
-267.3740500000000111
 30
0.0
  0
VERTEX
  5
23A1
  8
SCAN
 10
126.1237999999999033
 20
-265.0080500000000256
 30
0.0
  0
VERTEX
  5
23A2
  8
SCAN
 10
124.8711999999999023
 20
-262.7812000000000126
 30
0.0
  0
VERTEX
  5
23A3
  8
SCAN
 10
123.7577999999999037
 20
-261.5285999999999262
 30
0.0
  0
VERTEX
  5
23A4
  8
SCAN
 10
122.3659999999999002
 20
-260.415149999999926
 30
0.0
  0
VERTEX
  5
23A5
  8
SCAN
 10
119.7216499999998973
 20
-259.023399999999981
 30
0.0
  0
VERTEX
  5
23A6
  8
SCAN
 10
116.6596999999999014
 20
-258.1883000000000266
 30
0.0
  0
VERTEX
  5
23A7
  8
SCAN
 10
112.7627499999998975
 20
-258.0491499999998837
 30
0.0
  0
VERTEX
  5
23A8
  8
SCAN
 10
110.5358999999998986
 20
-258.3274999999998727
 30
0.0
  0
VERTEX
  5
23A9
  8
SCAN
 10
109.8399999999999039
 20
-258.6058499999999185
 30
0.0
  0
VERTEX
  5
23AA
  8
SCAN
 10
109.1440999999998951
 20
-258.4666499999999019
 30
0.0
  0
VERTEX
  5
23AB
  8
SCAN
 10
111.6492999999998972
 20
-256.6573500000000081
 30
0.0
  0
VERTEX
  5
23AC
  8
SCAN
 10
114.0153499999998985
 20
-255.404750000000007
 30
0.0
  0
VERTEX
  5
23AD
  8
SCAN
 10
118.0514999999999048
 20
-254.152150000000006
 30
0.0
  0
VERTEX
  5
23AE
  8
SCAN
 10
122.6443499999999034
 20
-254.152150000000006
 30
0.0
  0
VERTEX
  5
23AF
  8
SCAN
 10
124.7320499999999015
 20
-254.7088500000000124
 30
0.0
  0
VERTEX
  5
23B0
  8
SCAN
 10
126.5413499999998947
 20
-255.5439000000000078
 30
0.0
  0
VERTEX
  5
23B1
  8
SCAN
 10
128.2114999999998872
 20
-256.6573500000000081
 30
0.0
  0
VERTEX
  5
23B2
  8
SCAN
 10
130.2991499999999121
 20
-258.7450000000000045
 30
0.0
  0
VERTEX
  5
23B3
  8
SCAN
 10
131.6909499999999014
 20
-261.1110499999999206
 30
0.0
  0
VERTEX
  5
23B4
  8
SCAN
 10
131.9692999999998904
 20
-261.9460999999998876
 30
0.0
  0
VERTEX
  5
23B5
  8
SCAN
 10
131.8300999999999021
 20
-262.2244499999998766
 30
0.0
  0
VERTEX
  5
23B6
  8
SCAN
 10
129.1857499999998993
 20
-259.3017500000000268
 30
0.0
  0
VERTEX
  5
23B7
  8
SCAN
 10
126.5413499999998947
 20
-257.6315999999999917
 30
0.0
  0
VERTEX
  5
23B8
  8
SCAN
 10
122.5051999999999026
 20
-256.3790000000000191
 30
0.0
  0
VERTEX
  5
23B9
  8
SCAN
 10
118.8865499999999003
 20
-256.2397999999997751
 30
0.0
  0
VERTEX
  5
23BA
  8
SCAN
 10
121.9484999999998962
 20
-257.2140499999998156
 30
0.0
  0
VERTEX
  5
23BB
  8
SCAN
 10
124.5928499999998991
 20
-258.8842000000000212
 30
0.0
  0
VERTEX
  5
23BC
  8
SCAN
 10
126.402199999999894
 20
-260.693499999999915
 30
0.0
  0
VERTEX
  5
23BD
  8
SCAN
 10
127.3763999999999044
 20
-262.0853000000000179
 30
0.0
  0
VERTEX
  5
23BE
  8
SCAN
 10
128.7681999999998936
 20
-265.4255499999998733
 30
0.0
  0
VERTEX
  5
23BF
  8
SCAN
 10
129.3248999999999
 20
-268.9049999999999159
 30
0.0
  0
VERTEX
  5
23C0
  8
SCAN
 10
129.0465499999999111
 20
-273.7762500000000045
 30
0.0
  0
VERTEX
  5
23C1
  8
SCAN
 10
127.654799999999895
 20
-278.786649999999895
 30
0.0
  0
VERTEX
  5
23C2
  8
SCAN
 10
126.5413499999998947
 20
-281.0135000000000218
 30
0.0
  0
VERTEX
  5
23C3
  8
SCAN
 10
125.8454499999999001
 20
-281.8485999999999194
 30
0.0
  0
VERTEX
  5
23C4
  8
SCAN
 10
124.1753499999996961
 20
-281.9877500000000055
 30
0.0
  0
VERTEX
  5
23C5
  8
SCAN
 10
122.5051999999999026
 20
-282.9619999999998754
 30
0.0
  0
VERTEX
  5
23C6
  8
SCAN
 10
121.1133999999998991
 20
-281.7093999999999028
 30
0.0
  0
VERTEX
  5
23C7
  8
SCAN
 10
120.5566999999999069
 20
-280.0392499999999245
 30
0.0
  0
VERTEX
  5
23C8
  8
SCAN
 10
120.5566999999999069
 20
-278.786649999999895
 30
0.0
  0
VERTEX
  5
23C9
  8
SCAN
 10
121.5309499999999048
 20
-273.7762500000000045
 30
0.0
  0
VERTEX
  5
23CA
  8
SCAN
 10
121.5309499999999048
 20
-270.8534999999998263
 30
0.0
  0
VERTEX
  5
23CB
  8
SCAN
 10
121.1133999999998991
 20
-269.3225499999999215
 30
0.0
  0
VERTEX
  5
23CC
  8
SCAN
 10
119.9999999999999005
 20
-267.3740500000000111
 30
0.0
  0
VERTEX
  5
23CD
  8
SCAN
 10
117.9122999999999024
 20
-265.5647500000000036
 30
0.0
  0
VERTEX
  5
23CE
  8
SCAN
 10
116.102999999999895
 20
-264.868850000000009
 30
0.0
  0
VERTEX
  5
23CF
  8
SCAN
 10
114.4328499999999025
 20
-264.5904999999999063
 30
0.0
  0
VERTEX
  5
23D0
  8
SCAN
 10
111.2317499999999058
 20
-264.5904999999999063
 30
0.0
  0
VERTEX
  5
23D1
  8
SCAN
 10
109.5616499999999007
 20
-264.868850000000009
 30
0.0
  0
VERTEX
  5
23D2
  8
SCAN
 10
107.056399999999897
 20
-265.7038999999999191
 30
0.0
  0
VERTEX
  5
23D3
  8
SCAN
 10
105.2470999999999037
 20
-266.6781499999999028
 30
0.0
  0
VERTEX
  5
23D4
  8
SCAN
 10
103.4377999999998963
 20
-268.0699499999997784
 30
0.0
  0
VERTEX
  5
23D5
  8
SCAN
 10
102.4635499999998984
 20
-269.3225499999999215
 30
0.0
  0
VERTEX
  5
23D6
  8
SCAN
 10
106.638899999999893
 20
-268.4874999999998977
 30
0.0
  0
VERTEX
  5
23D7
  8
SCAN
 10
109.8399999999999039
 20
-268.348299999999881
 30
0.0
  0
VERTEX
  5
23D8
  8
SCAN
 10
109.9791499999999047
 20
-268.4874999999998977
 30
0.0
  0
VERTEX
  5
23D9
  8
SCAN
 10
108.3090499999998997
 20
-270.2968000000000188
 30
0.0
  0
VERTEX
  5
23DA
  8
SCAN
 10
106.9172499999998962
 20
-272.3844500000000153
 30
0.0
  0
VERTEX
  5
23DB
  8
SCAN
 10
105.9429999999998984
 20
-274.8896999999998911
 30
0.0
  0
VERTEX
  5
23DC
  8
SCAN
 10
106.2213499999999016
 20
-274.8896999999998911
 30
0.0
  0
VERTEX
  5
23DD
  8
SCAN
 10
109.0048999999999069
 20
-272.8020000000000209
 30
0.0
  0
VERTEX
  5
23DE
  8
SCAN
 10
112.2059999999999036
 20
-271.1318499999998721
 30
0.0
  0
VERTEX
  5
23DF
  8
SCAN
 10
112.345199999999906
 20
-271.2710500000000025
 30
0.0
  0
VERTEX
  5
23E0
  8
SCAN
 10
111.2317499999999058
 20
-273.2195499999999129
 30
0.0
  0
VERTEX
  5
23E1
  8
SCAN
 10
110.5358999999998986
 20
-275.1680499999998801
 30
0.0
  0
VERTEX
  5
23E2
  8
SCAN
 10
110.1183499999998929
 20
-276.9773499999998876
 30
0.0
  0
VERTEX
  5
23E3
  8
SCAN
 10
110.1183499999998929
 20
-279.482549999999776
 30
0.0
  0
VERTEX
  5
23E4
  8
SCAN
 10
111.6492999999998972
 20
-277.1165499999999042
 30
0.0
  0
VERTEX
  5
23E5
  8
SCAN
 10
113.3194499999999039
 20
-275.446399999999926
 30
0.0
  0
VERTEX
  5
23E6
  8
SCAN
 10
115.1287499999998971
 20
-274.4721499999997718
 30
0.0
  0
VERTEX
  5
23E7
  8
SCAN
 10
117.077249999999907
 20
-274.3329499999999257
 30
0.0
  0
VERTEX
  5
23E8
  8
SCAN
 10
117.355599999999896
 20
-274.7504999999998745
 30
0.0
  0
VERTEX
  5
23E9
  8
SCAN
 10
117.355599999999896
 20
-279.7608999999999924
 30
0.0
  0
VERTEX
  5
23EA
  8
SCAN
 10
118.1906499999999056
 20
-281.9877500000000055
 30
0.0
  0
VERTEX
  5
23EB
  8
SCAN
 10
120.4174999999999045
 20
-284.3537999999999215
 30
0.0
  0
VERTEX
  5
23EC
  8
SCAN
 10
123.2010999999998972
 20
-286.1630999999998721
 30
0.0
  0
VERTEX
  5
23ED
  8
SCAN
 10
124.8711999999999023
 20
-286.7198000000000206
 30
0.0
  0
VERTEX
  5
23EE
  8
SCAN
 10
125.7062999999998993
 20
-286.7198000000000206
 30
0.0
  0
VERTEX
  5
23EF
  8
SCAN
 10
126.9588999999999004
 20
-285.3280500000000188
 30
0.0
  0
VERTEX
  5
23F0
  8
SCAN
 10
128.7681999999998936
 20
-282.4053000000000111
 30
0.0
  0
VERTEX
  5
23F1
  8
SCAN
 10
130.2991499999999121
 20
-279.2041999999999007
 30
0.0
  0
VERTEX
  5
23F2
  8
SCAN
 10
131.4125999999999124
 20
-277.9515999999999281
 30
0.0
  0
VERTEX
  5
23F3
  8
SCAN
 10
132.6651999999999134
 20
-277.3948999999998932
 30
0.0
  0
VERTEX
  5
23F4
  8
SCAN
 10
134.0569499999998868
 20
-277.3948999999998932
 30
0.0
  0
VERTEX
  5
23F5
  8
SCAN
 10
135.5879499999998927
 20
-278.2299499999999171
 30
0.0
  0
VERTEX
  5
23F6
  8
SCAN
 10
135.4487499999999045
 20
-277.5340499999999224
 30
0.0
  0
VERTEX
  5
23F7
  8
SCAN
 10
134.4744999999998925
 20
-276.4206500000000233
 30
0.0
  0
VERTEX
  5
23F8
  8
SCAN
 10
136.4229999999998881
 20
-275.585550000000012
 30
0.0
  0
VERTEX
  5
23F9
  8
SCAN
 10
139.2065499999999076
 20
-272.8020000000000209
 30
0.0
  0
VERTEX
  5
23FA
  8
SCAN
 10
139.3457499999998959
 20
-273.2195499999999129
 30
0.0
  0
VERTEX
  5
23FB
  8
SCAN
 10
138.9281999999998902
 20
-276.1422999999999206
 30
0.0
  0
VERTEX
  5
23FC
  8
SCAN
 10
137.9539499999999066
 20
-280.8743499999999926
 30
0.0
  0
VERTEX
  5
23FD
  8
SCAN
 10
136.7013499999999055
 20
-285.0496999999999161
 30
0.0
  0
VERTEX
  5
23FE
  8
SCAN
 10
135.8662999999999101
 20
-286.8589999999999804
 30
0.0
  0
VERTEX
  5
23FF
  8
SCAN
 10
135.3095499999998879
 20
-287.2765499999998724
 30
0.0
  0
VERTEX
  5
2400
  8
SCAN
 10
133.3610999999999081
 20
-287.8332499999999072
 30
0.0
  0
VERTEX
  5
2401
  8
SCAN
 10
130.855899999999906
 20
-288.2507499999999254
 30
0.0
  0
VERTEX
  5
2402
  8
SCAN
 10
129.1857499999998993
 20
-288.2507499999999254
 30
0.0
  0
VERTEX
  5
2403
  8
SCAN
 10
131.9692999999998904
 20
-288.8075000000000045
 30
0.0
  0
SEQEND
  5
2404
  8
SCAN
  0
POLYLINE
  5
30C
  8
SCAN
 66
     1
 10
0.0
 20
0.0
 30
0.0
 70
     1
  0
VERTEX
  5
2405
  8
SCAN
 10
133.0827499999998906
 20
-270.4359999999999218
 30
0.0
  0
VERTEX
  5
2406
  8
SCAN
 10
133.3610999999999081
 20
-271.2710500000000025
 30
0.0
  0
VERTEX
  5
2407
  8
SCAN
 10
132.8043499999999142
 20
-271.5493999999998778
 30
0.0
  0
VERTEX
  5
2408
  8
SCAN
 10
132.5259999999998968
 20
-271.2710500000000025
 30
0.0
  0
VERTEX
  5
2409
  8
SCAN
 10
132.5259999999998968
 20
-270.7143500000000245
 30
0.0
  0
SEQEND
  5
240A
  8
SCAN
  0
POLYLINE
  5
30D
  8
SCAN
 66
     1
 10
0.0
 20
0.0
 30
0.0
 70
     1
  0
VERTEX
  5
240B
  8
SCAN
 10
133.2218999999998914
 20
-267.9307499999998754
 30
0.0
  0
VERTEX
  5
240C
  8
SCAN
 10
133.3610999999999081
 20
-269.0441999999999894
 30
0.0
  0
VERTEX
  5
240D
  8
SCAN
 10
132.108499999999907
 20
-269.8792500000000132
 30
0.0
  0
VERTEX
  5
240E
  8
SCAN
 10
131.6909499999999014
 20
-271.2710500000000025
 30
0.0
  0
VERTEX
  5
240F
  8
SCAN
 10
131.2733999999998957
 20
-270.5751499999998941
 30
0.0
  0
VERTEX
  5
2410
  8
SCAN
 10
131.4125999999999124
 20
-269.183400000000006
 30
0.0
  0
VERTEX
  5
2411
  8
SCAN
 10
132.6651999999999134
 20
-267.9307499999998754
 30
0.0
  0
SEQEND
  5
2412
  8
SCAN
  0
POLYLINE
  5
30E
  8
SCAN
 66
     1
 10
0.0
 20
0.0
 30
0.0
 70
     1
  0
VERTEX
  5
2413
  8
SCAN
 10
136.1446499999998991
 20
-264.4512999999998897
 30
0.0
  0
VERTEX
  5
2414
  8
SCAN
 10
136.2837999999997862
 20
-270.7143500000000245
 30
0.0
  0
VERTEX
  5
2415
  8
SCAN
 10
136.0054499999999109
 20
-272.1061000000000263
 30
0.0
  0
VERTEX
  5
2416
  8
SCAN
 10
135.4487499999999045
 20
-273.2195499999999129
 30
0.0
  0
VERTEX
  5
2417
  8
SCAN
 10
134.7528499999999099
 20
-273.9154500000000212
 30
0.0
  0
VERTEX
  5
2418
  8
SCAN
 10
134.0569499999998868
 20
-274.3329499999999257
 30
0.0
  0
VERTEX
  5
2419
  8
SCAN
 10
133.2218999999998914
 20
-274.4721499999997718
 30
0.0
  0
VERTEX
  5
241A
  8
SCAN
 10
133.0827499999998906
 20
-274.3329499999999257
 30
0.0
  0
VERTEX
  5
241B
  8
SCAN
 10
133.7785999999998978
 20
-273.7762500000000045
 30
0.0
  0
VERTEX
  5
241C
  8
SCAN
 10
134.6136999999999091
 20
-272.1061000000000263
 30
0.0
  0
VERTEX
  5
241D
  8
SCAN
 10
134.7528499999999099
 20
-267.3740500000000111
 30
0.0
  0
VERTEX
  5
241E
  8
SCAN
 10
135.3095499999998879
 20
-265.2864000000000146
 30
0.0
  0
SEQEND
  5
241F
  8
SCAN
  0
POLYLINE
  5
30F
  8
SCAN
 66
     1
 10
0.0
 20
0.0
 30
0.0
 70
     1
  0
VERTEX
  5
2420
  8
SCAN
 10
140.1807999999998913
 20
-232.5795500000000118
 30
0.0
  0
VERTEX
  5
2421
  8
SCAN
 10
138.7890499999998895
 20
-232.5795500000000118
 30
0.0
  0
VERTEX
  5
2422
  8
SCAN
 10
108.5873999999999029
 20
-227.151600000000002
 30
0.0
  0
VERTEX
  5
2423
  8
SCAN
 10
105.5254499999999069
 20
-226.1773499999999899
 30
0.0
  0
VERTEX
  5
2424
  8
SCAN
 10
103.576949999999897
 20
-225.0638999999999896
 30
0.0
  0
VERTEX
  5
2425
  8
SCAN
 10
102.1851999999998952
 20
-223.6721499999999878
 30
0.0
  0
VERTEX
  5
2426
  8
SCAN
 10
101.4892999999999006
 20
-222.4195499999999015
 30
0.0
  0
VERTEX
  5
2427
  8
SCAN
 10
100.9325999999996952
 20
-220.0535000000000139
 30
0.0
  0
VERTEX
  5
2428
  8
SCAN
 10
100.9325999999996952
 20
-217.5483000000000118
 30
0.0
  0
VERTEX
  5
2429
  8
SCAN
 10
101.4892999999999006
 20
-214.903899999999993
 30
0.0
  0
VERTEX
  5
242A
  8
SCAN
 10
101.9068499999999062
 20
-214.7647499999999923
 30
0.0
  0
VERTEX
  5
242B
  8
SCAN
 10
106.4996999999999048
 20
-215.5997999999999877
 30
0.0
  0
VERTEX
  5
242C
  8
SCAN
 10
106.7780499999998938
 20
-218.1049999999999898
 30
0.0
  0
VERTEX
  5
242D
  8
SCAN
 10
107.1955999999998994
 20
-219.0792500000000018
 30
0.0
  0
VERTEX
  5
242E
  8
SCAN
 10
108.5873999999999029
 20
-220.1926999999998884
 30
0.0
  0
VERTEX
  5
242F
  8
SCAN
 10
111.6492999999998972
 20
-221.0277499999999975
 30
0.0
  0
VERTEX
  5
2430
  8
SCAN
 10
134.0569499999998868
 20
-224.9247499999999889
 30
0.0
  0
VERTEX
  5
2431
  8
SCAN
 10
134.1961499999999035
 20
-221.3060999999999865
 30
0.0
  0
VERTEX
  5
2432
  8
SCAN
 10
140.0416499999998905
 20
-222.2803499999999985
 30
0.0
  0
SEQEND
  5
2433
  8
SCAN
  0
POLYLINE
  5
310
  8
SCAN
 66
     1
 10
0.0
 20
0.0
 30
0.0
 70
     1
  0
VERTEX
  5
2434
  8
SCAN
 10
140.1807999999998913
 20
-219.4968000000000075
 30
0.0
  0
VERTEX
  5
2435
  8
SCAN
 10
140.0416499999998905
 20
-219.6359999999999957
 30
0.0
  0
VERTEX
  5
2436
  8
SCAN
 10
111.6492999999998972
 20
-214.625550000000004
 30
0.0
  0
VERTEX
  5
2437
  8
SCAN
 10
107.3347999999999018
 20
-213.651299999999992
 30
0.0
  0
VERTEX
  5
2438
  8
SCAN
 10
105.107949999999903
 20
-212.8162499999999966
 30
0.0
  0
VERTEX
  5
2439
  8
SCAN
 10
103.8553499999999019
 20
-212.120350000000002
 30
0.0
  0
VERTEX
  5
243A
  8
SCAN
 10
102.324349999999697
 20
-210.7286000000000001
 30
0.0
  0
VERTEX
  5
243B
  8
SCAN
 10
101.7676499999999038
 20
-209.8934999999999889
 30
0.0
  0
VERTEX
  5
243C
  8
SCAN
 10
101.2109499999998974
 20
-208.3625499999999136
 30
0.0
  0
VERTEX
  5
243D
  8
SCAN
 10
100.9325999999996952
 20
-206.8316000000000088
 30
0.0
  0
VERTEX
  5
243E
  8
SCAN
 10
100.9325999999996952
 20
-204.3264000000000067
 30
0.0
  0
VERTEX
  5
243F
  8
SCAN
 10
101.4892999999999006
 20
-201.8212000000000046
 30
0.0
  0
VERTEX
  5
2440
  8
SCAN
 10
102.4635499999998984
 20
-201.6819999999999879
 30
0.0
  0
VERTEX
  5
2441
  8
SCAN
 10
106.360549999999904
 20
-202.377900000000011
 30
0.0
  0
VERTEX
  5
2442
  8
SCAN
 10
106.638899999999893
 20
-202.65625
 30
0.0
  0
VERTEX
  5
2443
  8
SCAN
 10
106.7780499999998938
 20
-204.8831000000000131
 30
0.0
  0
VERTEX
  5
2444
  8
SCAN
 10
107.056399999999897
 20
-205.7181500000000085
 30
0.0
  0
VERTEX
  5
2445
  8
SCAN
 10
107.613149999999905
 20
-206.4140500000000031
 30
0.0
  0
VERTEX
  5
2446
  8
SCAN
 10
108.7265499999999037
 20
-207.1099499999999978
 30
0.0
  0
VERTEX
  5
2447
  8
SCAN
 10
112.0668499999999028
 20
-207.9449999999999932
 30
0.0
  0
VERTEX
  5
2448
  8
SCAN
 10
119.9999999999999005
 20
-209.1975999999999942
 30
0.0
  0
VERTEX
  5
2449
  8
SCAN
 10
133.3610999999999081
 20
-211.7028500000000122
 30
0.0
  0
VERTEX
  5
244A
  8
SCAN
 10
134.0569499999998868
 20
-211.7028500000000122
 30
0.0
  0
VERTEX
  5
244B
  8
SCAN
 10
134.1961499999999035
 20
-208.0842000000000098
 30
0.0
  0
VERTEX
  5
244C
  8
SCAN
 10
140.0416499999998905
 20
-209.1975999999999942
 30
0.0
  0
SEQEND
  5
244D
  8
SCAN
  0
POLYLINE
  5
311
  8
SCAN
 66
     1
 10
0.0
 20
0.0
 30
0.0
 70
     1
  0
VERTEX
  5
244E
  8
SCAN
 10
140.4591499999999087
 20
-247.8891500000000008
 30
0.0
  0
VERTEX
  5
244F
  8
SCAN
 10
139.7632499999999141
 20
-249.4200999999999908
 30
0.0
  0
VERTEX
  5
2450
  8
SCAN
 10
138.9281999999998902
 20
-250.3943500000000029
 30
0.0
  0
VERTEX
  5
2451
  8
SCAN
 10
137.258049999999912
 20
-251.3685999999999865
 30
0.0
  0
VERTEX
  5
2452
  8
SCAN
 10
136.1446499999998991
 20
-251.6469499999998902
 30
0.0
  0
VERTEX
  5
2453
  8
SCAN
 10
133.5002499999999088
 20
-251.7861000000000047
 30
0.0
  0
VERTEX
  5
2454
  8
SCAN
 10
127.654799999999895
 20
-250.8118499999999926
 30
0.0
  0
VERTEX
  5
2455
  8
SCAN
 10
127.5155999999999068
 20
-244.5488499999999874
 30
0.0
  0
VERTEX
  5
2456
  8
SCAN
 10
128.2114999999998872
 20
-244.4096999999999866
 30
0.0
  0
VERTEX
  5
2457
  8
SCAN
 10
132.2476499999999078
 20
-245.2447499999998968
 30
0.0
  0
VERTEX
  5
2458
  8
SCAN
 10
134.7528499999999099
 20
-245.5230999999999995
 30
0.0
  0
VERTEX
  5
2459
  8
SCAN
 10
135.0311999999998989
 20
-244.966399999999993
 30
0.0
  0
VERTEX
  5
245A
  8
SCAN
 10
135.0311999999998989
 20
-243.2962499999999864
 30
0.0
  0
VERTEX
  5
245B
  8
SCAN
 10
134.6136999999999091
 20
-242.6003499999999917
 30
0.0
  0
VERTEX
  5
245C
  8
SCAN
 10
133.917799999999886
 20
-242.182850000000002
 30
0.0
  0
VERTEX
  5
245D
  8
SCAN
 10
131.8300999999999021
 20
-241.6260999999998944
 30
0.0
  0
VERTEX
  5
245E
  8
SCAN
 10
109.8399999999999039
 20
-237.868300000000005
 30
0.0
  0
VERTEX
  5
245F
  8
SCAN
 10
108.0306499999998948
 20
-238.0074999999999932
 30
0.0
  0
VERTEX
  5
2460
  8
SCAN
 10
107.613149999999905
 20
-238.2858500000000106
 30
0.0
  0
VERTEX
  5
2461
  8
SCAN
 10
107.3347999999999018
 20
-238.8425499999999886
 30
0.0
  0
VERTEX
  5
2462
  8
SCAN
 10
107.056399999999897
 20
-240.2343500000000063
 30
0.0
  0
VERTEX
  5
2463
  8
SCAN
 10
107.056399999999897
 20
-247.0540499999999895
 30
0.0
  0
VERTEX
  5
2464
  8
SCAN
 10
106.2213499999999016
 20
-247.1932500000000061
 30
0.0
  0
VERTEX
  5
2465
  8
SCAN
 10
101.4892999999999006
 20
-246.3581499999999949
 30
0.0
  0
VERTEX
  5
2466
  8
SCAN
 10
101.2109499999998974
 20
-246.0798000000000059
 30
0.0
  0
VERTEX
  5
2467
  8
SCAN
 10
100.9325999999996952
 20
-243.2962499999999864
 30
0.0
  0
VERTEX
  5
2468
  8
SCAN
 10
100.9325999999996952
 20
-238.2858500000000106
 30
0.0
  0
VERTEX
  5
2469
  8
SCAN
 10
101.4892999999999006
 20
-235.223899999999901
 30
0.0
  0
VERTEX
  5
246A
  8
SCAN
 10
102.324349999999697
 20
-233.4146000000000072
 30
0.0
  0
VERTEX
  5
246B
  8
SCAN
 10
103.4377999999998963
 20
-232.1620000000000061
 30
0.0
  0
VERTEX
  5
246C
  8
SCAN
 10
104.5511999999998949
 20
-231.4661000000000115
 30
0.0
  0
VERTEX
  5
246D
  8
SCAN
 10
106.638899999999893
 20
-230.9094000000000051
 30
0.0
  0
VERTEX
  5
246E
  8
SCAN
 10
110.9533999999999025
 20
-231.0485999999999933
 30
0.0
  0
VERTEX
  5
246F
  8
SCAN
 10
130.1599999999999113
 20
-234.3888499999999908
 30
0.0
  0
VERTEX
  5
2470
  8
SCAN
 10
133.917799999999886
 20
-235.223899999999901
 30
0.0
  0
VERTEX
  5
2471
  8
SCAN
 10
136.5621999999999048
 20
-236.198149999999913
 30
0.0
  0
VERTEX
  5
2472
  8
SCAN
 10
138.0931499999998948
 20
-237.1724000000000103
 30
0.0
  0
VERTEX
  5
2473
  8
SCAN
 10
139.0673999999999069
 20
-238.146649999999994
 30
0.0
  0
VERTEX
  5
2474
  8
SCAN
 10
139.9024499999999023
 20
-239.399249999999995
 30
0.0
  0
VERTEX
  5
2475
  8
SCAN
 10
140.5983499999998969
 20
-241.4869500000000073
 30
0.0
  0
VERTEX
  5
2476
  8
SCAN
 10
140.8766999999998859
 20
-243.8529499999999928
 30
0.0
  0
VERTEX
  5
2477
  8
SCAN
 10
140.7374999999998977
 20
-246.7757000000000005
 30
0.0
  0
SEQEND
  5
2478
  8
SCAN
  0
POLYLINE
  5
312
  8
SCAN
 66
     1
 10
0.0
 20
0.0
 30
0.0
 70
     1
  0
VERTEX
  5
2479
  8
SCAN
 10
144.2169499999999118
 20
-259.8584500000000048
 30
0.0
  0
VERTEX
  5
247A
  8
SCAN
 10
143.7994499999998936
 20
-259.9975999999999203
 30
0.0
  0
VERTEX
  5
247B
  8
SCAN
 10
141.7117499999999097
 20
-259.4408999999999992
 30
0.0
  0
VERTEX
  5
247C
  8
SCAN
 10
139.6240999999999133
 20
-259.4408999999999992
 30
0.0
  0
VERTEX
  5
247D
  8
SCAN
 10
138.3714999999999122
 20
-258.0491499999998837
 30
0.0
  0
VERTEX
  5
247E
  8
SCAN
 10
141.0158999999999025
 20
-257.9099499999999239
 30
0.0
  0
VERTEX
  5
247F
  8
SCAN
 10
140.4591499999999087
 20
-257.353249999999889
 30
0.0
  0
VERTEX
  5
2480
  8
SCAN
 10
138.510649999999913
 20
-256.2397999999997751
 30
0.0
  0
VERTEX
  5
2481
  8
SCAN
 10
136.9796999999998945
 20
-255.8223000000000127
 30
0.0
  0
VERTEX
  5
2482
  8
SCAN
 10
136.0054499999999109
 20
-255.8223000000000127
 30
0.0
  0
VERTEX
  5
2483
  8
SCAN
 10
134.4744999999998925
 20
-254.430499999999995
 30
0.0
  0
VERTEX
  5
2484
  8
SCAN
 10
136.9796999999998945
 20
-254.2913000000000068
 30
0.0
  0
VERTEX
  5
2485
  8
SCAN
 10
138.7890499999998895
 20
-254.7088500000000124
 30
0.0
  0
VERTEX
  5
2486
  8
SCAN
 10
140.3199999999999079
 20
-255.404750000000007
 30
0.0
  0
VERTEX
  5
2487
  8
SCAN
 10
142.2684999999999036
 20
-256.9356999999999971
 30
0.0
  0
VERTEX
  5
2488
  8
SCAN
 10
143.381899999999888
 20
-258.3274999999998727
 30
0.0
  0
SEQEND
  5
2489
  8
SCAN
  0
LINE
  5
314
  8
SCAN
 10
479.9999999999998863
 20
-149.2249999999999091
 30
0.0
 11
-0.0000000000000639
 21
-149.2249999999997101
 31
0.0
  0
LINE
  5
FE4
  8
CONSTRUCTION_LINES
 10
-0.0000000000000639
 20
-149.2249999999999091
 30
0.0
 11
19.9999999999999289
 21
-149.2249999999999091
 31
0.0
  0
LINE
  5
FE5
  8
CONSTRUCTION_LINES
 10
19.9999999999999289
 20
-149.2249999999999091
 30
0.0
 11
19.9999999999999289
 21
-174.2249999999999091
 31
0.0
  0
POLYLINE
  5
FE6
  8
CUT_1
 66
     1
 10
0.0
 20
0.0
 30
0.0
 70
     1
  0
VERTEX
  5
248A
  8
CUT_1
 10
19.9999999999999289
 20
-174.2249999999999091
 30
0.0
  0
VERTEX
  5
248B
  8
CUT_1
 10
19.9999999999999289
 20
-182.8000000000000114
 30
0.0
  0
VERTEX
  5
248C
  8
CUT_1
 10
119.9999999999999005
 20
-182.8000000000000114
 30
0.0
  0
VERTEX
  5
248D
  8
CUT_1
 10
119.9999999999999005
 20
-174.2249999999999943
 30
0.0
  0
SEQEND
  5
248E
  8
CUT_1
  0
LINE
  5
FE7
  8
CONSTRUCTION_LINES
 10
19.9999999999999289
 20
-149.2249999999997101
 30
0.0
 11
19.9999999999999396
 21
-124.2249999999996959
 31
0.0
  0
POLYLINE
  5
FE8
  8
CUT_1
 66
     1
 10
0.0
 20
0.0
 30
0.0
 70
     1
  0
VERTEX
  5
248F
  8
CUT_1
 10
19.9999999999999396
 20
-124.2249999999996959
 30
0.0
  0
VERTEX
  5
2490
  8
CUT_1
 10
19.9999999999999396
 20
-115.649999999999693
 30
0.0
  0
VERTEX
  5
2491
  8
CUT_1
 10
119.9999999999999005
 20
-115.6499999999998067
 30
0.0
  0
VERTEX
  5
2492
  8
CUT_1
 10
119.9999999999999005
 20
-124.2249999999997954
 30
0.0
  0
SEQEND
  5
2493
  8
CUT_1
  0
LINE
  5
FF3
  8
CONSTRUCTION_LINES
 10
159.9999999999998863
 20
-149.2249999999999091
 30
0.0
 11
179.9999999999998863
 21
-149.2249999999999091
 31
0.0
  0
LINE
  5
FF4
  8
CONSTRUCTION_LINES
 10
179.9999999999998863
 20
-149.2249999999999091
 30
0.0
 11
179.9999999999998863
 21
-174.2249999999999091
 31
0.0
  0
POLYLINE
  5
FF5
  8
CUT_1
 66
     1
 10
0.0
 20
0.0
 30
0.0
 70
     1
  0
VERTEX
  5
2494
  8
CUT_1
 10
179.9999999999998863
 20
-174.2249999999999091
 30
0.0
  0
VERTEX
  5
2495
  8
CUT_1
 10
179.9999999999998863
 20
-182.7999999999998977
 30
0.0
  0
VERTEX
  5
2496
  8
CUT_1
 10
279.9999999999998863
 20
-182.7999999999998977
 30
0.0
  0
VERTEX
  5
2497
  8
CUT_1
 10
279.9999999999998863
 20
-174.2249999999999091
 30
0.0
  0
SEQEND
  5
2498
  8
CUT_1
  0
LINE
  5
FF6
  8
CONSTRUCTION_LINES
 10
179.9999999999998863
 20
-149.2249999999997954
 30
0.0
 11
179.9999999999998863
 21
-124.2249999999997954
 31
0.0
  0
POLYLINE
  5
FF7
  8
CUT_1
 66
     1
 10
0.0
 20
0.0
 30
0.0
 70
     1
  0
VERTEX
  5
2499
  8
CUT_1
 10
179.9999999999998863
 20
-124.2249999999997954
 30
0.0
  0
VERTEX
  5
249A
  8
CUT_1
 10
179.9999999999998863
 20
-115.6499999999998067
 30
0.0
  0
VERTEX
  5
249B
  8
CUT_1
 10
279.9999999999998863
 20
-115.6499999999998067
 30
0.0
  0
VERTEX
  5
249C
  8
CUT_1
 10
279.9999999999998863
 20
-124.2249999999997954
 30
0.0
  0
SEQEND
  5
249D
  8
CUT_1
  0
LINE
  5
1002
  8
CONSTRUCTION_LINES
 10
319.9999999999998863
 20
-149.2249999999999091
 30
0.0
 11
339.9999999999998863
 21
-149.2249999999999091
 31
0.0
  0
LINE
  5
1003
  8
CONSTRUCTION_LINES
 10
339.9999999999998863
 20
-149.2249999999999091
 30
0.0
 11
339.9999999999998863
 21
-174.2249999999999091
 31
0.0
  0
POLYLINE
  5
1004
  8
CUT_1
 66
     1
 10
0.0
 20
0.0
 30
0.0
 70
     1
  0
VERTEX
  5
249E
  8
CUT_1
 10
339.9999999999998863
 20
-174.2249999999999091
 30
0.0
  0
VERTEX
  5
249F
  8
CUT_1
 10
339.9999999999998863
 20
-182.7999999999998977
 30
0.0
  0
VERTEX
  5
24A0
  8
CUT_1
 10
439.9999999999997726
 20
-182.7999999999998977
 30
0.0
  0
VERTEX
  5
24A1
  8
CUT_1
 10
439.9999999999997726
 20
-174.2249999999999091
 30
0.0
  0
SEQEND
  5
24A2
  8
CUT_1
  0
LINE
  5
1005
  8
CONSTRUCTION_LINES
 10
339.9999999999998863
 20
-149.2249999999997954
 30
0.0
 11
339.9999999999998863
 21
-124.2249999999997954
 31
0.0
  0
POLYLINE
  5
1006
  8
CUT_1
 66
     1
 10
0.0
 20
0.0
 30
0.0
 70
     1
  0
VERTEX
  5
24A3
  8
CUT_1
 10
339.9999999999998863
 20
-124.2249999999997954
 30
0.0
  0
VERTEX
  5
24A4
  8
CUT_1
 10
339.9999999999998863
 20
-115.6499999999998067
 30
0.0
  0
VERTEX
  5
24A5
  8
CUT_1
 10
439.9999999999998863
 20
-115.6499999999998067
 30
0.0
  0
VERTEX
  5
24A6
  8
CUT_1
 10
439.9999999999998863
 20
-124.2249999999997954
 30
0.0
  0
SEQEND
  5
24A7
  8
CUT_1
  0
POLYLINE
  5
1DE9
  8
CUT_1
 62
     3
 66
     1
 10
0.0
 20
0.0
 30
0.0
  0
VERTEX
  5
1DEA
  8
CUT_1
 62
     3
 10
339.8650826646580754
 20
-24.9873599233998789
 30
0.0
  0
VERTEX
  5
1DEB
  8
CUT_1
 62
     3
 10
339.8650826646580754
 20
-14.9653054905379008
 30
0.0
  0
VERTEX
  5
1DEC
  8
CUT_1
 62
     3
 10
349.8871370975201103
 20
-22.4407723216070885
 30
0.0
  0
VERTEX
  5
1DED
  8
CUT_1
 62
     3
 10
334.8540554482269727
 20
-22.4407723216070885
 30
0.0
  0
SEQEND
  5
1DEE
  8
CUT_1
 62
     3
  0
POLYLINE
  5
1DEF
  8
CUT_1
 62
     3
 66
     1
 10
0.0
 20
0.0
 30
0.0
 70
     1
  0
VERTEX
  5
1DF0
  8
CUT_1
 62
     3
 10
334.8540554482269727
 20
-32.4628267544690132
 30
0.0
  0
VERTEX
  5
1DF1
  8
CUT_1
 62
     3
 10
337.4006430500198803
 20
-29.9983871398308111
 30
0.0
  0
VERTEX
  5
1DF2
  8
CUT_1
 62
     3
 10
347.4226974828819152
 20
-29.9983871398308111
 30
0.0
  0
VERTEX
  5
1DF3
  8
CUT_1
 62
     3
 10
349.8871370975201103
 20
-32.4628267544690132
 30
0.0
  0
VERTEX
  5
1DF4
  8
CUT_1
 62
     3
 10
349.8871370975201103
 20
-35.0094143562618001
 30
0.0
  0
VERTEX
  5
1DF5
  8
CUT_1
 62
     3
 10
347.4226974828819152
 20
-37.473853970899988
 30
0.0
  0
VERTEX
  5
1DF6
  8
CUT_1
 62
     3
 10
337.4006430500198803
 20
-37.473853970899988
 30
0.0
  0
VERTEX
  5
1DF7
  8
CUT_1
 62
     3
 10
334.8540554482269727
 20
-35.0094143562618001
 30
0.0
  0
VERTEX
  5
1DF8
  8
CUT_1
 62
     3
 10
334.8540554482269727
 20
-32.4628267544690132
 30
0.0
  0
SEQEND
  5
1DF9
  8
CUT_1
 62
     3
  0
POLYLINE
  5
1DFA
  8
CUT_1
 62
     3
 66
     1
 10
0.0
 20
0.0
 30
0.0
  0
VERTEX
  5
1DFB
  8
CUT_1
 62
     3
 10
334.8540554482269727
 20
-57.4358148494692387
 30
0.0
  0
VERTEX
  5
1DFC
  8
CUT_1
 62
     3
 10
349.8871370975201103
 20
-57.4358148494692387
 30
0.0
  0
SEQEND
  5
1DFD
  8
CUT_1
 62
     3
  0
POLYLINE
  5
1DFE
  8
CUT_1
 62
     3
 66
     1
 10
0.0
 20
0.0
 30
0.0
  0
VERTEX
  5
1DFF
  8
CUT_1
 62
     3
 10
349.8871370975201103
 20
-67.4578692823311457
 30
0.0
  0
VERTEX
  5
1E00
  8
CUT_1
 62
     3
 10
342.4116702664508125
 20
-59.9824024512620326
 30
0.0
  0
VERTEX
  5
1E01
  8
CUT_1
 62
     3
 10
342.4116702664508125
 20
-57.4358148494692387
 30
0.0
  0
SEQEND
  5
1E02
  8
CUT_1
 62
     3
  0
POLYLINE
  5
1E03
  8
CUT_1
 62
     3
 66
     1
 10
0.0
 20
0.0
 30
0.0
  0
VERTEX
  5
1E04
  8
CUT_1
 62
     3
 10
342.4116702664508125
 20
-59.9824024512620326
 30
0.0
  0
VERTEX
  5
1E05
  8
CUT_1
 62
     3
 10
334.8540554482269727
 20
-67.4578692823311457
 30
0.0
  0
SEQEND
  5
1E06
  8
CUT_1
 62
     3
  0
POLYLINE
  5
1E07
  8
CUT_1
 62
     3
 66
     1
 10
0.0
 20
0.0
 30
0.0
  0
VERTEX
  5
1E08
  8
CUT_1
 62
     3
 10
334.8540554482269727
 20
-72.4688964987621489
 30
0.0
  0
VERTEX
  5
1E09
  8
CUT_1
 62
     3
 10
349.8871370975201103
 20
-72.4688964987621489
 30
0.0
  0
SEQEND
  5
1E0A
  8
CUT_1
 62
     3
  0
POLYLINE
  5
1E0B
  8
CUT_1
 62
     3
 66
     1
 10
0.0
 20
0.0
 30
0.0
  0
VERTEX
  5
1E0C
  8
CUT_1
 62
     3
 10
342.4116702664508125
 20
-72.4688964987621489
 30
0.0
  0
VERTEX
  5
1E0D
  8
CUT_1
 62
     3
 10
342.4116702664508125
 20
-82.4909509316240843
 30
0.0
  0
SEQEND
  5
1E0E
  8
CUT_1
 62
     3
  0
POLYLINE
  5
1E0F
  8
CUT_1
 62
     3
 66
     1
 10
0.0
 20
0.0
 30
0.0
  0
VERTEX
  5
1E10
  8
CUT_1
 62
     3
 10
349.8871370975201103
 20
-82.4909509316240843
 30
0.0
  0
VERTEX
  5
1E11
  8
CUT_1
 62
     3
 10
334.8540554482269727
 20
-82.4909509316240843
 30
0.0
  0
SEQEND
  5
1E12
  8
CUT_1
 62
     3
  0
POLYLINE
  5
1E13
  8
CUT_1
 62
     3
 66
     1
 10
0.0
 20
0.0
 30
0.0
  0
VERTEX
  5
1E14
  8
CUT_1
 62
     3
 10
344.8761098810888939
 20
-87.5019781480550591
 30
0.0
  0
VERTEX
  5
1E15
  8
CUT_1
 62
     3
 10
344.8761098810888939
 20
-97.4418845937623956
 30
0.0
  0
VERTEX
  5
1E16
  8
CUT_1
 62
     3
 10
334.8540554482269727
 20
-87.5019781480550591
 30
0.0
  0
VERTEX
  5
1E17
  8
CUT_1
 62
     3
 10
334.8540554482269727
 20
-97.4418845937623956
 30
0.0
  0
SEQEND
  5
1E18
  8
CUT_1
 62
     3
  0
POLYLINE
  5
1E19
  8
CUT_1
 62
     3
 66
     1
 10
0.0
 20
0.0
 30
0.0
  0
VERTEX
  5
1E1A
  8
CUT_1
 62
     3
 10
180.1693956361039
 20
-24.9873599233998789
 30
0.0
  0
VERTEX
  5
1E1B
  8
CUT_1
 62
     3
 10
180.1693956361039
 20
-14.9653054905379008
 30
0.0
  0
VERTEX
  5
1E1C
  8
CUT_1
 62
     3
 10
190.1093020818111086
 20
-22.4407723216070885
 30
0.0
  0
VERTEX
  5
1E1D
  8
CUT_1
 62
     3
 10
175.1583684196729962
 20
-22.4407723216070885
 30
0.0
  0
SEQEND
  5
1E1E
  8
CUT_1
 62
     3
  0
POLYLINE
  5
1E1F
  8
CUT_1
 62
     3
 66
     1
 10
0.0
 20
0.0
 30
0.0
 70
     1
  0
VERTEX
  5
1E20
  8
CUT_1
 62
     3
 10
175.1583684196729962
 20
-32.4628267544690132
 30
0.0
  0
VERTEX
  5
1E21
  8
CUT_1
 62
     3
 10
177.6228080343111912
 20
-29.9983871398308111
 30
0.0
  0
VERTEX
  5
1E22
  8
CUT_1
 62
     3
 10
187.6448624671731977
 20
-29.9983871398308111
 30
0.0
  0
VERTEX
  5
1E23
  8
CUT_1
 62
     3
 10
190.1093020818111086
 20
-32.4628267544690132
 30
0.0
  0
VERTEX
  5
1E24
  8
CUT_1
 62
     3
 10
190.1093020818111086
 20
-35.0094143562618001
 30
0.0
  0
VERTEX
  5
1E25
  8
CUT_1
 62
     3
 10
187.6448624671731977
 20
-37.473853970899988
 30
0.0
  0
VERTEX
  5
1E26
  8
CUT_1
 62
     3
 10
177.6228080343111912
 20
-37.473853970899988
 30
0.0
  0
VERTEX
  5
1E27
  8
CUT_1
 62
     3
 10
175.1583684196729962
 20
-35.0094143562618001
 30
0.0
  0
VERTEX
  5
1E28
  8
CUT_1
 62
     3
 10
175.1583684196729962
 20
-32.4628267544690132
 30
0.0
  0
SEQEND
  5
1E29
  8
CUT_1
 62
     3
  0
POLYLINE
  5
1E2A
  8
CUT_1
 62
     3
 66
     1
 10
0.0
 20
0.0
 30
0.0
  0
VERTEX
  5
1E2B
  8
CUT_1
 62
     3
 10
175.1583684196729962
 20
-57.4358148494692387
 30
0.0
  0
VERTEX
  5
1E2C
  8
CUT_1
 62
     3
 10
190.1093020818111086
 20
-57.4358148494692387
 30
0.0
  0
SEQEND
  5
1E2D
  8
CUT_1
 62
     3
  0
POLYLINE
  5
1E2E
  8
CUT_1
 62
     3
 66
     1
 10
0.0
 20
0.0
 30
0.0
  0
VERTEX
  5
1E2F
  8
CUT_1
 62
     3
 10
190.1093020818111086
 20
-67.4578692823311457
 30
0.0
  0
VERTEX
  5
1E30
  8
CUT_1
 62
     3
 10
182.633835250742095
 20
-59.9824024512620326
 30
0.0
  0
VERTEX
  5
1E31
  8
CUT_1
 62
     3
 10
182.633835250742095
 20
-57.4358148494692387
 30
0.0
  0
SEQEND
  5
1E32
  8
CUT_1
 62
     3
  0
POLYLINE
  5
1E33
  8
CUT_1
 62
     3
 66
     1
 10
0.0
 20
0.0
 30
0.0
  0
VERTEX
  5
1E34
  8
CUT_1
 62
     3
 10
182.633835250742095
 20
-59.9824024512620326
 30
0.0
  0
VERTEX
  5
1E35
  8
CUT_1
 62
     3
 10
175.1583684196729962
 20
-67.4578692823311457
 30
0.0
  0
SEQEND
  5
1E36
  8
CUT_1
 62
     3
  0
POLYLINE
  5
1E37
  8
CUT_1
 62
     3
 66
     1
 10
0.0
 20
0.0
 30
0.0
  0
VERTEX
  5
1E38
  8
CUT_1
 62
     3
 10
175.1583684196729962
 20
-72.4688964987621489
 30
0.0
  0
VERTEX
  5
1E39
  8
CUT_1
 62
     3
 10
190.1093020818111086
 20
-72.4688964987621489
 30
0.0
  0
SEQEND
  5
1E3A
  8
CUT_1
 62
     3
  0
POLYLINE
  5
1E3B
  8
CUT_1
 62
     3
 66
     1
 10
0.0
 20
0.0
 30
0.0
  0
VERTEX
  5
1E3C
  8
CUT_1
 62
     3
 10
182.633835250742095
 20
-72.4688964987621489
 30
0.0
  0
VERTEX
  5
1E3D
  8
CUT_1
 62
     3
 10
182.633835250742095
 20
-82.4909509316240843
 30
0.0
  0
SEQEND
  5
1E3E
  8
CUT_1
 62
     3
  0
POLYLINE
  5
1E3F
  8
CUT_1
 62
     3
 66
     1
 10
0.0
 20
0.0
 30
0.0
  0
VERTEX
  5
1E40
  8
CUT_1
 62
     3
 10
190.1093020818111086
 20
-82.4909509316240843
 30
0.0
  0
VERTEX
  5
1E41
  8
CUT_1
 62
     3
 10
175.1583684196729962
 20
-82.4909509316240843
 30
0.0
  0
SEQEND
  5
1E42
  8
CUT_1
 62
     3
  0
POLYLINE
  5
1E43
  8
CUT_1
 62
     3
 66
     1
 10
0.0
 20
0.0
 30
0.0
  0
VERTEX
  5
1E44
  8
CUT_1
 62
     3
 10
185.1804228525350027
 20
-87.5019781480550591
 30
0.0
  0
VERTEX
  5
1E45
  8
CUT_1
 62
     3
 10
185.1804228525350027
 20
-97.4418845937623956
 30
0.0
  0
VERTEX
  5
1E46
  8
CUT_1
 62
     3
 10
175.1583684196729962
 20
-87.5019781480550591
 30
0.0
  0
VERTEX
  5
1E47
  8
CUT_1
 62
     3
 10
175.1583684196729962
 20
-97.4418845937623956
 30
0.0
  0
SEQEND
  5
1E48
  8
CUT_1
 62
     3
  0
POLYLINE
  5
1E49
  8
CUT_1
 62
     3
 66
     1
 10
0.0
 20
0.0
 30
0.0
  0
VERTEX
  5
1E4A
  8
CUT_1
 62
     3
 10
20.2272646460860415
 20
-24.9873599233998789
 30
0.0
  0
VERTEX
  5
1E4B
  8
CUT_1
 62
     3
 10
20.2272646460860415
 20
-14.9653054905379008
 30
0.0
  0
VERTEX
  5
1E4C
  8
CUT_1
 62
     3
 10
30.2493190789480195
 20
-22.4407723216070885
 30
0.0
  0
VERTEX
  5
1E4D
  8
CUT_1
 62
     3
 10
15.2162374296549405
 20
-22.4407723216070885
 30
0.0
  0
SEQEND
  5
1E4E
  8
CUT_1
 62
     3
  0
POLYLINE
  5
1E4F
  8
CUT_1
 62
     3
 66
     1
 10
0.0
 20
0.0
 30
0.0
 70
     1
  0
VERTEX
  5
1E50
  8
CUT_1
 62
     3
 10
15.2162374296549405
 20
-32.4628267544690132
 30
0.0
  0
VERTEX
  5
1E51
  8
CUT_1
 62
     3
 10
17.7628250314478393
 20
-29.9983871398308111
 30
0.0
  0
VERTEX
  5
1E52
  8
CUT_1
 62
     3
 10
27.7848794643098316
 20
-29.9983871398308111
 30
0.0
  0
VERTEX
  5
1E53
  8
CUT_1
 62
     3
 10
30.2493190789480195
 20
-32.4628267544690132
 30
0.0
  0
VERTEX
  5
1E54
  8
CUT_1
 62
     3
 10
30.2493190789480195
 20
-35.0094143562618001
 30
0.0
  0
VERTEX
  5
1E55
  8
CUT_1
 62
     3
 10
27.7848794643098316
 20
-37.473853970899988
 30
0.0
  0
VERTEX
  5
1E56
  8
CUT_1
 62
     3
 10
17.7628250314478393
 20
-37.473853970899988
 30
0.0
  0
VERTEX
  5
1E57
  8
CUT_1
 62
     3
 10
15.2162374296549405
 20
-35.0094143562618001
 30
0.0
  0
VERTEX
  5
1E58
  8
CUT_1
 62
     3
 10
15.2162374296549405
 20
-32.4628267544690132
 30
0.0
  0
SEQEND
  5
1E59
  8
CUT_1
 62
     3
  0
POLYLINE
  5
1E5A
  8
CUT_1
 62
     3
 66
     1
 10
0.0
 20
0.0
 30
0.0
  0
VERTEX
  5
1E5B
  8
CUT_1
 62
     3
 10
15.2162374296549405
 20
-57.4358148494692387
 30
0.0
  0
VERTEX
  5
1E5C
  8
CUT_1
 62
     3
 10
30.2493190789480195
 20
-57.4358148494692387
 30
0.0
  0
SEQEND
  5
1E5D
  8
CUT_1
 62
     3
  0
POLYLINE
  5
1E5E
  8
CUT_1
 62
     3
 66
     1
 10
0.0
 20
0.0
 30
0.0
  0
VERTEX
  5
1E5F
  8
CUT_1
 62
     3
 10
30.2493190789480195
 20
-67.4578692823311457
 30
0.0
  0
VERTEX
  5
1E60
  8
CUT_1
 62
     3
 10
22.7738522478787218
 20
-59.9824024512620326
 30
0.0
  0
VERTEX
  5
1E61
  8
CUT_1
 62
     3
 10
22.7738522478787218
 20
-57.4358148494692387
 30
0.0
  0
SEQEND
  5
1E62
  8
CUT_1
 62
     3
  0
POLYLINE
  5
1E63
  8
CUT_1
 62
     3
 66
     1
 10
0.0
 20
0.0
 30
0.0
  0
VERTEX
  5
1E64
  8
CUT_1
 62
     3
 10
22.7738522478787218
 20
-59.9824024512620326
 30
0.0
  0
VERTEX
  5
1E65
  8
CUT_1
 62
     3
 10
15.2162374296549405
 20
-67.4578692823311457
 30
0.0
  0
SEQEND
  5
1E66
  8
CUT_1
 62
     3
  0
POLYLINE
  5
1E67
  8
CUT_1
 62
     3
 66
     1
 10
0.0
 20
0.0
 30
0.0
  0
VERTEX
  5
1E68
  8
CUT_1
 62
     3
 10
15.2162374296549405
 20
-72.4688964987621489
 30
0.0
  0
VERTEX
  5
1E69
  8
CUT_1
 62
     3
 10
30.2493190789480195
 20
-72.4688964987621489
 30
0.0
  0
SEQEND
  5
1E6A
  8
CUT_1
 62
     3
  0
POLYLINE
  5
1E6B
  8
CUT_1
 62
     3
 66
     1
 10
0.0
 20
0.0
 30
0.0
  0
VERTEX
  5
1E6C
  8
CUT_1
 62
     3
 10
22.7738522478787218
 20
-72.4688964987621489
 30
0.0
  0
VERTEX
  5
1E6D
  8
CUT_1
 62
     3
 10
22.7738522478787218
 20
-82.4909509316240843
 30
0.0
  0
SEQEND
  5
1E6E
  8
CUT_1
 62
     3
  0
POLYLINE
  5
1E6F
  8
CUT_1
 62
     3
 66
     1
 10
0.0
 20
0.0
 30
0.0
  0
VERTEX
  5
1E70
  8
CUT_1
 62
     3
 10
30.2493190789480195
 20
-82.4909509316240843
 30
0.0
  0
VERTEX
  5
1E71
  8
CUT_1
 62
     3
 10
15.2162374296549405
 20
-82.4909509316240843
 30
0.0
  0
SEQEND
  5
1E72
  8
CUT_1
 62
     3
  0
POLYLINE
  5
1E73
  8
CUT_1
 62
     3
 66
     1
 10
0.0
 20
0.0
 30
0.0
  0
VERTEX
  5
1E74
  8
CUT_1
 62
     3
 10
25.2382918625169204
 20
-87.5019781480550591
 30
0.0
  0
VERTEX
  5
1E75
  8
CUT_1
 62
     3
 10
25.2382918625169204
 20
-97.4418845937623956
 30
0.0
  0
VERTEX
  5
1E76
  8
CUT_1
 62
     3
 10
15.2162374296549405
 20
-87.5019781480550591
 30
0.0
  0
VERTEX
  5
1E77
  8
CUT_1
 62
     3
 10
15.2162374296549405
 20
-97.4418845937623956
 30
0.0
  0
SEQEND
  5
1E78
  8
CUT_1
 62
     3
  0
ENDSEC
  0
EOF
