ISO-10303-21;
HEADER;
/* Generated by software containing ST-Developer
 * from STEP Tools, Inc. (www.steptools.com) 
 */

FILE_DESCRIPTION(
/* description */ (''),
/* implementation_level */ '2;1');

FILE_NAME(
/* name */ 'Slit holder.stp',
/* time_stamp */ '2026-07-29T12:16:01-05:00',
/* author */ ('blaze'),
/* organization */ (''),
/* preprocessor_version */ 'ST-DEVELOPER v20.1',
/* originating_system */ 'Autodesk Inventor 2027',
/* authorisation */ '');

FILE_SCHEMA (('AUTOMOTIVE_DESIGN { 1 0 10303 214 3 1 1 }'));
ENDSEC;

DATA;
#10=MECHANICAL_DESIGN_GEOMETRIC_PRESENTATION_REPRESENTATION('',(#13),#686);
#11=SHAPE_REPRESENTATION_RELATIONSHIP('SRR','None',#697,#12);
#12=ADVANCED_BREP_SHAPE_REPRESENTATION('',(#14),#685);
#13=STYLED_ITEM('',(#706),#14);
#14=MANIFOLD_SOLID_BREP('Solid1',#416);
#15=FACE_BOUND('',#64,.T.);
#16=FACE_BOUND('',#72,.T.);
#17=FACE_BOUND('',#77,.T.);
#18=FACE_BOUND('',#78,.T.);
#19=FACE_BOUND('',#85,.T.);
#20=FACE_BOUND('',#86,.T.);
#21=PLANE('',#447);
#22=PLANE('',#448);
#23=PLANE('',#449);
#24=PLANE('',#450);
#25=PLANE('',#451);
#26=PLANE('',#452);
#27=PLANE('',#453);
#28=PLANE('',#454);
#29=PLANE('',#455);
#30=PLANE('',#456);
#31=PLANE('',#457);
#32=PLANE('',#458);
#33=PLANE('',#459);
#34=PLANE('',#460);
#35=PLANE('',#461);
#36=PLANE('',#462);
#37=PLANE('',#463);
#38=PLANE('',#464);
#39=FACE_OUTER_BOUND('',#60,.T.);
#40=FACE_OUTER_BOUND('',#61,.T.);
#41=FACE_OUTER_BOUND('',#62,.T.);
#42=FACE_OUTER_BOUND('',#63,.T.);
#43=FACE_OUTER_BOUND('',#65,.T.);
#44=FACE_OUTER_BOUND('',#66,.T.);
#45=FACE_OUTER_BOUND('',#67,.T.);
#46=FACE_OUTER_BOUND('',#68,.T.);
#47=FACE_OUTER_BOUND('',#69,.T.);
#48=FACE_OUTER_BOUND('',#70,.T.);
#49=FACE_OUTER_BOUND('',#71,.T.);
#50=FACE_OUTER_BOUND('',#73,.T.);
#51=FACE_OUTER_BOUND('',#74,.T.);
#52=FACE_OUTER_BOUND('',#75,.T.);
#53=FACE_OUTER_BOUND('',#76,.T.);
#54=FACE_OUTER_BOUND('',#79,.T.);
#55=FACE_OUTER_BOUND('',#80,.T.);
#56=FACE_OUTER_BOUND('',#81,.T.);
#57=FACE_OUTER_BOUND('',#82,.T.);
#58=FACE_OUTER_BOUND('',#83,.T.);
#59=FACE_OUTER_BOUND('',#84,.T.);
#60=EDGE_LOOP('',(#282,#283,#284,#285));
#61=EDGE_LOOP('',(#286,#287,#288,#289));
#62=EDGE_LOOP('',(#290,#291,#292,#293));
#63=EDGE_LOOP('',(#294,#295,#296,#297));
#64=EDGE_LOOP('',(#298));
#65=EDGE_LOOP('',(#299,#300,#301,#302));
#66=EDGE_LOOP('',(#303,#304,#305,#306));
#67=EDGE_LOOP('',(#307,#308,#309,#310));
#68=EDGE_LOOP('',(#311,#312,#313,#314));
#69=EDGE_LOOP('',(#315,#316,#317,#318,#319));
#70=EDGE_LOOP('',(#320,#321,#322,#323));
#71=EDGE_LOOP('',(#324,#325,#326,#327,#328));
#72=EDGE_LOOP('',(#329));
#73=EDGE_LOOP('',(#330,#331,#332,#333,#334,#335));
#74=EDGE_LOOP('',(#336,#337,#338,#339,#340,#341));
#75=EDGE_LOOP('',(#342,#343,#344,#345,#346,#347,#348,#349));
#76=EDGE_LOOP('',(#350,#351,#352,#353));
#77=EDGE_LOOP('',(#354));
#78=EDGE_LOOP('',(#355));
#79=EDGE_LOOP('',(#356,#357,#358,#359,#360,#361,#362,#363,#364,#365));
#80=EDGE_LOOP('',(#366,#367,#368,#369));
#81=EDGE_LOOP('',(#370,#371,#372,#373));
#82=EDGE_LOOP('',(#374,#375,#376,#377));
#83=EDGE_LOOP('',(#378,#379,#380,#381,#382,#383,#384,#385));
#84=EDGE_LOOP('',(#386,#387,#388,#389));
#85=EDGE_LOOP('',(#390));
#86=EDGE_LOOP('',(#391));
#87=LINE('',#575,#136);
#88=LINE('',#581,#137);
#89=LINE('',#587,#138);
#90=LINE('',#592,#139);
#91=LINE('',#594,#140);
#92=LINE('',#596,#141);
#93=LINE('',#597,#142);
#94=LINE('',#601,#143);
#95=LINE('',#603,#144);
#96=LINE('',#605,#145);
#97=LINE('',#606,#146);
#98=LINE('',#609,#147);
#99=LINE('',#611,#148);
#100=LINE('',#612,#149);
#101=LINE('',#615,#150);
#102=LINE('',#616,#151);
#103=LINE('',#620,#152);
#104=LINE('',#622,#153);
#105=LINE('',#624,#154);
#106=LINE('',#625,#155);
#107=LINE('',#628,#156);
#108=LINE('',#630,#157);
#109=LINE('',#632,#158);
#110=LINE('',#633,#159);
#111=LINE('',#636,#160);
#112=LINE('',#638,#161);
#113=LINE('',#640,#162);
#114=LINE('',#641,#163);
#115=LINE('',#644,#164);
#116=LINE('',#645,#165);
#117=LINE('',#648,#166);
#118=LINE('',#650,#167);
#119=LINE('',#652,#168);
#120=LINE('',#654,#169);
#121=LINE('',#655,#170);
#122=LINE('',#658,#171);
#123=LINE('',#660,#172);
#124=LINE('',#662,#173);
#125=LINE('',#664,#174);
#126=LINE('',#665,#175);
#127=LINE('',#667,#176);
#128=LINE('',#668,#177);
#129=LINE('',#670,#178);
#130=LINE('',#671,#179);
#131=LINE('',#673,#180);
#132=LINE('',#674,#181);
#133=LINE('',#676,#182);
#134=LINE('',#678,#183);
#135=LINE('',#680,#184);
#136=VECTOR('',#471,0.0787401575);
#137=VECTOR('',#478,0.0787401574999999);
#138=VECTOR('',#485,0.0787401575);
#139=VECTOR('',#490,0.393700787401575);
#140=VECTOR('',#491,0.393700787401575);
#141=VECTOR('',#492,0.393700787401575);
#142=VECTOR('',#493,0.393700787401575);
#143=VECTOR('',#496,0.393700787401575);
#144=VECTOR('',#497,0.393700787401575);
#145=VECTOR('',#498,0.393700787401575);
#146=VECTOR('',#499,0.393700787401575);
#147=VECTOR('',#502,0.393700787401575);
#148=VECTOR('',#503,0.393700787401575);
#149=VECTOR('',#504,0.393700787401575);
#150=VECTOR('',#507,0.393700787401575);
#151=VECTOR('',#508,0.393700787401575);
#152=VECTOR('',#511,0.393700787401575);
#153=VECTOR('',#512,0.393700787401575);
#154=VECTOR('',#513,0.393700787401575);
#155=VECTOR('',#514,0.393700787401575);
#156=VECTOR('',#517,0.393700787401575);
#157=VECTOR('',#518,0.393700787401575);
#158=VECTOR('',#519,0.393700787401575);
#159=VECTOR('',#520,0.393700787401575);
#160=VECTOR('',#523,0.393700787401575);
#161=VECTOR('',#524,0.393700787401575);
#162=VECTOR('',#525,0.393700787401575);
#163=VECTOR('',#526,0.393700787401575);
#164=VECTOR('',#529,0.393700787401575);
#165=VECTOR('',#530,0.393700787401575);
#166=VECTOR('',#533,0.393700787401575);
#167=VECTOR('',#534,0.393700787401575);
#168=VECTOR('',#535,0.393700787401575);
#169=VECTOR('',#536,0.393700787401575);
#170=VECTOR('',#537,0.393700787401575);
#171=VECTOR('',#540,0.393700787401575);
#172=VECTOR('',#541,0.393700787401575);
#173=VECTOR('',#542,0.393700787401575);
#174=VECTOR('',#543,0.393700787401575);
#175=VECTOR('',#544,0.393700787401575);
#176=VECTOR('',#547,0.393700787401575);
#177=VECTOR('',#548,0.393700787401575);
#178=VECTOR('',#551,0.393700787401575);
#179=VECTOR('',#552,0.393700787401575);
#180=VECTOR('',#555,0.393700787401575);
#181=VECTOR('',#556,0.393700787401575);
#182=VECTOR('',#559,0.393700787401575);
#183=VECTOR('',#562,0.393700787401575);
#184=VECTOR('',#565,0.393700787401575);
#185=CIRCLE('',#439,0.0787401575);
#186=CIRCLE('',#440,0.0787401575);
#187=CIRCLE('',#442,0.0787401574999999);
#188=CIRCLE('',#443,0.0787401574999999);
#189=CIRCLE('',#445,0.0787401575);
#190=CIRCLE('',#446,0.0787401575);
#191=VERTEX_POINT('',#572);
#192=VERTEX_POINT('',#574);
#193=VERTEX_POINT('',#578);
#194=VERTEX_POINT('',#580);
#195=VERTEX_POINT('',#584);
#196=VERTEX_POINT('',#586);
#197=VERTEX_POINT('',#590);
#198=VERTEX_POINT('',#591);
#199=VERTEX_POINT('',#593);
#200=VERTEX_POINT('',#595);
#201=VERTEX_POINT('',#599);
#202=VERTEX_POINT('',#600);
#203=VERTEX_POINT('',#602);
#204=VERTEX_POINT('',#604);
#205=VERTEX_POINT('',#608);
#206=VERTEX_POINT('',#610);
#207=VERTEX_POINT('',#614);
#208=VERTEX_POINT('',#618);
#209=VERTEX_POINT('',#619);
#210=VERTEX_POINT('',#621);
#211=VERTEX_POINT('',#623);
#212=VERTEX_POINT('',#627);
#213=VERTEX_POINT('',#629);
#214=VERTEX_POINT('',#631);
#215=VERTEX_POINT('',#635);
#216=VERTEX_POINT('',#637);
#217=VERTEX_POINT('',#639);
#218=VERTEX_POINT('',#643);
#219=VERTEX_POINT('',#647);
#220=VERTEX_POINT('',#649);
#221=VERTEX_POINT('',#651);
#222=VERTEX_POINT('',#653);
#223=VERTEX_POINT('',#657);
#224=VERTEX_POINT('',#659);
#225=VERTEX_POINT('',#661);
#226=VERTEX_POINT('',#663);
#227=EDGE_CURVE('',#191,#191,#185,.T.);
#228=EDGE_CURVE('',#191,#192,#87,.T.);
#229=EDGE_CURVE('',#192,#192,#186,.T.);
#230=EDGE_CURVE('',#193,#193,#187,.T.);
#231=EDGE_CURVE('',#193,#194,#88,.T.);
#232=EDGE_CURVE('',#194,#194,#188,.T.);
#233=EDGE_CURVE('',#195,#195,#189,.T.);
#234=EDGE_CURVE('',#195,#196,#89,.T.);
#235=EDGE_CURVE('',#196,#196,#190,.T.);
#236=EDGE_CURVE('',#197,#198,#90,.T.);
#237=EDGE_CURVE('',#199,#197,#91,.T.);
#238=EDGE_CURVE('',#200,#199,#92,.T.);
#239=EDGE_CURVE('',#198,#200,#93,.T.);
#240=EDGE_CURVE('',#201,#202,#94,.T.);
#241=EDGE_CURVE('',#203,#201,#95,.T.);
#242=EDGE_CURVE('',#204,#203,#96,.T.);
#243=EDGE_CURVE('',#204,#202,#97,.T.);
#244=EDGE_CURVE('',#205,#198,#98,.T.);
#245=EDGE_CURVE('',#205,#206,#99,.T.);
#246=EDGE_CURVE('',#197,#206,#100,.T.);
#247=EDGE_CURVE('',#207,#200,#101,.T.);
#248=EDGE_CURVE('',#207,#205,#102,.T.);
#249=EDGE_CURVE('',#208,#209,#103,.T.);
#250=EDGE_CURVE('',#210,#208,#104,.T.);
#251=EDGE_CURVE('',#211,#210,#105,.T.);
#252=EDGE_CURVE('',#209,#211,#106,.T.);
#253=EDGE_CURVE('',#209,#212,#107,.T.);
#254=EDGE_CURVE('',#213,#211,#108,.T.);
#255=EDGE_CURVE('',#214,#213,#109,.T.);
#256=EDGE_CURVE('',#212,#214,#110,.T.);
#257=EDGE_CURVE('',#206,#215,#111,.T.);
#258=EDGE_CURVE('',#216,#206,#112,.T.);
#259=EDGE_CURVE('',#217,#216,#113,.T.);
#260=EDGE_CURVE('',#215,#217,#114,.T.);
#261=EDGE_CURVE('',#218,#207,#115,.T.);
#262=EDGE_CURVE('',#216,#218,#116,.T.);
#263=EDGE_CURVE('',#208,#219,#117,.T.);
#264=EDGE_CURVE('',#219,#220,#118,.T.);
#265=EDGE_CURVE('',#220,#221,#119,.T.);
#266=EDGE_CURVE('',#222,#221,#120,.T.);
#267=EDGE_CURVE('',#210,#222,#121,.T.);
#268=EDGE_CURVE('',#217,#223,#122,.T.);
#269=EDGE_CURVE('',#224,#223,#123,.T.);
#270=EDGE_CURVE('',#225,#224,#124,.T.);
#271=EDGE_CURVE('',#225,#226,#125,.T.);
#272=EDGE_CURVE('',#226,#215,#126,.T.);
#273=EDGE_CURVE('',#223,#222,#127,.T.);
#274=EDGE_CURVE('',#213,#218,#128,.T.);
#275=EDGE_CURVE('',#219,#226,#129,.T.);
#276=EDGE_CURVE('',#220,#225,#130,.T.);
#277=EDGE_CURVE('',#209,#202,#131,.T.);
#278=EDGE_CURVE('',#199,#204,#132,.T.);
#279=EDGE_CURVE('',#201,#212,#133,.T.);
#280=EDGE_CURVE('',#221,#224,#134,.T.);
#281=EDGE_CURVE('',#203,#214,#135,.T.);
#282=ORIENTED_EDGE('',*,*,#227,.F.);
#283=ORIENTED_EDGE('',*,*,#228,.T.);
#284=ORIENTED_EDGE('',*,*,#229,.F.);
#285=ORIENTED_EDGE('',*,*,#228,.F.);
#286=ORIENTED_EDGE('',*,*,#230,.F.);
#287=ORIENTED_EDGE('',*,*,#231,.T.);
#288=ORIENTED_EDGE('',*,*,#232,.F.);
#289=ORIENTED_EDGE('',*,*,#231,.F.);
#290=ORIENTED_EDGE('',*,*,#233,.F.);
#291=ORIENTED_EDGE('',*,*,#234,.T.);
#292=ORIENTED_EDGE('',*,*,#235,.F.);
#293=ORIENTED_EDGE('',*,*,#234,.F.);
#294=ORIENTED_EDGE('',*,*,#236,.F.);
#295=ORIENTED_EDGE('',*,*,#237,.F.);
#296=ORIENTED_EDGE('',*,*,#238,.F.);
#297=ORIENTED_EDGE('',*,*,#239,.F.);
#298=ORIENTED_EDGE('',*,*,#235,.T.);
#299=ORIENTED_EDGE('',*,*,#240,.F.);
#300=ORIENTED_EDGE('',*,*,#241,.F.);
#301=ORIENTED_EDGE('',*,*,#242,.F.);
#302=ORIENTED_EDGE('',*,*,#243,.T.);
#303=ORIENTED_EDGE('',*,*,#236,.T.);
#304=ORIENTED_EDGE('',*,*,#244,.F.);
#305=ORIENTED_EDGE('',*,*,#245,.T.);
#306=ORIENTED_EDGE('',*,*,#246,.F.);
#307=ORIENTED_EDGE('',*,*,#239,.T.);
#308=ORIENTED_EDGE('',*,*,#247,.F.);
#309=ORIENTED_EDGE('',*,*,#248,.T.);
#310=ORIENTED_EDGE('',*,*,#244,.T.);
#311=ORIENTED_EDGE('',*,*,#249,.F.);
#312=ORIENTED_EDGE('',*,*,#250,.F.);
#313=ORIENTED_EDGE('',*,*,#251,.F.);
#314=ORIENTED_EDGE('',*,*,#252,.F.);
#315=ORIENTED_EDGE('',*,*,#253,.F.);
#316=ORIENTED_EDGE('',*,*,#252,.T.);
#317=ORIENTED_EDGE('',*,*,#254,.F.);
#318=ORIENTED_EDGE('',*,*,#255,.F.);
#319=ORIENTED_EDGE('',*,*,#256,.F.);
#320=ORIENTED_EDGE('',*,*,#257,.F.);
#321=ORIENTED_EDGE('',*,*,#258,.F.);
#322=ORIENTED_EDGE('',*,*,#259,.F.);
#323=ORIENTED_EDGE('',*,*,#260,.F.);
#324=ORIENTED_EDGE('',*,*,#258,.T.);
#325=ORIENTED_EDGE('',*,*,#245,.F.);
#326=ORIENTED_EDGE('',*,*,#248,.F.);
#327=ORIENTED_EDGE('',*,*,#261,.F.);
#328=ORIENTED_EDGE('',*,*,#262,.F.);
#329=ORIENTED_EDGE('',*,*,#233,.T.);
#330=ORIENTED_EDGE('',*,*,#250,.T.);
#331=ORIENTED_EDGE('',*,*,#263,.T.);
#332=ORIENTED_EDGE('',*,*,#264,.T.);
#333=ORIENTED_EDGE('',*,*,#265,.T.);
#334=ORIENTED_EDGE('',*,*,#266,.F.);
#335=ORIENTED_EDGE('',*,*,#267,.F.);
#336=ORIENTED_EDGE('',*,*,#260,.T.);
#337=ORIENTED_EDGE('',*,*,#268,.T.);
#338=ORIENTED_EDGE('',*,*,#269,.F.);
#339=ORIENTED_EDGE('',*,*,#270,.F.);
#340=ORIENTED_EDGE('',*,*,#271,.T.);
#341=ORIENTED_EDGE('',*,*,#272,.T.);
#342=ORIENTED_EDGE('',*,*,#254,.T.);
#343=ORIENTED_EDGE('',*,*,#251,.T.);
#344=ORIENTED_EDGE('',*,*,#267,.T.);
#345=ORIENTED_EDGE('',*,*,#273,.F.);
#346=ORIENTED_EDGE('',*,*,#268,.F.);
#347=ORIENTED_EDGE('',*,*,#259,.T.);
#348=ORIENTED_EDGE('',*,*,#262,.T.);
#349=ORIENTED_EDGE('',*,*,#274,.F.);
#350=ORIENTED_EDGE('',*,*,#264,.F.);
#351=ORIENTED_EDGE('',*,*,#275,.T.);
#352=ORIENTED_EDGE('',*,*,#271,.F.);
#353=ORIENTED_EDGE('',*,*,#276,.F.);
#354=ORIENTED_EDGE('',*,*,#229,.T.);
#355=ORIENTED_EDGE('',*,*,#232,.T.);
#356=ORIENTED_EDGE('',*,*,#263,.F.);
#357=ORIENTED_EDGE('',*,*,#249,.T.);
#358=ORIENTED_EDGE('',*,*,#277,.T.);
#359=ORIENTED_EDGE('',*,*,#243,.F.);
#360=ORIENTED_EDGE('',*,*,#278,.F.);
#361=ORIENTED_EDGE('',*,*,#237,.T.);
#362=ORIENTED_EDGE('',*,*,#246,.T.);
#363=ORIENTED_EDGE('',*,*,#257,.T.);
#364=ORIENTED_EDGE('',*,*,#272,.F.);
#365=ORIENTED_EDGE('',*,*,#275,.F.);
#366=ORIENTED_EDGE('',*,*,#240,.T.);
#367=ORIENTED_EDGE('',*,*,#277,.F.);
#368=ORIENTED_EDGE('',*,*,#253,.T.);
#369=ORIENTED_EDGE('',*,*,#279,.F.);
#370=ORIENTED_EDGE('',*,*,#276,.T.);
#371=ORIENTED_EDGE('',*,*,#270,.T.);
#372=ORIENTED_EDGE('',*,*,#280,.F.);
#373=ORIENTED_EDGE('',*,*,#265,.F.);
#374=ORIENTED_EDGE('',*,*,#241,.T.);
#375=ORIENTED_EDGE('',*,*,#279,.T.);
#376=ORIENTED_EDGE('',*,*,#256,.T.);
#377=ORIENTED_EDGE('',*,*,#281,.F.);
#378=ORIENTED_EDGE('',*,*,#242,.T.);
#379=ORIENTED_EDGE('',*,*,#281,.T.);
#380=ORIENTED_EDGE('',*,*,#255,.T.);
#381=ORIENTED_EDGE('',*,*,#274,.T.);
#382=ORIENTED_EDGE('',*,*,#261,.T.);
#383=ORIENTED_EDGE('',*,*,#247,.T.);
#384=ORIENTED_EDGE('',*,*,#238,.T.);
#385=ORIENTED_EDGE('',*,*,#278,.T.);
#386=ORIENTED_EDGE('',*,*,#269,.T.);
#387=ORIENTED_EDGE('',*,*,#273,.T.);
#388=ORIENTED_EDGE('',*,*,#266,.T.);
#389=ORIENTED_EDGE('',*,*,#280,.T.);
#390=ORIENTED_EDGE('',*,*,#227,.T.);
#391=ORIENTED_EDGE('',*,*,#230,.T.);
#392=CYLINDRICAL_SURFACE('',#438,0.0787401575);
#393=CYLINDRICAL_SURFACE('',#441,0.0787401574999999);
#394=CYLINDRICAL_SURFACE('',#444,0.0787401575);
#395=ADVANCED_FACE('',(#39),#392,.F.);
#396=ADVANCED_FACE('',(#40),#393,.F.);
#397=ADVANCED_FACE('',(#41),#394,.F.);
#398=ADVANCED_FACE('',(#42,#15),#21,.F.);
#399=ADVANCED_FACE('',(#43),#22,.F.);
#400=ADVANCED_FACE('',(#44),#23,.F.);
#401=ADVANCED_FACE('',(#45),#24,.T.);
#402=ADVANCED_FACE('',(#46),#25,.T.);
#403=ADVANCED_FACE('',(#47),#26,.F.);
#404=ADVANCED_FACE('',(#48),#27,.T.);
#405=ADVANCED_FACE('',(#49,#16),#28,.F.);
#406=ADVANCED_FACE('',(#50),#29,.T.);
#407=ADVANCED_FACE('',(#51),#30,.T.);
#408=ADVANCED_FACE('',(#52),#31,.T.);
#409=ADVANCED_FACE('',(#53,#17,#18),#32,.F.);
#410=ADVANCED_FACE('',(#54),#33,.F.);
#411=ADVANCED_FACE('',(#55),#34,.F.);
#412=ADVANCED_FACE('',(#56),#35,.T.);
#413=ADVANCED_FACE('',(#57),#36,.T.);
#414=ADVANCED_FACE('',(#58),#37,.T.);
#415=ADVANCED_FACE('',(#59,#19,#20),#38,.T.);
#416=CLOSED_SHELL('',(#395,#396,#397,#398,#399,#400,#401,#402,#403,#404,
#405,#406,#407,#408,#409,#410,#411,#412,#413,#414,#415));
#417=DERIVED_UNIT_ELEMENT(#419,1.);
#418=DERIVED_UNIT_ELEMENT(#691,-3.);
#419=(
CONVERSION_BASED_UNIT('gram',#421)
MASS_UNIT()
NAMED_UNIT(#688)
);
#420=(
MASS_UNIT()
NAMED_UNIT(*)
SI_UNIT(.KILO.,.GRAM.)
);
#421=MASS_MEASURE_WITH_UNIT(MASS_MEASURE(0.001),#420);
#422=DERIVED_UNIT((#417,#418));
#423=MEASURE_REPRESENTATION_ITEM('density measure',
POSITIVE_RATIO_MEASURE(1.),#422);
#424=PROPERTY_DEFINITION_REPRESENTATION(#429,#426);
#425=PROPERTY_DEFINITION_REPRESENTATION(#430,#427);
#426=REPRESENTATION('material name',(#428),#685);
#427=REPRESENTATION('density',(#423),#685);
#428=DESCRIPTIVE_REPRESENTATION_ITEM('Generic','Generic');
#429=PROPERTY_DEFINITION('material property','material name',#699);
#430=PROPERTY_DEFINITION('material property','density of part',#699);
#431=DATE_TIME_ROLE('creation_date');
#432=APPLIED_DATE_AND_TIME_ASSIGNMENT(#433,#431,(#699));
#433=DATE_AND_TIME(#434,#435);
#434=CALENDAR_DATE(2026,27,7);
#435=LOCAL_TIME(0,0,0.,#436);
#436=COORDINATED_UNIVERSAL_TIME_OFFSET(0,0,.BEHIND.);
#437=AXIS2_PLACEMENT_3D('',#570,#465,#466);
#438=AXIS2_PLACEMENT_3D('',#571,#467,#468);
#439=AXIS2_PLACEMENT_3D('',#573,#469,#470);
#440=AXIS2_PLACEMENT_3D('',#576,#472,#473);
#441=AXIS2_PLACEMENT_3D('',#577,#474,#475);
#442=AXIS2_PLACEMENT_3D('',#579,#476,#477);
#443=AXIS2_PLACEMENT_3D('',#582,#479,#480);
#444=AXIS2_PLACEMENT_3D('',#583,#481,#482);
#445=AXIS2_PLACEMENT_3D('',#585,#483,#484);
#446=AXIS2_PLACEMENT_3D('',#588,#486,#487);
#447=AXIS2_PLACEMENT_3D('',#589,#488,#489);
#448=AXIS2_PLACEMENT_3D('',#598,#494,#495);
#449=AXIS2_PLACEMENT_3D('',#607,#500,#501);
#450=AXIS2_PLACEMENT_3D('',#613,#505,#506);
#451=AXIS2_PLACEMENT_3D('',#617,#509,#510);
#452=AXIS2_PLACEMENT_3D('',#626,#515,#516);
#453=AXIS2_PLACEMENT_3D('',#634,#521,#522);
#454=AXIS2_PLACEMENT_3D('',#642,#527,#528);
#455=AXIS2_PLACEMENT_3D('',#646,#531,#532);
#456=AXIS2_PLACEMENT_3D('',#656,#538,#539);
#457=AXIS2_PLACEMENT_3D('',#666,#545,#546);
#458=AXIS2_PLACEMENT_3D('',#669,#549,#550);
#459=AXIS2_PLACEMENT_3D('',#672,#553,#554);
#460=AXIS2_PLACEMENT_3D('',#675,#557,#558);
#461=AXIS2_PLACEMENT_3D('',#677,#560,#561);
#462=AXIS2_PLACEMENT_3D('',#679,#563,#564);
#463=AXIS2_PLACEMENT_3D('',#681,#566,#567);
#464=AXIS2_PLACEMENT_3D('',#682,#568,#569);
#465=DIRECTION('axis',(0.,0.,1.));
#466=DIRECTION('refdir',(1.,0.,0.));
#467=DIRECTION('center_axis',(0.,0.,1.));
#468=DIRECTION('ref_axis',(-1.,0.,0.));
#469=DIRECTION('center_axis',(0.,0.,1.));
#470=DIRECTION('ref_axis',(-1.,0.,0.));
#471=DIRECTION('',(0.,0.,1.));
#472=DIRECTION('center_axis',(0.,0.,-1.));
#473=DIRECTION('ref_axis',(-1.,0.,0.));
#474=DIRECTION('center_axis',(0.,0.,1.));
#475=DIRECTION('ref_axis',(-1.,0.,0.));
#476=DIRECTION('center_axis',(0.,0.,1.));
#477=DIRECTION('ref_axis',(-1.,0.,0.));
#478=DIRECTION('',(0.,0.,1.));
#479=DIRECTION('center_axis',(0.,0.,-1.));
#480=DIRECTION('ref_axis',(-1.,0.,0.));
#481=DIRECTION('center_axis',(-1.,0.,0.));
#482=DIRECTION('ref_axis',(0.,0.,-1.));
#483=DIRECTION('center_axis',(-1.,0.,0.));
#484=DIRECTION('ref_axis',(0.,0.,-1.));
#485=DIRECTION('',(-1.,0.,0.));
#486=DIRECTION('center_axis',(1.,0.,0.));
#487=DIRECTION('ref_axis',(0.,0.,-1.));
#488=DIRECTION('center_axis',(1.,0.,0.));
#489=DIRECTION('ref_axis',(0.,-1.,0.));
#490=DIRECTION('',(0.,1.,0.));
#491=DIRECTION('',(0.,0.,-1.));
#492=DIRECTION('',(0.,-1.,0.));
#493=DIRECTION('',(0.,0.,1.));
#494=DIRECTION('center_axis',(-1.,0.,0.));
#495=DIRECTION('ref_axis',(0.,1.,0.));
#496=DIRECTION('',(0.,-1.,0.));
#497=DIRECTION('',(0.,0.,-1.));
#498=DIRECTION('',(0.,1.,0.));
#499=DIRECTION('',(0.,0.,-1.));
#500=DIRECTION('center_axis',(0.,0.,1.));
#501=DIRECTION('ref_axis',(0.,-1.,0.));
#502=DIRECTION('',(-1.,0.,0.));
#503=DIRECTION('',(0.,-1.,0.));
#504=DIRECTION('',(1.,0.,0.));
#505=DIRECTION('center_axis',(0.,1.,0.));
#506=DIRECTION('ref_axis',(1.,0.,0.));
#507=DIRECTION('',(-1.,0.,0.));
#508=DIRECTION('',(0.,0.,-1.));
#509=DIRECTION('center_axis',(0.,0.,1.));
#510=DIRECTION('ref_axis',(1.,0.,0.));
#511=DIRECTION('',(1.,0.,0.));
#512=DIRECTION('',(0.,1.,0.));
#513=DIRECTION('',(-1.,0.,0.));
#514=DIRECTION('',(-2.37875199448317E-16,-1.,0.));
#515=DIRECTION('center_axis',(1.,-2.37875199448317E-16,0.));
#516=DIRECTION('ref_axis',(-2.37875199448317E-16,-1.,0.));
#517=DIRECTION('',(2.37875199448317E-16,1.,0.));
#518=DIRECTION('',(0.,0.,-1.));
#519=DIRECTION('',(-2.37875199448317E-16,-1.,0.));
#520=DIRECTION('',(0.,0.,1.));
#521=DIRECTION('center_axis',(0.,0.,1.));
#522=DIRECTION('ref_axis',(1.,0.,0.));
#523=DIRECTION('',(1.,0.,0.));
#524=DIRECTION('',(0.,1.,0.));
#525=DIRECTION('',(-1.,0.,0.));
#526=DIRECTION('',(0.,-1.,0.));
#527=DIRECTION('center_axis',(-1.,0.,0.));
#528=DIRECTION('ref_axis',(0.,1.,0.));
#529=DIRECTION('',(0.,1.,0.));
#530=DIRECTION('',(0.,0.,1.));
#531=DIRECTION('center_axis',(-1.,0.,0.));
#532=DIRECTION('ref_axis',(0.,1.,0.));
#533=DIRECTION('',(0.,0.,-1.));
#534=DIRECTION('',(0.,1.,0.));
#535=DIRECTION('',(0.,0.,-1.));
#536=DIRECTION('',(0.,1.,0.));
#537=DIRECTION('',(0.,0.,-1.));
#538=DIRECTION('center_axis',(1.,0.,0.));
#539=DIRECTION('ref_axis',(0.,-1.,0.));
#540=DIRECTION('',(0.,0.,-1.));
#541=DIRECTION('',(0.,-1.,0.));
#542=DIRECTION('',(0.,0.,-1.));
#543=DIRECTION('',(0.,-1.,0.));
#544=DIRECTION('',(0.,0.,1.));
#545=DIRECTION('center_axis',(0.,-1.,0.));
#546=DIRECTION('ref_axis',(-1.,0.,0.));
#547=DIRECTION('',(-1.,0.,0.));
#548=DIRECTION('',(1.,0.,0.));
#549=DIRECTION('center_axis',(0.,0.,-1.));
#550=DIRECTION('ref_axis',(0.,1.,0.));
#551=DIRECTION('',(1.,0.,0.));
#552=DIRECTION('',(1.,0.,0.));
#553=DIRECTION('center_axis',(0.,-1.,0.));
#554=DIRECTION('ref_axis',(0.,0.,-1.));
#555=DIRECTION('',(1.,0.,0.));
#556=DIRECTION('',(-1.,0.,0.));
#557=DIRECTION('center_axis',(0.,0.,1.));
#558=DIRECTION('ref_axis',(0.,-1.,0.));
#559=DIRECTION('',(-1.,0.,0.));
#560=DIRECTION('center_axis',(0.,1.,0.));
#561=DIRECTION('ref_axis',(1.,0.,0.));
#562=DIRECTION('',(1.,0.,0.));
#563=DIRECTION('center_axis',(0.,1.,0.));
#564=DIRECTION('ref_axis',(1.,0.,0.));
#565=DIRECTION('',(-1.,0.,0.));
#566=DIRECTION('center_axis',(0.,0.,1.));
#567=DIRECTION('ref_axis',(1.,0.,0.));
#568=DIRECTION('center_axis',(0.,0.,-1.));
#569=DIRECTION('ref_axis',(-1.,0.,0.));
#570=CARTESIAN_POINT('',(0.,0.,0.));
#571=CARTESIAN_POINT('Origin',(1.,0.275,-2.));
#572=CARTESIAN_POINT('',(1.0787401575,0.275,-2.));
#573=CARTESIAN_POINT('Origin',(1.,0.275,-2.));
#574=CARTESIAN_POINT('',(1.0787401575,0.275,-1.54));
#575=CARTESIAN_POINT('',(1.0787401575,0.275,-2.));
#576=CARTESIAN_POINT('Origin',(1.,0.275,-1.54));
#577=CARTESIAN_POINT('Origin',(1.,0.58,-2.));
#578=CARTESIAN_POINT('',(1.0787401575,0.58,-2.));
#579=CARTESIAN_POINT('Origin',(1.,0.58,-2.));
#580=CARTESIAN_POINT('',(1.0787401575,0.58,-1.54));
#581=CARTESIAN_POINT('',(1.0787401575,0.58,-2.));
#582=CARTESIAN_POINT('Origin',(1.,0.58,-1.54));
#583=CARTESIAN_POINT('Origin',(1.5225,0.3675,-0.23));
#584=CARTESIAN_POINT('',(1.5225,0.3675,-0.1512598425));
#585=CARTESIAN_POINT('Origin',(1.5225,0.3675,-0.23));
#586=CARTESIAN_POINT('',(1.0625,0.3675,-0.1512598425));
#587=CARTESIAN_POINT('',(1.5225,0.3675,-0.1512598425));
#588=CARTESIAN_POINT('Origin',(1.0625,0.3675,-0.23));
#589=CARTESIAN_POINT('Origin',(1.0625,0.735,0.));
#590=CARTESIAN_POINT('',(1.0625,0.125,-0.46));
#591=CARTESIAN_POINT('',(1.0625,0.735,-0.46));
#592=CARTESIAN_POINT('',(1.0625,0.735,-0.46));
#593=CARTESIAN_POINT('',(1.0625,0.125,0.));
#594=CARTESIAN_POINT('',(1.0625,0.125,0.));
#595=CARTESIAN_POINT('',(1.0625,0.735,0.));
#596=CARTESIAN_POINT('',(1.0625,0.55125,0.));
#597=CARTESIAN_POINT('',(1.0625,0.735,0.));
#598=CARTESIAN_POINT('Origin',(0.9375,0.125,0.));
#599=CARTESIAN_POINT('',(0.9375,0.735,-0.46));
#600=CARTESIAN_POINT('',(0.9375,0.125,-0.46));
#601=CARTESIAN_POINT('',(0.9375,0.43,-0.46));
#602=CARTESIAN_POINT('',(0.9375,0.735,0.));
#603=CARTESIAN_POINT('',(0.9375,0.735,0.));
#604=CARTESIAN_POINT('',(0.9375,0.125,0.));
#605=CARTESIAN_POINT('',(0.9375,0.24625,0.));
#606=CARTESIAN_POINT('',(0.9375,0.125,0.));
#607=CARTESIAN_POINT('Origin',(0.,0.735,-0.46));
#608=CARTESIAN_POINT('',(1.5225,0.735,-0.46));
#609=CARTESIAN_POINT('',(0.,0.735,-0.46));
#610=CARTESIAN_POINT('',(1.5225,0.125,-0.46));
#611=CARTESIAN_POINT('',(1.5225,0.3675,-0.46));
#612=CARTESIAN_POINT('',(0.,0.125,-0.46));
#613=CARTESIAN_POINT('Origin',(0.,0.735,0.));
#614=CARTESIAN_POINT('',(1.5225,0.735,0.));
#615=CARTESIAN_POINT('',(2.,0.735,0.));
#616=CARTESIAN_POINT('',(1.5225,0.735,0.));
#617=CARTESIAN_POINT('Origin',(1.,0.3675,-0.46));
#618=CARTESIAN_POINT('',(0.,0.125,-0.46));
#619=CARTESIAN_POINT('',(0.4775,0.125,-0.46));
#620=CARTESIAN_POINT('',(0.,0.125,-0.46));
#621=CARTESIAN_POINT('',(0.,0.,-0.46));
#622=CARTESIAN_POINT('',(0.,0.18375,-0.46));
#623=CARTESIAN_POINT('',(0.4775,0.,-0.46));
#624=CARTESIAN_POINT('',(1.5,0.,-0.46));
#625=CARTESIAN_POINT('',(0.4775,0.55125,-0.46));
#626=CARTESIAN_POINT('Origin',(0.4775,0.735,0.));
#627=CARTESIAN_POINT('',(0.4775,0.735,-0.46));
#628=CARTESIAN_POINT('',(0.4775,0.735,-0.46));
#629=CARTESIAN_POINT('',(0.4775,0.,0.));
#630=CARTESIAN_POINT('',(0.4775,0.,0.));
#631=CARTESIAN_POINT('',(0.4775,0.735,0.));
#632=CARTESIAN_POINT('',(0.4775,0.55125,0.));
#633=CARTESIAN_POINT('',(0.4775,0.735,0.));
#634=CARTESIAN_POINT('Origin',(1.,0.3675,-0.46));
#635=CARTESIAN_POINT('',(2.,0.125,-0.46));
#636=CARTESIAN_POINT('',(0.,0.125,-0.46));
#637=CARTESIAN_POINT('',(1.5225,0.,-0.46));
#638=CARTESIAN_POINT('',(1.5225,0.18375,-0.46));
#639=CARTESIAN_POINT('',(2.,0.,-0.46));
#640=CARTESIAN_POINT('',(1.5,0.,-0.46));
#641=CARTESIAN_POINT('',(2.,0.55125,-0.46));
#642=CARTESIAN_POINT('Origin',(1.5225,0.,0.));
#643=CARTESIAN_POINT('',(1.5225,0.,0.));
#644=CARTESIAN_POINT('',(1.5225,0.18375,0.));
#645=CARTESIAN_POINT('',(1.5225,0.,0.));
#646=CARTESIAN_POINT('Origin',(0.,0.,0.));
#647=CARTESIAN_POINT('',(0.,0.125,-1.54));
#648=CARTESIAN_POINT('',(0.,0.125,-0.23));
#649=CARTESIAN_POINT('',(0.,0.735,-1.54));
#650=CARTESIAN_POINT('',(0.,0.0625,-1.54));
#651=CARTESIAN_POINT('',(0.,0.735,-2.));
#652=CARTESIAN_POINT('',(0.,0.735,0.));
#653=CARTESIAN_POINT('',(0.,0.,-2.));
#654=CARTESIAN_POINT('',(0.,0.735,-2.));
#655=CARTESIAN_POINT('',(0.,0.,0.));
#656=CARTESIAN_POINT('Origin',(2.,0.735,0.));
#657=CARTESIAN_POINT('',(2.,0.,-2.));
#658=CARTESIAN_POINT('',(2.,0.,0.));
#659=CARTESIAN_POINT('',(2.,0.735,-2.));
#660=CARTESIAN_POINT('',(2.,0.,-2.));
#661=CARTESIAN_POINT('',(2.,0.735,-1.54));
#662=CARTESIAN_POINT('',(2.,0.735,0.));
#663=CARTESIAN_POINT('',(2.,0.125,-1.54));
#664=CARTESIAN_POINT('',(2.,0.43,-1.54));
#665=CARTESIAN_POINT('',(2.,0.125,-0.23));
#666=CARTESIAN_POINT('Origin',(2.,0.,0.));
#667=CARTESIAN_POINT('',(0.,0.,-2.));
#668=CARTESIAN_POINT('',(0.,0.,0.));
#669=CARTESIAN_POINT('Origin',(0.,0.125,-1.54));
#670=CARTESIAN_POINT('',(0.,0.125,-1.54));
#671=CARTESIAN_POINT('',(0.,0.735,-1.54));
#672=CARTESIAN_POINT('Origin',(0.,0.125,-0.46));
#673=CARTESIAN_POINT('',(0.,0.125,-0.46));
#674=CARTESIAN_POINT('',(1.03125,0.125,0.));
#675=CARTESIAN_POINT('Origin',(0.,0.735,-0.46));
#676=CARTESIAN_POINT('',(0.,0.735,-0.46));
#677=CARTESIAN_POINT('Origin',(0.,0.735,0.));
#678=CARTESIAN_POINT('',(2.,0.735,-2.));
#679=CARTESIAN_POINT('Origin',(0.,0.735,0.));
#680=CARTESIAN_POINT('',(2.,0.735,0.));
#681=CARTESIAN_POINT('Origin',(1.,0.3675,0.));
#682=CARTESIAN_POINT('Origin',(1.,0.3675,-2.));
#683=UNCERTAINTY_MEASURE_WITH_UNIT(LENGTH_MEASURE(0.000393700787401575),
#689,'DISTANCE_ACCURACY_VALUE',
'Maximum model space distance between geometric entities at asserted c
onnectivities');
#684=UNCERTAINTY_MEASURE_WITH_UNIT(LENGTH_MEASURE(0.000393700787401575),
#689,'DISTANCE_ACCURACY_VALUE',
'Maximum model space distance between geometric entities at asserted c
onnectivities');
#685=(
GEOMETRIC_REPRESENTATION_CONTEXT(3)
GLOBAL_UNCERTAINTY_ASSIGNED_CONTEXT((#683))
GLOBAL_UNIT_ASSIGNED_CONTEXT((#689,#693,#694))
REPRESENTATION_CONTEXT('','3D')
);
#686=(
GEOMETRIC_REPRESENTATION_CONTEXT(3)
GLOBAL_UNCERTAINTY_ASSIGNED_CONTEXT((#684))
GLOBAL_UNIT_ASSIGNED_CONTEXT((#689,#693,#694))
REPRESENTATION_CONTEXT('','3D')
);
#687=DIMENSIONAL_EXPONENTS(1.,0.,0.,0.,0.,0.,0.);
#688=DIMENSIONAL_EXPONENTS(0.,1.,0.,0.,0.,0.,0.);
#689=(
CONVERSION_BASED_UNIT('inch',#692)
LENGTH_UNIT()
NAMED_UNIT(#687)
);
#690=(
LENGTH_UNIT()
NAMED_UNIT(*)
SI_UNIT(.MILLI.,.METRE.)
);
#691=(
LENGTH_UNIT()
NAMED_UNIT(*)
SI_UNIT(.CENTI.,.METRE.)
);
#692=LENGTH_MEASURE_WITH_UNIT(LENGTH_MEASURE(25.4),#690);
#693=(
NAMED_UNIT(*)
PLANE_ANGLE_UNIT()
SI_UNIT($,.RADIAN.)
);
#694=(
NAMED_UNIT(*)
SI_UNIT($,.STERADIAN.)
SOLID_ANGLE_UNIT()
);
#695=SHAPE_DEFINITION_REPRESENTATION(#696,#697);
#696=PRODUCT_DEFINITION_SHAPE('',$,#699);
#697=SHAPE_REPRESENTATION('',(#437),#685);
#698=PRODUCT_DEFINITION_CONTEXT('part definition',#703,'design');
#699=PRODUCT_DEFINITION('Slit holder','Slit holder',#700,#698);
#700=PRODUCT_DEFINITION_FORMATION('',$,#705);
#701=PRODUCT_RELATED_PRODUCT_CATEGORY('Slit holder','Slit holder',(#705));
#702=APPLICATION_PROTOCOL_DEFINITION('international standard',
'automotive_design',2009,#703);
#703=APPLICATION_CONTEXT(
'Core Data for Automotive Mechanical Design Process');
#704=PRODUCT_CONTEXT('part definition',#703,'mechanical');
#705=PRODUCT('Slit holder','Slit holder',$,(#704));
#706=PRESENTATION_STYLE_ASSIGNMENT((#707));
#707=SURFACE_STYLE_USAGE(.BOTH.,#710);
#708=SURFACE_STYLE_RENDERING_WITH_PROPERTIES($,#714,(#709));
#709=SURFACE_STYLE_TRANSPARENT(0.);
#710=SURFACE_SIDE_STYLE('',(#711,#708));
#711=SURFACE_STYLE_FILL_AREA(#712);
#712=FILL_AREA_STYLE('',(#713));
#713=FILL_AREA_STYLE_COLOUR('',#714);
#714=COLOUR_RGB('',0.749019607843137,0.749019607843137,0.749019607843137);
ENDSEC;
END-ISO-10303-21;
