  0
SECTION
  2
HEADER
  9
$ACADVER
  1
AC1009
  9
$INSBASE
 10
0.0
 20
0.0
 30
0.0
  9
$EXTMIN
 10
-0.0000000000000548
 20
-298.4500000000001023
 30
0.0
  9
$EXTMAX
 10
510.7923646901645043
 20
501.6499999999999204
 30
0.0
  9
$LIMMIN
 10
0.0
 20
0.0
  9
$LIMMAX
 10
12.0
 20
9.0
  9
$ORTHOMODE
 70
     0
  9
$REGENMODE
 70
     1
  9
$FILLMODE
 70
     1
  9
$QTEXTMODE
 70
     0
  9
$MIRRTEXT
 70
     0
  9
$DRAGMODE
 70
     2
  9
$LTSCALE
 40
1.0
  9
$OSMODE
 70
    39
  9
$ATTMODE
 70
     1
  9
$TEXTSIZE
 40
15.0
  9
$TRACEWID
 40
0.05
  9
$TEXTSTYLE
  7
STANDARD
  9
$CLAYER
  8
CUT_2
  9
$CELTYPE
  6
BYLAYER
  9
$CECOLOR
 62
   256
  9
$DIMSCALE
 40
1.0
  9
$DIMASZ
 40
0.18
  9
$DIMEXO
 40
0.0625
  9
$DIMDLI
 40
0.38
  9
$DIMRND
 40
0.0
  9
$DIMDLE
 40
0.0
  9
$DIMEXE
 40
0.18
  9
$DIMTP
 40
0.0
  9
$DIMTM
 40
0.0
  9
$DIMTXT
 40
0.18
  9
$DIMCEN
 40
0.09
  9
$DIMTSZ
 40
0.0
  9
$DIMTOL
 70
     0
  9
$DIMLIM
 70
     0
  9
$DIMTIH
 70
     1
  9
$DIMTOH
 70
     1
  9
$DIMSE1
 70
     0
  9
$DIMSE2
 70
     0
  9
$DIMTAD
 70
     0
  9
$DIMZIN
 70
     0
  9
$DIMBLK
  1

  9
$DIMASO
 70
     1
  9
$DIMSHO
 70
     1
  9
$DIMPOST
  1

  9
$DIMAPOST
  1

  9
$DIMALT
 70
     0
  9
$DIMALTD
 70
     2
  9
$DIMALTF
 40
25.3999999999999986
  9
$DIMLFAC
 40
1.0
  9
$DIMTOFL
 70
     0
  9
$DIMTVP
 40
0.0
  9
$DIMTIX
 70
     0
  9
$DIMSOXD
 70
     0
  9
$DIMSAH
 70
     0
  9
$DIMBLK1
  1

  9
$DIMBLK2
  1

  9
$DIMSTYLE
  2
STANDARD
  9
$DIMCLRD
 70
     0
  9
$DIMCLRE
 70
     0
  9
$DIMCLRT
 70
     0
  9
$DIMTFAC
 40
1.0
  9
$DIMGAP
 40
0.09
  9
$LUNITS
 70
     2
  9
$LUPREC
 70
     4
  9
$SKETCHINC
 40
0.1
  9
$FILLETRAD
 40
0.0
  9
$AUNITS
 70
     0
  9
$AUPREC
 70
     0
  9
$MENU
  1
.
  9
$ELEVATION
 40
0.0
  9
$PELEVATION
 40
0.0
  9
$THICKNESS
 40
0.0
  9
$LIMCHECK
 70
     0
  9
$BLIPMODE
 70
     0
  9
$CHAMFERA
 40
0.0
  9
$CHAMFERB
 40
0.0
  9
$SKPOLY
 70
     0
  9
$TDCREATE
 40
2461237.4615624998696148
  9
$TDUPDATE
 40
2461245.5339236110448837
  9
$TDINDWG
 40
0.9816203704000001
  9
$TDUSRTIMER
 40
0.9816203704000001
  9
$USRTIMER
 70
     1
  9
$ANGBASE
 50
0.0
  9
$ANGDIR
 70
     0
  9
$PDMODE
 70
     0
  9
$PDSIZE
 40
0.0
  9
$PLINEWID
 40
0.0
  9
$COORDS
 70
     1
  9
$SPLFRAME
 70
     0
  9
$SPLINETYPE
 70
     6
  9
$SPLINESEGS
 70
     8
  9
$ATTDIA
 70
     1
  9
$ATTREQ
 70
     1
  9
$HANDLING
 70
     1
  9
$HANDSEED
  5
181E
  9
$SURFTAB1
 70
     6
  9
$SURFTAB2
 70
     6
  9
$SURFTYPE
 70
     6
  9
$SURFU
 70
     6
  9
$SURFV
 70
     6
  9
$UCSNAME
  2

  9
$UCSORG
 10
0.0
 20
0.0
 30
0.0
  9
$UCSXDIR
 10
1.0
 20
0.0
 30
0.0
  9
$UCSYDIR
 10
0.0
 20
1.0
 30
0.0
  9
$PUCSNAME
  2

  9
$PUCSORG
 10
0.0
 20
0.0
 30
0.0
  9
$PUCSXDIR
 10
1.0
 20
0.0
 30
0.0
  9
$PUCSYDIR
 10
0.0
 20
1.0
 30
0.0
  9
$USERI1
 70
     0
  9
$USERI2
 70
     0
  9
$USERI3
 70
     0
  9
$USERI4
 70
     0
  9
$USERI5
 70
     0
  9
$USERR1
 40
0.0
  9
$USERR2
 40
0.0
  9
$USERR3
 40
0.0
  9
$USERR4
 40
0.0
  9
$USERR5
 40
0.0
  9
$WORLDVIEW
 70
     1
  9
$SHADEDGE
 70
     3
  9
$SHADEDIF
 70
    70
  9
$TILEMODE
 70
     1
  9
$MAXACTVP
 70
    64
  9
$PLIMCHECK
 70
     0
  9
$PEXTMIN
 10
0.0
 20
0.0
 30
0.0
  9
$PEXTMAX
 10
0.0
 20
0.0
 30
0.0
  9
$PLIMMIN
 10
0.0
 20
0.0
  9
$PLIMMAX
 10
12.0
 20
9.0
  9
$UNITMODE
 70
     0
  9
$VISRETAIN
 70
     1
  9
$PLINEGEN
 70
     0
  9
$PSLTSCALE
 70
     1
  0
ENDSEC
  0
SECTION
  2
TABLES
  0
TABLE
  2
VPORT
 70
     1
  0
VPORT
  2
*ACTIVE
 70
     0
 10
0.0
 20
0.0
 11
1.0
 21
1.0
 12
224.7933683909872968
 22
63.2515269202317469
 13
0.0
 23
0.0
 14
0.5
 24
0.5
 15
0.5
 25
0.5
 16
0.0
 26
0.0
 36
262.5390601339537966
 17
38.1801867188817212
 27
47.8722388328310515
 37
0.0
 40
1155.5993491793290104
 41
2.2032146957520089
 42
50.0
 43
0.0
 44
0.0
 50
0.0
 51
0.0
 71
     0
 72
  1000
 73
     1
 74
     3
 75
     0
 76
     1
 77
     0
 78
     0
  0
ENDTAB
  0
TABLE
  2
LTYPE
 70
     1
  0
LTYPE
  2
CONTINUOUS
 70
     0
  3
Solid line
 72
    65
 73
     0
 40
0.0
  0
ENDTAB
  0
TABLE
  2
LAYER
 70
     6
  0
LAYER
  2
0
 70
     0
 62
     7
  6
CONTINUOUS
  0
LAYER
  2
CUT_2
 70
     0
 62
    10
  6
CONTINUOUS
  0
LAYER
  2
BOUNDS
 70
     0
 62
   220
  6
CONTINUOUS
  0
LAYER
  2
CONSTRUCTION_LINES
 70
     0
 62
    30
  6
CONTINUOUS
  0
LAYER
  2
SCAN
 70
     0
 62
    90
  6
CONTINUOUS
  0
LAYER
  2
CUT_1
 70
     0
 62
    50
  6
CONTINUOUS
  0
ENDTAB
  0
TABLE
  2
STYLE
 70
     2
  0
STYLE
  2
STANDARD
 70
     0
 40
0.0
 41
1.0
 50
0.0
 71
     0
 42
15.0
  3
txt
  4

  0
STYLE
  2
ANNOTATIVE
 70
     0
 40
0.0
 41
1.0
 50
0.0
 71
     0
 42
0.2
  3
txt
  4

  0
ENDTAB
  0
TABLE
  2
VIEW
 70
     0
  0
ENDTAB
  0
TABLE
  2
UCS
 70
     0
  0
ENDTAB
  0
TABLE
  2
APPID
 70
    10
  0
APPID
  2
ACAD
 70
     0
  0
APPID
  2
ACADANNOTATIVE
 70
     0
  0
APPID
  2
ACADANNOPO
 70
     0
  0
APPID
  2
ACAD_DSTYLE_DIMJAG
 70
     0
  0
APPID
  2
ACAD_DSTYLE_DIMTALN
 70
     0
  0
APPID
  2
ACAD_MLEADERVER
 70
     0
  0
APPID
  2
ACAD_NAV_VCDISPLAY
 70
     0
  0
APPID
  2
ACAD_EXEMPT_FROM_CAD_STANDARDS
 70
     0
  0
APPID
  2
ACAECLAYERSTANDARD
 70
     0
  0
APPID
  2
ACCMTRANSPARENCY
 70
     0
  0
ENDTAB
  0
TABLE
  2
DIMSTYLE
 70
     2
  0
DIMSTYLE
  2
STANDARD
 70
     0
  3

  4

  5

  6

  7

 40
1.0
 41
0.18
 42
0.0625
 43
0.38
 44
0.18
 45
0.0
 46
0.0
 47
0.0
 48
0.0
140
0.18
141
0.09
142
0.0
143
25.3999999999999986
144
1.0
145
0.0
146
1.0
147
0.09
 71
     0
 72
     0
 73
     1
 74
     1
 75
     0
 76
     0
 77
     0
 78
     0
170
     0
171
     2
172
     0
173
     0
174
     0
175
     0
176
     0
177
     0
178
     0
  0
DIMSTYLE
  2
ANNOTATIVE
 70
     0
  3

  4

  5

  6

  7

 40
0.0
 41
0.18
 42
0.0625
 43
0.38
 44
0.18
 45
0.0
 46
0.0
 47
0.0
 48
0.0
140
0.18
141
0.09
142
0.0
143
25.3999999999999986
144
1.0
145
0.0
146
1.0
147
0.09
 71
     0
 72
     0
 73
     1
 74
     1
 75
     0
 76
     0
 77
     0
 78
     0
170
     0
171
     2
172
     0
173
     0
174
     0
175
     0
176
     0
177
     0
178
     0
  0
ENDTAB
  0
ENDSEC
  0
SECTION
  2
BLOCKS
  0
BLOCK
  8
0
  2
$MODEL_SPACE
 70
     0
 10
0.0
 20
0.0
 30
0.0
  3
$MODEL_SPACE
  1

  0
ENDBLK
  5
1050
  8
0
  0
BLOCK
 67
     1
  8
0
  2
$PAPER_SPACE
 70
     0
 10
0.0
 20
0.0
 30
0.0
  3
$PAPER_SPACE
  1

  0
ENDBLK
  5
104C
 67
     1
  8
0
  0
ENDSEC
  0
SECTION
  2
ENTITIES
  0
LINE
  5
263
  8
BOUNDS
 10
0.0
 20
0.0
 30
0.0
 11
-0.0000000000000548
 21
-298.4499999999999886
 31
0.0
  0
LINE
  5
264
  8
BOUNDS
 10
-0.0000000000000548
 20
-298.4499999999999886
 30
0.0
 11
501.6499999999998067
 21
-298.4500000000001023
 31
0.0
  0
LINE
  5
265
  8
BOUNDS
 10
501.6499999999998067
 20
-298.4500000000001023
 30
0.0
 11
501.6499999999999204
 21
-0.000000000000149
 31
0.0
  0
LINE
  5
266
  8
BOUNDS
 10
0.0
 20
0.0
 30
0.0
 11
501.6499999999999204
 21
-0.000000000000149
 31
0.0
  0
LINE
  5
26C
  8
CONSTRUCTION_LINES
 10
0.0000000000000365
 20
0.0
 30
0.0
 11
0.0
 21
0.0
 31
0.0
  0
POLYLINE
  5
272
  8
CUT_1
 66
     1
 10
0.0
 20
0.0
 30
0.0
 70
     1
  0
VERTEX
  5
11CD
  8
CUT_1
 10
19.9999999999999716
 20
-174.2249999999999943
 30
0.0
  0
VERTEX
  5
11CE
  8
CUT_1
 10
19.9999999999999609
 20
-187.9449999999999932
 30
0.0
  0
VERTEX
  5
11CF
  8
CUT_1
 10
119.9999999999999005
 20
-187.9449999999999932
 30
0.0
  0
VERTEX
  5
11D0
  8
CUT_1
 10
119.9999999999999005
 20
-174.2249999999999943
 30
0.0
  0
SEQEND
  5
11D1
  8
CUT_1
  0
POLYLINE
  5
274
  8
CUT_1
 66
     1
 10
0.0
 20
0.0
 30
0.0
 70
     1
  0
VERTEX
  5
11D2
  8
CUT_1
 10
19.9999999999999787
 20
-124.2249999999999943
 30
0.0
  0
VERTEX
  5
11D3
  8
CUT_1
 10
19.9999999999999787
 20
-110.5049999999999955
 30
0.0
  0
VERTEX
  5
11D4
  8
CUT_1
 10
120.0
 20
-110.5049999999999955
 30
0.0
  0
VERTEX
  5
11D5
  8
CUT_1
 10
119.9999999999999005
 20
-124.2249999999999943
 30
0.0
  0
SEQEND
  5
11D6
  8
CUT_1
  0
LINE
  5
288
  8
CONSTRUCTION_LINES
 10
159.9999999999998863
 20
-149.2249999999999943
 30
0.0
 11
159.9999999999998863
 21
-298.4499999999999886
 31
0.0
  0
LINE
  5
289
  8
CUT_2
 10
159.9999999999998863
 20
-298.4499999999999886
 30
0.0
 11
160.0
 21
-0.0000000000000578
 31
0.0
  0
POLYLINE
  5
292
  8
CUT_1
 66
     1
 10
0.0
 20
0.0
 30
0.0
 70
     1
  0
VERTEX
  5
11D7
  8
CUT_1
 10
180.0
 20
-174.2249999999999091
 30
0.0
  0
VERTEX
  5
11D8
  8
CUT_1
 10
180.0
 20
-187.9449999999999079
 30
0.0
  0
VERTEX
  5
11D9
  8
CUT_1
 10
279.9999999999998863
 20
-187.9449999999999932
 30
0.0
  0
VERTEX
  5
11DA
  8
CUT_1
 10
279.9999999999998863
 20
-174.2249999999999091
 30
0.0
  0
SEQEND
  5
11DB
  8
CUT_1
  0
POLYLINE
  5
293
  8
CUT_1
 66
     1
 10
0.0
 20
0.0
 30
0.0
 70
     1
  0
VERTEX
  5
11DC
  8
CUT_1
 10
180.0
 20
-124.2249999999998948
 30
0.0
  0
VERTEX
  5
11DD
  8
CUT_1
 10
180.0
 20
-110.504999999999896
 30
0.0
  0
VERTEX
  5
11DE
  8
CUT_1
 10
280.0
 20
-110.504999999999896
 30
0.0
  0
VERTEX
  5
11DF
  8
CUT_1
 10
280.0
 20
-124.2249999999998948
 30
0.0
  0
SEQEND
  5
11E0
  8
CUT_1
  0
LINE
  5
294
  8
CUT_2
 10
319.9999999999998863
 20
-298.4499999999998749
 30
0.0
 11
320.0
 21
-0.0000000000000588
 31
0.0
  0
POLYLINE
  5
29D
  8
CUT_1
 66
     1
 10
0.0
 20
0.0
 30
0.0
 70
     1
  0
VERTEX
  5
11E1
  8
CUT_1
 10
339.9999999999998863
 20
-174.2249999999999091
 30
0.0
  0
VERTEX
  5
11E2
  8
CUT_1
 10
339.9999999999998863
 20
-187.9449999999999932
 30
0.0
  0
VERTEX
  5
11E3
  8
CUT_1
 10
439.9999999999998863
 20
-187.9449999999999932
 30
0.0
  0
VERTEX
  5
11E4
  8
CUT_1
 10
439.9999999999998863
 20
-174.2249999999999943
 30
0.0
  0
SEQEND
  5
11E5
  8
CUT_1
  0
POLYLINE
  5
29E
  8
CUT_1
 66
     1
 10
0.0
 20
0.0
 30
0.0
 70
     1
  0
VERTEX
  5
11E6
  8
CUT_1
 10
340.0
 20
-124.2249999999998948
 30
0.0
  0
VERTEX
  5
11E7
  8
CUT_1
 10
340.0
 20
-110.504999999999896
 30
0.0
  0
VERTEX
  5
11E8
  8
CUT_1
 10
440.0
 20
-110.504999999999896
 30
0.0
  0
VERTEX
  5
11E9
  8
CUT_1
 10
440.0
 20
-124.2249999999998948
 30
0.0
  0
SEQEND
  5
11EA
  8
CUT_1
  0
LINE
  5
29F
  8
CUT_2
 10
479.9999999999998863
 20
-298.4499999999999886
 30
0.0
 11
480.0
 21
-0.0000000000000882
 31
0.0
  0
LINE
  5
2A5
  8
CONSTRUCTION_LINES
 10
320.0
 20
-0.0000000000000588
 30
0.0
 11
335.0
 21
-0.0000000000000624
 31
0.0
  0
LINE
  5
2A6
  8
CONSTRUCTION_LINES
 10
335.0
 20
-0.0000000000000624
 30
0.0
 11
335.0
 21
-15.0000000000000604
 31
0.0
  0
LINE
  5
2A7
  8
CONSTRUCTION_LINES
 10
160.0
 20
-0.0000000000000578
 30
0.0
 11
175.0
 21
-0.0000000000000673
 31
0.0
  0
LINE
  5
2A8
  8
CONSTRUCTION_LINES
 10
175.0
 20
-0.0000000000000673
 30
0.0
 11
175.0
 21
-15.0000000000000604
 31
0.0
  0
LINE
  5
2A9
  8
CONSTRUCTION_LINES
 10
0.0
 20
0.0
 30
0.0
 11
15.0
 21
-0.0000000000000037
 31
0.0
  0
LINE
  5
2AA
  8
CONSTRUCTION_LINES
 10
15.0
 20
-0.0000000000000037
 30
0.0
 11
15.0
 21
-15.0
 31
0.0
  0
POLYLINE
  5
2DC
  8
SCAN
 66
     1
 10
0.0
 20
0.0
 30
0.0
 70
     1
  0
VERTEX
  5
11EB
  8
SCAN
 10
296.7013499999998771
 20
-287.6940499999998906
 30
0.0
  0
VERTEX
  5
11EC
  8
SCAN
 10
296.979699999999923
 20
-287.5548999999999751
 30
0.0
  0
VERTEX
  5
11ED
  8
SCAN
 10
299.0674000000000206
 20
-281.5702499999999873
 30
0.0
  0
VERTEX
  5
11EE
  8
SCAN
 10
300.3199999999999932
 20
-275.8639499999998748
 30
0.0
  0
VERTEX
  5
11EF
  8
SCAN
 10
300.876700000000028
 20
-271.2710500000000025
 30
0.0
  0
VERTEX
  5
11F0
  8
SCAN
 10
301.155050000000017
 20
-270.9927000000001271
 30
0.0
  0
VERTEX
  5
11F1
  8
SCAN
 10
304.4953499999999167
 20
-271.4102500000000759
 30
0.0
  0
VERTEX
  5
11F2
  8
SCAN
 10
305.8870999999999185
 20
-271.9669500000001108
 30
0.0
  0
VERTEX
  5
11F3
  8
SCAN
 10
306.1654499999999075
 20
-271.8277499999999804
 30
0.0
  0
VERTEX
  5
11F4
  8
SCAN
 10
305.6087499999998727
 20
-268.9049999999999727
 30
0.0
  0
VERTEX
  5
11F5
  8
SCAN
 10
303.7994499999999221
 20
-266.2606499999998846
 30
0.0
  0
VERTEX
  5
11F6
  8
SCAN
 10
302.4076499999999896
 20
-265.147199999999998
 30
0.0
  0
VERTEX
  5
11F7
  8
SCAN
 10
301.7117499999998813
 20
-266.8173499999999763
 30
0.0
  0
VERTEX
  5
11F8
  8
SCAN
 10
301.29424999999992
 20
-267.2348999999999819
 30
0.0
  0
VERTEX
  5
11F9
  8
SCAN
 10
301.155050000000017
 20
-267.0957000000000789
 30
0.0
  0
VERTEX
  5
11FA
  8
SCAN
 10
301.4333999999998923
 20
-265.0080500000000256
 30
0.0
  0
VERTEX
  5
11FB
  8
SCAN
 10
301.29424999999992
 20
-261.3894000000000233
 30
0.0
  0
VERTEX
  5
11FC
  8
SCAN
 10
304.2169499999998834
 20
-261.2502499999998804
 30
0.0
  0
VERTEX
  5
11FD
  8
SCAN
 10
307.0005499999999756
 20
-261.667750000000126
 30
0.0
  0
VERTEX
  5
11FE
  8
SCAN
 10
306.8613500000000158
 20
-259.8584499999998911
 30
0.0
  0
VERTEX
  5
11FF
  8
SCAN
 10
305.8870999999999185
 20
-257.0749000000001274
 30
0.0
  0
VERTEX
  5
1200
  8
SCAN
 10
304.3561500000000137
 20
-254.5697000000000116
 30
0.0
  0
VERTEX
  5
1201
  8
SCAN
 10
301.155050000000017
 20
-250.8118500000001063
 30
0.0
  0
VERTEX
  5
1202
  8
SCAN
 10
302.5468500000000063
 20
-248.5850000000000932
 30
0.0
  0
VERTEX
  5
1203
  8
SCAN
 10
303.3818999999999164
 20
-245.5231000000001131
 30
0.0
  0
VERTEX
  5
1204
  8
SCAN
 10
303.3818999999999164
 20
-240.9302500000000862
 30
0.0
  0
VERTEX
  5
1205
  8
SCAN
 10
302.9643500000000245
 20
-238.8425499999999886
 30
0.0
  0
VERTEX
  5
1206
  8
SCAN
 10
301.9900999999999271
 20
-236.4765500000000884
 30
0.0
  0
VERTEX
  5
1207
  8
SCAN
 10
300.3199999999999932
 20
-234.3888500000001045
 30
0.0
  0
VERTEX
  5
1208
  8
SCAN
 10
300.876700000000028
 20
-234.2497000000001037
 30
0.0
  0
VERTEX
  5
1209
  8
SCAN
 10
302.8251999999998816
 20
-234.6672000000000935
 30
0.0
  0
VERTEX
  5
120A
  8
SCAN
 10
302.8251999999998816
 20
-205.7181499999998948
 30
0.0
  0
VERTEX
  5
120B
  8
SCAN
 10
291.4125999999998839
 20
-203.7697000000000003
 30
0.0
  0
VERTEX
  5
120C
  8
SCAN
 10
291.4125999999998839
 20
-207.249149999999986
 30
0.0
  0
VERTEX
  5
120D
  8
SCAN
 10
291.134249999999895
 20
-207.3882999999999868
 30
0.0
  0
VERTEX
  5
120E
  8
SCAN
 10
272.2059999999999036
 20
-204.048050000000103
 30
0.0
  0
VERTEX
  5
120F
  8
SCAN
 10
269.4224500000000262
 20
-203.2129500000000917
 30
0.0
  0
VERTEX
  5
1210
  8
SCAN
 10
269.2832500000000095
 20
-199.0376500000000135
 30
0.0
  0
VERTEX
  5
1211
  8
SCAN
 10
259.8191499999999223
 20
-197.3675000000000068
 30
0.0
  0
VERTEX
  5
1212
  8
SCAN
 10
258.8448999999998819
 20
-200.1510500000001116
 30
0.0
  0
VERTEX
  5
1213
  8
SCAN
 10
258.2882000000000176
 20
-203.3521499999999946
 30
0.0
  0
VERTEX
  5
1214
  8
SCAN
 10
258.5665500000000065
 20
-207.3882999999999868
 30
0.0
  0
VERTEX
  5
1215
  8
SCAN
 10
259.1232499999999277
 20
-209.1976500000000954
 30
0.0
  0
VERTEX
  5
1216
  8
SCAN
 10
259.8191499999999223
 20
-210.3110499999999945
 30
0.0
  0
VERTEX
  5
1217
  8
SCAN
 10
258.4273999999999205
 20
-215.3214499999999987
 30
0.0
  0
VERTEX
  5
1218
  8
SCAN
 10
258.4273999999999205
 20
-219.7751500000001101
 30
0.0
  0
VERTEX
  5
1219
  8
SCAN
 10
258.8448999999998819
 20
-221.584500000000105
 30
0.0
  0
VERTEX
  5
121A
  8
SCAN
 10
260.097500000000025
 20
-224.0896999999999935
 30
0.0
  0
VERTEX
  5
121B
  8
SCAN
 10
261.9068500000000199
 20
-225.8990000000000862
 30
0.0
  0
VERTEX
  5
121C
  8
SCAN
 10
264.5511999999999944
 20
-227.4299500000001046
 30
0.0
  0
VERTEX
  5
121D
  8
SCAN
 10
262.8810999999998899
 20
-228.1258500000000993
 30
0.0
  0
VERTEX
  5
121E
  8
SCAN
 10
261.4892999999999006
 20
-229.1000999999999976
 30
0.0
  0
VERTEX
  5
121F
  8
SCAN
 10
259.8191499999999223
 20
-231.1877499999999941
 30
0.0
  0
VERTEX
  5
1220
  8
SCAN
 10
259.1232499999999277
 20
-232.7187000000000978
 30
0.0
  0
VERTEX
  5
1221
  8
SCAN
 10
258.2882000000000176
 20
-237.3115999999999985
 30
0.0
  0
VERTEX
  5
1222
  8
SCAN
 10
258.2882000000000176
 20
-241.6261000000000934
 30
0.0
  0
VERTEX
  5
1223
  8
SCAN
 10
258.7057500000000232
 20
-246.3581499999999949
 30
0.0
  0
VERTEX
  5
1224
  8
SCAN
 10
258.9840999999998985
 20
-247.3324000000000922
 30
0.0
  0
VERTEX
  5
1225
  8
SCAN
 10
266.7780500000000075
 20
-248.5850000000000932
 30
0.0
  0
VERTEX
  5
1226
  8
SCAN
 10
266.9172500000000241
 20
-248.8634000000000981
 30
0.0
  0
VERTEX
  5
1227
  8
SCAN
 10
264.1336999999999193
 20
-251.5077499999999873
 30
0.0
  0
VERTEX
  5
1228
  8
SCAN
 10
261.3500999999998839
 20
-254.9872000000000867
 30
0.0
  0
VERTEX
  5
1229
  8
SCAN
 10
258.8448999999998819
 20
-259.023399999999981
 30
0.0
  0
VERTEX
  5
122A
  8
SCAN
 10
256.2005500000000211
 20
-264.8688500000001227
 30
0.0
  0
VERTEX
  5
122B
  8
SCAN
 10
258.0098499999999149
 20
-268.7658500000001141
 30
0.0
  0
VERTEX
  5
122C
  8
SCAN
 10
260.3759000000000015
 20
-272.9411999999999807
 30
0.0
  0
VERTEX
  5
122D
  8
SCAN
 10
264.690400000000011
 20
-278.6474999999999795
 30
0.0
  0
VERTEX
  5
122E
  8
SCAN
 10
267.4739499999998884
 20
-281.2918499999998971
 30
0.0
  0
VERTEX
  5
122F
  8
SCAN
 10
270.2574999999998795
 20
-283.2403499999999781
 30
0.0
  0
VERTEX
  5
1230
  8
SCAN
 10
272.9019000000000119
 20
-284.3537999999999784
 30
0.0
  0
VERTEX
  5
1231
  8
SCAN
 10
275.128750000000025
 20
-284.6321500000000242
 30
0.0
  0
VERTEX
  5
1232
  8
SCAN
 10
273.7369499999999221
 20
-284.2146000000000754
 30
0.0
  0
VERTEX
  5
1233
  8
SCAN
 10
270.5359000000000265
 20
-282.4053000000001248
 30
0.0
  0
VERTEX
  5
1234
  8
SCAN
 10
268.448199999999872
 20
-280.735149999999976
 30
0.0
  0
VERTEX
  5
1235
  8
SCAN
 10
265.9429999999999268
 20
-278.2299499999999739
 30
0.0
  0
VERTEX
  5
1236
  8
SCAN
 10
262.1852000000000089
 20
-273.2195500000000266
 30
0.0
  0
VERTEX
  5
1237
  8
SCAN
 10
260.236699999999928
 20
-269.8792500000001269
 30
0.0
  0
VERTEX
  5
1238
  8
SCAN
 10
257.8706500000000119
 20
-264.8688500000001227
 30
0.0
  0
VERTEX
  5
1239
  8
SCAN
 10
260.6542499999998768
 20
-262.9203499999999849
 30
0.0
  0
VERTEX
  5
123A
  8
SCAN
 10
263.1594499999998789
 20
-261.667750000000126
 30
0.0
  0
VERTEX
  5
123B
  8
SCAN
 10
266.7780500000000075
 20
-260.4151499999999828
 30
0.0
  0
VERTEX
  5
123C
  8
SCAN
 10
270.9533999999998741
 20
-259.7192500000001019
 30
0.0
  0
VERTEX
  5
123D
  8
SCAN
 10
275.6854499999998893
 20
-259.8584499999998911
 30
0.0
  0
VERTEX
  5
123E
  8
SCAN
 10
279.721650000000011
 20
-260.9718500000000745
 30
0.0
  0
VERTEX
  5
123F
  8
SCAN
 10
282.5051999999998884
 20
-262.6419999999998822
 30
0.0
  0
VERTEX
  5
1240
  8
SCAN
 10
284.7320500000000152
 20
-265.0080500000000256
 30
0.0
  0
VERTEX
  5
1241
  8
SCAN
 10
286.5413500000000226
 20
-268.6266499999999837
 30
0.0
  0
VERTEX
  5
1242
  8
SCAN
 10
286.6805499999999256
 20
-266.1214499999999816
 30
0.0
  0
VERTEX
  5
1243
  8
SCAN
 10
286.123800000000017
 20
-263.7554500000001099
 30
0.0
  0
VERTEX
  5
1244
  8
SCAN
 10
284.8711999999998739
 20
-261.5286000000000968
 30
0.0
  0
VERTEX
  5
1245
  8
SCAN
 10
282.3659999999998718
 20
-259.1625500000001239
 30
0.0
  0
VERTEX
  5
1246
  8
SCAN
 10
279.721650000000011
 20
-257.7708000000001221
 30
0.0
  0
VERTEX
  5
1247
  8
SCAN
 10
276.6596999999998729
 20
-256.9357000000001108
 30
0.0
  0
VERTEX
  5
1248
  8
SCAN
 10
272.7627499999999259
 20
-256.7965500000000816
 30
0.0
  0
VERTEX
  5
1249
  8
SCAN
 10
269.8399999999999181
 20
-257.3532500000001164
 30
0.0
  0
VERTEX
  5
124A
  8
SCAN
 10
269.1440999999999235
 20
-257.2140499999998724
 30
0.0
  0
VERTEX
  5
124B
  8
SCAN
 10
271.6492999999999256
 20
-255.4047499999998934
 30
0.0
  0
VERTEX
  5
124C
  8
SCAN
 10
274.0153499999998985
 20
-254.1521500000000913
 30
0.0
  0
VERTEX
  5
124D
  8
SCAN
 10
278.0514999999999191
 20
-252.8995500000000902
 30
0.0
  0
VERTEX
  5
124E
  8
SCAN
 10
282.6443499999999176
 20
-252.8995500000000902
 30
0.0
  0
VERTEX
  5
124F
  8
SCAN
 10
284.7320500000000152
 20
-253.4562500000000966
 30
0.0
  0
VERTEX
  5
1250
  8
SCAN
 10
286.5413500000000226
 20
-254.291300000000092
 30
0.0
  0
VERTEX
  5
1251
  8
SCAN
 10
288.2114999999998872
 20
-255.4047499999998934
 30
0.0
  0
VERTEX
  5
1252
  8
SCAN
 10
290.2991499999998837
 20
-257.4923999999999751
 30
0.0
  0
VERTEX
  5
1253
  8
SCAN
 10
291.6909499999998729
 20
-259.8584499999998911
 30
0.0
  0
VERTEX
  5
1254
  8
SCAN
 10
291.9692999999999188
 20
-260.6934999999999718
 30
0.0
  0
VERTEX
  5
1255
  8
SCAN
 10
291.8300999999999021
 20
-260.9718500000000745
 30
0.0
  0
VERTEX
  5
1256
  8
SCAN
 10
289.1857499999999845
 20
-258.0491499999998837
 30
0.0
  0
VERTEX
  5
1257
  8
SCAN
 10
286.5413500000000226
 20
-256.3790000000000759
 30
0.0
  0
VERTEX
  5
1258
  8
SCAN
 10
282.5051999999998884
 20
-255.1264000000001033
 30
0.0
  0
VERTEX
  5
1259
  8
SCAN
 10
278.886549999999886
 20
-254.9872000000000867
 30
0.0
  0
VERTEX
  5
125A
  8
SCAN
 10
281.9485000000000241
 20
-255.9614500000000987
 30
0.0
  0
VERTEX
  5
125B
  8
SCAN
 10
284.5928499999998849
 20
-257.631599999999878
 30
0.0
  0
VERTEX
  5
125C
  8
SCAN
 10
286.4021999999998798
 20
-259.4408999999998855
 30
0.0
  0
VERTEX
  5
125D
  8
SCAN
 10
287.3763999999998759
 20
-260.8326999999998748
 30
0.0
  0
VERTEX
  5
125E
  8
SCAN
 10
288.7681999999999221
 20
-264.1729500000001281
 30
0.0
  0
VERTEX
  5
125F
  8
SCAN
 10
289.3248999999999
 20
-267.6524000000001138
 30
0.0
  0
VERTEX
  5
1260
  8
SCAN
 10
289.0465500000000247
 20
-272.5236499999999751
 30
0.0
  0
VERTEX
  5
1261
  8
SCAN
 10
287.6548000000000229
 20
-277.5340499999999793
 30
0.0
  0
VERTEX
  5
1262
  8
SCAN
 10
286.5413500000000226
 20
-279.7608999999999924
 30
0.0
  0
VERTEX
  5
1263
  8
SCAN
 10
285.845450000000028
 20
-280.5960000000001173
 30
0.0
  0
VERTEX
  5
1264
  8
SCAN
 10
284.1753499999999235
 20
-280.735149999999976
 30
0.0
  0
VERTEX
  5
1265
  8
SCAN
 10
282.5051999999998884
 20
-281.7094000000000165
 30
0.0
  0
VERTEX
  5
1266
  8
SCAN
 10
281.1134000000000128
 20
-280.4567999999998733
 30
0.0
  0
VERTEX
  5
1267
  8
SCAN
 10
280.8350499999999101
 20
-279.900100000000009
 30
0.0
  0
VERTEX
  5
1268
  8
SCAN
 10
280.5566999999999211
 20
-277.5340499999999793
 30
0.0
  0
VERTEX
  5
1269
  8
SCAN
 10
281.5309500000000185
 20
-272.5236499999999751
 30
0.0
  0
VERTEX
  5
126A
  8
SCAN
 10
281.5309500000000185
 20
-269.6009000000000242
 30
0.0
  0
VERTEX
  5
126B
  8
SCAN
 10
281.1134000000000128
 20
-268.069949999999892
 30
0.0
  0
VERTEX
  5
126C
  8
SCAN
 10
279.9999999999998863
 20
-266.1214499999999816
 30
0.0
  0
VERTEX
  5
126D
  8
SCAN
 10
277.9123000000000161
 20
-264.3121499999999742
 30
0.0
  0
VERTEX
  5
126E
  8
SCAN
 10
276.102999999999895
 20
-263.6162499999999795
 30
0.0
  0
VERTEX
  5
126F
  8
SCAN
 10
274.4328499999999167
 20
-263.3379000000001042
 30
0.0
  0
VERTEX
  5
1270
  8
SCAN
 10
271.2317499999999768
 20
-263.3379000000001042
 30
0.0
  0
VERTEX
  5
1271
  8
SCAN
 10
269.5616499999998723
 20
-263.6162499999999795
 30
0.0
  0
VERTEX
  5
1272
  8
SCAN
 10
267.0563999999998828
 20
-264.4512999999998897
 30
0.0
  0
VERTEX
  5
1273
  8
SCAN
 10
265.2470999999998753
 20
-265.4255499999998733
 30
0.0
  0
VERTEX
  5
1274
  8
SCAN
 10
263.4377999999999247
 20
-266.8173499999999763
 30
0.0
  0
VERTEX
  5
1275
  8
SCAN
 10
262.4635499999999979
 20
-268.069949999999892
 30
0.0
  0
VERTEX
  5
1276
  8
SCAN
 10
266.6388999999999783
 20
-267.2348999999999819
 30
0.0
  0
VERTEX
  5
1277
  8
SCAN
 10
269.8399999999999181
 20
-267.0957000000000789
 30
0.0
  0
VERTEX
  5
1278
  8
SCAN
 10
269.9791499999998905
 20
-267.2348999999999819
 30
0.0
  0
VERTEX
  5
1279
  8
SCAN
 10
268.3090500000000134
 20
-269.0441999999999894
 30
0.0
  0
VERTEX
  5
127A
  8
SCAN
 10
266.9172500000000241
 20
-271.1318499999999858
 30
0.0
  0
VERTEX
  5
127B
  8
SCAN
 10
265.9429999999999268
 20
-273.6370999999999754
 30
0.0
  0
VERTEX
  5
127C
  8
SCAN
 10
269.0049000000000206
 20
-271.5493999999999915
 30
0.0
  0
VERTEX
  5
127D
  8
SCAN
 10
272.2059999999999036
 20
-269.8792500000001269
 30
0.0
  0
VERTEX
  5
127E
  8
SCAN
 10
272.3451999999999202
 20
-270.018449999999973
 30
0.0
  0
VERTEX
  5
127F
  8
SCAN
 10
271.2317499999999768
 20
-271.9669500000001108
 30
0.0
  0
VERTEX
  5
1280
  8
SCAN
 10
270.1183499999999071
 20
-275.7247499999999718
 30
0.0
  0
VERTEX
  5
1281
  8
SCAN
 10
270.1183499999999071
 20
-278.2299499999999739
 30
0.0
  0
VERTEX
  5
1282
  8
SCAN
 10
271.6492999999999256
 20
-275.8639499999998748
 30
0.0
  0
VERTEX
  5
1283
  8
SCAN
 10
273.3194500000000176
 20
-274.1938000000001239
 30
0.0
  0
VERTEX
  5
1284
  8
SCAN
 10
275.128750000000025
 20
-273.2195500000000266
 30
0.0
  0
VERTEX
  5
1285
  8
SCAN
 10
277.0772499999998786
 20
-273.0803499999998962
 30
0.0
  0
VERTEX
  5
1286
  8
SCAN
 10
277.3555999999999244
 20
-273.4979000000000724
 30
0.0
  0
VERTEX
  5
1287
  8
SCAN
 10
277.3555999999999244
 20
-278.5083000000000766
 30
0.0
  0
VERTEX
  5
1288
  8
SCAN
 10
278.1906499999998914
 20
-280.735149999999976
 30
0.0
  0
VERTEX
  5
1289
  8
SCAN
 10
280.4175000000000182
 20
-283.101199999999892
 30
0.0
  0
VERTEX
  5
128A
  8
SCAN
 10
283.201099999999883
 20
-284.9105000000001269
 30
0.0
  0
VERTEX
  5
128B
  8
SCAN
 10
284.8711999999998739
 20
-285.4671999999998775
 30
0.0
  0
VERTEX
  5
128C
  8
SCAN
 10
285.7062999999999988
 20
-285.4671999999998775
 30
0.0
  0
VERTEX
  5
128D
  8
SCAN
 10
286.9589000000000283
 20
-284.0754499999998757
 30
0.0
  0
VERTEX
  5
128E
  8
SCAN
 10
288.7681999999999221
 20
-281.1526999999999816
 30
0.0
  0
VERTEX
  5
128F
  8
SCAN
 10
290.2991499999998837
 20
-277.9515999999999849
 30
0.0
  0
VERTEX
  5
1290
  8
SCAN
 10
291.4125999999998839
 20
-276.6989999999998986
 30
0.0
  0
VERTEX
  5
1291
  8
SCAN
 10
292.6652000000000271
 20
-276.1422999999999774
 30
0.0
  0
VERTEX
  5
1292
  8
SCAN
 10
294.0569499999999152
 20
-276.1422999999999774
 30
0.0
  0
VERTEX
  5
1293
  8
SCAN
 10
295.5879499999999211
 20
-276.977350000000115
 30
0.0
  0
VERTEX
  5
1294
  8
SCAN
 10
295.4487499999999045
 20
-276.2814500000001203
 30
0.0
  0
VERTEX
  5
1295
  8
SCAN
 10
294.4744999999999777
 20
-275.1680499999999938
 30
0.0
  0
VERTEX
  5
1296
  8
SCAN
 10
296.4230000000000018
 20
-274.3329500000000962
 30
0.0
  0
VERTEX
  5
1297
  8
SCAN
 10
299.2065499999998792
 20
-271.5493999999999915
 30
0.0
  0
VERTEX
  5
1298
  8
SCAN
 10
299.3457499999998959
 20
-271.9669500000001108
 30
0.0
  0
VERTEX
  5
1299
  8
SCAN
 10
297.9539499999999066
 20
-279.6217500000000769
 30
0.0
  0
VERTEX
  5
129A
  8
SCAN
 10
296.7013499999998771
 20
-283.7971000000000004
 30
0.0
  0
VERTEX
  5
129B
  8
SCAN
 10
295.8662999999999101
 20
-285.6064000000001215
 30
0.0
  0
VERTEX
  5
129C
  8
SCAN
 10
295.3095499999998879
 20
-286.0239500000001271
 30
0.0
  0
VERTEX
  5
129D
  8
SCAN
 10
293.3610999999999081
 20
-286.5806500000001051
 30
0.0
  0
VERTEX
  5
129E
  8
SCAN
 10
289.1857499999999845
 20
-286.9981500000001233
 30
0.0
  0
VERTEX
  5
129F
  8
SCAN
 10
291.9692999999999188
 20
-287.5548999999999751
 30
0.0
  0
SEQEND
  5
12A0
  8
SCAN
  0
POLYLINE
  5
2DD
  8
SCAN
 66
     1
 10
0.0
 20
0.0
 30
0.0
 70
     1
  0
VERTEX
  5
12A1
  8
SCAN
 10
296.7013499999998771
 20
-287.6940499999998906
 30
0.0
  0
VERTEX
  5
12A2
  8
SCAN
 10
296.979699999999923
 20
-287.5548999999999751
 30
0.0
  0
VERTEX
  5
12A3
  8
SCAN
 10
297.536399999999901
 20
-286.3023000000000025
 30
0.0
  0
VERTEX
  5
12A4
  8
SCAN
 10
299.0674000000000206
 20
-281.5702499999999873
 30
0.0
  0
VERTEX
  5
12A5
  8
SCAN
 10
300.3199999999999932
 20
-275.8639499999998748
 30
0.0
  0
VERTEX
  5
12A6
  8
SCAN
 10
300.876700000000028
 20
-271.2710500000000025
 30
0.0
  0
VERTEX
  5
12A7
  8
SCAN
 10
301.155050000000017
 20
-270.9927000000001271
 30
0.0
  0
VERTEX
  5
12A8
  8
SCAN
 10
301.9900999999999271
 20
-270.9927000000001271
 30
0.0
  0
VERTEX
  5
12A9
  8
SCAN
 10
304.4953499999999167
 20
-271.4102500000000759
 30
0.0
  0
VERTEX
  5
12AA
  8
SCAN
 10
305.8870999999999185
 20
-271.9669500000001108
 30
0.0
  0
VERTEX
  5
12AB
  8
SCAN
 10
306.1654499999999075
 20
-271.8277499999999804
 30
0.0
  0
VERTEX
  5
12AC
  8
SCAN
 10
306.0262999999998783
 20
-270.2968000000000757
 30
0.0
  0
VERTEX
  5
12AD
  8
SCAN
 10
305.6087499999998727
 20
-268.9049999999999727
 30
0.0
  0
VERTEX
  5
12AE
  8
SCAN
 10
303.7994499999999221
 20
-266.2606499999998846
 30
0.0
  0
VERTEX
  5
12AF
  8
SCAN
 10
302.4076499999999896
 20
-265.147199999999998
 30
0.0
  0
VERTEX
  5
12B0
  8
SCAN
 10
301.7117499999998813
 20
-266.8173499999999763
 30
0.0
  0
VERTEX
  5
12B1
  8
SCAN
 10
301.29424999999992
 20
-267.2348999999999819
 30
0.0
  0
VERTEX
  5
12B2
  8
SCAN
 10
301.155050000000017
 20
-267.0957000000000789
 30
0.0
  0
VERTEX
  5
12B3
  8
SCAN
 10
301.4333999999998923
 20
-265.0080500000000256
 30
0.0
  0
VERTEX
  5
12B4
  8
SCAN
 10
301.29424999999992
 20
-261.3894000000000233
 30
0.0
  0
VERTEX
  5
12B5
  8
SCAN
 10
304.2169499999998834
 20
-261.2502499999998804
 30
0.0
  0
VERTEX
  5
12B6
  8
SCAN
 10
307.0005499999999756
 20
-261.667750000000126
 30
0.0
  0
VERTEX
  5
12B7
  8
SCAN
 10
306.8613500000000158
 20
-259.8584499999998911
 30
0.0
  0
VERTEX
  5
12B8
  8
SCAN
 10
305.8870999999999185
 20
-257.0749000000001274
 30
0.0
  0
VERTEX
  5
12B9
  8
SCAN
 10
304.3561500000000137
 20
-254.5697000000000116
 30
0.0
  0
VERTEX
  5
12BA
  8
SCAN
 10
301.155050000000017
 20
-250.8118500000001063
 30
0.0
  0
VERTEX
  5
12BB
  8
SCAN
 10
302.5468500000000063
 20
-248.5850000000000932
 30
0.0
  0
VERTEX
  5
12BC
  8
SCAN
 10
303.3818999999999164
 20
-245.5231000000001131
 30
0.0
  0
VERTEX
  5
12BD
  8
SCAN
 10
303.3818999999999164
 20
-240.9302500000000862
 30
0.0
  0
VERTEX
  5
12BE
  8
SCAN
 10
302.9643500000000245
 20
-238.8425499999999886
 30
0.0
  0
VERTEX
  5
12BF
  8
SCAN
 10
301.9900999999999271
 20
-236.4765500000000884
 30
0.0
  0
VERTEX
  5
12C0
  8
SCAN
 10
300.3199999999999932
 20
-234.3888500000001045
 30
0.0
  0
VERTEX
  5
12C1
  8
SCAN
 10
300.876700000000028
 20
-234.2497000000001037
 30
0.0
  0
VERTEX
  5
12C2
  8
SCAN
 10
302.8251999999998816
 20
-234.6672000000000935
 30
0.0
  0
VERTEX
  5
12C3
  8
SCAN
 10
302.8251999999998816
 20
-205.7181499999998948
 30
0.0
  0
VERTEX
  5
12C4
  8
SCAN
 10
291.4125999999998839
 20
-203.7697000000000003
 30
0.0
  0
VERTEX
  5
12C5
  8
SCAN
 10
291.4125999999998839
 20
-207.249149999999986
 30
0.0
  0
VERTEX
  5
12C6
  8
SCAN
 10
291.134249999999895
 20
-207.3882999999999868
 30
0.0
  0
VERTEX
  5
12C7
  8
SCAN
 10
270.2574999999998795
 20
-203.6305000000000973
 30
0.0
  0
VERTEX
  5
12C8
  8
SCAN
 10
269.4224500000000262
 20
-203.2129500000000917
 30
0.0
  0
VERTEX
  5
12C9
  8
SCAN
 10
269.2832500000000095
 20
-199.0376500000000135
 30
0.0
  0
VERTEX
  5
12CA
  8
SCAN
 10
259.8191499999999223
 20
-197.3675000000000068
 30
0.0
  0
VERTEX
  5
12CB
  8
SCAN
 10
258.8448999999998819
 20
-200.1510500000001116
 30
0.0
  0
VERTEX
  5
12CC
  8
SCAN
 10
258.2882000000000176
 20
-203.3521499999999946
 30
0.0
  0
VERTEX
  5
12CD
  8
SCAN
 10
258.5665500000000065
 20
-207.3882999999999868
 30
0.0
  0
VERTEX
  5
12CE
  8
SCAN
 10
259.1232499999999277
 20
-209.1976500000000954
 30
0.0
  0
VERTEX
  5
12CF
  8
SCAN
 10
259.8191499999999223
 20
-210.3110499999999945
 30
0.0
  0
VERTEX
  5
12D0
  8
SCAN
 10
258.4273999999999205
 20
-215.3214499999999987
 30
0.0
  0
VERTEX
  5
12D1
  8
SCAN
 10
258.4273999999999205
 20
-219.7751500000001101
 30
0.0
  0
VERTEX
  5
12D2
  8
SCAN
 10
258.8448999999998819
 20
-221.584500000000105
 30
0.0
  0
VERTEX
  5
12D3
  8
SCAN
 10
260.097500000000025
 20
-224.0896999999999935
 30
0.0
  0
VERTEX
  5
12D4
  8
SCAN
 10
261.9068500000000199
 20
-225.8990000000000862
 30
0.0
  0
VERTEX
  5
12D5
  8
SCAN
 10
264.5511999999999944
 20
-227.4299500000001046
 30
0.0
  0
VERTEX
  5
12D6
  8
SCAN
 10
262.8810999999998899
 20
-228.1258500000000993
 30
0.0
  0
VERTEX
  5
12D7
  8
SCAN
 10
261.4892999999999006
 20
-229.1000999999999976
 30
0.0
  0
VERTEX
  5
12D8
  8
SCAN
 10
259.8191499999999223
 20
-231.1877499999999941
 30
0.0
  0
VERTEX
  5
12D9
  8
SCAN
 10
259.1232499999999277
 20
-232.7187000000000978
 30
0.0
  0
VERTEX
  5
12DA
  8
SCAN
 10
258.5665500000000065
 20
-234.9455499999999972
 30
0.0
  0
VERTEX
  5
12DB
  8
SCAN
 10
258.2882000000000176
 20
-237.3115999999999985
 30
0.0
  0
VERTEX
  5
12DC
  8
SCAN
 10
258.2882000000000176
 20
-241.6261000000000934
 30
0.0
  0
VERTEX
  5
12DD
  8
SCAN
 10
258.7057500000000232
 20
-246.3581499999999949
 30
0.0
  0
VERTEX
  5
12DE
  8
SCAN
 10
258.9840999999998985
 20
-247.3324000000000922
 30
0.0
  0
VERTEX
  5
12DF
  8
SCAN
 10
266.7780500000000075
 20
-248.5850000000000932
 30
0.0
  0
VERTEX
  5
12E0
  8
SCAN
 10
266.9172500000000241
 20
-248.8634000000000981
 30
0.0
  0
VERTEX
  5
12E1
  8
SCAN
 10
264.1336999999999193
 20
-251.5077499999999873
 30
0.0
  0
VERTEX
  5
12E2
  8
SCAN
 10
261.3500999999998839
 20
-254.9872000000000867
 30
0.0
  0
VERTEX
  5
12E3
  8
SCAN
 10
258.8448999999998819
 20
-259.023399999999981
 30
0.0
  0
VERTEX
  5
12E4
  8
SCAN
 10
256.2005500000000211
 20
-264.8688500000001227
 30
0.0
  0
VERTEX
  5
12E5
  8
SCAN
 10
258.0098499999999149
 20
-268.7658500000001141
 30
0.0
  0
VERTEX
  5
12E6
  8
SCAN
 10
260.3759000000000015
 20
-272.9411999999999807
 30
0.0
  0
VERTEX
  5
12E7
  8
SCAN
 10
263.0202499999999191
 20
-276.6989999999998986
 30
0.0
  0
VERTEX
  5
12E8
  8
SCAN
 10
264.690400000000011
 20
-278.6474999999999795
 30
0.0
  0
VERTEX
  5
12E9
  8
SCAN
 10
267.4739499999998884
 20
-281.2918499999998971
 30
0.0
  0
VERTEX
  5
12EA
  8
SCAN
 10
270.2574999999998795
 20
-283.2403499999999781
 30
0.0
  0
VERTEX
  5
12EB
  8
SCAN
 10
272.9019000000000119
 20
-284.3537999999999784
 30
0.0
  0
VERTEX
  5
12EC
  8
SCAN
 10
275.128750000000025
 20
-284.6321500000000242
 30
0.0
  0
VERTEX
  5
12ED
  8
SCAN
 10
273.7369499999999221
 20
-284.2146000000000754
 30
0.0
  0
VERTEX
  5
12EE
  8
SCAN
 10
270.5359000000000265
 20
-282.4053000000001248
 30
0.0
  0
VERTEX
  5
12EF
  8
SCAN
 10
268.448199999999872
 20
-280.735149999999976
 30
0.0
  0
VERTEX
  5
12F0
  8
SCAN
 10
265.9429999999999268
 20
-278.2299499999999739
 30
0.0
  0
VERTEX
  5
12F1
  8
SCAN
 10
262.1852000000000089
 20
-273.2195500000000266
 30
0.0
  0
VERTEX
  5
12F2
  8
SCAN
 10
260.236699999999928
 20
-269.8792500000001269
 30
0.0
  0
VERTEX
  5
12F3
  8
SCAN
 10
257.8706500000000119
 20
-264.8688500000001227
 30
0.0
  0
VERTEX
  5
12F4
  8
SCAN
 10
260.6542499999998768
 20
-262.9203499999999849
 30
0.0
  0
VERTEX
  5
12F5
  8
SCAN
 10
263.1594499999998789
 20
-261.667750000000126
 30
0.0
  0
VERTEX
  5
12F6
  8
SCAN
 10
266.7780500000000075
 20
-260.4151499999999828
 30
0.0
  0
VERTEX
  5
12F7
  8
SCAN
 10
270.9533999999998741
 20
-259.7192500000001019
 30
0.0
  0
VERTEX
  5
12F8
  8
SCAN
 10
275.6854499999998893
 20
-259.8584499999998911
 30
0.0
  0
VERTEX
  5
12F9
  8
SCAN
 10
279.721650000000011
 20
-260.9718500000000745
 30
0.0
  0
VERTEX
  5
12FA
  8
SCAN
 10
282.5051999999998884
 20
-262.6419999999998822
 30
0.0
  0
VERTEX
  5
12FB
  8
SCAN
 10
284.7320500000000152
 20
-265.0080500000000256
 30
0.0
  0
VERTEX
  5
12FC
  8
SCAN
 10
286.5413500000000226
 20
-268.6266499999999837
 30
0.0
  0
VERTEX
  5
12FD
  8
SCAN
 10
286.6805499999999256
 20
-266.1214499999999816
 30
0.0
  0
VERTEX
  5
12FE
  8
SCAN
 10
286.123800000000017
 20
-263.7554500000001099
 30
0.0
  0
VERTEX
  5
12FF
  8
SCAN
 10
284.8711999999998739
 20
-261.5286000000000968
 30
0.0
  0
VERTEX
  5
1300
  8
SCAN
 10
283.7577999999999179
 20
-260.2759999999998968
 30
0.0
  0
VERTEX
  5
1301
  8
SCAN
 10
282.3659999999998718
 20
-259.1625500000001239
 30
0.0
  0
VERTEX
  5
1302
  8
SCAN
 10
279.721650000000011
 20
-257.7708000000001221
 30
0.0
  0
VERTEX
  5
1303
  8
SCAN
 10
276.6596999999998729
 20
-256.9357000000001108
 30
0.0
  0
VERTEX
  5
1304
  8
SCAN
 10
272.7627499999999259
 20
-256.7965500000000816
 30
0.0
  0
VERTEX
  5
1305
  8
SCAN
 10
270.5359000000000265
 20
-257.0749000000001274
 30
0.0
  0
VERTEX
  5
1306
  8
SCAN
 10
269.8399999999999181
 20
-257.3532500000001164
 30
0.0
  0
VERTEX
  5
1307
  8
SCAN
 10
269.1440999999999235
 20
-257.2140499999998724
 30
0.0
  0
VERTEX
  5
1308
  8
SCAN
 10
271.6492999999999256
 20
-255.4047499999998934
 30
0.0
  0
VERTEX
  5
1309
  8
SCAN
 10
274.0153499999998985
 20
-254.1521500000000913
 30
0.0
  0
VERTEX
  5
130A
  8
SCAN
 10
278.0514999999999191
 20
-252.8995500000000902
 30
0.0
  0
VERTEX
  5
130B
  8
SCAN
 10
282.6443499999999176
 20
-252.8995500000000902
 30
0.0
  0
VERTEX
  5
130C
  8
SCAN
 10
284.7320500000000152
 20
-253.4562500000000966
 30
0.0
  0
VERTEX
  5
130D
  8
SCAN
 10
286.5413500000000226
 20
-254.291300000000092
 30
0.0
  0
VERTEX
  5
130E
  8
SCAN
 10
288.2114999999998872
 20
-255.4047499999998934
 30
0.0
  0
VERTEX
  5
130F
  8
SCAN
 10
290.2991499999998837
 20
-257.4923999999999751
 30
0.0
  0
VERTEX
  5
1310
  8
SCAN
 10
291.6909499999998729
 20
-259.8584499999998911
 30
0.0
  0
VERTEX
  5
1311
  8
SCAN
 10
291.9692999999999188
 20
-260.6934999999999718
 30
0.0
  0
VERTEX
  5
1312
  8
SCAN
 10
291.8300999999999021
 20
-260.9718500000000745
 30
0.0
  0
VERTEX
  5
1313
  8
SCAN
 10
289.1857499999999845
 20
-258.0491499999998837
 30
0.0
  0
VERTEX
  5
1314
  8
SCAN
 10
286.5413500000000226
 20
-256.3790000000000759
 30
0.0
  0
VERTEX
  5
1315
  8
SCAN
 10
282.5051999999998884
 20
-255.1264000000001033
 30
0.0
  0
VERTEX
  5
1316
  8
SCAN
 10
278.886549999999886
 20
-254.9872000000000867
 30
0.0
  0
VERTEX
  5
1317
  8
SCAN
 10
281.9485000000000241
 20
-255.9614500000000987
 30
0.0
  0
VERTEX
  5
1318
  8
SCAN
 10
284.5928499999998849
 20
-257.631599999999878
 30
0.0
  0
VERTEX
  5
1319
  8
SCAN
 10
286.4021999999998798
 20
-259.4408999999998855
 30
0.0
  0
VERTEX
  5
131A
  8
SCAN
 10
287.3763999999998759
 20
-260.8326999999998748
 30
0.0
  0
VERTEX
  5
131B
  8
SCAN
 10
288.7681999999999221
 20
-264.1729500000001281
 30
0.0
  0
VERTEX
  5
131C
  8
SCAN
 10
289.3248999999999
 20
-267.6524000000001138
 30
0.0
  0
VERTEX
  5
131D
  8
SCAN
 10
289.0465500000000247
 20
-272.5236499999999751
 30
0.0
  0
VERTEX
  5
131E
  8
SCAN
 10
287.6548000000000229
 20
-277.5340499999999793
 30
0.0
  0
VERTEX
  5
131F
  8
SCAN
 10
286.5413500000000226
 20
-279.7608999999999924
 30
0.0
  0
VERTEX
  5
1320
  8
SCAN
 10
285.845450000000028
 20
-280.5960000000001173
 30
0.0
  0
VERTEX
  5
1321
  8
SCAN
 10
284.1753499999999235
 20
-280.735149999999976
 30
0.0
  0
VERTEX
  5
1322
  8
SCAN
 10
282.5051999999998884
 20
-281.7094000000000165
 30
0.0
  0
VERTEX
  5
1323
  8
SCAN
 10
281.1134000000000128
 20
-280.4567999999998733
 30
0.0
  0
VERTEX
  5
1324
  8
SCAN
 10
280.5566999999999211
 20
-278.7866500000001224
 30
0.0
  0
VERTEX
  5
1325
  8
SCAN
 10
280.5566999999999211
 20
-277.5340499999999793
 30
0.0
  0
VERTEX
  5
1326
  8
SCAN
 10
281.5309500000000185
 20
-272.5236499999999751
 30
0.0
  0
VERTEX
  5
1327
  8
SCAN
 10
281.5309500000000185
 20
-269.6009000000000242
 30
0.0
  0
VERTEX
  5
1328
  8
SCAN
 10
281.1134000000000128
 20
-268.069949999999892
 30
0.0
  0
VERTEX
  5
1329
  8
SCAN
 10
279.9999999999998863
 20
-266.1214499999999816
 30
0.0
  0
VERTEX
  5
132A
  8
SCAN
 10
277.9123000000000161
 20
-264.3121499999999742
 30
0.0
  0
VERTEX
  5
132B
  8
SCAN
 10
276.102999999999895
 20
-263.6162499999999795
 30
0.0
  0
VERTEX
  5
132C
  8
SCAN
 10
274.4328499999999167
 20
-263.3379000000001042
 30
0.0
  0
VERTEX
  5
132D
  8
SCAN
 10
271.2317499999999768
 20
-263.3379000000001042
 30
0.0
  0
VERTEX
  5
132E
  8
SCAN
 10
269.5616499999998723
 20
-263.6162499999999795
 30
0.0
  0
VERTEX
  5
132F
  8
SCAN
 10
267.0563999999998828
 20
-264.4512999999998897
 30
0.0
  0
VERTEX
  5
1330
  8
SCAN
 10
265.2470999999998753
 20
-265.4255499999998733
 30
0.0
  0
VERTEX
  5
1331
  8
SCAN
 10
263.4377999999999247
 20
-266.8173499999999763
 30
0.0
  0
VERTEX
  5
1332
  8
SCAN
 10
262.4635499999999979
 20
-268.069949999999892
 30
0.0
  0
VERTEX
  5
1333
  8
SCAN
 10
266.6388999999999783
 20
-267.2348999999999819
 30
0.0
  0
VERTEX
  5
1334
  8
SCAN
 10
269.8399999999999181
 20
-267.0957000000000789
 30
0.0
  0
VERTEX
  5
1335
  8
SCAN
 10
269.9791499999998905
 20
-267.2348999999999819
 30
0.0
  0
VERTEX
  5
1336
  8
SCAN
 10
268.3090500000000134
 20
-269.0441999999999894
 30
0.0
  0
VERTEX
  5
1337
  8
SCAN
 10
266.9172500000000241
 20
-271.1318499999999858
 30
0.0
  0
VERTEX
  5
1338
  8
SCAN
 10
265.9429999999999268
 20
-273.6370999999999754
 30
0.0
  0
VERTEX
  5
1339
  8
SCAN
 10
266.2213499999999158
 20
-273.6370999999999754
 30
0.0
  0
VERTEX
  5
133A
  8
SCAN
 10
269.0049000000000206
 20
-271.5493999999999915
 30
0.0
  0
VERTEX
  5
133B
  8
SCAN
 10
272.2059999999999036
 20
-269.8792500000001269
 30
0.0
  0
VERTEX
  5
133C
  8
SCAN
 10
272.3451999999999202
 20
-270.018449999999973
 30
0.0
  0
VERTEX
  5
133D
  8
SCAN
 10
271.2317499999999768
 20
-271.9669500000001108
 30
0.0
  0
VERTEX
  5
133E
  8
SCAN
 10
270.5359000000000265
 20
-273.915450000000078
 30
0.0
  0
VERTEX
  5
133F
  8
SCAN
 10
270.1183499999999071
 20
-275.7247499999999718
 30
0.0
  0
VERTEX
  5
1340
  8
SCAN
 10
270.1183499999999071
 20
-278.2299499999999739
 30
0.0
  0
VERTEX
  5
1341
  8
SCAN
 10
271.6492999999999256
 20
-275.8639499999998748
 30
0.0
  0
VERTEX
  5
1342
  8
SCAN
 10
273.3194500000000176
 20
-274.1938000000001239
 30
0.0
  0
VERTEX
  5
1343
  8
SCAN
 10
275.128750000000025
 20
-273.2195500000000266
 30
0.0
  0
VERTEX
  5
1344
  8
SCAN
 10
277.0772499999998786
 20
-273.0803499999998962
 30
0.0
  0
VERTEX
  5
1345
  8
SCAN
 10
277.3555999999999244
 20
-273.4979000000000724
 30
0.0
  0
VERTEX
  5
1346
  8
SCAN
 10
277.3555999999999244
 20
-278.5083000000000766
 30
0.0
  0
VERTEX
  5
1347
  8
SCAN
 10
278.1906499999998914
 20
-280.735149999999976
 30
0.0
  0
VERTEX
  5
1348
  8
SCAN
 10
280.4175000000000182
 20
-283.101199999999892
 30
0.0
  0
VERTEX
  5
1349
  8
SCAN
 10
283.201099999999883
 20
-284.9105000000001269
 30
0.0
  0
VERTEX
  5
134A
  8
SCAN
 10
284.8711999999998739
 20
-285.4671999999998775
 30
0.0
  0
VERTEX
  5
134B
  8
SCAN
 10
285.7062999999999988
 20
-285.4671999999998775
 30
0.0
  0
VERTEX
  5
134C
  8
SCAN
 10
286.9589000000000283
 20
-284.0754499999998757
 30
0.0
  0
VERTEX
  5
134D
  8
SCAN
 10
288.7681999999999221
 20
-281.1526999999999816
 30
0.0
  0
VERTEX
  5
134E
  8
SCAN
 10
290.2991499999998837
 20
-277.9515999999999849
 30
0.0
  0
VERTEX
  5
134F
  8
SCAN
 10
291.4125999999998839
 20
-276.6989999999998986
 30
0.0
  0
VERTEX
  5
1350
  8
SCAN
 10
292.6652000000000271
 20
-276.1422999999999774
 30
0.0
  0
VERTEX
  5
1351
  8
SCAN
 10
294.0569499999999152
 20
-276.1422999999999774
 30
0.0
  0
VERTEX
  5
1352
  8
SCAN
 10
295.5879499999999211
 20
-276.977350000000115
 30
0.0
  0
VERTEX
  5
1353
  8
SCAN
 10
295.4487499999999045
 20
-276.2814500000001203
 30
0.0
  0
VERTEX
  5
1354
  8
SCAN
 10
294.4744999999999777
 20
-275.1680499999999938
 30
0.0
  0
VERTEX
  5
1355
  8
SCAN
 10
296.4230000000000018
 20
-274.3329500000000962
 30
0.0
  0
VERTEX
  5
1356
  8
SCAN
 10
299.2065499999998792
 20
-271.5493999999999915
 30
0.0
  0
VERTEX
  5
1357
  8
SCAN
 10
299.3457499999998959
 20
-271.9669500000001108
 30
0.0
  0
VERTEX
  5
1358
  8
SCAN
 10
298.9281999999998902
 20
-274.8896999999998911
 30
0.0
  0
VERTEX
  5
1359
  8
SCAN
 10
297.9539499999999066
 20
-279.6217500000000769
 30
0.0
  0
VERTEX
  5
135A
  8
SCAN
 10
296.7013499999998771
 20
-283.7971000000000004
 30
0.0
  0
VERTEX
  5
135B
  8
SCAN
 10
295.8662999999999101
 20
-285.6064000000001215
 30
0.0
  0
VERTEX
  5
135C
  8
SCAN
 10
295.3095499999998879
 20
-286.0239500000001271
 30
0.0
  0
VERTEX
  5
135D
  8
SCAN
 10
293.3610999999999081
 20
-286.5806500000001051
 30
0.0
  0
VERTEX
  5
135E
  8
SCAN
 10
290.8559000000000196
 20
-286.9981500000001233
 30
0.0
  0
VERTEX
  5
135F
  8
SCAN
 10
289.1857499999999845
 20
-286.9981500000001233
 30
0.0
  0
VERTEX
  5
1360
  8
SCAN
 10
291.9692999999999188
 20
-287.5548999999999751
 30
0.0
  0
SEQEND
  5
1361
  8
SCAN
  0
POLYLINE
  5
2DE
  8
SCAN
 66
     1
 10
0.0
 20
0.0
 30
0.0
 70
     1
  0
VERTEX
  5
1362
  8
SCAN
 10
293.0827499999999191
 20
-269.183400000000006
 30
0.0
  0
VERTEX
  5
1363
  8
SCAN
 10
293.3610999999999081
 20
-270.018449999999973
 30
0.0
  0
VERTEX
  5
1364
  8
SCAN
 10
292.8043499999998858
 20
-270.2968000000000757
 30
0.0
  0
VERTEX
  5
1365
  8
SCAN
 10
292.5260000000000105
 20
-270.018449999999973
 30
0.0
  0
VERTEX
  5
1366
  8
SCAN
 10
292.5260000000000105
 20
-269.4617499999998813
 30
0.0
  0
SEQEND
  5
1367
  8
SCAN
  0
POLYLINE
  5
2DF
  8
SCAN
 66
     1
 10
0.0
 20
0.0
 30
0.0
 70
     1
  0
VERTEX
  5
1368
  8
SCAN
 10
293.2218999999998914
 20
-266.6781500000000165
 30
0.0
  0
VERTEX
  5
1369
  8
SCAN
 10
293.3610999999999081
 20
-267.7916000000000736
 30
0.0
  0
VERTEX
  5
136A
  8
SCAN
 10
292.1084999999998786
 20
-268.6266499999999837
 30
0.0
  0
VERTEX
  5
136B
  8
SCAN
 10
291.6909499999998729
 20
-270.018449999999973
 30
0.0
  0
VERTEX
  5
136C
  8
SCAN
 10
291.273399999999981
 20
-269.3225499999999784
 30
0.0
  0
VERTEX
  5
136D
  8
SCAN
 10
291.4125999999998839
 20
-267.9307999999999765
 30
0.0
  0
VERTEX
  5
136E
  8
SCAN
 10
292.6652000000000271
 20
-266.6781500000000165
 30
0.0
  0
SEQEND
  5
136F
  8
SCAN
  0
POLYLINE
  5
2E0
  8
SCAN
 66
     1
 10
0.0
 20
0.0
 30
0.0
 70
     1
  0
VERTEX
  5
1370
  8
SCAN
 10
296.1446500000000128
 20
-263.1986999999999739
 30
0.0
  0
VERTEX
  5
1371
  8
SCAN
 10
296.2837999999999283
 20
-269.4617499999998813
 30
0.0
  0
VERTEX
  5
1372
  8
SCAN
 10
296.0054499999999962
 20
-270.8534999999998831
 30
0.0
  0
VERTEX
  5
1373
  8
SCAN
 10
295.4487499999999045
 20
-271.9669500000001108
 30
0.0
  0
VERTEX
  5
1374
  8
SCAN
 10
294.7528500000000236
 20
-272.662849999999878
 30
0.0
  0
VERTEX
  5
1375
  8
SCAN
 10
294.0569499999999152
 20
-273.0803499999998962
 30
0.0
  0
VERTEX
  5
1376
  8
SCAN
 10
293.2218999999998914
 20
-273.2195500000000266
 30
0.0
  0
VERTEX
  5
1377
  8
SCAN
 10
293.0827499999999191
 20
-273.0803499999998962
 30
0.0
  0
VERTEX
  5
1378
  8
SCAN
 10
293.7785999999999262
 20
-272.5236499999999751
 30
0.0
  0
VERTEX
  5
1379
  8
SCAN
 10
294.6136999999998807
 20
-270.8534999999998831
 30
0.0
  0
VERTEX
  5
137A
  8
SCAN
 10
294.7528500000000236
 20
-266.1214499999999816
 30
0.0
  0
VERTEX
  5
137B
  8
SCAN
 10
295.3095499999998879
 20
-264.0337999999999852
 30
0.0
  0
SEQEND
  5
137C
  8
SCAN
  0
POLYLINE
  5
2E1
  8
SCAN
 66
     1
 10
0.0
 20
0.0
 30
0.0
 70
     1
  0
VERTEX
  5
137D
  8
SCAN
 10
300.1807999999999197
 20
-231.3269500000000107
 30
0.0
  0
VERTEX
  5
137E
  8
SCAN
 10
298.7890499999999179
 20
-231.3269500000000107
 30
0.0
  0
VERTEX
  5
137F
  8
SCAN
 10
268.5874000000000024
 20
-225.8990000000000862
 30
0.0
  0
VERTEX
  5
1380
  8
SCAN
 10
265.5254499999999211
 20
-224.9247499999999889
 30
0.0
  0
VERTEX
  5
1381
  8
SCAN
 10
263.576949999999897
 20
-223.8113000000001023
 30
0.0
  0
VERTEX
  5
1382
  8
SCAN
 10
262.1852000000000089
 20
-222.4195499999999868
 30
0.0
  0
VERTEX
  5
1383
  8
SCAN
 10
261.4892999999999006
 20
-221.1669500000000994
 30
0.0
  0
VERTEX
  5
1384
  8
SCAN
 10
260.9325999999999226
 20
-218.8009000000000128
 30
0.0
  0
VERTEX
  5
1385
  8
SCAN
 10
260.9325999999999226
 20
-216.295700000000096
 30
0.0
  0
VERTEX
  5
1386
  8
SCAN
 10
261.4892999999999006
 20
-213.651299999999992
 30
0.0
  0
VERTEX
  5
1387
  8
SCAN
 10
261.9068500000000199
 20
-213.5121499999999912
 30
0.0
  0
VERTEX
  5
1388
  8
SCAN
 10
266.4997000000000185
 20
-214.3471999999999866
 30
0.0
  0
VERTEX
  5
1389
  8
SCAN
 10
266.7780500000000075
 20
-216.8524000000001024
 30
0.0
  0
VERTEX
  5
138A
  8
SCAN
 10
267.1956000000000131
 20
-217.826650000000086
 30
0.0
  0
VERTEX
  5
138B
  8
SCAN
 10
268.5874000000000024
 20
-218.9401000000000863
 30
0.0
  0
VERTEX
  5
138C
  8
SCAN
 10
271.6492999999999256
 20
-219.7751500000001101
 30
0.0
  0
VERTEX
  5
138D
  8
SCAN
 10
294.0569499999999152
 20
-223.6721500000001015
 30
0.0
  0
VERTEX
  5
138E
  8
SCAN
 10
294.196149999999875
 20
-220.0535000000000991
 30
0.0
  0
VERTEX
  5
138F
  8
SCAN
 10
300.0416500000000042
 20
-221.0277500000001112
 30
0.0
  0
SEQEND
  5
1390
  8
SCAN
  0
POLYLINE
  5
2E2
  8
SCAN
 66
     1
 10
0.0
 20
0.0
 30
0.0
 70
     1
  0
VERTEX
  5
1391
  8
SCAN
 10
300.1807999999999197
 20
-218.2442000000000917
 30
0.0
  0
VERTEX
  5
1392
  8
SCAN
 10
300.0416500000000042
 20
-218.3833999999999946
 30
0.0
  0
VERTEX
  5
1393
  8
SCAN
 10
271.6492999999999256
 20
-213.3729500000000883
 30
0.0
  0
VERTEX
  5
1394
  8
SCAN
 10
267.3347999999999161
 20
-212.398699999999991
 30
0.0
  0
VERTEX
  5
1395
  8
SCAN
 10
265.1079500000000166
 20
-211.5636499999999955
 30
0.0
  0
VERTEX
  5
1396
  8
SCAN
 10
263.8553499999998735
 20
-210.8677500000000862
 30
0.0
  0
VERTEX
  5
1397
  8
SCAN
 10
262.3243499999999244
 20
-209.4759999999999991
 30
0.0
  0
VERTEX
  5
1398
  8
SCAN
 10
261.7676499999998896
 20
-208.6409000000001015
 30
0.0
  0
VERTEX
  5
1399
  8
SCAN
 10
261.2109500000000253
 20
-207.1099499999999978
 30
0.0
  0
VERTEX
  5
139A
  8
SCAN
 10
260.9325999999999226
 20
-205.579000000000093
 30
0.0
  0
VERTEX
  5
139B
  8
SCAN
 10
260.9325999999999226
 20
-203.0738000000000909
 30
0.0
  0
VERTEX
  5
139C
  8
SCAN
 10
261.4892999999999006
 20
-200.5686000000000888
 30
0.0
  0
VERTEX
  5
139D
  8
SCAN
 10
262.4635499999999979
 20
-200.4294000000001006
 30
0.0
  0
VERTEX
  5
139E
  8
SCAN
 10
266.3605499999998756
 20
-201.1252999999998963
 30
0.0
  0
VERTEX
  5
139F
  8
SCAN
 10
266.6388999999999783
 20
-201.403649999999999
 30
0.0
  0
VERTEX
  5
13A0
  8
SCAN
 10
266.7780500000000075
 20
-203.6305000000000973
 30
0.0
  0
VERTEX
  5
13A1
  8
SCAN
 10
267.0563999999998828
 20
-204.4655500000000927
 30
0.0
  0
VERTEX
  5
13A2
  8
SCAN
 10
267.6131500000000187
 20
-205.1614500000000874
 30
0.0
  0
VERTEX
  5
13A3
  8
SCAN
 10
268.7265499999999179
 20
-205.8573499999999967
 30
0.0
  0
VERTEX
  5
13A4
  8
SCAN
 10
272.0668499999998744
 20
-206.6924000000001058
 30
0.0
  0
VERTEX
  5
13A5
  8
SCAN
 10
279.9999999999998863
 20
-207.9449999999999932
 30
0.0
  0
VERTEX
  5
13A6
  8
SCAN
 10
293.3610999999999081
 20
-210.4502500000000964
 30
0.0
  0
VERTEX
  5
13A7
  8
SCAN
 10
294.0569499999999152
 20
-210.4502500000000964
 30
0.0
  0
VERTEX
  5
13A8
  8
SCAN
 10
294.196149999999875
 20
-206.831600000000094
 30
0.0
  0
VERTEX
  5
13A9
  8
SCAN
 10
300.0416500000000042
 20
-207.9449999999999932
 30
0.0
  0
SEQEND
  5
13AA
  8
SCAN
  0
POLYLINE
  5
2E3
  8
SCAN
 66
     1
 10
0.0
 20
0.0
 30
0.0
 70
     1
  0
VERTEX
  5
13AB
  8
SCAN
 10
300.4591500000000224
 20
-246.6365500000001134
 30
0.0
  0
VERTEX
  5
13AC
  8
SCAN
 10
299.7632500000000277
 20
-248.1674999999999898
 30
0.0
  0
VERTEX
  5
13AD
  8
SCAN
 10
298.9281999999998902
 20
-249.1417500000000871
 30
0.0
  0
VERTEX
  5
13AE
  8
SCAN
 10
297.2580500000000256
 20
-250.1160000000000991
 30
0.0
  0
VERTEX
  5
13AF
  8
SCAN
 10
296.1446500000000128
 20
-250.3943500000000029
 30
0.0
  0
VERTEX
  5
13B0
  8
SCAN
 10
293.5002499999998804
 20
-250.5335000000000036
 30
0.0
  0
VERTEX
  5
13B1
  8
SCAN
 10
287.6548000000000229
 20
-249.5592499999999916
 30
0.0
  0
VERTEX
  5
13B2
  8
SCAN
 10
287.5156000000000063
 20
-243.2962499999999864
 30
0.0
  0
VERTEX
  5
13B3
  8
SCAN
 10
288.2114999999998872
 20
-243.1571000000000993
 30
0.0
  0
VERTEX
  5
13B4
  8
SCAN
 10
292.2476500000000215
 20
-243.9921500000000094
 30
0.0
  0
VERTEX
  5
13B5
  8
SCAN
 10
294.7528500000000236
 20
-244.2705000000001121
 30
0.0
  0
VERTEX
  5
13B6
  8
SCAN
 10
295.0312000000000126
 20
-243.713799999999992
 30
0.0
  0
VERTEX
  5
13B7
  8
SCAN
 10
295.0312000000000126
 20
-242.0436500000000137
 30
0.0
  0
VERTEX
  5
13B8
  8
SCAN
 10
294.6136999999998807
 20
-241.3477499999999907
 30
0.0
  0
VERTEX
  5
13B9
  8
SCAN
 10
293.9177999999999997
 20
-240.9302500000000862
 30
0.0
  0
VERTEX
  5
13BA
  8
SCAN
 10
291.8300999999999021
 20
-240.3735000000000923
 30
0.0
  0
VERTEX
  5
13BB
  8
SCAN
 10
269.8399999999999181
 20
-236.6157000000000892
 30
0.0
  0
VERTEX
  5
13BC
  8
SCAN
 10
268.0306499999999232
 20
-236.7548999999999921
 30
0.0
  0
VERTEX
  5
13BD
  8
SCAN
 10
267.6131500000000187
 20
-237.0332500000000948
 30
0.0
  0
VERTEX
  5
13BE
  8
SCAN
 10
267.3347999999999161
 20
-237.5899499999999875
 30
0.0
  0
VERTEX
  5
13BF
  8
SCAN
 10
267.0563999999998828
 20
-238.9817499999998915
 30
0.0
  0
VERTEX
  5
13C0
  8
SCAN
 10
267.0563999999998828
 20
-245.8014499999999884
 30
0.0
  0
VERTEX
  5
13C1
  8
SCAN
 10
266.2213499999999158
 20
-245.9406500000000051
 30
0.0
  0
VERTEX
  5
13C2
  8
SCAN
 10
261.4892999999999006
 20
-245.1055500000001075
 30
0.0
  0
VERTEX
  5
13C3
  8
SCAN
 10
261.2109500000000253
 20
-244.8272000000000901
 30
0.0
  0
VERTEX
  5
13C4
  8
SCAN
 10
260.9325999999999226
 20
-242.0436500000000137
 30
0.0
  0
VERTEX
  5
13C5
  8
SCAN
 10
260.9325999999999226
 20
-237.0332500000000948
 30
0.0
  0
VERTEX
  5
13C6
  8
SCAN
 10
261.4892999999999006
 20
-233.9713000000000989
 30
0.0
  0
VERTEX
  5
13C7
  8
SCAN
 10
262.3243499999999244
 20
-232.1619999999998925
 30
0.0
  0
VERTEX
  5
13C8
  8
SCAN
 10
263.4377999999999247
 20
-230.9094000000000904
 30
0.0
  0
VERTEX
  5
13C9
  8
SCAN
 10
264.5511999999999944
 20
-230.2135000000000957
 30
0.0
  0
VERTEX
  5
13CA
  8
SCAN
 10
266.6388999999999783
 20
-229.6568000000000893
 30
0.0
  0
VERTEX
  5
13CB
  8
SCAN
 10
270.9533999999998741
 20
-229.796000000000106
 30
0.0
  0
VERTEX
  5
13CC
  8
SCAN
 10
290.160000000000025
 20
-233.1362499999999898
 30
0.0
  0
VERTEX
  5
13CD
  8
SCAN
 10
293.9177999999999997
 20
-233.9713000000000989
 30
0.0
  0
VERTEX
  5
13CE
  8
SCAN
 10
296.5622000000000185
 20
-234.9455499999999972
 30
0.0
  0
VERTEX
  5
13CF
  8
SCAN
 10
298.0931499999999232
 20
-235.9198000000000945
 30
0.0
  0
VERTEX
  5
13D0
  8
SCAN
 10
299.0674000000000206
 20
-236.8940499999999929
 30
0.0
  0
VERTEX
  5
13D1
  8
SCAN
 10
299.9024499999998739
 20
-238.1466500000001076
 30
0.0
  0
VERTEX
  5
13D2
  8
SCAN
 10
300.5983499999999822
 20
-240.2343500000000915
 30
0.0
  0
VERTEX
  5
13D3
  8
SCAN
 10
300.876700000000028
 20
-242.6003500000001054
 30
0.0
  0
VERTEX
  5
13D4
  8
SCAN
 10
300.7375000000000114
 20
-245.5231000000001131
 30
0.0
  0
SEQEND
  5
13D5
  8
SCAN
  0
POLYLINE
  5
2E4
  8
SCAN
 66
     1
 10
0.0
 20
0.0
 30
0.0
 70
     1
  0
VERTEX
  5
13D6
  8
SCAN
 10
304.2169499999998834
 20
-258.6058499999999754
 30
0.0
  0
VERTEX
  5
13D7
  8
SCAN
 10
303.7994499999999221
 20
-258.7450000000000045
 30
0.0
  0
VERTEX
  5
13D8
  8
SCAN
 10
301.7117499999998813
 20
-258.1883000000000834
 30
0.0
  0
VERTEX
  5
13D9
  8
SCAN
 10
299.6240999999998849
 20
-258.1883000000000834
 30
0.0
  0
VERTEX
  5
13DA
  8
SCAN
 10
298.3715000000000259
 20
-256.7965500000000816
 30
0.0
  0
VERTEX
  5
13DB
  8
SCAN
 10
301.0158999999998741
 20
-256.6573500000000081
 30
0.0
  0
VERTEX
  5
13DC
  8
SCAN
 10
300.4591500000000224
 20
-256.1006499999999733
 30
0.0
  0
VERTEX
  5
13DD
  8
SCAN
 10
298.5106499999999983
 20
-254.9872000000000867
 30
0.0
  0
VERTEX
  5
13DE
  8
SCAN
 10
296.979699999999923
 20
-254.5697000000000116
 30
0.0
  0
VERTEX
  5
13DF
  8
SCAN
 10
296.0054499999999962
 20
-254.5697000000000116
 30
0.0
  0
VERTEX
  5
13E0
  8
SCAN
 10
294.4744999999999777
 20
-253.1779000000001076
 30
0.0
  0
VERTEX
  5
13E1
  8
SCAN
 10
296.979699999999923
 20
-253.038700000000091
 30
0.0
  0
VERTEX
  5
13E2
  8
SCAN
 10
298.7890499999999179
 20
-253.4562500000000966
 30
0.0
  0
VERTEX
  5
13E3
  8
SCAN
 10
300.3199999999999932
 20
-254.1521500000000913
 30
0.0
  0
VERTEX
  5
13E4
  8
SCAN
 10
302.2685000000000173
 20
-255.6831000000001097
 30
0.0
  0
VERTEX
  5
13E5
  8
SCAN
 10
303.3818999999999164
 20
-257.0749000000001274
 30
0.0
  0
SEQEND
  5
13E6
  8
SCAN
  0
POLYLINE
  5
2F3
  8
SCAN
 66
     1
 10
0.0
 20
0.0
 30
0.0
 70
     1
  0
VERTEX
  5
13E7
  8
SCAN
 10
456.7013499999998203
 20
-287.6940499999998906
 30
0.0
  0
VERTEX
  5
13E8
  8
SCAN
 10
456.979699999999923
 20
-287.5548999999999751
 30
0.0
  0
VERTEX
  5
13E9
  8
SCAN
 10
459.0673999999999069
 20
-281.5702499999999873
 30
0.0
  0
VERTEX
  5
13EA
  8
SCAN
 10
460.3199999999998795
 20
-275.8639499999998748
 30
0.0
  0
VERTEX
  5
13EB
  8
SCAN
 10
460.8766999999999143
 20
-271.2710500000000025
 30
0.0
  0
VERTEX
  5
13EC
  8
SCAN
 10
461.1550499999997896
 20
-270.9927000000001271
 30
0.0
  0
VERTEX
  5
13ED
  8
SCAN
 10
464.495349999999803
 20
-271.4102500000000759
 30
0.0
  0
VERTEX
  5
13EE
  8
SCAN
 10
465.8870999999999185
 20
-271.9669500000001108
 30
0.0
  0
VERTEX
  5
13EF
  8
SCAN
 10
466.1654500000000212
 20
-271.8277500000000941
 30
0.0
  0
VERTEX
  5
13F0
  8
SCAN
 10
465.6087499999998158
 20
-268.9050000000000864
 30
0.0
  0
VERTEX
  5
13F1
  8
SCAN
 10
463.7994499999999221
 20
-266.2606499999998846
 30
0.0
  0
VERTEX
  5
13F2
  8
SCAN
 10
462.4076499999998759
 20
-265.147199999999998
 30
0.0
  0
VERTEX
  5
13F3
  8
SCAN
 10
461.7117499999998245
 20
-266.8173499999999763
 30
0.0
  0
VERTEX
  5
13F4
  8
SCAN
 10
461.29424999999992
 20
-267.2348999999999819
 30
0.0
  0
VERTEX
  5
13F5
  8
SCAN
 10
461.1550499999997896
 20
-267.0957000000000789
 30
0.0
  0
VERTEX
  5
13F6
  8
SCAN
 10
461.4333999999998923
 20
-265.0080500000000256
 30
0.0
  0
VERTEX
  5
13F7
  8
SCAN
 10
461.29424999999992
 20
-261.3894000000000233
 30
0.0
  0
VERTEX
  5
13F8
  8
SCAN
 10
464.2169499999998834
 20
-261.2502499999999941
 30
0.0
  0
VERTEX
  5
13F9
  8
SCAN
 10
467.0005499999999188
 20
-261.667750000000126
 30
0.0
  0
VERTEX
  5
13FA
  8
SCAN
 10
466.8613499999999021
 20
-259.8584500000000048
 30
0.0
  0
VERTEX
  5
13FB
  8
SCAN
 10
465.8870999999999185
 20
-257.0749000000001274
 30
0.0
  0
VERTEX
  5
13FC
  8
SCAN
 10
464.3561499999999
 20
-254.5697000000000969
 30
0.0
  0
VERTEX
  5
13FD
  8
SCAN
 10
461.1550499999997896
 20
-250.8118500000001063
 30
0.0
  0
VERTEX
  5
13FE
  8
SCAN
 10
462.5468499999998926
 20
-248.5850000000000932
 30
0.0
  0
VERTEX
  5
13FF
  8
SCAN
 10
463.3818999999999164
 20
-245.5231000000001131
 30
0.0
  0
VERTEX
  5
1400
  8
SCAN
 10
463.3818999999999164
 20
-240.9302500000000862
 30
0.0
  0
VERTEX
  5
1401
  8
SCAN
 10
462.9643499999999108
 20
-238.8425500000001023
 30
0.0
  0
VERTEX
  5
1402
  8
SCAN
 10
461.9900999999999271
 20
-236.4765500000000884
 30
0.0
  0
VERTEX
  5
1403
  8
SCAN
 10
460.3199999999998795
 20
-234.3888500000001045
 30
0.0
  0
VERTEX
  5
1404
  8
SCAN
 10
460.8766999999999143
 20
-234.2497000000001037
 30
0.0
  0
VERTEX
  5
1405
  8
SCAN
 10
462.8251999999998247
 20
-234.6672000000000935
 30
0.0
  0
VERTEX
  5
1406
  8
SCAN
 10
462.8251999999998247
 20
-205.7181499999998948
 30
0.0
  0
VERTEX
  5
1407
  8
SCAN
 10
451.4125999999998839
 20
-203.769700000000114
 30
0.0
  0
VERTEX
  5
1408
  8
SCAN
 10
451.4125999999998839
 20
-207.2491500000000997
 30
0.0
  0
VERTEX
  5
1409
  8
SCAN
 10
451.134249999999895
 20
-207.3883000000001005
 30
0.0
  0
VERTEX
  5
140A
  8
SCAN
 10
432.2059999999999036
 20
-204.048050000000103
 30
0.0
  0
VERTEX
  5
140B
  8
SCAN
 10
429.4224499999999125
 20
-203.2129500000000917
 30
0.0
  0
VERTEX
  5
140C
  8
SCAN
 10
429.2832499999998959
 20
-199.0376500000000988
 30
0.0
  0
VERTEX
  5
140D
  8
SCAN
 10
419.8191499999999223
 20
-197.3675000000000921
 30
0.0
  0
VERTEX
  5
140E
  8
SCAN
 10
418.8448999999998819
 20
-200.1510500000001116
 30
0.0
  0
VERTEX
  5
140F
  8
SCAN
 10
418.2881999999999039
 20
-203.3521499999999946
 30
0.0
  0
VERTEX
  5
1410
  8
SCAN
 10
418.5665499999997792
 20
-207.3883000000001005
 30
0.0
  0
VERTEX
  5
1411
  8
SCAN
 10
419.1232499999999277
 20
-209.1976500000000954
 30
0.0
  0
VERTEX
  5
1412
  8
SCAN
 10
419.8191499999999223
 20
-210.3110500000001082
 30
0.0
  0
VERTEX
  5
1413
  8
SCAN
 10
418.4273999999999205
 20
-215.3214499999999987
 30
0.0
  0
VERTEX
  5
1414
  8
SCAN
 10
418.4273999999999205
 20
-219.7751500000001101
 30
0.0
  0
VERTEX
  5
1415
  8
SCAN
 10
418.8448999999998819
 20
-221.584500000000105
 30
0.0
  0
VERTEX
  5
1416
  8
SCAN
 10
420.0974999999999113
 20
-224.0897000000001071
 30
0.0
  0
VERTEX
  5
1417
  8
SCAN
 10
421.9068499999999062
 20
-225.8990000000000862
 30
0.0
  0
VERTEX
  5
1418
  8
SCAN
 10
424.5511999999998238
 20
-227.4299500000001046
 30
0.0
  0
VERTEX
  5
1419
  8
SCAN
 10
422.8810999999998899
 20
-228.1258500000000993
 30
0.0
  0
VERTEX
  5
141A
  8
SCAN
 10
421.4893000000000143
 20
-229.1001000000001113
 30
0.0
  0
VERTEX
  5
141B
  8
SCAN
 10
419.8191499999999223
 20
-231.1877500000001078
 30
0.0
  0
VERTEX
  5
141C
  8
SCAN
 10
419.1232499999999277
 20
-232.7187000000000978
 30
0.0
  0
VERTEX
  5
141D
  8
SCAN
 10
418.2881999999999039
 20
-237.3116000000001122
 30
0.0
  0
VERTEX
  5
141E
  8
SCAN
 10
418.2881999999999039
 20
-241.6261000000000934
 30
0.0
  0
VERTEX
  5
141F
  8
SCAN
 10
418.7057499999997958
 20
-246.3581500000001085
 30
0.0
  0
VERTEX
  5
1420
  8
SCAN
 10
418.9840999999998985
 20
-247.3324000000000922
 30
0.0
  0
VERTEX
  5
1421
  8
SCAN
 10
426.7780499999997801
 20
-248.5850000000000932
 30
0.0
  0
VERTEX
  5
1422
  8
SCAN
 10
426.9172499999999104
 20
-248.8634000000000981
 30
0.0
  0
VERTEX
  5
1423
  8
SCAN
 10
424.1336999999999193
 20
-251.507750000000101
 30
0.0
  0
VERTEX
  5
1424
  8
SCAN
 10
421.3500999999998839
 20
-254.9872000000000867
 30
0.0
  0
VERTEX
  5
1425
  8
SCAN
 10
418.8448999999998819
 20
-259.023399999999981
 30
0.0
  0
VERTEX
  5
1426
  8
SCAN
 10
416.2005499999999074
 20
-264.8688500000001227
 30
0.0
  0
VERTEX
  5
1427
  8
SCAN
 10
418.0098499999998012
 20
-268.7658500000001141
 30
0.0
  0
VERTEX
  5
1428
  8
SCAN
 10
420.3758999999997741
 20
-272.9411999999999807
 30
0.0
  0
VERTEX
  5
1429
  8
SCAN
 10
424.6903999999997836
 20
-278.6474999999999795
 30
0.0
  0
VERTEX
  5
142A
  8
SCAN
 10
427.4739499999998884
 20
-281.2918499999998971
 30
0.0
  0
VERTEX
  5
142B
  8
SCAN
 10
430.2574999999998795
 20
-283.2403499999999781
 30
0.0
  0
VERTEX
  5
142C
  8
SCAN
 10
432.9018999999998982
 20
-284.3537999999999784
 30
0.0
  0
VERTEX
  5
142D
  8
SCAN
 10
435.1287499999999113
 20
-284.6321500000000242
 30
0.0
  0
VERTEX
  5
142E
  8
SCAN
 10
433.7369499999999221
 20
-284.2146000000000754
 30
0.0
  0
VERTEX
  5
142F
  8
SCAN
 10
430.5359000000000265
 20
-282.4053000000001248
 30
0.0
  0
VERTEX
  5
1430
  8
SCAN
 10
428.4481999999998152
 20
-280.735149999999976
 30
0.0
  0
VERTEX
  5
1431
  8
SCAN
 10
425.9429999999999268
 20
-278.2299499999999739
 30
0.0
  0
VERTEX
  5
1432
  8
SCAN
 10
422.1851999999998952
 20
-273.2195500000000266
 30
0.0
  0
VERTEX
  5
1433
  8
SCAN
 10
420.236699999999928
 20
-269.8792500000001269
 30
0.0
  0
VERTEX
  5
1434
  8
SCAN
 10
417.8706499999998982
 20
-264.8688500000001227
 30
0.0
  0
VERTEX
  5
1435
  8
SCAN
 10
420.6542499999998768
 20
-262.9203499999999849
 30
0.0
  0
VERTEX
  5
1436
  8
SCAN
 10
423.1594499999998789
 20
-261.667750000000126
 30
0.0
  0
VERTEX
  5
1437
  8
SCAN
 10
426.7780499999997801
 20
-260.4151499999999828
 30
0.0
  0
VERTEX
  5
1438
  8
SCAN
 10
430.9533999999998741
 20
-259.7192500000001019
 30
0.0
  0
VERTEX
  5
1439
  8
SCAN
 10
435.6854499999997756
 20
-259.8584499999998911
 30
0.0
  0
VERTEX
  5
143A
  8
SCAN
 10
439.7216499999997836
 20
-260.9718500000000745
 30
0.0
  0
VERTEX
  5
143B
  8
SCAN
 10
442.5051999999998884
 20
-262.6419999999998822
 30
0.0
  0
VERTEX
  5
143C
  8
SCAN
 10
444.7320500000000152
 20
-265.0080500000000256
 30
0.0
  0
VERTEX
  5
143D
  8
SCAN
 10
446.541349999999909
 20
-268.6266499999999837
 30
0.0
  0
VERTEX
  5
143E
  8
SCAN
 10
446.6805499999998119
 20
-266.1214499999999816
 30
0.0
  0
VERTEX
  5
143F
  8
SCAN
 10
446.1237999999999033
 20
-263.7554500000001099
 30
0.0
  0
VERTEX
  5
1440
  8
SCAN
 10
444.871199999999817
 20
-261.5286000000000968
 30
0.0
  0
VERTEX
  5
1441
  8
SCAN
 10
442.3659999999998718
 20
-259.1625500000001239
 30
0.0
  0
VERTEX
  5
1442
  8
SCAN
 10
439.7216499999997836
 20
-257.7708000000001221
 30
0.0
  0
VERTEX
  5
1443
  8
SCAN
 10
436.6596999999998161
 20
-256.9357000000001108
 30
0.0
  0
VERTEX
  5
1444
  8
SCAN
 10
432.7627499999999259
 20
-256.7965500000000816
 30
0.0
  0
VERTEX
  5
1445
  8
SCAN
 10
429.8399999999999181
 20
-257.3532500000001164
 30
0.0
  0
VERTEX
  5
1446
  8
SCAN
 10
429.1440999999998098
 20
-257.2140499999998724
 30
0.0
  0
VERTEX
  5
1447
  8
SCAN
 10
431.6492999999999256
 20
-255.404750000000007
 30
0.0
  0
VERTEX
  5
1448
  8
SCAN
 10
434.0153499999998985
 20
-254.1521500000000913
 30
0.0
  0
VERTEX
  5
1449
  8
SCAN
 10
438.0514999999999191
 20
-252.8995500000000902
 30
0.0
  0
VERTEX
  5
144A
  8
SCAN
 10
442.6443499999999176
 20
-252.8995500000000902
 30
0.0
  0
VERTEX
  5
144B
  8
SCAN
 10
444.7320500000000152
 20
-253.4562500000000966
 30
0.0
  0
VERTEX
  5
144C
  8
SCAN
 10
446.541349999999909
 20
-254.291300000000092
 30
0.0
  0
VERTEX
  5
144D
  8
SCAN
 10
448.2114999999998872
 20
-255.404750000000007
 30
0.0
  0
VERTEX
  5
144E
  8
SCAN
 10
450.2991499999998837
 20
-257.4923999999999751
 30
0.0
  0
VERTEX
  5
144F
  8
SCAN
 10
451.6909499999998161
 20
-259.8584499999998911
 30
0.0
  0
VERTEX
  5
1450
  8
SCAN
 10
451.9692999999999188
 20
-260.6934999999999718
 30
0.0
  0
VERTEX
  5
1451
  8
SCAN
 10
451.8301000000000158
 20
-260.9718500000000745
 30
0.0
  0
VERTEX
  5
1452
  8
SCAN
 10
449.1857499999999277
 20
-258.0491499999998837
 30
0.0
  0
VERTEX
  5
1453
  8
SCAN
 10
446.541349999999909
 20
-256.3790000000000759
 30
0.0
  0
VERTEX
  5
1454
  8
SCAN
 10
442.5051999999998884
 20
-255.1264000000001033
 30
0.0
  0
VERTEX
  5
1455
  8
SCAN
 10
438.886549999999886
 20
-254.9872000000000867
 30
0.0
  0
VERTEX
  5
1456
  8
SCAN
 10
441.9484999999999104
 20
-255.9614500000000987
 30
0.0
  0
VERTEX
  5
1457
  8
SCAN
 10
444.5928499999998849
 20
-257.631599999999878
 30
0.0
  0
VERTEX
  5
1458
  8
SCAN
 10
446.4021999999998798
 20
-259.4408999999998855
 30
0.0
  0
VERTEX
  5
1459
  8
SCAN
 10
447.3763999999998759
 20
-260.8326999999998748
 30
0.0
  0
VERTEX
  5
145A
  8
SCAN
 10
448.7681999999999221
 20
-264.1729500000001281
 30
0.0
  0
VERTEX
  5
145B
  8
SCAN
 10
449.3248999999999
 20
-267.6524000000001138
 30
0.0
  0
VERTEX
  5
145C
  8
SCAN
 10
449.0465499999999111
 20
-272.5236499999999751
 30
0.0
  0
VERTEX
  5
145D
  8
SCAN
 10
447.6548000000000229
 20
-277.5340499999999793
 30
0.0
  0
VERTEX
  5
145E
  8
SCAN
 10
446.541349999999909
 20
-279.7608999999999924
 30
0.0
  0
VERTEX
  5
145F
  8
SCAN
 10
445.845450000000028
 20
-280.5960000000001173
 30
0.0
  0
VERTEX
  5
1460
  8
SCAN
 10
444.1753499999999235
 20
-280.735149999999976
 30
0.0
  0
VERTEX
  5
1461
  8
SCAN
 10
442.5051999999998884
 20
-281.7094000000000165
 30
0.0
  0
VERTEX
  5
1462
  8
SCAN
 10
441.1133999999998991
 20
-280.4567999999998733
 30
0.0
  0
VERTEX
  5
1463
  8
SCAN
 10
440.8350500000000238
 20
-279.900100000000009
 30
0.0
  0
VERTEX
  5
1464
  8
SCAN
 10
440.5566999999999211
 20
-277.5340499999999793
 30
0.0
  0
VERTEX
  5
1465
  8
SCAN
 10
441.5309499999999048
 20
-272.5236499999999751
 30
0.0
  0
VERTEX
  5
1466
  8
SCAN
 10
441.5309499999999048
 20
-269.6009000000000242
 30
0.0
  0
VERTEX
  5
1467
  8
SCAN
 10
441.1133999999998991
 20
-268.069949999999892
 30
0.0
  0
VERTEX
  5
1468
  8
SCAN
 10
439.9999999999998863
 20
-266.1214499999999816
 30
0.0
  0
VERTEX
  5
1469
  8
SCAN
 10
437.9122999999997887
 20
-264.3121499999999742
 30
0.0
  0
VERTEX
  5
146A
  8
SCAN
 10
436.102999999999895
 20
-263.6162499999999795
 30
0.0
  0
VERTEX
  5
146B
  8
SCAN
 10
434.4328499999999167
 20
-263.3379000000001042
 30
0.0
  0
VERTEX
  5
146C
  8
SCAN
 10
431.2317499999998063
 20
-263.3379000000001042
 30
0.0
  0
VERTEX
  5
146D
  8
SCAN
 10
429.5616499999998723
 20
-263.6162499999999795
 30
0.0
  0
VERTEX
  5
146E
  8
SCAN
 10
427.0563999999998828
 20
-264.4512999999998897
 30
0.0
  0
VERTEX
  5
146F
  8
SCAN
 10
425.2470999999998753
 20
-265.4255499999998733
 30
0.0
  0
VERTEX
  5
1470
  8
SCAN
 10
423.437799999999811
 20
-266.8173499999999763
 30
0.0
  0
VERTEX
  5
1471
  8
SCAN
 10
422.4635499999998274
 20
-268.069949999999892
 30
0.0
  0
VERTEX
  5
1472
  8
SCAN
 10
426.6388999999999214
 20
-267.2348999999999819
 30
0.0
  0
VERTEX
  5
1473
  8
SCAN
 10
429.8399999999999181
 20
-267.0957000000000789
 30
0.0
  0
VERTEX
  5
1474
  8
SCAN
 10
429.9791499999998905
 20
-267.2348999999999819
 30
0.0
  0
VERTEX
  5
1475
  8
SCAN
 10
428.3090499999998997
 20
-269.0441999999999894
 30
0.0
  0
VERTEX
  5
1476
  8
SCAN
 10
426.9172499999999104
 20
-271.1318499999999858
 30
0.0
  0
VERTEX
  5
1477
  8
SCAN
 10
425.9429999999999268
 20
-273.6370999999999754
 30
0.0
  0
VERTEX
  5
1478
  8
SCAN
 10
429.0048999999999069
 20
-271.5493999999999915
 30
0.0
  0
VERTEX
  5
1479
  8
SCAN
 10
432.2059999999999036
 20
-269.8792500000001269
 30
0.0
  0
VERTEX
  5
147A
  8
SCAN
 10
432.3451999999999202
 20
-270.018449999999973
 30
0.0
  0
VERTEX
  5
147B
  8
SCAN
 10
431.2317499999998063
 20
-271.9669500000001108
 30
0.0
  0
VERTEX
  5
147C
  8
SCAN
 10
430.1183499999999071
 20
-275.7247499999999718
 30
0.0
  0
VERTEX
  5
147D
  8
SCAN
 10
430.1183499999999071
 20
-278.2299499999999739
 30
0.0
  0
VERTEX
  5
147E
  8
SCAN
 10
431.6492999999999256
 20
-275.8639499999998748
 30
0.0
  0
VERTEX
  5
147F
  8
SCAN
 10
433.3194499999999039
 20
-274.1938000000001239
 30
0.0
  0
VERTEX
  5
1480
  8
SCAN
 10
435.1287499999999113
 20
-273.2195500000000266
 30
0.0
  0
VERTEX
  5
1481
  8
SCAN
 10
437.0772499999998786
 20
-273.0803499999998962
 30
0.0
  0
VERTEX
  5
1482
  8
SCAN
 10
437.3555999999998107
 20
-273.4979000000000724
 30
0.0
  0
VERTEX
  5
1483
  8
SCAN
 10
437.3555999999998107
 20
-278.5083000000000766
 30
0.0
  0
VERTEX
  5
1484
  8
SCAN
 10
438.1906499999998914
 20
-280.735149999999976
 30
0.0
  0
VERTEX
  5
1485
  8
SCAN
 10
440.4174999999999045
 20
-283.101199999999892
 30
0.0
  0
VERTEX
  5
1486
  8
SCAN
 10
443.201099999999883
 20
-284.9105000000001269
 30
0.0
  0
VERTEX
  5
1487
  8
SCAN
 10
444.871199999999817
 20
-285.4671999999998775
 30
0.0
  0
VERTEX
  5
1488
  8
SCAN
 10
445.7062999999998283
 20
-285.4671999999998775
 30
0.0
  0
VERTEX
  5
1489
  8
SCAN
 10
446.9589000000000283
 20
-284.0754499999998757
 30
0.0
  0
VERTEX
  5
148A
  8
SCAN
 10
448.7681999999999221
 20
-281.1526999999999816
 30
0.0
  0
VERTEX
  5
148B
  8
SCAN
 10
450.2991499999998837
 20
-277.9515999999999849
 30
0.0
  0
VERTEX
  5
148C
  8
SCAN
 10
451.4125999999998839
 20
-276.6989999999998986
 30
0.0
  0
VERTEX
  5
148D
  8
SCAN
 10
452.6651999999999134
 20
-276.1422999999999774
 30
0.0
  0
VERTEX
  5
148E
  8
SCAN
 10
454.0569499999999152
 20
-276.1422999999999774
 30
0.0
  0
VERTEX
  5
148F
  8
SCAN
 10
455.5879499999999211
 20
-276.977350000000115
 30
0.0
  0
VERTEX
  5
1490
  8
SCAN
 10
455.4487499999999045
 20
-276.2814500000001203
 30
0.0
  0
VERTEX
  5
1491
  8
SCAN
 10
454.4744999999998072
 20
-275.1680499999999938
 30
0.0
  0
VERTEX
  5
1492
  8
SCAN
 10
456.4229999999998881
 20
-274.3329500000000962
 30
0.0
  0
VERTEX
  5
1493
  8
SCAN
 10
459.2065499999998792
 20
-271.5493999999999915
 30
0.0
  0
VERTEX
  5
1494
  8
SCAN
 10
459.3457499999998959
 20
-271.9669500000001108
 30
0.0
  0
VERTEX
  5
1495
  8
SCAN
 10
457.9539500000000203
 20
-279.6217500000000769
 30
0.0
  0
VERTEX
  5
1496
  8
SCAN
 10
456.7013499999998203
 20
-283.7971000000000004
 30
0.0
  0
VERTEX
  5
1497
  8
SCAN
 10
455.8663000000000238
 20
-285.6064000000001215
 30
0.0
  0
VERTEX
  5
1498
  8
SCAN
 10
455.3095499999998879
 20
-286.0239500000001271
 30
0.0
  0
VERTEX
  5
1499
  8
SCAN
 10
453.3610999999999081
 20
-286.5806500000001051
 30
0.0
  0
VERTEX
  5
149A
  8
SCAN
 10
449.1857499999999277
 20
-286.9981500000001233
 30
0.0
  0
VERTEX
  5
149B
  8
SCAN
 10
451.9692999999999188
 20
-287.5548999999999751
 30
0.0
  0
SEQEND
  5
149C
  8
SCAN
  0
POLYLINE
  5
2F4
  8
SCAN
 66
     1
 10
0.0
 20
0.0
 30
0.0
 70
     1
  0
VERTEX
  5
149D
  8
SCAN
 10
456.7013499999998203
 20
-287.6940499999998906
 30
0.0
  0
VERTEX
  5
149E
  8
SCAN
 10
456.979699999999923
 20
-287.5548999999999751
 30
0.0
  0
VERTEX
  5
149F
  8
SCAN
 10
457.536399999999901
 20
-286.3023000000000025
 30
0.0
  0
VERTEX
  5
14A0
  8
SCAN
 10
459.0673999999999069
 20
-281.5702499999999873
 30
0.0
  0
VERTEX
  5
14A1
  8
SCAN
 10
460.3199999999998795
 20
-275.8639499999998748
 30
0.0
  0
VERTEX
  5
14A2
  8
SCAN
 10
460.8766999999999143
 20
-271.2710500000000025
 30
0.0
  0
VERTEX
  5
14A3
  8
SCAN
 10
461.1550499999997896
 20
-270.9927000000001271
 30
0.0
  0
VERTEX
  5
14A4
  8
SCAN
 10
461.9900999999999271
 20
-270.9927000000001271
 30
0.0
  0
VERTEX
  5
14A5
  8
SCAN
 10
464.495349999999803
 20
-271.4102500000000759
 30
0.0
  0
VERTEX
  5
14A6
  8
SCAN
 10
465.8870999999999185
 20
-271.9669500000001108
 30
0.0
  0
VERTEX
  5
14A7
  8
SCAN
 10
466.1654500000000212
 20
-271.8277500000000941
 30
0.0
  0
VERTEX
  5
14A8
  8
SCAN
 10
466.0262999999998215
 20
-270.2968000000001894
 30
0.0
  0
VERTEX
  5
14A9
  8
SCAN
 10
465.6087499999998158
 20
-268.9050000000000864
 30
0.0
  0
VERTEX
  5
14AA
  8
SCAN
 10
463.7994499999999221
 20
-266.2606499999998846
 30
0.0
  0
VERTEX
  5
14AB
  8
SCAN
 10
462.4076499999998759
 20
-265.147199999999998
 30
0.0
  0
VERTEX
  5
14AC
  8
SCAN
 10
461.7117499999998245
 20
-266.8173499999999763
 30
0.0
  0
VERTEX
  5
14AD
  8
SCAN
 10
461.29424999999992
 20
-267.2348999999999819
 30
0.0
  0
VERTEX
  5
14AE
  8
SCAN
 10
461.1550499999997896
 20
-267.0957000000000789
 30
0.0
  0
VERTEX
  5
14AF
  8
SCAN
 10
461.4333999999998923
 20
-265.0080500000000256
 30
0.0
  0
VERTEX
  5
14B0
  8
SCAN
 10
461.29424999999992
 20
-261.3894000000000233
 30
0.0
  0
VERTEX
  5
14B1
  8
SCAN
 10
464.2169499999998834
 20
-261.2502499999999941
 30
0.0
  0
VERTEX
  5
14B2
  8
SCAN
 10
467.0005499999999188
 20
-261.667750000000126
 30
0.0
  0
VERTEX
  5
14B3
  8
SCAN
 10
466.8613499999999021
 20
-259.8584500000000048
 30
0.0
  0
VERTEX
  5
14B4
  8
SCAN
 10
465.8870999999999185
 20
-257.0749000000001274
 30
0.0
  0
VERTEX
  5
14B5
  8
SCAN
 10
464.3561499999999
 20
-254.5697000000000969
 30
0.0
  0
VERTEX
  5
14B6
  8
SCAN
 10
461.1550499999997896
 20
-250.8118500000001063
 30
0.0
  0
VERTEX
  5
14B7
  8
SCAN
 10
462.5468499999998926
 20
-248.5850000000000932
 30
0.0
  0
VERTEX
  5
14B8
  8
SCAN
 10
463.3818999999999164
 20
-245.5231000000001131
 30
0.0
  0
VERTEX
  5
14B9
  8
SCAN
 10
463.3818999999999164
 20
-240.9302500000000862
 30
0.0
  0
VERTEX
  5
14BA
  8
SCAN
 10
462.9643499999999108
 20
-238.8425500000001023
 30
0.0
  0
VERTEX
  5
14BB
  8
SCAN
 10
461.9900999999999271
 20
-236.4765500000000884
 30
0.0
  0
VERTEX
  5
14BC
  8
SCAN
 10
460.3199999999998795
 20
-234.3888500000001045
 30
0.0
  0
VERTEX
  5
14BD
  8
SCAN
 10
460.8766999999999143
 20
-234.2497000000001037
 30
0.0
  0
VERTEX
  5
14BE
  8
SCAN
 10
462.8251999999998247
 20
-234.6672000000000935
 30
0.0
  0
VERTEX
  5
14BF
  8
SCAN
 10
462.8251999999998247
 20
-205.7181499999998948
 30
0.0
  0
VERTEX
  5
14C0
  8
SCAN
 10
451.4125999999998839
 20
-203.769700000000114
 30
0.0
  0
VERTEX
  5
14C1
  8
SCAN
 10
451.4125999999998839
 20
-207.2491500000000997
 30
0.0
  0
VERTEX
  5
14C2
  8
SCAN
 10
451.134249999999895
 20
-207.3883000000001005
 30
0.0
  0
VERTEX
  5
14C3
  8
SCAN
 10
430.2574999999998795
 20
-203.6305000000000973
 30
0.0
  0
VERTEX
  5
14C4
  8
SCAN
 10
429.4224499999999125
 20
-203.2129500000000917
 30
0.0
  0
VERTEX
  5
14C5
  8
SCAN
 10
429.2832499999998959
 20
-199.0376500000000988
 30
0.0
  0
VERTEX
  5
14C6
  8
SCAN
 10
419.8191499999999223
 20
-197.3675000000000921
 30
0.0
  0
VERTEX
  5
14C7
  8
SCAN
 10
418.8448999999998819
 20
-200.1510500000001116
 30
0.0
  0
VERTEX
  5
14C8
  8
SCAN
 10
418.2881999999999039
 20
-203.3521499999999946
 30
0.0
  0
VERTEX
  5
14C9
  8
SCAN
 10
418.5665499999997792
 20
-207.3883000000001005
 30
0.0
  0
VERTEX
  5
14CA
  8
SCAN
 10
419.1232499999999277
 20
-209.1976500000000954
 30
0.0
  0
VERTEX
  5
14CB
  8
SCAN
 10
419.8191499999999223
 20
-210.3110500000001082
 30
0.0
  0
VERTEX
  5
14CC
  8
SCAN
 10
418.4273999999999205
 20
-215.3214499999999987
 30
0.0
  0
VERTEX
  5
14CD
  8
SCAN
 10
418.4273999999999205
 20
-219.7751500000001101
 30
0.0
  0
VERTEX
  5
14CE
  8
SCAN
 10
418.8448999999998819
 20
-221.584500000000105
 30
0.0
  0
VERTEX
  5
14CF
  8
SCAN
 10
420.0974999999999113
 20
-224.0897000000001071
 30
0.0
  0
VERTEX
  5
14D0
  8
SCAN
 10
421.9068499999999062
 20
-225.8990000000000862
 30
0.0
  0
VERTEX
  5
14D1
  8
SCAN
 10
424.5511999999998238
 20
-227.4299500000001046
 30
0.0
  0
VERTEX
  5
14D2
  8
SCAN
 10
422.8810999999998899
 20
-228.1258500000000993
 30
0.0
  0
VERTEX
  5
14D3
  8
SCAN
 10
421.4893000000000143
 20
-229.1001000000001113
 30
0.0
  0
VERTEX
  5
14D4
  8
SCAN
 10
419.8191499999999223
 20
-231.1877500000001078
 30
0.0
  0
VERTEX
  5
14D5
  8
SCAN
 10
419.1232499999999277
 20
-232.7187000000000978
 30
0.0
  0
VERTEX
  5
14D6
  8
SCAN
 10
418.5665499999997792
 20
-234.9455499999999972
 30
0.0
  0
VERTEX
  5
14D7
  8
SCAN
 10
418.2881999999999039
 20
-237.3116000000001122
 30
0.0
  0
VERTEX
  5
14D8
  8
SCAN
 10
418.2881999999999039
 20
-241.6261000000000934
 30
0.0
  0
VERTEX
  5
14D9
  8
SCAN
 10
418.7057499999997958
 20
-246.3581500000001085
 30
0.0
  0
VERTEX
  5
14DA
  8
SCAN
 10
418.9840999999998985
 20
-247.3324000000000922
 30
0.0
  0
VERTEX
  5
14DB
  8
SCAN
 10
426.7780499999997801
 20
-248.5850000000000932
 30
0.0
  0
VERTEX
  5
14DC
  8
SCAN
 10
426.9172499999999104
 20
-248.8634000000000981
 30
0.0
  0
VERTEX
  5
14DD
  8
SCAN
 10
424.1336999999999193
 20
-251.507750000000101
 30
0.0
  0
VERTEX
  5
14DE
  8
SCAN
 10
421.3500999999998839
 20
-254.9872000000000867
 30
0.0
  0
VERTEX
  5
14DF
  8
SCAN
 10
418.8448999999998819
 20
-259.023399999999981
 30
0.0
  0
VERTEX
  5
14E0
  8
SCAN
 10
416.2005499999999074
 20
-264.8688500000001227
 30
0.0
  0
VERTEX
  5
14E1
  8
SCAN
 10
418.0098499999998012
 20
-268.7658500000001141
 30
0.0
  0
VERTEX
  5
14E2
  8
SCAN
 10
420.3758999999997741
 20
-272.9411999999999807
 30
0.0
  0
VERTEX
  5
14E3
  8
SCAN
 10
423.0202499999998054
 20
-276.6989999999998986
 30
0.0
  0
VERTEX
  5
14E4
  8
SCAN
 10
424.6903999999997836
 20
-278.6474999999999795
 30
0.0
  0
VERTEX
  5
14E5
  8
SCAN
 10
427.4739499999998884
 20
-281.2918499999998971
 30
0.0
  0
VERTEX
  5
14E6
  8
SCAN
 10
430.2574999999998795
 20
-283.2403499999999781
 30
0.0
  0
VERTEX
  5
14E7
  8
SCAN
 10
432.9018999999998982
 20
-284.3537999999999784
 30
0.0
  0
VERTEX
  5
14E8
  8
SCAN
 10
435.1287499999999113
 20
-284.6321500000000242
 30
0.0
  0
VERTEX
  5
14E9
  8
SCAN
 10
433.7369499999999221
 20
-284.2146000000000754
 30
0.0
  0
VERTEX
  5
14EA
  8
SCAN
 10
430.5359000000000265
 20
-282.4053000000001248
 30
0.0
  0
VERTEX
  5
14EB
  8
SCAN
 10
428.4481999999998152
 20
-280.735149999999976
 30
0.0
  0
VERTEX
  5
14EC
  8
SCAN
 10
425.9429999999999268
 20
-278.2299499999999739
 30
0.0
  0
VERTEX
  5
14ED
  8
SCAN
 10
422.1851999999998952
 20
-273.2195500000000266
 30
0.0
  0
VERTEX
  5
14EE
  8
SCAN
 10
420.236699999999928
 20
-269.8792500000001269
 30
0.0
  0
VERTEX
  5
14EF
  8
SCAN
 10
417.8706499999998982
 20
-264.8688500000001227
 30
0.0
  0
VERTEX
  5
14F0
  8
SCAN
 10
420.6542499999998768
 20
-262.9203499999999849
 30
0.0
  0
VERTEX
  5
14F1
  8
SCAN
 10
423.1594499999998789
 20
-261.667750000000126
 30
0.0
  0
VERTEX
  5
14F2
  8
SCAN
 10
426.7780499999997801
 20
-260.4151499999999828
 30
0.0
  0
VERTEX
  5
14F3
  8
SCAN
 10
430.9533999999998741
 20
-259.7192500000001019
 30
0.0
  0
VERTEX
  5
14F4
  8
SCAN
 10
435.6854499999997756
 20
-259.8584499999998911
 30
0.0
  0
VERTEX
  5
14F5
  8
SCAN
 10
439.7216499999997836
 20
-260.9718500000000745
 30
0.0
  0
VERTEX
  5
14F6
  8
SCAN
 10
442.5051999999998884
 20
-262.6419999999998822
 30
0.0
  0
VERTEX
  5
14F7
  8
SCAN
 10
444.7320500000000152
 20
-265.0080500000000256
 30
0.0
  0
VERTEX
  5
14F8
  8
SCAN
 10
446.541349999999909
 20
-268.6266499999999837
 30
0.0
  0
VERTEX
  5
14F9
  8
SCAN
 10
446.6805499999998119
 20
-266.1214499999999816
 30
0.0
  0
VERTEX
  5
14FA
  8
SCAN
 10
446.1237999999999033
 20
-263.7554500000001099
 30
0.0
  0
VERTEX
  5
14FB
  8
SCAN
 10
444.871199999999817
 20
-261.5286000000000968
 30
0.0
  0
VERTEX
  5
14FC
  8
SCAN
 10
443.7577999999999179
 20
-260.2759999999998968
 30
0.0
  0
VERTEX
  5
14FD
  8
SCAN
 10
442.3659999999998718
 20
-259.1625500000001239
 30
0.0
  0
VERTEX
  5
14FE
  8
SCAN
 10
439.7216499999997836
 20
-257.7708000000001221
 30
0.0
  0
VERTEX
  5
14FF
  8
SCAN
 10
436.6596999999998161
 20
-256.9357000000001108
 30
0.0
  0
VERTEX
  5
1500
  8
SCAN
 10
432.7627499999999259
 20
-256.7965500000000816
 30
0.0
  0
VERTEX
  5
1501
  8
SCAN
 10
430.5359000000000265
 20
-257.0749000000001274
 30
0.0
  0
VERTEX
  5
1502
  8
SCAN
 10
429.8399999999999181
 20
-257.3532500000001164
 30
0.0
  0
VERTEX
  5
1503
  8
SCAN
 10
429.1440999999998098
 20
-257.2140499999998724
 30
0.0
  0
VERTEX
  5
1504
  8
SCAN
 10
431.6492999999999256
 20
-255.404750000000007
 30
0.0
  0
VERTEX
  5
1505
  8
SCAN
 10
434.0153499999998985
 20
-254.1521500000000913
 30
0.0
  0
VERTEX
  5
1506
  8
SCAN
 10
438.0514999999999191
 20
-252.8995500000000902
 30
0.0
  0
VERTEX
  5
1507
  8
SCAN
 10
442.6443499999999176
 20
-252.8995500000000902
 30
0.0
  0
VERTEX
  5
1508
  8
SCAN
 10
444.7320500000000152
 20
-253.4562500000000966
 30
0.0
  0
VERTEX
  5
1509
  8
SCAN
 10
446.541349999999909
 20
-254.291300000000092
 30
0.0
  0
VERTEX
  5
150A
  8
SCAN
 10
448.2114999999998872
 20
-255.404750000000007
 30
0.0
  0
VERTEX
  5
150B
  8
SCAN
 10
450.2991499999998837
 20
-257.4923999999999751
 30
0.0
  0
VERTEX
  5
150C
  8
SCAN
 10
451.6909499999998161
 20
-259.8584499999998911
 30
0.0
  0
VERTEX
  5
150D
  8
SCAN
 10
451.9692999999999188
 20
-260.6934999999999718
 30
0.0
  0
VERTEX
  5
150E
  8
SCAN
 10
451.8301000000000158
 20
-260.9718500000000745
 30
0.0
  0
VERTEX
  5
150F
  8
SCAN
 10
449.1857499999999277
 20
-258.0491499999998837
 30
0.0
  0
VERTEX
  5
1510
  8
SCAN
 10
446.541349999999909
 20
-256.3790000000000759
 30
0.0
  0
VERTEX
  5
1511
  8
SCAN
 10
442.5051999999998884
 20
-255.1264000000001033
 30
0.0
  0
VERTEX
  5
1512
  8
SCAN
 10
438.886549999999886
 20
-254.9872000000000867
 30
0.0
  0
VERTEX
  5
1513
  8
SCAN
 10
441.9484999999999104
 20
-255.9614500000000987
 30
0.0
  0
VERTEX
  5
1514
  8
SCAN
 10
444.5928499999998849
 20
-257.631599999999878
 30
0.0
  0
VERTEX
  5
1515
  8
SCAN
 10
446.4021999999998798
 20
-259.4408999999998855
 30
0.0
  0
VERTEX
  5
1516
  8
SCAN
 10
447.3763999999998759
 20
-260.8326999999998748
 30
0.0
  0
VERTEX
  5
1517
  8
SCAN
 10
448.7681999999999221
 20
-264.1729500000001281
 30
0.0
  0
VERTEX
  5
1518
  8
SCAN
 10
449.3248999999999
 20
-267.6524000000001138
 30
0.0
  0
VERTEX
  5
1519
  8
SCAN
 10
449.0465499999999111
 20
-272.5236499999999751
 30
0.0
  0
VERTEX
  5
151A
  8
SCAN
 10
447.6548000000000229
 20
-277.5340499999999793
 30
0.0
  0
VERTEX
  5
151B
  8
SCAN
 10
446.541349999999909
 20
-279.7608999999999924
 30
0.0
  0
VERTEX
  5
151C
  8
SCAN
 10
445.845450000000028
 20
-280.5960000000001173
 30
0.0
  0
VERTEX
  5
151D
  8
SCAN
 10
444.1753499999999235
 20
-280.735149999999976
 30
0.0
  0
VERTEX
  5
151E
  8
SCAN
 10
442.5051999999998884
 20
-281.7094000000000165
 30
0.0
  0
VERTEX
  5
151F
  8
SCAN
 10
441.1133999999998991
 20
-280.4567999999998733
 30
0.0
  0
VERTEX
  5
1520
  8
SCAN
 10
440.5566999999999211
 20
-278.7866500000001224
 30
0.0
  0
VERTEX
  5
1521
  8
SCAN
 10
440.5566999999999211
 20
-277.5340499999999793
 30
0.0
  0
VERTEX
  5
1522
  8
SCAN
 10
441.5309499999999048
 20
-272.5236499999999751
 30
0.0
  0
VERTEX
  5
1523
  8
SCAN
 10
441.5309499999999048
 20
-269.6009000000000242
 30
0.0
  0
VERTEX
  5
1524
  8
SCAN
 10
441.1133999999998991
 20
-268.069949999999892
 30
0.0
  0
VERTEX
  5
1525
  8
SCAN
 10
439.9999999999998863
 20
-266.1214499999999816
 30
0.0
  0
VERTEX
  5
1526
  8
SCAN
 10
437.9122999999997887
 20
-264.3121499999999742
 30
0.0
  0
VERTEX
  5
1527
  8
SCAN
 10
436.102999999999895
 20
-263.6162499999999795
 30
0.0
  0
VERTEX
  5
1528
  8
SCAN
 10
434.4328499999999167
 20
-263.3379000000001042
 30
0.0
  0
VERTEX
  5
1529
  8
SCAN
 10
431.2317499999998063
 20
-263.3379000000001042
 30
0.0
  0
VERTEX
  5
152A
  8
SCAN
 10
429.5616499999998723
 20
-263.6162499999999795
 30
0.0
  0
VERTEX
  5
152B
  8
SCAN
 10
427.0563999999998828
 20
-264.4512999999998897
 30
0.0
  0
VERTEX
  5
152C
  8
SCAN
 10
425.2470999999998753
 20
-265.4255499999998733
 30
0.0
  0
VERTEX
  5
152D
  8
SCAN
 10
423.437799999999811
 20
-266.8173499999999763
 30
0.0
  0
VERTEX
  5
152E
  8
SCAN
 10
422.4635499999998274
 20
-268.069949999999892
 30
0.0
  0
VERTEX
  5
152F
  8
SCAN
 10
426.6388999999999214
 20
-267.2348999999999819
 30
0.0
  0
VERTEX
  5
1530
  8
SCAN
 10
429.8399999999999181
 20
-267.0957000000000789
 30
0.0
  0
VERTEX
  5
1531
  8
SCAN
 10
429.9791499999998905
 20
-267.2348999999999819
 30
0.0
  0
VERTEX
  5
1532
  8
SCAN
 10
428.3090499999998997
 20
-269.0441999999999894
 30
0.0
  0
VERTEX
  5
1533
  8
SCAN
 10
426.9172499999999104
 20
-271.1318499999999858
 30
0.0
  0
VERTEX
  5
1534
  8
SCAN
 10
425.9429999999999268
 20
-273.6370999999999754
 30
0.0
  0
VERTEX
  5
1535
  8
SCAN
 10
426.2213499999999158
 20
-273.6370999999999754
 30
0.0
  0
VERTEX
  5
1536
  8
SCAN
 10
429.0048999999999069
 20
-271.5493999999999915
 30
0.0
  0
VERTEX
  5
1537
  8
SCAN
 10
432.2059999999999036
 20
-269.8792500000001269
 30
0.0
  0
VERTEX
  5
1538
  8
SCAN
 10
432.3451999999999202
 20
-270.018449999999973
 30
0.0
  0
VERTEX
  5
1539
  8
SCAN
 10
431.2317499999998063
 20
-271.9669500000001108
 30
0.0
  0
VERTEX
  5
153A
  8
SCAN
 10
430.5359000000000265
 20
-273.915450000000078
 30
0.0
  0
VERTEX
  5
153B
  8
SCAN
 10
430.1183499999999071
 20
-275.7247499999999718
 30
0.0
  0
VERTEX
  5
153C
  8
SCAN
 10
430.1183499999999071
 20
-278.2299499999999739
 30
0.0
  0
VERTEX
  5
153D
  8
SCAN
 10
431.6492999999999256
 20
-275.8639499999998748
 30
0.0
  0
VERTEX
  5
153E
  8
SCAN
 10
433.3194499999999039
 20
-274.1938000000001239
 30
0.0
  0
VERTEX
  5
153F
  8
SCAN
 10
435.1287499999999113
 20
-273.2195500000000266
 30
0.0
  0
VERTEX
  5
1540
  8
SCAN
 10
437.0772499999998786
 20
-273.0803499999998962
 30
0.0
  0
VERTEX
  5
1541
  8
SCAN
 10
437.3555999999998107
 20
-273.4979000000000724
 30
0.0
  0
VERTEX
  5
1542
  8
SCAN
 10
437.3555999999998107
 20
-278.5083000000000766
 30
0.0
  0
VERTEX
  5
1543
  8
SCAN
 10
438.1906499999998914
 20
-280.735149999999976
 30
0.0
  0
VERTEX
  5
1544
  8
SCAN
 10
440.4174999999999045
 20
-283.101199999999892
 30
0.0
  0
VERTEX
  5
1545
  8
SCAN
 10
443.201099999999883
 20
-284.9105000000001269
 30
0.0
  0
VERTEX
  5
1546
  8
SCAN
 10
444.871199999999817
 20
-285.4671999999998775
 30
0.0
  0
VERTEX
  5
1547
  8
SCAN
 10
445.7062999999998283
 20
-285.4671999999998775
 30
0.0
  0
VERTEX
  5
1548
  8
SCAN
 10
446.9589000000000283
 20
-284.0754499999998757
 30
0.0
  0
VERTEX
  5
1549
  8
SCAN
 10
448.7681999999999221
 20
-281.1526999999999816
 30
0.0
  0
VERTEX
  5
154A
  8
SCAN
 10
450.2991499999998837
 20
-277.9515999999999849
 30
0.0
  0
VERTEX
  5
154B
  8
SCAN
 10
451.4125999999998839
 20
-276.6989999999998986
 30
0.0
  0
VERTEX
  5
154C
  8
SCAN
 10
452.6651999999999134
 20
-276.1422999999999774
 30
0.0
  0
VERTEX
  5
154D
  8
SCAN
 10
454.0569499999999152
 20
-276.1422999999999774
 30
0.0
  0
VERTEX
  5
154E
  8
SCAN
 10
455.5879499999999211
 20
-276.977350000000115
 30
0.0
  0
VERTEX
  5
154F
  8
SCAN
 10
455.4487499999999045
 20
-276.2814500000001203
 30
0.0
  0
VERTEX
  5
1550
  8
SCAN
 10
454.4744999999998072
 20
-275.1680499999999938
 30
0.0
  0
VERTEX
  5
1551
  8
SCAN
 10
456.4229999999998881
 20
-274.3329500000000962
 30
0.0
  0
VERTEX
  5
1552
  8
SCAN
 10
459.2065499999998792
 20
-271.5493999999999915
 30
0.0
  0
VERTEX
  5
1553
  8
SCAN
 10
459.3457499999998959
 20
-271.9669500000001108
 30
0.0
  0
VERTEX
  5
1554
  8
SCAN
 10
458.9281999999997765
 20
-274.8896999999998911
 30
0.0
  0
VERTEX
  5
1555
  8
SCAN
 10
457.9539500000000203
 20
-279.6217500000000769
 30
0.0
  0
VERTEX
  5
1556
  8
SCAN
 10
456.7013499999998203
 20
-283.7971000000000004
 30
0.0
  0
VERTEX
  5
1557
  8
SCAN
 10
455.8663000000000238
 20
-285.6064000000001215
 30
0.0
  0
VERTEX
  5
1558
  8
SCAN
 10
455.3095499999998879
 20
-286.0239500000001271
 30
0.0
  0
VERTEX
  5
1559
  8
SCAN
 10
453.3610999999999081
 20
-286.5806500000001051
 30
0.0
  0
VERTEX
  5
155A
  8
SCAN
 10
450.8558999999997923
 20
-286.9981500000001233
 30
0.0
  0
VERTEX
  5
155B
  8
SCAN
 10
449.1857499999999277
 20
-286.9981500000001233
 30
0.0
  0
VERTEX
  5
155C
  8
SCAN
 10
451.9692999999999188
 20
-287.5548999999999751
 30
0.0
  0
SEQEND
  5
155D
  8
SCAN
  0
POLYLINE
  5
2F5
  8
SCAN
 66
     1
 10
0.0
 20
0.0
 30
0.0
 70
     1
  0
VERTEX
  5
155E
  8
SCAN
 10
453.0827499999999191
 20
-269.183400000000006
 30
0.0
  0
VERTEX
  5
155F
  8
SCAN
 10
453.3610999999999081
 20
-270.018449999999973
 30
0.0
  0
VERTEX
  5
1560
  8
SCAN
 10
452.8043499999997721
 20
-270.2968000000000757
 30
0.0
  0
VERTEX
  5
1561
  8
SCAN
 10
452.5259999999998968
 20
-270.018449999999973
 30
0.0
  0
VERTEX
  5
1562
  8
SCAN
 10
452.5259999999998968
 20
-269.4617499999998813
 30
0.0
  0
SEQEND
  5
1563
  8
SCAN
  0
POLYLINE
  5
2F6
  8
SCAN
 66
     1
 10
0.0
 20
0.0
 30
0.0
 70
     1
  0
VERTEX
  5
1564
  8
SCAN
 10
453.2218999999998914
 20
-266.6781500000000165
 30
0.0
  0
VERTEX
  5
1565
  8
SCAN
 10
453.3610999999999081
 20
-267.7916000000000736
 30
0.0
  0
VERTEX
  5
1566
  8
SCAN
 10
452.1084999999998786
 20
-268.6266499999999837
 30
0.0
  0
VERTEX
  5
1567
  8
SCAN
 10
451.6909499999998161
 20
-270.018449999999973
 30
0.0
  0
VERTEX
  5
1568
  8
SCAN
 10
451.2733999999999241
 20
-269.3225499999999784
 30
0.0
  0
VERTEX
  5
1569
  8
SCAN
 10
451.4125999999998839
 20
-267.9307999999999765
 30
0.0
  0
VERTEX
  5
156A
  8
SCAN
 10
452.6651999999999134
 20
-266.6781500000000165
 30
0.0
  0
SEQEND
  5
156B
  8
SCAN
  0
POLYLINE
  5
2F7
  8
SCAN
 66
     1
 10
0.0
 20
0.0
 30
0.0
 70
     1
  0
VERTEX
  5
156C
  8
SCAN
 10
456.1446499999998991
 20
-263.1986999999999739
 30
0.0
  0
VERTEX
  5
156D
  8
SCAN
 10
456.2837999999999283
 20
-269.4617499999998813
 30
0.0
  0
VERTEX
  5
156E
  8
SCAN
 10
456.0054499999998256
 20
-270.8534999999998831
 30
0.0
  0
VERTEX
  5
156F
  8
SCAN
 10
455.4487499999999045
 20
-271.9669500000001108
 30
0.0
  0
VERTEX
  5
1570
  8
SCAN
 10
454.7528499999999099
 20
-272.662849999999878
 30
0.0
  0
VERTEX
  5
1571
  8
SCAN
 10
454.0569499999999152
 20
-273.0803499999998962
 30
0.0
  0
VERTEX
  5
1572
  8
SCAN
 10
453.2218999999998914
 20
-273.2195500000000266
 30
0.0
  0
VERTEX
  5
1573
  8
SCAN
 10
453.0827499999999191
 20
-273.0803499999998962
 30
0.0
  0
VERTEX
  5
1574
  8
SCAN
 10
453.7785999999999262
 20
-272.5236499999999751
 30
0.0
  0
VERTEX
  5
1575
  8
SCAN
 10
454.6136999999998238
 20
-270.8534999999998831
 30
0.0
  0
VERTEX
  5
1576
  8
SCAN
 10
454.7528499999999099
 20
-266.1214499999999816
 30
0.0
  0
VERTEX
  5
1577
  8
SCAN
 10
455.3095499999998879
 20
-264.0337999999999852
 30
0.0
  0
SEQEND
  5
1578
  8
SCAN
  0
POLYLINE
  5
2F8
  8
SCAN
 66
     1
 10
0.0
 20
0.0
 30
0.0
 70
     1
  0
VERTEX
  5
1579
  8
SCAN
 10
460.1807999999999197
 20
-231.326950000000096
 30
0.0
  0
VERTEX
  5
157A
  8
SCAN
 10
458.7890499999999179
 20
-231.326950000000096
 30
0.0
  0
VERTEX
  5
157B
  8
SCAN
 10
428.587399999999775
 20
-225.8990000000000862
 30
0.0
  0
VERTEX
  5
157C
  8
SCAN
 10
425.5254499999999211
 20
-224.9247500000001025
 30
0.0
  0
VERTEX
  5
157D
  8
SCAN
 10
423.5769499999997834
 20
-223.8113000000001023
 30
0.0
  0
VERTEX
  5
157E
  8
SCAN
 10
422.1851999999998952
 20
-222.4195500000001005
 30
0.0
  0
VERTEX
  5
157F
  8
SCAN
 10
421.4893000000000143
 20
-221.1669500000000994
 30
0.0
  0
VERTEX
  5
1580
  8
SCAN
 10
420.9325999999999226
 20
-218.8009000000000981
 30
0.0
  0
VERTEX
  5
1581
  8
SCAN
 10
420.9325999999999226
 20
-216.295700000000096
 30
0.0
  0
VERTEX
  5
1582
  8
SCAN
 10
421.4893000000000143
 20
-213.6513000000001057
 30
0.0
  0
VERTEX
  5
1583
  8
SCAN
 10
421.9068499999999062
 20
-213.5121500000001049
 30
0.0
  0
VERTEX
  5
1584
  8
SCAN
 10
426.4996999999999048
 20
-214.3472000000001003
 30
0.0
  0
VERTEX
  5
1585
  8
SCAN
 10
426.7780499999997801
 20
-216.8524000000001024
 30
0.0
  0
VERTEX
  5
1586
  8
SCAN
 10
427.1955999999998994
 20
-217.826650000000086
 30
0.0
  0
VERTEX
  5
1587
  8
SCAN
 10
428.587399999999775
 20
-218.9401000000000863
 30
0.0
  0
VERTEX
  5
1588
  8
SCAN
 10
431.6492999999999256
 20
-219.7751500000001101
 30
0.0
  0
VERTEX
  5
1589
  8
SCAN
 10
454.0569499999999152
 20
-223.6721500000001015
 30
0.0
  0
VERTEX
  5
158A
  8
SCAN
 10
454.196149999999875
 20
-220.0535000000000991
 30
0.0
  0
VERTEX
  5
158B
  8
SCAN
 10
460.0416499999998905
 20
-221.0277500000001112
 30
0.0
  0
SEQEND
  5
158C
  8
SCAN
  0
POLYLINE
  5
2F9
  8
SCAN
 66
     1
 10
0.0
 20
0.0
 30
0.0
 70
     1
  0
VERTEX
  5
158D
  8
SCAN
 10
460.1807999999999197
 20
-218.2442000000000917
 30
0.0
  0
VERTEX
  5
158E
  8
SCAN
 10
460.0416499999998905
 20
-218.3834000000001083
 30
0.0
  0
VERTEX
  5
158F
  8
SCAN
 10
431.6492999999999256
 20
-213.3729500000000883
 30
0.0
  0
VERTEX
  5
1590
  8
SCAN
 10
427.3347999999999161
 20
-212.3987000000001046
 30
0.0
  0
VERTEX
  5
1591
  8
SCAN
 10
425.107949999999903
 20
-211.5636500000001092
 30
0.0
  0
VERTEX
  5
1592
  8
SCAN
 10
423.8553499999998735
 20
-210.8677500000000862
 30
0.0
  0
VERTEX
  5
1593
  8
SCAN
 10
422.3243499999998107
 20
-209.4760000000001128
 30
0.0
  0
VERTEX
  5
1594
  8
SCAN
 10
421.7676499999998896
 20
-208.6409000000001015
 30
0.0
  0
VERTEX
  5
1595
  8
SCAN
 10
421.2109499999999116
 20
-207.1099499999999978
 30
0.0
  0
VERTEX
  5
1596
  8
SCAN
 10
420.9325999999999226
 20
-205.579000000000093
 30
0.0
  0
VERTEX
  5
1597
  8
SCAN
 10
420.9325999999999226
 20
-203.0738000000000909
 30
0.0
  0
VERTEX
  5
1598
  8
SCAN
 10
421.4893000000000143
 20
-200.5686000000000888
 30
0.0
  0
VERTEX
  5
1599
  8
SCAN
 10
422.4635499999998274
 20
-200.4294000000001006
 30
0.0
  0
VERTEX
  5
159A
  8
SCAN
 10
426.3605499999998187
 20
-201.1252999999998963
 30
0.0
  0
VERTEX
  5
159B
  8
SCAN
 10
426.6388999999999214
 20
-201.4036500000001126
 30
0.0
  0
VERTEX
  5
159C
  8
SCAN
 10
426.7780499999997801
 20
-203.6305000000000973
 30
0.0
  0
VERTEX
  5
159D
  8
SCAN
 10
427.0563999999998828
 20
-204.4655500000000927
 30
0.0
  0
VERTEX
  5
159E
  8
SCAN
 10
427.6131499999997914
 20
-205.1614500000000874
 30
0.0
  0
VERTEX
  5
159F
  8
SCAN
 10
428.7265499999999179
 20
-205.8573500000001104
 30
0.0
  0
VERTEX
  5
15A0
  8
SCAN
 10
432.0668499999998744
 20
-206.6924000000001058
 30
0.0
  0
VERTEX
  5
15A1
  8
SCAN
 10
439.9999999999998863
 20
-207.9450000000001069
 30
0.0
  0
VERTEX
  5
15A2
  8
SCAN
 10
453.3610999999999081
 20
-210.4502500000000964
 30
0.0
  0
VERTEX
  5
15A3
  8
SCAN
 10
454.0569499999999152
 20
-210.4502500000000964
 30
0.0
  0
VERTEX
  5
15A4
  8
SCAN
 10
454.196149999999875
 20
-206.831600000000094
 30
0.0
  0
VERTEX
  5
15A5
  8
SCAN
 10
460.0416499999998905
 20
-207.9450000000001069
 30
0.0
  0
SEQEND
  5
15A6
  8
SCAN
  0
POLYLINE
  5
2FA
  8
SCAN
 66
     1
 10
0.0
 20
0.0
 30
0.0
 70
     1
  0
VERTEX
  5
15A7
  8
SCAN
 10
460.4591499999999087
 20
-246.6365500000001134
 30
0.0
  0
VERTEX
  5
15A8
  8
SCAN
 10
459.7632499999999141
 20
-248.1675000000001035
 30
0.0
  0
VERTEX
  5
15A9
  8
SCAN
 10
458.9281999999997765
 20
-249.1417500000000871
 30
0.0
  0
VERTEX
  5
15AA
  8
SCAN
 10
457.258049999999912
 20
-250.1160000000000991
 30
0.0
  0
VERTEX
  5
15AB
  8
SCAN
 10
456.1446499999998991
 20
-250.3943500000000881
 30
0.0
  0
VERTEX
  5
15AC
  8
SCAN
 10
453.5002499999998804
 20
-250.5335000000000889
 30
0.0
  0
VERTEX
  5
15AD
  8
SCAN
 10
447.6548000000000229
 20
-249.5592500000001053
 30
0.0
  0
VERTEX
  5
15AE
  8
SCAN
 10
447.5155999999998926
 20
-243.2962500000001
 30
0.0
  0
VERTEX
  5
15AF
  8
SCAN
 10
448.2114999999998872
 20
-243.1571000000000993
 30
0.0
  0
VERTEX
  5
15B0
  8
SCAN
 10
452.2476499999999078
 20
-243.9921500000000947
 30
0.0
  0
VERTEX
  5
15B1
  8
SCAN
 10
454.7528499999999099
 20
-244.2705000000001121
 30
0.0
  0
VERTEX
  5
15B2
  8
SCAN
 10
455.0311999999998989
 20
-243.7138000000001057
 30
0.0
  0
VERTEX
  5
15B3
  8
SCAN
 10
455.0311999999998989
 20
-242.043650000000099
 30
0.0
  0
VERTEX
  5
15B4
  8
SCAN
 10
454.6136999999998238
 20
-241.3477500000001044
 30
0.0
  0
VERTEX
  5
15B5
  8
SCAN
 10
453.9177999999997724
 20
-240.9302500000000862
 30
0.0
  0
VERTEX
  5
15B6
  8
SCAN
 10
451.8301000000000158
 20
-240.3735000000000923
 30
0.0
  0
VERTEX
  5
15B7
  8
SCAN
 10
429.8399999999999181
 20
-236.6157000000000892
 30
0.0
  0
VERTEX
  5
15B8
  8
SCAN
 10
428.0306499999999232
 20
-236.7549000000001058
 30
0.0
  0
VERTEX
  5
15B9
  8
SCAN
 10
427.6131499999997914
 20
-237.0332500000000948
 30
0.0
  0
VERTEX
  5
15BA
  8
SCAN
 10
427.3347999999999161
 20
-237.5899500000001012
 30
0.0
  0
VERTEX
  5
15BB
  8
SCAN
 10
427.0563999999998828
 20
-238.9817500000000052
 30
0.0
  0
VERTEX
  5
15BC
  8
SCAN
 10
427.0563999999998828
 20
-245.8014499999999884
 30
0.0
  0
VERTEX
  5
15BD
  8
SCAN
 10
426.2213499999999158
 20
-245.9406500000000904
 30
0.0
  0
VERTEX
  5
15BE
  8
SCAN
 10
421.4893000000000143
 20
-245.1055500000001075
 30
0.0
  0
VERTEX
  5
15BF
  8
SCAN
 10
421.2109499999999116
 20
-244.8272000000000901
 30
0.0
  0
VERTEX
  5
15C0
  8
SCAN
 10
420.9325999999999226
 20
-242.043650000000099
 30
0.0
  0
VERTEX
  5
15C1
  8
SCAN
 10
420.9325999999999226
 20
-237.0332500000000948
 30
0.0
  0
VERTEX
  5
15C2
  8
SCAN
 10
421.4893000000000143
 20
-233.9713000000000989
 30
0.0
  0
VERTEX
  5
15C3
  8
SCAN
 10
422.3243499999998107
 20
-232.1620000000000061
 30
0.0
  0
VERTEX
  5
15C4
  8
SCAN
 10
423.437799999999811
 20
-230.9094000000000904
 30
0.0
  0
VERTEX
  5
15C5
  8
SCAN
 10
424.5511999999998238
 20
-230.2135000000000957
 30
0.0
  0
VERTEX
  5
15C6
  8
SCAN
 10
426.6388999999999214
 20
-229.6568000000000893
 30
0.0
  0
VERTEX
  5
15C7
  8
SCAN
 10
430.9533999999998741
 20
-229.796000000000106
 30
0.0
  0
VERTEX
  5
15C8
  8
SCAN
 10
450.1599999999999113
 20
-233.1362500000001035
 30
0.0
  0
VERTEX
  5
15C9
  8
SCAN
 10
453.9177999999997724
 20
-233.9713000000000989
 30
0.0
  0
VERTEX
  5
15CA
  8
SCAN
 10
456.5621999999999048
 20
-234.9455499999999972
 30
0.0
  0
VERTEX
  5
15CB
  8
SCAN
 10
458.0931499999999232
 20
-235.9198000000000945
 30
0.0
  0
VERTEX
  5
15CC
  8
SCAN
 10
459.0673999999999069
 20
-236.8940500000001066
 30
0.0
  0
VERTEX
  5
15CD
  8
SCAN
 10
459.902449999999817
 20
-238.1466500000001076
 30
0.0
  0
VERTEX
  5
15CE
  8
SCAN
 10
460.5983499999999253
 20
-240.2343500000000915
 30
0.0
  0
VERTEX
  5
15CF
  8
SCAN
 10
460.8766999999999143
 20
-242.6003500000001054
 30
0.0
  0
VERTEX
  5
15D0
  8
SCAN
 10
460.7374999999998977
 20
-245.5231000000001131
 30
0.0
  0
SEQEND
  5
15D1
  8
SCAN
  0
POLYLINE
  5
2FB
  8
SCAN
 66
     1
 10
0.0
 20
0.0
 30
0.0
 70
     1
  0
VERTEX
  5
15D2
  8
SCAN
 10
464.2169499999998834
 20
-258.605850000000089
 30
0.0
  0
VERTEX
  5
15D3
  8
SCAN
 10
463.7994499999999221
 20
-258.7450000000000045
 30
0.0
  0
VERTEX
  5
15D4
  8
SCAN
 10
461.7117499999998245
 20
-258.1883000000000834
 30
0.0
  0
VERTEX
  5
15D5
  8
SCAN
 10
459.6240999999998849
 20
-258.1883000000000834
 30
0.0
  0
VERTEX
  5
15D6
  8
SCAN
 10
458.3714999999999122
 20
-256.7965500000000816
 30
0.0
  0
VERTEX
  5
15D7
  8
SCAN
 10
461.0158999999998741
 20
-256.6573500000000081
 30
0.0
  0
VERTEX
  5
15D8
  8
SCAN
 10
460.4591499999999087
 20
-256.1006499999999733
 30
0.0
  0
VERTEX
  5
15D9
  8
SCAN
 10
458.5106499999998846
 20
-254.9872000000000867
 30
0.0
  0
VERTEX
  5
15DA
  8
SCAN
 10
456.979699999999923
 20
-254.5697000000000969
 30
0.0
  0
VERTEX
  5
15DB
  8
SCAN
 10
456.0054499999998256
 20
-254.5697000000000969
 30
0.0
  0
VERTEX
  5
15DC
  8
SCAN
 10
454.4744999999998072
 20
-253.1779000000001076
 30
0.0
  0
VERTEX
  5
15DD
  8
SCAN
 10
456.979699999999923
 20
-253.038700000000091
 30
0.0
  0
VERTEX
  5
15DE
  8
SCAN
 10
458.7890499999999179
 20
-253.4562500000000966
 30
0.0
  0
VERTEX
  5
15DF
  8
SCAN
 10
460.3199999999998795
 20
-254.1521500000000913
 30
0.0
  0
VERTEX
  5
15E0
  8
SCAN
 10
462.2684999999999036
 20
-255.6831000000001097
 30
0.0
  0
VERTEX
  5
15E1
  8
SCAN
 10
463.3818999999999164
 20
-257.0749000000001274
 30
0.0
  0
SEQEND
  5
15E2
  8
SCAN
  0
POLYLINE
  5
30A
  8
SCAN
 66
     1
 10
0.0
 20
0.0
 30
0.0
 70
     1
  0
VERTEX
  5
15E3
  8
SCAN
 10
136.7013499999999055
 20
-288.9466499999999769
 30
0.0
  0
VERTEX
  5
15E4
  8
SCAN
 10
136.9796999999998945
 20
-288.8075000000000045
 30
0.0
  0
VERTEX
  5
15E5
  8
SCAN
 10
139.0673999999999069
 20
-282.8228500000000167
 30
0.0
  0
VERTEX
  5
15E6
  8
SCAN
 10
140.3199999999999079
 20
-277.1165499999999042
 30
0.0
  0
VERTEX
  5
15E7
  8
SCAN
 10
140.8766999999998859
 20
-272.5236499999999751
 30
0.0
  0
VERTEX
  5
15E8
  8
SCAN
 10
141.1550499999999033
 20
-272.2453000000000998
 30
0.0
  0
VERTEX
  5
15E9
  8
SCAN
 10
144.4953499999998883
 20
-272.6628499999999917
 30
0.0
  0
VERTEX
  5
15EA
  8
SCAN
 10
145.8870999999998901
 20
-273.2195500000000266
 30
0.0
  0
VERTEX
  5
15EB
  8
SCAN
 10
146.1654499999999075
 20
-273.0803499999998962
 30
0.0
  0
VERTEX
  5
15EC
  8
SCAN
 10
145.6087499999999011
 20
-270.1576000000000022
 30
0.0
  0
VERTEX
  5
15ED
  8
SCAN
 10
143.7994499999998936
 20
-267.5132500000000277
 30
0.0
  0
VERTEX
  5
15EE
  8
SCAN
 10
142.4076499999999044
 20
-266.3998000000000275
 30
0.0
  0
VERTEX
  5
15EF
  8
SCAN
 10
141.7117499999999097
 20
-268.069949999999892
 30
0.0
  0
VERTEX
  5
15F0
  8
SCAN
 10
141.2942499999998915
 20
-268.4874999999998977
 30
0.0
  0
VERTEX
  5
15F1
  8
SCAN
 10
141.1550499999999033
 20
-268.3482999999999947
 30
0.0
  0
VERTEX
  5
15F2
  8
SCAN
 10
141.4333999999998923
 20
-266.2606499999998846
 30
0.0
  0
VERTEX
  5
15F3
  8
SCAN
 10
141.2942499999998915
 20
-262.6419999999998822
 30
0.0
  0
VERTEX
  5
15F4
  8
SCAN
 10
144.2169499999999118
 20
-262.5028499999999099
 30
0.0
  0
VERTEX
  5
15F5
  8
SCAN
 10
147.0005499999998904
 20
-262.9203499999999849
 30
0.0
  0
VERTEX
  5
15F6
  8
SCAN
 10
146.8613499999999021
 20
-261.1110499999999774
 30
0.0
  0
VERTEX
  5
15F7
  8
SCAN
 10
145.8870999999998901
 20
-258.3274999999999864
 30
0.0
  0
VERTEX
  5
15F8
  8
SCAN
 10
144.3561499999999
 20
-255.8223000000000127
 30
0.0
  0
VERTEX
  5
15F9
  8
SCAN
 10
141.1550499999999033
 20
-252.0644499999999084
 30
0.0
  0
VERTEX
  5
15FA
  8
SCAN
 10
142.5468499999998926
 20
-249.8375999999998953
 30
0.0
  0
VERTEX
  5
15FB
  8
SCAN
 10
143.381899999999888
 20
-246.7757000000000005
 30
0.0
  0
VERTEX
  5
15FC
  8
SCAN
 10
143.381899999999888
 20
-242.182850000000002
 30
0.0
  0
VERTEX
  5
15FD
  8
SCAN
 10
142.9643499999999108
 20
-240.0951499999999896
 30
0.0
  0
VERTEX
  5
15FE
  8
SCAN
 10
141.9900999999998987
 20
-237.7291500000000894
 30
0.0
  0
VERTEX
  5
15FF
  8
SCAN
 10
140.3199999999999079
 20
-235.6414499999999919
 30
0.0
  0
VERTEX
  5
1600
  8
SCAN
 10
140.8766999999998859
 20
-235.5022999999999911
 30
0.0
  0
VERTEX
  5
1601
  8
SCAN
 10
142.82519999999991
 20
-235.9198000000000945
 30
0.0
  0
VERTEX
  5
1602
  8
SCAN
 10
142.82519999999991
 20
-206.9707499999998959
 30
0.0
  0
VERTEX
  5
1603
  8
SCAN
 10
131.4125999999999124
 20
-205.0223000000000013
 30
0.0
  0
VERTEX
  5
1604
  8
SCAN
 10
131.4125999999999124
 20
-208.501749999999987
 30
0.0
  0
VERTEX
  5
1605
  8
SCAN
 10
131.1342500000000086
 20
-208.6408999999999878
 30
0.0
  0
VERTEX
  5
1606
  8
SCAN
 10
112.2059999999999036
 20
-205.3006499999999903
 30
0.0
  0
VERTEX
  5
1607
  8
SCAN
 10
109.4224499999998983
 20
-204.4655500000000075
 30
0.0
  0
VERTEX
  5
1608
  8
SCAN
 10
109.2832499999998959
 20
-200.2902499999999861
 30
0.0
  0
VERTEX
  5
1609
  8
SCAN
 10
99.8191499999999934
 20
-198.6201000000000079
 30
0.0
  0
VERTEX
  5
160A
  8
SCAN
 10
98.8448999999999529
 20
-201.403649999999999
 30
0.0
  0
VERTEX
  5
160B
  8
SCAN
 10
98.2881999999999607
 20
-204.6047499999999957
 30
0.0
  0
VERTEX
  5
160C
  8
SCAN
 10
98.5665499999999639
 20
-208.6408999999999878
 30
0.0
  0
VERTEX
  5
160D
  8
SCAN
 10
99.1232499999999561
 20
-210.4502500000000964
 30
0.0
  0
VERTEX
  5
160E
  8
SCAN
 10
99.8191499999999934
 20
-211.5636499999999955
 30
0.0
  0
VERTEX
  5
160F
  8
SCAN
 10
98.4273999999999916
 20
-216.5740499999999997
 30
0.0
  0
VERTEX
  5
1610
  8
SCAN
 10
98.4273999999999916
 20
-221.0277499999999975
 30
0.0
  0
VERTEX
  5
1611
  8
SCAN
 10
98.8448999999999529
 20
-222.8370999999999924
 30
0.0
  0
VERTEX
  5
1612
  8
SCAN
 10
100.0974999999998971
 20
-225.3422999999999945
 30
0.0
  0
VERTEX
  5
1613
  8
SCAN
 10
101.9068499999999062
 20
-227.151600000000002
 30
0.0
  0
VERTEX
  5
1614
  8
SCAN
 10
104.5511999999998949
 20
-228.682549999999992
 30
0.0
  0
VERTEX
  5
1615
  8
SCAN
 10
102.8810999999999041
 20
-229.3784499999999866
 30
0.0
  0
VERTEX
  5
1616
  8
SCAN
 10
101.4892999999999006
 20
-230.3526999999999987
 30
0.0
  0
VERTEX
  5
1617
  8
SCAN
 10
99.8191499999999934
 20
-232.4403499999999951
 30
0.0
  0
VERTEX
  5
1618
  8
SCAN
 10
99.1232499999999561
 20
-233.9713000000000989
 30
0.0
  0
VERTEX
  5
1619
  8
SCAN
 10
98.2881999999999607
 20
-238.5641999999999996
 30
0.0
  0
VERTEX
  5
161A
  8
SCAN
 10
98.2881999999999607
 20
-242.8787000000000091
 30
0.0
  0
VERTEX
  5
161B
  8
SCAN
 10
98.7057499999999663
 20
-247.6107499999999959
 30
0.0
  0
VERTEX
  5
161C
  8
SCAN
 10
98.9840999999999553
 20
-248.5850000000000932
 30
0.0
  0
VERTEX
  5
161D
  8
SCAN
 10
106.7780499999998938
 20
-249.8375999999998953
 30
0.0
  0
VERTEX
  5
161E
  8
SCAN
 10
106.9172499999998962
 20
-250.1160000000000139
 30
0.0
  0
VERTEX
  5
161F
  8
SCAN
 10
104.1336999999999051
 20
-252.7603499999999883
 30
0.0
  0
VERTEX
  5
1620
  8
SCAN
 10
101.3500999999998982
 20
-256.2397999999998888
 30
0.0
  0
VERTEX
  5
1621
  8
SCAN
 10
98.8448999999999529
 20
-260.2759999999998968
 30
0.0
  0
VERTEX
  5
1622
  8
SCAN
 10
96.2005499999999643
 20
-266.1214499999999816
 30
0.0
  0
VERTEX
  5
1623
  8
SCAN
 10
98.0098499999999859
 20
-270.018449999999973
 30
0.0
  0
VERTEX
  5
1624
  8
SCAN
 10
100.375899999999902
 20
-274.1938000000000102
 30
0.0
  0
VERTEX
  5
1625
  8
SCAN
 10
104.6903999999998973
 20
-279.900100000000009
 30
0.0
  0
VERTEX
  5
1626
  8
SCAN
 10
107.4739499999999026
 20
-282.5444499999999834
 30
0.0
  0
VERTEX
  5
1627
  8
SCAN
 10
110.2574999999998937
 20
-284.4929500000000075
 30
0.0
  0
VERTEX
  5
1628
  8
SCAN
 10
112.9018999999998982
 20
-285.6064000000000078
 30
0.0
  0
VERTEX
  5
1629
  8
SCAN
 10
115.1287499999998971
 20
-285.8847499999998831
 30
0.0
  0
VERTEX
  5
162A
  8
SCAN
 10
113.7369499999998936
 20
-285.4671999999999912
 30
0.0
  0
VERTEX
  5
162B
  8
SCAN
 10
110.5358999999998986
 20
-283.6578999999999837
 30
0.0
  0
VERTEX
  5
162C
  8
SCAN
 10
108.4481999999999005
 20
-281.9877500000000055
 30
0.0
  0
VERTEX
  5
162D
  8
SCAN
 10
105.9429999999998984
 20
-279.4825499999998897
 30
0.0
  0
VERTEX
  5
162E
  8
SCAN
 10
102.1851999999998952
 20
-274.4721499999998855
 30
0.0
  0
VERTEX
  5
162F
  8
SCAN
 10
100.2366999999998995
 20
-271.1318499999999858
 30
0.0
  0
VERTEX
  5
1630
  8
SCAN
 10
97.8706499999999551
 20
-266.1214499999999816
 30
0.0
  0
VERTEX
  5
1631
  8
SCAN
 10
100.6542499999999052
 20
-264.1729500000000144
 30
0.0
  0
VERTEX
  5
1632
  8
SCAN
 10
103.1594499999998931
 20
-262.9203499999999849
 30
0.0
  0
VERTEX
  5
1633
  8
SCAN
 10
106.7780499999998938
 20
-261.6677500000000123
 30
0.0
  0
VERTEX
  5
1634
  8
SCAN
 10
110.9533999999999025
 20
-260.9718500000000176
 30
0.0
  0
VERTEX
  5
1635
  8
SCAN
 10
115.6854499999999035
 20
-261.1110499999999774
 30
0.0
  0
VERTEX
  5
1636
  8
SCAN
 10
119.7216499999998973
 20
-262.2244499999999903
 30
0.0
  0
VERTEX
  5
1637
  8
SCAN
 10
122.5051999999999026
 20
-263.8946000000000254
 30
0.0
  0
VERTEX
  5
1638
  8
SCAN
 10
124.7320499999999015
 20
-266.2606499999998846
 30
0.0
  0
VERTEX
  5
1639
  8
SCAN
 10
126.5413499999998947
 20
-269.8792500000000132
 30
0.0
  0
VERTEX
  5
163A
  8
SCAN
 10
126.6805499999998972
 20
-267.3740500000000111
 30
0.0
  0
VERTEX
  5
163B
  8
SCAN
 10
126.1237999999999033
 20
-265.0080500000000256
 30
0.0
  0
VERTEX
  5
163C
  8
SCAN
 10
124.8711999999999023
 20
-262.7812000000000126
 30
0.0
  0
VERTEX
  5
163D
  8
SCAN
 10
122.3659999999999997
 20
-260.4151499999999828
 30
0.0
  0
VERTEX
  5
163E
  8
SCAN
 10
119.7216499999998973
 20
-259.0234000000000947
 30
0.0
  0
VERTEX
  5
163F
  8
SCAN
 10
116.6596999999999014
 20
-258.1883000000000266
 30
0.0
  0
VERTEX
  5
1640
  8
SCAN
 10
112.7627499999998975
 20
-258.0491499999999974
 30
0.0
  0
VERTEX
  5
1641
  8
SCAN
 10
109.8399999999999039
 20
-258.6058499999999754
 30
0.0
  0
VERTEX
  5
1642
  8
SCAN
 10
109.1440999999998951
 20
-258.4666499999999019
 30
0.0
  0
VERTEX
  5
1643
  8
SCAN
 10
111.6492999999998972
 20
-256.6573500000000081
 30
0.0
  0
VERTEX
  5
1644
  8
SCAN
 10
114.0153499999998985
 20
-255.404750000000007
 30
0.0
  0
VERTEX
  5
1645
  8
SCAN
 10
118.0514999999999048
 20
-254.152150000000006
 30
0.0
  0
VERTEX
  5
1646
  8
SCAN
 10
122.6443499999999034
 20
-254.152150000000006
 30
0.0
  0
VERTEX
  5
1647
  8
SCAN
 10
124.7320499999999015
 20
-254.7088500000000124
 30
0.0
  0
VERTEX
  5
1648
  8
SCAN
 10
126.5413499999998947
 20
-255.5439000000000078
 30
0.0
  0
VERTEX
  5
1649
  8
SCAN
 10
128.2114999999998872
 20
-256.6573500000000081
 30
0.0
  0
VERTEX
  5
164A
  8
SCAN
 10
130.2991499999999121
 20
-258.7450000000000045
 30
0.0
  0
VERTEX
  5
164B
  8
SCAN
 10
131.6909499999999014
 20
-261.1110499999999774
 30
0.0
  0
VERTEX
  5
164C
  8
SCAN
 10
131.9692999999998904
 20
-261.9461000000000013
 30
0.0
  0
VERTEX
  5
164D
  8
SCAN
 10
131.8300999999999021
 20
-262.2244499999999903
 30
0.0
  0
VERTEX
  5
164E
  8
SCAN
 10
129.1857499999998993
 20
-259.3017500000000268
 30
0.0
  0
VERTEX
  5
164F
  8
SCAN
 10
126.5413499999998947
 20
-257.6316000000001054
 30
0.0
  0
VERTEX
  5
1650
  8
SCAN
 10
122.5051999999999026
 20
-256.3790000000000191
 30
0.0
  0
VERTEX
  5
1651
  8
SCAN
 10
118.8865499999999997
 20
-256.2397999999998888
 30
0.0
  0
VERTEX
  5
1652
  8
SCAN
 10
121.9484999999998962
 20
-257.2140499999998724
 30
0.0
  0
VERTEX
  5
1653
  8
SCAN
 10
124.5928499999998991
 20
-258.8842000000000212
 30
0.0
  0
VERTEX
  5
1654
  8
SCAN
 10
126.402199999999894
 20
-260.6934999999999718
 30
0.0
  0
VERTEX
  5
1655
  8
SCAN
 10
127.3763999999999044
 20
-262.0853000000000179
 30
0.0
  0
VERTEX
  5
1656
  8
SCAN
 10
128.7681999999998936
 20
-265.425549999999987
 30
0.0
  0
VERTEX
  5
1657
  8
SCAN
 10
129.3248999999999
 20
-268.9049999999999727
 30
0.0
  0
VERTEX
  5
1658
  8
SCAN
 10
129.0465499999999111
 20
-273.7762500000000045
 30
0.0
  0
VERTEX
  5
1659
  8
SCAN
 10
127.654799999999895
 20
-278.7866500000000087
 30
0.0
  0
VERTEX
  5
165A
  8
SCAN
 10
126.5413499999998947
 20
-281.0135000000000218
 30
0.0
  0
VERTEX
  5
165B
  8
SCAN
 10
125.8454499999999996
 20
-281.8485999999999763
 30
0.0
  0
VERTEX
  5
165C
  8
SCAN
 10
124.1753499999997956
 20
-281.9877500000000055
 30
0.0
  0
VERTEX
  5
165D
  8
SCAN
 10
122.5051999999999026
 20
-282.9619999999999891
 30
0.0
  0
VERTEX
  5
165E
  8
SCAN
 10
121.1133999999998991
 20
-281.7093999999999028
 30
0.0
  0
VERTEX
  5
165F
  8
SCAN
 10
120.8350499999998959
 20
-281.1526999999999816
 30
0.0
  0
VERTEX
  5
1660
  8
SCAN
 10
120.5566999999999069
 20
-278.7866500000000087
 30
0.0
  0
VERTEX
  5
1661
  8
SCAN
 10
121.5309499999999048
 20
-273.7762500000000045
 30
0.0
  0
VERTEX
  5
1662
  8
SCAN
 10
121.5309499999999048
 20
-270.8534999999998831
 30
0.0
  0
VERTEX
  5
1663
  8
SCAN
 10
121.1133999999998991
 20
-269.3225499999999784
 30
0.0
  0
VERTEX
  5
1664
  8
SCAN
 10
119.9999999999999005
 20
-267.3740500000000111
 30
0.0
  0
VERTEX
  5
1665
  8
SCAN
 10
117.9122999999999024
 20
-265.5647500000000036
 30
0.0
  0
VERTEX
  5
1666
  8
SCAN
 10
116.102999999999895
 20
-264.868850000000009
 30
0.0
  0
VERTEX
  5
1667
  8
SCAN
 10
114.4328499999999025
 20
-264.59050000000002
 30
0.0
  0
VERTEX
  5
1668
  8
SCAN
 10
111.2317499999999058
 20
-264.59050000000002
 30
0.0
  0
VERTEX
  5
1669
  8
SCAN
 10
109.5616499999999007
 20
-264.868850000000009
 30
0.0
  0
VERTEX
  5
166A
  8
SCAN
 10
107.056399999999897
 20
-265.703899999999976
 30
0.0
  0
VERTEX
  5
166B
  8
SCAN
 10
105.2470999999999037
 20
-266.6781499999999028
 30
0.0
  0
VERTEX
  5
166C
  8
SCAN
 10
103.4377999999998963
 20
-268.069949999999892
 30
0.0
  0
VERTEX
  5
166D
  8
SCAN
 10
102.4635499999998984
 20
-269.3225499999999784
 30
0.0
  0
VERTEX
  5
166E
  8
SCAN
 10
106.638899999999893
 20
-268.4874999999998977
 30
0.0
  0
VERTEX
  5
166F
  8
SCAN
 10
109.8399999999999039
 20
-268.3482999999999947
 30
0.0
  0
VERTEX
  5
1670
  8
SCAN
 10
109.9791499999999047
 20
-268.4874999999998977
 30
0.0
  0
VERTEX
  5
1671
  8
SCAN
 10
108.3090499999998997
 20
-270.2968000000000188
 30
0.0
  0
VERTEX
  5
1672
  8
SCAN
 10
106.9172499999998962
 20
-272.3844500000000153
 30
0.0
  0
VERTEX
  5
1673
  8
SCAN
 10
105.9429999999998984
 20
-274.8896999999998911
 30
0.0
  0
VERTEX
  5
1674
  8
SCAN
 10
109.0048999999999069
 20
-272.8020000000000209
 30
0.0
  0
VERTEX
  5
1675
  8
SCAN
 10
112.2059999999999036
 20
-271.1318499999999858
 30
0.0
  0
VERTEX
  5
1676
  8
SCAN
 10
112.345199999999906
 20
-271.2710500000000025
 30
0.0
  0
VERTEX
  5
1677
  8
SCAN
 10
111.2317499999999058
 20
-273.2195500000000266
 30
0.0
  0
VERTEX
  5
1678
  8
SCAN
 10
110.1183499999998929
 20
-276.9773500000000013
 30
0.0
  0
VERTEX
  5
1679
  8
SCAN
 10
110.1183499999998929
 20
-279.4825499999998897
 30
0.0
  0
VERTEX
  5
167A
  8
SCAN
 10
111.6492999999998972
 20
-277.1165499999999042
 30
0.0
  0
VERTEX
  5
167B
  8
SCAN
 10
113.3194499999999039
 20
-275.4463999999999828
 30
0.0
  0
VERTEX
  5
167C
  8
SCAN
 10
115.1287499999998971
 20
-274.4721499999998855
 30
0.0
  0
VERTEX
  5
167D
  8
SCAN
 10
117.077249999999907
 20
-274.3329499999999825
 30
0.0
  0
VERTEX
  5
167E
  8
SCAN
 10
117.355599999999896
 20
-274.7504999999999882
 30
0.0
  0
VERTEX
  5
167F
  8
SCAN
 10
117.355599999999896
 20
-279.7608999999999924
 30
0.0
  0
VERTEX
  5
1680
  8
SCAN
 10
118.1906499999999056
 20
-281.9877500000000055
 30
0.0
  0
VERTEX
  5
1681
  8
SCAN
 10
120.4174999999999045
 20
-284.3537999999999784
 30
0.0
  0
VERTEX
  5
1682
  8
SCAN
 10
123.2010999999998972
 20
-286.1630999999999858
 30
0.0
  0
VERTEX
  5
1683
  8
SCAN
 10
124.8711999999999023
 20
-286.7198000000000206
 30
0.0
  0
VERTEX
  5
1684
  8
SCAN
 10
125.7062999999998993
 20
-286.7198000000000206
 30
0.0
  0
VERTEX
  5
1685
  8
SCAN
 10
126.9588999999999004
 20
-285.3280500000000188
 30
0.0
  0
VERTEX
  5
1686
  8
SCAN
 10
128.7681999999998936
 20
-282.4053000000000111
 30
0.0
  0
VERTEX
  5
1687
  8
SCAN
 10
130.2991499999999121
 20
-279.2042000000000144
 30
0.0
  0
VERTEX
  5
1688
  8
SCAN
 10
131.4125999999999124
 20
-277.9515999999999849
 30
0.0
  0
VERTEX
  5
1689
  8
SCAN
 10
132.6651999999999134
 20
-277.3949000000000069
 30
0.0
  0
VERTEX
  5
168A
  8
SCAN
 10
134.0569499999998868
 20
-277.3949000000000069
 30
0.0
  0
VERTEX
  5
168B
  8
SCAN
 10
135.5879499999998927
 20
-278.2299499999999739
 30
0.0
  0
VERTEX
  5
168C
  8
SCAN
 10
135.4487499999999045
 20
-277.5340499999999793
 30
0.0
  0
VERTEX
  5
168D
  8
SCAN
 10
134.4744999999998925
 20
-276.4206500000000233
 30
0.0
  0
VERTEX
  5
168E
  8
SCAN
 10
136.4229999999998881
 20
-275.585550000000012
 30
0.0
  0
VERTEX
  5
168F
  8
SCAN
 10
139.2065499999999076
 20
-272.8020000000000209
 30
0.0
  0
VERTEX
  5
1690
  8
SCAN
 10
139.3457500000000095
 20
-273.2195500000000266
 30
0.0
  0
VERTEX
  5
1691
  8
SCAN
 10
137.9539499999999066
 20
-280.8743500000001063
 30
0.0
  0
VERTEX
  5
1692
  8
SCAN
 10
136.7013499999999055
 20
-285.049699999999973
 30
0.0
  0
VERTEX
  5
1693
  8
SCAN
 10
135.8662999999999101
 20
-286.8590000000000941
 30
0.0
  0
VERTEX
  5
1694
  8
SCAN
 10
135.3095499999998879
 20
-287.2765499999999861
 30
0.0
  0
VERTEX
  5
1695
  8
SCAN
 10
133.3610999999999081
 20
-287.8332500000000209
 30
0.0
  0
VERTEX
  5
1696
  8
SCAN
 10
129.1857499999998993
 20
-288.2507499999999823
 30
0.0
  0
VERTEX
  5
1697
  8
SCAN
 10
131.9692999999998904
 20
-288.8075000000000045
 30
0.0
  0
SEQEND
  5
1698
  8
SCAN
  0
POLYLINE
  5
30B
  8
SCAN
 66
     1
 10
0.0
 20
0.0
 30
0.0
 70
     1
  0
VERTEX
  5
1699
  8
SCAN
 10
136.7013499999999055
 20
-288.9466499999999769
 30
0.0
  0
VERTEX
  5
169A
  8
SCAN
 10
136.9796999999998945
 20
-288.8075000000000045
 30
0.0
  0
VERTEX
  5
169B
  8
SCAN
 10
137.536399999999901
 20
-287.5548999999999751
 30
0.0
  0
VERTEX
  5
169C
  8
SCAN
 10
139.0673999999999069
 20
-282.8228500000000167
 30
0.0
  0
VERTEX
  5
169D
  8
SCAN
 10
140.3199999999999079
 20
-277.1165499999999042
 30
0.0
  0
VERTEX
  5
169E
  8
SCAN
 10
140.8766999999998859
 20
-272.5236499999999751
 30
0.0
  0
VERTEX
  5
169F
  8
SCAN
 10
141.1550499999999033
 20
-272.2453000000000998
 30
0.0
  0
VERTEX
  5
16A0
  8
SCAN
 10
141.9900999999998987
 20
-272.2453000000000998
 30
0.0
  0
VERTEX
  5
16A1
  8
SCAN
 10
144.4953499999998883
 20
-272.6628499999999917
 30
0.0
  0
VERTEX
  5
16A2
  8
SCAN
 10
145.8870999999998901
 20
-273.2195500000000266
 30
0.0
  0
VERTEX
  5
16A3
  8
SCAN
 10
146.1654499999999075
 20
-273.0803499999998962
 30
0.0
  0
VERTEX
  5
16A4
  8
SCAN
 10
146.0262999999999067
 20
-271.5493999999999915
 30
0.0
  0
VERTEX
  5
16A5
  8
SCAN
 10
145.6087499999999011
 20
-270.1576000000000022
 30
0.0
  0
VERTEX
  5
16A6
  8
SCAN
 10
143.7994499999998936
 20
-267.5132500000000277
 30
0.0
  0
VERTEX
  5
16A7
  8
SCAN
 10
142.4076499999999044
 20
-266.3998000000000275
 30
0.0
  0
VERTEX
  5
16A8
  8
SCAN
 10
141.7117499999999097
 20
-268.069949999999892
 30
0.0
  0
VERTEX
  5
16A9
  8
SCAN
 10
141.2942499999998915
 20
-268.4874999999998977
 30
0.0
  0
VERTEX
  5
16AA
  8
SCAN
 10
141.1550499999999033
 20
-268.3482999999999947
 30
0.0
  0
VERTEX
  5
16AB
  8
SCAN
 10
141.4333999999998923
 20
-266.2606499999998846
 30
0.0
  0
VERTEX
  5
16AC
  8
SCAN
 10
141.2942499999998915
 20
-262.6419999999998822
 30
0.0
  0
VERTEX
  5
16AD
  8
SCAN
 10
144.2169499999999118
 20
-262.5028499999999099
 30
0.0
  0
VERTEX
  5
16AE
  8
SCAN
 10
147.0005499999998904
 20
-262.9203499999999849
 30
0.0
  0
VERTEX
  5
16AF
  8
SCAN
 10
146.8613499999999021
 20
-261.1110499999999774
 30
0.0
  0
VERTEX
  5
16B0
  8
SCAN
 10
145.8870999999998901
 20
-258.3274999999999864
 30
0.0
  0
VERTEX
  5
16B1
  8
SCAN
 10
144.3561499999999
 20
-255.8223000000000127
 30
0.0
  0
VERTEX
  5
16B2
  8
SCAN
 10
141.1550499999999033
 20
-252.0644499999999084
 30
0.0
  0
VERTEX
  5
16B3
  8
SCAN
 10
142.5468499999998926
 20
-249.8375999999998953
 30
0.0
  0
VERTEX
  5
16B4
  8
SCAN
 10
143.381899999999888
 20
-246.7757000000000005
 30
0.0
  0
VERTEX
  5
16B5
  8
SCAN
 10
143.381899999999888
 20
-242.182850000000002
 30
0.0
  0
VERTEX
  5
16B6
  8
SCAN
 10
142.9643499999999108
 20
-240.0951499999999896
 30
0.0
  0
VERTEX
  5
16B7
  8
SCAN
 10
141.9900999999998987
 20
-237.7291500000000894
 30
0.0
  0
VERTEX
  5
16B8
  8
SCAN
 10
140.3199999999999079
 20
-235.6414499999999919
 30
0.0
  0
VERTEX
  5
16B9
  8
SCAN
 10
140.8766999999998859
 20
-235.5022999999999911
 30
0.0
  0
VERTEX
  5
16BA
  8
SCAN
 10
142.82519999999991
 20
-235.9198000000000945
 30
0.0
  0
VERTEX
  5
16BB
  8
SCAN
 10
142.82519999999991
 20
-206.9707499999998959
 30
0.0
  0
VERTEX
  5
16BC
  8
SCAN
 10
131.4125999999999124
 20
-205.0223000000000013
 30
0.0
  0
VERTEX
  5
16BD
  8
SCAN
 10
131.4125999999999124
 20
-208.501749999999987
 30
0.0
  0
VERTEX
  5
16BE
  8
SCAN
 10
131.1342500000000086
 20
-208.6408999999999878
 30
0.0
  0
VERTEX
  5
16BF
  8
SCAN
 10
110.2574999999998937
 20
-204.8831000000000131
 30
0.0
  0
VERTEX
  5
16C0
  8
SCAN
 10
109.4224499999998983
 20
-204.4655500000000075
 30
0.0
  0
VERTEX
  5
16C1
  8
SCAN
 10
109.2832499999998959
 20
-200.2902499999999861
 30
0.0
  0
VERTEX
  5
16C2
  8
SCAN
 10
99.8191499999999934
 20
-198.6201000000000079
 30
0.0
  0
VERTEX
  5
16C3
  8
SCAN
 10
98.8448999999999529
 20
-201.403649999999999
 30
0.0
  0
VERTEX
  5
16C4
  8
SCAN
 10
98.2881999999999607
 20
-204.6047499999999957
 30
0.0
  0
VERTEX
  5
16C5
  8
SCAN
 10
98.5665499999999639
 20
-208.6408999999999878
 30
0.0
  0
VERTEX
  5
16C6
  8
SCAN
 10
99.1232499999999561
 20
-210.4502500000000964
 30
0.0
  0
VERTEX
  5
16C7
  8
SCAN
 10
99.8191499999999934
 20
-211.5636499999999955
 30
0.0
  0
VERTEX
  5
16C8
  8
SCAN
 10
98.4273999999999916
 20
-216.5740499999999997
 30
0.0
  0
VERTEX
  5
16C9
  8
SCAN
 10
98.4273999999999916
 20
-221.0277499999999975
 30
0.0
  0
VERTEX
  5
16CA
  8
SCAN
 10
98.8448999999999529
 20
-222.8370999999999924
 30
0.0
  0
VERTEX
  5
16CB
  8
SCAN
 10
100.0974999999998971
 20
-225.3422999999999945
 30
0.0
  0
VERTEX
  5
16CC
  8
SCAN
 10
101.9068499999999062
 20
-227.151600000000002
 30
0.0
  0
VERTEX
  5
16CD
  8
SCAN
 10
104.5511999999998949
 20
-228.682549999999992
 30
0.0
  0
VERTEX
  5
16CE
  8
SCAN
 10
102.8810999999999041
 20
-229.3784499999999866
 30
0.0
  0
VERTEX
  5
16CF
  8
SCAN
 10
101.4892999999999006
 20
-230.3526999999999987
 30
0.0
  0
VERTEX
  5
16D0
  8
SCAN
 10
99.8191499999999934
 20
-232.4403499999999951
 30
0.0
  0
VERTEX
  5
16D1
  8
SCAN
 10
99.1232499999999561
 20
-233.9713000000000989
 30
0.0
  0
VERTEX
  5
16D2
  8
SCAN
 10
98.5665499999999639
 20
-236.198149999999913
 30
0.0
  0
VERTEX
  5
16D3
  8
SCAN
 10
98.2881999999999607
 20
-238.5641999999999996
 30
0.0
  0
VERTEX
  5
16D4
  8
SCAN
 10
98.2881999999999607
 20
-242.8787000000000091
 30
0.0
  0
VERTEX
  5
16D5
  8
SCAN
 10
98.7057499999999663
 20
-247.6107499999999959
 30
0.0
  0
VERTEX
  5
16D6
  8
SCAN
 10
98.9840999999999553
 20
-248.5850000000000932
 30
0.0
  0
VERTEX
  5
16D7
  8
SCAN
 10
106.7780499999998938
 20
-249.8375999999998953
 30
0.0
  0
VERTEX
  5
16D8
  8
SCAN
 10
106.9172499999998962
 20
-250.1160000000000139
 30
0.0
  0
VERTEX
  5
16D9
  8
SCAN
 10
104.1336999999999051
 20
-252.7603499999999883
 30
0.0
  0
VERTEX
  5
16DA
  8
SCAN
 10
101.3500999999998982
 20
-256.2397999999998888
 30
0.0
  0
VERTEX
  5
16DB
  8
SCAN
 10
98.8448999999999529
 20
-260.2759999999998968
 30
0.0
  0
VERTEX
  5
16DC
  8
SCAN
 10
96.2005499999999643
 20
-266.1214499999999816
 30
0.0
  0
VERTEX
  5
16DD
  8
SCAN
 10
98.0098499999999859
 20
-270.018449999999973
 30
0.0
  0
VERTEX
  5
16DE
  8
SCAN
 10
100.375899999999902
 20
-274.1938000000000102
 30
0.0
  0
VERTEX
  5
16DF
  8
SCAN
 10
103.0202499999999048
 20
-277.9515999999999849
 30
0.0
  0
VERTEX
  5
16E0
  8
SCAN
 10
104.6903999999998973
 20
-279.900100000000009
 30
0.0
  0
VERTEX
  5
16E1
  8
SCAN
 10
107.4739499999999026
 20
-282.5444499999999834
 30
0.0
  0
VERTEX
  5
16E2
  8
SCAN
 10
110.2574999999998937
 20
-284.4929500000000075
 30
0.0
  0
VERTEX
  5
16E3
  8
SCAN
 10
112.9018999999998982
 20
-285.6064000000000078
 30
0.0
  0
VERTEX
  5
16E4
  8
SCAN
 10
115.1287499999998971
 20
-285.8847499999998831
 30
0.0
  0
VERTEX
  5
16E5
  8
SCAN
 10
113.7369499999998936
 20
-285.4671999999999912
 30
0.0
  0
VERTEX
  5
16E6
  8
SCAN
 10
110.5358999999998986
 20
-283.6578999999999837
 30
0.0
  0
VERTEX
  5
16E7
  8
SCAN
 10
108.4481999999999005
 20
-281.9877500000000055
 30
0.0
  0
VERTEX
  5
16E8
  8
SCAN
 10
105.9429999999998984
 20
-279.4825499999998897
 30
0.0
  0
VERTEX
  5
16E9
  8
SCAN
 10
102.1851999999998952
 20
-274.4721499999998855
 30
0.0
  0
VERTEX
  5
16EA
  8
SCAN
 10
100.2366999999998995
 20
-271.1318499999999858
 30
0.0
  0
VERTEX
  5
16EB
  8
SCAN
 10
97.8706499999999551
 20
-266.1214499999999816
 30
0.0
  0
VERTEX
  5
16EC
  8
SCAN
 10
100.6542499999999052
 20
-264.1729500000000144
 30
0.0
  0
VERTEX
  5
16ED
  8
SCAN
 10
103.1594499999998931
 20
-262.9203499999999849
 30
0.0
  0
VERTEX
  5
16EE
  8
SCAN
 10
106.7780499999998938
 20
-261.6677500000000123
 30
0.0
  0
VERTEX
  5
16EF
  8
SCAN
 10
110.9533999999999025
 20
-260.9718500000000176
 30
0.0
  0
VERTEX
  5
16F0
  8
SCAN
 10
115.6854499999999035
 20
-261.1110499999999774
 30
0.0
  0
VERTEX
  5
16F1
  8
SCAN
 10
119.7216499999998973
 20
-262.2244499999999903
 30
0.0
  0
VERTEX
  5
16F2
  8
SCAN
 10
122.5051999999999026
 20
-263.8946000000000254
 30
0.0
  0
VERTEX
  5
16F3
  8
SCAN
 10
124.7320499999999015
 20
-266.2606499999998846
 30
0.0
  0
VERTEX
  5
16F4
  8
SCAN
 10
126.5413499999998947
 20
-269.8792500000000132
 30
0.0
  0
VERTEX
  5
16F5
  8
SCAN
 10
126.6805499999998972
 20
-267.3740500000000111
 30
0.0
  0
VERTEX
  5
16F6
  8
SCAN
 10
126.1237999999999033
 20
-265.0080500000000256
 30
0.0
  0
VERTEX
  5
16F7
  8
SCAN
 10
124.8711999999999023
 20
-262.7812000000000126
 30
0.0
  0
VERTEX
  5
16F8
  8
SCAN
 10
123.7577999999999037
 20
-261.5285999999999831
 30
0.0
  0
VERTEX
  5
16F9
  8
SCAN
 10
122.3659999999999997
 20
-260.4151499999999828
 30
0.0
  0
VERTEX
  5
16FA
  8
SCAN
 10
119.7216499999998973
 20
-259.0234000000000947
 30
0.0
  0
VERTEX
  5
16FB
  8
SCAN
 10
116.6596999999999014
 20
-258.1883000000000266
 30
0.0
  0
VERTEX
  5
16FC
  8
SCAN
 10
112.7627499999998975
 20
-258.0491499999999974
 30
0.0
  0
VERTEX
  5
16FD
  8
SCAN
 10
110.5358999999998986
 20
-258.3274999999999864
 30
0.0
  0
VERTEX
  5
16FE
  8
SCAN
 10
109.8399999999999039
 20
-258.6058499999999754
 30
0.0
  0
VERTEX
  5
16FF
  8
SCAN
 10
109.1440999999998951
 20
-258.4666499999999019
 30
0.0
  0
VERTEX
  5
1700
  8
SCAN
 10
111.6492999999998972
 20
-256.6573500000000081
 30
0.0
  0
VERTEX
  5
1701
  8
SCAN
 10
114.0153499999998985
 20
-255.404750000000007
 30
0.0
  0
VERTEX
  5
1702
  8
SCAN
 10
118.0514999999999048
 20
-254.152150000000006
 30
0.0
  0
VERTEX
  5
1703
  8
SCAN
 10
122.6443499999999034
 20
-254.152150000000006
 30
0.0
  0
VERTEX
  5
1704
  8
SCAN
 10
124.7320499999999015
 20
-254.7088500000000124
 30
0.0
  0
VERTEX
  5
1705
  8
SCAN
 10
126.5413499999998947
 20
-255.5439000000000078
 30
0.0
  0
VERTEX
  5
1706
  8
SCAN
 10
128.2114999999998872
 20
-256.6573500000000081
 30
0.0
  0
VERTEX
  5
1707
  8
SCAN
 10
130.2991499999999121
 20
-258.7450000000000045
 30
0.0
  0
VERTEX
  5
1708
  8
SCAN
 10
131.6909499999999014
 20
-261.1110499999999774
 30
0.0
  0
VERTEX
  5
1709
  8
SCAN
 10
131.9692999999998904
 20
-261.9461000000000013
 30
0.0
  0
VERTEX
  5
170A
  8
SCAN
 10
131.8300999999999021
 20
-262.2244499999999903
 30
0.0
  0
VERTEX
  5
170B
  8
SCAN
 10
129.1857499999998993
 20
-259.3017500000000268
 30
0.0
  0
VERTEX
  5
170C
  8
SCAN
 10
126.5413499999998947
 20
-257.6316000000001054
 30
0.0
  0
VERTEX
  5
170D
  8
SCAN
 10
122.5051999999999026
 20
-256.3790000000000191
 30
0.0
  0
VERTEX
  5
170E
  8
SCAN
 10
118.8865499999999997
 20
-256.2397999999998888
 30
0.0
  0
VERTEX
  5
170F
  8
SCAN
 10
121.9484999999998962
 20
-257.2140499999998724
 30
0.0
  0
VERTEX
  5
1710
  8
SCAN
 10
124.5928499999998991
 20
-258.8842000000000212
 30
0.0
  0
VERTEX
  5
1711
  8
SCAN
 10
126.402199999999894
 20
-260.6934999999999718
 30
0.0
  0
VERTEX
  5
1712
  8
SCAN
 10
127.3763999999999044
 20
-262.0853000000000179
 30
0.0
  0
VERTEX
  5
1713
  8
SCAN
 10
128.7681999999998936
 20
-265.425549999999987
 30
0.0
  0
VERTEX
  5
1714
  8
SCAN
 10
129.3248999999999
 20
-268.9049999999999727
 30
0.0
  0
VERTEX
  5
1715
  8
SCAN
 10
129.0465499999999111
 20
-273.7762500000000045
 30
0.0
  0
VERTEX
  5
1716
  8
SCAN
 10
127.654799999999895
 20
-278.7866500000000087
 30
0.0
  0
VERTEX
  5
1717
  8
SCAN
 10
126.5413499999998947
 20
-281.0135000000000218
 30
0.0
  0
VERTEX
  5
1718
  8
SCAN
 10
125.8454499999999996
 20
-281.8485999999999763
 30
0.0
  0
VERTEX
  5
1719
  8
SCAN
 10
124.1753499999997956
 20
-281.9877500000000055
 30
0.0
  0
VERTEX
  5
171A
  8
SCAN
 10
122.5051999999999026
 20
-282.9619999999999891
 30
0.0
  0
VERTEX
  5
171B
  8
SCAN
 10
121.1133999999998991
 20
-281.7093999999999028
 30
0.0
  0
VERTEX
  5
171C
  8
SCAN
 10
120.5566999999999069
 20
-280.0392499999999814
 30
0.0
  0
VERTEX
  5
171D
  8
SCAN
 10
120.5566999999999069
 20
-278.7866500000000087
 30
0.0
  0
VERTEX
  5
171E
  8
SCAN
 10
121.5309499999999048
 20
-273.7762500000000045
 30
0.0
  0
VERTEX
  5
171F
  8
SCAN
 10
121.5309499999999048
 20
-270.8534999999998831
 30
0.0
  0
VERTEX
  5
1720
  8
SCAN
 10
121.1133999999998991
 20
-269.3225499999999784
 30
0.0
  0
VERTEX
  5
1721
  8
SCAN
 10
119.9999999999999005
 20
-267.3740500000000111
 30
0.0
  0
VERTEX
  5
1722
  8
SCAN
 10
117.9122999999999024
 20
-265.5647500000000036
 30
0.0
  0
VERTEX
  5
1723
  8
SCAN
 10
116.102999999999895
 20
-264.868850000000009
 30
0.0
  0
VERTEX
  5
1724
  8
SCAN
 10
114.4328499999999025
 20
-264.59050000000002
 30
0.0
  0
VERTEX
  5
1725
  8
SCAN
 10
111.2317499999999058
 20
-264.59050000000002
 30
0.0
  0
VERTEX
  5
1726
  8
SCAN
 10
109.5616499999999007
 20
-264.868850000000009
 30
0.0
  0
VERTEX
  5
1727
  8
SCAN
 10
107.056399999999897
 20
-265.703899999999976
 30
0.0
  0
VERTEX
  5
1728
  8
SCAN
 10
105.2470999999999037
 20
-266.6781499999999028
 30
0.0
  0
VERTEX
  5
1729
  8
SCAN
 10
103.4377999999998963
 20
-268.069949999999892
 30
0.0
  0
VERTEX
  5
172A
  8
SCAN
 10
102.4635499999998984
 20
-269.3225499999999784
 30
0.0
  0
VERTEX
  5
172B
  8
SCAN
 10
106.638899999999893
 20
-268.4874999999998977
 30
0.0
  0
VERTEX
  5
172C
  8
SCAN
 10
109.8399999999999039
 20
-268.3482999999999947
 30
0.0
  0
VERTEX
  5
172D
  8
SCAN
 10
109.9791499999999047
 20
-268.4874999999998977
 30
0.0
  0
VERTEX
  5
172E
  8
SCAN
 10
108.3090499999998997
 20
-270.2968000000000188
 30
0.0
  0
VERTEX
  5
172F
  8
SCAN
 10
106.9172499999998962
 20
-272.3844500000000153
 30
0.0
  0
VERTEX
  5
1730
  8
SCAN
 10
105.9429999999998984
 20
-274.8896999999998911
 30
0.0
  0
VERTEX
  5
1731
  8
SCAN
 10
106.2213499999999016
 20
-274.8896999999998911
 30
0.0
  0
VERTEX
  5
1732
  8
SCAN
 10
109.0048999999999069
 20
-272.8020000000000209
 30
0.0
  0
VERTEX
  5
1733
  8
SCAN
 10
112.2059999999999036
 20
-271.1318499999999858
 30
0.0
  0
VERTEX
  5
1734
  8
SCAN
 10
112.345199999999906
 20
-271.2710500000000025
 30
0.0
  0
VERTEX
  5
1735
  8
SCAN
 10
111.2317499999999058
 20
-273.2195500000000266
 30
0.0
  0
VERTEX
  5
1736
  8
SCAN
 10
110.5358999999998986
 20
-275.1680499999999938
 30
0.0
  0
VERTEX
  5
1737
  8
SCAN
 10
110.1183499999998929
 20
-276.9773500000000013
 30
0.0
  0
VERTEX
  5
1738
  8
SCAN
 10
110.1183499999998929
 20
-279.4825499999998897
 30
0.0
  0
VERTEX
  5
1739
  8
SCAN
 10
111.6492999999998972
 20
-277.1165499999999042
 30
0.0
  0
VERTEX
  5
173A
  8
SCAN
 10
113.3194499999999039
 20
-275.4463999999999828
 30
0.0
  0
VERTEX
  5
173B
  8
SCAN
 10
115.1287499999998971
 20
-274.4721499999998855
 30
0.0
  0
VERTEX
  5
173C
  8
SCAN
 10
117.077249999999907
 20
-274.3329499999999825
 30
0.0
  0
VERTEX
  5
173D
  8
SCAN
 10
117.355599999999896
 20
-274.7504999999999882
 30
0.0
  0
VERTEX
  5
173E
  8
SCAN
 10
117.355599999999896
 20
-279.7608999999999924
 30
0.0
  0
VERTEX
  5
173F
  8
SCAN
 10
118.1906499999999056
 20
-281.9877500000000055
 30
0.0
  0
VERTEX
  5
1740
  8
SCAN
 10
120.4174999999999045
 20
-284.3537999999999784
 30
0.0
  0
VERTEX
  5
1741
  8
SCAN
 10
123.2010999999998972
 20
-286.1630999999999858
 30
0.0
  0
VERTEX
  5
1742
  8
SCAN
 10
124.8711999999999023
 20
-286.7198000000000206
 30
0.0
  0
VERTEX
  5
1743
  8
SCAN
 10
125.7062999999998993
 20
-286.7198000000000206
 30
0.0
  0
VERTEX
  5
1744
  8
SCAN
 10
126.9588999999999004
 20
-285.3280500000000188
 30
0.0
  0
VERTEX
  5
1745
  8
SCAN
 10
128.7681999999998936
 20
-282.4053000000000111
 30
0.0
  0
VERTEX
  5
1746
  8
SCAN
 10
130.2991499999999121
 20
-279.2042000000000144
 30
0.0
  0
VERTEX
  5
1747
  8
SCAN
 10
131.4125999999999124
 20
-277.9515999999999849
 30
0.0
  0
VERTEX
  5
1748
  8
SCAN
 10
132.6651999999999134
 20
-277.3949000000000069
 30
0.0
  0
VERTEX
  5
1749
  8
SCAN
 10
134.0569499999998868
 20
-277.3949000000000069
 30
0.0
  0
VERTEX
  5
174A
  8
SCAN
 10
135.5879499999998927
 20
-278.2299499999999739
 30
0.0
  0
VERTEX
  5
174B
  8
SCAN
 10
135.4487499999999045
 20
-277.5340499999999793
 30
0.0
  0
VERTEX
  5
174C
  8
SCAN
 10
134.4744999999998925
 20
-276.4206500000000233
 30
0.0
  0
VERTEX
  5
174D
  8
SCAN
 10
136.4229999999998881
 20
-275.585550000000012
 30
0.0
  0
VERTEX
  5
174E
  8
SCAN
 10
139.2065499999999076
 20
-272.8020000000000209
 30
0.0
  0
VERTEX
  5
174F
  8
SCAN
 10
139.3457500000000095
 20
-273.2195500000000266
 30
0.0
  0
VERTEX
  5
1750
  8
SCAN
 10
138.9281999999998902
 20
-276.1422999999999774
 30
0.0
  0
VERTEX
  5
1751
  8
SCAN
 10
137.9539499999999066
 20
-280.8743500000001063
 30
0.0
  0
VERTEX
  5
1752
  8
SCAN
 10
136.7013499999999055
 20
-285.049699999999973
 30
0.0
  0
VERTEX
  5
1753
  8
SCAN
 10
135.8662999999999101
 20
-286.8590000000000941
 30
0.0
  0
VERTEX
  5
1754
  8
SCAN
 10
135.3095499999998879
 20
-287.2765499999999861
 30
0.0
  0
VERTEX
  5
1755
  8
SCAN
 10
133.3610999999999081
 20
-287.8332500000000209
 30
0.0
  0
VERTEX
  5
1756
  8
SCAN
 10
130.855899999999906
 20
-288.2507499999999823
 30
0.0
  0
VERTEX
  5
1757
  8
SCAN
 10
129.1857499999998993
 20
-288.2507499999999823
 30
0.0
  0
VERTEX
  5
1758
  8
SCAN
 10
131.9692999999998904
 20
-288.8075000000000045
 30
0.0
  0
SEQEND
  5
1759
  8
SCAN
  0
POLYLINE
  5
30C
  8
SCAN
 66
     1
 10
0.0
 20
0.0
 30
0.0
 70
     1
  0
VERTEX
  5
175A
  8
SCAN
 10
133.0827499999998906
 20
-270.4359999999999786
 30
0.0
  0
VERTEX
  5
175B
  8
SCAN
 10
133.3610999999999081
 20
-271.2710500000000025
 30
0.0
  0
VERTEX
  5
175C
  8
SCAN
 10
132.8043499999999142
 20
-271.5493999999999915
 30
0.0
  0
VERTEX
  5
175D
  8
SCAN
 10
132.5259999999998968
 20
-271.2710500000000025
 30
0.0
  0
VERTEX
  5
175E
  8
SCAN
 10
132.5259999999998968
 20
-270.7143500000000245
 30
0.0
  0
SEQEND
  5
175F
  8
SCAN
  0
POLYLINE
  5
30D
  8
SCAN
 66
     1
 10
0.0
 20
0.0
 30
0.0
 70
     1
  0
VERTEX
  5
1760
  8
SCAN
 10
133.2218999999998914
 20
-267.9307499999999891
 30
0.0
  0
VERTEX
  5
1761
  8
SCAN
 10
133.3610999999999081
 20
-269.0441999999999894
 30
0.0
  0
VERTEX
  5
1762
  8
SCAN
 10
132.108499999999907
 20
-269.8792500000000132
 30
0.0
  0
VERTEX
  5
1763
  8
SCAN
 10
131.6909499999999014
 20
-271.2710500000000025
 30
0.0
  0
VERTEX
  5
1764
  8
SCAN
 10
131.2734000000000094
 20
-270.5751500000000078
 30
0.0
  0
VERTEX
  5
1765
  8
SCAN
 10
131.4125999999999124
 20
-269.183400000000006
 30
0.0
  0
VERTEX
  5
1766
  8
SCAN
 10
132.6651999999999134
 20
-267.9307499999999891
 30
0.0
  0
SEQEND
  5
1767
  8
SCAN
  0
POLYLINE
  5
30E
  8
SCAN
 66
     1
 10
0.0
 20
0.0
 30
0.0
 70
     1
  0
VERTEX
  5
1768
  8
SCAN
 10
136.1446499999998991
 20
-264.4512999999998897
 30
0.0
  0
VERTEX
  5
1769
  8
SCAN
 10
136.2837999999997862
 20
-270.7143500000000245
 30
0.0
  0
VERTEX
  5
176A
  8
SCAN
 10
136.0054499999999109
 20
-272.1061000000000263
 30
0.0
  0
VERTEX
  5
176B
  8
SCAN
 10
135.4487499999999045
 20
-273.2195500000000266
 30
0.0
  0
VERTEX
  5
176C
  8
SCAN
 10
134.7528499999999099
 20
-273.9154500000000212
 30
0.0
  0
VERTEX
  5
176D
  8
SCAN
 10
134.0569499999998868
 20
-274.3329499999999825
 30
0.0
  0
VERTEX
  5
176E
  8
SCAN
 10
133.2218999999998914
 20
-274.4721499999998855
 30
0.0
  0
VERTEX
  5
176F
  8
SCAN
 10
133.0827499999998906
 20
-274.3329499999999825
 30
0.0
  0
VERTEX
  5
1770
  8
SCAN
 10
133.7785999999998978
 20
-273.7762500000000045
 30
0.0
  0
VERTEX
  5
1771
  8
SCAN
 10
134.6136999999999091
 20
-272.1061000000000263
 30
0.0
  0
VERTEX
  5
1772
  8
SCAN
 10
134.7528499999999099
 20
-267.3740500000000111
 30
0.0
  0
VERTEX
  5
1773
  8
SCAN
 10
135.3095499999998879
 20
-265.2864000000000146
 30
0.0
  0
SEQEND
  5
1774
  8
SCAN
  0
POLYLINE
  5
30F
  8
SCAN
 66
     1
 10
0.0
 20
0.0
 30
0.0
 70
     1
  0
VERTEX
  5
1775
  8
SCAN
 10
140.1807999999998913
 20
-232.5795500000000118
 30
0.0
  0
VERTEX
  5
1776
  8
SCAN
 10
138.7890499999998895
 20
-232.5795500000000118
 30
0.0
  0
VERTEX
  5
1777
  8
SCAN
 10
108.5873999999999029
 20
-227.151600000000002
 30
0.0
  0
VERTEX
  5
1778
  8
SCAN
 10
105.5254499999999069
 20
-226.1773499999999899
 30
0.0
  0
VERTEX
  5
1779
  8
SCAN
 10
103.576949999999897
 20
-225.0638999999999896
 30
0.0
  0
VERTEX
  5
177A
  8
SCAN
 10
102.1851999999998952
 20
-223.6721499999999878
 30
0.0
  0
VERTEX
  5
177B
  8
SCAN
 10
101.4892999999999006
 20
-222.4195499999999868
 30
0.0
  0
VERTEX
  5
177C
  8
SCAN
 10
100.9325999999997947
 20
-220.0535000000000139
 30
0.0
  0
VERTEX
  5
177D
  8
SCAN
 10
100.9325999999997947
 20
-217.5483000000000118
 30
0.0
  0
VERTEX
  5
177E
  8
SCAN
 10
101.4892999999999006
 20
-214.903899999999993
 30
0.0
  0
VERTEX
  5
177F
  8
SCAN
 10
101.9068499999999062
 20
-214.7647499999999923
 30
0.0
  0
VERTEX
  5
1780
  8
SCAN
 10
106.4996999999999048
 20
-215.5997999999999877
 30
0.0
  0
VERTEX
  5
1781
  8
SCAN
 10
106.7780499999998938
 20
-218.1049999999999898
 30
0.0
  0
VERTEX
  5
1782
  8
SCAN
 10
107.1955999999998994
 20
-219.0792500000000018
 30
0.0
  0
VERTEX
  5
1783
  8
SCAN
 10
108.5873999999999029
 20
-220.1926999999998884
 30
0.0
  0
VERTEX
  5
1784
  8
SCAN
 10
111.6492999999998972
 20
-221.0277499999999975
 30
0.0
  0
VERTEX
  5
1785
  8
SCAN
 10
134.0569499999998868
 20
-224.9247499999999889
 30
0.0
  0
VERTEX
  5
1786
  8
SCAN
 10
134.1961499999999035
 20
-221.3060999999999865
 30
0.0
  0
VERTEX
  5
1787
  8
SCAN
 10
140.0416499999998905
 20
-222.2803499999999985
 30
0.0
  0
SEQEND
  5
1788
  8
SCAN
  0
POLYLINE
  5
310
  8
SCAN
 66
     1
 10
0.0
 20
0.0
 30
0.0
 70
     1
  0
VERTEX
  5
1789
  8
SCAN
 10
140.1807999999998913
 20
-219.4968000000000075
 30
0.0
  0
VERTEX
  5
178A
  8
SCAN
 10
140.0416499999998905
 20
-219.6359999999999957
 30
0.0
  0
VERTEX
  5
178B
  8
SCAN
 10
111.6492999999998972
 20
-214.625550000000004
 30
0.0
  0
VERTEX
  5
178C
  8
SCAN
 10
107.3347999999999018
 20
-213.651299999999992
 30
0.0
  0
VERTEX
  5
178D
  8
SCAN
 10
105.107949999999903
 20
-212.8162499999999966
 30
0.0
  0
VERTEX
  5
178E
  8
SCAN
 10
103.8553499999999019
 20
-212.120350000000002
 30
0.0
  0
VERTEX
  5
178F
  8
SCAN
 10
102.3243499999997965
 20
-210.7286000000000001
 30
0.0
  0
VERTEX
  5
1790
  8
SCAN
 10
101.7676499999999038
 20
-209.8934999999999889
 30
0.0
  0
VERTEX
  5
1791
  8
SCAN
 10
101.2109499999998974
 20
-208.3625499999999988
 30
0.0
  0
VERTEX
  5
1792
  8
SCAN
 10
100.9325999999997947
 20
-206.8316000000000088
 30
0.0
  0
VERTEX
  5
1793
  8
SCAN
 10
100.9325999999997947
 20
-204.3264000000000067
 30
0.0
  0
VERTEX
  5
1794
  8
SCAN
 10
101.4892999999999006
 20
-201.8212000000000899
 30
0.0
  0
VERTEX
  5
1795
  8
SCAN
 10
102.4635499999998984
 20
-201.6819999999999879
 30
0.0
  0
VERTEX
  5
1796
  8
SCAN
 10
106.360549999999904
 20
-202.377900000000011
 30
0.0
  0
VERTEX
  5
1797
  8
SCAN
 10
106.638899999999893
 20
-202.65625
 30
0.0
  0
VERTEX
  5
1798
  8
SCAN
 10
106.7780499999998938
 20
-204.8831000000000131
 30
0.0
  0
VERTEX
  5
1799
  8
SCAN
 10
107.056399999999897
 20
-205.7181500000000085
 30
0.0
  0
VERTEX
  5
179A
  8
SCAN
 10
107.613149999999905
 20
-206.4140500000000031
 30
0.0
  0
VERTEX
  5
179B
  8
SCAN
 10
108.7265499999999037
 20
-207.1099499999999978
 30
0.0
  0
VERTEX
  5
179C
  8
SCAN
 10
112.0668499999999028
 20
-207.9449999999999932
 30
0.0
  0
VERTEX
  5
179D
  8
SCAN
 10
119.9999999999999005
 20
-209.1975999999999942
 30
0.0
  0
VERTEX
  5
179E
  8
SCAN
 10
133.3610999999999081
 20
-211.7028500000000122
 30
0.0
  0
VERTEX
  5
179F
  8
SCAN
 10
134.0569499999998868
 20
-211.7028500000000122
 30
0.0
  0
VERTEX
  5
17A0
  8
SCAN
 10
134.1961499999999035
 20
-208.0842000000000098
 30
0.0
  0
VERTEX
  5
17A1
  8
SCAN
 10
140.0416499999998905
 20
-209.1975999999999942
 30
0.0
  0
SEQEND
  5
17A2
  8
SCAN
  0
POLYLINE
  5
311
  8
SCAN
 66
     1
 10
0.0
 20
0.0
 30
0.0
 70
     1
  0
VERTEX
  5
17A3
  8
SCAN
 10
140.4591499999999087
 20
-247.8891500000000008
 30
0.0
  0
VERTEX
  5
17A4
  8
SCAN
 10
139.7632499999999993
 20
-249.4200999999999908
 30
0.0
  0
VERTEX
  5
17A5
  8
SCAN
 10
138.9281999999998902
 20
-250.3943500000000029
 30
0.0
  0
VERTEX
  5
17A6
  8
SCAN
 10
137.258049999999912
 20
-251.3685999999999865
 30
0.0
  0
VERTEX
  5
17A7
  8
SCAN
 10
136.1446499999998991
 20
-251.6469499999998902
 30
0.0
  0
VERTEX
  5
17A8
  8
SCAN
 10
133.5002499999999088
 20
-251.7861000000000047
 30
0.0
  0
VERTEX
  5
17A9
  8
SCAN
 10
127.654799999999895
 20
-250.8118499999999926
 30
0.0
  0
VERTEX
  5
17AA
  8
SCAN
 10
127.5155999999999068
 20
-244.5488499999999874
 30
0.0
  0
VERTEX
  5
17AB
  8
SCAN
 10
128.2114999999998872
 20
-244.4096999999999866
 30
0.0
  0
VERTEX
  5
17AC
  8
SCAN
 10
132.2476499999999078
 20
-245.2447499999998968
 30
0.0
  0
VERTEX
  5
17AD
  8
SCAN
 10
134.7528499999999099
 20
-245.5230999999999995
 30
0.0
  0
VERTEX
  5
17AE
  8
SCAN
 10
135.0311999999998989
 20
-244.966399999999993
 30
0.0
  0
VERTEX
  5
17AF
  8
SCAN
 10
135.0311999999998989
 20
-243.2962499999999864
 30
0.0
  0
VERTEX
  5
17B0
  8
SCAN
 10
134.6136999999999091
 20
-242.6003499999999917
 30
0.0
  0
VERTEX
  5
17B1
  8
SCAN
 10
133.917799999999886
 20
-242.182850000000002
 30
0.0
  0
VERTEX
  5
17B2
  8
SCAN
 10
131.8300999999999021
 20
-241.6260999999998944
 30
0.0
  0
VERTEX
  5
17B3
  8
SCAN
 10
109.8399999999999039
 20
-237.868300000000005
 30
0.0
  0
VERTEX
  5
17B4
  8
SCAN
 10
108.0306499999998948
 20
-238.0074999999999932
 30
0.0
  0
VERTEX
  5
17B5
  8
SCAN
 10
107.613149999999905
 20
-238.2858500000000959
 30
0.0
  0
VERTEX
  5
17B6
  8
SCAN
 10
107.3347999999999018
 20
-238.8425499999999886
 30
0.0
  0
VERTEX
  5
17B7
  8
SCAN
 10
107.056399999999897
 20
-240.2343500000000063
 30
0.0
  0
VERTEX
  5
17B8
  8
SCAN
 10
107.056399999999897
 20
-247.0540499999999895
 30
0.0
  0
VERTEX
  5
17B9
  8
SCAN
 10
106.2213499999999016
 20
-247.1932500000000061
 30
0.0
  0
VERTEX
  5
17BA
  8
SCAN
 10
101.4892999999999006
 20
-246.3581499999999949
 30
0.0
  0
VERTEX
  5
17BB
  8
SCAN
 10
101.2109499999998974
 20
-246.0798000000000059
 30
0.0
  0
VERTEX
  5
17BC
  8
SCAN
 10
100.9325999999997947
 20
-243.2962499999999864
 30
0.0
  0
VERTEX
  5
17BD
  8
SCAN
 10
100.9325999999997947
 20
-238.2858500000000959
 30
0.0
  0
VERTEX
  5
17BE
  8
SCAN
 10
101.4892999999999006
 20
-235.223899999999901
 30
0.0
  0
VERTEX
  5
17BF
  8
SCAN
 10
102.3243499999997965
 20
-233.4146000000000072
 30
0.0
  0
VERTEX
  5
17C0
  8
SCAN
 10
103.4377999999998963
 20
-232.1620000000000061
 30
0.0
  0
VERTEX
  5
17C1
  8
SCAN
 10
104.5511999999998949
 20
-231.4661000000000115
 30
0.0
  0
VERTEX
  5
17C2
  8
SCAN
 10
106.638899999999893
 20
-230.9094000000000051
 30
0.0
  0
VERTEX
  5
17C3
  8
SCAN
 10
110.9533999999999025
 20
-231.0485999999999933
 30
0.0
  0
VERTEX
  5
17C4
  8
SCAN
 10
130.1599999999999113
 20
-234.3888499999999908
 30
0.0
  0
VERTEX
  5
17C5
  8
SCAN
 10
133.917799999999886
 20
-235.223899999999901
 30
0.0
  0
VERTEX
  5
17C6
  8
SCAN
 10
136.5621999999999048
 20
-236.198149999999913
 30
0.0
  0
VERTEX
  5
17C7
  8
SCAN
 10
138.0931499999998948
 20
-237.1724000000000103
 30
0.0
  0
VERTEX
  5
17C8
  8
SCAN
 10
139.0673999999999069
 20
-238.146649999999994
 30
0.0
  0
VERTEX
  5
17C9
  8
SCAN
 10
139.9024499999999023
 20
-239.399249999999995
 30
0.0
  0
VERTEX
  5
17CA
  8
SCAN
 10
140.5983499999998969
 20
-241.4869500000000073
 30
0.0
  0
VERTEX
  5
17CB
  8
SCAN
 10
140.8766999999998859
 20
-243.8529499999999928
 30
0.0
  0
VERTEX
  5
17CC
  8
SCAN
 10
140.7374999999998977
 20
-246.7757000000000005
 30
0.0
  0
SEQEND
  5
17CD
  8
SCAN
  0
POLYLINE
  5
312
  8
SCAN
 66
     1
 10
0.0
 20
0.0
 30
0.0
 70
     1
  0
VERTEX
  5
17CE
  8
SCAN
 10
144.2169499999999118
 20
-259.8584500000001185
 30
0.0
  0
VERTEX
  5
17CF
  8
SCAN
 10
143.7994499999998936
 20
-259.9975999999999772
 30
0.0
  0
VERTEX
  5
17D0
  8
SCAN
 10
141.7117499999999097
 20
-259.4409000000001129
 30
0.0
  0
VERTEX
  5
17D1
  8
SCAN
 10
139.6240999999999133
 20
-259.4409000000001129
 30
0.0
  0
VERTEX
  5
17D2
  8
SCAN
 10
138.3714999999999122
 20
-258.0491499999999974
 30
0.0
  0
VERTEX
  5
17D3
  8
SCAN
 10
141.0158999999999025
 20
-257.9099499999999807
 30
0.0
  0
VERTEX
  5
17D4
  8
SCAN
 10
140.4591499999999087
 20
-257.3532500000000027
 30
0.0
  0
VERTEX
  5
17D5
  8
SCAN
 10
138.510649999999913
 20
-256.2397999999998888
 30
0.0
  0
VERTEX
  5
17D6
  8
SCAN
 10
136.9796999999998945
 20
-255.8223000000000127
 30
0.0
  0
VERTEX
  5
17D7
  8
SCAN
 10
136.0054499999999109
 20
-255.8223000000000127
 30
0.0
  0
VERTEX
  5
17D8
  8
SCAN
 10
134.4744999999998925
 20
-254.430499999999995
 30
0.0
  0
VERTEX
  5
17D9
  8
SCAN
 10
136.9796999999998945
 20
-254.2913000000000068
 30
0.0
  0
VERTEX
  5
17DA
  8
SCAN
 10
138.7890499999998895
 20
-254.7088500000000124
 30
0.0
  0
VERTEX
  5
17DB
  8
SCAN
 10
140.3199999999999079
 20
-255.404750000000007
 30
0.0
  0
VERTEX
  5
17DC
  8
SCAN
 10
142.2684999999999036
 20
-256.9356999999999971
 30
0.0
  0
VERTEX
  5
17DD
  8
SCAN
 10
143.381899999999888
 20
-258.3274999999999864
 30
0.0
  0
SEQEND
  5
17DE
  8
SCAN
  0
LINE
  5
314
  8
SCAN
 10
480.0
 20
-149.2249999999999943
 30
0.0
 11
-0.0000000000000274
 21
-149.2249999999997954
 31
0.0
  0
POLYLINE
  5
110E
  8
CUT_2
 62
     3
 66
     1
 10
0.0
 20
0.0
 30
0.0
  0
VERTEX
  5
110F
  8
CUT_2
 62
     3
 10
347.4763677454864137
 20
-14.9288615825398701
 30
0.0
  0
VERTEX
  5
1110
  8
CUT_2
 62
     3
 10
349.9709157199696961
 20
-17.4234095570230885
 30
0.0
  0
VERTEX
  5
1111
  8
CUT_2
 62
     3
 10
349.9709157199696961
 20
-22.4904601301919911
 30
0.0
  0
VERTEX
  5
1112
  8
CUT_2
 62
     3
 10
347.4763677454864137
 20
-24.9850081046752202
 30
0.0
  0
VERTEX
  5
1113
  8
CUT_2
 62
     3
 10
344.9818197710033019
 20
-24.9850081046752202
 30
0.0
  0
VERTEX
  5
1114
  8
CUT_2
 62
     3
 10
342.48727179652019
 20
-22.4904601301919911
 30
0.0
  0
VERTEX
  5
1115
  8
CUT_2
 62
     3
 10
342.48727179652019
 20
-17.4234095570230885
 30
0.0
  0
VERTEX
  5
1116
  8
CUT_2
 62
     3
 10
339.9927238220370782
 20
-14.9288615825398701
 30
0.0
  0
VERTEX
  5
1117
  8
CUT_2
 62
     3
 10
335.0036278730706272
 20
-14.9288615825398701
 30
0.0
  0
VERTEX
  5
1118
  8
CUT_2
 62
     3
 10
335.0036278730706272
 20
-24.9850081046752202
 30
0.0
  0
SEQEND
  5
1119
  8
CUT_2
 62
     3
  0
POLYLINE
  5
111A
  8
CUT_2
 62
     3
 66
     1
 10
0.0
 20
0.0
 30
0.0
  0
VERTEX
  5
111B
  8
CUT_2
 62
     3
 10
337.4981758475536822
 20
-29.9741040536415504
 30
0.0
  0
VERTEX
  5
111C
  8
CUT_2
 62
     3
 10
335.0036278730706272
 20
-32.4686520281246729
 30
0.0
  0
VERTEX
  5
111D
  8
CUT_2
 62
     3
 10
335.0036278730706272
 20
-37.4577479770910031
 30
0.0
  0
VERTEX
  5
111E
  8
CUT_2
 62
     3
 10
337.4981758475536822
 20
-39.9522959515742286
 30
0.0
  0
VERTEX
  5
111F
  8
CUT_2
 62
     3
 10
342.48727179652019
 20
-39.9522959515742286
 30
0.0
  0
VERTEX
  5
1120
  8
CUT_2
 62
     3
 10
344.9818197710033019
 20
-37.4577479770910031
 30
0.0
  0
VERTEX
  5
1121
  8
CUT_2
 62
     3
 10
344.9818197710033019
 20
-29.9741040536415504
 30
0.0
  0
VERTEX
  5
1122
  8
CUT_2
 62
     3
 10
349.9709157199696961
 20
-29.9741040536415504
 30
0.0
  0
VERTEX
  5
1123
  8
CUT_2
 62
     3
 10
349.9709157199696961
 20
-39.9522959515742286
 30
0.0
  0
SEQEND
  5
1124
  8
CUT_2
 62
     3
  0
POLYLINE
  5
1125
  8
CUT_2
 62
     3
 66
     1
 10
0.0
 20
0.0
 30
0.0
  0
VERTEX
  5
1126
  8
CUT_2
 62
     3
 10
335.0036278730706272
 20
-59.9866343716421397
 30
0.0
  0
VERTEX
  5
1127
  8
CUT_2
 62
     3
 10
349.9709157199696961
 20
-59.9866343716421397
 30
0.0
  0
SEQEND
  5
1128
  8
CUT_2
 62
     3
  0
POLYLINE
  5
1129
  8
CUT_2
 62
     3
 66
     1
 10
0.0
 20
0.0
 30
0.0
  0
VERTEX
  5
112A
  8
CUT_2
 62
     3
 10
349.9709157199696961
 20
-69.9648262695749281
 30
0.0
  0
VERTEX
  5
112B
  8
CUT_2
 62
     3
 10
342.48727179652019
 20
-62.4811823461253724
 30
0.0
  0
VERTEX
  5
112C
  8
CUT_2
 62
     3
 10
342.48727179652019
 20
-59.9866343716421397
 30
0.0
  0
SEQEND
  5
112D
  8
CUT_2
 62
     3
  0
POLYLINE
  5
112E
  8
CUT_2
 62
     3
 66
     1
 10
0.0
 20
0.0
 30
0.0
  0
VERTEX
  5
112F
  8
CUT_2
 62
     3
 10
342.48727179652019
 20
-62.4811823461253724
 30
0.0
  0
VERTEX
  5
1130
  8
CUT_2
 62
     3
 10
335.0036278730706272
 20
-69.9648262695749281
 30
0.0
  0
SEQEND
  5
1131
  8
CUT_2
 62
     3
  0
POLYLINE
  5
1132
  8
CUT_2
 62
     3
 66
     1
 10
0.0
 20
0.0
 30
0.0
  0
VERTEX
  5
1133
  8
CUT_2
 62
     3
 10
335.0036278730706272
 20
-74.9539222185412655
 30
0.0
  0
VERTEX
  5
1134
  8
CUT_2
 62
     3
 10
349.9709157199696961
 20
-74.9539222185412655
 30
0.0
  0
SEQEND
  5
1135
  8
CUT_2
 62
     3
  0
POLYLINE
  5
1136
  8
CUT_2
 62
     3
 66
     1
 10
0.0
 20
0.0
 30
0.0
  0
VERTEX
  5
1137
  8
CUT_2
 62
     3
 10
342.48727179652019
 20
-74.9539222185412655
 30
0.0
  0
VERTEX
  5
1138
  8
CUT_2
 62
     3
 10
342.48727179652019
 20
-84.9321141164739402
 30
0.0
  0
SEQEND
  5
1139
  8
CUT_2
 62
     3
  0
POLYLINE
  5
113A
  8
CUT_2
 62
     3
 66
     1
 10
0.0
 20
0.0
 30
0.0
  0
VERTEX
  5
113B
  8
CUT_2
 62
     3
 10
349.9709157199696961
 20
-84.9321141164739402
 30
0.0
  0
VERTEX
  5
113C
  8
CUT_2
 62
     3
 10
335.0036278730706272
 20
-84.9321141164739402
 30
0.0
  0
SEQEND
  5
113D
  8
CUT_2
 62
     3
  0
POLYLINE
  5
113E
  8
CUT_2
 62
     3
 66
     1
 10
0.0
 20
0.0
 30
0.0
  0
VERTEX
  5
113F
  8
CUT_2
 62
     3
 10
344.9818197710033019
 20
-89.9212100654402775
 30
0.0
  0
VERTEX
  5
1140
  8
CUT_2
 62
     3
 10
344.9818197710033019
 20
-99.9773565875755139
 30
0.0
  0
VERTEX
  5
1141
  8
CUT_2
 62
     3
 10
335.0036278730706272
 20
-89.9212100654402775
 30
0.0
  0
VERTEX
  5
1142
  8
CUT_2
 62
     3
 10
335.0036278730706272
 20
-99.9773565875755139
 30
0.0
  0
SEQEND
  5
1143
  8
CUT_2
 62
     3
  0
POLYLINE
  5
1144
  8
CUT_2
 62
     3
 66
     1
 10
0.0
 20
0.0
 30
0.0
  0
VERTEX
  5
1145
  8
CUT_2
 62
     3
 10
187.7473427543608864
 20
-14.9288615825398701
 30
0.0
  0
VERTEX
  5
1146
  8
CUT_2
 62
     3
 10
190.2418907288439982
 20
-17.4234095570230885
 30
0.0
  0
VERTEX
  5
1147
  8
CUT_2
 62
     3
 10
190.2418907288439982
 20
-22.4904601301919911
 30
0.0
  0
VERTEX
  5
1148
  8
CUT_2
 62
     3
 10
187.7473427543608864
 20
-24.9850081046752202
 30
0.0
  0
VERTEX
  5
1149
  8
CUT_2
 62
     3
 10
185.252794779877803
 20
-24.9850081046752202
 30
0.0
  0
VERTEX
  5
114A
  8
CUT_2
 62
     3
 10
182.7582468053946911
 20
-22.4904601301919911
 30
0.0
  0
VERTEX
  5
114B
  8
CUT_2
 62
     3
 10
182.7582468053946911
 20
-17.4234095570230885
 30
0.0
  0
VERTEX
  5
114C
  8
CUT_2
 62
     3
 10
180.2636988309114088
 20
-14.9288615825398701
 30
0.0
  0
VERTEX
  5
114D
  8
CUT_2
 62
     3
 10
175.2746028819450999
 20
-14.9288615825398701
 30
0.0
  0
VERTEX
  5
114E
  8
CUT_2
 62
     3
 10
175.2746028819450999
 20
-24.9850081046752202
 30
0.0
  0
SEQEND
  5
114F
  8
CUT_2
 62
     3
  0
POLYLINE
  5
1150
  8
CUT_2
 62
     3
 66
     1
 10
0.0
 20
0.0
 30
0.0
  0
VERTEX
  5
1151
  8
CUT_2
 62
     3
 10
177.7691508564282969
 20
-29.9741040536415504
 30
0.0
  0
VERTEX
  5
1152
  8
CUT_2
 62
     3
 10
175.2746028819450999
 20
-32.4686520281246729
 30
0.0
  0
VERTEX
  5
1153
  8
CUT_2
 62
     3
 10
175.2746028819450999
 20
-37.4577479770910031
 30
0.0
  0
VERTEX
  5
1154
  8
CUT_2
 62
     3
 10
177.7691508564282969
 20
-39.9522959515742286
 30
0.0
  0
VERTEX
  5
1155
  8
CUT_2
 62
     3
 10
182.7582468053946911
 20
-39.9522959515742286
 30
0.0
  0
VERTEX
  5
1156
  8
CUT_2
 62
     3
 10
185.252794779877803
 20
-37.4577479770910031
 30
0.0
  0
VERTEX
  5
1157
  8
CUT_2
 62
     3
 10
185.252794779877803
 20
-29.9741040536415504
 30
0.0
  0
VERTEX
  5
1158
  8
CUT_2
 62
     3
 10
190.2418907288439982
 20
-29.9741040536415504
 30
0.0
  0
VERTEX
  5
1159
  8
CUT_2
 62
     3
 10
190.2418907288439982
 20
-39.9522959515742286
 30
0.0
  0
SEQEND
  5
115A
  8
CUT_2
 62
     3
  0
POLYLINE
  5
115B
  8
CUT_2
 62
     3
 66
     1
 10
0.0
 20
0.0
 30
0.0
  0
VERTEX
  5
115C
  8
CUT_2
 62
     3
 10
175.2746028819450999
 20
-59.9866343716421397
 30
0.0
  0
VERTEX
  5
115D
  8
CUT_2
 62
     3
 10
190.2418907288439982
 20
-59.9866343716421397
 30
0.0
  0
SEQEND
  5
115E
  8
CUT_2
 62
     3
  0
POLYLINE
  5
115F
  8
CUT_2
 62
     3
 66
     1
 10
0.0
 20
0.0
 30
0.0
  0
VERTEX
  5
1160
  8
CUT_2
 62
     3
 10
190.2418907288439982
 20
-69.9648262695749281
 30
0.0
  0
VERTEX
  5
1161
  8
CUT_2
 62
     3
 10
182.7582468053946911
 20
-62.4811823461253724
 30
0.0
  0
VERTEX
  5
1162
  8
CUT_2
 62
     3
 10
182.7582468053946911
 20
-59.9866343716421397
 30
0.0
  0
SEQEND
  5
1163
  8
CUT_2
 62
     3
  0
POLYLINE
  5
1164
  8
CUT_2
 62
     3
 66
     1
 10
0.0
 20
0.0
 30
0.0
  0
VERTEX
  5
1165
  8
CUT_2
 62
     3
 10
182.7582468053946911
 20
-62.4811823461253724
 30
0.0
  0
VERTEX
  5
1166
  8
CUT_2
 62
     3
 10
175.2746028819450999
 20
-69.9648262695749281
 30
0.0
  0
SEQEND
  5
1167
  8
CUT_2
 62
     3
  0
POLYLINE
  5
1168
  8
CUT_2
 62
     3
 66
     1
 10
0.0
 20
0.0
 30
0.0
  0
VERTEX
  5
1169
  8
CUT_2
 62
     3
 10
175.2746028819450999
 20
-74.9539222185412655
 30
0.0
  0
VERTEX
  5
116A
  8
CUT_2
 62
     3
 10
190.2418907288439982
 20
-74.9539222185412655
 30
0.0
  0
SEQEND
  5
116B
  8
CUT_2
 62
     3
  0
POLYLINE
  5
116C
  8
CUT_2
 62
     3
 66
     1
 10
0.0
 20
0.0
 30
0.0
  0
VERTEX
  5
116D
  8
CUT_2
 62
     3
 10
182.7582468053946911
 20
-74.9539222185412655
 30
0.0
  0
VERTEX
  5
116E
  8
CUT_2
 62
     3
 10
182.7582468053946911
 20
-84.9321141164739402
 30
0.0
  0
SEQEND
  5
116F
  8
CUT_2
 62
     3
  0
POLYLINE
  5
1170
  8
CUT_2
 62
     3
 66
     1
 10
0.0
 20
0.0
 30
0.0
  0
VERTEX
  5
1171
  8
CUT_2
 62
     3
 10
190.2418907288439982
 20
-84.9321141164739402
 30
0.0
  0
VERTEX
  5
1172
  8
CUT_2
 62
     3
 10
175.2746028819450999
 20
-84.9321141164739402
 30
0.0
  0
SEQEND
  5
1173
  8
CUT_2
 62
     3
  0
POLYLINE
  5
1174
  8
CUT_2
 62
     3
 66
     1
 10
0.0
 20
0.0
 30
0.0
  0
VERTEX
  5
1175
  8
CUT_2
 62
     3
 10
185.252794779877803
 20
-89.9212100654402775
 30
0.0
  0
VERTEX
  5
1176
  8
CUT_2
 62
     3
 10
185.252794779877803
 20
-99.9773565875755139
 30
0.0
  0
VERTEX
  5
1177
  8
CUT_2
 62
     3
 10
175.2746028819450999
 20
-89.9212100654402775
 30
0.0
  0
VERTEX
  5
1178
  8
CUT_2
 62
     3
 10
175.2746028819450999
 20
-99.9773565875755139
 30
0.0
  0
SEQEND
  5
1179
  8
CUT_2
 62
     3
  0
POLYLINE
  5
117A
  8
CUT_2
 62
     3
 66
     1
 10
0.0
 20
0.0
 30
0.0
  0
VERTEX
  5
117B
  8
CUT_2
 62
     3
 10
27.8624085148301184
 20
-14.9288615825398701
 30
0.0
  0
VERTEX
  5
117C
  8
CUT_2
 62
     3
 10
30.3569564893134611
 20
-17.4234095570230885
 30
0.0
  0
VERTEX
  5
117D
  8
CUT_2
 62
     3
 10
30.3569564893134611
 20
-22.4904601301919911
 30
0.0
  0
VERTEX
  5
117E
  8
CUT_2
 62
     3
 10
27.8624085148301184
 20
-24.9850081046752202
 30
0.0
  0
VERTEX
  5
117F
  8
CUT_2
 62
     3
 10
25.3678605403470101
 20
-24.9850081046752202
 30
0.0
  0
VERTEX
  5
1180
  8
CUT_2
 62
     3
 10
22.8733125658638983
 20
-22.4904601301919911
 30
0.0
  0
VERTEX
  5
1181
  8
CUT_2
 62
     3
 10
22.8733125658638983
 20
-17.4234095570230885
 30
0.0
  0
VERTEX
  5
1182
  8
CUT_2
 62
     3
 10
20.37876459138079
 20
-14.9288615825398701
 30
0.0
  0
VERTEX
  5
1183
  8
CUT_2
 62
     3
 10
15.3896686424143301
 20
-14.9288615825398701
 30
0.0
  0
VERTEX
  5
1184
  8
CUT_2
 62
     3
 10
15.3896686424143301
 20
-24.9850081046752202
 30
0.0
  0
SEQEND
  5
1185
  8
CUT_2
 62
     3
  0
POLYLINE
  5
1186
  8
CUT_2
 62
     3
 66
     1
 10
0.0
 20
0.0
 30
0.0
  0
VERTEX
  5
1187
  8
CUT_2
 62
     3
 10
17.8842166168974508
 20
-29.9741040536415504
 30
0.0
  0
VERTEX
  5
1188
  8
CUT_2
 62
     3
 10
15.3896686424143301
 20
-32.4686520281246729
 30
0.0
  0
VERTEX
  5
1189
  8
CUT_2
 62
     3
 10
15.3896686424143301
 20
-37.4577479770910031
 30
0.0
  0
VERTEX
  5
118A
  8
CUT_2
 62
     3
 10
17.8842166168974508
 20
-39.9522959515742286
 30
0.0
  0
VERTEX
  5
118B
  8
CUT_2
 62
     3
 10
22.8733125658638983
 20
-39.9522959515742286
 30
0.0
  0
VERTEX
  5
118C
  8
CUT_2
 62
     3
 10
25.3678605403470101
 20
-37.4577479770910031
 30
0.0
  0
VERTEX
  5
118D
  8
CUT_2
 62
     3
 10
25.3678605403470101
 20
-29.9741040536415504
 30
0.0
  0
VERTEX
  5
118E
  8
CUT_2
 62
     3
 10
30.3569564893134611
 20
-29.9741040536415504
 30
0.0
  0
VERTEX
  5
118F
  8
CUT_2
 62
     3
 10
30.3569564893134611
 20
-39.9522959515742286
 30
0.0
  0
SEQEND
  5
1190
  8
CUT_2
 62
     3
  0
POLYLINE
  5
1191
  8
CUT_2
 62
     3
 66
     1
 10
0.0
 20
0.0
 30
0.0
  0
VERTEX
  5
1192
  8
CUT_2
 62
     3
 10
15.3896686424143301
 20
-59.9866343716421397
 30
0.0
  0
VERTEX
  5
1193
  8
CUT_2
 62
     3
 10
30.3569564893134611
 20
-59.9866343716421397
 30
0.0
  0
SEQEND
  5
1194
  8
CUT_2
 62
     3
  0
POLYLINE
  5
1195
  8
CUT_2
 62
     3
 66
     1
 10
0.0
 20
0.0
 30
0.0
  0
VERTEX
  5
1196
  8
CUT_2
 62
     3
 10
30.3569564893134611
 20
-69.9648262695749281
 30
0.0
  0
VERTEX
  5
1197
  8
CUT_2
 62
     3
 10
22.8733125658638983
 20
-62.4811823461253724
 30
0.0
  0
VERTEX
  5
1198
  8
CUT_2
 62
     3
 10
22.8733125658638983
 20
-59.9866343716421397
 30
0.0
  0
SEQEND
  5
1199
  8
CUT_2
 62
     3
  0
POLYLINE
  5
119A
  8
CUT_2
 62
     3
 66
     1
 10
0.0
 20
0.0
 30
0.0
  0
VERTEX
  5
119B
  8
CUT_2
 62
     3
 10
22.8733125658638983
 20
-62.4811823461253724
 30
0.0
  0
VERTEX
  5
119C
  8
CUT_2
 62
     3
 10
15.3896686424143301
 20
-69.9648262695749281
 30
0.0
  0
SEQEND
  5
119D
  8
CUT_2
 62
     3
  0
POLYLINE
  5
119E
  8
CUT_2
 62
     3
 66
     1
 10
0.0
 20
0.0
 30
0.0
  0
VERTEX
  5
119F
  8
CUT_2
 62
     3
 10
15.3896686424143301
 20
-74.9539222185412655
 30
0.0
  0
VERTEX
  5
11A0
  8
CUT_2
 62
     3
 10
30.3569564893134611
 20
-74.9539222185412655
 30
0.0
  0
SEQEND
  5
11A1
  8
CUT_2
 62
     3
  0
POLYLINE
  5
11A2
  8
CUT_2
 62
     3
 66
     1
 10
0.0
 20
0.0
 30
0.0
  0
VERTEX
  5
11A3
  8
CUT_2
 62
     3
 10
22.8733125658638983
 20
-74.9539222185412655
 30
0.0
  0
VERTEX
  5
11A4
  8
CUT_2
 62
     3
 10
22.8733125658638983
 20
-84.9321141164739402
 30
0.0
  0
SEQEND
  5
11A5
  8
CUT_2
 62
     3
  0
POLYLINE
  5
11A6
  8
CUT_2
 62
     3
 66
     1
 10
0.0
 20
0.0
 30
0.0
  0
VERTEX
  5
11A7
  8
CUT_2
 62
     3
 10
30.3569564893134611
 20
-84.9321141164739402
 30
0.0
  0
VERTEX
  5
11A8
  8
CUT_2
 62
     3
 10
15.3896686424143301
 20
-84.9321141164739402
 30
0.0
  0
SEQEND
  5
11A9
  8
CUT_2
 62
     3
  0
POLYLINE
  5
11AA
  8
CUT_2
 62
     3
 66
     1
 10
0.0
 20
0.0
 30
0.0
  0
VERTEX
  5
11AB
  8
CUT_2
 62
     3
 10
25.3678605403470101
 20
-89.9212100654402775
 30
0.0
  0
VERTEX
  5
11AC
  8
CUT_2
 62
     3
 10
25.3678605403470101
 20
-99.9773565875755139
 30
0.0
  0
VERTEX
  5
11AD
  8
CUT_2
 62
     3
 10
15.3896686424143301
 20
-89.9212100654402775
 30
0.0
  0
VERTEX
  5
11AE
  8
CUT_2
 62
     3
 10
15.3896686424143301
 20
-99.9773565875755139
 30
0.0
  0
SEQEND
  5
11AF
  8
CUT_2
 62
     3
  0
ENDSEC
  0
EOF
