ISO-10303-21;
HEADER;
/* Generated by software containing ST-Developer
 * from STEP Tools, Inc. (www.steptools.com) 
 */

FILE_DESCRIPTION(
/* description */ (''),
/* implementation_level */ '2;1');

FILE_NAME(
/* name */ 'Transmitter + Reciever.stp',
/* time_stamp */ '2026-07-28T12:06:08-05:00',
/* author */ ('blaze'),
/* organization */ (''),
/* preprocessor_version */ 'ST-DEVELOPER v20.1',
/* originating_system */ 'Autodesk Inventor 2027',
/* authorisation */ '');

FILE_SCHEMA (('AUTOMOTIVE_DESIGN { 1 0 10303 214 3 1 1 }'));
ENDSEC;

DATA;
#10=MECHANICAL_DESIGN_GEOMETRIC_PRESENTATION_REPRESENTATION('',(#13),#1278);
#11=SHAPE_REPRESENTATION_RELATIONSHIP('SRR','None',#1289,#12);
#12=ADVANCED_BREP_SHAPE_REPRESENTATION('',(#14),#1277);
#13=STYLED_ITEM('',(#1298),#14);
#14=MANIFOLD_SOLID_BREP('Solid1',#781);
#15=CYLINDRICAL_SURFACE('',#813,0.0787401574805001);
#16=CYLINDRICAL_SURFACE('',#815,0.0787401574805001);
#17=CYLINDRICAL_SURFACE('',#817,0.0787401574805);
#18=CYLINDRICAL_SURFACE('',#839,0.3149605);
#19=CYLINDRICAL_SURFACE('',#841,0.1595);
#20=CYLINDRICAL_SURFACE('',#843,0.1595);
#21=CYLINDRICAL_SURFACE('',#852,0.749999999999999);
#22=CYLINDRICAL_SURFACE('',#854,0.75);
#23=FACE_BOUND('',#92,.T.);
#24=FACE_BOUND('',#94,.T.);
#25=FACE_BOUND('',#106,.T.);
#26=FACE_BOUND('',#108,.T.);
#27=FACE_BOUND('',#116,.T.);
#28=FACE_BOUND('',#117,.T.);
#29=FACE_BOUND('',#119,.T.);
#30=FACE_BOUND('',#125,.T.);
#31=FACE_BOUND('',#129,.T.);
#32=FACE_BOUND('',#130,.T.);
#33=FACE_BOUND('',#136,.T.);
#34=FACE_BOUND('',#137,.T.);
#35=CIRCLE('',#806,0.0787401574805001);
#36=CIRCLE('',#808,0.0787401574805001);
#37=CIRCLE('',#814,0.0787401574805001);
#38=CIRCLE('',#816,0.0787401574805001);
#39=CIRCLE('',#818,0.0787401574805);
#40=CIRCLE('',#819,0.0787401574805);
#41=CIRCLE('',#832,0.1595);
#42=CIRCLE('',#833,0.1595);
#43=CIRCLE('',#835,0.749999999999999);
#44=CIRCLE('',#836,0.75);
#45=CIRCLE('',#837,0.3149605);
#46=CIRCLE('',#838,0.3149605);
#47=CIRCLE('',#840,0.3149605);
#48=CIRCLE('',#842,0.1595);
#49=CIRCLE('',#844,0.1595);
#50=CIRCLE('',#853,0.749999999999999);
#51=CIRCLE('',#855,0.75);
#52=FACE_OUTER_BOUND('',#89,.T.);
#53=FACE_OUTER_BOUND('',#90,.T.);
#54=FACE_OUTER_BOUND('',#91,.T.);
#55=FACE_OUTER_BOUND('',#93,.T.);
#56=FACE_OUTER_BOUND('',#95,.T.);
#57=FACE_OUTER_BOUND('',#96,.T.);
#58=FACE_OUTER_BOUND('',#97,.T.);
#59=FACE_OUTER_BOUND('',#98,.T.);
#60=FACE_OUTER_BOUND('',#99,.T.);
#61=FACE_OUTER_BOUND('',#100,.T.);
#62=FACE_OUTER_BOUND('',#101,.T.);
#63=FACE_OUTER_BOUND('',#102,.T.);
#64=FACE_OUTER_BOUND('',#103,.T.);
#65=FACE_OUTER_BOUND('',#104,.T.);
#66=FACE_OUTER_BOUND('',#105,.T.);
#67=FACE_OUTER_BOUND('',#107,.T.);
#68=FACE_OUTER_BOUND('',#109,.T.);
#69=FACE_OUTER_BOUND('',#110,.T.);
#70=FACE_OUTER_BOUND('',#111,.T.);
#71=FACE_OUTER_BOUND('',#112,.T.);
#72=FACE_OUTER_BOUND('',#113,.T.);
#73=FACE_OUTER_BOUND('',#114,.T.);
#74=FACE_OUTER_BOUND('',#115,.T.);
#75=FACE_OUTER_BOUND('',#118,.T.);
#76=FACE_OUTER_BOUND('',#120,.T.);
#77=FACE_OUTER_BOUND('',#121,.T.);
#78=FACE_OUTER_BOUND('',#122,.T.);
#79=FACE_OUTER_BOUND('',#123,.T.);
#80=FACE_OUTER_BOUND('',#124,.T.);
#81=FACE_OUTER_BOUND('',#126,.T.);
#82=FACE_OUTER_BOUND('',#127,.T.);
#83=FACE_OUTER_BOUND('',#128,.T.);
#84=FACE_OUTER_BOUND('',#131,.T.);
#85=FACE_OUTER_BOUND('',#132,.T.);
#86=FACE_OUTER_BOUND('',#133,.T.);
#87=FACE_OUTER_BOUND('',#134,.T.);
#88=FACE_OUTER_BOUND('',#135,.T.);
#89=EDGE_LOOP('',(#499,#500,#501,#502));
#90=EDGE_LOOP('',(#503,#504,#505,#506));
#91=EDGE_LOOP('',(#507,#508,#509,#510));
#92=EDGE_LOOP('',(#511));
#93=EDGE_LOOP('',(#512,#513,#514,#515,#516,#517,#518,#519));
#94=EDGE_LOOP('',(#520));
#95=EDGE_LOOP('',(#521,#522,#523,#524));
#96=EDGE_LOOP('',(#525,#526,#527,#528));
#97=EDGE_LOOP('',(#529,#530,#531,#532));
#98=EDGE_LOOP('',(#533,#534,#535,#536));
#99=EDGE_LOOP('',(#537,#538,#539,#540));
#100=EDGE_LOOP('',(#541,#542,#543,#544));
#101=EDGE_LOOP('',(#545,#546,#547,#548));
#102=EDGE_LOOP('',(#549,#550,#551,#552));
#103=EDGE_LOOP('',(#553,#554,#555,#556));
#104=EDGE_LOOP('',(#557,#558,#559,#560));
#105=EDGE_LOOP('',(#561,#562,#563,#564));
#106=EDGE_LOOP('',(#565));
#107=EDGE_LOOP('',(#566,#567,#568,#569,#570,#571,#572,#573));
#108=EDGE_LOOP('',(#574));
#109=EDGE_LOOP('',(#575,#576,#577,#578));
#110=EDGE_LOOP('',(#579,#580,#581,#582,#583,#584,#585,#586,#587,#588,#589,
#590));
#111=EDGE_LOOP('',(#591,#592,#593,#594));
#112=EDGE_LOOP('',(#595,#596,#597,#598));
#113=EDGE_LOOP('',(#599,#600,#601,#602,#603));
#114=EDGE_LOOP('',(#604,#605,#606,#607));
#115=EDGE_LOOP('',(#608,#609,#610,#611,#612,#613,#614,#615));
#116=EDGE_LOOP('',(#616));
#117=EDGE_LOOP('',(#617));
#118=EDGE_LOOP('',(#618,#619,#620,#621,#622));
#119=EDGE_LOOP('',(#623,#624,#625,#626,#627,#628,#629));
#120=EDGE_LOOP('',(#630,#631,#632,#633,#634));
#121=EDGE_LOOP('',(#635,#636,#637,#638));
#122=EDGE_LOOP('',(#639,#640,#641,#642));
#123=EDGE_LOOP('',(#643,#644,#645,#646,#647,#648));
#124=EDGE_LOOP('',(#649,#650,#651,#652));
#125=EDGE_LOOP('',(#653));
#126=EDGE_LOOP('',(#654,#655,#656,#657));
#127=EDGE_LOOP('',(#658,#659,#660,#661));
#128=EDGE_LOOP('',(#662,#663,#664,#665,#666,#667,#668,#669,#670,#671,#672,
#673));
#129=EDGE_LOOP('',(#674));
#130=EDGE_LOOP('',(#675));
#131=EDGE_LOOP('',(#676,#677,#678,#679,#680,#681,#682,#683));
#132=EDGE_LOOP('',(#684,#685,#686,#687,#688,#689,#690,#691));
#133=EDGE_LOOP('',(#692,#693,#694,#695));
#134=EDGE_LOOP('',(#696,#697,#698,#699));
#135=EDGE_LOOP('',(#700,#701,#702,#703,#704,#705,#706,#707,#708,#709,#710,
#711,#712));
#136=EDGE_LOOP('',(#713));
#137=EDGE_LOOP('',(#714));
#138=LINE('',#1062,#229);
#139=LINE('',#1064,#230);
#140=LINE('',#1066,#231);
#141=LINE('',#1067,#232);
#142=LINE('',#1070,#233);
#143=LINE('',#1072,#234);
#144=LINE('',#1073,#235);
#145=LINE('',#1077,#236);
#146=LINE('',#1079,#237);
#147=LINE('',#1081,#238);
#148=LINE('',#1082,#239);
#149=LINE('',#1088,#240);
#150=LINE('',#1090,#241);
#151=LINE('',#1092,#242);
#152=LINE('',#1094,#243);
#153=LINE('',#1096,#244);
#154=LINE('',#1098,#245);
#155=LINE('',#1100,#246);
#156=LINE('',#1101,#247);
#157=LINE('',#1106,#248);
#158=LINE('',#1108,#249);
#159=LINE('',#1109,#250);
#160=LINE('',#1112,#251);
#161=LINE('',#1114,#252);
#162=LINE('',#1115,#253);
#163=LINE('',#1118,#254);
#164=LINE('',#1120,#255);
#165=LINE('',#1121,#256);
#166=LINE('',#1124,#257);
#167=LINE('',#1126,#258);
#168=LINE('',#1127,#259);
#169=LINE('',#1131,#260);
#170=LINE('',#1135,#261);
#171=LINE('',#1140,#262);
#172=LINE('',#1143,#263);
#173=LINE('',#1146,#264);
#174=LINE('',#1147,#265);
#175=LINE('',#1150,#266);
#176=LINE('',#1151,#267);
#177=LINE('',#1154,#268);
#178=LINE('',#1155,#269);
#179=LINE('',#1158,#270);
#180=LINE('',#1160,#271);
#181=LINE('',#1161,#272);
#182=LINE('',#1162,#273);
#183=LINE('',#1165,#274);
#184=LINE('',#1167,#275);
#185=LINE('',#1168,#276);
#186=LINE('',#1170,#277);
#187=LINE('',#1172,#278);
#188=LINE('',#1173,#279);
#189=LINE('',#1177,#280);
#190=LINE('',#1179,#281);
#191=LINE('',#1181,#282);
#192=LINE('',#1182,#283);
#193=LINE('',#1185,#284);
#194=LINE('',#1187,#285);
#195=LINE('',#1188,#286);
#196=LINE('',#1191,#287);
#197=LINE('',#1193,#288);
#198=LINE('',#1195,#289);
#199=LINE('',#1196,#290);
#200=LINE('',#1198,#291);
#201=LINE('',#1199,#292);
#202=LINE('',#1202,#293);
#203=LINE('',#1204,#294);
#204=LINE('',#1206,#295);
#205=LINE('',#1208,#296);
#206=LINE('',#1209,#297);
#207=LINE('',#1217,#298);
#208=LINE('',#1219,#299);
#209=LINE('',#1224,#300);
#210=LINE('',#1231,#301);
#211=LINE('',#1234,#302);
#212=LINE('',#1238,#303);
#213=LINE('',#1243,#304);
#214=LINE('',#1244,#305);
#215=LINE('',#1245,#306);
#216=LINE('',#1247,#307);
#217=LINE('',#1249,#308);
#218=LINE('',#1250,#309);
#219=LINE('',#1253,#310);
#220=LINE('',#1255,#311);
#221=LINE('',#1256,#312);
#222=LINE('',#1258,#313);
#223=LINE('',#1259,#314);
#224=LINE('',#1262,#315);
#225=LINE('',#1263,#316);
#226=LINE('',#1266,#317);
#227=LINE('',#1267,#318);
#228=LINE('',#1271,#319);
#229=VECTOR('',#861,0.393700787401575);
#230=VECTOR('',#862,0.393700787401575);
#231=VECTOR('',#863,0.393700787401575);
#232=VECTOR('',#864,0.393700787401575);
#233=VECTOR('',#867,0.393700787401575);
#234=VECTOR('',#868,0.393700787401575);
#235=VECTOR('',#869,0.393700787401575);
#236=VECTOR('',#872,0.393700787401575);
#237=VECTOR('',#873,0.393700787401575);
#238=VECTOR('',#874,0.393700787401575);
#239=VECTOR('',#875,0.393700787401575);
#240=VECTOR('',#880,0.393700787401575);
#241=VECTOR('',#881,0.393700787401575);
#242=VECTOR('',#882,0.393700787401575);
#243=VECTOR('',#883,0.393700787401575);
#244=VECTOR('',#884,0.393700787401575);
#245=VECTOR('',#885,0.393700787401575);
#246=VECTOR('',#886,0.393700787401575);
#247=VECTOR('',#887,0.393700787401575);
#248=VECTOR('',#892,0.393700787401575);
#249=VECTOR('',#893,0.393700787401575);
#250=VECTOR('',#894,0.393700787401575);
#251=VECTOR('',#897,0.393700787401575);
#252=VECTOR('',#898,0.393700787401575);
#253=VECTOR('',#899,0.393700787401575);
#254=VECTOR('',#902,0.393700787401575);
#255=VECTOR('',#903,0.393700787401575);
#256=VECTOR('',#904,0.393700787401575);
#257=VECTOR('',#907,0.393700787401575);
#258=VECTOR('',#908,0.393700787401575);
#259=VECTOR('',#909,0.393700787401575);
#260=VECTOR('',#914,0.0787401574805001);
#261=VECTOR('',#919,0.0787401574805001);
#262=VECTOR('',#924,0.0787401574805);
#263=VECTOR('',#929,0.393700787401575);
#264=VECTOR('',#932,0.393700787401575);
#265=VECTOR('',#933,0.393700787401575);
#266=VECTOR('',#936,0.393700787401575);
#267=VECTOR('',#937,0.393700787401575);
#268=VECTOR('',#940,0.393700787401575);
#269=VECTOR('',#941,0.393700787401575);
#270=VECTOR('',#944,0.393700787401575);
#271=VECTOR('',#945,0.393700787401575);
#272=VECTOR('',#946,0.393700787401575);
#273=VECTOR('',#947,0.393700787401575);
#274=VECTOR('',#950,0.393700787401575);
#275=VECTOR('',#951,0.393700787401575);
#276=VECTOR('',#952,0.393700787401575);
#277=VECTOR('',#955,0.393700787401575);
#278=VECTOR('',#956,0.393700787401575);
#279=VECTOR('',#957,0.393700787401575);
#280=VECTOR('',#960,0.393700787401575);
#281=VECTOR('',#961,0.393700787401575);
#282=VECTOR('',#962,0.393700787401575);
#283=VECTOR('',#963,0.393700787401575);
#284=VECTOR('',#966,0.393700787401575);
#285=VECTOR('',#967,0.393700787401575);
#286=VECTOR('',#968,0.393700787401575);
#287=VECTOR('',#971,0.393700787401575);
#288=VECTOR('',#972,0.393700787401575);
#289=VECTOR('',#973,0.393700787401575);
#290=VECTOR('',#974,0.393700787401575);
#291=VECTOR('',#977,0.393700787401575);
#292=VECTOR('',#978,0.393700787401575);
#293=VECTOR('',#981,0.393700787401575);
#294=VECTOR('',#982,0.393700787401575);
#295=VECTOR('',#983,0.393700787401575);
#296=VECTOR('',#984,0.393700787401575);
#297=VECTOR('',#985,0.393700787401575);
#298=VECTOR('',#992,0.393700787401575);
#299=VECTOR('',#993,0.393700787401575);
#300=VECTOR('',#998,0.393700787401575);
#301=VECTOR('',#1007,0.3149605);
#302=VECTOR('',#1010,0.1595);
#303=VECTOR('',#1015,0.1595);
#304=VECTOR('',#1020,0.393700787401575);
#305=VECTOR('',#1021,0.393700787401575);
#306=VECTOR('',#1022,0.393700787401575);
#307=VECTOR('',#1025,0.393700787401575);
#308=VECTOR('',#1028,0.393700787401575);
#309=VECTOR('',#1029,0.393700787401575);
#310=VECTOR('',#1032,0.393700787401575);
#311=VECTOR('',#1033,0.393700787401575);
#312=VECTOR('',#1034,0.393700787401575);
#313=VECTOR('',#1037,0.393700787401575);
#314=VECTOR('',#1038,0.393700787401575);
#315=VECTOR('',#1041,0.393700787401575);
#316=VECTOR('',#1042,0.393700787401575);
#317=VECTOR('',#1045,0.393700787401575);
#318=VECTOR('',#1046,0.393700787401575);
#319=VECTOR('',#1051,0.393700787401575);
#320=VERTEX_POINT('',#1060);
#321=VERTEX_POINT('',#1061);
#322=VERTEX_POINT('',#1063);
#323=VERTEX_POINT('',#1065);
#324=VERTEX_POINT('',#1069);
#325=VERTEX_POINT('',#1071);
#326=VERTEX_POINT('',#1075);
#327=VERTEX_POINT('',#1076);
#328=VERTEX_POINT('',#1078);
#329=VERTEX_POINT('',#1080);
#330=VERTEX_POINT('',#1083);
#331=VERTEX_POINT('',#1086);
#332=VERTEX_POINT('',#1087);
#333=VERTEX_POINT('',#1089);
#334=VERTEX_POINT('',#1091);
#335=VERTEX_POINT('',#1093);
#336=VERTEX_POINT('',#1095);
#337=VERTEX_POINT('',#1097);
#338=VERTEX_POINT('',#1099);
#339=VERTEX_POINT('',#1102);
#340=VERTEX_POINT('',#1105);
#341=VERTEX_POINT('',#1107);
#342=VERTEX_POINT('',#1111);
#343=VERTEX_POINT('',#1113);
#344=VERTEX_POINT('',#1117);
#345=VERTEX_POINT('',#1119);
#346=VERTEX_POINT('',#1123);
#347=VERTEX_POINT('',#1125);
#348=VERTEX_POINT('',#1129);
#349=VERTEX_POINT('',#1133);
#350=VERTEX_POINT('',#1137);
#351=VERTEX_POINT('',#1139);
#352=VERTEX_POINT('',#1145);
#353=VERTEX_POINT('',#1149);
#354=VERTEX_POINT('',#1153);
#355=VERTEX_POINT('',#1157);
#356=VERTEX_POINT('',#1159);
#357=VERTEX_POINT('',#1164);
#358=VERTEX_POINT('',#1166);
#359=VERTEX_POINT('',#1171);
#360=VERTEX_POINT('',#1175);
#361=VERTEX_POINT('',#1176);
#362=VERTEX_POINT('',#1178);
#363=VERTEX_POINT('',#1180);
#364=VERTEX_POINT('',#1184);
#365=VERTEX_POINT('',#1186);
#366=VERTEX_POINT('',#1190);
#367=VERTEX_POINT('',#1192);
#368=VERTEX_POINT('',#1194);
#369=VERTEX_POINT('',#1201);
#370=VERTEX_POINT('',#1203);
#371=VERTEX_POINT('',#1205);
#372=VERTEX_POINT('',#1207);
#373=VERTEX_POINT('',#1210);
#374=VERTEX_POINT('',#1212);
#375=VERTEX_POINT('',#1215);
#376=VERTEX_POINT('',#1216);
#377=VERTEX_POINT('',#1218);
#378=VERTEX_POINT('',#1220);
#379=VERTEX_POINT('',#1222);
#380=VERTEX_POINT('',#1225);
#381=VERTEX_POINT('',#1229);
#382=VERTEX_POINT('',#1233);
#383=VERTEX_POINT('',#1237);
#384=VERTEX_POINT('',#1241);
#385=VERTEX_POINT('',#1242);
#386=VERTEX_POINT('',#1252);
#387=VERTEX_POINT('',#1254);
#388=VERTEX_POINT('',#1261);
#389=VERTEX_POINT('',#1265);
#390=VERTEX_POINT('',#1269);
#391=EDGE_CURVE('',#320,#321,#138,.T.);
#392=EDGE_CURVE('',#322,#321,#139,.T.);
#393=EDGE_CURVE('',#323,#322,#140,.T.);
#394=EDGE_CURVE('',#323,#320,#141,.T.);
#395=EDGE_CURVE('',#324,#320,#142,.T.);
#396=EDGE_CURVE('',#325,#323,#143,.T.);
#397=EDGE_CURVE('',#324,#325,#144,.T.);
#398=EDGE_CURVE('',#326,#327,#145,.T.);
#399=EDGE_CURVE('',#328,#327,#146,.T.);
#400=EDGE_CURVE('',#329,#328,#147,.T.);
#401=EDGE_CURVE('',#326,#329,#148,.T.);
#402=EDGE_CURVE('',#330,#330,#35,.T.);
#403=EDGE_CURVE('',#331,#332,#149,.T.);
#404=EDGE_CURVE('',#332,#333,#150,.T.);
#405=EDGE_CURVE('',#333,#334,#151,.T.);
#406=EDGE_CURVE('',#335,#334,#152,.T.);
#407=EDGE_CURVE('',#336,#335,#153,.T.);
#408=EDGE_CURVE('',#336,#337,#154,.T.);
#409=EDGE_CURVE('',#337,#338,#155,.T.);
#410=EDGE_CURVE('',#331,#338,#156,.T.);
#411=EDGE_CURVE('',#339,#339,#36,.T.);
#412=EDGE_CURVE('',#334,#340,#157,.T.);
#413=EDGE_CURVE('',#341,#340,#158,.T.);
#414=EDGE_CURVE('',#335,#341,#159,.T.);
#415=EDGE_CURVE('',#340,#342,#160,.T.);
#416=EDGE_CURVE('',#343,#342,#161,.T.);
#417=EDGE_CURVE('',#341,#343,#162,.T.);
#418=EDGE_CURVE('',#344,#326,#163,.T.);
#419=EDGE_CURVE('',#329,#345,#164,.T.);
#420=EDGE_CURVE('',#344,#345,#165,.T.);
#421=EDGE_CURVE('',#346,#331,#166,.T.);
#422=EDGE_CURVE('',#338,#347,#167,.T.);
#423=EDGE_CURVE('',#346,#347,#168,.T.);
#424=EDGE_CURVE('',#348,#348,#37,.T.);
#425=EDGE_CURVE('',#348,#339,#169,.T.);
#426=EDGE_CURVE('',#349,#349,#38,.T.);
#427=EDGE_CURVE('',#349,#330,#170,.T.);
#428=EDGE_CURVE('',#350,#350,#39,.T.);
#429=EDGE_CURVE('',#350,#351,#171,.T.);
#430=EDGE_CURVE('',#351,#351,#40,.T.);
#431=EDGE_CURVE('',#342,#333,#172,.T.);
#432=EDGE_CURVE('',#352,#346,#173,.T.);
#433=EDGE_CURVE('',#352,#332,#174,.T.);
#434=EDGE_CURVE('',#353,#344,#175,.T.);
#435=EDGE_CURVE('',#353,#327,#176,.T.);
#436=EDGE_CURVE('',#354,#324,#177,.T.);
#437=EDGE_CURVE('',#321,#354,#178,.T.);
#438=EDGE_CURVE('',#345,#355,#179,.T.);
#439=EDGE_CURVE('',#356,#355,#180,.T.);
#440=EDGE_CURVE('',#322,#356,#181,.T.);
#441=EDGE_CURVE('',#354,#353,#182,.T.);
#442=EDGE_CURVE('',#357,#355,#183,.T.);
#443=EDGE_CURVE('',#358,#357,#184,.T.);
#444=EDGE_CURVE('',#356,#358,#185,.T.);
#445=EDGE_CURVE('',#343,#325,#186,.T.);
#446=EDGE_CURVE('',#352,#359,#187,.T.);
#447=EDGE_CURVE('',#328,#359,#188,.T.);
#448=EDGE_CURVE('',#360,#361,#189,.T.);
#449=EDGE_CURVE('',#360,#362,#190,.T.);
#450=EDGE_CURVE('',#363,#362,#191,.T.);
#451=EDGE_CURVE('',#363,#361,#192,.T.);
#452=EDGE_CURVE('',#364,#360,#193,.T.);
#453=EDGE_CURVE('',#365,#364,#194,.T.);
#454=EDGE_CURVE('',#362,#365,#195,.T.);
#455=EDGE_CURVE('',#366,#363,#196,.T.);
#456=EDGE_CURVE('',#367,#366,#197,.T.);
#457=EDGE_CURVE('',#368,#367,#198,.T.);
#458=EDGE_CURVE('',#368,#361,#199,.T.);
#459=EDGE_CURVE('',#368,#364,#200,.T.);
#460=EDGE_CURVE('',#365,#367,#201,.T.);
#461=EDGE_CURVE('',#361,#369,#202,.T.);
#462=EDGE_CURVE('',#369,#370,#203,.T.);
#463=EDGE_CURVE('',#371,#370,#204,.T.);
#464=EDGE_CURVE('',#371,#372,#205,.T.);
#465=EDGE_CURVE('',#372,#368,#206,.T.);
#466=EDGE_CURVE('',#373,#373,#41,.T.);
#467=EDGE_CURVE('',#374,#374,#42,.T.);
#468=EDGE_CURVE('',#375,#376,#207,.T.);
#469=EDGE_CURVE('',#376,#377,#208,.T.);
#470=EDGE_CURVE('',#377,#378,#43,.T.);
#471=EDGE_CURVE('',#378,#379,#44,.T.);
#472=EDGE_CURVE('',#379,#375,#209,.T.);
#473=EDGE_CURVE('',#366,#380,#45,.T.);
#474=EDGE_CURVE('',#380,#366,#46,.T.);
#475=EDGE_CURVE('',#381,#381,#47,.T.);
#476=EDGE_CURVE('',#381,#380,#210,.T.);
#477=EDGE_CURVE('',#373,#382,#211,.T.);
#478=EDGE_CURVE('',#382,#382,#48,.T.);
#479=EDGE_CURVE('',#374,#383,#212,.T.);
#480=EDGE_CURVE('',#383,#383,#49,.T.);
#481=EDGE_CURVE('',#384,#385,#213,.T.);
#482=EDGE_CURVE('',#384,#369,#214,.T.);
#483=EDGE_CURVE('',#385,#372,#215,.T.);
#484=EDGE_CURVE('',#359,#347,#216,.T.);
#485=EDGE_CURVE('',#376,#370,#217,.T.);
#486=EDGE_CURVE('',#375,#371,#218,.T.);
#487=EDGE_CURVE('',#386,#336,#219,.T.);
#488=EDGE_CURVE('',#387,#386,#220,.T.);
#489=EDGE_CURVE('',#337,#387,#221,.T.);
#490=EDGE_CURVE('',#387,#384,#222,.T.);
#491=EDGE_CURVE('',#385,#357,#223,.T.);
#492=EDGE_CURVE('',#388,#379,#224,.T.);
#493=EDGE_CURVE('',#358,#388,#225,.T.);
#494=EDGE_CURVE('',#389,#386,#226,.T.);
#495=EDGE_CURVE('',#389,#377,#227,.T.);
#496=EDGE_CURVE('',#390,#389,#50,.T.);
#497=EDGE_CURVE('',#390,#378,#228,.T.);
#498=EDGE_CURVE('',#388,#390,#51,.T.);
#499=ORIENTED_EDGE('',*,*,#391,.T.);
#500=ORIENTED_EDGE('',*,*,#392,.F.);
#501=ORIENTED_EDGE('',*,*,#393,.F.);
#502=ORIENTED_EDGE('',*,*,#394,.T.);
#503=ORIENTED_EDGE('',*,*,#395,.T.);
#504=ORIENTED_EDGE('',*,*,#394,.F.);
#505=ORIENTED_EDGE('',*,*,#396,.F.);
#506=ORIENTED_EDGE('',*,*,#397,.F.);
#507=ORIENTED_EDGE('',*,*,#398,.T.);
#508=ORIENTED_EDGE('',*,*,#399,.F.);
#509=ORIENTED_EDGE('',*,*,#400,.F.);
#510=ORIENTED_EDGE('',*,*,#401,.F.);
#511=ORIENTED_EDGE('',*,*,#402,.T.);
#512=ORIENTED_EDGE('',*,*,#403,.T.);
#513=ORIENTED_EDGE('',*,*,#404,.T.);
#514=ORIENTED_EDGE('',*,*,#405,.T.);
#515=ORIENTED_EDGE('',*,*,#406,.F.);
#516=ORIENTED_EDGE('',*,*,#407,.F.);
#517=ORIENTED_EDGE('',*,*,#408,.T.);
#518=ORIENTED_EDGE('',*,*,#409,.T.);
#519=ORIENTED_EDGE('',*,*,#410,.F.);
#520=ORIENTED_EDGE('',*,*,#411,.T.);
#521=ORIENTED_EDGE('',*,*,#412,.T.);
#522=ORIENTED_EDGE('',*,*,#413,.F.);
#523=ORIENTED_EDGE('',*,*,#414,.F.);
#524=ORIENTED_EDGE('',*,*,#406,.T.);
#525=ORIENTED_EDGE('',*,*,#415,.T.);
#526=ORIENTED_EDGE('',*,*,#416,.F.);
#527=ORIENTED_EDGE('',*,*,#417,.F.);
#528=ORIENTED_EDGE('',*,*,#413,.T.);
#529=ORIENTED_EDGE('',*,*,#418,.T.);
#530=ORIENTED_EDGE('',*,*,#401,.T.);
#531=ORIENTED_EDGE('',*,*,#419,.T.);
#532=ORIENTED_EDGE('',*,*,#420,.F.);
#533=ORIENTED_EDGE('',*,*,#421,.T.);
#534=ORIENTED_EDGE('',*,*,#410,.T.);
#535=ORIENTED_EDGE('',*,*,#422,.T.);
#536=ORIENTED_EDGE('',*,*,#423,.F.);
#537=ORIENTED_EDGE('',*,*,#424,.F.);
#538=ORIENTED_EDGE('',*,*,#425,.T.);
#539=ORIENTED_EDGE('',*,*,#411,.F.);
#540=ORIENTED_EDGE('',*,*,#425,.F.);
#541=ORIENTED_EDGE('',*,*,#426,.F.);
#542=ORIENTED_EDGE('',*,*,#427,.T.);
#543=ORIENTED_EDGE('',*,*,#402,.F.);
#544=ORIENTED_EDGE('',*,*,#427,.F.);
#545=ORIENTED_EDGE('',*,*,#428,.F.);
#546=ORIENTED_EDGE('',*,*,#429,.T.);
#547=ORIENTED_EDGE('',*,*,#430,.F.);
#548=ORIENTED_EDGE('',*,*,#429,.F.);
#549=ORIENTED_EDGE('',*,*,#415,.F.);
#550=ORIENTED_EDGE('',*,*,#412,.F.);
#551=ORIENTED_EDGE('',*,*,#405,.F.);
#552=ORIENTED_EDGE('',*,*,#431,.F.);
#553=ORIENTED_EDGE('',*,*,#432,.F.);
#554=ORIENTED_EDGE('',*,*,#433,.T.);
#555=ORIENTED_EDGE('',*,*,#403,.F.);
#556=ORIENTED_EDGE('',*,*,#421,.F.);
#557=ORIENTED_EDGE('',*,*,#398,.F.);
#558=ORIENTED_EDGE('',*,*,#418,.F.);
#559=ORIENTED_EDGE('',*,*,#434,.F.);
#560=ORIENTED_EDGE('',*,*,#435,.T.);
#561=ORIENTED_EDGE('',*,*,#395,.F.);
#562=ORIENTED_EDGE('',*,*,#436,.F.);
#563=ORIENTED_EDGE('',*,*,#437,.F.);
#564=ORIENTED_EDGE('',*,*,#391,.F.);
#565=ORIENTED_EDGE('',*,*,#430,.T.);
#566=ORIENTED_EDGE('',*,*,#434,.T.);
#567=ORIENTED_EDGE('',*,*,#420,.T.);
#568=ORIENTED_EDGE('',*,*,#438,.T.);
#569=ORIENTED_EDGE('',*,*,#439,.F.);
#570=ORIENTED_EDGE('',*,*,#440,.F.);
#571=ORIENTED_EDGE('',*,*,#392,.T.);
#572=ORIENTED_EDGE('',*,*,#437,.T.);
#573=ORIENTED_EDGE('',*,*,#441,.T.);
#574=ORIENTED_EDGE('',*,*,#426,.T.);
#575=ORIENTED_EDGE('',*,*,#442,.F.);
#576=ORIENTED_EDGE('',*,*,#443,.F.);
#577=ORIENTED_EDGE('',*,*,#444,.F.);
#578=ORIENTED_EDGE('',*,*,#439,.T.);
#579=ORIENTED_EDGE('',*,*,#397,.T.);
#580=ORIENTED_EDGE('',*,*,#445,.F.);
#581=ORIENTED_EDGE('',*,*,#416,.T.);
#582=ORIENTED_EDGE('',*,*,#431,.T.);
#583=ORIENTED_EDGE('',*,*,#404,.F.);
#584=ORIENTED_EDGE('',*,*,#433,.F.);
#585=ORIENTED_EDGE('',*,*,#446,.T.);
#586=ORIENTED_EDGE('',*,*,#447,.F.);
#587=ORIENTED_EDGE('',*,*,#399,.T.);
#588=ORIENTED_EDGE('',*,*,#435,.F.);
#589=ORIENTED_EDGE('',*,*,#441,.F.);
#590=ORIENTED_EDGE('',*,*,#436,.T.);
#591=ORIENTED_EDGE('',*,*,#448,.F.);
#592=ORIENTED_EDGE('',*,*,#449,.T.);
#593=ORIENTED_EDGE('',*,*,#450,.F.);
#594=ORIENTED_EDGE('',*,*,#451,.T.);
#595=ORIENTED_EDGE('',*,*,#452,.F.);
#596=ORIENTED_EDGE('',*,*,#453,.F.);
#597=ORIENTED_EDGE('',*,*,#454,.F.);
#598=ORIENTED_EDGE('',*,*,#449,.F.);
#599=ORIENTED_EDGE('',*,*,#455,.F.);
#600=ORIENTED_EDGE('',*,*,#456,.F.);
#601=ORIENTED_EDGE('',*,*,#457,.F.);
#602=ORIENTED_EDGE('',*,*,#458,.T.);
#603=ORIENTED_EDGE('',*,*,#451,.F.);
#604=ORIENTED_EDGE('',*,*,#459,.F.);
#605=ORIENTED_EDGE('',*,*,#457,.T.);
#606=ORIENTED_EDGE('',*,*,#460,.F.);
#607=ORIENTED_EDGE('',*,*,#453,.T.);
#608=ORIENTED_EDGE('',*,*,#459,.T.);
#609=ORIENTED_EDGE('',*,*,#452,.T.);
#610=ORIENTED_EDGE('',*,*,#448,.T.);
#611=ORIENTED_EDGE('',*,*,#461,.T.);
#612=ORIENTED_EDGE('',*,*,#462,.T.);
#613=ORIENTED_EDGE('',*,*,#463,.F.);
#614=ORIENTED_EDGE('',*,*,#464,.T.);
#615=ORIENTED_EDGE('',*,*,#465,.T.);
#616=ORIENTED_EDGE('',*,*,#466,.T.);
#617=ORIENTED_EDGE('',*,*,#467,.T.);
#618=ORIENTED_EDGE('',*,*,#468,.T.);
#619=ORIENTED_EDGE('',*,*,#469,.T.);
#620=ORIENTED_EDGE('',*,*,#470,.T.);
#621=ORIENTED_EDGE('',*,*,#471,.T.);
#622=ORIENTED_EDGE('',*,*,#472,.T.);
#623=ORIENTED_EDGE('',*,*,#473,.T.);
#624=ORIENTED_EDGE('',*,*,#474,.T.);
#625=ORIENTED_EDGE('',*,*,#455,.T.);
#626=ORIENTED_EDGE('',*,*,#450,.T.);
#627=ORIENTED_EDGE('',*,*,#454,.T.);
#628=ORIENTED_EDGE('',*,*,#460,.T.);
#629=ORIENTED_EDGE('',*,*,#456,.T.);
#630=ORIENTED_EDGE('',*,*,#475,.F.);
#631=ORIENTED_EDGE('',*,*,#476,.T.);
#632=ORIENTED_EDGE('',*,*,#473,.F.);
#633=ORIENTED_EDGE('',*,*,#474,.F.);
#634=ORIENTED_EDGE('',*,*,#476,.F.);
#635=ORIENTED_EDGE('',*,*,#466,.F.);
#636=ORIENTED_EDGE('',*,*,#477,.T.);
#637=ORIENTED_EDGE('',*,*,#478,.F.);
#638=ORIENTED_EDGE('',*,*,#477,.F.);
#639=ORIENTED_EDGE('',*,*,#467,.F.);
#640=ORIENTED_EDGE('',*,*,#479,.T.);
#641=ORIENTED_EDGE('',*,*,#480,.F.);
#642=ORIENTED_EDGE('',*,*,#479,.F.);
#643=ORIENTED_EDGE('',*,*,#481,.F.);
#644=ORIENTED_EDGE('',*,*,#482,.T.);
#645=ORIENTED_EDGE('',*,*,#461,.F.);
#646=ORIENTED_EDGE('',*,*,#458,.F.);
#647=ORIENTED_EDGE('',*,*,#465,.F.);
#648=ORIENTED_EDGE('',*,*,#483,.F.);
#649=ORIENTED_EDGE('',*,*,#432,.T.);
#650=ORIENTED_EDGE('',*,*,#423,.T.);
#651=ORIENTED_EDGE('',*,*,#484,.F.);
#652=ORIENTED_EDGE('',*,*,#446,.F.);
#653=ORIENTED_EDGE('',*,*,#424,.T.);
#654=ORIENTED_EDGE('',*,*,#463,.T.);
#655=ORIENTED_EDGE('',*,*,#485,.F.);
#656=ORIENTED_EDGE('',*,*,#468,.F.);
#657=ORIENTED_EDGE('',*,*,#486,.T.);
#658=ORIENTED_EDGE('',*,*,#487,.F.);
#659=ORIENTED_EDGE('',*,*,#488,.F.);
#660=ORIENTED_EDGE('',*,*,#489,.F.);
#661=ORIENTED_EDGE('',*,*,#408,.F.);
#662=ORIENTED_EDGE('',*,*,#489,.T.);
#663=ORIENTED_EDGE('',*,*,#490,.T.);
#664=ORIENTED_EDGE('',*,*,#481,.T.);
#665=ORIENTED_EDGE('',*,*,#491,.T.);
#666=ORIENTED_EDGE('',*,*,#442,.T.);
#667=ORIENTED_EDGE('',*,*,#438,.F.);
#668=ORIENTED_EDGE('',*,*,#419,.F.);
#669=ORIENTED_EDGE('',*,*,#400,.T.);
#670=ORIENTED_EDGE('',*,*,#447,.T.);
#671=ORIENTED_EDGE('',*,*,#484,.T.);
#672=ORIENTED_EDGE('',*,*,#422,.F.);
#673=ORIENTED_EDGE('',*,*,#409,.F.);
#674=ORIENTED_EDGE('',*,*,#478,.T.);
#675=ORIENTED_EDGE('',*,*,#480,.T.);
#676=ORIENTED_EDGE('',*,*,#443,.T.);
#677=ORIENTED_EDGE('',*,*,#491,.F.);
#678=ORIENTED_EDGE('',*,*,#483,.T.);
#679=ORIENTED_EDGE('',*,*,#464,.F.);
#680=ORIENTED_EDGE('',*,*,#486,.F.);
#681=ORIENTED_EDGE('',*,*,#472,.F.);
#682=ORIENTED_EDGE('',*,*,#492,.F.);
#683=ORIENTED_EDGE('',*,*,#493,.F.);
#684=ORIENTED_EDGE('',*,*,#494,.F.);
#685=ORIENTED_EDGE('',*,*,#495,.T.);
#686=ORIENTED_EDGE('',*,*,#469,.F.);
#687=ORIENTED_EDGE('',*,*,#485,.T.);
#688=ORIENTED_EDGE('',*,*,#462,.F.);
#689=ORIENTED_EDGE('',*,*,#482,.F.);
#690=ORIENTED_EDGE('',*,*,#490,.F.);
#691=ORIENTED_EDGE('',*,*,#488,.T.);
#692=ORIENTED_EDGE('',*,*,#496,.F.);
#693=ORIENTED_EDGE('',*,*,#497,.T.);
#694=ORIENTED_EDGE('',*,*,#470,.F.);
#695=ORIENTED_EDGE('',*,*,#495,.F.);
#696=ORIENTED_EDGE('',*,*,#498,.F.);
#697=ORIENTED_EDGE('',*,*,#492,.T.);
#698=ORIENTED_EDGE('',*,*,#471,.F.);
#699=ORIENTED_EDGE('',*,*,#497,.F.);
#700=ORIENTED_EDGE('',*,*,#493,.T.);
#701=ORIENTED_EDGE('',*,*,#498,.T.);
#702=ORIENTED_EDGE('',*,*,#496,.T.);
#703=ORIENTED_EDGE('',*,*,#494,.T.);
#704=ORIENTED_EDGE('',*,*,#487,.T.);
#705=ORIENTED_EDGE('',*,*,#407,.T.);
#706=ORIENTED_EDGE('',*,*,#414,.T.);
#707=ORIENTED_EDGE('',*,*,#417,.T.);
#708=ORIENTED_EDGE('',*,*,#445,.T.);
#709=ORIENTED_EDGE('',*,*,#396,.T.);
#710=ORIENTED_EDGE('',*,*,#393,.T.);
#711=ORIENTED_EDGE('',*,*,#440,.T.);
#712=ORIENTED_EDGE('',*,*,#444,.T.);
#713=ORIENTED_EDGE('',*,*,#428,.T.);
#714=ORIENTED_EDGE('',*,*,#475,.T.);
#715=PLANE('',#803);
#716=PLANE('',#804);
#717=PLANE('',#805);
#718=PLANE('',#807);
#719=PLANE('',#809);
#720=PLANE('',#810);
#721=PLANE('',#811);
#722=PLANE('',#812);
#723=PLANE('',#820);
#724=PLANE('',#821);
#725=PLANE('',#822);
#726=PLANE('',#823);
#727=PLANE('',#824);
#728=PLANE('',#825);
#729=PLANE('',#826);
#730=PLANE('',#827);
#731=PLANE('',#828);
#732=PLANE('',#829);
#733=PLANE('',#830);
#734=PLANE('',#831);
#735=PLANE('',#834);
#736=PLANE('',#845);
#737=PLANE('',#846);
#738=PLANE('',#847);
#739=PLANE('',#848);
#740=PLANE('',#849);
#741=PLANE('',#850);
#742=PLANE('',#851);
#743=PLANE('',#856);
#744=ADVANCED_FACE('',(#52),#715,.T.);
#745=ADVANCED_FACE('',(#53),#716,.T.);
#746=ADVANCED_FACE('',(#54,#23),#717,.T.);
#747=ADVANCED_FACE('',(#55,#24),#718,.T.);
#748=ADVANCED_FACE('',(#56),#719,.T.);
#749=ADVANCED_FACE('',(#57),#720,.T.);
#750=ADVANCED_FACE('',(#58),#721,.T.);
#751=ADVANCED_FACE('',(#59),#722,.T.);
#752=ADVANCED_FACE('',(#60),#15,.F.);
#753=ADVANCED_FACE('',(#61),#16,.F.);
#754=ADVANCED_FACE('',(#62),#17,.F.);
#755=ADVANCED_FACE('',(#63),#723,.F.);
#756=ADVANCED_FACE('',(#64),#724,.F.);
#757=ADVANCED_FACE('',(#65),#725,.F.);
#758=ADVANCED_FACE('',(#66,#25),#726,.F.);
#759=ADVANCED_FACE('',(#67,#26),#727,.T.);
#760=ADVANCED_FACE('',(#68),#728,.T.);
#761=ADVANCED_FACE('',(#69),#729,.T.);
#762=ADVANCED_FACE('',(#70),#730,.T.);
#763=ADVANCED_FACE('',(#71),#731,.T.);
#764=ADVANCED_FACE('',(#72),#732,.T.);
#765=ADVANCED_FACE('',(#73),#733,.T.);
#766=ADVANCED_FACE('',(#74,#27,#28),#734,.F.);
#767=ADVANCED_FACE('',(#75,#29),#735,.F.);
#768=ADVANCED_FACE('',(#76),#18,.F.);
#769=ADVANCED_FACE('',(#77),#19,.F.);
#770=ADVANCED_FACE('',(#78),#20,.F.);
#771=ADVANCED_FACE('',(#79),#736,.T.);
#772=ADVANCED_FACE('',(#80,#30),#737,.T.);
#773=ADVANCED_FACE('',(#81),#738,.T.);
#774=ADVANCED_FACE('',(#82),#739,.T.);
#775=ADVANCED_FACE('',(#83,#31,#32),#740,.T.);
#776=ADVANCED_FACE('',(#84),#741,.T.);
#777=ADVANCED_FACE('',(#85),#742,.T.);
#778=ADVANCED_FACE('',(#86),#21,.T.);
#779=ADVANCED_FACE('',(#87),#22,.T.);
#780=ADVANCED_FACE('',(#88,#33,#34),#743,.T.);
#781=CLOSED_SHELL('',(#744,#745,#746,#747,#748,#749,#750,#751,#752,#753,
#754,#755,#756,#757,#758,#759,#760,#761,#762,#763,#764,#765,#766,#767,#768,
#769,#770,#771,#772,#773,#774,#775,#776,#777,#778,#779,#780));
#782=DERIVED_UNIT_ELEMENT(#784,1.);
#783=DERIVED_UNIT_ELEMENT(#1283,-3.);
#784=(
CONVERSION_BASED_UNIT('gram',#786)
MASS_UNIT()
NAMED_UNIT(#1280)
);
#785=(
MASS_UNIT()
NAMED_UNIT(*)
SI_UNIT(.KILO.,.GRAM.)
);
#786=MASS_MEASURE_WITH_UNIT(MASS_MEASURE(0.001),#785);
#787=DERIVED_UNIT((#782,#783));
#788=MEASURE_REPRESENTATION_ITEM('density measure',
POSITIVE_RATIO_MEASURE(1.),#787);
#789=PROPERTY_DEFINITION_REPRESENTATION(#794,#791);
#790=PROPERTY_DEFINITION_REPRESENTATION(#795,#792);
#791=REPRESENTATION('material name',(#793),#1277);
#792=REPRESENTATION('density',(#788),#1277);
#793=DESCRIPTIVE_REPRESENTATION_ITEM('Generic','Generic');
#794=PROPERTY_DEFINITION('material property','material name',#1291);
#795=PROPERTY_DEFINITION('material property','density of part',#1291);
#796=DATE_TIME_ROLE('creation_date');
#797=APPLIED_DATE_AND_TIME_ASSIGNMENT(#798,#796,(#1291));
#798=DATE_AND_TIME(#799,#800);
#799=CALENDAR_DATE(2026,19,5);
#800=LOCAL_TIME(0,0,0.,#801);
#801=COORDINATED_UNIVERSAL_TIME_OFFSET(0,0,.BEHIND.);
#802=AXIS2_PLACEMENT_3D('',#1058,#857,#858);
#803=AXIS2_PLACEMENT_3D('',#1059,#859,#860);
#804=AXIS2_PLACEMENT_3D('',#1068,#865,#866);
#805=AXIS2_PLACEMENT_3D('',#1074,#870,#871);
#806=AXIS2_PLACEMENT_3D('',#1084,#876,#877);
#807=AXIS2_PLACEMENT_3D('',#1085,#878,#879);
#808=AXIS2_PLACEMENT_3D('',#1103,#888,#889);
#809=AXIS2_PLACEMENT_3D('',#1104,#890,#891);
#810=AXIS2_PLACEMENT_3D('',#1110,#895,#896);
#811=AXIS2_PLACEMENT_3D('',#1116,#900,#901);
#812=AXIS2_PLACEMENT_3D('',#1122,#905,#906);
#813=AXIS2_PLACEMENT_3D('',#1128,#910,#911);
#814=AXIS2_PLACEMENT_3D('',#1130,#912,#913);
#815=AXIS2_PLACEMENT_3D('',#1132,#915,#916);
#816=AXIS2_PLACEMENT_3D('',#1134,#917,#918);
#817=AXIS2_PLACEMENT_3D('',#1136,#920,#921);
#818=AXIS2_PLACEMENT_3D('',#1138,#922,#923);
#819=AXIS2_PLACEMENT_3D('',#1141,#925,#926);
#820=AXIS2_PLACEMENT_3D('',#1142,#927,#928);
#821=AXIS2_PLACEMENT_3D('',#1144,#930,#931);
#822=AXIS2_PLACEMENT_3D('',#1148,#934,#935);
#823=AXIS2_PLACEMENT_3D('',#1152,#938,#939);
#824=AXIS2_PLACEMENT_3D('',#1156,#942,#943);
#825=AXIS2_PLACEMENT_3D('',#1163,#948,#949);
#826=AXIS2_PLACEMENT_3D('',#1169,#953,#954);
#827=AXIS2_PLACEMENT_3D('',#1174,#958,#959);
#828=AXIS2_PLACEMENT_3D('',#1183,#964,#965);
#829=AXIS2_PLACEMENT_3D('',#1189,#969,#970);
#830=AXIS2_PLACEMENT_3D('',#1197,#975,#976);
#831=AXIS2_PLACEMENT_3D('',#1200,#979,#980);
#832=AXIS2_PLACEMENT_3D('',#1211,#986,#987);
#833=AXIS2_PLACEMENT_3D('',#1213,#988,#989);
#834=AXIS2_PLACEMENT_3D('',#1214,#990,#991);
#835=AXIS2_PLACEMENT_3D('',#1221,#994,#995);
#836=AXIS2_PLACEMENT_3D('',#1223,#996,#997);
#837=AXIS2_PLACEMENT_3D('',#1226,#999,#1000);
#838=AXIS2_PLACEMENT_3D('',#1227,#1001,#1002);
#839=AXIS2_PLACEMENT_3D('',#1228,#1003,#1004);
#840=AXIS2_PLACEMENT_3D('',#1230,#1005,#1006);
#841=AXIS2_PLACEMENT_3D('',#1232,#1008,#1009);
#842=AXIS2_PLACEMENT_3D('',#1235,#1011,#1012);
#843=AXIS2_PLACEMENT_3D('',#1236,#1013,#1014);
#844=AXIS2_PLACEMENT_3D('',#1239,#1016,#1017);
#845=AXIS2_PLACEMENT_3D('',#1240,#1018,#1019);
#846=AXIS2_PLACEMENT_3D('',#1246,#1023,#1024);
#847=AXIS2_PLACEMENT_3D('',#1248,#1026,#1027);
#848=AXIS2_PLACEMENT_3D('',#1251,#1030,#1031);
#849=AXIS2_PLACEMENT_3D('',#1257,#1035,#1036);
#850=AXIS2_PLACEMENT_3D('',#1260,#1039,#1040);
#851=AXIS2_PLACEMENT_3D('',#1264,#1043,#1044);
#852=AXIS2_PLACEMENT_3D('',#1268,#1047,#1048);
#853=AXIS2_PLACEMENT_3D('',#1270,#1049,#1050);
#854=AXIS2_PLACEMENT_3D('',#1272,#1052,#1053);
#855=AXIS2_PLACEMENT_3D('',#1273,#1054,#1055);
#856=AXIS2_PLACEMENT_3D('',#1274,#1056,#1057);
#857=DIRECTION('axis',(0.,0.,1.));
#858=DIRECTION('refdir',(1.,0.,0.));
#859=DIRECTION('center_axis',(0.,-1.,0.));
#860=DIRECTION('ref_axis',(-1.,0.,0.));
#861=DIRECTION('',(1.,0.,0.));
#862=DIRECTION('',(0.,0.,-1.));
#863=DIRECTION('',(1.,0.,0.));
#864=DIRECTION('',(0.,0.,-1.));
#865=DIRECTION('center_axis',(-1.,0.,0.));
#866=DIRECTION('ref_axis',(0.,1.,0.));
#867=DIRECTION('',(0.,-1.,0.));
#868=DIRECTION('',(0.,-1.,0.));
#869=DIRECTION('',(0.,0.,1.));
#870=DIRECTION('center_axis',(-1.,0.,0.));
#871=DIRECTION('ref_axis',(0.,1.,0.));
#872=DIRECTION('',(0.,1.,0.));
#873=DIRECTION('',(0.,0.,1.));
#874=DIRECTION('',(0.,1.,0.));
#875=DIRECTION('',(0.,0.,-1.));
#876=DIRECTION('center_axis',(1.,0.,0.));
#877=DIRECTION('ref_axis',(0.,0.,-1.));
#878=DIRECTION('center_axis',(-1.,9.64093033330647E-17,0.));
#879=DIRECTION('ref_axis',(9.64093033330647E-17,1.,0.));
#880=DIRECTION('',(9.64093033330647E-17,1.,0.));
#881=DIRECTION('',(-3.17140845915036E-32,-3.28952533573872E-16,1.));
#882=DIRECTION('',(-9.64093033330647E-17,-1.,0.));
#883=DIRECTION('',(0.,0.,-1.));
#884=DIRECTION('',(-9.64093033330647E-17,-1.,0.));
#885=DIRECTION('',(0.,0.,-1.));
#886=DIRECTION('',(0.,-1.,0.));
#887=DIRECTION('',(0.,0.,-1.));
#888=DIRECTION('center_axis',(1.,-9.64093033330647E-17,0.));
#889=DIRECTION('ref_axis',(0.,0.,-1.));
#890=DIRECTION('center_axis',(0.,-1.,0.));
#891=DIRECTION('ref_axis',(-1.,0.,0.));
#892=DIRECTION('',(1.,0.,0.));
#893=DIRECTION('',(0.,0.,-1.));
#894=DIRECTION('',(1.,0.,0.));
#895=DIRECTION('center_axis',(1.,0.,0.));
#896=DIRECTION('ref_axis',(0.,-1.,0.));
#897=DIRECTION('',(0.,1.,0.));
#898=DIRECTION('',(0.,0.,-1.));
#899=DIRECTION('',(0.,1.,0.));
#900=DIRECTION('center_axis',(0.,-1.,0.));
#901=DIRECTION('ref_axis',(-1.,0.,0.));
#902=DIRECTION('',(-1.,0.,0.));
#903=DIRECTION('',(1.,0.,0.));
#904=DIRECTION('',(0.,0.,-1.));
#905=DIRECTION('center_axis',(0.,-1.,0.));
#906=DIRECTION('ref_axis',(-1.,0.,0.));
#907=DIRECTION('',(-1.,0.,0.));
#908=DIRECTION('',(1.,0.,0.));
#909=DIRECTION('',(0.,0.,-1.));
#910=DIRECTION('center_axis',(-1.,0.,0.));
#911=DIRECTION('ref_axis',(0.,0.,-1.));
#912=DIRECTION('center_axis',(-1.,0.,0.));
#913=DIRECTION('ref_axis',(0.,0.,-1.));
#914=DIRECTION('',(-1.,0.,0.));
#915=DIRECTION('center_axis',(-1.,0.,0.));
#916=DIRECTION('ref_axis',(0.,0.,-1.));
#917=DIRECTION('center_axis',(-1.,0.,0.));
#918=DIRECTION('ref_axis',(0.,0.,-1.));
#919=DIRECTION('',(-1.,0.,0.));
#920=DIRECTION('center_axis',(0.,0.,-1.));
#921=DIRECTION('ref_axis',(1.,0.,0.));
#922=DIRECTION('center_axis',(0.,0.,-1.));
#923=DIRECTION('ref_axis',(1.,0.,0.));
#924=DIRECTION('',(0.,0.,-1.));
#925=DIRECTION('center_axis',(0.,0.,1.));
#926=DIRECTION('ref_axis',(1.,0.,0.));
#927=DIRECTION('center_axis',(0.,0.,1.));
#928=DIRECTION('ref_axis',(0.,1.,0.));
#929=DIRECTION('',(-1.,0.,0.));
#930=DIRECTION('center_axis',(0.,0.,-1.));
#931=DIRECTION('ref_axis',(0.,-1.,0.));
#932=DIRECTION('',(0.,-1.,0.));
#933=DIRECTION('',(-1.,0.,0.));
#934=DIRECTION('center_axis',(0.,0.,-1.));
#935=DIRECTION('ref_axis',(0.,-1.,0.));
#936=DIRECTION('',(0.,-1.,0.));
#937=DIRECTION('',(-1.,0.,0.));
#938=DIRECTION('center_axis',(0.,0.,1.));
#939=DIRECTION('ref_axis',(0.,1.,0.));
#940=DIRECTION('',(-1.,0.,0.));
#941=DIRECTION('',(0.,1.,0.));
#942=DIRECTION('center_axis',(1.,0.,0.));
#943=DIRECTION('ref_axis',(0.,-1.,0.));
#944=DIRECTION('',(0.,1.,0.));
#945=DIRECTION('',(0.,0.,-1.));
#946=DIRECTION('',(0.,1.,0.));
#947=DIRECTION('',(0.,3.28952533573872E-16,-1.));
#948=DIRECTION('center_axis',(0.,1.,0.));
#949=DIRECTION('ref_axis',(1.,0.,0.));
#950=DIRECTION('',(1.,0.,0.));
#951=DIRECTION('',(0.,0.,-1.));
#952=DIRECTION('',(-1.,0.,0.));
#953=DIRECTION('center_axis',(0.,-1.,0.));
#954=DIRECTION('ref_axis',(-1.,0.,0.));
#955=DIRECTION('',(1.,0.,0.));
#956=DIRECTION('',(0.,0.,-1.));
#957=DIRECTION('',(-1.,0.,0.));
#958=DIRECTION('center_axis',(-1.,0.,0.));
#959=DIRECTION('ref_axis',(0.,0.,1.));
#960=DIRECTION('',(0.,1.,0.));
#961=DIRECTION('',(0.,0.50631875475561,0.862346402893135));
#962=DIRECTION('',(0.,-1.,0.));
#963=DIRECTION('',(0.,-0.50631875475561,-0.862346402893135));
#964=DIRECTION('center_axis',(0.,-0.862346402893135,0.50631875475561));
#965=DIRECTION('ref_axis',(0.,-0.50631875475561,-0.862346402893135));
#966=DIRECTION('',(-1.,0.,0.));
#967=DIRECTION('',(0.,-0.50631875475561,-0.862346402893135));
#968=DIRECTION('',(1.,0.,0.));
#969=DIRECTION('center_axis',(0.,0.862346402893135,-0.50631875475561));
#970=DIRECTION('ref_axis',(0.,0.50631875475561,0.862346402893135));
#971=DIRECTION('',(-1.,0.,0.));
#972=DIRECTION('',(-1.,0.,0.));
#973=DIRECTION('',(0.,0.50631875475561,0.862346402893135));
#974=DIRECTION('',(-1.,-9.87786845166739E-16,0.));
#975=DIRECTION('center_axis',(1.,0.,0.));
#976=DIRECTION('ref_axis',(0.,0.,-1.));
#977=DIRECTION('',(0.,-1.,0.));
#978=DIRECTION('',(0.,1.,0.));
#979=DIRECTION('center_axis',(0.,0.,-1.));
#980=DIRECTION('ref_axis',(-1.,0.,0.));
#981=DIRECTION('',(-1.,-9.87786845166739E-16,0.));
#982=DIRECTION('',(0.,-1.,0.));
#983=DIRECTION('',(-1.,0.,0.));
#984=DIRECTION('',(0.,1.,0.));
#985=DIRECTION('',(-1.,-9.87786845166739E-16,0.));
#986=DIRECTION('center_axis',(0.,0.,-1.));
#987=DIRECTION('ref_axis',(1.,0.,0.));
#988=DIRECTION('center_axis',(0.,0.,-1.));
#989=DIRECTION('ref_axis',(1.,0.,0.));
#990=DIRECTION('center_axis',(0.,0.,1.));
#991=DIRECTION('ref_axis',(1.,0.,0.));
#992=DIRECTION('',(-1.,0.,0.));
#993=DIRECTION('',(0.,1.,0.));
#994=DIRECTION('center_axis',(0.,0.,-1.));
#995=DIRECTION('ref_axis',(0.0402556966594621,0.999189410915899,0.));
#996=DIRECTION('center_axis',(0.,0.,-1.));
#997=DIRECTION('ref_axis',(0.983077636673872,0.183189410915899,0.));
#998=DIRECTION('',(0.,-1.,0.));
#999=DIRECTION('center_axis',(0.,0.,1.));
#1000=DIRECTION('ref_axis',(1.,0.,0.));
#1001=DIRECTION('center_axis',(0.,0.,1.));
#1002=DIRECTION('ref_axis',(1.,0.,0.));
#1003=DIRECTION('center_axis',(0.,0.,-1.));
#1004=DIRECTION('ref_axis',(1.,0.,0.));
#1005=DIRECTION('center_axis',(0.,0.,-1.));
#1006=DIRECTION('ref_axis',(1.,0.,0.));
#1007=DIRECTION('',(0.,0.,-1.));
#1008=DIRECTION('center_axis',(0.,0.,1.));
#1009=DIRECTION('ref_axis',(1.,0.,0.));
#1010=DIRECTION('',(0.,0.,-1.));
#1011=DIRECTION('center_axis',(0.,0.,1.));
#1012=DIRECTION('ref_axis',(1.,0.,0.));
#1013=DIRECTION('center_axis',(0.,0.,1.));
#1014=DIRECTION('ref_axis',(1.,0.,0.));
#1015=DIRECTION('',(0.,0.,-1.));
#1016=DIRECTION('center_axis',(0.,0.,1.));
#1017=DIRECTION('ref_axis',(1.,0.,0.));
#1018=DIRECTION('center_axis',(-9.87786845166739E-16,1.,0.));
#1019=DIRECTION('ref_axis',(-1.,-9.87786845166739E-16,0.));
#1020=DIRECTION('',(1.,9.87786845166739E-16,0.));
#1021=DIRECTION('',(0.,0.,1.));
#1022=DIRECTION('',(0.,0.,1.));
#1023=DIRECTION('center_axis',(1.,0.,0.));
#1024=DIRECTION('ref_axis',(0.,-1.,0.));
#1025=DIRECTION('',(0.,-1.,0.));
#1026=DIRECTION('center_axis',(0.,1.,0.));
#1027=DIRECTION('ref_axis',(1.,0.,0.));
#1028=DIRECTION('',(0.,0.,-1.));
#1029=DIRECTION('',(0.,0.,-1.));
#1030=DIRECTION('center_axis',(0.,1.,0.));
#1031=DIRECTION('ref_axis',(1.,0.,0.));
#1032=DIRECTION('',(-1.,0.,0.));
#1033=DIRECTION('',(0.,0.,1.));
#1034=DIRECTION('',(1.,0.,0.));
#1035=DIRECTION('center_axis',(0.,0.,-1.));
#1036=DIRECTION('ref_axis',(-1.,0.,0.));
#1037=DIRECTION('',(0.,1.,0.));
#1038=DIRECTION('',(0.,-1.,0.));
#1039=DIRECTION('center_axis',(1.,0.,0.));
#1040=DIRECTION('ref_axis',(0.,-1.,0.));
#1041=DIRECTION('',(0.,0.,-1.));
#1042=DIRECTION('',(0.,1.,0.));
#1043=DIRECTION('center_axis',(-1.,0.,0.));
#1044=DIRECTION('ref_axis',(0.,1.,0.));
#1045=DIRECTION('',(0.,-1.,0.));
#1046=DIRECTION('',(0.,0.,-1.));
#1047=DIRECTION('center_axis',(0.,0.,-1.));
#1048=DIRECTION('ref_axis',(0.0402556966594621,0.999189410915899,0.));
#1049=DIRECTION('center_axis',(0.,0.,1.));
#1050=DIRECTION('ref_axis',(0.0402556966594621,0.999189410915899,0.));
#1051=DIRECTION('',(0.,0.,-1.));
#1052=DIRECTION('center_axis',(0.,0.,-1.));
#1053=DIRECTION('ref_axis',(0.983077636673872,0.183189410915899,0.));
#1054=DIRECTION('center_axis',(0.,0.,1.));
#1055=DIRECTION('ref_axis',(0.983077636673872,0.183189410915899,0.));
#1056=DIRECTION('center_axis',(0.,0.,1.));
#1057=DIRECTION('ref_axis',(1.,0.,0.));
#1058=CARTESIAN_POINT('',(0.,0.,0.));
#1059=CARTESIAN_POINT('Origin',(1.66,-0.125,0.));
#1060=CARTESIAN_POINT('',(1.299,-0.125,-0.453));
#1061=CARTESIAN_POINT('',(1.66,-0.125,-0.453));
#1062=CARTESIAN_POINT('',(0.7675,-0.125,-0.453));
#1063=CARTESIAN_POINT('',(1.66,-0.125,0.));
#1064=CARTESIAN_POINT('',(1.66,-0.125,0.));
#1065=CARTESIAN_POINT('',(1.299,-0.125,0.));
#1066=CARTESIAN_POINT('',(1.299,-0.125,0.));
#1067=CARTESIAN_POINT('',(1.299,-0.125,0.));
#1068=CARTESIAN_POINT('Origin',(1.299,0.,0.));
#1069=CARTESIAN_POINT('',(1.299,0.319,-0.453));
#1070=CARTESIAN_POINT('',(1.299,0.,-0.453));
#1071=CARTESIAN_POINT('',(1.299,0.319,0.));
#1072=CARTESIAN_POINT('',(1.299,0.319,0.));
#1073=CARTESIAN_POINT('',(1.299,0.319,0.));
#1074=CARTESIAN_POINT('Origin',(1.299,0.,0.));
#1075=CARTESIAN_POINT('',(1.299,-0.125,-1.516));
#1076=CARTESIAN_POINT('',(1.299,0.319,-1.516));
#1077=CARTESIAN_POINT('',(1.299,0.1595,-1.516));
#1078=CARTESIAN_POINT('',(1.299,0.319,-1.969));
#1079=CARTESIAN_POINT('',(1.299,0.319,0.));
#1080=CARTESIAN_POINT('',(1.299,-0.125,-1.969));
#1081=CARTESIAN_POINT('',(1.299,0.11334375,-1.969));
#1082=CARTESIAN_POINT('',(1.299,-0.125,0.));
#1083=CARTESIAN_POINT('',(1.299,0.1417322834648,-1.6637598425195));
#1084=CARTESIAN_POINT('Origin',(1.299,0.1417322834648,-1.7425));
#1085=CARTESIAN_POINT('Origin',(-0.125,0.,0.));
#1086=CARTESIAN_POINT('',(-0.125,-0.125,-1.516));
#1087=CARTESIAN_POINT('',(-0.125,0.319,-1.516));
#1088=CARTESIAN_POINT('',(-0.125,0.1595,-1.516));
#1089=CARTESIAN_POINT('',(-0.125,0.319,-0.453));
#1090=CARTESIAN_POINT('',(-0.125,0.319,-0.2265));
#1091=CARTESIAN_POINT('',(-0.125,-0.125,-0.453));
#1092=CARTESIAN_POINT('',(-0.125,8.60453032247602E-17,-0.453));
#1093=CARTESIAN_POINT('',(-0.125,-0.125,0.));
#1094=CARTESIAN_POINT('',(-0.125,-0.125,0.));
#1095=CARTESIAN_POINT('',(-0.125,0.453375,0.));
#1096=CARTESIAN_POINT('',(-0.125,0.453375,0.));
#1097=CARTESIAN_POINT('',(-0.125,0.453375,-1.969));
#1098=CARTESIAN_POINT('',(-0.125,0.453375,0.));
#1099=CARTESIAN_POINT('',(-0.125,-0.125,-1.969));
#1100=CARTESIAN_POINT('',(-0.125,-0.09375,-1.969));
#1101=CARTESIAN_POINT('',(-0.125,-0.125,0.));
#1102=CARTESIAN_POINT('',(-0.125,0.1417322834648,-1.6637598425195));
#1103=CARTESIAN_POINT('Origin',(-0.125,0.1417322834648,-1.7425));
#1104=CARTESIAN_POINT('Origin',(0.236,-0.125,0.));
#1105=CARTESIAN_POINT('',(0.236,-0.125,-0.453));
#1106=CARTESIAN_POINT('',(0.0555,-0.125,-0.453));
#1107=CARTESIAN_POINT('',(0.236,-0.125,0.));
#1108=CARTESIAN_POINT('',(0.236,-0.125,0.));
#1109=CARTESIAN_POINT('',(-0.125,-0.125,0.));
#1110=CARTESIAN_POINT('Origin',(0.236,0.319,0.));
#1111=CARTESIAN_POINT('',(0.236,0.319,-0.453));
#1112=CARTESIAN_POINT('',(0.236,0.1595,-0.453));
#1113=CARTESIAN_POINT('',(0.236,0.319,0.));
#1114=CARTESIAN_POINT('',(0.236,0.319,0.));
#1115=CARTESIAN_POINT('',(0.236,0.,0.));
#1116=CARTESIAN_POINT('Origin',(1.66,-0.125,0.));
#1117=CARTESIAN_POINT('',(1.66,-0.125,-1.516));
#1118=CARTESIAN_POINT('',(0.7675,-0.125,-1.516));
#1119=CARTESIAN_POINT('',(1.66,-0.125,-1.969));
#1120=CARTESIAN_POINT('',(1.21375,-0.125,-1.969));
#1121=CARTESIAN_POINT('',(1.66,-0.125,0.));
#1122=CARTESIAN_POINT('Origin',(0.236,-0.125,0.));
#1123=CARTESIAN_POINT('',(0.236,-0.125,-1.516));
#1124=CARTESIAN_POINT('',(0.0555,-0.125,-1.516));
#1125=CARTESIAN_POINT('',(0.236,-0.125,-1.969));
#1126=CARTESIAN_POINT('',(0.50175,-0.125,-1.969));
#1127=CARTESIAN_POINT('',(0.236,-0.125,0.));
#1128=CARTESIAN_POINT('Origin',(1.66,0.1417322834648,-1.7425));
#1129=CARTESIAN_POINT('',(0.236,0.1417322834648,-1.6637598425195));
#1130=CARTESIAN_POINT('Origin',(0.236,0.1417322834648,-1.7425));
#1131=CARTESIAN_POINT('',(1.66,0.1417322834648,-1.6637598425195));
#1132=CARTESIAN_POINT('Origin',(1.66,0.1417322834648,-1.7425));
#1133=CARTESIAN_POINT('',(1.66,0.1417322834648,-1.6637598425195));
#1134=CARTESIAN_POINT('Origin',(1.66,0.1417322834648,-1.7425));
#1135=CARTESIAN_POINT('',(1.66,0.1417322834648,-1.6637598425195));
#1136=CARTESIAN_POINT('Origin',(1.4795,0.1417322834648,0.));
#1137=CARTESIAN_POINT('',(1.4007598425195,0.1417322834648,0.));
#1138=CARTESIAN_POINT('Origin',(1.4795,0.1417322834648,0.));
#1139=CARTESIAN_POINT('',(1.4007598425195,0.1417322834648,-0.453));
#1140=CARTESIAN_POINT('',(1.4007598425195,0.1417322834648,0.));
#1141=CARTESIAN_POINT('Origin',(1.4795,0.1417322834648,-0.453));
#1142=CARTESIAN_POINT('Origin',(1.66,0.,-0.453));
#1143=CARTESIAN_POINT('',(1.66,0.319,-0.453));
#1144=CARTESIAN_POINT('Origin',(1.66,0.319,-1.516));
#1145=CARTESIAN_POINT('',(0.236,0.319,-1.516));
#1146=CARTESIAN_POINT('',(0.236,0.0970000000000001,-1.516));
#1147=CARTESIAN_POINT('',(1.66,0.319,-1.516));
#1148=CARTESIAN_POINT('Origin',(1.66,0.319,-1.516));
#1149=CARTESIAN_POINT('',(1.66,0.319,-1.516));
#1150=CARTESIAN_POINT('',(1.66,0.1641875,-1.516));
#1151=CARTESIAN_POINT('',(1.66,0.319,-1.516));
#1152=CARTESIAN_POINT('Origin',(1.66,0.,-0.453));
#1153=CARTESIAN_POINT('',(1.66,0.319,-0.453));
#1154=CARTESIAN_POINT('',(1.66,0.319,-0.453));
#1155=CARTESIAN_POINT('',(1.66,0.2266875,-0.453));
#1156=CARTESIAN_POINT('Origin',(1.66,0.453375,0.));
#1157=CARTESIAN_POINT('',(1.66,0.453375,-1.969));
#1158=CARTESIAN_POINT('',(1.66,-0.03125,-1.969));
#1159=CARTESIAN_POINT('',(1.66,0.453375,0.));
#1160=CARTESIAN_POINT('',(1.66,0.453375,0.));
#1161=CARTESIAN_POINT('',(1.66,0.,0.));
#1162=CARTESIAN_POINT('',(1.66,0.319,-0.2265));
#1163=CARTESIAN_POINT('Origin',(1.535,0.453375,0.));
#1164=CARTESIAN_POINT('',(1.535,0.453375,-1.969));
#1165=CARTESIAN_POINT('',(1.50725,0.453375,-1.969));
#1166=CARTESIAN_POINT('',(1.535,0.453375,0.));
#1167=CARTESIAN_POINT('',(1.535,0.453375,0.));
#1168=CARTESIAN_POINT('',(1.66,0.453375,0.));
#1169=CARTESIAN_POINT('Origin',(1.535,0.319,0.));
#1170=CARTESIAN_POINT('',(0.,0.319,0.));
#1171=CARTESIAN_POINT('',(0.236,0.319,-1.969));
#1172=CARTESIAN_POINT('',(0.236,0.319,0.));
#1173=CARTESIAN_POINT('',(0.,0.319,-1.969));
#1174=CARTESIAN_POINT('Origin',(0.6925,1.52354773997204,-1.004));
#1175=CARTESIAN_POINT('',(0.6925,0.958055979944073,-1.819));
#1176=CARTESIAN_POINT('',(0.6925,1.132,-1.819));
#1177=CARTESIAN_POINT('',(0.6925,1.17152386998602,-1.819));
#1178=CARTESIAN_POINT('',(0.6925,1.91509547994407,-0.189));
#1179=CARTESIAN_POINT('',(0.6925,1.91509547994407,-0.189));
#1180=CARTESIAN_POINT('',(0.6925,2.0890395,-0.189));
#1181=CARTESIAN_POINT('',(0.6925,1.59567585543929,-0.189));
#1182=CARTESIAN_POINT('',(0.6925,1.132,-1.819));
#1183=CARTESIAN_POINT('Origin',(0.7675,1.91509547994407,-0.189));
#1184=CARTESIAN_POINT('',(0.8425,0.958055979944073,-1.819));
#1185=CARTESIAN_POINT('',(0.7675,0.958055979944073,-1.819));
#1186=CARTESIAN_POINT('',(0.8425,1.91509547994407,-0.189));
#1187=CARTESIAN_POINT('',(0.8425,1.91509547994407,-0.189));
#1188=CARTESIAN_POINT('',(0.7675,1.91509547994407,-0.189));
#1189=CARTESIAN_POINT('Origin',(0.7675,1.132,-1.819));
#1190=CARTESIAN_POINT('',(0.7675,2.0890395,-0.189));
#1191=CARTESIAN_POINT('',(0.7675,2.0890395,-0.189));
#1192=CARTESIAN_POINT('',(0.8425,2.0890395,-0.189));
#1193=CARTESIAN_POINT('',(0.7675,2.0890395,-0.189));
#1194=CARTESIAN_POINT('',(0.8425,1.132,-1.819));
#1195=CARTESIAN_POINT('',(0.8425,1.132,-1.819));
#1196=CARTESIAN_POINT('',(0.,1.132,-1.819));
#1197=CARTESIAN_POINT('Origin',(0.8425,1.52354773997204,-1.004));
#1198=CARTESIAN_POINT('',(0.8425,1.17152386998602,-1.819));
#1199=CARTESIAN_POINT('',(0.8425,1.59567585543929,-0.189));
#1200=CARTESIAN_POINT('Origin',(0.7675,0.8195,-1.819));
#1201=CARTESIAN_POINT('',(0.,1.132,-1.819));
#1202=CARTESIAN_POINT('',(0.,1.132,-1.819));
#1203=CARTESIAN_POINT('',(0.,0.507,-1.819));
#1204=CARTESIAN_POINT('',(0.,0.507,-1.819));
#1205=CARTESIAN_POINT('',(1.535,0.507,-1.819));
#1206=CARTESIAN_POINT('',(0.38375,0.507,-1.819));
#1207=CARTESIAN_POINT('',(1.535,1.132,-1.819));
#1208=CARTESIAN_POINT('',(1.535,1.132,-1.819));
#1209=CARTESIAN_POINT('',(0.,1.132,-1.819));
#1210=CARTESIAN_POINT('',(0.228,0.8195,-1.819));
#1211=CARTESIAN_POINT('Origin',(0.3875,0.8195,-1.819));
#1212=CARTESIAN_POINT('',(0.98,0.8195,-1.819));
#1213=CARTESIAN_POINT('Origin',(1.1395,0.8195,-1.819));
#1214=CARTESIAN_POINT('Origin',(0.7675,1.66780397090654,-0.189));
#1215=CARTESIAN_POINT('',(1.535,0.507,-0.189));
#1216=CARTESIAN_POINT('',(0.,0.507,-0.189));
#1217=CARTESIAN_POINT('',(0.38375,0.507,-0.189));
#1218=CARTESIAN_POINT('',(0.,2.404,-0.189));
#1219=CARTESIAN_POINT('',(0.,2.404,-0.189));
#1220=CARTESIAN_POINT('',(0.7675,3.016,-0.189));
#1221=CARTESIAN_POINT('Origin',(0.737308227505403,2.26660794181308,-0.189));
#1222=CARTESIAN_POINT('',(1.535,2.404,-0.189));
#1223=CARTESIAN_POINT('Origin',(0.797691772494596,2.26660794181308,-0.189));
#1224=CARTESIAN_POINT('',(1.535,0.319,-0.189));
#1225=CARTESIAN_POINT('',(0.4525395,2.404,-0.189));
#1226=CARTESIAN_POINT('Origin',(0.7675,2.404,-0.189));
#1227=CARTESIAN_POINT('Origin',(0.7675,2.404,-0.189));
#1228=CARTESIAN_POINT('Origin',(0.7675,2.404,0.));
#1229=CARTESIAN_POINT('',(0.4525395,2.404,0.));
#1230=CARTESIAN_POINT('Origin',(0.7675,2.404,0.));
#1231=CARTESIAN_POINT('',(0.4525395,2.404,0.));
#1232=CARTESIAN_POINT('Origin',(0.3875,0.8195,-1.969));
#1233=CARTESIAN_POINT('',(0.228,0.8195,-1.969));
#1234=CARTESIAN_POINT('',(0.228,0.8195,-1.969));
#1235=CARTESIAN_POINT('Origin',(0.3875,0.8195,-1.969));
#1236=CARTESIAN_POINT('Origin',(1.1395,0.8195,-1.969));
#1237=CARTESIAN_POINT('',(0.98,0.8195,-1.969));
#1238=CARTESIAN_POINT('',(0.98,0.8195,-1.969));
#1239=CARTESIAN_POINT('Origin',(1.1395,0.8195,-1.969));
#1240=CARTESIAN_POINT('Origin',(1.535,1.132,-1.969));
#1241=CARTESIAN_POINT('',(0.,1.132,-1.969));
#1242=CARTESIAN_POINT('',(1.535,1.132,-1.969));
#1243=CARTESIAN_POINT('',(0.,1.132,-1.969));
#1244=CARTESIAN_POINT('',(0.,1.132,-1.969));
#1245=CARTESIAN_POINT('',(1.535,1.132,-1.969));
#1246=CARTESIAN_POINT('Origin',(0.236,0.319,0.));
#1247=CARTESIAN_POINT('',(0.236,0.,-1.969));
#1248=CARTESIAN_POINT('Origin',(0.,0.507,0.));
#1249=CARTESIAN_POINT('',(0.,0.507,0.));
#1250=CARTESIAN_POINT('',(1.535,0.507,0.));
#1251=CARTESIAN_POINT('Origin',(-0.125,0.453375,0.));
#1252=CARTESIAN_POINT('',(0.,0.453375,0.));
#1253=CARTESIAN_POINT('',(0.,0.453375,0.));
#1254=CARTESIAN_POINT('',(0.,0.453375,-1.969));
#1255=CARTESIAN_POINT('',(0.,0.453375,0.));
#1256=CARTESIAN_POINT('',(0.,0.453375,-1.969));
#1257=CARTESIAN_POINT('Origin',(0.705,0.2535,-1.969));
#1258=CARTESIAN_POINT('',(0.,0.507,-1.969));
#1259=CARTESIAN_POINT('',(1.535,1.132,-1.969));
#1260=CARTESIAN_POINT('Origin',(1.535,2.404,0.));
#1261=CARTESIAN_POINT('',(1.535,2.404,0.));
#1262=CARTESIAN_POINT('',(1.535,2.404,0.));
#1263=CARTESIAN_POINT('',(1.535,0.319,0.));
#1264=CARTESIAN_POINT('Origin',(0.,0.319,0.));
#1265=CARTESIAN_POINT('',(0.,2.404,0.));
#1266=CARTESIAN_POINT('',(0.,2.404,0.));
#1267=CARTESIAN_POINT('',(0.,2.404,0.));
#1268=CARTESIAN_POINT('Origin',(0.737308227505403,2.26660794181308,0.));
#1269=CARTESIAN_POINT('',(0.7675,3.016,0.));
#1270=CARTESIAN_POINT('Origin',(0.737308227505403,2.26660794181308,0.));
#1271=CARTESIAN_POINT('',(0.7675,3.016,0.));
#1272=CARTESIAN_POINT('Origin',(0.797691772494596,2.26660794181308,0.));
#1273=CARTESIAN_POINT('Origin',(0.797691772494596,2.26660794181308,0.));
#1274=CARTESIAN_POINT('Origin',(0.7675,1.66780397090654,0.));
#1275=UNCERTAINTY_MEASURE_WITH_UNIT(LENGTH_MEASURE(0.000393700787401575),
#1281,'DISTANCE_ACCURACY_VALUE',
'Maximum model space distance between geometric entities at asserted c
onnectivities');
#1276=UNCERTAINTY_MEASURE_WITH_UNIT(LENGTH_MEASURE(0.000393700787401575),
#1281,'DISTANCE_ACCURACY_VALUE',
'Maximum model space distance between geometric entities at asserted c
onnectivities');
#1277=(
GEOMETRIC_REPRESENTATION_CONTEXT(3)
GLOBAL_UNCERTAINTY_ASSIGNED_CONTEXT((#1275))
GLOBAL_UNIT_ASSIGNED_CONTEXT((#1281,#1285,#1286))
REPRESENTATION_CONTEXT('','3D')
);
#1278=(
GEOMETRIC_REPRESENTATION_CONTEXT(3)
GLOBAL_UNCERTAINTY_ASSIGNED_CONTEXT((#1276))
GLOBAL_UNIT_ASSIGNED_CONTEXT((#1281,#1285,#1286))
REPRESENTATION_CONTEXT('','3D')
);
#1279=DIMENSIONAL_EXPONENTS(1.,0.,0.,0.,0.,0.,0.);
#1280=DIMENSIONAL_EXPONENTS(0.,1.,0.,0.,0.,0.,0.);
#1281=(
CONVERSION_BASED_UNIT('inch',#1284)
LENGTH_UNIT()
NAMED_UNIT(#1279)
);
#1282=(
LENGTH_UNIT()
NAMED_UNIT(*)
SI_UNIT(.MILLI.,.METRE.)
);
#1283=(
LENGTH_UNIT()
NAMED_UNIT(*)
SI_UNIT(.CENTI.,.METRE.)
);
#1284=LENGTH_MEASURE_WITH_UNIT(LENGTH_MEASURE(25.4),#1282);
#1285=(
NAMED_UNIT(*)
PLANE_ANGLE_UNIT()
SI_UNIT($,.RADIAN.)
);
#1286=(
NAMED_UNIT(*)
SI_UNIT($,.STERADIAN.)
SOLID_ANGLE_UNIT()
);
#1287=SHAPE_DEFINITION_REPRESENTATION(#1288,#1289);
#1288=PRODUCT_DEFINITION_SHAPE('',$,#1291);
#1289=SHAPE_REPRESENTATION('',(#802),#1277);
#1290=PRODUCT_DEFINITION_CONTEXT('part definition',#1295,'design');
#1291=PRODUCT_DEFINITION('Transmitter + Reciever',
'Transmitter + Reciever',#1292,#1290);
#1292=PRODUCT_DEFINITION_FORMATION('',$,#1297);
#1293=PRODUCT_RELATED_PRODUCT_CATEGORY('Transmitter + Reciever',
'Transmitter + Reciever',(#1297));
#1294=APPLICATION_PROTOCOL_DEFINITION('international standard',
'automotive_design',2009,#1295);
#1295=APPLICATION_CONTEXT(
'Core Data for Automotive Mechanical Design Process');
#1296=PRODUCT_CONTEXT('part definition',#1295,'mechanical');
#1297=PRODUCT('Transmitter + Reciever','Transmitter + Reciever',$,(#1296));
#1298=PRESENTATION_STYLE_ASSIGNMENT((#1299));
#1299=SURFACE_STYLE_USAGE(.BOTH.,#1302);
#1300=SURFACE_STYLE_RENDERING_WITH_PROPERTIES($,#1306,(#1301));
#1301=SURFACE_STYLE_TRANSPARENT(0.);
#1302=SURFACE_SIDE_STYLE('',(#1303,#1300));
#1303=SURFACE_STYLE_FILL_AREA(#1304);
#1304=FILL_AREA_STYLE('',(#1305));
#1305=FILL_AREA_STYLE_COLOUR('',#1306);
#1306=COLOUR_RGB('',0.749019607843137,0.749019607843137,0.749019607843137);
ENDSEC;
END-ISO-10303-21;
